<?xml version="1.0" standalone="no"?>
<!DOCTYPE svg PUBLIC "-//W3C//DTD SVG 1.1//EN" "http://www.w3.org/Graphics/SVG/1.1/DTD/svg11.dtd">
<svg xmlns="http://www.w3.org/2000/svg">
<metadata>Copyright (C) 2017 by Dave Gandy</metadata>
<defs>
<font id="fa5solid" horiz-adv-x="1000" >
<font-face font-family="Font Awesome 5 Free" font-weight="400" font-stretch="normal" units-per-em="1000" ascent="850" descent="-150" />
<missing-glyph horiz-adv-x="1000" />
<glyph glyph-name="address-book" unicode="&#xf2b9;" d="M852 538h-39V413h39c13 0 23-11 23-24v-78c0-13-10-23-23-23h-39V163h39c13 0 23-11 23-24V61c0-13-10-23-23-23h-39v-94c0-52-42-94-94-94H94c-52 0-94 42-94 94v812c0 52 42 94 94 94h625c51 0 93-42 93-94l1-93h39c13 0 23-11 23-24v-78c0-13-10-24-23-24z m-446 62a125 125 0 1 1 1-250 125 125 0 0 1-1 250z m219-462v37c0 62-59 113-131 113h-10a201 201 0 0 0-155 0h-10c-73 0-131-51-131-113v-37c0-21 19-38 43-38h350c25 0 44 17 44 38z" horiz-adv-x="875" />
<glyph glyph-name="address-card" unicode="&#xf2bb;" d="M1031 788c52 0 94-42 94-94V6c0-51-42-93-94-93H94C42-87 0-45 0 6v688c0 52 42 94 94 94h937zM344 600a125 125 0 1 1 0-250 125 125 0 0 1 0 250z m218-462l1 37c0 62-59 113-132 113h-10a201 201 0 0 0-155 0h-10c-72 0-131-51-131-113v-37c0-21 20-38 44-38h350c24 0 44 17 44 38z m438 103v31c0 8-7 15-16 15l-281 1c-9 0-16-7-16-16v-31c0-9 7-16 16-16h281c9 0 16 7 16 16z m0 125v31c0 9-7 16-16 16H703c-9 0-16-7-16-16v-31c0-9 7-16 16-16h281c9 0 16 7 16 16z m0 125v31c0 8-7 15-16 15l-281 1c-9 0-16-7-16-16v-31c0-9 7-16 16-16h281c9 0 16 7 16 16z" horiz-adv-x="1125" />
<glyph glyph-name="adjust" unicode="&#xf042;" d="M16 350a484 484 0 1 0 968 0 484 484 0 0 0-968 0zM500-9a359 359 0 1 1 0 718V-9z" horiz-adv-x="1000" />
<glyph glyph-name="air-freshener" unicode="&#xf5d0;" d="M740 222c23-23 4-59-32-59H438v-63h218c18 0 32-14 32-31v-188c0-17-14-31-32-31H94c-17 0-31 14-31 31V69c0 17 14 31 31 31h219v63H42c-35 0-55 36-32 59l184 191H98c-30 0-46 32-27 53l221 247c-7 13-11 28-11 43a94 94 0 1 0 177-43l221-247c19-21 3-53-27-53h-96zM375 788a31 31 0 1 1 0-63 31 31 0 0 1 0 63zM594 6H156v-62h438V6z" horiz-adv-x="750" />
<glyph glyph-name="align-center" unicode="&#xf037;" d="M844 538c17 0 31-14 31-32v-62c0-18-14-32-31-32l-813 1c-17 0-31 14-31 31v62c0 17 14 31 31 31l813 1z m0-500c17 0 31-14 31-32v-62c0-17-14-31-31-31H31C14-87 0-73 0-56V6c0 18 14 32 31 32h813zM211 663c-13 0-24 10-24 23v78c0 13 11 23 24 23v1h453c13 0 23-11 23-24v-78c0-13-10-23-23-23H211z m453-500H211c-13 0-24 10-24 23v78c0 13 11 23 24 23v1h453c13 0 23-11 23-24v-78c0-13-10-24-23-24z" horiz-adv-x="875" />
<glyph glyph-name="align-justify" unicode="&#xf039;" d="M844 38c17 0 31-14 31-32v-62c0-17-14-31-31-31H31C14-87 0-73 0-56V6c0 18 14 32 31 32h813z m0 250c17 0 31-14 31-32v-62c0-18-14-32-31-32l-813 1c-17 0-31 14-31 31v62c0 17 14 31 31 31l813 1z m0 250c17 0 31-14 31-32v-62c0-18-14-32-31-32l-813 1c-17 0-31 14-31 31v62c0 17 14 31 31 31l813 1z m0 250c17 0 31-14 31-32v-62c0-17-14-31-31-31H31c-17 0-31 14-31 31v62c0 18 14 32 31 32h813z" horiz-adv-x="875" />
<glyph glyph-name="align-left" unicode="&#xf036;" d="M25 163c-14 0-25 11-25 25v74c0 14 11 26 25 26h512c14 0 26-12 26-25v-76c0-13-12-25-25-25H25z m0 500c-14 0-25 11-25 25v74c0 14 11 26 25 26h512c14 0 26-12 26-25v-75c0-14-12-25-25-25H25z m819-125c17 0 31-14 31-32v-62c0-18-14-32-31-32l-813 1c-17 0-31 14-31 31v62c0 17 14 31 31 31l813 1z m0-500c17 0 31-14 31-32v-62c0-17-14-31-31-31H31C14-87 0-73 0-56V6c0 18 14 32 31 32h813z" horiz-adv-x="875" />
<glyph glyph-name="align-right" unicode="&#xf038;" d="M31 413c-17 0-31 14-31 31v62c0 17 14 31 31 31l813 1c17 0 31-14 31-32v-62c0-18-14-32-31-32l-813 1zM844 38c17 0 31-14 31-32v-62c0-17-14-31-31-31H31C14-87 0-73 0-56V6c0 18 14 32 31 32h813z m6 750c14 0 25-12 25-25v-75c0-14-11-25-25-25H338c-14 0-25 11-25 25v74c0 14 11 26 25 26h512z m0-500c14 0 25-12 25-25v-76c0-13-11-25-25-25H338c-14 0-25 12-25 25v75c0 14 11 26 25 26h512z" horiz-adv-x="875" />
<glyph glyph-name="allergies" unicode="&#xf461;" d="M813 631c34 0 62-28 62-62V225c0-27-4-56-10-83L813-78a94 94 0 0 0-91-72H336c-30 0-58 14-76 39L15 226a78 78 0 0 0 126 92l46-64v471a63 63 0 0 0 125 0V428c0-8 7-15 16-15h31c9 0 16 7 16 15v360a63 63 0 0 0 125 0V428c0-8 7-15 16-15h31c8 0 15 7 15 15v297a63 63 0 0 0 125 0V428c0-8 7-15 16-15h31c9 0 16 7 16 15v141c0 34 28 62 62 62zM344 38c17 0 31 14 31 31s-14 31-31 31-31-14-31-31 14-31 31-31z m0 187c17 0 31 14 31 31s-14 31-31 31-31-14-31-31 14-31 31-31zM469-25c17 0 31 14 31 31s-14 32-31 32-31-15-31-32 14-31 31-31z m0 188c17 0 31 14 31 31s-14 31-31 31-31-14-31-31 14-32 31-32z m125-63c17 0 31 14 31 31s-14 31-31 31-32-14-32-31 15-31 32-31z m62-125c17 0 31 14 31 31s-14 32-31 32-31-15-31-32 14-31 31-31z m63 250c17 0 31 14 31 31s-14 31-31 31-32-14-32-31 15-31 32-31z" horiz-adv-x="875" />
<glyph glyph-name="ambulance" unicode="&#xf0f9;" d="M1219 163c17 0 31-15 31-32V69c0-17-14-32-31-32h-94a188 188 0 0 0-375 1H500a188 188 0 0 0-375 0H94C42 38 0 80 0 131v625c0 52 42 94 94 94h625c51 0 93-42 93-94l1-93h86c24 0 48-10 66-28l195-195c18-18 28-42 28-66V163h31zM313-56a94 94 0 1 1-1 187 94 94 0 0 1 1-187z m281 484v94c0 8-7 15-16 15l-109 1v109c0 8-7 15-16 15l-94 1c-8 0-15-7-15-16V537l-110 1c-8 0-15-7-15-16v-94c0-9 7-16 15-16h110V303c0-9 7-16 15-16h94c9 0 16 7 16 16v109h109c9 0 16 7 16 16zM937-56a94 94 0 1 1 0 187 94 94 0 0 1 1-187z m157 406v24L899 569h-87V350h282z" horiz-adv-x="1250" />
<glyph glyph-name="american-sign-language-interpreting" unicode="&#xf2a3;" d="M568 481c-40 20-87 22-127 7 83 0 139-40 167-98 17-35-10-75-46-75 36 0 63-39 46-74-29-60-90-99-157-99-1 0-184 16-184 16L137 93c-18-9-39 0-46 16L4 282c-8 17-2 37 13 46l114 65 80 145c12 112 68 214 156 286 22 19 55 15 73-7s15-55-7-73c-24-21-46-44-64-69 43 28 92 48 145 54 29 4 55-16 58-45 4-29-16-55-45-58-31-4-60-14-86-30 51 11 115 6 172-21a52 52 0 0 0-46-94z m-54-136a69 69 0 0 1-63 40c-38 0-69-31-69-69 0-1 0-1 0-1a70 70 0 0 1 132-30c9 19 27 30 46 30-19 1-37 12-46 30z m732 73c9-17 3-37-13-46l-114-65-80-145a432 432 0 0 0-156-286 52 52 0 0 0-73 7 52 52 0 0 0 7 73c25 21 46 44 64 69-43-28-92-48-145-54-20-5-54 11-58 45-4 28 16 54 45 58 31 3 61 14 86 30-51-12-115-7-172 21a52 52 0 0 0 46 94c39-20 86-22 126-7-83 0-139 40-167 98a52 52 0 0 0 46 75c-36 0-63 39-46 74 27 58 86 100 160 99l181-16 130 65c18 9 39 0 47-15z m-447 36c-27 0-51-15-63-39-9-19-27-30-46-30 19-1 37-12 46-30a69 69 0 0 1 132 30c0 42-35 69-69 69z" horiz-adv-x="1250" />
<glyph glyph-name="anchor" unicode="&#xf13d;" d="M25 163c-20 0-31 25-16 40l131 130c9 10 24 10 33 0l131-131c15-14 4-40-17-40h-68C258 56 385-7 500-21v371H398c-12 0-23 11-23 23v79c0 12 11 23 23 23h102v11a188 188 0 1 0 125 0v-11h102c13 0 23-10 23-23v-79c0-12-10-23-23-23H625V-21C741-7 867 56 907 163h-69c-21 0-32 25-17 40l131 130c9 10 24 10 33 0l131-130c15-15 5-40-16-40h-64C994-38 770-150 563-150 355-150 131-38 89 163H25z m538 562a63 63 0 1 1 0-125 63 63 0 0 1 0 125z" horiz-adv-x="1125" />
<glyph glyph-name="angle-double-down" unicode="&#xf103;" d="M279 349L14 615a47 47 0 0 0 0 66l44 44c18 19 48 19 66 0l188-188 189 188c18 19 48 19 66 0l44-44c19-18 19-48 0-66L346 350a47 47 0 0 0-67-1z m67-375a47 47 0 0 0-67 1L14 240a47 47 0 0 0 0 66l44 45c18 18 48 18 66 0l189-189 188 188c18 19 48 19 66 0l44-44c19-18 19-48 0-66z" horiz-adv-x="625" />
<glyph glyph-name="angle-double-left" unicode="&#xf100;" d="M437 383l266 266c18 18 48 18 66 0l44-44c18-19 18-48 0-67L625 350l188-188c18-19 18-48 0-67l-44-44a47 47 0 0 0-66 0L437 317a47 47 0 0 0 0 66zM62 317a47 47 0 0 0 0 66l266 266c18 18 48 18 66 0l44-45c18-18 18-47 0-66L250 350l188-189c18-18 18-47 0-66l-44-44a47 47 0 0 0-67 0z" horiz-adv-x="875" />
<glyph glyph-name="angle-double-right" unicode="&#xf101;" d="M438 317L173 51a47 47 0 0 0-67 0L62 95a47 47 0 0 0 0 66l188 189L62 538a47 47 0 0 0 0 66l44 45c18 18 48 18 66 0l266-266c18-18 18-48 0-66z m375 66c18-18 18-48 0-66L548 52a47 47 0 0 0-67 0l-44 44a47 47 0 0 0 0 66l188 188-188 188a47 47 0 0 0 0 67l44 44c18 18 48 18 67 0z" horiz-adv-x="875" />
<glyph glyph-name="angle-double-up" unicode="&#xf102;" d="M346 351L611 85c19-18 19-48 0-66l-44-44a47 47 0 0 0-66 0L312 163 124-26a47 47 0 0 0-66 0L14 19a47 47 0 0 0 0 66l265 265c19 19 48 19 67 1z m-67 375c19 18 48 18 66 0l266-266c18-18 18-48 0-66l-44-44a47 47 0 0 0-66 0L312 538 124 350a47 47 0 0 0-66 0l-44 44a47 47 0 0 0 0 66z" horiz-adv-x="625" />
<glyph glyph-name="angle-down" unicode="&#xf107;" d="M279 162L14 428a47 47 0 0 0 0 66l44 44c18 18 48 18 66 0l188-188 189 188c18 18 48 18 66 0l44-44c18-19 18-48 0-67L345 163a47 47 0 0 0-66 0z" horiz-adv-x="625" />
<glyph glyph-name="angle-left" unicode="&#xf104;" d="M62 383l266 266c18 18 48 18 66 0l44-44c18-19 18-48 0-67L250 350l188-188c18-19 18-48 0-67l-44-44a47 47 0 0 0-66 0L62 317a47 47 0 0 0 0 66z" horiz-adv-x="500" />
<glyph glyph-name="angle-right" unicode="&#xf105;" d="M438 317L173 51a47 47 0 0 0-67 0L62 95a47 47 0 0 0 0 66l188 189L62 538a47 47 0 0 0 0 66l44 45c18 18 48 18 66 0l266-266c18-18 18-48 0-66z" horiz-adv-x="500" />
<glyph glyph-name="angle-up" unicode="&#xf106;" d="M346 538l265-265c19-19 19-49 0-67l-44-44a47 47 0 0 0-66 0L312 350 124 162a47 47 0 0 0-66 0l-44 44a47 47 0 0 0 0 66l265 266c19 18 48 18 67 0z" horiz-adv-x="625" />
<glyph glyph-name="angry" unicode="&#xf556;" d="M484 834a484 484 0 1 0 1-968 484 484 0 0 0-1 968zM266 381a63 63 0 0 1 125 0c0 6-2 11-4 16 2 0 3 0 4 0 13 0 26 9 30 22 5 17-5 34-21 39l-156 47c-17 5-34-4-39-21-5-16 4-34 21-39l60-18a62 62 0 0 1-20-46zM594 80c26-31 75 8 48 40a204 204 0 0 1-315 0c-27-32 21-72 48-40 54 65 164 65 219 0z m149 365c17 5 26 22 21 39-4 16-22 26-38 21l-157-47c-16-5-25-22-21-39 4-13 17-22 30-22 1 0 2 0 4 0-2-5-4-10-4-16a63 63 0 0 1 125 0c0 18-8 35-20 46z" horiz-adv-x="968.8" />
<glyph glyph-name="apple-alt" unicode="&#xf5d1;" d="M685 598c51-9 93-36 125-82 29-40 48-91 59-152 9-56 8-112-2-168-16-93-47-170-94-233a253 253 0 0 0-211-113c-21 0-43 7-68 20-17 10-36 15-57 15s-39-5-56-15c-25-13-48-20-68-20-85 0-155 38-211 113C55 26 24 103 8 196-2 252-3 308 6 364c11 61 30 112 59 152 32 46 74 73 125 82 31 5 74 1 128-14 47-13 87-28 119-47 33 19 73 34 119 47 55 15 98 19 129 14z m-107 80c-18-17-42-29-72-37-21-6-44-10-69-10l-29 2c-2 18-2 39 0 63 5 47 20 82 45 107 18 17 42 29 72 37 21 7 44 10 69 10l29-2 2-29c0-25-4-48-10-69-8-30-20-54-37-72z" horiz-adv-x="875" />
<glyph glyph-name="archive" unicode="&#xf187;" d="M63-25v563h875V-25c0-35-28-62-63-62H125c-35 0-62 27-62 62z m312 414v-16c0-12 11-23 23-23h204c12 0 23 11 23 23v16c0 13-11 24-23 24H398c-13 0-23-11-23-24z m563 399c34 0 62-28 62-63v-94c0-17-14-31-31-31H31c-17 0-31 14-31 31v94c0 35 28 63 62 63h876z" horiz-adv-x="1000" />
<glyph glyph-name="archway" unicode="&#xf557;" d="M1094-25c17 0 31-14 31-31v-63c0-17-14-31-31-31H781c-17 0-31 14-31 31v344a187 187 0 1 1-375 0v-344c0-17-14-31-31-31H31c-17 0-31 14-31 31v63c0 17 14 31 31 31h32v688h1000V-25h31z m0 875c17 0 31-14 31-31v-63c0-17-14-31-31-31H31c-17 0-31 14-31 31v63c0 17 14 31 31 31h1063z" horiz-adv-x="1125" />
<glyph glyph-name="arrow-alt-circle-down" unicode="&#xf358;" d="M984 350a484 484 0 1 0-968 0 484 484 0 0 0 968 0zM414 577V350H276c-21 0-32-25-17-40L483 87c10-10 24-10 33 0l225 223c15 15 4 40-17 40H586v227c0 13-11 23-24 23H437c-12 0-23-10-23-23z" horiz-adv-x="1000" />
<glyph glyph-name="arrow-alt-circle-left" unicode="&#xf359;" d="M500-134a484 484 0 1 0 0 968 484 484 0 0 0 0-968z m227 570H500v138c0 21-25 32-40 17L237 367c-10-10-10-24 0-33l223-225c15-15 40-4 40 17v138h227c13 0 23 11 23 24v125c0 12-10 23-23 23z" horiz-adv-x="1000" />
<glyph glyph-name="arrow-alt-circle-right" unicode="&#xf35a;" d="M500 834a484 484 0 1 0 0-968 484 484 0 0 0 0 968zM273 264h227V126c0-21 25-32 40-17l223 224c9 10 9 24 0 33L540 591c-15 15-40 4-40-17V436H273c-13 0-23-11-23-24V289c0-13 10-24 23-24z" horiz-adv-x="1000" />
<glyph glyph-name="arrow-alt-circle-up" unicode="&#xf35b;" d="M16 350a484 484 0 1 0 968 0 484 484 0 0 0-968 0z m570-227v227h138c21 0 32 25 17 40L517 613c-10 9-24 9-33 0L259 390c-15-15-4-40 17-40h138V123c0-13 11-23 24-23h125c12 0 23 10 23 23z" horiz-adv-x="1000" />
<glyph glyph-name="arrow-circle-down" unicode="&#xf0ab;" d="M984 350a484 484 0 1 0-968 0 484 484 0 0 0 968 0z m-280 56L562 259l1 357c0 26-21 47-47 47h-32c-26 0-46-21-46-47V259L296 406a47 47 0 0 1-67 1l-21-21a47 47 0 0 1 0-67L467 61c18-18 48-18 66 0l259 260c19 18 19 48 0 66l-21 21a47 47 0 0 1-67-1z" horiz-adv-x="1000" />
<glyph glyph-name="arrow-circle-left" unicode="&#xf0a8;" d="M500-134a484 484 0 1 0 0 968 484 484 0 0 0 0-968z m56 280L409 288h357c26 0 47 20 47 46v32c0 26-21 46-47 46H409l147 142c19 18 20 48 1 67l-21 21a47 47 0 0 1-67 0L210 383a47 47 0 0 1 0-66L469 58c19-19 49-19 67 0l21 21c19 19 18 49-1 67z" horiz-adv-x="1000" />
<glyph glyph-name="arrow-circle-right" unicode="&#xf0a9;" d="M500 834a484 484 0 1 0 0-968 484 484 0 0 0 0 968z m-56-280l147-142-357 1c-26 0-47-21-47-47v-32c0-26 21-46 47-46h357L444 146a47 47 0 0 1-1-67l21-21c19-18 48-18 67 0l259 259c18 18 18 48 0 66L531 642a47 47 0 0 1-67 0l-21-21a47 47 0 0 1 1-67z" horiz-adv-x="1000" />
<glyph glyph-name="arrow-circle-up" unicode="&#xf0aa;" d="M16 350a484 484 0 1 0 968 0 484 484 0 0 0-968 0z m280-56l142 147V84c0-26 20-47 46-47h32c26 0 47 21 47 47v357l141-147c18-19 48-20 67-1l21 21c18 19 18 48 0 67L533 640a47 47 0 0 1-66 0L208 381a47 47 0 0 1 0-67l21-21c19-19 49-18 67 1z" horiz-adv-x="1000" />
<glyph glyph-name="arrow-down" unicode="&#xf063;" d="M807 415l43-43c19-18 19-48 0-66L471-74a47 47 0 0 0-67 0L25 306a47 47 0 0 0 0 66l43 43c19 19 49 19 67 0l224-236v562c0 26 21 46 47 46h63c26 0 47-20 47-46V179l224 236c18 19 48 19 67 0z" horiz-adv-x="875" />
<glyph glyph-name="arrow-left" unicode="&#xf060;" d="M503-19l-43-44a47 47 0 0 0-67 0L14 317a47 47 0 0 0 0 66l379 380c19 18 48 18 67 0l43-44c18-18 18-48-1-67L267 428h561c26 0 47-21 47-47v-62c0-26-21-47-47-47H267L502 48c19-18 20-49 1-67z" horiz-adv-x="875" />
<glyph glyph-name="arrow-right" unicode="&#xf061;" d="M372 719l43 44c19 18 49 18 67 0l379-380c19-18 19-48 0-66L482-63a47 47 0 0 0-67 0l-43 44a47 47 0 0 0 1 67l235 224H47c-26 0-47 21-47 47v62c0 26 21 47 47 47h561L373 652a47 47 0 0 0-1 67z" horiz-adv-x="875" />
<glyph glyph-name="arrow-up" unicode="&#xf062;" d="M68 285l-43 43a47 47 0 0 0 0 66l379 380c19 18 48 18 67 0l379-380c18-18 18-48 0-66l-43-43a47 47 0 0 0-67 0L516 522V-41c0-26-21-47-47-47h-63c-26 0-47 21-47 47v562L135 285a47 47 0 0 0-67 0z" horiz-adv-x="875" />
<glyph glyph-name="arrows-alt-h" unicode="&#xf337;" d="M738 518c0 42 51 63 80 33l168-168c19-18 19-48 0-66L818 149c-29-30-80-9-80 33v90H262v-90c0-42-51-63-80-33L14 317a47 47 0 0 0 0 66l168 168c29 30 80 9 80-33v-90h476v90z" horiz-adv-x="1000" />
<glyph glyph-name="arrows-alt-v" unicode="&#xf338;" d="M418 112c42 0 63-51 33-80L283-136a47 47 0 0 0-66 0L49 32c-30 29-9 80 33 80h90v476H82c-42 0-63 51-33 80l168 168c18 19 48 19 66 0l168-168c30-29 9-80-33-80h-90V112h90z" horiz-adv-x="500" />
<glyph glyph-name="arrows-alt" unicode="&#xf0b2;" d="M688 18L533-136a47 47 0 0 0-66 0L312 18c-29 30-8 80 33 80h100v197H248V195c0-41-50-62-80-33L14 317a47 47 0 0 0 0 66l154 155c30 29 80 8 80-33V405h197v197H345c-41 0-62 50-33 80l155 154c18 19 48 19 66 0l155-154c29-30 8-80-33-80H555V405h197v100c0 41 50 62 80 33l154-155c19-18 19-48 0-66L832 162c-30-29-80-9-80 33v100H555V98h100c41 0 62-50 33-80z" horiz-adv-x="1000" />
<glyph glyph-name="assistive-listening-systems" unicode="&#xf2a2;" d="M422 342a55 55 0 0 0-109 0 156 156 0 0 0 312 0 55 55 0 0 0-109 0 47 47 0 0 1-94 0z m47 344c189 0 343-154 343-344 1-187-139-214-140-281 0-117-95-211-211-211a55 55 0 0 0 0 109c56 0 101 46 101 102l1 1c1 143 140 133 140 280a235 235 0 0 1-469 0 55 55 0 0 0-109 0c0 190 154 344 344 344zM312 225a63 63 0 1 0 0-125 63 63 0 0 0 0 125zM62-25a63 63 0 1 0 0-125 63 63 0 0 0 0 125z m938 367a55 55 0 0 0-109 0c0 2 0 5 0 7a424 424 0 0 1-286 394 55 55 0 0 0 36 104 534 534 0 0 0 359-496c0-3 0-6 0-9zM299-7l-67-67L76 83l66 66z" horiz-adv-x="1000" />
<glyph glyph-name="asterisk" unicode="&#xf069;" d="M934 198c23-13 31-42 18-65l-38-66a47 47 0 0 0-65-17L578 215l7-317c0-26-21-48-47-48h-76c-26 0-47 22-47 48l7 317L151 50c-23-13-52-6-65 17l-38 66c-13 23-5 52 18 64l278 153L66 503a47 47 0 0 0-18 64l38 66c13 23 42 30 65 17l271-165-7 317c0 26 21 48 47 48h76c26 0 48-22 47-48l-7-317 271 165c23 13 52 6 65-17l38-66c13-23 5-52-18-64L656 350z" horiz-adv-x="1000" />
<glyph glyph-name="at" unicode="&#xf1fa;" d="M500 834c270 0 484-171 484-437 0-148-81-288-293-288-59 0-120 0-138 67-35-45-94-75-147-75-115 0-187 79-187 207 0 174 123 295 269 295 38 0 88-7 117-42 2 13 13 23 26 23h88c30 0 52-27 46-55l-46-237c-6-33-7-58 27-59 72 8 113 88 113 164 0 200-163 312-359 312A360 360 0 1 1 694 48c20 12 47 8 61-10l20-25c18-21 13-53-10-69a485 485 0 1 0-265 890z m-42-594c47 0 113 54 113 142 0 50-26 79-69 79-55 0-115-54-115-142 0-49 27-79 71-79z" horiz-adv-x="1000" />
<glyph glyph-name="atlas" unicode="&#xf558;" d="M622 444c-11-61-50-112-104-138 15 37 25 85 27 138h77z m0 62h-77c-2 53-12 100-27 138 54-26 94-77 104-138zM437 660c15-15 41-67 46-154h-91c5 87 30 139 45 154z m-80-16c-15-38-25-85-28-138h-76c10 61 50 112 104 138z m0-338c-54 26-94 77-104 138h76c3-53 13-101 28-138z m126 138c-5-87-31-139-46-154-15 15-40 67-45 154h91z m392-294c0-19-6-31-19-38-6-25-6-112 0-143 13-13 19-25 19-38v-31c0-31-25-50-50-50H188C81-150 0-69 0 37v626c0 106 81 187 188 187h637c31 0 50-19 50-50V150zM438 725a250 250 0 1 1-1-500 250 250 0 0 1 1 500zM750-25v125H188c-32 0-63-25-63-62s25-63 63-63h562z" horiz-adv-x="875" />
<glyph glyph-name="atom" unicode="&#xf5d2;" d="M438 413a63 63 0 0 0 0-125 63 63 0 0 0 0 125z m418 187c32-57 29-143-49-250 78-107 81-193 49-250C799-2 657 15 629 18 587-82 523-150 437-150S288-82 246 18C218 15 76-2 19 100c-32 57-29 143 49 250-78 107-81 193-49 250 21 38 79 99 227 82 42 100 106 168 191 168s150-68 192-168c148 17 206-44 227-82zM124 163c7-13 37-24 85-22-5 25-10 52-13 78-15 13-30 25-43 38-30-46-37-80-29-95z m72 318c3 26 7 52 13 78-4 0-8 1-11 1-42 0-68-10-74-22-8-15-1-49 29-95 13 13 28 25 43 38z m241 244c-18 0-43-26-66-73 22-7 44-15 66-25 23 10 45 18 67 25-23 47-48 73-67 73z m0-750c19 0 44 26 67 73-22 7-44 15-67 25-22-10-44-18-66-25 23-47 48-73 66-73z m0 219a156 156 0 1 1 0 312 156 156 0 0 1 0-312z m314-32c8 15 0 49-29 95-13-13-28-25-43-38-3-27-8-53-13-78 48-2 78 9 85 21z m-29 281c30 46 37 80 29 95-6 12-32 22-74 22-3 0-7-1-11-1 6-26 10-52 13-78 15-13 30-25 43-38z" horiz-adv-x="875" />
<glyph glyph-name="audio-description" unicode="&#xf29e;" d="M318 384l17-60h-50l18 60c3 8 5 19 8 30 2-11 5-22 7-30z m325 63c56 0 90-33 90-96 1-63-31-97-90-97h-28v193h28z m357 184V69c0-52-42-94-94-94H94C42-25 0 17 0 69v562c0 52 42 94 94 94h812c52 0 94-42 94-94zM479 194L368 522c-3 9-12 16-22 16h-70c-11 0-19-7-23-16L142 194c-5-16 6-31 22-31h57c11 0 20 7 23 17l16 58h101l17-59c3-9 12-16 22-16h57c16 0 28 15 22 31z m361 157c0 115-74 187-193 187H535c-13 0-24-11-24-24V186c0-13 11-23 24-23h112c119 0 193 72 193 188z" horiz-adv-x="1000" />
<glyph glyph-name="award" unicode="&#xf559;" d="M190 142a142 142 0 0 1 170-23L258-130c-9-22-36-27-52-10l-71 75-102-4C10-70-6-47 2-26l89 217c15-12 31-21 50-26 41-11 32-6 49-23zM748-26c8-21-8-44-30-43l-103 4-71-75a31 31 0 0 0-52 10L391 119a142 142 0 0 1 170 23c16 17 7 12 48 23 19 5 35 14 50 26zM514 186a78 78 0 0 0-97-11 77 77 0 0 1-83 0 78 78 0 0 0-98 11c-28 29-32 27-75 39-27 8-49 29-56 57-15 55-11 49-51 89a81 81 0 0 0-20 78c15 55 15 47 0 103-7 27 0 57 20 77 40 41 36 34 51 89 7 28 29 50 56 57 54 15 48 11 87 52 20 20 49 28 76 20 55-15 47-15 102 0 27 8 56 0 76-20 40-41 33-37 87-52 28-7 49-29 56-57 15-55 11-48 51-89 20-20 27-50 20-77-14-56-14-48 0-103 7-28 0-58-20-78-40-40-36-34-51-89-7-28-28-49-56-57-42-11-46-9-75-39zM191 506c0-103 82-187 184-187s184 84 184 187-82 188-184 188-184-84-184-188z" horiz-adv-x="750" />
<glyph glyph-name="backspace" unicode="&#xf55a;" d="M1125 725c69 0 125-56 125-125V100c0-69-56-125-125-125H401c-33 0-65 13-89 37L19 306a63 63 0 0 0 0 88l295 294c22 23 53 37 88 37h724zM960 229L838 350l122 121c12 12 12 32 0 44l-45 45a31 31 0 0 1-44 0L750 438 629 560a31 31 0 0 1-44 0l-45-45a31 31 0 0 1 0-44l122-121-122-121a31 31 0 0 1 0-44l45-45c12-12 32-12 44 0l121 122 121-122c12-12 32-12 44 0l45 45c12 12 12 32 0 44z" horiz-adv-x="1250" />
<glyph glyph-name="backward" unicode="&#xf04a;" d="M23 302a63 63 0 0 0 0 96l375 313c40 33 102 5 102-48V38c0-54-62-82-102-48z m500 0a63 63 0 0 0 0 96l375 313c40 33 102 5 102-48V38c0-54-62-82-102-48z" horiz-adv-x="1000" />
<glyph glyph-name="balance-scale" unicode="&#xf24e;" d="M500 194c0-86-112-156-250-156S0 108 0 194c0 30-4 14 166 354a94 94 0 0 0 168 0c169-337 166-323 166-354zM250 506L109 225h282z m1000-312c0-86-112-156-250-156s-250 70-250 156c0 30-4 14 166 354a94 94 0 0 0 168 0c169-337 166-323 166-354z m-391 31h282l-141 281z m172-250c17 0 31-14 31-31l1-63c0-17-14-31-32-31H219c-18 0-32 14-32 31v63c0 17 14 31 32 31h343l1 576c-46 20-81 61-91 112H219c-18 0-32 14-32 31v62c0 18 14 32 32 32h282a156 156 0 0 0 248 0h282c17 0 31-14 31-32v-62c0-17-14-31-31-31H778c-10-51-45-92-91-112V-25h344z" horiz-adv-x="1250" />
<glyph glyph-name="ban" unicode="&#xf05e;" d="M500 834a484 484 0 1 0 0-968 484 484 0 0 0 0 968z m254-230a359 359 0 0 1-460 40l501-500c96 137 87 332-41 460zM246 96a359 359 0 0 1 460-41L206 556a359 359 0 0 1 40-460z" horiz-adv-x="1000" />
<glyph glyph-name="band-aid" unicode="&#xf462;" d="M0 538c0 68 56 125 125 125h188V38H125C56 38 0 94 0 163v375z m1125 125c69 0 125-57 125-125V163c0-69-56-125-125-125H938v625h187zM375 38v625h500V38H375z m344 453a47 47 0 1 1 0-94c26 0 47 21 47 47s-21 47-47 47z m0-188a47 47 0 1 1 0-94c26 0 47 21 47 47s-21 47-47 47zM531 491a47 47 0 1 1 0-94c26 0 47 21 47 47s-21 47-47 47z m0-188a47 47 0 1 1 0-94c26 0 47 21 47 47s-21 47-47 47z" horiz-adv-x="1250" />
<glyph glyph-name="barcode" unicode="&#xf02a;" d="M0-25v750h35V-25H0z m53 1v749h17V-24H52z m53 0v749h17V-24h-18z m87 0v749h17V-24h-17z m70 0v749h35V-24h-35z m88 0v749h17V-24h-17z m35 0v749h17l1-749h-18z m35 0v749h18V-24h-18z m70 0v749h35V-24h-35z m88 0v749h35V-24h-35z m70 0v749h35V-24h-35z m70 0v749h35l1-749h-36z m53 0v749h35V-24h-35z m88 0v749h52V-24h-52z m70 0v749h17V-24h-17z m35-1v750h35V-25h-35z" horiz-adv-x="1000" />
<glyph glyph-name="bars" unicode="&#xf0c9;" d="M31 592c-17 0-31 14-31 31v79c0 17 14 31 31 31h813c17 0 31-14 31-31v-79c0-17-14-31-31-31H31z m0-312c-17 0-31 14-31 31v78c0 17 14 31 31 31h813c17 0 31-14 31-31v-78c0-17-14-31-31-31H31z m0-313C14-33 0-19 0-2v79c0 17 14 31 31 31h813c17 0 31-14 31-31V-2c0-17-14-31-31-31H31z" horiz-adv-x="875" />
<glyph glyph-name="baseball-ball" unicode="&#xf433;" d="M720 139c25-52 59-98 100-138a482 482 0 0 0-672 1c42 40 76 86 101 138l-56 27c-22-45-51-85-87-119a480 480 0 0 0 0 604c35-33 64-72 85-116l56 28c-25 50-58 95-99 134a482 482 0 0 0 673 0c-41-39-74-84-99-135l56-27c21 44 50 82 85 116a483 483 0 0 0-1-604c-35 34-64 74-86 118z m-446 63c34 105 28 211-1 300l-60-19c26-79 30-172 1-262z m422 299c-29-89-35-195-1-300l60 19c-30 91-25 184 1 262z" horiz-adv-x="968.8" />
<glyph glyph-name="basketball-ball" unicode="&#xf434;" d="M415 830c-3-98-34-186-88-256L176 725c70 58 153 93 239 105z m69-414l-90 91c73 88 112 203 115 327 101-5 201-41 284-109zM110 658l151-151c-70-54-159-84-256-87 12 85 47 168 105 238z m531-398l-90 90 308 308c69-82 105-182 110-284-125-2-239-42-328-114z m-157 24l91-91a528 528 0 0 1-115-327c-101 5-201 41-284 109zM859 42L708 193c70 54 158 84 256 87-12-85-47-168-105-238zM328 440l90-90L110 42A483 483 0 0 0 0 326c125 2 239 42 328 114z m226-570c3 98 34 187 88 256L793-25c-71-58-153-93-239-105z" horiz-adv-x="968.8" />
<glyph glyph-name="bath" unicode="&#xf2cd;" d="M63 100v94h875v-94c-1-55-25-105-63-139v-80c0-17-14-31-31-31h-63c-17 0-31 14-31 31v31H250v-31c0-17-14-31-31-31h-63c-17 0-31 14-31 31v80C87-5 63 45 63 100z m906 250c17 0 31-14 31-31v-32c0-17-14-31-31-31H31c-17 0-31 14-31 31v32c0 17 14 31 31 31h31v365a135 135 0 0 0 231 95l38-37c58 25 116 15 156-17a31 31 0 0 0 44 0l22-22a31 31 0 0 0 0-44L347 484c-5-6-13-9-22-9s-16 3-22 9l-22 22c-5 6-9 14-9 22 0 9 4 17 9 22l1 1c-32 40-43 97-17 155l-38 38a41 41 0 0 1-71-29V350h813z" horiz-adv-x="1000" />
<glyph glyph-name="battery-empty" unicode="&#xf244;" d="M1063 538H125V163h938v125h62v125h-62v125z m31 125c51 0 93-42 93-94l1-31h15c26 0 47-21 47-47V209c0-25-21-46-47-46h-16l1-32c0-51-42-93-94-93H94C42 38 0 80 0 131v438c0 52 42 94 94 94h1000z" horiz-adv-x="1250" />
<glyph glyph-name="battery-full" unicode="&#xf240;" d="M1063 538H125V163h938v125h62v125h-62v125z m31 125c51 0 93-42 93-94l1-31h15c26 0 47-21 47-47V209c0-25-21-46-47-46h-16l1-32c0-51-42-93-94-93H94C42 38 0 80 0 131v438c0 52 42 94 94 94h1000z m-94-188V225H188v250h812z" horiz-adv-x="1250" />
<glyph glyph-name="battery-half" unicode="&#xf242;" d="M1063 538H125V163h938v125h62v125h-62v125z m31 125c51 0 93-42 93-94l1-31h15c26 0 47-21 47-47V209c0-25-21-46-47-46h-16l1-32c0-51-42-93-94-93H94C42 38 0 80 0 131v438c0 52 42 94 94 94h1000zM625 475V225H188v250h437z" horiz-adv-x="1250" />
<glyph glyph-name="battery-quarter" unicode="&#xf243;" d="M1063 538H125V163h938v125h62v125h-62v125z m31 125c51 0 93-42 93-94l1-31h15c26 0 47-21 47-47V209c0-25-21-46-47-46h-16l1-32c0-51-42-93-94-93H94C42 38 0 80 0 131v438c0 52 42 94 94 94h1000zM438 475V225H188v250h250z" horiz-adv-x="1250" />
<glyph glyph-name="battery-three-quarters" unicode="&#xf241;" d="M1063 538H125V163h938v125h62v125h-62v125z m31 125c51 0 93-42 93-94l1-31h15c26 0 47-21 47-47V209c0-25-21-46-47-46h-16l1-32c0-51-42-93-94-93H94C42 38 0 80 0 131v438c0 52 42 94 94 94h1000zM812 475l1-250H188v250h625z" horiz-adv-x="1250" />
<glyph glyph-name="bed" unicode="&#xf236;" d="M344 350a156 156 0 1 0 0 313 156 156 0 0 0 0-313z m687 250c121 0 219-98 219-219V6c0-17-14-31-31-31h-63c-17 0-31 14-31 31v94H125V6c0-17-14-31-31-31H31C14-25 0-11 0 6v688c0 17 14 31 31 31h63c17 0 31-14 31-31V288h438v281c0 17 14 31 31 31h437z" horiz-adv-x="1250" />
<glyph glyph-name="beer" unicode="&#xf0fc;" d="M719 663c86 0 156-71 156-157V255c0-62-36-118-93-143L625 42v-83c0-25-21-46-47-46H47C21-87 0-66 0-41v782c0 26 21 47 47 47h531c26 0 47-21 47-47v-78h94z m31-408v251c0 18-14 32-31 32h-94V179l107 47c10 5 18 16 18 29zM406 100c18 0 32 14 32 31v438a31 31 0 1 1-63 0V131c0-17 14-31 31-31z m-187 0c17 0 31 14 31 31v438a31 31 0 1 1-62 0V131c0-17 14-31 31-31z" horiz-adv-x="875" />
<glyph glyph-name="bell-slash" unicode="&#xf1f6;" d="M1238-45c14-10 16-30 5-44l-38-49a31 31 0 0 0-44-5L12 745a31 31 0 0 0-5 44l38 49c11 14 30 16 44 5l283-218c45 61 112 105 191 122v40a63 63 0 0 0 125 1v-41a308 308 0 0 0 249-303c0-200 71-261 109-302 11-12 17-27 17-42 0-3-2-5-2-8zM307 359L723 37H250a63 63 0 0 0-46 105c32 34 86 84 103 217z m318-509c-69 0-125 56-125 125h250c0-69-56-125-125-125z" horiz-adv-x="1250" />
<glyph glyph-name="bell" unicode="&#xf0f3;" d="M438-150c-69 0-125 56-125 125h249c0-69-55-125-124-125z m420 292c12-12 17-27 17-42 0-32-25-63-63-63H63a63 63 0 0 0-46 105c38 41 108 102 108 302 0 152 107 273 250 303v40a63 63 0 0 0 125 1v-41a308 308 0 0 0 250-303c0-200 70-261 108-302z" horiz-adv-x="875" />
<glyph glyph-name="bezier-curve" unicode="&#xf55b;" d="M719 788c34 0 62-28 62-63V538c0-35-28-63-62-63H531c-34 0-62 28-62 63v187c0 35 28 63 62 63h188zM406 678V538c0-19 4-36 12-52a359 359 0 0 1-139-199l-97 1a454 454 0 0 0 214 296H241a125 125 0 1 0 0 94h165z m-94-453c35 0 63-28 63-62V-25c0-34-28-62-63-62H125c-35 0-63 28-63 62v188c0 34 28 62 63 62h187z m813 531a125 125 0 1 0-116-172H854a454 454 0 0 0 213-296h-96c-22 81-72 150-139 198 7 16 12 33 12 52v140h165c19 46 64 78 116 78z m0-531c35 0 63-28 63-62V-25c0-34-28-62-63-62H938c-35 0-63 28-63 62v188c0 34 28 62 63 62h187z" horiz-adv-x="1250" />
<glyph glyph-name="bicycle" unicode="&#xf206;" d="M1001 475a250 250 0 0 0-3-500 250 250 0 1 0-167 434l-29 47-168-271c-9-14-23-23-40-23l-102 1a250 250 0 1 0-157 297l57 93h-95c-26 0-46 21-47 46 0 26 22 48 48 48h171c17 0 31-14 31-31v-32h222l-29 47h-99c-17 0-31 14-31 31v32c0 17 14 31 31 31h125c17 0 31-9 40-22l151-245c28 11 59 17 91 17zM365 331l-46-75h84c-6 29-19 54-38 75zM250 69c64 0 119 38 143 93l-159 1c-36 0-59 40-39 71l88 144a156 156 0 1 1-33-309z m318 187l145 235H464l-49-78c45-40 75-95 83-157h70zM992 69a156 156 0 1 1 8 312c-13 0-26-2-39-5l87-140c9-14 5-34-10-43l-27-16c-14-9-33-5-43 10l-86 140A157 157 0 0 1 992 69z" horiz-adv-x="1250" />
<glyph glyph-name="binoculars" unicode="&#xf1e5;" d="M813 756v-93H625v93c0 18 14 32 31 32h125c17 0 31-14 31-32zM125 538c1 34 28 62 62 62h188V288h-62V-25c0-34-28-62-63-62H63C28-87 0-59 0-25v86c7 253 120 293 125 477z m750 0c5-184 118-224 125-477v-86c0-35-28-63-63-63H750c-35 0-63 28-63 63v313h-62v312h188c34 0 61-28 62-62zM344 788c17 0 31-14 31-32v-93H187v93c0 18 14 32 32 32h125z m93-500v312h125l1-312H438z" horiz-adv-x="1000" />
<glyph glyph-name="birthday-cake" unicode="&#xf1fd;" d="M875 100c-55 0-61 63-145 63-85 0-92-63-146-63-55 0-62 63-146 63s-93-63-146-63c-55 0-61 63-146 63S55 100 0 100v156c0 52 42 94 94 94h31v281h125V350h125v281h125V350h125v281h125V350h31c52 0 94-42 94-94V100z m0-250H0V38c85 0 91 62 146 62s61-62 146-62c84 0 92 62 146 62 55 0 60-62 146-62 84 0 91 62 146 62 53 0 61-62 145-62v-188zM188 663c-35 0-63 27-63 62 0 61 63 45 63 125 23 0 62-58 62-109s-28-78-62-78z m250 0c-35 0-63 27-63 62 0 61 63 45 63 125 23 0 62-58 62-109s-28-78-62-78z m250 0c-35 0-63 27-63 62 0 61 63 45 63 125 23 0 62-58 62-109s-28-78-62-78z" horiz-adv-x="875" />
<glyph glyph-name="blender" unicode="&#xf517;" d="M813 100c69 0 125-56 125-125v-62c0-35-28-63-63-63H250c-34 0-62 28-62 63v62c0 69 56 125 125 125h500zM563-87a63 63 0 1 1-1 125 63 63 0 0 1 1-125z m78 812c-9 0-16-7-16-16v-31c0-8 7-15 16-15h308l-34-125H641c-9 0-16-7-16-16v-31c0-9 7-16 16-16h257l-34-125H641c-9 0-16-7-16-16v-31c0-9 7-16 16-16h206l-34-125H313l-18 188H94c-52 0-94 42-94 94v312c0 52 42 94 94 94h906l-34-125H641zM125 475h159l-23 250H125V475z" horiz-adv-x="1000" />
<glyph glyph-name="blind" unicode="&#xf29d;" d="M743-148c-3-1-6-2-9-2-5 0-10 3-13 7L476 261c10 4 19 10 25 18l247-405c1-3 2-5 2-8 0-6-3-11-7-14zM279 236L402-64a62 62 0 1 0-116-47L215 61z m-92 442a86 86 0 1 0 1 172 86 86 0 0 0-1-172z m303-330a47 47 0 0 0-74-58L216 542c-1 2-3 3-6 3-4 0-7-4-7-8 0-2 0-3 1-5l62-77V245L137-109A62 62 0 1 0 19-66l106 290v275l-31-40V303c0-26-21-46-46-47-27 0-48 22-48 48v187l119 153c9 12 23 18 37 18h63c14 0 27-6 36-17z" horiz-adv-x="750" />
<glyph glyph-name="bold" unicode="&#xf032;" d="M651 385c68-54 109-139 100-233A273 273 0 0 0 475-87H66c-17 0-31 14-31 31v94c0 17 14 31 31 31h63v562H66c-17 0-31 14-31 32v93c0 18 14 32 31 32h390c146 0 262-126 248-275-5-48-24-92-53-128zM284 631V444h172a94 94 0 0 1 0 187H285zM456 69a109 109 0 0 1 0 219H284l1-219h171z" horiz-adv-x="750" />
<glyph glyph-name="bolt" unicode="&#xf0e7;" d="M578 538c36 0 59-40 41-71L275-127a47 47 0 0 0-86 35l90 380H47c-28 0-50 25-47 53l63 468c3 24 23 41 46 41h282c30 0 53-29 45-59l-83-253h225z" horiz-adv-x="625" />
<glyph glyph-name="bomb" unicode="&#xf1e2;" d="M860 677L759 576l51-52c19-18 19-48 1-66l-34-34a405 405 0 1 0-204 203l34 34c19 18 48 18 67 0l51-52 102 101z m117 56a23 23 0 0 0 0-47h-47c-13 0-24 11-24 23s11 24 24 24h47zM859 850c13 0 24-10 24-23v-47c0-13-11-24-24-24s-23 11-23 24v47c0 13 10 23 23 23z m67-107c-9-10-24-10-34 0-9 9-9 24 0 33l34 33a23 23 0 1 0 33-33z m-133 0l-33 33a23 23 0 1 0 33 33l33-33c10-9 10-24 0-33-9-10-24-10-33 0z m133-67l33-33a23 23 0 1 0-33-33l-34 33a23 23 0 1 0 34 33zM219 319c0 69 56 125 125 125 17 0 31 14 31 31s-14 31-31 31c-104 0-188-84-188-187a31 31 0 0 1 63 0z" horiz-adv-x="1000" />
<glyph glyph-name="bone" unicode="&#xf5d7;" d="M1170 372c-19-9-19-35 0-44 49-25 80-75 80-130v-15a145 145 0 0 0-283-46c-13 38-21 88-75 88H358c-52 0-60-43-75-88A145 145 0 0 0 0 183v15c0 55 31 105 80 130 19 9 19 35 0 44-49 25-80 75-80 130v15a145 145 0 0 0 283 46c13-38 21-88 75-88h534c52 0 60 43 75 88a145 145 0 0 0 283-46v-15c0-55-31-105-80-130z" horiz-adv-x="1250" />
<glyph glyph-name="bong" unicode="&#xf55c;" d="M591-150H159c-45 0-87 25-109 64a374 374 0 0 0 138 511l-1 300h-31c-17 0-31 14-31 31v62c0 17 14 31 31 31l438 1c17 0 31-14 31-31v-62c0-18-14-31-31-32l-32 1V424c28-16 53-35 76-57l77 77-18 18a31 31 0 0 0 0 44l22 22c12 13 32 13 44 0l103-103c12-12 12-32 0-44l-22-22a31 31 0 0 0-44 0l-19 18-85-84a372 372 0 0 0 4-379c-22-39-64-64-109-64zM234 343c-48-28-86-69-110-118h502c-24 49-62 90-110 118l-47 27v355H281V370z" horiz-adv-x="875" />
<glyph glyph-name="book-open" unicode="&#xf518;" d="M1059 787c36 2 66-25 66-60V68c0-32-26-58-59-60-96-5-292-24-427-92-21-10-45 4-45 26v711c0 10 5 20 14 26 131 80 344 102 451 108zM517 679c9-6 14-15 14-26V-57c0-22-24-37-45-26C351-16 155 3 59 8 26 9 0 36 0 68v659c0 35 30 62 66 60 107-6 320-28 451-108z" horiz-adv-x="1125" />
<glyph glyph-name="book-reader" unicode="&#xf5da;" d="M688 663a187 187 0 1 0-375-1 187 187 0 0 0 375 1zM456 379c8-5 13-13 13-22v-481c0-20-22-32-40-23C310-87 137-70 52-66 23-64 0-41 0-13v435c0 31 26 55 58 53 95-5 282-25 398-96z m486 96c31 2 58-22 58-53V-13c0-28-23-51-52-53-85-4-257-21-377-81-18-9-40 3-40 23v480c0 10 5 18 13 23 116 71 303 91 398 96z" horiz-adv-x="1000" />
<glyph glyph-name="book" unicode="&#xf02d;" d="M875 147c0-15-7-28-17-37-9-30-9-115 0-145 10-9 17-22 17-37v-31c0-26-21-47-47-47H188C84-150 0-66 0 37v626c0 103 84 187 188 187h640c26 0 47-21 47-47V147zM250 588v-39c0-6 5-12 12-12h414c6 0 11 6 11 12l1 39c0 7-6 12-12 12H262c-7 0-12-5-12-12z m0-125v-39c0-6 5-12 12-12h414c6 0 11 6 11 12l1 39c0 7-6 12-12 12H262c-7 0-12-5-12-12zM745-25c-4 33-4 92 0 125H188a63 63 0 0 1 0-125h557z" horiz-adv-x="875" />
<glyph glyph-name="bookmark" unicode="&#xf02e;" d="M0-150v906c0 52 42 94 94 94h562c52 0 94-42 94-94v-906L375 69z" horiz-adv-x="750" />
<glyph glyph-name="bowling-ball" unicode="&#xf436;" d="M484 834a484 484 0 1 0 1-968 484 484 0 0 0-1 968zM234 475a62 62 0 1 1 0 125 62 62 0 0 1 0-125z m125 188a62 62 0 1 1 125-1 62 62 0 0 1-125 1z m94-282a62 62 0 1 1 0 125 62 62 0 0 1 0-125z" horiz-adv-x="968.8" />
<glyph glyph-name="box-open" unicode="&#xf49e;" d="M831 350c9 0 18 1 26 4l268 76V82c0-28-19-53-47-60L655-84c-20-5-40-5-60 0L172 22c-27 7-47 32-47 60v348l268-76a95 95 0 0 1 107 42l125 208 126-208c16-28 47-46 80-46z m416 219c9-18-1-39-20-45L840 414c-14-4-29 2-36 14L625 725l488 62c14 2 27-5 33-17zM104 770c6 12 19 19 32 17l489-62-179-297c-8-12-23-18-36-14L23 524c-19 6-29 27-20 45z" horiz-adv-x="1250" />
<glyph glyph-name="box" unicode="&#xf466;" d="M995 490c2-5 2-10 3-15H531v375h276c41 0 77-26 89-64zM469 850V475H3c0 5 0 10 2 15l99 296c12 38 48 64 89 64h276zM0 413h1000V-56c0-52-42-94-94-94H94c-52 0-94 42-94 94v469z" horiz-adv-x="1000" />
<glyph glyph-name="boxes" unicode="&#xf468;" d="M1094 288c17 0 31-15 31-32v-375c0-17-14-31-31-31H656c-17 0-31 14-31 31v375c0 17 14 31 31 31l156 1 1-188 62 42 63-42v188h156zM344 413c-17 0-32 14-32 31v375c0 17 15 31 32 31h156V663l62 41 63-41v187h156c17 0 31-14 31-31l1-375c0-17-15-31-32-31H344z m125-125c17 0 31-15 31-32v-375c0-17-14-31-31-31H31c-17 0-31 14-31 31v375c0 17 14 31 31 31l156 1V100l63 42 62-42v188h157z" horiz-adv-x="1125" />
<glyph glyph-name="braille" unicode="&#xf2a1;" d="M250 350a125 125 0 1 0-250 0 125 125 0 0 0 250 0zM125 100a63 63 0 1 0 0-125 63 63 0 0 0 0 125z m0 688a125 125 0 1 0 0-251 125 125 0 0 0 0 251z m313-375a63 63 0 1 0-1-126 63 63 0 0 0 1 126z m0-313a63 63 0 1 0-1-125 63 63 0 0 0 1 125z m0 688a125 125 0 1 0-1-251 125 125 0 0 0 1 251z m437-375a63 63 0 1 0 0-126 63 63 0 0 0 0 126z m0-313a63 63 0 1 0 0-125 63 63 0 0 0 0 125z m0 688a125 125 0 1 0 0-251 125 125 0 0 0 0 251z m313-375a63 63 0 1 0-1-126 63 63 0 0 0 1 126z m0-313a63 63 0 1 0-1-125 63 63 0 0 0 1 125z m0 625a63 63 0 1 0-1-125 63 63 0 0 0 1 125z" horiz-adv-x="1250" />
<glyph glyph-name="brain" unicode="&#xf5dc;" d="M406 850c69 0 125-56 125-125V-9a141 141 0 0 0-273-45c-8-1-16-2-24-2A140 140 0 0 0 96 112a156 156 0 0 0-17 279c-10 21-17 44-17 68 0 66 40 122 98 145-3 9-4 18-4 27 0 69 56 125 125 125 2 0 3 0 4 0 14 54 63 94 121 94z m719-594c0-65-40-121-96-144A140 140 0 0 0 867-54 140 140 0 0 0 594-9v734a125 125 0 0 0 246 31c1 0 2 0 4 0a125 125 0 0 0 121-152 156 156 0 0 0 81-213c47-27 79-77 79-135z" horiz-adv-x="1125" />
<glyph glyph-name="briefcase-medical" unicode="&#xf469;" d="M906 600c52 0 94-42 94-94V-56c0-52-42-94-94-94H94c-52 0-94 42-94 94v562c0 52 42 94 94 94h156v94c0 52 42 94 94 94h312c52 0 94-42 94-94v-94h156z m-531 63v-63h250v63H375z m313-485v94c0 9-7 16-16 16H562l1 109c0 9-7 16-16 16h-94c-9 0-16-7-16-16V288H328c-9 0-16-7-16-16v-94c0-8 7-15 16-15h109V53c0-8 7-15 16-15h94c8 0 15 7 15 15v110h110c8 0 15 7 15 15z" horiz-adv-x="1000" />
<glyph glyph-name="briefcase" unicode="&#xf0b1;" d="M625 194v94h375V6c0-50-44-93-94-93H94C44-87 0-44 0 6v282h375v-94c0-17 14-31 31-31h188c17 0 31 14 31 31z m281 406c50 0 94-44 94-94V350H0v156c0 50 44 94 94 94h156v94c0 50 44 94 94 94h312c50 0 94-44 94-94v-94h156z m-281 0v63H375v-63h250z" horiz-adv-x="1000" />
<glyph glyph-name="broadcast-tower" unicode="&#xf519;" d="M295 475c-14 0-26 9-30 22a373 373 0 0 0 0 206c3 13 16 22 30 22h66c21 0 36-21 29-41a245 245 0 0 1 0-168c7-20-8-41-29-41h-66zM176 804c-33-60-97-226 0-408 11-21-4-46-27-46H81c-12 0-24 7-29 18a544 544 0 0 0-1 464c5 11 16 18 28 18h69c24 0 39-25 28-46z m1023 28a557 557 0 0 0 0-464c-5-11-16-18-28-18h-69c-24 0-39 25-27 46 94 175 35 342-1 409-11 20 4 45 27 45h70c12 0 23-7 28-18zM955 725c14 0 27-9 30-22a373 373 0 0 0 0-206c-3-13-16-22-30-22h-66c-21 0-36 21-29 41a245 245 0 0 1 0 168c-7 20 8 41 29 41h66zM728 530L983-83c7-16-1-34-17-41l-57-24c-16-6-35 1-41 17l-96 231H478l-96-231c-6-16-25-23-40-17l-58 24c-16 7-24 25-17 41l255 613a125 125 0 1 0 206 0zM531 225h189l-95 227z" horiz-adv-x="1250" />
<glyph glyph-name="broom" unicode="&#xf51a;" d="M501 427l169-214S638 14 521-80C404-173 0-146 0-146s7 45 22 108l184 219c8 9-1 23-13 18L75 156c29 82 64 157 107 191 117 93 319 80 319 80z m742 362c11-13 9-33-5-43L784 398l67-83c10-13 3-32-13-35l-115-24-169 213 50 107c6 14 26 16 36 4l67-84 454 347c13 11 33 9 43-5z" horiz-adv-x="1250" />
<glyph glyph-name="brush" unicode="&#xf55d;" d="M688 850c34 0 62-28 62-62V350H0v438c0 34 28 62 63 62h625zM0 225v63h750v-63c0-69-56-125-125-125H500V-25a125 125 0 0 0-250 0v125H125C56 100 0 156 0 225zM375 22a47 47 0 1 1 0-94 47 47 0 0 1 0 94z" horiz-adv-x="750" />
<glyph glyph-name="bug" unicode="&#xf188;" d="M1000 286c-1-34-30-61-64-61H828v-31c0-43-9-83-26-120L919-43a63 63 0 0 0-88-89L724-25c-48-39-110-62-177-62v476c0 13-11 24-24 24h-46c-13 0-24-11-24-24V-87c-67 0-129 23-177 62L169-132a63 63 0 0 0-88 89L198 74c-17 37-26 77-26 120v31H64c-34 0-63 27-64 61-1 35 27 64 63 64h109v115l-91 91a63 63 0 0 0 88 88l107-106h448l107 106a63 63 0 0 0 88-88l-91-91V350h110c35 0 63-29 62-64zM502 850c121 0 219-98 219-219H283c0 121 98 219 219 219z" horiz-adv-x="1000" />
<glyph glyph-name="building" unicode="&#xf1ad;" d="M852-87c13 0 23-11 23-24v-39H0v39c0 13 11 23 23 23l40 1v890c0 26 21 47 46 47h657c26 0 47-21 47-47V-87h39zM250 702v-79c0-13 11-23 23-23h79c12 0 23 11 23 23v79c0 13-11 23-23 23h-79c-13 0-23-10-23-23z m0-188v-78c0-13 11-23 23-23h79c12 0 23 10 23 23v78c0 13-11 24-23 24h-79c-13 0-23-11-23-24z m102-289c13 0 23 11 23 23v79c0 13-10 23-23 23h-79c-12 0-23-10-23-23v-79c0-12 11-23 23-23h79zM500-87V77c0 12-10 23-23 23h-79c-12 0-23-10-23-23V-87h125z m125 335v79c0 12-10 23-23 23h-79c-13 0-23-11-23-23v-79c0-13 11-23 23-23h79c13 0 23 10 23 23z m0 188v78c0 13-10 24-23 24h-79c-13 0-23-11-23-24v-78c0-13 11-23 23-23h79c13 0 23 10 23 23z m0 187v79c0 13-10 23-23 23h-79c-13 0-23-10-23-23v-79c0-13 11-23 23-23h79c13 0 23 11 23 23z" horiz-adv-x="875" />
<glyph glyph-name="bullhorn" unicode="&#xf0a1;" d="M1125 381c0-46-25-86-62-107V-25c0-18-14-62-63-62-15 0-28 5-39 13L795 59a474 474 0 0 1-295 104h-55a249 249 0 0 1 42-214c32-41 1-99-50-99H292c-23 0-45 12-55 33a494 494 0 0 0-46 280h-66C56 163 0 219 0 288v187c0 69 56 125 125 125h375c107 0 212 37 295 103l166 133c11 9 25 14 39 14 49 0 63-45 63-62V489c37-22 62-62 62-108zM938 105v553l-65-52a599 599 0 0 0-373-131V287c135 0 268-46 373-130z" horiz-adv-x="1125" />
<glyph glyph-name="bullseye" unicode="&#xf140;" d="M484 834a484 484 0 1 0 0-968 484 484 0 0 0 0 968z m0-843a359 359 0 1 1 1 718 359 359 0 0 1-1-718z m0 609a250 250 0 1 0 0-500 250 250 0 0 0 0 500z m0-375a125 125 0 1 1 0 250 125 125 0 0 1 0-250z" horiz-adv-x="968.8" />
<glyph glyph-name="burn" unicode="&#xf46a;" d="M375 850c218-197 375-431 375-587 0-243-154-413-375-413S0 20 0 263c0 156 156 389 375 587z m0-875c110 0 188 76 188 185 0 26-9 120-188 315-178-195-187-288-187-315 0-109 77-185 187-185z" horiz-adv-x="750" />
<glyph glyph-name="bus-alt" unicode="&#xf55e;" d="M953 600c26 0 47-21 47-47V397c0-26-21-47-47-47h-15V25c0-25-19-50-50-50h-13v-62c0-35-28-63-62-63h-63c-34 0-62 28-62 63v62H313v-62c0-35-28-63-63-63h-62c-35 0-63 28-63 63v62C91-25 63 3 63 38v312H47c-26 0-47 21-47 47v156c0 26 21 47 47 47h15l1 94c0 87 193 156 437 156s438-69 438-156v-94h15zM313 709v-31c0-8 7-15 15-15h344c9 0 16 7 16 15v31c0 9-7 16-16 16H328c-8 0-15-7-15-16zM219 69a63 63 0 1 1 0 125 63 63 0 0 1 0-125z m250 218v313H250c-34 0-62-28-62-62V350c0-34 28-62 62-62h219z m62 0h219c35 0 63 28 63 63v187c0 35-28 63-63 63H531V288zM781 69a63 63 0 1 1 0 125 63 63 0 0 1 0-125z" horiz-adv-x="1000" />
<glyph glyph-name="bus" unicode="&#xf207;" d="M953 600c26 0 47-21 47-47V397c0-26-21-47-47-47h-15V25c0-25-19-50-50-50h-13v-62c0-35-28-63-62-63h-63c-34 0-62 28-62 63v62H313v-62c0-35-28-63-63-63h-62c-35 0-63 28-63 63v62C91-25 63 3 63 38v312H47c-26 0-47 21-47 47v156c0 26 21 47 47 47h15l1 94c0 87 193 156 437 156s438-69 438-156v-94h15zM219 69a63 63 0 1 1 0 125 63 63 0 0 1 0-125z m31 219h500c35 0 63 28 63 62v250c0 35-28 63-63 63H250c-34 0-62-28-62-63V350c0-34 28-62 62-62zM781 69a63 63 0 1 1 0 125 63 63 0 0 1 0-125z" horiz-adv-x="1000" />
<glyph glyph-name="calculator" unicode="&#xf1ec;" d="M781 850c50 0 94-44 94-94V-56c0-50-44-94-94-94H94c-50 0-94 44-94 94v812c0 50 44 94 94 94h687zM250 0v75c0 13-12 25-25 25h-75c-12 0-25-12-25-25V0c0-12 13-25 25-25h75c13 0 25 13 25 25z m0 250v75c0 13-12 25-25 25h-75c-12 0-25-12-25-25v-75c0-12 13-25 25-25h75c13 0 25 13 25 25zM500 0v75c0 13-12 25-25 25h-75c-12 0-25-12-25-25V0c0-12 13-25 25-25h75c13 0 25 13 25 25z m0 250v75c0 13-12 25-25 25h-75c-12 0-25-12-25-25v-75c0-12 13-25 25-25h75c13 0 25 13 25 25zM750 0v325c0 13-12 25-25 25h-75c-12 0-25-12-25-25V0c0-12 13-25 25-25h75c13 0 25 13 25 25z m0 500v200c0 13-12 25-25 25H150c-12 0-25-12-25-25V500c0-12 13-25 25-25h575c13 0 25 13 25 25z" horiz-adv-x="875" />
<glyph glyph-name="calendar-alt" unicode="&#xf073;" d="M0-56v531h875V-56c0-52-42-94-94-94H94c-52 0-94 42-94 94z m625 383v-79c0-12 11-23 23-23h79c13 0 23 11 23 23v79c0 13-10 23-23 23h-79c-13 0-23-10-23-23z m0-250V-2c0-12 11-23 23-23h79c13 0 23 11 23 23v79c0 13-10 23-23 23h-79c-13 0-23-10-23-23zM375 327v-79c0-12 11-23 23-23h79c12 0 23 11 23 23v79c0 13-11 23-23 23h-79c-13 0-23-10-23-23z m0-250V-2c0-12 11-23 23-23h79c12 0 23 11 23 23v79c0 13-11 23-23 23h-79c-13 0-23-10-23-23zM125 327v-79c0-12 11-23 23-23h79c13 0 23 11 23 23v79c0 13-10 23-23 23h-79c-12 0-23-10-23-23z m0-250V-2c0-12 11-23 23-23h79c13 0 23 11 23 23v79c0 13-10 23-23 23h-79c-12 0-23-10-23-23z m656 648c52 0 94-42 94-94v-93H0v93c0 52 42 94 94 94h94v94c0 17 14 31 31 31h62c17 0 32-14 32-31v-94h250v94c0 17 14 31 31 31h62c17 0 31-14 31-31l1-94h93z" horiz-adv-x="875" />
<glyph glyph-name="calendar-check" unicode="&#xf274;" d="M852 538H23c-13 0-23 10-23 23v70c0 52 42 94 94 94h93l1 102c0 12 10 23 23 23h78c13 0 24-11 24-23V725h250v102c0 12 10 23 23 23h78c13 0 24-11 24-23V725h93c52 0 94-42 94-94v-70c0-13-10-24-23-24zM23 475h829c13 0 23-10 23-23V-56c0-52-42-94-94-94H94c-52 0-94 42-94 94v508c0 13 10 23 23 23z m651-187l-55 55c-9 9-24 9-33 0L379 138l-90 90c-9 10-24 10-33 0l-55-55c-10-9-10-23 0-33L362-22c9-10 24-10 33 0l279 277c9 9 9 23 0 33z" horiz-adv-x="875" />
<glyph glyph-name="calendar-minus" unicode="&#xf272;" d="M852 538H23c-13 0-23 10-23 23v70c0 52 42 94 94 94h93l1 102c0 12 10 23 23 23h78c13 0 24-11 24-23V725h250v102c0 12 10 23 23 23h78c13 0 24-11 24-23V725h93c52 0 94-42 94-94v-70c0-13-10-24-23-24zM23 475h829c13 0 23-10 23-23V-56c0-52-42-94-94-94H94c-52 0-94 42-94 94v508c0 13 10 23 23 23z m594-375c13 0 24 11 24 23v79c0 13-11 23-24 23H258c-13 0-24-10-24-23v-79c0-12 11-23 24-23h359z" horiz-adv-x="875" />
<glyph glyph-name="calendar-plus" unicode="&#xf271;" d="M852 538H23c-13 0-23 10-23 23v70c0 52 42 94 94 94h93l1 102c0 12 10 23 23 23h78c13 0 24-11 24-23V725h250v102c0 12 10 23 23 23h78c13 0 24-11 24-23V725h93c52 0 94-42 94-94v-70c0-13-10-24-23-24zM23 475h829c13 0 23-10 23-23V-56c0-52-42-94-94-94H94c-52 0-94 42-94 94v508c0 13 10 23 23 23z m618-273c0 13-11 23-24 23H500v117c0 13-10 24-23 24h-79c-12 0-23-11-23-24V225H258c-13 0-24-10-24-23v-79c0-12 11-23 24-23h117V-17c0-13 11-24 23-24h79c13 0 23 11 23 24v117h117c13 0 24 11 24 23v79z" horiz-adv-x="875" />
<glyph glyph-name="calendar-times" unicode="&#xf273;" d="M852 538H23c-13 0-23 10-23 23v70c0 52 42 94 94 94h93l1 102c0 12 10 23 23 23h78c13 0 24-11 24-23V725h250v102c0 12 10 23 23 23h78c13 0 24-11 24-23V725h93c52 0 94-42 94-94v-70c0-13-10-24-23-24zM23 475h829c13 0 23-10 23-23V-56c0-52-42-94-94-94H94c-52 0-94 42-94 94v508c0 13 10 23 23 23z m503-312l94 93c9 10 9 24 0 34l-55 55c-9 9-24 9-34 0l-94-94-93 94c-10 9-24 9-34 0l-55-55c-9-10-9-24 0-34l94-94-94-93c-9-10-9-25 0-34l55-55c9-9 24-9 34 0l93 94 94-94c10-9 24-9 34 0l55 55c9 9 9 24 0 34z" horiz-adv-x="875" />
<glyph glyph-name="calendar" unicode="&#xf133;" d="M23 475h829c13 0 23-10 23-23V-56c0-52-42-94-94-94H94c-52 0-94 42-94 94v508c0 13 10 23 23 23z m852 86c0-13-10-24-23-24l-829 1c-13 0-23 10-23 23v70c0 52 42 94 94 94h93l1 102c0 12 10 23 23 23h78c13 0 24-11 24-23V725h250v102c0 12 10 23 23 23h78c13 0 24-11 24-23V725h93c52 0 94-42 94-94v-70z" horiz-adv-x="875" />
<glyph glyph-name="camera-retro" unicode="&#xf083;" d="M94 788h812c52 0 94-42 94-94V6c0-51-42-93-94-93H94C42-87 0-45 0 6v688c0 52 42 94 94 94z m0-63c-17 0-32-14-32-31l1-20c0-6 5-11 11-11h227c6 0 12 5 12 11v39c0 7-6 12-12 12H94z m832-187c6 0 11 5 11 11l1 145c0 17-15 31-32 31H412c-3 0-7-2-9-5l-59-89H74c-6 0-12-5-12-11v-71c0-6 6-11 12-11h852zM500 22a235 235 0 1 1 0 469 235 235 0 0 1 0-469z m0 406a172 172 0 1 0 0-344 172 172 0 0 0 0 344z m-94-203c17 0 31 14 31 31 0 35 29 63 63 63 17 0 31 14 31 31s-14 31-31 31c-69 0-125-56-125-125 0-17 14-31 31-31z" horiz-adv-x="1000" />
<glyph glyph-name="camera" unicode="&#xf030;" d="M1000 569V6c0-51-42-93-94-93H94C42-87 0-45 0 6v563c0 52 42 94 94 94h172l24 64c13 36 48 60 87 60l245 1c40 0 75-25 88-61l24-65 172 1c52 0 94-42 94-94zM734 288a235 235 0 1 1-469-1 235 235 0 0 1 469 1z m-62 0a172 172 0 0 0-344 0 172 172 0 0 0 344 0z" horiz-adv-x="1000" />
<glyph glyph-name="cannabis" unicode="&#xf55f;" d="M983 146a31 31 0 0 0 0-55c-4-2-118-62-260-62-12 0-24 0-34 1 22-44 32-75 32-77a31 31 0 0 0-39-39c-3 1-73 23-151 77v-125c0-9-7-16-15-16h-32c-8 0-15 7-15 16V-9a618 618 0 0 0-161-79 31 31 0 0 0-29 41c0 2 10 33 32 77-10-1-22-1-34-1C135 29 21 89 17 91a31 31 0 0 0 0 55c3 2 63 33 150 51C41 343 2 513 1 520c-1 2-1 5-1 7 0 9 3 16 9 22a31 31 0 0 0 29 9c7-2 169-39 314-156 0 3 0 5 0 8 0 232 117 418 122 426a31 31 0 0 0 52 0c5-8 122-194 122-426 0-3 0-5 0-8 145 117 307 154 314 156a31 31 0 0 0 37-38c-2-7-40-177-166-323 87-18 147-49 150-51z" horiz-adv-x="1000" />
<glyph glyph-name="capsules" unicode="&#xf46b;" d="M1085 264A223 223 0 1 0 719 8L462 374c-10 15-18 32-25 48V131a219 219 0 1 0-437 0v438a219 219 0 0 0 436 11 223 223 0 0 0 393 50z m-773 86v219a94 94 0 1 1-187 0V350h187z m381-88l161 113-128 183a98 98 0 1 1-161-113z" horiz-adv-x="1125" />
<glyph glyph-name="car-alt" unicode="&#xf5de;" d="M857 435c47-18 80-63 80-116l1-94c0-31-12-60-32-82V38c0-35-28-63-62-63h-63c-34 0-62 28-62 63v62H219V38c0-35-28-63-63-63H94C59-25 31 3 31 38v105c-19 22-31 50-31 82v94c0 53 34 98 81 116l22 55 39 97c33 84 113 138 203 138h248c90 0 170-54 203-137l39-98zM258 541l-39-97h500l-39 97a94 94 0 0 1-87 59H345c-39 0-73-23-87-59zM156 225c38 0 94-6 94 32 0 37-56 93-94 93s-62-25-62-62c0-38 25-63 62-63z m625 0c38 0 63 25 63 63 0 37-25 62-63 62s-94-56-94-93c1-38 57-32 94-32z" horiz-adv-x="937.5" />
<glyph glyph-name="car-battery" unicode="&#xf5df;" d="M938 600c34 0 62-28 62-62V38c0-35-28-63-62-63H63C28-25 0 3 0 38v500c0 34 28 62 63 62h62v94c0 17 14 31 31 31h188c17 0 31-14 31-31v-94h250v94c0 17 14 31 31 31h188c17 0 31-14 31-31v-94h63zM375 334v32c0 8-7 15-16 15H141c-9 0-16-7-16-15v-32c0-8 7-15 16-15h218c9 0 16 7 16 15z m500 0v32c0 8-7 15-16 15h-78v78c0 9-7 16-15 16h-32c-8 0-15-7-15-16v-78h-78c-9 0-16-7-16-15v-32c0-8 7-15 16-15h78v-78c0-9 7-16 15-16h32c8 0 15 7 15 16v78h78c9 0 16 7 16 15z" horiz-adv-x="1000" />
<glyph glyph-name="car-crash" unicode="&#xf5e1;" d="M280 419l-24-91c-6-22-8-45-5-67l-69-57c-13-10-32 1-28 18l30 149c2 11-5 20-16 21L16 407c-17 2-22 23-8 32l127 85c9 6 11 18 4 26L42 668c-11 13 1 32 17 28l150-30c10-2 20 5 21 16l15 152c1 17 23 22 32 8l85-127c5-9 17-11 26-4l118 97c12 11 31-1 28-17l-22-110c-5-6-11-12-16-18l-62-84-21-28c-64-17-116-67-133-132z m966-259l-24-91a123 123 0 0 0-52-71l-27-102a63 63 0 0 0-77-44l-60 16c-33 9-53 43-44 77l16 60-483 130-16-61c-9-33-43-53-77-44l-60 16a62 62 0 0 0-44 77l27 102a123 123 0 0 0-9 87l24 91a124 124 0 0 0 108 91l36 48 63 83a230 230 0 0 0 74 64 211 211 0 0 0 92 24c22 1 44-2 65-7l240-65a219 219 0 0 0 161-185l12-104 7-59a125 125 0 0 0 48-133zM499 392c-36 10-67-8-76-44s8-66 44-76 89-30 99 6c9 36-31 105-67 114z m568-55l-13 104a94 94 0 0 1-68 80l-240 64a93 93 0 0 1-99-34l-63-84 336-90z m36-107c-36 10-105-29-115-65-9-37 46-45 83-55 36-10 67 8 76 44 10 36-8 67-44 76z" horiz-adv-x="1250" />
<glyph glyph-name="car-side" unicode="&#xf5e4;" d="M1063 475c103 0 187-84 187-187V131c0-17-14-31-31-31h-94a187 187 0 1 0-375 0H500a187 187 0 1 0-375 0H31c-17 0-31 14-31 31v219c0 58 40 107 94 121l93 238c19 47 65 79 116 79h418c40 0 75-19 98-47l212-266h32zM313 6a94 94 0 1 1-1 188 94 94 0 0 1 1-188z m140 469v188H303l-75-188h225z m94 0h324L721 663H547V475zM938 6a94 94 0 1 1-1 188 94 94 0 0 1 1-188z" horiz-adv-x="1250" />
<glyph glyph-name="car" unicode="&#xf1b9;" d="M977 506c15 0 26-14 22-29l-11-47c-3-10-12-18-23-18h-39c26-22 43-56 43-93v-94c0-32-12-60-32-82V37c0-34-28-62-62-62h-63c-34 0-62 28-62 62v63H250V37c0-34-28-62-63-62h-62C90-25 62 3 62 37v106c-19 22-31 50-31 82v94c0 37 17 71 43 93H35c-11 0-20 8-23 18L1 477c-4 15 7 29 22 29h117l33 81c33 84 113 138 203 138h248c90 0 170-54 203-137l33-82h116z m-688 35l-39-97h500l-39 97a94 94 0 0 1-87 59H376c-38 0-73-23-87-59zM187 225c38 0 94-6 94 32 0 37-56 93-94 93s-62-25-62-62c0-38 25-63 62-63z m626 0c37 0 62 25 62 63 0 37-25 62-62 62s-94-56-94-93c0-38 56-32 93-32z" horiz-adv-x="1000" />
<glyph glyph-name="caret-down" unicode="&#xf0d7;" d="M61 475h503c34 0 52-42 27-67L340 157a39 39 0 0 0-55 0L34 408c-25 25-8 67 27 67z" horiz-adv-x="625" />
<glyph glyph-name="caret-left" unicode="&#xf0d9;" d="M375 601V99c0-35-42-53-67-28L57 322a39 39 0 0 0 0 56l251 251c25 24 67 7 67-28z" horiz-adv-x="375" />
<glyph glyph-name="caret-right" unicode="&#xf0da;" d="M0 99v502c0 35 42 53 67 28l251-251c15-16 15-40 0-56L67 71C42 47 0 64 0 99z" horiz-adv-x="375" />
<glyph glyph-name="caret-square-down" unicode="&#xf150;" d="M875 694V6c0-51-42-93-94-93H94C42-87 0-45 0 6v688c0 52 42 94 94 94h687c52 0 94-42 94-94zM181 419l240-240c9-9 24-9 33 0l240 240c15 15 5 40-16 40H197c-21 0-31-25-16-40z" horiz-adv-x="875" />
<glyph glyph-name="caret-square-left" unicode="&#xf191;" d="M781-87H94C42-87 0-45 0 6v688c0 52 42 94 94 94h687c52 0 94-42 94-94V6c0-51-42-93-94-93zM507 607L267 367c-10-10-10-24 0-34L507 93c15-15 40-4 40 17v480c0 21-25 32-40 17z" horiz-adv-x="875" />
<glyph glyph-name="caret-square-right" unicode="&#xf152;" d="M94 788h687c52 0 94-42 94-94V6c0-51-42-93-94-93H94C42-87 0-45 0 6v688c0 52 42 94 94 94zM368 93l240 240c10 10 10 24 0 34L368 607c-15 15-40 4-40-17V110c0-21 25-32 40-17z" horiz-adv-x="875" />
<glyph glyph-name="caret-square-up" unicode="&#xf151;" d="M0 6v688c0 52 42 94 94 94h687c52 0 94-42 94-94V6c0-51-42-93-94-93H94C42-87 0-45 0 6z m694 275L454 521c-9 9-24 9-33 0L181 281c-15-15-5-40 16-40h481c21 0 31 25 16 40z" horiz-adv-x="875" />
<glyph glyph-name="caret-up" unicode="&#xf0d8;" d="M564 163H61c-35 0-52 42-27 66l251 252c15 15 40 15 55 0l251-252c25-24 8-67-27-67z" horiz-adv-x="625" />
<glyph glyph-name="cart-arrow-down" unicode="&#xf218;" d="M986 225H413l13-62h524c30 0 53-28 46-58l-11-47a109 109 0 1 0-124-20H452c20-20 32-48 32-79a109 109 0 1 0-163 95L183 725H47c-26 0-47 21-47 47v31c0 26 21 47 47 47h200c22 0 42-16 46-37l18-88h767c30 0 52-28 46-57l-93-406c-4-22-23-37-45-37zM787 475h-84v117c0 13-10 24-23 24h-47c-13 0-24-11-24-24V475h-84c-21 0-31-25-16-40l131-131c9-9 24-9 33 0l131 131c14 15 4 40-17 40z" horiz-adv-x="1125" />
<glyph glyph-name="cart-plus" unicode="&#xf217;" d="M986 225H413l13-62h524c30 0 53-28 46-58l-11-47a109 109 0 1 0-124-20H452c20-20 32-48 32-79a109 109 0 1 0-163 95L183 725H47c-26 0-47 21-47 47v31c0 26 21 47 47 47h200c22 0 42-16 46-37l18-88h767c30 0 52-28 46-57l-93-406c-4-22-23-37-45-37zM797 522h-94v78c0 17-14 31-31 31h-31c-18 0-32-14-32-31v-78h-93c-18 0-32-14-32-31v-32c0-17 14-31 32-31h93v-78c0-17 14-31 32-31h31c17 0 31 14 31 31v78h94c17 0 31 14 31 31v32c0 17-14 31-31 31z" horiz-adv-x="1125" />
<glyph glyph-name="certificate" unicode="&#xf0a3;" d="M896 350l90-88c26-25 14-70-21-79l-123-31 35-121c10-35-23-68-58-58L698 8l-31-123c-9-35-55-47-79-21l-88 90-88-90a46 46 0 0 0-79 21L302 8 181-27a47 47 0 0 0-58 58l35 121-123 31c-35 9-47 54-21 79l90 88-90 88a46 46 0 0 0 21 79l123 31-35 121a47 47 0 0 0 58 58l121-34 31 122c9 35 55 47 79 21l88-91 88 91c25 26 70 14 79-21l31-122 121 34c35 10 68-23 58-58l-35-121 123-31c35-9 47-54 21-79z" horiz-adv-x="1000" />
<glyph glyph-name="chalkboard-teacher" unicode="&#xf51c;" d="M406 163c122 0 220-99 219-220 0-52-42-93-94-93H94c-52 0-94 41-94 93-1 121 97 220 219 220 4 0 9-1 13-3a256 256 0 0 1 160 0c5 2 10 3 14 3z m-93 62a187 187 0 1 0-1 375 187 187 0 0 0 1-375z m843 625c52 0 94-43 94-97V134c0-53-42-97-94-97H679c-13 50-41 93-78 125h149v125l250 1V163h125v562H438v-97c-37 21-80 35-125 35v90c0 54 42 97 93 97h750z" horiz-adv-x="1250" />
<glyph glyph-name="chalkboard" unicode="&#xf51b;" d="M188 725V38H63v734c0 43 35 78 78 78h968c43 0 78-35 78-78V38h-125v687H187zM1219-25c17 0 31-14 31-31v-63c0-17-14-31-31-31H31c-17 0-31 14-31 31v63c0 17 14 31 31 31h532v125h375V-25h281z" horiz-adv-x="1250" />
<glyph glyph-name="charging-station" unicode="&#xf5e7;" d="M656-25c17 0 31-14 31-31l1-63c0-17-14-31-32-31H31c-17 0-31 14-31 31v63c0 17 14 31 31 31h625z m406 625h32c17 0 31-14 31-31v-63c0-70-46-128-109-148V123c0-86-75-156-164-147-77 7-133 77-133 154v48c0 43-35 78-78 78h-16V38H63v687c0 69 56 125 125 125h312c69 0 125-56 125-125V350h16c95 0 172-77 172-172v-55c0-33 29-59 63-54 27 5 46 30 46 58v231c-63 20-110 78-110 148l1 63c0 17 14 31 31 31h31v94a31 31 0 0 0 63 0v-94h62v94a31 31 0 0 0 63 0v-94z m-554-93c9 13-2 30-20 30l-113 1 23 99c4 13-8 26-23 26H242c-12 0-22-8-23-18l-31-209c-2-13 9-23 23-23h116l-45-163c-4-13 8-25 23-25 8 0 16 4 20 10z" horiz-adv-x="1125" />
<glyph glyph-name="chart-area" unicode="&#xf1fe;" d="M977 100c13 0 23-10 23-23V-2c0-13-10-23-23-23H23C10-25 0-15 0-2v704c0 13 10 23 23 23h79c12 0 23-10 23-23V100h852zM728 539c12 7 28 3 34-10l176-367H188v204l169 282c9 14 29 15 39 2l167-222z" horiz-adv-x="1000" />
<glyph glyph-name="chart-bar" unicode="&#xf080;" d="M650 225c-12 0-25 13-25 25v263c0 12 13 25 25 25h75c13 0 25-13 25-25V250c0-12-12-25-25-25h-75z m188 0c-13 0-25 13-25 25v450c0 13 12 25 25 25h75c12 0 25-12 25-25V250c0-12-13-25-25-25h-75z m-563 0c-12 0-25 13-25 25v138c0 12 13 25 25 25h75c13 0 25-13 25-25V250c0-12-12-25-25-25h-75z m188 0c-13 0-25 13-25 25v388c0 12 12 25 25 25h75c12 0 25-13 25-25V250c0-12-13-25-25-25h-75z m506-125c17 0 31-14 31-31V6c0-17-14-31-31-31H63C28-25 0 3 0 38v656c0 17 14 31 31 31h63c17 0 31-14 31-31V100h844z" horiz-adv-x="1000" />
<glyph glyph-name="chart-line" unicode="&#xf201;" d="M969 100c17 0 31-14 31-31V6c0-17-14-31-31-31H63C28-25 0 3 0 38v656c0 17 14 31 31 31h63c17 0 31-14 31-31V100h844z m-63 563c17 0 31-14 31-32l1-230c0-42-51-63-80-33l-64 63-187-188a63 63 0 0 0-89 0L375 387l-90-90a31 31 0 0 0-44 0l-44 44a31 31 0 0 0 0 44l134 134c24 25 64 25 88 0l144-143 143 143-64 64c-29 29-8 80 34 80h230z" horiz-adv-x="1000" />
<glyph glyph-name="chart-pie" unicode="&#xf200;" d="M1031 288c18 0 34-17 31-35A467 467 0 0 0 919-22a32 32 0 0 0-43 1L567 287h464z m-31 126c1-18-14-33-32-33H531v437c0 18 15 33 33 32a470 470 0 0 0 436-436zM438 288L742-17c13-13 12-36-3-47-75-53-166-85-264-86a468 468 0 1 0-72 932c18 3 34-12 34-31V288z" horiz-adv-x="1062.5" />
<glyph glyph-name="check-circle" unicode="&#xf058;" d="M984 350a484 484 0 1 0-968 0 484 484 0 0 0 968 0zM444 94l359 359c12 12 12 32 0 44l-44 44a31 31 0 0 1-44 0L422 248 285 385a31 31 0 0 1-44 0l-44-44a31 31 0 0 1 0-44L400 93c12-12 32-12 44 0z" horiz-adv-x="1000" />
<glyph glyph-name="check-double" unicode="&#xf560;" d="M986 509c18-19 18-48 0-67L408-136a47 47 0 0 0-66 0L14 192a47 47 0 0 0 0 66l77 78c18 18 48 18 66 0l218-218 468 468c18 18 48 18 66 0zM353 302L134 521a31 31 0 0 0 0 44l89 88c12 13 32 13 44 0l108-108 296 296c12 12 32 12 44 0l88-89c12-12 12-31 0-44L397 302a31 31 0 0 0-44 0z" horiz-adv-x="1000" />
<glyph glyph-name="check-square" unicode="&#xf14a;" d="M781-87H94C42-87 0-45 0 6v688c0 52 42 94 94 94h687c52 0 94-42 94-94V6c0-51-42-93-94-93zM381 104l360 359c12 13 12 32 0 45l-44 44a31 31 0 0 1-45 0L359 259 222 395a31 31 0 0 1-44 0l-44-44a31 31 0 0 1 0-44l203-203c12-12 32-12 44 0z" horiz-adv-x="875" />
<glyph glyph-name="check" unicode="&#xf00c;" d="M340-8L15 317a50 50 0 0 0 0 70l70 71c20 20 52 20 71 0l219-219 469 469c19 20 51 20 71 0l70-71c20-19 20-51 0-70L410-8a50 50 0 0 0-70 0z" horiz-adv-x="1000" />
<glyph glyph-name="chess-bishop" unicode="&#xf43a;" d="M16 288c0 143 116 353 220 440a62 62 0 0 0 14 122h125c35 0 63-28 63-62 0-30-21-53-48-60 47-40 97-107 138-181L317 336a16 16 0 0 1 0-22l22-22c3-3 7-4 11-4 5 0 9 1 11 4l196 196c31-69 52-140 52-200 0-101-43-144-109-165V38H125v85C59 144 16 187 16 288zM594-25c17 0 31-14 31-31v-63c0-17-14-31-31-31H31c-17 0-31 14-31 31v63c0 17 14 31 31 31h563z" horiz-adv-x="625" />
<glyph glyph-name="chess-board" unicode="&#xf43c;" d="M500 850V725H375v125h125zM0 725h125V600H0v125z m250 125V725H125v125h125z m125-500h125V225H375v125zM0 475h125V350H0v125z m750 375V725H625v125h125z m250 0V725H875v125h125zM250 350V225H125v125h125z m750-375H875v125h125V-25z m0 250H875v125h125V225zM750-150v125h125v-125H750z m250 625H875v125h125V475zM250-150v125h125v-125H250zM0-150v125h125v-125H0z m500 0v125h125v-125H500zM0 225h125V100H0v125z m625 375H500v125h125V600zM500 350v125h125V350H500zM375 100h125V-25H375v125z m250 125v125h125V225H625z m0 250v125h125V475H625z m0-375h125V-25H625v125z m-500 0h125V-25H125v125z m250 500H250v125h125V600z m375-500v125h125V100H750zM500 475H375v125h125V475z m250 250h125V600H750v125zM500 225h125V100H500v125zM375 475V350H250v125h125z m375-125v125h125V350H750zM250 600V475H125v125h125z m0-375h125V100H250v125z" horiz-adv-x="1000" />
<glyph glyph-name="chess-king" unicode="&#xf43f;" d="M781-25c17 0 31-14 31-31l1-63c0-17-14-31-32-31H94c-18 0-32 14-32 31v63c0 17 14 31 32 31h687z m31 563a62 62 0 0 0 60-82L729 38H146L3 456a63 63 0 0 0 60 81l312 1v93h-78c-9 0-16 7-16 16v94c0 8 7 15 16 15h78v78c0 9 7 16 16 16h93c9 0 16-7 16-16v-78h78c9 0 16-7 16-15v-94c0-9-7-16-16-16h-78v-93h313z" horiz-adv-x="875" />
<glyph glyph-name="chess-knight" unicode="&#xf441;" d="M37 318a63 63 0 0 0-37 57v268c0 13 5 25 14 33l17 18-27 55c-3 5-4 10-4 15 0 13 11 24 23 24h289c207 0 375-168 375-375V38H63v28s-1 0-1 0c0 61 36 114 87 140l112 56c30 15 51 47 51 83v99l-43-22c-12-6-21-17-24-30l-18-60c-6-19-19-33-37-40l-25-10a64 64 0 0 0-48 1z m65 282a39 39 0 1 1 0-78 39 39 0 0 1 0 78zM719-25c17 0 31-14 31-31v-63c0-17-14-31-31-31H31c-17 0-31 14-31 31v63c0 17 14 31 31 31h688z" horiz-adv-x="750" />
<glyph glyph-name="chess-pawn" unicode="&#xf443;" d="M205 413a202 202 0 0 0 108 375 203 203 0 0 0 107-375h49c17 0 31-14 31-32v-62c0-18-14-32-31-32l-31 1v-11c0-86 8-169 46-239H141c38 70 47 153 47 239v11h-32c-17 0-31 14-31 31v62c0 17 14 31 31 31l49 1zM594-25c17 0 31-14 31-31v-63c0-17-14-31-31-31H31c-17 0-31 14-31 31v63c0 17 14 31 31 31h563z" horiz-adv-x="625" />
<glyph glyph-name="chess-queen" unicode="&#xf445;" d="M500 631a109 109 0 1 0 0 219 109 109 0 0 0 0-219zM844-25c17 0 31-14 31-31v-63c0-17-14-31-31-31H156c-17 0-31 14-31 31v63c0 17 14 31 31 31h688z m142 515a31 31 0 0 0 11-40L796 37H204L3 450a31 31 0 0 0 11 40l56 31c14 10 33 5 43-8a92 92 0 0 1 81-38c50 4 87 49 87 99 0 14 12 26 26 26h76c12 0 23-8 25-19a94 94 0 0 1 184 0c2 11 13 19 25 19h76c14 0 26-12 26-26 0-46 30-89 76-97 5-2 11-2 17-2 31 0 58 15 75 37 10 14 29 19 43 9z" horiz-adv-x="1000" />
<glyph glyph-name="chess-rook" unicode="&#xf447;" d="M719 788c17 0 31-14 31-32V413l-125-63c0-93 3-185 26-312H99c23 127 26 218 26 312L0 413v343c0 18 14 32 31 32h110c17 0 31-14 31-32v-93h94v93c0 18 14 32 31 32h156c17 0 31-14 31-32v-93h94v93c0 18 14 32 31 32h110zM437 225v125a63 63 0 0 1-125 0V225h125zM720-25c17 0 31-14 31-31v-63c0-17-14-31-31-31H31c-17 0-31 14-31 31v63c0 17 14 31 31 31h688z" horiz-adv-x="750" />
<glyph glyph-name="chess" unicode="&#xf439;" d="M145 444L78 620c-1 4-2 7-2 11 0 17 14 31 32 31v1h111v62h-47c-9 0-16 7-16 16v31c0 8 7 15 16 15l47 1v46c0 9 7 16 15 16h32c8 0 15-7 15-16v-47l47 1c9 0 16-7 16-16v-31c0-9-7-16-16-16h-47v-62h111a31 31 0 0 0 30-43l-67-176h20c17 0 31-14 31-31v-32c0-17-14-31-31-31h-31c0-86 11-170 31-250H125c20 80 31 164 31 250h-31c-17 0-31 14-31 31v32c0 17 14 31 31 31h20zM483-48c10-5 17-15 17-28v-43c0-17-14-31-31-31H31c-17 0-31 14-31 31v43c0 13 7 23 17 28l45 23V6c0 17 14 31 32 31h312c17 0 31-14 31-31l1-31z m181 309l-48 40a62 62 0 0 0-22 48v114c0 7 5 12 11 12h52c7 0 12-5 12-12v-50h48v50c0 7 5 12 12 12h105c6 0 12-5 12-12v-50h48v50c0 7 5 12 12 12h51c7 0 12-5 12-12V349c0-19-9-36-22-48l-48-40 6-161H658z m86-5v-62h63v62a31 31 0 1 1-63 0zM983-48c10-5 17-15 17-28v-43c0-17-14-31-31-31H594c-17 0-31 14-31 31v43c0 13 7 23 17 28l45 23V6c0 17 14 31 31 31h250c18 0 32-14 32-31v-31z" horiz-adv-x="1000" />
<glyph glyph-name="chevron-circle-down" unicode="&#xf13a;" d="M984 350a484 484 0 1 0-968 0 484 484 0 0 0 968 0zM533 128l265 264c18 18 18 48 0 66l-33 34a47 47 0 0 1-67 0L500 293 302 492a47 47 0 0 1-67 0l-33-34a47 47 0 0 1 0-66l265-265c18-18 48-18 66 0z" horiz-adv-x="1000" />
<glyph glyph-name="chevron-circle-left" unicode="&#xf137;" d="M500-134a484 484 0 1 0 0 968 484 484 0 0 0 0-968zM278 317L542 52c19-18 48-18 66 0l34 33c18 19 18 48 0 67L443 350l199 198c18 19 18 48 0 67l-34 33a47 47 0 0 1-66 0L278 383a47 47 0 0 1 0-66z" horiz-adv-x="1000" />
<glyph glyph-name="chevron-circle-right" unicode="&#xf138;" d="M500 834a484 484 0 1 0 0-968 484 484 0 0 0 0 968z m223-451L458 648a47 47 0 0 1-66 0l-34-33a47 47 0 0 1 0-67l199-198-199-198a47 47 0 0 1 0-67l34-33c18-18 48-18 66 0l265 265c18 18 18 48 0 66z" horiz-adv-x="1000" />
<glyph glyph-name="chevron-circle-up" unicode="&#xf139;" d="M16 350a484 484 0 1 0 968 0 484 484 0 0 0-968 0z m451 223L202 308a47 47 0 0 1 0-66l33-34c19-18 48-18 67 0l198 199 198-199c19-18 48-18 67 0l33 34c18 18 18 48 0 66L533 573a47 47 0 0 1-66 0z" horiz-adv-x="1000" />
<glyph glyph-name="chevron-down" unicode="&#xf078;" d="M404 105L25 485a47 47 0 0 0 0 66l44 44c18 18 48 18 66 0l302-301 303 301c18 18 48 18 66 0l44-44c18-19 18-48 0-67L471 105a47 47 0 0 0-67 0z" horiz-adv-x="875" />
<glyph glyph-name="chevron-left" unicode="&#xf053;" d="M67 383l380 380c18 18 48 18 66 0l45-45c18-18 18-47 0-66L257 350 558 48c18-19 18-48 0-66l-45-45a47 47 0 0 0-66 0L67 317a47 47 0 0 0 0 66z" horiz-adv-x="625" />
<glyph glyph-name="chevron-right" unicode="&#xf054;" d="M558 317L178-63a47 47 0 0 0-66 0L67-19a47 47 0 0 0 0 67l301 302L67 652a47 47 0 0 0 0 66l45 45c18 18 48 18 66 0l380-380c18-18 18-48 0-66z" horiz-adv-x="625" />
<glyph glyph-name="chevron-up" unicode="&#xf077;" d="M471 595l379-379c19-19 19-48 0-67l-44-44a47 47 0 0 0-66 0L438 406 135 105a47 47 0 0 0-66 0l-44 44a47 47 0 0 0 0 66l379 380c19 18 48 18 67 0z" horiz-adv-x="875" />
<glyph glyph-name="child" unicode="&#xf1ae;" d="M234 709a141 141 0 1 0 282 0 141 141 0 0 0-282 0z m498-2c24-25 24-64 0-89L547 433V-87c0-35-28-63-63-63h-31c-34 0-62 28-62 62v219h-32V-88c0-34-28-62-62-62h-31c-35 0-63 28-63 62v522L18 618a63 63 0 0 0 89 89l169-170 198 1 169 169c25 24 64 24 89 0z" horiz-adv-x="750" />
<glyph glyph-name="church" unicode="&#xf51d;" d="M907 368c19-11 31-31 31-53v-465H750V37a125 125 0 0 1-250 0v-187H313v465c0 22 12 42 30 53l219 132 1 100h-94c-17 0-31 14-31 31v63c0 17 14 31 31 31h94v94c0 17 14 31 31 31h62c17 0 31-14 31-31l1-94h93c17 0 31-14 31-31l1-63c0-17-14-31-32-31h-94l1-100zM0 77c0 25 16 47 38 57l212 91v-375H31c-17 0-31 14-31 31V77z m1212 57c23-10 38-32 38-57v-196c0-17-14-31-31-31h-219v375z" horiz-adv-x="1250" />
<glyph glyph-name="circle-notch" unicode="&#xf1ce;" d="M563 774c0 30 28 53 58 45a485 485 0 1 0-242 0c30 8 59-15 59-45v-33c0-21-15-39-35-45a359 359 0 1 1 194 0c-20 6-34 24-34 45v33z" horiz-adv-x="1000" />
<glyph glyph-name="circle" unicode="&#xf111;" d="M500 834a484 484 0 1 0 0-968 484 484 0 0 0 0 968z" horiz-adv-x="1000" />
<glyph glyph-name="clipboard-check" unicode="&#xf46c;" d="M656 725c52 0 94-42 94-94V-56c0-52-42-94-94-94H94c-52 0-94 42-94 94v687c0 52 42 94 94 94h156a125 125 0 0 0 250 0h156z m-281 47c-26 0-47-21-47-47s21-47 47-47 47 21 47 47-21 47-47 47z m237-453c9 9 9 24 0 33l-55 56c-9 9-24 9-33 0L317 202l-90 91c-9 9-24 9-33 0l-56-55c-9-9-9-24 0-33L299 42c9-9 24-9 33 0z" horiz-adv-x="750" />
<glyph glyph-name="clipboard-list" unicode="&#xf46d;" d="M656 725c52 0 94-42 94-94V-56c0-52-42-94-94-94H94c-52 0-94 42-94 94v687c0 52 42 94 94 94h156a125 125 0 0 0 250 0h156zM187 22a47 47 0 1 1 0 94 47 47 0 1 1 0-94z m0 187a47 47 0 1 1 0 94 47 47 0 1 1 0-94z m0 188a47 47 0 1 1 0 94 47 47 0 1 1 0-94z m188 375c-26 0-47-21-47-47s21-47 47-47 47 21 47 47-21 47-47 47zM625 53v31c0 9-7 16-16 16H328c-9 0-16-7-16-16V53c0-8 7-15 16-15h281c9 0 16 7 16 15z m0 188v31c0 9-7 16-16 16H328c-9 0-16-7-16-16v-31c0-9 7-16 16-16h281c9 0 16 7 16 16z m0 187v31c0 9-7 16-16 16H328c-9 0-16-7-16-16v-31c0-8 7-15 16-15h281c9 0 16 7 16 15z" horiz-adv-x="750" />
<glyph glyph-name="clipboard" unicode="&#xf328;" d="M750 631V-56c0-52-42-94-94-94H94c-52 0-94 42-94 94v687c0 52 42 94 94 94h156a125 125 0 0 0 250 0h156c52 0 94-42 94-94zM375 772a47 47 0 1 1 0-94 47 47 0 0 1 0 94z m188-223v39c0 7-6 12-12 12H199c-6 0-12-5-12-12v-39c0-6 6-11 12-11h352c6 0 11 5 11 11z" horiz-adv-x="750" />
<glyph glyph-name="clock" unicode="&#xf017;" d="M500 834a484 484 0 1 0 0-968 484 484 0 0 0 0 968z m181-611a31 31 0 0 1-5 44l-114 83 1 281c0 18-14 32-32 32h-62c-17 0-31-14-31-32V327c0-24 11-46 29-61l131-97a31 31 0 0 1 44 5l39 49z" horiz-adv-x="1000" />
<glyph glyph-name="clone" unicode="&#xf24d;" d="M906 850c52 0 94-42 94-94V194c0-52-42-94-94-94H344c-52 0-94 42-94 94v562c0 52 42 94 94 94h562zM344 38h406v-94c0-52-42-94-94-94H94c-52 0-94 42-94 94v562c0 52 42 94 94 94h93V194c0-86 71-156 157-156z" horiz-adv-x="1000" />
<glyph glyph-name="closed-captioning" unicode="&#xf20a;" d="M906 725c52 0 94-42 94-94V69c0-52-42-94-94-94H94C42-25 0 17 0 69v562c0 52 42 94 94 94h812zM426 288c-81-74-180-30-180 64 0 90 105 123 184 61 6-5 14-3 18 3l34 60c3 5 3 7-2 11-99 96-336 53-336-137 0-195 232-244 337-133 4 4 4 11 1 15l-38 54c-4 6-13 7-18 2z m372 0c-81-74-180-30-180 64 0 90 105 123 184 61 6-5 15-3 18 3l34 60c3 5 3 7-2 11-99 96-336 53-336-137 0-195 232-244 337-133 4 4 4 11 1 15l-38 54c-4 6-13 7-18 2z" horiz-adv-x="1000" />
<glyph glyph-name="cloud-download-alt" unicode="&#xf381;" d="M1050 407a250 250 0 0 0-50-494l-719-1a281 281 0 0 0-93 547c0 5-1 11-1 16a312 312 0 0 0 584 156 188 188 0 0 0 279-223zM790 234c20 20 6 53-22 53l-127 1v218c0 17-14 31-32 31l-93 1c-18 0-32-15-32-32V288H357c-28 0-42-34-22-54L540 28c13-12 33-12 45 0z" horiz-adv-x="1250" />
<glyph glyph-name="cloud-upload-alt" unicode="&#xf382;" d="M1050 407a250 250 0 0 0-50-494l-719-1a281 281 0 0 0-93 547c0 5-1 11-1 16a312 312 0 0 0 584 156 188 188 0 0 0 279-223zM768 287c28 1 42 34 22 54L585 547a31 31 0 0 1-45 0L335 341c-20-20-6-53 22-53h127V69c0-17 14-31 32-31h93c18 0 32 14 32 31v219h127z" horiz-adv-x="1250" />
<glyph glyph-name="cloud" unicode="&#xf0c2;" d="M1050 407a250 250 0 0 0-50-494l-719-1a281 281 0 0 0-93 547c0 5-1 11-1 16a312 312 0 0 0 584 156 188 188 0 0 0 279-223z" horiz-adv-x="1250" />
<glyph glyph-name="cocktail" unicode="&#xf561;" d="M578-56c43 0 78-35 78-78 0-9-7-16-15-16H172c-9 0-16 7-16 16 0 43 35 78 78 78h110v244L14 518c-30 30-9 82 34 82h716c43 0 65-52 34-82L469 188V-56h109z m266 906a281 281 0 1 0-146-521l69 69a188 188 0 1 1 77 358c-69 0-129-38-162-93H580a281 281 0 0 0 264 187z" horiz-adv-x="1125" />
<glyph glyph-name="code-branch" unicode="&#xf126;" d="M750 569c0-69-44-127-106-148-1-55-15-99-42-133-55-68-149-77-231-85-50-5-98-9-129-25-14-7-23-16-29-26a156 156 0 1 0-104 4v389a156 156 0 1 0 94 0V263c47 23 104 28 159 33 70 7 136 13 166 51 14 16 21 40 22 72a156 156 0 1 0 200 150zM156 725c-17 0-31-14-31-31s14-31 31-31 31 14 31 31-14 31-31 31z m0-750c17 0 31 14 31 31s-14 32-31 32-31-15-31-32 14-31 31-31z m438 625c-17 0-32-14-32-31s15-31 32-31 31 14 31 31-14 31-31 31z" horiz-adv-x="750" />
<glyph glyph-name="code" unicode="&#xf121;" d="M545-149l-119 35c-13 3-20 16-16 29l266 918c4 13 17 20 29 16l119-34c13-4 20-17 16-30L574-133c-4-12-17-20-29-16zM322 70c-9-10-24-10-33-1L7 333c-9 9-9 25 0 34l282 264c9 9 24 8 33-1l85-91c9-9 8-25-1-33L229 350l177-156c9-9 10-24 1-33z m639-1c-9-9-24-9-33 1l-85 91c-9 9-8 24 2 33l177 156-177 156c-10 9-11 24-2 33l85 91c9 10 24 10 33 1l282-264c9-9 9-25 0-34z" horiz-adv-x="1250" />
<glyph glyph-name="coffee" unicode="&#xf0f4;" d="M375 100c-103 0-187 84-187 188v453c0 26 20 47 46 47h766a250 250 0 0 0 0-500h-62c0-104-84-188-188-188H375z m625 563h-62V413h62a125 125 0 0 1 0 250z m93-750H94C1-87-25 38 24 38h1139c49 0 23-125-70-125z" horiz-adv-x="1250" />
<glyph glyph-name="cog" unicode="&#xf013;" d="M952 233c10-5 14-16 11-27-22-70-59-133-107-185-7-8-19-10-29-4l-83 48c-35-30-75-54-119-69v-96c0-11-7-21-18-23-68-15-142-16-213 0-11 2-19 12-19 23v96c-43 15-84 39-119 69l-83-48c-9-6-21-4-29 4C96 73 59 136 37 206c-3 10 2 22 11 27l83 48c-8 46-8 92 0 137l-83 48c-9 6-14 17-11 28 22 69 59 132 107 185 8 8 20 10 29 4l83-48c35 30 76 53 119 69v96c0 11 8 20 18 23 68 15 142 16 214 0 10-3 18-12 18-23v-96c44-15 84-39 119-69l83 48c9 6 21 4 29-4 48-53 85-115 107-185 3-11-2-22-11-27l-83-48c8-46 8-92 0-138z m-452-39a157 157 0 0 1 0 312 156 156 0 0 1 0-312z" horiz-adv-x="1000" />
<glyph glyph-name="cogs" unicode="&#xf085;" d="M1000 477l-16-28c-6-10-18-15-29-10-23 8-44 20-63 36-9 7-11 20-5 31l16 27c-14 16-24 34-31 54h-33c-12 0-22 8-24 20-4 24-4 48 0 73 2 11 12 20 24 20h32c8 19 18 38 32 53l-16 28c-6 10-4 23 5 31 19 15 40 28 63 36 11 4 23 0 29-10l16-28c21 3 42 3 62 0l16 28c6 10 19 14 30 10 23-8 44-21 62-36 9-8 12-21 6-31l-16-28c13-15 24-34 31-53h32c12 0 22-9 24-20 4-24 4-48 0-73-2-12-12-20-24-20h-32c-7-20-18-38-31-54l16-28c6-10 4-23-6-30-18-16-39-28-62-36-11-5-24 0-30 10l-16 28c-20-4-41-4-62 0z m-20 115c75-58 161 28 103 103-75 58-161-28-103-103zM755 291l65-33c20-11 29-35 21-56-18-48-52-91-83-129a47 47 0 0 0-60-10l-56 32c-32-26-68-48-108-61v-66c0-23-16-42-38-46-48-8-99-9-148 0-23 4-39 23-39 46v66c-40 14-76 35-108 61l-57-32c-19-11-44-7-59 10-31 38-65 81-82 129-8 21 1 45 20 56l65 33c-7 41-7 83 0 124l-65 33a47 47 0 0 0-20 57c17 47 51 90 82 128 15 18 40 22 59 11l57-33c32 26 68 48 108 62v65c0 23 16 42 38 46 48 9 98 9 148 1 23-4 39-24 39-47v-65c40-14 76-35 108-62l56 33c20 11 45 7 60-11 31-38 64-81 82-128 8-21 0-45-20-57l-66-33c8-41 8-83 1-124z m-230-41c115 150-56 322-207 206-115-150 56-322 207-206z m475-357l-16-28c-6-10-18-14-29-10-23 8-45 21-63 36-9 7-11 20-6 31l16 28c-13 15-24 33-31 53h-32c-12 0-22 8-24 20-4 24-4 48 0 73 2 11 12 20 24 20h32c7 20 18 38 31 53l-16 28c-5 11-3 24 6 31 18 16 40 28 63 36 11 5 23 0 29-10l16-28c21 4 42 4 62 0l16 28c6 10 18 15 30 10 23-8 44-20 62-36 9-7 12-20 6-31l-16-28c13-15 24-33 31-53h32c12 0 22-8 24-20 4-24 4-48 0-73-2-11-12-20-24-20h-32c-7-20-18-38-31-53l16-28c6-11 3-24-6-31-18-15-40-28-62-36-12-4-24 0-30 10l-16 28c-20-4-41-4-62 0zM980 8c75-58 161 28 103 103-75 58-161-28-103-103z" horiz-adv-x="1250" />
<glyph glyph-name="coins" unicode="&#xf51e;" d="M0 58C81 2 228-25 375-25S669 2 750 58v-83c0-69-168-125-375-125S0-94 0-25v83z m625 542c-207 0-375 56-375 125s168 125 375 125 375-56 375-125-168-125-375-125zM0 263c81-66 228-100 375-100s294 34 375 100V163c0-69-168-125-375-125S0 94 0 163v100z m813-21v124c75 14 142 35 187 67v-83c0-46-76-86-187-108zM375 538c207 0 375-70 375-157S582 225 375 225 0 295 0 381s168 157 375 157z m428-110c-17 46-59 83-117 111 125 6 245 33 314 82v-84c0-47-80-88-197-109z" horiz-adv-x="1000" />
<glyph glyph-name="columns" unicode="&#xf0db;" d="M906 788c52 0 94-42 94-94V6c0-51-42-93-94-93H94C42-87 0-45 0 6v688c0 52 42 94 94 94h812zM437 38v500H125V38h312z m438 0v500H563V38h312z" horiz-adv-x="1000" />
<glyph glyph-name="comment-alt" unicode="&#xf27a;" d="M875 850c69 0 125-56 125-125V163c0-69-56-125-125-125H594L350-145c-16-12-38-1-38 18V38H125C56 38 0 94 0 163v562c0 69 56 125 125 125h750z" horiz-adv-x="1000" />
<glyph glyph-name="comment-dots" unicode="&#xf4ad;" d="M500 788c276 0 500-182 500-407S776-25 500-25c-75 0-146 14-210 38A446 446 0 0 0 16-87c-7 0-12 3-15 9S0-66 4-61c1 1 83 89 107 187A361 361 0 0 0 0 381c0 225 224 407 500 407zM250 319a62 62 0 1 1 0 125 62 62 0 0 1 0-125z m250 0a62 62 0 1 1 0 125 62 62 0 0 1 0-125z m250 0a62 62 0 1 1 0 125 62 62 0 0 1 0-125z" horiz-adv-x="1000" />
<glyph glyph-name="comment-slash" unicode="&#xf4b3;" d="M125 381c0 37 6 71 17 105L778-5a610 610 0 0 0-363 18A446 446 0 0 0 141-87c-7 0-12 3-15 9-2 6-1 12 3 17 1 1 83 89 107 187a361 361 0 0 0-111 255zM1238-45c14-10 16-30 6-43l-39-50a31 31 0 0 0-44-5L12 745a31 31 0 0 0-5 44l38 49c11 14 30 16 44 5l205-158c88 63 204 103 331 103 276 0 500-182 500-407 0-96-42-183-110-253z" horiz-adv-x="1250" />
<glyph glyph-name="comment" unicode="&#xf075;" d="M500 788c276 0 500-182 500-407S776-25 500-25c-75 0-146 14-210 38A446 446 0 0 0 16-87c-7 0-12 3-15 9S0-66 4-61c1 1 83 89 107 187A361 361 0 0 0 0 381c0 225 224 407 500 407z" horiz-adv-x="1000" />
<glyph glyph-name="comments" unicode="&#xf086;" d="M813 475c0-173-182-312-407-312-80 0-154 18-217 48-43-24-102-48-173-48-7 0-12 3-15 9s-1 12 3 17c1 1 44 47 70 106C28 346 0 408 0 475c0 173 182 313 406 313s407-140 407-313z m238-430c26-59 69-105 70-106 4-5 5-11 3-17-3-6-8-9-15-9-71 0-130 24-173 48-63-31-137-48-217-48-169 0-313 78-375 191 21-2 41-4 62-4 259 0 469 168 469 375 0 13-1 26-2 39 148-46 252-158 252-289 0-67-27-129-74-180z" horiz-adv-x="1125" />
<glyph glyph-name="compact-disc" unicode="&#xf51f;" d="M484 834a484 484 0 1 0 1-968 484 484 0 0 0-1 968zM172 350c0 172 140 313 312 313v62a375 375 0 0 1-375-375h63z m312-187a188 188 0 1 1 0 375 188 188 0 0 1 0-375z m0 250a62 62 0 1 0 0-125 62 62 0 0 0 0 125z" horiz-adv-x="968.8" />
<glyph glyph-name="compass" unicode="&#xf14e;" d="M440 394a63 63 0 1 0 89-88 63 63 0 0 0-89 88z m44 440a484 484 0 1 0 0-968 484 484 0 0 0 0 968z m247-289c15 33-19 66-51 51L398 468c-14-7-25-18-31-31L238 155a39 39 0 0 1 51-51l282 129c14 6 25 17 31 30z" horiz-adv-x="968.8" />
<glyph glyph-name="compress" unicode="&#xf066;" d="M852 475H609c-26 0-46 21-46 47v242c0 13 10 23 23 23h78c13 0 24-10 24-23V600h164c13 0 23-11 23-23v-79c0-13-10-23-23-23z m-539 47c0-26-21-47-47-47H23c-12 0-23 11-23 23v79c0 13 11 23 23 23h165v164c0 13 10 24 23 24h78c13 0 24-11 24-24V522z m0-586c0-13-11-24-24-24h-78c-13 0-23 11-23 24v164H23c-12 0-23 10-23 23v79c0 12 11 23 23 23h243c26 0 47-21 47-47V-64z m375 0c0-13-11-24-24-24h-78c-13 0-24 11-24 24l1 242c0 26 20 47 46 47h243c12 0 23-11 23-23v-79c0-13-11-23-23-23H687V-64z" horiz-adv-x="875" />
<glyph glyph-name="concierge-bell" unicode="&#xf562;" d="M563 595a437 437 0 0 0 375-432H63c0 220 163 402 375 432v36h-32c-17 0-31 14-31 32v31c0 17 14 31 31 31h188c17 0 31-14 31-31v-31c0-18-14-32-31-32h-32l1-36z m406-495c17 0 31-14 31-31V6c0-17-14-31-31-31H31C14-25 0-11 0 6v63c0 17 14 31 31 31h938z" horiz-adv-x="1000" />
<glyph glyph-name="cookie-bite" unicode="&#xf564;" d="M997 350c8-53-1-108-25-156L903 60c-25-49-64-88-113-113l-135-69c-48-25-103-33-157-25l-150 24c-55 9-104 35-142 72L99 56c-37 38-64 88-72 143L3 348a261 261 0 0 0 25 158l69 134c25 49 64 88 113 113l135 69c48 24 102 33 155 25 2-137 113-247 250-247 0-137 110-248 247-250zM344 131a63 63 0 1 1 0 125 63 63 0 0 1 0-125z m62 313a63 63 0 1 1 0 125 63 63 0 0 1 0-125z m313-250a63 63 0 1 1 0 125 63 63 0 0 1 0-125z" horiz-adv-x="1000" />
<glyph glyph-name="cookie" unicode="&#xf563;" d="M997 352c8-54 0-109-25-158L903 60c-25-49-64-88-113-113l-135-69c-48-25-103-33-157-25l-150 24c-55 9-104 35-142 72L99 56c-37 38-64 87-72 143L3 348a261 261 0 0 0 25 158l69 134c24 49 64 88 113 113l135 69c48 25 103 33 157 25l150-24c53-8 103-34 142-72l107-107c37-38 64-88 72-143zM344 131a63 63 0 1 1 0 125 63 63 0 0 1 0-125z m62 313a63 63 0 1 1 0 125 63 63 0 0 1 0-125z m313-250a63 63 0 1 1 0 125 63 63 0 0 1 0-125z" horiz-adv-x="1000" />
<glyph glyph-name="copy" unicode="&#xf0c5;" d="M625-25v-78c0-26-21-47-47-47H47c-26 0-47 21-47 47v719c0 26 21 47 47 47h140V84c0-60 50-109 110-109h328z m0 672c0-26 21-47 47-47h203V84c0-26-21-47-47-47H297c-26 0-47 21-47 47v719c0 26 21 47 47 47h328V647z m236 60c9-8 14-20 14-33v-12l-187 1v187h11c13 0 25-5 33-14z" horiz-adv-x="875" />
<glyph glyph-name="copyright" unicode="&#xf1f9;" d="M500 834a484 484 0 1 0 0-968 484 484 0 0 0 0 968z m229-677a24 24 0 0 1 1 29l-48 66c-9 12-26 13-36 2-1-1-53-56-128-56-96 0-145 78-145 156 0 83 54 148 144 148 69 0 120-46 121-46 11-10 28-8 35 4l44 68c3 3 4 8 4 12 0 7-2 12-6 16-3 3-71 76-202 76a275 275 0 0 1-281-280c0-161 117-284 282-284 137 0 212 86 215 89z" horiz-adv-x="1000" />
<glyph glyph-name="couch" unicode="&#xf4b8;" d="M313 413c0 68-57 125-125 125h-63c0 103 84 187 188 187h625c103 0 187-84 187-187h-62c-69 0-125-57-125-125V288H313v125z m812 62a125 125 0 1 0 63-233V6c0-17-15-31-32-31h-125c-17 0-31 14-31 31v32H250V6c0-17-14-31-31-31H94C77-25 63-11 63 6v236a125 125 0 0 0 62 233h63c34 0 62-28 62-62V225h750v188c0 34 28 62 63 62h62z" horiz-adv-x="1250" />
<glyph glyph-name="credit-card" unicode="&#xf09d;" d="M0 6v344h1125V6c0-51-42-93-94-93H94C42-87 0-45 0 6z m375 133V61c0-13 11-23 23-23h266c13 0 23 10 23 23v78c0 13-10 24-23 24H398c-13 0-23-11-23-24z m-250 0V61c0-13 11-23 23-23h141c13 0 24 10 24 23v78c0 13-11 24-24 24H148c-12 0-23-11-23-24z m1000 555v-94H0v94c0 52 42 94 94 94h937c52 0 94-42 94-94z" horiz-adv-x="1125" />
<glyph glyph-name="crop-alt" unicode="&#xf565;" d="M953 163c26 0 47-21 47-47V22c0-26-21-47-47-47h-78v-78c0-26-21-47-47-47h-94c-26 0-47 21-47 47l1 641H375v187h438c34 0 62-28 62-62V163h78zM313 803V163h312V-25H188c-35 0-63 28-63 63v500H47c-26 0-47 21-47 46v94c0 26 21 47 47 47h78v78c0 26 21 47 47 47h94c26 0 47-21 47-47z" horiz-adv-x="1000" />
<glyph glyph-name="crop" unicode="&#xf125;" d="M953 163c26 0 47-21 47-47V22c0-26-21-47-47-47h-78v-78c0-26-21-47-47-47h-94c-26 0-47 21-47 47l1 552-287-286h224V-25H172c-26 0-47 21-47 47v516H47c-26 0-47 21-47 46v94c0 26 21 47 47 47h78v78c0 26 21 47 47 47h94c25 0 46-21 46-47V251l287 287H375v187h412l115 116c13 12 32 12 45 0l44-44c12-13 12-32 0-45L875 637V162h78z" horiz-adv-x="1000" />
<glyph glyph-name="crosshairs" unicode="&#xf05b;" d="M977 413c13 0 23-11 23-24v-78c0-13-10-23-23-23h-60A422 422 0 0 0 563-67v-60c0-12-11-23-24-23h-78c-13 0-23 11-23 23v60A422 422 0 0 0 83 288H23c-12 0-23 10-23 23v78c0 13 11 24 23 24h60a422 422 0 0 0 355 354v60c0 12 10 23 23 23h78c13 0 24-11 24-23v-60a422 422 0 0 0 354-355h60zM563 60a297 297 0 0 1 227 228h-79c-13 0-24 10-24 23l1 78c0 13 10 23 23 23h79a297 297 0 0 1-228 228l1-79c0-13-11-24-24-24l-78 1c-13 0-23 10-23 23v79a297 297 0 0 1-228-228h79c13 0 24-10 24-23v-78c0-13-11-24-24-24l-79 1A297 297 0 0 1 438 60v79c0 13 10 23 23 23l78 1c13 0 24-11 24-24V60z m0 290a63 63 0 1 0-126 0 63 63 0 0 0 126 0z" horiz-adv-x="1000" />
<glyph glyph-name="crow" unicode="&#xf520;" d="M1063 788c103 0 187-56 187-125l-187-32V475c0-170-114-314-270-360l81-217c4-13-2-26-14-30l-44-17c-13-4-26 2-30 14l-87 236c-4 0-8-1-11-1h-77l75-202c5-13-2-26-14-30l-44-17c-12-4-26 2-30 14l-87 235H323L85-19A59 59 0 0 0 24 81l726 572v41a156 156 0 0 0 280 94h32zM906 647a47 47 0 1 1 0 94 47 47 0 0 1 0-94z" horiz-adv-x="1250" />
<glyph glyph-name="crown" unicode="&#xf521;" d="M1031-25c17 0 31-14 31-31l1-63c0-17-15-31-32-31H219c-17 0-32 14-32 31v63c0 17 15 31 32 31h812z m125 625a94 94 0 1 0-15-186L1000 38H250L109 414c-5-1-10-1-15-1a94 94 0 1 0 85 55l141-85c30-18 69-8 87 22l159 279a93 93 0 0 0 59 166 94 94 0 0 0 59-166l159-278c18-31 57-41 87-23l141 85c-5 12-9 24-9 38 1 52 43 94 94 94z" horiz-adv-x="1250" />
<glyph glyph-name="cube" unicode="&#xf1b2;" d="M467 838c21 8 45 8 66 0l406-153c37-13 61-48 61-87V158c0-35-20-68-52-84L542-129a93 93 0 0 0-84 0L52 74a94 94 0 0 0-52 84v440c0 39 24 74 61 87z m33-122L125 576v-2l375-153 375 153v2z m63-695l312 156v262L563 312V21z" horiz-adv-x="1000" />
<glyph glyph-name="cubes" unicode="&#xf1b3;" d="M954 361c28-10 46-36 46-65V81c0-27-15-51-39-63L766-80a70 70 0 0 0-63 0L500 22 297-80a70 70 0 0 0-63 0L39 18A70 70 0 0 0 0 81v215c0 29 18 55 46 65l188 71v212c0 29 18 55 46 66l195 73c16 6 34 6 50 0l195-73c28-11 46-37 46-66V432z m-255 70v143l-166-73V368zM301 647v-1l199-81 199 81v1l-199 74zM465 78v147l-166-75V-5z m0 219v1l-199 75-200-75v-1l200-81zM934 78v147l-166-75V-5z m0 219v1l-200 75-199-75v-1l199-81z" horiz-adv-x="1000" />
<glyph glyph-name="cut" unicode="&#xf0c4;" d="M543 350L868 25c9-9 9-24 0-33-64-64-168-64-232 0L411 217l-49-48A188 188 0 0 0 188-87a187 187 0 1 0 26 373l64 64-64 64c-9-1-18-1-27-1a187 187 0 1 0 175 118l49-48 225 225c64 64 168 64 232 0 9-9 9-24 0-33zM188 538a63 63 0 1 1-1 125 63 63 0 0 1 1-125z m0-500a63 63 0 1 1-1 125 63 63 0 0 1 1-125z" horiz-adv-x="875" />
<glyph glyph-name="database" unicode="&#xf1c0;" d="M875 707v-89c0-79-196-143-437-143S0 539 0 618v89c0 79 196 143 438 143s437-64 437-143z m0-201V305c0-78-196-142-437-142S0 227 0 305v201c94-64 266-95 438-95s343 31 437 95z m0-312V-7c0-79-196-143-437-143S0-86 0-7v201c94-65 266-95 438-95s343 30 437 95z" horiz-adv-x="875" />
<glyph glyph-name="deaf" unicode="&#xf2a4;" d="M422 342a55 55 0 0 0-109 0 156 156 0 0 0 312 0 55 55 0 0 0-109 0 47 47 0 0 1-94 0z m47 344c189 0 343-154 343-344 1-187-139-214-140-281 0-117-95-211-211-211a55 55 0 0 0 0 109c56 0 101 46 101 102l1 1c1 143 140 133 140 280a235 235 0 0 1-469 0 55 55 0 0 0-109 0c0 190 154 344 344 344z m524 102c9-9 9-24 0-33L823 585c-9-9-24-9-33 0l-55 55c-9 9-9 24 0 33l170 170c9 9 24 9 33 0zM330 235l55-55c9-9 9-24 0-33L95-143c-9-9-24-9-33 0L7-88c-9 9-9 24 0 33l290 290c9 9 24 9 33 0z" horiz-adv-x="1000" />
<glyph glyph-name="desktop" unicode="&#xf108;" d="M1031 850c52 0 94-42 94-94V131c0-51-42-93-94-93H656l31-94h141c26 0 47-21 47-47s-21-47-47-47H297a47 47 0 1 0 0 94h140l32 94H94C42 38 0 80 0 131v625c0 52 42 94 94 94h937z m-31-687v562H125V163h875z" horiz-adv-x="1125" />
<glyph glyph-name="diagnoses" unicode="&#xf470;" d="M969 350c-17 0-32 14-32 31s15 31 32 31 31-14 31-31-14-31-31-31zM625 506a172 172 0 1 0 1 345 172 172 0 0 0-1-345zM117 139l-35 52a62 62 0 0 0 20 88c14 9 34 20 56 31 62-53 154-8 155 71 92 34 201 63 312 63 88 0 174-18 252-43-23-103 117-158 172-68 41-21 76-40 99-54 35-20 37-62 20-88l-35-52a63 63 0 0 0-84-19c-31 18-109 62-205 95V37H406v178c-96-33-174-76-205-95a62 62 0 0 0-84 19z m602 39a47 47 0 1 1 0-94c26 0 47 21 47 47s-21 47-47 47zM531 366a47 47 0 1 1 0-94c26 0 47 21 47 47s-21 47-47 47z m-312-16c-17 0-32 14-32 31s15 31 32 31 31-14 31-31-14-31-31-31zM1219-25c17 0 31-14 31-31v-63c0-17-14-31-31-31H31c-17 0-31 14-31 31v63c0 17 14 31 31 31h1188z" horiz-adv-x="1250" />
<glyph glyph-name="dice-five" unicode="&#xf523;" d="M750 788c69 0 125-56 125-125V38c0-69-56-125-125-125H125C56-87 0-31 0 38v625c0 69 56 125 125 125h625zM250 100a63 63 0 1 1 0 125 63 63 0 0 1 0-125z m0 375a63 63 0 1 1 0 125 63 63 0 0 1 0-125z m188-187a63 63 0 1 1-1 125 63 63 0 0 1 1-125z m187-188a63 63 0 1 1 0 125 63 63 0 0 1 0-125z m0 375a63 63 0 1 1 0 125 63 63 0 0 1 0-125z" horiz-adv-x="875" />
<glyph glyph-name="dice-four" unicode="&#xf524;" d="M750 788c69 0 125-56 125-125V38c0-69-56-125-125-125H125C56-87 0-31 0 38v625c0 69 56 125 125 125h625zM250 100a63 63 0 1 1 0 125 63 63 0 0 1 0-125z m0 375a63 63 0 1 1 0 125 63 63 0 0 1 0-125z m375-375a63 63 0 1 1 0 125 63 63 0 0 1 0-125z m0 375a63 63 0 1 1 0 125 63 63 0 0 1 0-125z" horiz-adv-x="875" />
<glyph glyph-name="dice-one" unicode="&#xf525;" d="M750 788c69 0 125-56 125-125V38c0-69-56-125-125-125H125C56-87 0-31 0 38v625c0 69 56 125 125 125h625zM438 288a63 63 0 1 1-1 125 63 63 0 0 1 1-125z" horiz-adv-x="875" />
<glyph glyph-name="dice-six" unicode="&#xf526;" d="M750 788c69 0 125-56 125-125V38c0-69-56-125-125-125H125C56-87 0-31 0 38v625c0 69 56 125 125 125h625zM250 100a63 63 0 1 1 0 125 63 63 0 0 1 0-125z m0 188a63 63 0 1 1 0 125 63 63 0 0 1 0-125z m0 187a63 63 0 1 1 0 125 63 63 0 0 1 0-125z m375-375a63 63 0 1 1 0 125 63 63 0 0 1 0-125z m0 188a63 63 0 1 1 0 125 63 63 0 0 1 0-125z m0 187a63 63 0 1 1 0 125 63 63 0 0 1 0-125z" horiz-adv-x="875" />
<glyph glyph-name="dice-three" unicode="&#xf527;" d="M750 788c69 0 125-56 125-125V38c0-69-56-125-125-125H125C56-87 0-31 0 38v625c0 69 56 125 125 125h625zM250 475a63 63 0 1 1 0 125 63 63 0 0 1 0-125z m188-187a63 63 0 1 1-1 125 63 63 0 0 1 1-125z m187-188a63 63 0 1 1 0 125 63 63 0 0 1 0-125z" horiz-adv-x="875" />
<glyph glyph-name="dice-two" unicode="&#xf528;" d="M750 788c69 0 125-56 125-125V38c0-69-56-125-125-125H125C56-87 0-31 0 38v625c0 69 56 125 125 125h625zM250 475a63 63 0 1 1 0 125 63 63 0 0 1 0-125z m375-375a63 63 0 1 1 0 125 63 63 0 0 1 0-125z" horiz-adv-x="875" />
<glyph glyph-name="dice" unicode="&#xf522;" d="M1156 475c52 0 94-42 94-94V-56c0-52-42-94-94-94H719c-52 0-94 42-94 94v90l266 267c47 47 58 116 33 174h232zM937 116a47 47 0 1 1 0 93 47 47 0 0 1 1-93z m-90 364c37-37 37-98 0-135L505 3a96 96 0 0 0-135 0L28 345a96 96 0 0 0 0 135l342 342c37 37 98 37 135 0zM188 366a47 47 0 1 1-1 93 47 47 0 0 1 1-93z m250-250a47 47 0 1 1-1 93 47 47 0 0 1 1-93z m0 250a47 47 0 1 1-1 93 47 47 0 0 1 1-93z m0 250a47 47 0 1 1-1 93 47 47 0 0 1 1-93z m250-250a47 47 0 1 1-1 93 47 47 0 0 1 1-93z" horiz-adv-x="1250" />
<glyph glyph-name="digital-tachograph" unicode="&#xf566;" d="M1188 663c34 0 62-28 62-63V100c0-34-28-62-62-62H63C28 38 0 66 0 100v500c0 35 28 63 63 63h1125zM594 163v15c0 9-7 16-16 16H141c-9 0-16-7-16-16v-16c0-8 7-15 16-15h437c9 0 16 7 16 16zM141 288c0-9 7-16 15-16h31c9 0 16 7 16 15v32c0 8-7 15-16 15h-31c-8 0-15-7-15-15v-32z m125 0c0-9 7-16 15-16h31c9 0 16 7 16 15v32c0 8-7 15-16 15h-31c-8 0-15-7-15-15v-32z m125 0c0-9 7-16 15-16h31c9 0 16 7 16 15v32c0 8-7 15-16 15h-31c-8 0-15-7-15-15v-32z m125 0c0-9 7-16 15-16h31c9 0 16 7 16 15v32c0 8-7 15-15 15h-32c-8 0-15-7-15-15v-32z m78 125v93c0 17-14 31-32 31l-406 1c-17 0-31-14-31-32v-94c0-17 14-31 31-31h407c17 0 31 14 31 31z m531-250v15c0 9-7 16-16 16H672c-9 0-16-7-16-16v-16c0-8 7-15 16-15h437c9 0 16 7 16 16z" horiz-adv-x="1250" />
<glyph glyph-name="directions" unicode="&#xf5eb;" d="M982 394c24-24 24-64 0-88L544-132a63 63 0 0 0-88 0L18 306a63 63 0 0 0 0 88l438 438c24 24 64 24 88 0z m-198-24c7 6 7 17 0 23L620 545c-10 9-26 2-26-12V428H375c-34 0-62-28-62-62V209c0-8 7-15 15-15h63c8 0 15 7 15 15v125h188V229c0-13 16-20 26-11z" horiz-adv-x="1000" />
<glyph glyph-name="divide" unicode="&#xf529;" d="M438 163a125 125 0 1 0-1-251 125 125 0 0 0 1 251z m0 375a125 125 0 1 0 0 250 125 125 0 0 0 0-250z m375-94c34 0 62-28 62-63v-62c0-35-28-63-62-63H63c-35 0-63 28-63 63v62c0 35 28 63 63 63h750z" horiz-adv-x="875" />
<glyph glyph-name="dizzy" unicode="&#xf567;" d="M484 834a484 484 0 1 0 1-968 484 484 0 0 0-1 968zM297 431l56-56c29-29 74 14 44 44l-56 56 56 56c29 29-15 74-44 44l-56-56-56 56c-29 30-74-15-44-44l56-56-56-56c-30-30 15-73 44-44zM484 38a125 125 0 1 1 0 250 125 125 0 0 1 0-250z m288 381l-56 56 56 56c29 29-15 74-44 44l-56-56-56 56c-29 30-74-15-44-44l56-56-56-56c-30-30 15-73 44-44l56 56 56-56c29-29 74 14 44 44z" horiz-adv-x="968.8" />
<glyph glyph-name="dna" unicode="&#xf471;" d="M0-115c10 84 62 301 313 465A659 659 0 0 0 0 815c-2 19 13 35 31 35h63c16 0 30-11 32-27 1-10 3-22 6-36l611 1c3 13 5 25 6 35 2 15 16 27 32 27h63c19 0 33-16 31-35-11-93-73-354-409-521-62-31-112-65-154-100h249c-11 9-21 19-33 28 42 21 80 44 114 69a640 640 0 0 0 232-406c3-19-12-35-31-35h-63c-15 0-29 12-31 27-1 10-4 22-7 36H132c-3-14-5-26-6-36-3-15-16-27-32-27H31c-18 0-33 16-31 35z m438 536c49 27 90 56 125 85H312c35-29 76-58 125-85z m256 242H182c11-21 24-42 41-63h430c16 21 29 42 41 63zM181 38h511c-11 20-25 41-41 62H223c-17-21-30-42-42-62z" horiz-adv-x="875" />
<glyph glyph-name="dollar-sign" unicode="&#xf155;" d="M409 394a214 214 0 0 0 141-277A221 221 0 0 0 344-25v-94c0-17-14-31-31-31h-63c-17 0-31 14-31 31v94C157-25 98-4 50 34a32 32 0 0 0-4 47l68 67c10 10 26 12 38 4 20-13 43-21 67-21h130a58 58 0 0 1 16 113l-200 59C78 328 9 401 1 491a214 214 0 0 0 213 234h5v94c0 17 14 31 31 31h63c17 0 31-14 31-31v-94c61 0 121-21 169-59 15-12 17-34 3-47l-68-67a30 30 0 0 0-38-4c-19 14-43 21-67 21H214a58 58 0 0 1-16-113z" horiz-adv-x="562.5" />
<glyph glyph-name="dolly-flatbed" unicode="&#xf474;" d="M406 225c-17 0-31 14-31 31v500c0 17 14 32 31 32h282V538l93 62 94-62v250h281c17 0 31-15 31-32l1-500c0-17-15-31-32-31H406z m813-125c17 0 31-14 31-31V6c0-17-14-31-31-31h-162c3-10 6-20 6-31a94 94 0 1 0-182 31H494c4-10 6-20 6-31a94 94 0 1 0-182 31H156c-17 0-31 14-31 31v719H31c-17 0-31 14-31 31v63c0 17 14 31 31 31h188c17 0 31-14 31-31V100h969z" horiz-adv-x="1250" />
<glyph glyph-name="dolly" unicode="&#xf472;" d="M575 308L471 619c-5 16 3 34 20 39l120 40 65-194 118 40-64 194 119 40c16 5 34-4 40-20l117-354c6-16-3-34-19-40L671 260c-29 22-61 39-96 49z m548-95c6-17-3-34-19-40L687 34a187 187 0 1 0-302 151L205 725H31c-17 0-31 14-31 31v63c0 17 14 31 31 31h219c27 0 51-17 59-43l194-582c59-1 111-29 144-72l417 139c16 5 34-4 39-20zM500-56a94 94 0 1 1 0 187 94 94 0 0 1 0-187z" horiz-adv-x="1125" />
<glyph glyph-name="donate" unicode="&#xf4b9;" d="M500 38a406 406 0 1 0 0 812 406 406 0 0 0 0-812z m-43 622c-64-2-116-56-116-122 0-54 35-103 86-118l121-36c14-4 24-18 24-34 0-20-14-36-32-36h-76c-12 0-24 3-35 10-8 5-20 5-27-2l-32-30c-10-10-8-26 3-34 24-18 53-28 83-30v-33c0-18 15-32 33-32h22c18 0 32 14 32 32v33c64 2 115 55 115 122 0 54-35 102-85 117l-122 37c-13 4-23 18-23 34 0 20 14 36 32 36h76c12 0 24-4 34-10 9-6 20-6 28 2l32 30c9 9 8 25-3 33-24 18-54 29-84 30v34c0 18-14 32-32 32h-22c-18 0-32-14-32-32v-33z m481-498c34 0 62-27 62-62V-88c0-34-28-62-62-62H63c-35 0-63 28-63 62v188c0 35 28 62 63 62h63c38-50 87-93 142-125H144c-11 0-19-7-19-15V-9c0-9 8-16 19-16h712c10 0 19 7 19 16v31c0 8-9 15-19 15H731c56 32 105 75 143 125h63z" horiz-adv-x="1000" />
<glyph glyph-name="door-closed" unicode="&#xf52a;" d="M1219-25c17 0 31-14 31-31v-63c0-17-14-31-31-31H31c-17 0-31 14-31 31v63c0 17 14 31 31 31h219v776c0 54 42 99 94 99h562c52 0 94-44 94-99V-25h219zM812 288a63 63 0 1 1 0 125 63 63 0 0 1 1-125z" horiz-adv-x="1250" />
<glyph glyph-name="door-open" unicode="&#xf52b;" d="M1219-25c17 0 31-14 31-31v-63c0-17-14-31-31-31H937l1 750H750v125h219c51 0 93-43 93-97l1-653h156zM610 848c39 10 77-21 77-63l1-935H31c-17 0-31 14-31 31v63c0 17 14 31 31 31h157v713c0 30 19 56 47 63z m-94-560c25 0 46 28 46 62s-21 63-46 63-47-28-47-63 21-62 47-62z" horiz-adv-x="1250" />
<glyph glyph-name="dot-circle" unicode="&#xf192;" d="M500 834a484 484 0 1 0 0-968 484 484 0 0 0 0 968z m156-484a156 156 0 1 1-312 0 156 156 0 0 1 312 0z" horiz-adv-x="1000" />
<glyph glyph-name="dove" unicode="&#xf4ba;" d="M563 523c-100 21-189 72-256 147 22 63 54 120 96 169 17 21 50 10 54-16 14-90 50-174 106-245v-55z m218 202h219l-62-125V287c0-172-140-312-313-312H475L348-135a63 63 0 0 0-44-15C123-143 39-53 5-1-7 17 3 41 24 47l281 70c-25 19-50 39-76 64A511 511 0 0 0 63 544c0 81 18 158 50 226 12 24 46 23 57-2a530 530 0 0 1 455-315v116c0 86 70 156 156 156z m0-188c17 0 31 14 31 32 1 17-14 31-31 31s-31-14-31-31c0-18 14-32 31-32z" horiz-adv-x="1000" />
<glyph glyph-name="download" unicode="&#xf019;" d="M422 850h156c26 0 47-21 47-47V475h171c35 0 52-42 28-67L527 111a38 38 0 0 0-54 0L176 408c-25 25-7 67 28 67h171v328c0 26 21 47 47 47z m578-734v-219c0-26-21-47-47-47H47c-26 0-47 21-47 47v219c0 26 21 47 47 47h286l96-96c39-39 103-39 142 0l96 96h286c26 0 47-21 47-47zM758-56c0 21-18 39-39 39s-39-18-39-39 17-39 39-39 39 17 39 39z m125 0c0 21-18 39-39 39s-39-18-39-39 17-39 39-39 39 17 39 39z" horiz-adv-x="1000" />
<glyph glyph-name="drafting-compass" unicode="&#xf568;" d="M893 177L1000-9l-14-114c-2-20-24-33-43-25l-105 45L731 81c59 24 113 57 162 96z m83 185a563 563 0 0 0-675-225L162-103 57-148c-19-8-41 5-43 25L0-9l139 241c-41 35-79 75-109 122-10 14-4 35 11 43l54 32c15 8 32 3 42-11 19-28 41-53 66-76l133 231a186 186 0 0 0 164 277 187 187 0 0 0 164-277l101-175c-45-45-100-78-161-95L504 475c-1 0-3 0-4 0s-3 0-4 0L364 247a436 436 0 0 1 503 178c10 14 27 19 42 11l55-30c15-9 21-29 12-44zM500 725a63 63 0 1 1 0-125 63 63 0 0 1 0 125z" horiz-adv-x="1000" />
<glyph glyph-name="draw-polygon" unicode="&#xf5ee;" d="M750 163A125 125 0 1 0 642-25H233A125 125 0 1 0 62 145v410a125 125 0 1 0 171 170h409a125 125 0 0 0 233-62c0-69-56-125-125-125-1 0-1 0-2 0l-77-128c10-18 16-38 16-60s-6-42-16-60l77-128c1 0 1 0 2 0z m-562-18c18-11 34-26 45-45h407l-76 125s-1 0-2 0a125 125 0 0 0 0 250c1 0 2 0 2 0l76 125H233c-11-19-27-34-46-45V145z m343 205a31 31 0 0 1 63 0 31 31 0 0 1-63 0z m250 313a31 31 0 0 1-62 0 31 31 0 0 1 62 0z m-656 31a31 31 0 1 1 0-63 31 31 0 0 1 0 63zM94 38a31 31 0 0 1 62 0 31 31 0 0 1-62 0zM750 6c17 0 31 14 31 32s-14 31-31 31-31-14-31-31 14-32 31-32z" horiz-adv-x="875" />
<glyph glyph-name="drum-steelpan" unicode="&#xf56a;" d="M563 788c310 0 562-112 562-250V163c0-139-252-250-562-250S0 24 0 163v375c0 138 252 250 563 250zM400 478c10 37 5 76-14 110l-50 86C192 648 94 596 94 538c0-61 102-113 251-139 27 20 47 47 55 79z m162-97c42 0 81 2 119 5a124 124 0 1 1-238 0c39-3 78-5 120-5z m126 282v25a1388 1388 0 0 1-250 0v-25a125 125 0 0 1 250 0z m91-264c150 26 252 78 252 139 0 59-98 110-243 136l-50-86a143 143 0 0 1 41-189z" horiz-adv-x="1125" />
<glyph glyph-name="drum" unicode="&#xf569;" d="M843 612c87-32 157-84 157-168V131c0-60-54-113-141-153v200a47 47 0 0 1-93 0V-55c-65-18-139-29-219-33v203a47 47 0 0 1-94 0V-87c-80 3-154 14-219 32v233a47 47 0 0 1-93 0V-22C54 18 0 71 0 131v313c0 210 429 219 500 219 30 0 122-2 219-19l215 138a31 31 0 0 0 43-8l18-26c3-5 5-11 5-18 0-11-5-20-14-26zM500 318c224 0 406 56 406 126 0 41-66 78-167 101L507 395a31 31 0 0 0-44 9l-17 26a31 31 0 0 0 9 43l142 92c-31 2-64 4-97 4-224 0-406-56-406-125 0-70 182-126 406-126z" horiz-adv-x="1000" />
<glyph glyph-name="dumbbell" unicode="&#xf44b;" d="M203 663c26 0 47-21 47-47V84c0-26-21-47-47-47h-94c-26 0-47 21-47 47v203l-46 1c-9 0-16 7-16 15v94c0 9 7 16 16 16h46v203c0 26 21 47 47 47h94z m1031-250c9 0 16-7 16-16v-94c0-9-7-16-16-16h-47V84c0-26-20-47-46-47h-94c-26 0-47 21-47 47v532c0 26 21 47 47 47h94c26 0 46-21 46-47V413h47zM891 788c26 0 46-21 46-47V-41c0-26-20-47-46-47h-94c-26 0-47 21-47 47v329H500V-41c0-26-21-47-47-47h-94c-26 0-47 21-47 47v782c0 26 21 47 47 47h94c26 0 47-21 47-47V413h250v328c0 26 21 47 47 47h94z" horiz-adv-x="1250" />
<glyph glyph-name="edit" unicode="&#xf044;" d="M786 688l176-177c8-7 8-19 1-27L536 58 355 38c-25-3-45 18-42 42l20 181 426 427c8 7 20 7 27 0z m317 44c29-29 29-78 0-108l-69-69c-8-7-20-7-27 0L830 731c-7 8-7 20 0 27l70 70c29 29 78 29 107 0zM750 174c0 6 2 12 7 16l78 79c15 14 40 4 40-17V-56c0-52-42-94-94-94H94c-52 0-94 42-94 94v687c0 52 42 94 94 94h558c21 0 31-25 17-40l-79-78c-4-5-10-7-16-7H125V-25h625v199z" horiz-adv-x="1125" />
<glyph glyph-name="eject" unicode="&#xf052;" d="M875 100V-25c0-34-28-62-62-62H63C28-87 0-59 0-25v125c0 35 28 63 63 63h750c34 0 62-28 62-63zM94 225a94 94 0 0 0-69 157l343 375a94 94 0 0 0 139 0l343-375a94 94 0 0 0-69-157H94z" horiz-adv-x="875" />
<glyph glyph-name="ellipsis-h" unicode="&#xf141;" d="M641 350a141 141 0 1 0-281 0 141 141 0 0 0 281 0z m203 141a141 141 0 1 0 0-281 141 141 0 0 0 0 281z m-688 0a141 141 0 1 0 0-281 141 141 0 0 0 0 281z" horiz-adv-x="1000" />
<glyph glyph-name="ellipsis-v" unicode="&#xf142;" d="M188 491a141 141 0 1 0 0-281 141 141 0 0 0 0 281zM47 694a141 141 0 1 0 281 0 141 141 0 0 0-281 0zM47 6a141 141 0 1 0 281 0A141 141 0 0 0 47 6z" horiz-adv-x="375" />
<glyph glyph-name="envelope-open" unicode="&#xf2b6;" d="M1000-56c0-52-42-94-94-94H94c-52 0-94 42-94 94v514c0 30 14 57 36 74 49 38 89 69 321 237 32 24 98 82 143 81 45 1 111-57 143-81 232-168 273-199 321-237 22-17 36-44 36-74V-56zM872 328c-5 7-15 9-22 4-45-33-109-80-207-151-32-24-98-82-143-81-45-1-110 57-143 81-98 71-162 118-207 151-7 5-17 3-22-4l-17-26c-2-2-3-6-3-9 0-5 2-10 6-12 45-33 108-80 206-151 39-28 110-93 180-92 70-1 141 64 180 92 98 71 161 118 206 151a16 16 0 0 1 4 21z" horiz-adv-x="1000" />
<glyph glyph-name="envelope-square" unicode="&#xf199;" d="M781 788c52 0 94-42 94-94V6c0-51-42-93-94-93H94C42-87 0-45 0 6v688c0 52 42 94 94 94h687zM348 338c20-15 61-51 89-50 29-1 70 35 90 50 177 129 175 129 223 166v49c0 26-21 47-47 47H172c-26 0-47-21-47-47v-49c48-37 46-37 223-166z m402 87c-27-21-65-50-186-137-27-20-74-63-127-63-52 0-98 42-126 63-121 87-159 116-186 137V147c0-26 21-47 47-47h531c26 0 47 21 47 47v278z" horiz-adv-x="875" />
<glyph glyph-name="envelope" unicode="&#xf0e0;" d="M981 477c8 6 19 1 19-9V69c0-52-42-94-94-94H94C42-25 0 17 0 69v399c0 10 11 15 19 9 44-34 102-77 301-222 41-30 111-93 180-93 70 0 141 64 180 93 199 145 257 188 301 222zM500 225c-45-1-110 57-143 81C98 494 78 510 18 557c-11 9-18 23-18 37v37c0 52 42 94 94 94h812c52 0 94-42 94-94v-37c0-14-7-28-18-37-60-47-79-63-339-251-33-24-98-82-143-81z" horiz-adv-x="1000" />
<glyph glyph-name="equals" unicode="&#xf52c;" d="M813 256c34 0 62-28 62-62v-63c0-34-28-62-62-62H63C28 69 0 97 0 131v63c0 34 28 62 63 62h750z m0 375c34 0 62-28 62-62v-63c0-34-28-62-62-62H63c-35 0-63 28-63 62v63c0 34 28 62 63 62h750z" horiz-adv-x="875" />
<glyph glyph-name="eraser" unicode="&#xf12d;" d="M973 315L695 38h282c13 0 23-11 23-24v-78c0-13-10-23-23-23H281c-26 0-49 10-66 27L28 128a93 93 0 0 0 0 132l500 500c36 37 95 37 132 0l313-312c36-37 36-96 0-133zM382 437L138 194 294 38h224l132 131z" horiz-adv-x="1000" />
<glyph glyph-name="euro-sign" unicode="&#xf153;" d="M607 42l17-87c2-12-5-24-17-27-25-7-68-16-119-16A409 409 0 0 0 82 217l-59-1c-13 0-23 11-23 24v55c0 13 10 24 23 24h42c-2 25-1 56 1 82H23c-13 0-23 11-23 24v58c0 13 10 23 23 23h65a418 418 0 0 0 400 281c41 1 79-5 102-10 14-2 22-16 19-29l-24-87c-3-11-15-19-27-16-18 3-46 8-74 8-107 0-189-59-230-147h270c15 0 26-14 23-28l-13-58c-2-11-11-19-22-19H225c-3-27-2-54 0-82h262c15 0 26-14 23-29l-12-55c-3-11-12-19-23-19H253c38-99 126-166 237-166 35 0 68 5 89 10 12 3 25-5 28-18z" horiz-adv-x="625" />
<glyph glyph-name="exchange-alt" unicode="&#xf362;" d="M0 522v31c0 26 21 47 47 47h703v94c0 42 51 62 80 33l156-156c19-19 19-48 0-67L830 348c-29-29-80-9-80 33v94H47c-26 0-47 21-47 47z m953-297c26 0 47-21 47-47v-31c0-26-21-47-47-47H250V6c0-42-51-62-80-33L14 129a47 47 0 0 0 0 67l156 156c30 29 80 8 80-33v-94h703z" horiz-adv-x="1000" />
<glyph glyph-name="exclamation-circle" unicode="&#xf06a;" d="M984 350a484 484 0 1 0-968 0 484 484 0 0 0 968 0z m-484-98a90 90 0 1 1 0-179 90 90 0 0 1 0 179z m-85 323l14-265c1-13 11-23 24-23h94c13 0 23 10 24 23l14 265c1 14-10 25-23 25H438c-13 0-24-11-23-25z" horiz-adv-x="1000" />
<glyph glyph-name="exclamation-triangle" unicode="&#xf071;" d="M1112-9c36-63-9-141-81-141H94A94 94 0 0 0 13-9l468 812a94 94 0 0 0 163 0zM563 159a90 90 0 1 1 0-180 90 90 0 0 1 0 180z m-86 323l15-266c0-13 11-22 23-22h95c12 0 23 9 23 22l15 266c0 13-10 24-24 24H501c-14 0-25-11-24-24z" horiz-adv-x="1125" />
<glyph glyph-name="exclamation" unicode="&#xf12a;" d="M344 6A156 156 0 1 0 31 7a156 156 0 0 0 313-1zM49 801c-1 27 20 49 47 49h183c27 0 48-22 47-49l-27-531c-1-25-22-45-47-45H123c-25 0-46 20-47 45z" horiz-adv-x="375" />
<glyph glyph-name="expand-arrows-alt" unicode="&#xf31e;" d="M875 178V-41c0-26-21-46-47-46H609c-41 0-62 50-33 80l71 70-209 210L228 63l71-70c29-30 8-80-33-80H47C21-87 0-66 0-41v219c0 42 51 63 80 33l71-70 209 209-209 210-71-71c-29-30-80-9-80 33v219c0 26 21 47 47 47h219c41 0 62-51 33-81l-71-70 210-210 209 210-71 70c-29 30-8 81 33 81h219c26 0 47-21 47-47V522c0-42-51-63-80-33l-71 70-209-209 209-210 71 71c29 30 80 9 80-33z" horiz-adv-x="875" />
<glyph glyph-name="expand" unicode="&#xf065;" d="M0 498v243c0 26 21 46 47 46h242c13 0 23-10 23-23v-78c0-13-10-24-23-24H125V498c0-13-11-23-23-23H23c-13 0-23 10-23 23z m563 266c0 13 10 23 23 23h242c26 0 47-20 47-46V498c0-13-11-23-23-23h-79c-13 0-23 10-23 23v164H586c-13 0-24 11-24 24v78z m289-539c13 0 23-11 23-23V-41c0-26-21-47-47-47H586c-13 0-23 11-23 24v78c0 13 10 23 23 23h164v165c0 12 11 23 23 23h79zM313-64c0-13-11-24-24-24H47C21-88 0-67 0-41v243c0 12 11 23 23 23h79c13 0 23-11 23-23V37h164c13 0 24-10 24-23v-78z" horiz-adv-x="875" />
</font>
</defs>
</svg>
