
  <svg height="1000" width="1000.0" xmlns="http://www.w3.org/2000/svg">
    <path d="m307.7 531.3l36.1-104 36 104h-72.1z m379.8-31.3c25.8 0 46.9 21 46.9 46.9s-21.1 46.9-46.9 46.9-46.9-21.1-46.9-46.9 21.1-46.9 46.9-46.9z m218.8-375c51.7 0 93.7 42 93.7 93.8v562.5c0 51.7-42 93.7-93.7 93.7h-812.5c-51.8 0-93.8-42-93.8-93.7v-562.5c0-51.8 42-93.8 93.8-93.8h812.5z m-416.9 562.5c21.5 0 36.6-21.2 29.5-41.5l-104.8-302c-6.4-18.3-23.8-31.5-44.3-31.5h0-52.1l0 0c-20.5 0-37.9 13.2-44.3 31.5l-104.8 302c-7.1 20.3 8 41.5 29.5 41.5h33.1c0 0 0 0 0 0 13.6 0 25.3-8.8 29.5-21l14.4-41.5h137.3l14.4 41.5c4.4 12.6 16.2 21 29.5 21h33.1z m338.7-31.2v-312.5c0-17.3-14-31.3-31.2-31.3h-31.3c-17.2 0-31.2 14-31.2 31.3v71.1c-14.8-5.3-30.4-8.7-46.9-8.7-77.5 0-140.6 63.1-140.6 140.7s63.1 140.6 140.6 140.6c19.4 0 37.9-3.9 54.7-11.1 5.8 6.7 14 11.1 23.4 11.1h31.3c17.2 0 31.2-14 31.2-31.3z" />
  </svg>
