<svg height="1000" width="1125" xmlns="http://www.w3.org/2000/svg"><path d="M1031.3 62.5H93.8C42 62.5 0 104.5 0 156.3v687.5c0 51.7 42 93.7 93.8 93.7h937.5c51.7 0 93.7 -42 93.7 -93.7V156.3c0 -51.8 -42 -93.8 -93.7 -93.8zM343.8 250c68.9 0 125 56.1 125 125s-56.1 125 -125 125 -125 -56.1 -125 -125 56 -125 125 -125zm218.7 462.5c0 20.7 -19.5 37.5 -43.7 37.5h-350C144.5 750 125 733.2 125 712.5V675c0 -62.1 58.8 -112.5 131.3 -112.5h9.7c24 10 50.2 15.6 77.8 15.6s53.9 -5.6 77.7 -15.6h9.8c72.4 0 131.2 50.4 131.2 112.5v37.5zM1000 609.4c0 8.6 -7 15.6 -15.6 15.6H703.1c-8.6 0 -15.6 -7 -15.6 -15.6v-31.3c0 -8.6 7 -15.6 15.6 -15.6h281.3c8.6 0 15.6 7 15.6 15.6v31.3zm0 -125c0 8.6 -7 15.6 -15.6 15.6H703.1c-8.6 0 -15.6 -7 -15.6 -15.6v-31.3c0 -8.6 7 -15.6 15.6 -15.6h281.3c8.6 0 15.6 7 15.6 15.6v31.3zm0 -125c0 8.6 -7 15.6 -15.6 15.6H703.1c-8.6 0 -15.6 -7 -15.6 -15.6v-31.3c0 -8.6 7 -15.6 15.6 -15.6h281.3c8.6 0 15.6 7 15.6 15.6v31.3z"/></svg>