<svg height="1000" width="875" xmlns="http://www.w3.org/2000/svg"><path d="M851.6 312.5c12.9 0 23.4 -10.5 23.4 -23.4v-78.2c0 -12.9 -10.5 -23.4 -23.4 -23.4h-39.1V93.8C812.5 42 770.5 0 718.8 0h-625C42 0 0 42 0 93.8v812.5C0 958 42 1000 93.8 1000h625c51.7 0 93.7 -42 93.7 -93.7v-93.8h39.1c12.9 0 23.4 -10.5 23.4 -23.4v-78.2c0 -12.9 -10.5 -23.4 -23.4 -23.4h-39.1v-125h39.1c12.9 0 23.4 -10.5 23.4 -23.4v-78.2c0 -12.9 -10.5 -23.4 -23.4 -23.4h-39.1v-125h39.1zM406.3 250c68.9 0 125 56.1 125 125s-56.1 125 -125 125 -125 -56.1 -125 -125 56 -125 125 -125zM625 712.5c0 20.7 -19.5 37.5 -43.7 37.5h-350c-24.3 0 -43.8 -16.8 -43.8 -37.5V675c0 -62.1 58.8 -112.5 131.3 -112.5h9.7c24 10 50.2 15.6 77.8 15.6s53.9 -5.6 77.7 -15.6h9.8c72.4 0 131.2 50.4 131.2 112.5v37.5z"/></svg>