
  <svg height="1000" width="1125.0" xmlns="http://www.w3.org/2000/svg">
    <path d="m1031.3 62.5c51.7 0 93.7 42 93.7 93.8v687.5c0 51.7-42 93.7-93.7 93.7h-937.5c-51.8 0-93.8-42-93.8-93.7v-687.5c0-51.8 42-93.8 93.8-93.8h937.5z m-687.5 187.5c-69 0-125 56.1-125 125s56 125 125 125 125-56.1 125-125-56.1-125-125-125z m218.7 462.5v-37.5c0-62.1-58.8-112.5-131.3-112.5h-9.7c-23.8 10-50.2 15.6-77.7 15.6s-53.8-5.6-77.8-15.6h-9.7c-72.5 0-131.3 50.4-131.3 112.5v37.5c0 20.7 19.5 37.5 43.8 37.5h349.9c24.3 0 43.8-16.8 43.8-37.5z m437.5-103.1v-31.3c0-8.6-7-15.6-15.6-15.6h-281.3c-8.6 0-15.6 7-15.6 15.6v31.3c0 8.6 7 15.6 15.6 15.6h281.3c8.6 0 15.6-7 15.6-15.6z m0-125v-31.3c0-8.6-7-15.6-15.6-15.6h-281.3c-8.6 0-15.6 7-15.6 15.6v31.3c0 8.6 7 15.6 15.6 15.6h281.3c8.6 0 15.6-7 15.6-15.6z m0-125v-31.3c0-8.6-7-15.6-15.6-15.6h-281.3c-8.6 0-15.6 7-15.6 15.6v31.3c0 8.6 7 15.6 15.6 15.6h281.3c8.6 0 15.6-7 15.6-15.6z" />
  </svg>
