<svg height="1000" width="750" xmlns="http://www.w3.org/2000/svg"><path d="M740.1 627.8l-184 -190.3h96.1c29.9 0 46.2 -32.4 27.1 -53.8L457.9 136.6c6.7 -12.9 10.9 -27.3 10.9 -42.8C468.8 42 426.8 0 375 0s-93.7 42 -93.7 93.8c0 15.5 4.1 29.9 10.8 42.8L70.7 383.7c-19.1 21.4 -2.8 53.8 27.1 53.8h96.1L9.9 627.8c-23 23.7 -3.4 59.7 32.5 59.7h270.1V750H93.8c-17.3 0 -31.3 14 -31.3 31.3v187.5c0 17.2 14 31.2 31.3 31.2h562.5c17.2 0 31.2 -14 31.2 -31.2V781.3c0 -17.3 -14 -31.3 -31.2 -31.3H437.5v-62.5h270.1c35.9 0 55.5 -36 32.5 -59.7zM375 62.5c17.3 0 31.3 14 31.3 31.3 0 17.2 -14 31.2 -31.3 31.2S343.7 111 343.7 93.8c0 -17.3 14 -31.3 31.3 -31.3zm218.8 781.3v62.5H156.3v-62.5h437.5z"/></svg>