
  <svg height="1000" width="750.0" xmlns="http://www.w3.org/2000/svg">
    <path d="m740.1 627.8c23 23.7 3.4 59.7-32.5 59.7h-270.1v62.5h218.7c17.3 0 31.3 14 31.3 31.2v187.5c0 17.3-14 31.3-31.3 31.3h-562.5c-17.2 0-31.2-14-31.2-31.3v-187.5c0-17.2 14-31.2 31.2-31.2h218.8v-62.5h-270.1c-35.9 0-55.5-36-32.5-59.7l184-190.3h-96.1c-29.9 0-46.2-32.4-27.1-53.8l221.4-247.1c-6.7-12.9-10.9-27.3-10.9-42.9 0-51.7 42-93.7 93.8-93.7s93.7 42 93.7 93.7c0 15.6-4.1 30-10.8 42.9l221.4 247.1c19.1 21.4 2.8 53.8-27.1 53.8h-96.1z m-365.1-565.3c-17.3 0-31.3 14-31.3 31.2 0 17.3 14 31.3 31.3 31.3s31.3-14 31.3-31.3c0-17.2-14-31.2-31.3-31.2z m218.8 781.3h-437.5v62.5h437.5v-62.5z" />
  </svg>
