<svg height="1000" width="875" xmlns="http://www.w3.org/2000/svg"><path d="M687.5 85.9v78.2c0 17.2 -14 31.2 -31.2 31.2H218.8c-17.3 0 -31.3 -14 -31.3 -31.2V85.9c0 -17.2 14 -31.2 31.3 -31.2h437.5c17.2 0 31.2 14 31.2 31.2zM31.3 445.3h812.5c17.2 0 31.2 -14 31.2 -31.2v-78.2c0 -17.2 -14 -31.2 -31.2 -31.2H31.3C14 304.7 0 318.7 0 335.9v78.2c0 17.2 14 31.2 31.3 31.2zm0 500h812.5c17.2 0 31.2 -14 31.2 -31.2v-78.2c0 -17.2 -14 -31.2 -31.2 -31.2H31.3C14 804.7 0 818.7 0 835.9v78.2c0 17.2 14 31.2 31.3 31.2zm625 -390.6H218.8c-17.3 0 -31.3 14 -31.3 31.2v78.2c0 17.2 14 31.2 31.3 31.2h437.5c17.2 0 31.2 -14 31.2 -31.2v-78.2c0 -17.2 -14 -31.2 -31.2 -31.2z"/></svg>