
  <svg height="1000" width="875.0" xmlns="http://www.w3.org/2000/svg">
    <path d="m25.1 687.5c-13.9 0-25.1-11.2-25.1-25v-0.1-74.8-0.1c0-13.8 11.2-25 25-25h0.1 512.3 0.1c13.8 0 25 11.2 25 25v0.1 74.8 0.1c0 13.8-11.2 25-25 25h-0.1-512.3z m0-500c-13.9 0-25.1-11.2-25.1-25v-0.1-74.8-0.1c0-13.8 11.2-25 25-25h0.1 512.3 0.1c13.8 0 25 11.2 25 25v0.1 74.8 0.1c0 13.8-11.2 25-25 25h-0.1-512.3z m818.7 125c17.2 0 31.2 14 31.2 31.3v62.5c0 17.2-14 31.2-31.2 31.2h-812.5c-17.3 0-31.3-14-31.3-31.2v-62.5c0-17.3 14-31.3 31.3-31.3h812.5z m0 500c17.2 0 31.2 14 31.2 31.3v62.5c0 17.2-14 31.2-31.2 31.2h-812.5c-17.3 0-31.3-14-31.3-31.2v-62.5c0-17.3 14-31.3 31.3-31.3h812.5z" />
  </svg>
