
  <svg height="1000" width="875.0" xmlns="http://www.w3.org/2000/svg">
    <path d="m843.8 312.5c17.2 0 31.2 14 31.2 31.3v62.5c0 17.2-14 31.2-31.2 31.2h-812.5c-17.3 0-31.3-14-31.3-31.2v-62.5c0-17.3 14-31.3 31.3-31.3h812.5z m0 500c17.2 0 31.2 14 31.2 31.3v62.5c0 17.2-14 31.2-31.2 31.2h-812.5c-17.3 0-31.3-14-31.3-31.2v-62.5c0-17.3 14-31.3 31.3-31.3h812.5z m-632.7-625c-13 0-23.6-10.6-23.6-23.6v-77.8c0-13 10.6-23.6 23.6-23.6h0 452.8c13 0 23.6 10.6 23.6 23.6v77.8 0c0 13-10.6 23.6-23.6 23.6h-452.8z m452.8 500h-452.8c-13 0-23.6-10.6-23.6-23.6v-77.8c0-13 10.6-23.6 23.6-23.6h0 452.8c13 0 23.6 10.6 23.6 23.6v77.8 0c0 13-10.6 23.6-23.6 23.6z" />
  </svg>
