<svg height="1000" width="875" xmlns="http://www.w3.org/2000/svg"><path d="M0 164.1V85.9C0 68.7 14 54.7 31.3 54.7h812.5c17.2 0 31.2 14 31.2 31.2v78.2c0 17.2 -14 31.2 -31.2 31.2H31.3C14 195.3 0 181.3 0 164.1zm31.3 281.2h812.5c17.2 0 31.2 -14 31.2 -31.2v-78.2c0 -17.2 -14 -31.2 -31.2 -31.2H31.3C14 304.7 0 318.7 0 335.9v78.2c0 17.2 14 31.2 31.3 31.2zm0 500h812.5c17.2 0 31.2 -14 31.2 -31.2v-78.2c0 -17.2 -14 -31.2 -31.2 -31.2H31.3C14 804.7 0 818.7 0 835.9v78.2c0 17.2 14 31.2 31.3 31.2zm0 -250h812.5c17.2 0 31.2 -14 31.2 -31.2v-78.2c0 -17.2 -14 -31.2 -31.2 -31.2H31.3C14 554.7 0 568.7 0 585.9v78.2c0 17.2 14 31.2 31.3 31.2z"/></svg>