
  <svg height="1000" width="875.0" xmlns="http://www.w3.org/2000/svg">
    <path d="m812.5 218.8c34.4 0 62.5 28.1 62.5 62.5v343.9c-0.4 27.3-3.7 55.9-10 82.6l-51.7 220.1c-10 42.4-47.7 72.3-91.2 72.3h-386c-29.9 0-58.2-14.5-75.7-38.7l-245.4-337.3c-25.4-34.9-17.7-83.8 17.2-109.2s83.8-17.7 109.2 17.2l46.1 63.5v-470.7c0-34.4 28.1-62.5 62.5-62.5s62.5 28.1 62.5 62.5v296.9c0 8.6 7 15.6 15.6 15.6h31.3c8.6 0 15.6-7 15.6-15.6v-359.4c0-34.4 28.1-62.5 62.5-62.5s62.5 28.1 62.5 62.5v359.4c0 8.6 7 15.6 15.6 15.6h31.3c8.6 0 15.6-7 15.6-15.6v-296.9c0-34.4 28.1-62.5 62.5-62.5s62.5 28.1 62.5 62.5v296.9c0 8.6 7 15.6 15.6 15.6h31.3c8.6 0 15.6-7 15.6-15.6v-140.6c0-34.4 28.1-62.5 62.5-62.5z m-468.7 593.7c17.1 0 31.2-14.1 31.2-31.2s-14.1-31.3-31.2-31.3-31.3 14.1-31.3 31.3 14.1 31.2 31.3 31.2z m0-187.5c17.1 0 31.2-14.1 31.2-31.2s-14.1-31.3-31.2-31.3-31.3 14.1-31.3 31.3 14.1 31.2 31.3 31.2z m125 250c17.1 0 31.2-14.1 31.2-31.2s-14.1-31.3-31.2-31.3-31.3 14.1-31.3 31.3 14.1 31.2 31.3 31.2z m0-187.5c17.1 0 31.2-14.1 31.2-31.2s-14.1-31.3-31.2-31.3-31.3 14.1-31.3 31.3 14.1 31.2 31.3 31.2z m125 62.5c17.1 0 31.2-14.1 31.2-31.2s-14.1-31.3-31.2-31.3-31.3 14.1-31.3 31.3 14.1 31.2 31.3 31.2z m62.5 125c17.1 0 31.2-14.1 31.2-31.2s-14.1-31.3-31.2-31.3-31.3 14.1-31.3 31.3 14.1 31.2 31.3 31.2z m62.5-250c17.1 0 31.2-14.1 31.2-31.2s-14.1-31.3-31.2-31.3-31.3 14.1-31.3 31.3 14.1 31.2 31.3 31.2z" />
  </svg>
