<svg height="1000" width="875" xmlns="http://www.w3.org/2000/svg"><path d="M812.5 218.8c-34.4 0 -62.5 28.1 -62.5 62.5v140.6c0 8.6 -7 15.6 -15.6 15.6h-31.3c-8.6 0 -15.6 -7 -15.6 -15.6V125C687.5 90.6 659.4 62.5 625 62.5S562.5 90.6 562.5 125v296.9c0 8.6 -7 15.6 -15.6 15.6h-31.3c-8.6 0 -15.6 -7 -15.6 -15.6V62.5C500 28.1 471.9 0 437.5 0S375 28.1 375 62.5v359.4c0 8.6 -7 15.6 -15.6 15.6h-31.3c-8.6 0 -15.6 -7 -15.6 -15.6V125C312.5 90.6 284.4 62.5 250 62.5S187.5 90.6 187.5 125v470.7l-46.1 -63.5C116 497.3 67.2 489.6 32.2 515S-10.4 589.3 15 624.2l245.4 337.3c17.5 24.2 45.9 38.7 75.7 38.7h386c43.5 0 81.2 -29.9 91.2 -72.3L865 707.8c6.3 -26.7 9.6 -55.3 10 -82.6V281.3c0 -34.4 -28.1 -62.5 -62.5 -62.5zM343.8 812.5c-17.2 0 -31.3 -14.1 -31.3 -31.2S326.6 750 343.8 750s31.2 14.1 31.2 31.3 -14.1 31.2 -31.2 31.2zm0 -187.5c-17.2 0 -31.3 -14.1 -31.3 -31.2s14.1 -31.3 31.3 -31.3 31.2 14.1 31.2 31.3S360.9 625 343.8 625zm125 250c-17.2 0 -31.3 -14.1 -31.3 -31.2s14.1 -31.3 31.3 -31.3 31.2 14.1 31.2 31.3S485.9 875 468.8 875zm0 -187.5c-17.2 0 -31.3 -14.1 -31.3 -31.2S451.6 625 468.8 625s31.2 14.1 31.2 31.3 -14.1 31.2 -31.2 31.2zm125 62.5c-17.2 0 -31.3 -14.1 -31.3 -31.2s14.1 -31.3 31.3 -31.3 31.2 14.1 31.2 31.3S610.9 750 593.8 750zm62.5 125C639.1 875 625 860.9 625 843.8s14.1 -31.3 31.3 -31.3 31.2 14.1 31.2 31.3S673.4 875 656.3 875zm62.5 -250c-17.2 0 -31.3 -14.1 -31.3 -31.2s14.1 -31.3 31.3 -31.3 31.2 14.1 31.2 31.3S735.9 625 718.8 625z"/></svg>