<svg height="1000" width="1250" xmlns="http://www.w3.org/2000/svg"><path d="M1218.8 687.5h-31.3V476.4c0 -24.8 -10 -48.7 -27.5 -66.2L964.8 215c-17.5 -17.5 -41.4 -27.5 -66.2 -27.5h-86.1V93.8C812.5 42 770.5 0 718.8 0h-625C42 0 0 42 0 93.8v625c0 51.7 42 93.7 93.8 93.7H125C125 916 209 1000 312.5 1000S500 916 500 812.5h250C750 916 834 1000 937.5 1000S1125 916 1125 812.5h93.8c17.1 0 31.2 -14.1 31.2 -31.2v-62.5c0 -17.2 -14.1 -31.3 -31.2 -31.3zM312.5 906.3c-51.8 0 -93.7 -42 -93.7 -93.8s41.9 -93.7 93.7 -93.7 93.8 41.9 93.8 93.7 -42 93.8 -93.8 93.8zM593.8 421.9c0 8.6 -7.1 15.6 -15.7 15.6H468.8v109.4c0 8.6 -7.1 15.6 -15.7 15.6h-93.7c-8.6 0 -15.6 -7 -15.6 -15.6V437.5H234.4c-8.6 0 -15.6 -7 -15.6 -15.6v-93.8c0 -8.6 7 -15.6 15.6 -15.6h109.4V203.1c0 -8.6 7 -15.6 15.6 -15.6h93.7c8.6 0 15.7 7 15.7 15.6v109.4h109.3c8.6 0 15.7 7 15.7 15.6v93.8zm343.7 484.4c-51.8 0 -93.7 -42 -93.7 -93.8s41.9 -93.7 93.7 -93.7 93.8 41.9 93.8 93.7 -42 93.8 -93.8 93.8zM1093.8 500H812.5V281.3h86.1l195.2 195.1V500z"/></svg>