
  <svg height="1000" width="1250.0" xmlns="http://www.w3.org/2000/svg">
    <path d="m567.5 369.2c-39.7-19.8-86.2-21.9-126.5-7.6 83.2 0 139.1 40 167.2 98.8 16.7 35-10.1 74.4-46.2 74.4 36 0 63 39.3 46.2 74.3-28.8 60.3-90.1 99.3-156.9 99.3-1 0-184.5-16.8-184.5-16.8l-129.7 65.1c-18.3 9.2-38.7 0.8-46.6-15.2l-86.9-173.6c-8.1-16.9-2.1-36.9 13.6-46.2l113.4-64.6 80.3-144.9c12.5-111.8 67.9-214.4 155.8-286.5 22.2-18.5 55.3-15.2 73.2 7 18.5 22.3 15.2 54.8-7 73.3-24.4 20.6-46.1 43.9-63.5 69.5 42.3-28.8 91.2-48.3 144.9-54.9 28.8-3.8 54.8 16.3 58.1 45.1 3.8 28.8-16.3 54.8-45.1 58.1-31.5 3.8-60.8 14.6-86.3 29.8 51-11.1 114.7-6.1 172.1 21.7 26 13 36.9 44 23.8 70-12.4 25.5-43.9 36.4-69.4 23.9z m-53.2 135.7c-11.9-24.4-35.8-39.6-63-39.6h-0.2c-38.2 0-69.2 31-69.2 69.2 0 0.1 0 0.2 0 0.3 0 41.8 34.8 69.4 69.4 69.4 27.2 0 51.1-15.2 63-39.6 8.7-18.4 26.6-29.3 45.6-29.8-19-0.6-36.9-11.4-45.6-29.9z m732.1-72.7c8.1 16.8 2.1 36.9-13.6 46.1l-113.4 64.6-80.3 144.9c-12.5 111.8-67.9 214.4-155.8 286.6-21.3 17.8-54.3 15.9-73.2-7.1-18.5-22.2-15.2-54.8 7-73.2 24.4-20.7 46.1-44 63.5-69.5-42.3 28.8-91.2 48.3-144.9 54.8-19.6 4.9-53.8-11-58.1-45-3.8-28.8 16.3-54.9 45.1-58.1 31.5-3.8 60.8-14.7 86.3-29.9-51 11.2-114.7 6.2-172.1-21.7-26-13-36.9-43.9-23.8-70 12.4-25.5 43.9-36.4 69.4-23.9 39.7 19.8 86.3 21.9 126.5 7.6-83.2 0-139.1-40-167.2-98.8-16.7-34.9 10.1-74.3 46.2-74.3-36 0-63-39.3-46.2-74.4 27.4-57.4 86-99.4 160.1-99.3l181.3 16.8 129.7-65.1c18.3-9.2 38.7-0.7 46.6 15.2z m-447.7-36.4c-27.2 0-51.1 15.2-63 39.6-8.7 18.5-26.6 29.3-45.6 29.9 19 0.5 36.9 11.4 45.6 29.8 11.9 24.5 35.8 39.7 63 39.7h0.2c38.2 0 69.2-31.1 69.2-69.3 0-0.1 0-0.1 0-0.2 0-41.9-34.8-69.5-69.4-69.5z" />
  </svg>
