
  <svg height="1000" width="1125.0" xmlns="http://www.w3.org/2000/svg">
    <path d="m25.3 687.5c-20.8 0-31.3-25.2-16.5-40l130.9-130.9c9.1-9.2 24-9.2 33.1 0l130.9 130.9c14.8 14.8 4.3 40-16.5 40h-68.7c39.7 106.1 166.4 169.2 281.5 183.6v-371.1h-101.6c-12.9 0-23.4-10.5-23.4-23.4v-78.2c0-12.9 10.5-23.4 23.4-23.4h101.6v-10.7c-72.8-25.7-125-95.2-125-176.8 0-104.4 85.4-188.9 190.2-187.5 102 1.4 184.8 85.5 184.8 187.5 0 81.6-52.2 151.1-125 176.8v10.7h101.6c12.9 0 23.4 10.5 23.4 23.4v78.2c0 12.9-10.5 23.4-23.4 23.4h-101.6v371.1c115.5-14.5 241.8-77.5 281.5-183.6h-68.7c-20.8 0-31.3-25.2-16.5-40l130.9-130.9c9.1-9.2 24-9.2 33.1 0l130.9 130.9c14.8 14.8 4.3 40-16.5 40h-63.3c-42.5 200.4-266.4 312.5-473.9 312.5-207.1 0-431.3-111.8-473.9-312.5h-63.3z m537.2-562.5c-34.5 0-62.5 28-62.5 62.5s28 62.5 62.5 62.5 62.5-28 62.5-62.5-28-62.5-62.5-62.5z" />
  </svg>
