<svg height="1000" width="1125" xmlns="http://www.w3.org/2000/svg"><path d="M25.3 687.5h63.3C131.2 888.2 355.4 1000 562.5 1000c207.5 0 431.4 -112.1 473.9 -312.5h63.3c20.8 0 31.3 -25.2 16.5 -40L985.3 516.6c-9.1 -9.2 -24 -9.2 -33.1 0L821.3 647.5c-14.8 14.8 -4.3 40 16.5 40h68.7C866.8 793.6 740.5 856.6 625 871.1V500h101.6c12.9 0 23.4 -10.5 23.4 -23.4v-78.2C750 385.5 739.5 375 726.6 375H625v-10.7c72.8 -25.7 125 -95.1 125 -176.8C750 85.5 667.2 1.4 565.2 0 460.4 -1.4 375 83.1 375 187.5c0 81.6 52.2 151.1 125 176.8V375H398.4c-12.9 0 -23.4 10.5 -23.4 23.4v78.2c0 12.9 10.5 23.4 23.4 23.4H500v371.1C384.9 856.7 258.2 793.6 218.5 687.5h68.7c20.8 0 31.3 -25.2 16.5 -40L172.8 516.6c-9.1 -9.2 -24 -9.2 -33.1 0L8.8 647.5c-14.8 14.8 -4.3 40 16.5 40zM562.5 125c34.5 0 62.5 28 62.5 62.5S597 250 562.5 250 500 222 500 187.5 528 125 562.5 125z"/></svg>