
  <svg height="1000" width="625.0" xmlns="http://www.w3.org/2000/svg">
    <path d="m279.3 500.6l-265.6-265.6c-18.4-18.4-18.4-48.1 0-66.2l44.1-44.2c18.4-18.3 48.1-18.3 66.2 0l188.3 188.3 188.3-188.3c18.3-18.3 48-18.3 66.2 0l44.5 44c18.4 18.3 18.4 48 0 66.2l-265.6 265.6c-18.4 18.5-48 18.5-66.4 0.2z m66.4 375c-18.4 18.3-48 18.3-66.4-0.2l-265.6-265.6c-18.4-18.2-18.4-47.9 0-66.2l44.3-44.2c18.2-18.3 47.9-18.3 66.2 0l188.3 188.3 188.5-188.1c18.1-18.3 47.8-18.3 66.2 0l44.1 44.2c18.4 18.1 18.4 47.8 0 66.2z" />
  </svg>
