<svg height="1000" width="625" xmlns="http://www.w3.org/2000/svg"><path d="M279.3 500.6L13.7 235c-18.4 -18.4 -18.4 -48.1 0 -66.3l44.1 -44.1c18.4 -18.4 48.1 -18.4 66.2 0l188.3 188.3L500.6 124.6c18.3 -18.4 48 -18.4 66.2 0l44.5 44c18.4 18.3 18.4 48 0 66.2L345.7 500.4c-18.4 18.5 -48 18.5 -66.4 .2zm66.4 375L611.3 610c18.4 -18.4 18.4 -48.1 0 -66.2l-44.1 -44.2c-18.4 -18.3 -48.1 -18.3 -66.2 0L312.5 687.7 124.2 499.4c-18.3 -18.3 -48 -18.3 -66.2 0l-44.3 44.2c-18.4 18.3 -18.4 48 0 66.2l265.6 265.6c18.4 18.5 48 18.5 66.4 .2z"/></svg>