<svg height="1000" width="625" xmlns="http://www.w3.org/2000/svg"><path d="M345.7 499.4L611.3 765c18.4 18.4 18.4 48.1 0 66.3l-44.1 44.1c-18.4 18.4 -48.1 18.4 -66.2 0L312.5 687.3 124.2 875.6c-18.3 18.3 -48 18.3 -66.2 0L13.7 831.4c-18.4 -18.3 -18.4 -48 0 -66.2L279.3 499.6c18.4 -18.5 48 -18.5 66.4 -.2zm-66.4 -375L13.7 390c-18.4 18.4 -18.4 48.1 0 66.3l44.1 44.1c18.4 18.4 48.1 18.4 66.2 0L312.3 312.1l188.3 188.3c18.3 18.4 48 18.4 66.2 0l44.1 -44.1c18.4 -18.4 18.4 -48.1 0 -66.3L345.3 124.4c-18 -18.3 -47.6 -18.3 -66 0z"/></svg>