
  <svg height="1000" width="875.0" xmlns="http://www.w3.org/2000/svg">
    <path d="m436.9 466.8l265.6-265.6c18.4-18.4 48.1-18.4 66.2 0l44.2 44.1c18.3 18.4 18.3 48.1 0 66.2l-188.1 188.5 188.3 188.3c18.3 18.3 18.3 48 0 66.2l-44.2 44.3c-18.3 18.4-48 18.4-66.2 0l-265.6-265.6c-18.5-18.4-18.5-48-0.2-66.4z m-375 66.4c-18.3-18.4-18.3-48 0.2-66.4l265.6-265.6c18.2-18.4 47.9-18.4 66.2 0l44.2 44.3c18.3 18.2 18.3 47.9 0 66.2l-188.3 188.3 188.1 188.5c18.3 18.1 18.3 47.8 0 66.2l-44.2 44.1c-18.1 18.4-47.8 18.4-66.2 0z" />
  </svg>
