<svg height="1000" width="968.8" xmlns="http://www.w3.org/2000/svg"><path d="M484.4 15.6C216.8 15.6 0 232.4 0 500s216.8 484.4 484.4 484.4S968.8 767.6 968.8 500 752 15.6 484.4 15.6zM265.6 468.8c0 -18.2 8 -34.2 20.5 -45.8l-60.5 -18.1C209 400 199.6 382.4 204.7 366c4.9 -16.6 22.3 -25.8 38.9 -20.9L399.8 392c16.6 4.9 26 22.5 20.9 38.9 -4.1 13.4 -16.4 22.2 -29.9 22.2 -1 0 -2.1 -.4 -3.3 -.4 1.4 5.3 3.3 10.4 3.3 16.1 0 34.5 -27.9 62.5 -62.5 62.5s-62.7 -28 -62.7 -62.5zm328.2 301.1c-54.3 -65.2 -164.5 -65.2 -219 0 -26.4 31.9 -74.6 -8.2 -48 -40 39 -46.9 96.4 -73.8 157.4 -73.8s118.3 26.9 157.4 73.8c27 32.2 -21.7 71.5 -47.8 40zm149.6 -365L682.8 423c12.3 11.4 20.5 27.6 20.5 45.8 0 34.5 -27.9 62.5 -62.5 62.5s-62.5 -28 -62.5 -62.5c0 -5.7 1.8 -11 3.3 -16.1 -1.1 .2 -2.1 .4 -3.3 .4 -13.5 0 -25.8 -8.8 -29.9 -22.2 -4.8 -16.6 4.5 -34 20.9 -38.9l156.3 -46.9c16.4 -4.9 34 4.5 38.9 20.9 4.8 16.6 -4.5 34 -21.1 38.9z"/></svg>