
  <svg height="1000" width="968.8" xmlns="http://www.w3.org/2000/svg">
    <path d="m484.4 15.6c267.6 0 484.4 216.8 484.4 484.4s-216.8 484.4-484.4 484.4-484.4-216.8-484.4-484.4 216.8-484.4 484.4-484.4z m-218.8 453.2c0 34.5 28.2 62.5 62.7 62.5 34.6 0 62.5-28 62.5-62.5 0-5.7-1.9-10.8-3.3-16.1 1.2 0 2.3 0.4 3.3 0.4 13.5 0 25.8-8.8 29.9-22.2 5.1-16.4-4.3-34-20.9-38.9l-156.2-46.9c-16.6-4.9-34 4.3-38.9 20.9-5.1 16.4 4.3 34 20.9 38.9l60.5 18.1c-12.5 11.6-20.5 27.6-20.5 45.7z m328.2 301.1c26.1 31.5 74.8-7.8 47.8-40-39.1-46.9-96.5-73.8-157.4-73.8-61 0-118.4 26.9-157.4 73.8-26.6 31.8 21.6 71.9 48 40 54.5-65.2 164.7-65.2 219 0z m149.6-365c16.6-4.9 25.9-22.3 21.1-38.9-4.9-16.4-22.5-25.8-38.9-20.9l-156.3 46.9c-16.4 4.9-25.7 22.3-20.9 38.9 4.1 13.4 16.4 22.2 29.9 22.2 1.2 0 2.2-0.2 3.3-0.4-1.5 5.1-3.3 10.4-3.3 16.1 0 34.5 28 62.5 62.5 62.5 34.6 0 62.5-28 62.5-62.5 0-18.2-8.2-34.4-20.5-45.8z" />
  </svg>
