
  <svg height="1000" width="625.0" xmlns="http://www.w3.org/2000/svg">
    <path d="m578.1 500c25.9 0 46.9 21 46.9 46.9v62.5c0 25.9-21 46.9-46.9 46.9h-187.5v296.8c0 25.9-21 46.9-46.8 46.9h-62.5c-25.9 0-46.9-21-46.9-46.9v-296.8h-187.5c-25.9 0-46.9-21-46.9-46.9v-62.5c0-25.9 21-46.9 46.9-46.9h87.1c-41.1-66.4-71.5-145.2-71.5-218.7 0-172.6 111.9-281.3 250-281.3s250 108.7 250 281.3c0 73.5-30.4 152.3-71.5 218.7h87.1z m-265.6-343.7c-57.8 0-93.7 47.8-93.7 125 0 67.6 53 152.6 93.7 197 40.7-44.4 93.8-129.4 93.8-197 0-77.2-36-125-93.8-125z" />
  </svg>
