
  <svg height="1000" width="875.0" xmlns="http://www.w3.org/2000/svg">
    <path d="m685.3 252c50.7 9.1 92.3 36.4 124.8 82 28.6 40.4 48.1 91.1 58.5 152.3 9.1 56 8.5 112-1.9 168-15.6 92.4-46.9 169.9-93.7 232.4-55.9 75.5-126.1 113.3-210.7 113.3-20.8 0-43.5-6.5-68.2-19.5-17-10.4-35.8-15.7-56.6-15.7s-39.7 5.3-56.6 15.7c-24.7 13-47.5 19.5-68.3 19.5-84.5 0-154.7-37.8-210.7-113.3-46.8-62.5-78-140-93.6-232.4-10.4-56-11.1-112-2-168 10.4-61.2 30-111.9 58.6-152.3 32.5-45.6 74.1-72.9 124.8-82 31.2-5.3 74.1-0.7 128.8 13.6 46.8 13.1 86.4 28.7 119 46.9 32.5-18.2 72.2-33.8 119-46.9 54.6-14.3 97.5-18.9 128.8-13.6z m-107.4-80.1c-18.2 16.9-42.2 29.3-72.1 37.1-20.9 6.5-43.6 9.8-68.3 9.8l-29.3-2c-2.6-18.2-2.6-39.1 0-62.5 5.2-46.9 20.2-82.7 44.9-107.4 18.2-17 42.3-29.3 72.2-37.1 20.8-6.5 43.5-9.8 68.3-9.8l29.2 2 2 29.3c0 24.7-3.3 47.5-9.8 68.3-7.8 30-20.1 54.1-37.1 72.3z" />
  </svg>
