<svg height="1000" width="875" xmlns="http://www.w3.org/2000/svg"><path d="M685.9 252.2C616.5 240 494.4 280.3 437.5 312.4 380.6 280.3 258.5 240 189.1 252.2 30.4 280.2 -20.7 495.4 7.3 653.8c28 158.4 119.7 346.2 306 346.2 23.6 0 47.1 -9 67.3 -20.2 35.3 -19.6 78.5 -19.6 113.9 0 20.1 11.2 43.7 20.2 67.2 20.2 186.3 0 278 -187.8 306 -346.2C895.7 495.4 844.6 280.2 685.9 252.2zM577.4 171.1C637.1 111.4 623.7 1.3 623.7 1.3S513.6 -12.1 453.9 47.6c-59.7 59.7 -46.4 169.9 -46.4 169.9s110.2 13.3 169.9 -46.4z"/></svg>