
  <svg height="1000" width="1125.0" xmlns="http://www.w3.org/2000/svg">
    <path d="m1093.8 875c17.2 0 31.2 14 31.2 31.3v62.5c0 17.2-14 31.2-31.2 31.2h-312.5c-17.3 0-31.3-14-31.3-31.2v-31.3l0-312.5c0-103.6-83.9-187.5-187.5-187.5s-187.5 83.9-187.5 187.5v343.8c0 17.2-14 31.2-31.2 31.2h-312.5c-17.3 0-31.3-14-31.3-31.2v-62.5c0-17.3 14-31.3 31.3-31.3h31.2v-687.5h1000v687.5h31.3z m0-875c17.2 0 31.2 14 31.2 31.3v62.5c0 17.2-14 31.2-31.2 31.2h-1062.5c-17.3 0-31.3-14-31.3-31.2v-62.5c0-17.3 14-31.3 31.3-31.3h1062.5z" />
  </svg>
