<svg height="1000" width="1000.7" xmlns="http://www.w3.org/2000/svg"><path d="M861.2 24.6l7.7 161.6C780.1 81.8 647.8 15.6 500 15.6 263.3 15.6 66.3 185.4 24 409.8c-2.7 14.4 8.4 27.7 23.1 27.7h95.8c10.9 0 20.3 -7.5 22.8 -18.1C202 268.4 337.8 156.3 500 156.3c118.9 0 223.7 60.2 285.4 151.9l-198.3 -9.5c-13.4 -.6 -24.6 10 -24.6 23.4v92.6c0 13 10.5 23.5 23.4 23.5h391.3c13 0 23.5 -10.5 23.5 -23.5V23.4C1000.7 10.5 990.2 0 977.2 0h-92.6c-13.4 0 -24 11.2 -23.4 24.6zM500 843.8c-118.9 0 -223.7 -60.3 -285.4 -152l199 9.5c13.4 .6 24.5 -10 24.5 -23.4v-92.6c0 -13 -10.4 -23.4 -23.4 -23.4H23.4C10.5 561.9 0 572.3 0 585.3v391.3c0 12.9 10.5 23.4 23.4 23.4H116c13.4 0 24.1 -11.2 23.4 -24.6l-8.1 -161.3C220.2 918.3 352.4 984.4 500 984.4c236.7 0 433.7 -169.8 476 -394.2 2.7 -14.4 -8.4 -27.7 -23.1 -27.7h-95.8c-10.9 0 -20.3 7.5 -22.8 18.1C798 731.6 662.2 843.8 500 843.8z"/></svg>