
  <svg height="1000" width="1000.0" xmlns="http://www.w3.org/2000/svg">
    <path d="m687.9 831.6l-154.7 154.7c-18.3 18.3-48 18.3-66.3 0l-154.7-154.7c-29.5-29.5-8.6-80 33.2-80h99.9l0-196.9h-196.9v99.9c0 41.8-50.5 62.7-80 33.2l-154.7-154.7c-18.3-18.3-18.3-48 0-66.3l154.7-154.7c29.5-29.5 80-8.6 80 33.2v100h196.9v-196.9h-100c-41.8 0-62.7-50.5-33.2-80l154.7-154.7c18.3-18.3 48-18.3 66.3 0l154.7 154.7c29.5 29.5 8.6 80-33.2 80h-99.9v196.9h196.9v-99.9c0-41.8 50.5-62.7 80-33.2l154.7 154.7c18.3 18.3 18.3 48 0 66.3l-154.7 154.7c-29.5 29.5-80 8.6-80-33.2v-100h-196.9v196.9h100c41.8 0 62.7 50.5 33.2 80z" />
  </svg>
