
  <svg height="1000" width="1000.0" xmlns="http://www.w3.org/2000/svg">
    <path d="m984.4 500c0 267.6-216.8 484.4-484.4 484.4s-484.4-216.8-484.4-484.4 216.8-484.4 484.4-484.4 484.4 216.8 484.4 484.4z m-280.5-56.4l-141.4 147.4v-356.6c0-26-20.9-46.9-46.9-46.9h-31.2c-26 0-46.9 20.9-46.9 46.9v356.6l-141.4-147.4c-18.2-19-48.4-19.4-67-0.8l-21.3 21.5c-18.3 18.3-18.3 48 0 66.2l259 259.1c18.4 18.4 48 18.4 66.2 0l259.2-259.1c18.3-18.4 18.3-48.1 0-66.2l-21.3-21.5c-18.6-18.6-48.8-18.2-67 0.8z" />
  </svg>
