<svg height="1000" width="1000" xmlns="http://www.w3.org/2000/svg"><path d="M421.9 507.8c0 30.2 -24.5 54.7 -54.7 54.7S312.5 538 312.5 507.8c0 -86.1 70.1 -156.2 156.3 -156.2S625 421.7 625 507.8c0 30.2 -24.5 54.7 -54.7 54.7S515.6 538 515.6 507.8c0 -25.8 -21 -46.9 -46.8 -46.9s-46.9 21.1 -46.9 46.9zm46.9 -343.7C279.2 164.1 125 318.3 125 507.8c0 30.2 24.5 54.7 54.7 54.7s54.7 -24.5 54.7 -54.7c0 -129.2 105.1 -234.4 234.4 -234.4s234.3 105.2 234.3 234.4c0 146.8 -138.7 137.3 -140.6 280.5v.8c0 56 -45.6 101.5 -101.6 101.5 -30.2 0 -54.6 24.5 -54.6 54.7s24.4 54.7 54.6 54.7c116.2 0 210.7 -94.4 211 -210.5C673 722.3 812.5 695.3 812.5 507.8 812.5 318.3 658.3 164.1 468.8 164.1zm524.3 -102L937.9 6.9c-9.2 -9.2 -24 -9.2 -33.2 0L734.8 176.8c-9.2 9.2 -9.2 24 0 33.2l55.2 55.2c9.2 9.2 24 9.2 33.2 0L993.1 95.3c9.2 -9.2 9.2 -24 0 -33.2zM330 614.7c-9.1 -9.1 -24 -9.1 -33.1 0l-290 290c-9.2 9.2 -9.2 24 0 33.2l55.2 55.2c9.2 9.2 24 9.2 33.2 0l290 -290c9.1 -9.1 9.1 -24 0 -33.1L330 614.7z"/></svg>