
  <svg height="1000" width="1000.0" xmlns="http://www.w3.org/2000/svg">
    <path d="m421.9 507.8c0 30.2-24.5 54.7-54.7 54.7s-54.7-24.5-54.7-54.7c0-86.1 70.1-156.2 156.3-156.2s156.2 70.1 156.2 156.2c0 30.2-24.5 54.7-54.7 54.7s-54.7-24.5-54.7-54.7c0-25.8-21-46.9-46.8-46.9s-46.9 21.1-46.9 46.9z m46.9-343.7c189.5 0 343.7 154.2 343.7 343.7 0 187.5-139.5 214.5-140.6 281.7-0.3 116.1-94.8 210.5-211 210.5-30.2 0-54.6-24.5-54.6-54.7s24.4-54.7 54.6-54.7c56 0 101.6-45.5 101.6-101.5l0-0.8c1.9-143.2 140.6-133.7 140.6-280.5 0-129.2-105.1-234.4-234.3-234.4s-234.4 105.2-234.4 234.4c0 30.2-24.5 54.7-54.7 54.7s-54.7-24.5-54.7-54.7c0-189.5 154.2-343.7 343.8-343.7z m-156.3 460.9c34.5 0 62.5 28 62.5 62.5s-28 62.5-62.5 62.5-62.5-28-62.5-62.5 28-62.5 62.5-62.5z m-250 250c34.5 0 62.5 28 62.5 62.5s-28 62.5-62.5 62.5-62.5-28-62.5-62.5 28-62.5 62.5-62.5z m937.5-367.2c0 30.2-24.5 54.7-54.7 54.7s-54.7-24.5-54.7-54.7c0-2.2 0-4.4 0-6.5l0-0.4c-2.9-178.6-117.6-337.1-285.4-394.4-28.5-9.8-43.8-40.9-34-69.5 9.7-28.6 40.8-43.8 69.4-34 211.3 72.1 355.6 271.5 359.3 496 0.1 2.9 0.1 5.9 0.1 8.8z m-701.2 349.7l-66.3 66.3-156.3-156.3 66.3-66.3z" />
  </svg>
