<svg height="1000" width="1000" xmlns="http://www.w3.org/2000/svg"><path d="M421.9 507.8c0 30.2 -24.5 54.7 -54.7 54.7S312.5 538 312.5 507.8c0 -86.1 70.1 -156.2 156.3 -156.2S625 421.7 625 507.8c0 30.2 -24.5 54.7 -54.7 54.7S515.6 538 515.6 507.8c0 -25.8 -21 -46.9 -46.8 -46.9s-46.9 21.1 -46.9 46.9zm46.9 -343.7C279.2 164.1 125 318.3 125 507.8c0 30.2 24.5 54.7 54.7 54.7s54.7 -24.5 54.7 -54.7c0 -129.2 105.1 -234.4 234.4 -234.4s234.3 105.2 234.3 234.4c0 146.8 -138.7 137.3 -140.6 280.5v.8c0 56 -45.6 101.5 -101.6 101.5 -30.2 0 -54.6 24.5 -54.6 54.7s24.4 54.7 54.6 54.7c116.2 0 210.7 -94.4 211 -210.5C673 722.3 812.5 695.3 812.5 507.8 812.5 318.3 658.3 164.1 468.8 164.1zM312.5 625C278 625 250 653 250 687.5s28 62.5 62.5 62.5S375 722 375 687.5 347 625 312.5 625zm-250 250C28 875 0 903 0 937.5s28 62.5 62.5 62.5S125 972 125 937.5 97 875 62.5 875zM1000 507.8c0 -2.9 0 -5.9 -.1 -8.8C996.2 274.5 851.9 75.1 640.6 3 612 -6.8 580.9 8.4 571.2 37c-9.8 28.6 5.5 59.7 34 69.5C773 163.8 887.7 322.3 890.6 500.9v.4c0 2.1 0 4.3 0 6.5 0 30.2 24.5 54.7 54.7 54.7S1000 538 1000 507.8zM298.8 857.5L142.5 701.2l-66.3 66.3 156.3 156.3 66.3 -66.3z"/></svg>