
  <svg height="1000" width="1000.0" xmlns="http://www.w3.org/2000/svg">
    <path d="m934 652.5c23 12.7 31.2 41.8 18 64.5l-38 65.9c-13.2 22.8-42.4 30.3-64.9 16.7l-271-164.3 6.8 316.8c0.6 26.3-20.6 47.9-46.8 47.9h-76.1c-26.3 0-47.5-21.6-46.9-47.9l6.8-316.8-271 164.3c-22.5 13.6-51.7 6.1-64.9-16.6l-38-65.9c-13.2-22.8-5-51.9 18-64.6l277.8-152.5-277.8-152.5c-23-12.7-31.2-41.8-18-64.5l38-65.9c13.2-22.8 42.4-30.3 64.9-16.7l271 164.3-6.8-316.8c-0.6-26.3 20.6-47.9 46.9-47.9h76c26.3 0 47.5 21.6 46.9 47.9l-6.8 316.8 271-164.3c22.5-13.6 51.7-6.1 64.9 16.6l38 65.9c13.2 22.8 5 51.9-18 64.6l-277.7 152.5z" />
  </svg>
