<svg height="1000" width="1000" xmlns="http://www.w3.org/2000/svg"><path d="M934 652.5L656.3 500 934 347.5c23 -12.7 31.2 -41.8 18 -64.6L914 217c-13.2 -22.7 -42.4 -30.2 -64.9 -16.6l-271 164.3 6.8 -316.8C585.5 21.6 564.3 0 538 0h-76c-26.3 0 -47.5 21.6 -46.9 47.9l6.8 316.8 -271 -164.3C128.4 186.8 99.2 194.3 86 217.1L48 283c-13.2 22.7 -5 51.8 18 64.5L343.8 500 66 652.5c-23 12.7 -31.2 41.8 -18 64.6L86 783c13.2 22.7 42.4 30.2 64.9 16.6l271 -164.3 -6.8 316.8c-.6 26.3 20.6 47.9 46.9 47.9h76c26.3 0 47.5 -21.6 46.9 -47.9l-6.8 -316.8 271 164.3c22.5 13.6 51.7 6.1 64.9 -16.7L952 717c13.2 -22.7 5 -51.8 -18 -64.5z"/></svg>