<svg height="1000" width="1000" xmlns="http://www.w3.org/2000/svg"><path d="M500 15.6C232.3 15.6 15.6 232.3 15.6 500S232.3 984.4 500 984.4c94.1 0 186.2 -27.6 264.5 -78.6 23.4 -15.2 28.5 -47.4 10.8 -69.1l-19.9 -24.3c-14.9 -18.3 -41.3 -22.7 -61.2 -10 -57.6 37 -125.2 57 -194.2 57C301.8 859.4 140.6 698.2 140.6 500S301.8 140.6 500 140.6c195.6 0 359.4 112.6 359.4 312.5 0 75.8 -41.2 155.8 -113.6 163.5 -33.9 -.9 -33.1 -25.1 -26.4 -58.7l45.8 -236.5c5.6 -28.9 -16.6 -55.8 -46 -55.8h-87.9A26.4 -26.4 0 0 1 605.1 289v.2C576.4 254.3 526.1 246.7 488 246.7c-145.7 0 -269.2 121.5 -269.2 295.8 0 127.6 71.8 206.8 187.5 206.8 52.7 0 112 -30.5 146.4 -74.9C571.3 741 632 741 690.8 741c212.7 0 293.6 -139.8 293.6 -287.9C984.4 186.8 769.6 15.6 500 15.6zm-42.3 594.6c-43.5 0 -70.5 -30.5 -70.5 -79.6 0 -87.9 60.1 -142.1 114.5 -142.1 43.6 0 69.6 29.8 69.6 79.7 0 88 -66.2 142 -113.6 142z"/></svg>