
  <svg height="1000" width="1000.0" xmlns="http://www.w3.org/2000/svg">
    <path d="m500 15.6c269.6 0 484.4 171.2 484.4 437.5 0 148.1-80.9 287.9-293.6 287.9-58.8 0-119.5 0-138.1-66.6-34.4 44.4-93.7 74.9-146.5 74.9-115.6 0-187.5-79.2-187.5-206.8 0-174.3 123.6-295.8 269.3-295.8 38.1 0 88.4 7.6 117.1 42.5l0-0.2c1.5-13.1 12.7-23.4 26.2-23.4h87.9c29.4 0 51.6 26.9 46 55.8l-45.8 236.5c-6.7 33.6-7.5 57.8 26.4 58.7 72.4-7.7 113.6-87.7 113.6-163.5 0-199.9-163.8-312.5-359.4-312.5-198.2 0-359.4 161.2-359.4 359.4s161.2 359.4 359.4 359.4c69 0 136.6-20 194.2-57 19.9-12.7 46.3-8.3 61.2 10l19.9 24.3c17.7 21.7 12.6 53.8-10.8 69.1-78.3 51-170.4 78.6-264.5 78.6-267.7 0-484.4-216.7-484.4-484.4 0-267.7 216.7-484.4 484.4-484.4z m-42.3 594.6c47.4 0 113.6-54 113.6-142 0-49.9-26-79.7-69.6-79.7-54.4 0-114.5 54.2-114.5 142.1 0 49.1 27 79.6 70.5 79.6z" />
  </svg>
