
  <svg height="1000" width="875.0" xmlns="http://www.w3.org/2000/svg">
    <path d="m621.8 406.3c-10.3 60.9-49.9 111.6-104.1 137.5 15-37.3 24.9-84.8 27.8-137.5h76.3z m0-62.5h-76.3c-2.9-52.8-12.8-100.3-27.8-137.6 54.2 25.9 93.8 76.6 104.1 137.6z m-184.3-153.7c15 14.5 40.6 67.2 45.8 153.7h-91.6c5.2-86.5 30.8-139.2 45.8-153.7z m-80.2 16.1c-15 37.3-24.9 84.8-27.8 137.6h-76.3c10.3-61 49.9-111.7 104.1-137.6z m0 337.6c-54.2-25.9-93.8-76.6-104.1-137.6h76.3c2.9 52.8 12.8 100.3 27.8 137.6z m126-137.5c-5.2 86.4-30.8 139.1-45.8 153.6-15-14.5-40.6-67.2-45.8-153.6h91.6z m391.7 293.7c0 18.8-6.3 31.3-18.7 37.5-6.3 25-6.3 112.5 0 143.8 12.4 12.4 18.7 24.9 18.7 37.5v31.2c0 31.3-25 50-50 50h-637.5c-106.2 0-187.5-81.2-187.5-187.5v-625c0-106.3 81.3-187.5 187.5-187.5h637.5c31.3 0 50 18.7 50 50v650z m-437.5-575c-138.1 0-250 111.9-250 250s111.9 250 250 250 250-111.9 250-250-111.9-250-250-250z m312.5 750v-125h-562.5c-31.2 0-62.5 25-62.5 62.5s25 62.5 62.5 62.5h562.5z" />
  </svg>
