<svg height="1000" width="875" xmlns="http://www.w3.org/2000/svg"><path d="M621.8 406.3h-76.3c-2.9 52.7 -12.8 100.2 -27.8 137.5 54.2 -25.9 93.8 -76.6 104.1 -137.6zm0 -62.5C611.5 282.8 571.9 232.1 517.7 206.2c15 37.3 24.9 84.8 27.8 137.6h76.3zM437.5 190.1c-15 14.5 -40.6 67.2 -45.8 153.7h91.6C478.1 257.3 452.5 204.6 437.5 190.1zm-80.2 16.1c-54.2 25.9 -93.8 76.6 -104.1 137.6h76.3c2.9 -52.8 12.8 -100.3 27.8 -137.6zm0 337.6C342.3 506.5 332.4 459 329.5 406.2h-76.3c10.3 61 49.9 111.7 104.1 137.6zm126 -137.5h-91.6c5.2 86.4 30.8 139.1 45.8 153.6 15 -14.5 40.6 -67.2 45.8 -153.6zM875 700V50C875 18.8 856.3 0 825 0H187.5C81.3 0 0 81.3 0 187.5v625C0 918.8 81.3 1000 187.5 1000H825c25 0 50 -18.7 50 -50v-31.2c0 -12.5 -6.2 -25 -18.7 -37.5C850 850 850 762.5 856.3 737.5 868.8 731.3 875 718.8 875 700zM437.5 125c138.1 0 250 111.9 250 250s-111.9 250 -250 250 -250 -111.9 -250 -250 111.9 -250 250 -250zM750 875H187.5C150 875 125 850 125 812.5S156.3 750 187.5 750H750v125z"/></svg>