
  <svg height="1000" width="875.0" xmlns="http://www.w3.org/2000/svg">
    <path d="m437.5 437.5c34.5 0.1 62.4 28 62.5 62.5 0 34.5-28 62.5-62.5 62.5s-62.5-28-62.5-62.5c0-34.5 28-62.5 62.5-62.5z m418.3-187.5c32 57.4 29.3 142.8-49.1 250 78.4 107.2 81.1 192.6 49.1 250-56.9 102.3-198.5 85.2-227.1 81.8-42 100.1-106 168.2-191.2 168.2s-149.2-68.1-191.2-168.2c-28.6 3.4-170.2 20.5-227.1-81.8-32-57.4-29.3-142.8 49.1-250-78.4-107.2-81.1-192.6-49.1-250 21.2-38.1 79.1-98.9 227.1-81.8 42-100.1 106-168.2 191.2-168.2s149.2 68.1 191.2 168.2c148-17.3 205.9 43.7 227.1 81.8z m-732.1 437.5c7.3 12.9 37.1 23.2 85.2 21.5-5.3-25.4-10-51.5-13.2-78.4-15.1-12.2-29.3-24.6-42.7-37.3-29.5 45.9-37.1 80-29.3 94.2z m72.1-318.1c3.1-26.4 7.5-52.5 13.1-78.6-3.6 0-7.8-0.8-11.2-0.8-42 0-67.4 10.5-74 22.5-7.8 14.2-0.2 48.3 29.3 94.2 13.4-12.7 27.6-25.1 42.8-37.3z m241.7-244.4c-18.6 0-43.5 26.4-66.2 72.8 22 7.3 44 15.6 66.2 25.1 22.2-9.5 44.2-17.8 66.2-25.1-22.7-46.4-47.6-72.8-66.2-72.8z m0 750c18.6 0 43.5-26.4 66.2-72.8-22-7.3-44-15.6-66.2-25.1-22.2 9.5-44.2 17.8-66.2 25.1 22.7 46.4 47.6 72.8 66.2 72.8z m0-218.7c86.2 0 156.2-70.1 156.2-156.3s-70-156.2-156.2-156.2-156.3 70-156.3 156.2 70.1 156.3 156.3 156.3z m313.8 31.2c7.8-14.2 0.2-48.3-29.3-94.2-13.4 12.7-27.6 25.1-42.7 37.3-3.2 26.9-7.9 53-13.2 78.4 48.1 1.7 78.1-8.6 85.2-21.5z m-29.3-280.8c29.5-45.9 37.1-80 29.3-94.2-6.6-12-32-22.5-74-22.5-3.4 0-7.6 0.8-11.2 0.8 5.6 26.1 10 52.2 13.2 78.6 15.1 12.2 29.3 24.6 42.7 37.3z" />
  </svg>
