<svg height="1000" width="1000" xmlns="http://www.w3.org/2000/svg"><path d="M318.2 466.2l17.2 59.9h-50l17.7 -59.9c2.5 -8.6 5.2 -19.5 7.6 -29.7 2.3 10.2 5 21.1 7.5 29.7zm325.2 -62.7H615v193h28.4c58.1 0 90.1 -34.6 90.1 -97.3 0 -62.9 -34.1 -95.7 -90.1 -95.7zM1000 218.8v562.5c0 51.7 -42 93.7 -93.7 93.7H93.8C42 875 0 833 0 781.3V218.8C0 167 42 125 93.8 125h812.5c51.7 0 93.7 42 93.7 93.8zM479.4 656.5L367.9 328.4a23.4 -23.4 0 0 1 -22.2 -15.9h-70.1a23.4 -23.4 0 0 1 -22.2 15.9L141.9 656.5c-5.2 15.2 6.1 31 22.2 31H221a23.4 -23.4 0 0 1 22.5 -17l16.8 -58.4h100.3l17.2 58.6a23.4 -23.4 0 0 1 22.4 16.8h57c16.1 0 27.4 -15.8 22.2 -31zM840.2 499.2c0 -115.1 -74.1 -186.7 -193.3 -186.7H534.8c-12.9 0 -23.4 10.5 -23.4 23.4v328.2c0 12.9 10.5 23.4 23.4 23.4h112.1c119.2 0 193.3 -72.1 193.3 -188.3z"/></svg>