
  <svg height="1000" width="1000.0" xmlns="http://www.w3.org/2000/svg">
    <path d="m318.2 466.2l17.2 59.9h-50l17.7-59.9c2.5-8.6 5.2-19.5 7.6-29.7 2.3 10.2 5 21.1 7.5 29.7z m325.2-62.7c56 0 90.1 32.8 90.1 95.7 0 62.7-32 97.3-90.1 97.3h-28.4v-193h28.4z m356.6-184.7v562.5c0 51.7-42 93.7-93.7 93.7h-812.5c-51.8 0-93.8-42-93.8-93.7v-562.5c0-51.8 42-93.8 93.8-93.8h812.5c51.7 0 93.7 42 93.7 93.8z m-520.6 437.7l-111.5-328.1c-3.1-9.2-11.9-15.9-22.2-15.9h-70.1c-10.3 0-19.1 6.7-22.2 15.9l-111.5 328.1c-5.2 15.2 6.1 31 22.2 31h56.9c10.7 0 19.7-7.2 22.5-17l16.8-58.4h100.3l17.2 58.6c2.8 9.7 11.8 16.8 22.4 16.8h57c16.1 0 27.4-15.8 22.2-31z m360.8-157.3c0-115.1-74.1-186.7-193.3-186.7h-112.1c-12.9 0-23.4 10.5-23.4 23.4v328.2c0 12.9 10.5 23.4 23.4 23.4h112.1c119.2 0 193.3-72.1 193.3-188.3z" />
  </svg>
