<svg height="1000" width="1125" xmlns="http://www.w3.org/2000/svg"><path d="M1078.1 125H875V46.9C875 20.9 854.1 0 828.1 0H296.9C270.9 0 250 20.9 250 46.9V125H46.9C20.9 125 0 145.9 0 171.9v109.4C0 351 43.9 422.7 120.9 477.9c61.5 44.4 136.3 72.5 214.8 81.5 61.4 101.7 133.1 143.7 133.1 143.7v140.7H375c-68.9 0 -125 40.4 -125 109.3v23.5c0 12.9 10.5 23.4 23.4 23.4h578.2c12.9 0 23.4 -10.5 23.4 -23.4v-23.5C875 884.2 818.9 843.8 750 843.8h-93.7V703.1s71.6 -42 133 -143.7c78.7 -9 153.5 -37.1 214.8 -81.5C1080.9 422.7 1125 351 1125 281.3V171.9c0 -26 -20.9 -46.9 -46.9 -46.9zM193.9 376.6C146.3 342.2 125 303.9 125 281.3V250h125.4c1.9 63.7 11.3 119.5 25 168.4 -29.5 -10.2 -57 -24.3 -81.5 -41.8zM1000 281.3c0 31.4 -34.6 70.5 -68.9 95.3 -24.5 17.5 -52.2 31.6 -81.7 41.8 13.7 -48.9 23.1 -104.7 25 -168.4H1000v31.3z"/></svg>