
  <svg height="1000" width="750.0" xmlns="http://www.w3.org/2000/svg">
    <path d="m189.7 708.3c26.9 26.9 62.7 41.7 100.8 41.7 24.3 0 47.8-6.9 69-18.7l-101.7 249.2c-8.6 21.1-36 26.2-51.6 9.7l-70.8-74.7-102.9 3.9c-22.7 0.9-38.7-22-30.2-43l88.7-217.3c14.7 11.5 31.1 21 49.6 26 41 11 32.1 6.2 49.1 23.2z m558 168.1c8.5 21-7.5 43.9-30.2 43l-102.9-3.9-70.8 74.7c-15.6 16.5-43 11.4-51.6-9.7l-101.7-249.2c21.2 11.8 44.7 18.7 69 18.7 38.1 0 73.9-14.8 100.8-41.7 16.9-17 7.9-12.2 49.1-23.2 18.5-5 34.9-14.5 49.6-26z m-234-212.3c-25.9 26.3-66.1 31-97.2 11.3-11.9-7.6-26.3-12-41.6-12s-29.4 4.4-41.4 12c-31.1 19.7-71.3 15-97.2-11.3-28.7-29.3-32-27.5-75.7-39.4-27.1-7.4-48.4-29-55.6-56.6-14.6-55.4-10.8-48.7-50.7-89.3-19.9-20.3-27.6-49.7-20.4-77.4 14.7-55.5 14.6-47.7 0-103.1-7.2-27.6 0.5-57.1 20.4-77.3 39.9-40.6 36.1-33.9 50.7-89.4 7.2-27.6 28.5-49.2 55.6-56.6 54.5-14.8 47.9-11 87.8-51.6 19.8-20.2 48.8-28.1 75.9-20.7 54.5 14.9 46.9 14.9 101.4 0 27.1-7.4 56.1 0.5 75.9 20.7 39.9 40.6 33.4 36.8 87.8 51.6 27.2 7.4 48.4 29 55.6 56.6 14.6 55.5 10.9 48.8 50.7 89.4 19.9 20.2 27.6 49.7 20.4 77.3-14.6 55.5-14.6 47.7 0 103.2 7.2 27.6-0.5 57.1-20.4 77.3-39.8 40.6-36.1 33.9-50.7 89.3-7.2 27.6-28.4 49.2-55.6 56.6-42.5 11.6-45.9 9-75.7 39.4z m-323-320.4c0 103.5 82.5 187.5 184.3 187.5s184.3-84 184.3-187.5-82.5-187.6-184.3-187.6-184.3 84-184.3 187.6z" />
  </svg>
