<svg height="1000" width="750" xmlns="http://www.w3.org/2000/svg"><path d="M189.7 708.3c-17 -17 -8.1 -12.2 -49.1 -23.2 -18.5 -5 -34.9 -14.5 -49.6 -26L2.3 876.4c-8.5 21 7.5 43.9 30.2 43l102.9 -3.9 70.8 74.7c15.6 16.5 43 11.4 51.6 -9.7L359.5 731.3c-21.2 11.8 -44.7 18.7 -69 18.7 -38.1 0 -73.9 -14.8 -100.8 -41.7zm558 168.1L659 659.1c-14.7 11.5 -31.1 21 -49.6 26 -41.2 11 -32.2 6.2 -49.1 23.2C533.4 735.2 497.6 750 459.5 750c-24.3 0 -47.8 -6.9 -69 -18.7l101.7 249.2c8.6 21.1 36 26.2 51.6 9.7l70.8 -74.7 102.9 3.9c22.7 .9 38.7 -22 30.2 -43zm-234 -212.3c29.8 -30.4 33.2 -27.8 75.7 -39.4 27.2 -7.4 48.4 -29 55.6 -56.6 14.6 -55.4 10.9 -48.7 50.7 -89.3 19.9 -20.2 27.6 -49.7 20.4 -77.3 -14.6 -55.5 -14.6 -47.7 0 -103.2 7.2 -27.6 -.5 -57.1 -20.4 -77.3C655.9 180.4 659.6 187.1 645 131.6 637.8 104 616.6 82.4 589.4 75 535 60.2 541.5 64 501.6 23.4 481.8 3.2 452.8 -4.7 425.7 2.7c-54.4 14.9 -46.9 14.9 -101.4 0 -27.1 -7.4 -56.1 .5 -75.9 20.7C208.5 64 215.1 60.2 160.6 75c-27.1 7.4 -48.4 29 -55.6 56.6C90.4 187.1 94.2 180.4 54.3 221c-19.9 20.2 -27.6 49.7 -20.4 77.3 14.6 55.4 14.7 47.6 0 103.1 -7.2 27.7 .5 57.1 20.4 77.4 39.9 40.6 36.1 33.9 50.7 89.3 7.2 27.6 28.5 49.2 55.6 56.6 43.7 11.9 47 10.1 75.7 39.4 25.9 26.3 66.1 31 97.2 11.3a77.5 -77.5 0 0 0 83 0c31.1 19.7 71.3 15 97.2 -11.3zm-323 -320.4c0 -103.6 82.5 -187.6 184.3 -187.6s184.3 84 184.3 187.6S476.8 531.2 375 531.2 190.7 447.2 190.7 343.7z"/></svg>