
  <svg height="1000" width="1000.0" xmlns="http://www.w3.org/2000/svg">
    <path d="m282.8 33.2l217.2 341.8h-500c0-144.5 68.9-273.6 177.3-360.2 32.9-26.1 83.4-16.4 105.5 18.4z m686 154.3c17.1 0 31.2 14.1 31.2 31.3v62.5c0 17.1-14.1 31.2-31.2 31.2h-93.8v125c0 98.8-44.9 188.3-117.8 255.3 67.6 17.4 117.8 78.1 117.8 150.9 0 86.4-69.9 156.3-156.2 156.3s-156.3-69.9-156.3-156.3c0-17.3 3.3-33.5 8.6-49.2-42 11.6-87.1 18-133.6 18s-91.4-6.4-133.6-18c5.1 15.7 8.6 31.9 8.6 49.2 0 86.4-69.9 156.3-156.3 156.3s-156.2-69.9-156.2-156.3c0-72.8 50.2-133.5 117.8-150.9-72.9-67-117.8-156.5-117.8-255.3h750v-125c0-68.9 56.1-125 125-125h93.7z m-812.5 718.8c34.3 0 62.5-28.2 62.5-62.5s-28.2-62.5-62.5-62.5-62.5 28.1-62.5 62.5 28.1 62.5 62.5 62.5z m625-62.5c0-34.4-28.2-62.5-62.5-62.5s-62.5 28.1-62.5 62.5 28.1 62.5 62.5 62.5 62.5-28.2 62.5-62.5z" />
  </svg>
