
  <svg height="1000" width="750.0" xmlns="http://www.w3.org/2000/svg">
    <path d="m375 312.5c-86.3 0-156.2-69.9-156.2-156.2s69.9-156.3 156.2-156.3 156.3 69.9 156.3 156.3-70 156.2-156.3 156.2z m-104.3 485.9l57.4 76.6c25.8 34.6 19 83.6-15.6 109.4-14.1 10.5-30.7 15.6-46.9 15.6-23.6 0-47-10.7-62.5-31.2l-93.7-125c-21.3-28.6-20.7-68 1.5-95.8l89.7-112.1 120.1 100z m278.7-162.5l89.7 112.1c22.2 27.8 22.8 67.2 1.5 95.8l-93.7 125c-15.3 20.5-38.7 31.2-62.5 31.2-16.4 0-32.8-5.1-46.9-15.6-34.6-25.8-41.4-74.8-15.6-109.4l57.4-76.6-50-62.5z m186.3-352.7c24.8 35.4 16.4 84-18.9 109l-79.3 55.7c-33.2 23.2-69.1 40.8-106.3 54.4v60.2h-312.5v-60.4c-37.1-13.6-73-31.2-106.2-54.4l-79.3-55.7c-35.2-24.8-43.7-73.4-18.9-108.8 24.8-35.2 73.4-43.7 108.7-18.9l79.3 55.4c102.8 72.3 242.4 72.3 345.4 0l79.3-55.6c35.3-24.6 83.9-16.2 108.7 19.1z" />
  </svg>
