<svg height="1000" width="1250" xmlns="http://www.w3.org/2000/svg"><path d="M1125 125H400.9a124.9 -124.9 0 0 1 -88.4 36.6L18.3 455.8c-24.4 24.4 -24.4 64 0 88.4l294.2 294.2c23.4 23.4 55.2 36.6 88.4 36.6H1125c69 0 125 -56 125 -125V250c0 -69 -56 -125 -125 -125zM959.6 621.2c12.2 12.2 12.2 32 0 44.2l-44.2 44.2c-12.2 12.2 -32 12.2 -44.2 0L750 588.4 628.8 709.6c-12.2 12.2 -32 12.2 -44.2 0l-44.2 -44.2c-12.2 -12.2 -12.2 -32 0 -44.2L661.6 500 540.4 378.8c-12.2 -12.2 -12.2 -32 0 -44.2l44.2 -44.2c12.2 -12.2 32 -12.2 44.2 0L750 411.6 871.2 290.4c12.2 -12.2 32 -12.2 44.2 0l44.2 44.2c12.2 12.2 12.2 32 0 44.2L838.4 500l121.2 121.2z"/></svg>