
  <svg height="1000" width="1250.0" xmlns="http://www.w3.org/2000/svg">
    <path d="m1125 125c69 0 125 56 125 125v500c0 69-56 125-125 125h-724.1c-33.2 0-65-13.2-88.4-36.6l-294.2-294.2c-24.4-24.4-24.4-64 0-88.4l294.2-294.2c22.6-22.6 53.9-36.6 88.4-36.6h0 724.1z m-165.4 496.2l-121.2-121.2 121.2-121.2c12.2-12.2 12.2-32 0-44.2l-44.2-44.2c-12.2-12.2-32-12.2-44.2 0l-121.2 121.2-121.2-121.2c-12.2-12.2-32-12.2-44.2 0l-44.2 44.2c-12.2 12.2-12.2 32 0 44.2l121.2 121.2-121.2 121.2c-12.2 12.2-12.2 32 0 44.2l44.2 44.2c12.2 12.2 32 12.2 44.2 0l121.2-121.2 121.2 121.2c12.2 12.2 32 12.2 44.2 0l44.2-44.2c12.2-12.2 12.2-32 0-44.2z" />
  </svg>
