
  <svg height="1000" width="1125.0" xmlns="http://www.w3.org/2000/svg">
    <path d="m427.6 657c-68.1 68.1-116.5 86.3-167.8 105.5-50.8 19-103.5 39.3-172.2 103l-69.9-69.4c-24.8-24.6-23.6-65.6 3.5-88 71-58.5 129.3-80.3 177.9-98.4 17.9-6.6 134.7-37.6 192.8-191.5 16.8-44.6 90.5-262.9 369.1-366.7 31-11.5 53.4-19.9 80.1-39.6 10-7.5 22.5-11.9 36-11.9 16.5 0 31.5 6.6 42.4 17.4l73.6 73c-58.9 54.1-103.3 71.1-150 88.6-55.2 20.8-112.4 42.2-190.1 119.9s-99.1 134.9-119.9 190.1c-19.2 51.4-37.4 99.9-105.5 168z m679.7-453.1c24.8 24.6 23.6 65.7-3.6 88-71 58.6-129.3 80.3-177.9 98.5-18 6.7-134.8 37.7-192.9 191.6-17.4 46-91.2 263-369 366.6-30.9 11.5-53.4 19.8-79.9 39.5-10.1 7.4-22.6 11.9-36.1 11.9-16.5 0-31.5-6.7-42.4-17.4l-73.6-73.1c58.8-54.1 103.2-71 149.8-88.6 55.3-20.6 112.4-42 190.1-119.7s99.2-134.8 119.9-190.1c19.2-51.4 37.4-99.9 105.5-168 68.2-68 116.6-86.2 167.9-105.5 50.9-19.1 103.6-39.3 172.3-103.1z" />
  </svg>
