
  <svg height="1000" width="1250.0" xmlns="http://www.w3.org/2000/svg">
    <path d="m531.9 442.2c-4.3 1.8-9 2.9-14 2.9h0c-0.1 0 0 0-0.1 0-14.2 0-26.4-8.5-31.8-20.7l-7.7-17.3c-2.2 1.5-4.6 2.7-6.8 4.2-6.7 4.8-13.1 9.8-19.4 15.3-8.1 7-15.6 14.3-22.7 22.3-5.5 5.9-10.6 11.9-15.4 18.3-1.4 1.9-2.4 4-3.7 6l17.2 8c11.7 5.6 19.8 17.5 19.8 31.3 0 19.2-15.5 34.7-34.6 34.7-5.3 0-10.3-1.2-14.8-3.3l-17.6-8.2c-3.1 9.7-5.7 20-7.5 30.3-3.8 21.9-12.1 42.6-23.6 60.6l17.8 18.3c6 6.3 9.8 14.8 9.8 24.2 0 19.1-15.6 34.7-34.8 34.7-9.7 0-18.6-4.1-24.9-10.6l-16.8-17.2c-25.5 16.9-56.3 26.9-89.1 27.1-2.1 0-4.1-0.5-6.1-0.5l-5.6 21.5c-4.1 14.7-17.5 25.5-33.5 25.5-19.2 0-34.8-15.6-34.8-34.8 0-2.8 0.3-5.5 0.9-8.1l5.7-21.6c-30.4-15.2-55.2-39.3-71.1-69.2l-22 6.5c-3.1 0.9-6.5 1.4-9.9 1.4-19.1 0-34.6-15.5-34.6-34.6 0-15.7 10.4-29 24.7-33.2l22.6-6.7c-0.3-3.9-0.4-7.5-0.4-11.5 0-8.7 0.7-17.3 2-25.7 3.4-20.2 9.3-39.4 14.7-59l-20.2-6.9c-13.6-4.7-23.3-17.6-23.3-32.7 0-19.1 15.5-34.6 34.6-34.6 4 0 7.8 0.6 11.3 1.8l20.5 7.1c12.5-30 27.6-58.8 44.9-85.8l-17.3-12.6c-8.7-6.3-14.3-16.5-14.3-28 0-7.7 2.5-14.7 6.7-20.4 6.3-8.7 16.6-14.2 28.1-14.2 7.7 0 14.8 2.4 20.5 6.6l17.2 12.6c20.9-25.1 43.4-47.9 68.3-69l-12.6-16.8c-4.3-5.8-7-13-7-20.8 0-11.4 5.6-21.5 14.1-27.8 5.8-4.3 13-6.9 20.7-6.9 11.4 0 21.6 5.5 28 14l12.3 16.4c27-17.6 55.8-33.1 85.8-46l-6.8-19.1c-1.3-3.7-2-7.6-2-11.7 0-19.2 15.6-34.7 34.8-34.7 15.1 0 28 9.6 32.8 23.1l6.6 18.5c21.3-6.2 42.4-12.5 64.6-16 8.8-1.5 17.7-2.3 26.9-2.3 1.9 0 3.9 0 5.8 0.1l5.5-21c3.9-15 17.5-26.1 33.7-26.1 19.2 0 34.8 15.6 34.8 34.8 0 3-0.4 5.9-1.1 8.7l-5.6 21.2c30.4 15.3 55.1 39.5 71.1 69.5l22.1-6.6c3.2-0.9 6.5-1.5 9.9-1.5 19.1 0 34.7 15.6 34.7 34.7 0 15.7-10.5 28.9-24.8 33.2l-23.1 6.9c0.2 3.5 0.2 7.1 0.2 10.8 0 30.4-8.4 58.9-23 83.3l19 17.1c7 6.3 11.3 15.5 11.3 25.6 0 19.2-15.5 34.7-34.6 34.7-9 0-17.2-3.4-23.4-9l-19.5-17.6c-19.3 13.4-41.9 22.9-65.9 27-8.2 1.6-16.4 3.7-24.2 6l7.8 17.8c1.9 4.3 3 9 3 14 0 14.2-8.5 26.4-20.8 31.7z m-281.9 57.8c34.5 0 62.5-28 62.5-62.5s-28-62.5-62.5-62.5-62.5 28-62.5 62.5 28 62.5 62.5 62.5z m156.3-187.5c17.2 0 31.2-14 31.2-31.2s-14-31.3-31.2-31.3-31.3 14-31.3 31.3 14 31.2 31.3 31.2z m842.3 88.5c0.9 3.1 1.4 6.4 1.4 9.8 0 15.7-10.5 29-24.9 33.2l-22.6 6.7c0.3 3.9 0.4 7.5 0.4 11.5 0 8.7-0.7 17.3-2 25.7-3.4 20.2-9.3 39.4-14.7 59l20.2 6.9c13.6 4.7 23.3 17.5 23.3 32.7 0 19.1-15.5 34.6-34.6 34.6-4 0-7.8-0.6-11.3-1.9l-20.5-7c-12.5 30-27.7 58.8-44.9 85.8l17.3 12.6c9.1 6.3 14.9 16.7 14.9 28.5 0 19.2-15.5 34.7-34.6 34.7-8.1 0-15.4-2.7-21.3-7.3l-17.2-12.5c-20.9 25.1-43.4 47.9-68.3 69l12.6 16.8c4.4 5.8 7 13 7 20.8 0 11.5-5.5 21.6-14.1 27.9-5.8 4.3-13 6.9-20.8 6.9-11.4 0-21.5-5.5-27.9-14l-12.3-16.4c-27 17.6-55.8 33.1-85.8 46l6.8 19.1c1.3 3.7 2 7.6 2 11.7 0 19.1-15.6 34.7-34.8 34.7-15.1 0-28-9.6-32.8-23.1l-6.6-18.5c-21.2 6.2-42.4 12.4-64.6 16.1-8.8 1.5-17.6 2.2-26.9 2.2-1.9 0-3.9 0-5.8-0.1l-5.5 21.1c-3.9 15-17.5 26-33.7 26-19.2 0-34.7-15.5-34.7-34.7 0-3 0.3-6 1.1-8.8l5.5-21.2c-30.4-15.2-55.1-39.4-71.1-69.4l-22.2 6.5c-3.1 1-6.4 1.5-9.9 1.5-19.1 0-34.6-15.6-34.6-34.7 0-15.7 10.4-28.9 24.7-33.2l23.2-6.8c-0.3-3.6-0.3-7.2-0.3-10.8 0-30.5 8.4-59 23-83.3l-19-17.1c-7.2-6.4-11.7-15.7-11.7-26.1 0-19.1 15.6-34.7 34.7-34.7 9.2 0 17.5 3.6 23.8 9.4l19.5 17.6c19.2-13.5 41.8-23 65.9-27.1 8.2-1.6 16.4-3.6 24.2-6l-7.8-17.8c-1.9-4.2-3-9-3-13.9 0-14.2 8.5-26.4 20.7-31.7 4.3-1.9 9.1-2.9 14.1-3 0 0 0 0 0 0 14.2 0 26.4 8.5 31.8 20.7l7.7 17.3c2.2-1.4 4.6-2.7 6.8-4.2 6.8-4.8 13.2-9.8 19.5-15.3 8.1-6.9 15.5-14.2 22.6-22.1 5.5-6 10.6-12 15.5-18.5 1.4-1.9 2.4-4 3.7-6l-17.2-8c-11.7-5.6-19.8-17.5-19.8-31.3 0-19.2 15.5-34.7 34.6-34.7 5.3 0 10.3 1.2 14.8 3.3l17.6 8.3c3.1-9.8 5.7-20.1 7.5-30.4 3.8-21.9 12-42.6 23.6-60.6l-17.8-18.3c-6-6.3-9.8-14.8-9.8-24.1 0-19.2 15.6-34.8 34.8-34.8 9.7 0 18.6 4.1 24.9 10.6l16.8 17.2c25.5-16.9 56.3-26.9 89.1-27.1 2.1 0 4.1 0.5 6.1 0.5l5.6-21.5c4.1-14.6 17.6-25.4 33.5-25.4 19.2 0 34.8 15.6 34.8 34.8 0 2.8-0.3 5.5-0.9 8l-5.7 21.6c30.4 15.2 55.1 39.3 71.1 69.2l22-6.5c3.1-0.9 6.4-1.4 9.9-1.4h0c0 0 0.1 0 0.1 0 15.7 0 29 10.4 33.3 24.8z m-436.1 411.5c34.5 0 62.5-28 62.5-62.5s-28-62.5-62.5-62.5-62.5 28-62.5 62.5 28 62.5 62.5 62.5z" />
  </svg>
