
  <svg height="1000" width="1000.0" xmlns="http://www.w3.org/2000/svg">
    <path d="m998 201c1.3 4.2 2 8.6 2 13.2 0 20.9-14.1 38.6-33.2 44.2l-30.8 9.2c0.3 4.7 0.3 9.5 0.3 14.3 0 40.6-11.3 78.7-30.8 111.2l25.3 22.8c10.1 8.5 16.5 21.2 16.5 35.4 0 25.5-20.8 46.3-46.3 46.3-12.7 0-24.1-5.1-32.5-13.4l-26-23.4c-25.7 18-55.8 30.7-87.9 36.2-10.9 2.1-21.8 4.8-32.2 8l10.5 23.7c2.4 5.7 3.9 12 3.9 18.6 0 25.6-20.8 46.4-46.4 46.4-19 0-35.3-11.4-42.5-27.8l-10.2-23c-3 1.9-6.1 3.6-9 5.6-9 6.4-17.6 13.1-25.9 20.3-10.9 9.3-20.9 19.1-30.4 29.9-7.3 7.8-14 15.8-20.4 24.3-1.9 2.6-3.2 5.4-5 8l22.9 10.7c16.1 7.3 27.1 23.3 27.1 42.1 0 25.5-20.7 46.2-46.2 46.2-7.3 0-14.2-1.7-20.3-4.7l-23.4-11c-4.2 13-7.7 26.7-10.1 40.4-5 29.2-16 56.9-31.5 80.9l23.8 24.4c7.7 8.2 12.4 19.3 12.4 31.5 0 25.5-20.8 46.3-46.3 46.3-12.7 0-24.3-5.2-32.6-13.5l-22.4-22.9c-34.1 22.5-75.1 35.9-118.9 36.1-2.7 0-5.4-0.5-8.1-0.6l-7.4 28.5c-5.2 19.9-23.3 34.6-44.8 34.6h-0.1c-4.1 0-8-0.5-11.7-1.5-20-5.1-34.7-23.2-34.7-44.7 0-4 0.5-7.9 1.5-11.6l7.5-28.8c-40.5-20.2-73.5-52.4-94.8-92.2l-29.3 8.6c-4.2 1.3-8.6 2-13.2 2-25.5 0-46.2-20.7-46.2-46.2 0-20.9 13.9-38.6 33-44.3l30.2-8.9c-0.4-5.3-0.6-10.2-0.6-15.7 0-11.5 0.9-22.8 2.6-33.8 4.6-26.7 10.8-53.5 18.2-79.2l-25.4-8.7c-18.5-6-31.9-23.4-31.9-43.9 0-25.5 20.7-46.2 46.2-46.2 5.6 0 10.9 1 15.9 2.8l25.2 8.6c16.9-40 37.2-78.5 60.4-114.7l-21.6-15.7c-12.2-8.4-20-22.3-20-38.1 0-25.5 20.7-46.3 46.2-46.3 10.7 0 20.6 3.7 28.4 9.8l21.5 15.6c27.9-33.7 58-64.2 91.2-92.6l-15.6-20.8c-5.7-7.7-9.2-17.2-9.2-27.6 0-15.2 7.3-28.6 18.7-37 7.7-5.8 17.3-9.2 27.7-9.2 15.2 0 28.7 7.3 37.2 18.6l15.6 20.7c36.1-23.8 74.6-44.7 114.6-62.1l-8.4-23.6c-1.5-4.6-2.4-9.6-2.4-14.8 0-25.6 20.8-46.4 46.4-46.4 19.9 0 36.9 12.6 43.4 30.3l8.4 23.4c28-8.3 57.4-15.3 86.6-20.3 11.8-2 23.6-3 36-3 2.5 0 5.1 0 7.6 0.1l7.4-28.1c5.1-19.9 23.3-34.8 44.9-34.8 25.6 0 46.4 20.8 46.4 46.4 0 4.1-0.5 8-1.5 11.7l-7.4 28.3c40.5 20.3 73.5 52.6 94.7 92.6l29.6-8.8c4.2-1.2 8.6-1.9 13.2-1.9 21 0 38.7 13.9 44.4 33z m-685.5 517.8c51.7 0 93.8-42.1 93.8-93.8s-42.1-93.7-93.8-93.7-93.7 42-93.7 93.7 42 93.8 93.7 93.8z m156.3-265.7c25.8 0 46.8-21 46.8-46.8s-21-46.9-46.8-46.9-46.9 21-46.9 46.9 21 46.8 46.9 46.8z" />
  </svg>
