
  <svg height="1000" width="1000.0" xmlns="http://www.w3.org/2000/svg">
    <path d="m969.2 395.5c34.3 4.9 42.4 51.4 11.8 67.7l-191.7 102.9 145.5 163.2c23.1 25.9 0 66.9-33.9 59.5l-212.1-46.2 8.1 219.8c0.8 22.8-17.3 37.6-36 37.6-10.1 0-20.3-4.3-27.7-14l-133.2-173.7-133.1 173.7c-7.5 9.7-17.7 14-27.8 14-18.6 0-36.8-14.8-35.9-37.6l8-219.8-212.1 46.2c-2.7 0.6-5.3 0.9-7.9 0.9-29.3 0-47.3-36.5-26-60.4l145.5-163.2-191.7-102.8c-30.6-16.4-22.5-62.9 11.8-67.8l214.8-30.1-81.7-203.8c-13-32.5 22.7-62.8 52-44.2l183.6 117 66.6-209.4c5.3-16.7 19.6-25 33.9-25s28.6 8.3 33.9 25l66.6 209.4 183.6-117c29.3-18.6 65 11.7 52 44.2l-81.7 203.8z m-308 213.3l-69.6-78 91.6-49.2-102.6-14.4 39-97.4-87.8 55.9-31.8-100.1-31.9 100.1-87.7-55.9 39 97.4-102.7 14.4 91.7 49.2-69.6 78 101.4-22.1-3.9 105 63.7-82.9 63.7 82.9-3.9-105z" />
  </svg>
