
  <svg height="1000" width="1250.0" xmlns="http://www.w3.org/2000/svg">
    <path d="m500 656.3c0 86.2-111.9 156.2-250 156.2s-250-70-250-156.2h0c0-30.7-4-14.2 166.1-354.6 34.6-69 133.3-68.9 167.7 0 168.8 337.5 166.2 322.9 166.2 354.6h0z m-250-312.5l-140.6 281.2h281.2z m1000 312.5c0 86.2-111.9 156.2-250 156.2s-250-70-250-156.2h0c0-30.7-4-14.2 166.1-354.6 34.6-69 133.3-68.9 167.7 0 168.8 337.5 166.2 322.9 166.2 354.6z m-390.6-31.3h281.2l-140.6-281.2z m171.9 250c17.2 0 31.2 14 31.2 31.3v62.5c0 17.2-14 31.2-31.2 31.2h-812.5c-17.3 0-31.3-14-31.3-31.2v-62.5c0-17.3 14-31.3 31.3-31.3h343.7v-575.7c-45.9-20.1-80.4-61.5-90.6-111.8h-253.1c-17.3 0-31.3-14-31.3-31.2v-62.5c0-17.3 14-31.3 31.3-31.3h281.9c28.5-37.7 73.3-62.5 124.3-62.5s95.8 24.8 124.3 62.5h281.9c17.3 0 31.3 14 31.3 31.3v62.5c0 17.2-14 31.2-31.3 31.2h-253.1c-10.2 50.3-44.7 91.7-90.6 111.8v575.7h343.7z" />
  </svg>
