<svg height="1000" width="1250" xmlns="http://www.w3.org/2000/svg"><path d="M500 656.3c0 -31.7 2.6 -17.1 -166.2 -354.6 -34.4 -68.9 -133.1 -69 -167.7 0C-4 642.1 0 625.6 0 656.3c0 86.2 111.9 156.2 250 156.2s250 -70 250 -156.2zM250 343.8L390.6 625H109.4L250 343.8zm1000 312.5c0 -31.7 2.6 -17.1 -166.2 -354.6 -34.4 -68.9 -133.1 -69 -167.7 0C746 642.1 750 625.6 750 656.3c0 86.2 111.9 156.2 250 156.2s250 -70 250 -156.2zM859.4 625L1000 343.8 1140.6 625H859.4zm171.9 250H687.5V299.3c45.9 -20.1 80.4 -61.5 90.6 -111.8h253.2c17.2 0 31.2 -14 31.2 -31.2V93.8c0 -17.3 -14 -31.3 -31.2 -31.3h-282C720.8 24.8 676 0 625 0S529.2 24.8 500.7 62.5H218.8c-17.3 0 -31.3 14 -31.3 31.3v62.5c0 17.2 14 31.2 31.3 31.2h253.1c10.2 50.3 44.7 91.7 90.6 111.8V875H218.8c-17.3 0 -31.3 14 -31.3 31.3v62.5c0 17.2 14 31.2 31.3 31.2h812.5c17.2 0 31.2 -14 31.2 -31.2v-62.5c0 -17.3 -14 -31.3 -31.2 -31.3z"/></svg>