
  <svg height="1000" width="1250.0" xmlns="http://www.w3.org/2000/svg">
    <path d="m187.5 906.3c0-17.3 14-31.3 31.3-31.3h343.7v-575.7c-39.9-17.4-70.5-51.2-84.7-92.7l-257.9-86.5c-16.3-5.5-25.1-23.2-19.6-39.5l19.8-59.3c5.5-16.3 23.2-25.2 39.6-19.7l230.3 77.2c27-46.8 77-78.8 135-78.8 86.3 0 156.3 70 156.3 156.2 0 6.7-1.2 13.2-2 19.6l250.8 84.1c16.3 5.5 25.1 23.2 19.6 39.6l-19.8 59.2c-5.5 16.4-23.2 25.2-39.6 19.7l-277.4-93c-8 5.4-16.5 10-25.4 13.9v669.4c0 17.3-14 31.3-31.3 31.3h-437.5c-17.2 0-31.2-14-31.2-31.3v-62.5z m-187.5-312.5c0-31.7-2.6-17.1 166.1-354.6 34.5-68.9 133.2-69 167.7 0 170.2 340.4 166.2 323.9 166.2 354.6h0c0 86.2-111.9 156.2-250 156.2s-250-70-250-156.2z m109.4-31.3h281.2l-140.6-281.2z m640.6 281.3c0-31.7-2.6-17.1 166.1-354.6 34.5-68.9 133.2-69 167.7 0 170.2 340.4 166.2 323.9 166.2 354.6h0c0 86.2-111.9 156.2-250 156.2s-250-70-250-156.2h0z m109.4-31.3h281.2l-140.6-281.2z" />
  </svg>
