
  <svg height="1000" width="1250.0" xmlns="http://www.w3.org/2000/svg">
    <path d="m1031.3 875c17.2 0 31.2 14 31.2 31.3v62.5c0 17.2-14 31.2-31.2 31.2h-437.5c-17.3 0-31.3-14-31.3-31.2v-669.5c-8.9-3.9-17.4-8.5-25.4-13.9l-277.4 93c-16.4 5.5-34.1-3.3-39.6-19.7l-19.8-59.2c-5.5-16.4 3.3-34.1 19.7-39.6l250.7-84.1c-0.8-6.4-1.9-12.9-1.9-19.6 0-86.2 69.9-156.2 156.2-156.2 58 0 108 32 135 78.8l230.3-77.2c16.4-5.4 34.1 3.4 39.6 19.7l19.8 59.3c5.5 16.4-3.3 34.1-19.7 39.6l-257.8 86.4c-14.2 41.5-44.8 75.3-84.7 92.7v575.7h343.8z m218.7-281.2c0 86.2-111.9 156.2-250 156.2s-250-70-250-156.2h0c0-30.7-4-14.2 166.1-354.6 34.6-69 133.3-68.9 167.7 0 168.8 337.5 166.2 322.9 166.2 354.6z m-390.6-31.3h281.2l-140.6-281.2z m-525.6-73.3c168.8 337.5 166.2 322.9 166.2 354.6h0c0 86.2-111.9 156.2-250 156.2s-250-70-250-156.2h0c0-30.7-4-14.2 166.1-354.6 34.6-69 133.3-68.9 167.7 0z m-224.4 323.3h281.2l-140.6-281.2z" />
  </svg>
