
  <svg height="1000" width="1250.0" xmlns="http://www.w3.org/2000/svg">
    <path d="m0 312.5c0-68.9 56.1-125 125-125h187.5v625h-187.5c-68.9 0-125-56.1-125-125v-375z m1125-125c68.9 0 125 56.1 125 125v375c0 68.9-56.1 125-125 125h-187.5v-625h187.5z m-750 625v-625h500v625h-500z m343.8-453.1c-26 0-46.9 20.9-46.9 46.9s20.9 46.8 46.9 46.8 46.8-20.9 46.8-46.8-20.9-46.9-46.8-46.9z m0 187.5c-26 0-46.9 20.9-46.9 46.9s20.9 46.8 46.9 46.8 46.8-20.9 46.8-46.8-20.9-46.9-46.8-46.9z m-187.5-187.5c-26 0-46.9 20.9-46.9 46.9s20.9 46.8 46.9 46.8 46.8-20.9 46.8-46.8-20.9-46.9-46.8-46.9z m0 187.5c-26 0-46.9 20.9-46.9 46.9s20.9 46.8 46.9 46.8 46.8-20.9 46.8-46.8-20.9-46.9-46.8-46.9z" />
  </svg>
