<svg height="1000" width="1250" xmlns="http://www.w3.org/2000/svg"><path d="M0 312.5v375c0 68.9 56.1 125 125 125h187.5v-625H125c-68.9 0 -125 56.1 -125 125zm1125 -125H937.5v625H1125c68.9 0 125 -56.1 125 -125v-375c0 -68.9 -56.1 -125 -125 -125zm-750 625h500v-625H375v625zM718.8 359.4c25.9 0 46.8 20.9 46.8 46.9s-20.9 46.8 -46.8 46.8 -46.9 -20.9 -46.9 -46.8 20.9 -46.9 46.9 -46.9zm0 187.5c25.9 0 46.8 20.9 46.8 46.9s-20.9 46.8 -46.8 46.8 -46.9 -20.9 -46.9 -46.8 20.9 -46.9 46.9 -46.9zM531.3 359.4c25.9 0 46.8 20.9 46.8 46.9s-20.9 46.8 -46.8 46.8 -46.9 -20.9 -46.9 -46.8 20.9 -46.9 46.9 -46.9zm0 187.5c25.9 0 46.8 20.9 46.8 46.9s-20.9 46.8 -46.8 46.8 -46.9 -20.9 -46.9 -46.8 20.9 -46.9 46.9 -46.9z"/></svg>