<svg height="1000" width="1000" xmlns="http://www.w3.org/2000/svg"><path d="M968.8 250v31.3a15.6 -15.6 0 0 0 -15.7 15.6h-46.8v23.4c0 13 -10.5 23.5 -23.5 23.5H117.2c-13 0 -23.4 -10.5 -23.4 -23.5v-23.4H46.9A15.6 -15.6 0 0 0 31.3 281.3V250a15.6 -15.6 0 0 0 9.6 -14.4L494 63.7a15.6 -15.6 0 0 0 12 0l453.1 171.9a15.6 -15.6 0 0 0 9.7 14.4zm-46.9 593.8H78.1c-25.9 0 -46.8 20.9 -46.8 46.8v31.3a15.6 -15.6 0 0 1 15.6 15.6h906.2a15.6 -15.6 0 0 1 15.7 -15.6v-31.3c0 -25.9 -21 -46.8 -46.9 -46.8zM187.5 375v375h-70.3c-13 0 -23.4 10.5 -23.4 23.4v39.1h812.5v-39.1c0 -12.9 -10.5 -23.4 -23.5 -23.4h-70.3V375h-125v375h-125V375h-125v375h-125V375h-125z"/></svg>