
  <svg height="1000" width="1000.0" xmlns="http://www.w3.org/2000/svg">
    <path d="m0 875v-750h35.2v750h-35.2z m52.5-0.5v-749.5h17.8v749.5h-17.8z m53 0v-749.5h17.3v749.5h-17.3z m87.6 0v-749.5h17.3v749.5h-17.3z m70.3 0v-749.5h34.6v749.5h-34.6z m87.6 0v-749.5h17.3v749.5h-17.3z m35.2 0v-749.5h17.3v749.5h-17.3z m35.1 0v-749.5h17.3v749.5h-17.3z m69.8 0v-749.5h35.1v749.5h-35.1z m87.6 0v-749.5h35.1v749.5h-35.1z m70.3 0v-749.5h35.2v749.5h-35.2z m70.3 0v-749.5h35.2v749.5h-35.2z m52.5 0v-749.5h35.1v749.5h-35.1z m88.1 0v-749.5h52.5v749.5h-52.5z m69.8 0v-749.5h17.8v749.5h-17.8z m35.1 0.5v-750h35.2v750h-35.2z" />
  </svg>
