
  <svg height="1000" width="875.0" xmlns="http://www.w3.org/2000/svg">
    <path d="m31.3 257.8c-17.3 0-31.3-14-31.3-31.2v-78.2c0-17.2 14-31.2 31.3-31.2h812.5c17.2 0 31.2 14 31.2 31.2v78.2c0 17.2-14 31.2-31.2 31.2h-812.5z m0 312.5c-17.3 0-31.3-14-31.3-31.2v-78.2c0-17.2 14-31.2 31.3-31.2h812.5c17.2 0 31.2 14 31.2 31.2v78.2c0 17.2-14 31.2-31.2 31.2h-812.5z m0 312.5c-17.3 0-31.3-14-31.3-31.2v-78.2c0-17.2 14-31.2 31.3-31.2h812.5c17.2 0 31.2 14 31.2 31.2v78.2c0 17.2-14 31.2-31.2 31.2h-812.5z" />
  </svg>
