<svg height="1000" width="875" xmlns="http://www.w3.org/2000/svg"><path d="M31.3 257.8h812.5c17.2 0 31.2 -14 31.2 -31.2v-78.2c0 -17.2 -14 -31.2 -31.2 -31.2H31.3C14 117.2 0 131.2 0 148.4v78.2c0 17.2 14 31.2 31.3 31.2zm0 312.5h812.5c17.2 0 31.2 -14 31.2 -31.2v-78.2c0 -17.2 -14 -31.2 -31.2 -31.2H31.3C14 429.7 0 443.7 0 460.9v78.2c0 17.2 14 31.2 31.3 31.2zm0 312.5h812.5c17.2 0 31.2 -14 31.2 -31.2v-78.2c0 -17.2 -14 -31.2 -31.2 -31.2H31.3C14 742.2 0 756.2 0 773.4v78.2c0 17.2 14 31.2 31.3 31.2z"/></svg>