<svg height="1000" width="968.8" xmlns="http://www.w3.org/2000/svg"><path d="M719.7 710.7L776 683.6c21.7 44.7 50.8 84.4 86.1 118.9 66.4 -83 106.5 -188 106.5 -302.5 0 -114.3 -39.9 -219.1 -105.9 -302 -34.8 33.8 -63.7 72.5 -85.2 116.3l-56 -27.6c25 -50.8 58.6 -95.7 99.2 -134.7C733.6 67.8 615.2 15.6 484.4 15.6c-130.7 0 -249 52 -336.2 136.2 40.5 38.8 74.1 83.7 99.1 134.3l-56.1 27.6C169.7 270.1 141 231.4 106.3 197.7 39.8 280.7 0 385.5 0 500s39.8 219.3 106.3 302.1c35.5 -34.5 64.8 -74.2 86.5 -119.1l56.2 27.2c-25.2 52.1 -59.2 98.2 -100.6 138 87 84.2 205.3 136.2 336 136.2 130.4 0 248.6 -51.8 335.7 -135.8C778.9 808.8 744.9 762.9 719.7 710.7zM273.8 648.2l-59.5 -19.1c29.1 -90.6 24.8 -183.2 -1.2 -261.7l59.4 -19.5c29.3 89 35.1 195.1 1.3 300.3zM696.3 348.6l59.4 19.6c-25.8 78.3 -30.3 170.9 -1.2 261.7L694.9 649C661.1 543.6 667 437.5 696.3 348.6z"/></svg>