
  <svg height="1000" width="968.8" xmlns="http://www.w3.org/2000/svg">
    <path d="m719.7 710.7c25.2 52.2 59.2 98.1 100.4 137.9-87.1 84-205.3 135.8-335.7 135.8-130.7 0-249-52-336-136.2 41.4-39.8 75.4-85.9 100.6-138l-56.2-27.2c-21.7 44.9-51 84.6-86.5 119.1-66.5-82.8-106.3-187.6-106.3-302.1s39.8-219.3 106.3-302.3c34.7 33.7 63.4 72.4 84.9 116l56.1-27.6c-25-50.6-58.6-95.5-99.1-134.3 87.2-84.2 205.5-136.2 336.2-136.2 130.8 0 249.2 52.2 336.3 136.4-40.6 39-74.2 83.9-99.2 134.7l56 27.6c21.5-43.8 50.4-82.5 85.2-116.3 66 82.9 105.9 187.7 105.9 302 0 114.5-40.1 219.5-106.5 302.5-35.3-34.5-64.4-74.2-86.1-118.9z m-445.9-62.5c33.8-105.2 28-211.3-1.3-300.4l-59.4 19.6c26 78.5 30.3 171.1 1.2 261.7z m422.5-299.6c-29.3 88.9-35.2 195-1.4 300.4l59.6-19.1c-29.1-90.8-24.6-183.4 1.2-261.7z" />
  </svg>
