<svg height="1000" width="968.8" xmlns="http://www.w3.org/2000/svg"><path d="M414.6 20.1C329.1 32.4 246.3 67.2 176 125.2l151.1 151.2c54.3 -70 84.6 -158.6 87.5 -256.3zm69.8 413.5L792.8 125.2C710 56.8 610 20.7 508.6 15.6c-2.3 124.8 -42 238.9 -114.7 327.6l90.5 90.4zm-374.8 -242C51.6 261.9 16.8 344.7 4.5 430.3c97.6 -3 186.5 -33.2 256.2 -87.5L109.6 191.6zm531.6 398.8C729.7 518 843.8 478.3 968.8 475.8 963.7 374.4 927.5 274.4 859.2 191.6L550.8 500l90.4 90.4zm-156.8 -24L176 874.8c82.8 68.2 182.8 104.5 284.2 109.6 2.5 -125 42.1 -239.1 114.6 -327.6l-90.4 -90.4zm374.8 242c58 -70.3 92.8 -153.1 105.1 -238.7 -97.9 3.2 -186.6 33.4 -256.3 87.5l151.2 151.2zM327.5 409.6C238.9 482.2 124.8 522.1 0 524.2c5.1 101.4 41.2 201.4 109.6 284.2L418 500l-90.5 -90.4zm226.6 570.3c85.5 -12.3 168.4 -47.1 238.7 -105.1L641.6 723.6c-54.1 69.8 -84.4 158.6 -87.5 256.3z"/></svg>