<svg height="1000" width="1125" xmlns="http://www.w3.org/2000/svg"><path d="M1031.5 588.5l92.3 -406.2c6.7 -29.4 -15.6 -57.3 -45.7 -57.3H311L293.1 37.5C288.6 15.7 269.4 0 247.1 0H46.9C21 0 0 21 0 46.9v31.2C0 104 21 125 46.9 125h136.5l137.2 670.8c-32.9 18.8 -55 54.2 -55 94.8 0 60.4 49 109.4 109.4 109.4S484.4 951 484.4 890.6c0 -30.6 -12.6 -58.2 -32.9 -78.1H861c-20.3 19.9 -32.9 47.5 -32.9 78.1 0 60.4 49 109.4 109.4 109.4s109.4 -49 109.4 -109.4c0 -43.3 -25.2 -80.7 -61.7 -98.4L996 744.8c6.6 -29.4 -15.7 -57.3 -45.7 -57.3H426L413.2 625h572.6c21.9 0 40.8 -15.1 45.7 -36.5z"/></svg>