
  <svg height="1000" width="968.8" xmlns="http://www.w3.org/2000/svg">
    <path d="m414.6 20.1c-2.9 97.7-33.2 186.3-87.5 256.3l-151.1-151.2c70.3-58 153.1-92.8 238.6-105.1z m69.8 413.5l-90.5-90.4c72.7-88.7 112.4-202.8 114.7-327.6 101.4 5.1 201.4 41.2 284.2 109.6z m-374.8-242l151.1 151.2c-69.7 54.3-158.6 84.5-256.2 87.5 12.3-85.6 47.1-168.4 105.1-238.7z m531.6 398.8l-90.4-90.4 308.4-308.4c68.3 82.8 104.5 182.8 109.5 284.2-125 2.5-239 42.2-327.5 114.6z m-156.8-24l90.4 90.4c-72.5 88.5-112.1 202.6-114.6 327.6-101.4-5.1-201.4-41.4-284.2-109.6z m374.8 242l-151.2-151.2c69.7-54.1 158.4-84.3 256.3-87.5-12.3 85.6-47.1 168.4-105.1 238.7z m-531.7-398.8l90.5 90.4-308.4 308.4c-68.4-82.8-104.5-182.8-109.6-284.2 124.8-2.1 238.9-42 327.5-114.6z m226.6 570.3c3.1-97.7 33.4-186.5 87.5-256.3l151.2 151.2c-70.3 58-153.2 92.8-238.7 105.1z" />
  </svg>
