
  <svg height="1000" width="1000.0" xmlns="http://www.w3.org/2000/svg">
    <path d="m62.5 750v-93.7h875v93.7c-0.1 55.2-24.2 104.8-62.5 138.8v80c0 17.2-14 31.2-31.2 31.2h-62.5c-17.3 0-31.3-14-31.3-31.2v-31.3h-500v31.3c0 17.2-14 31.2-31.2 31.2h-62.5c-17.3 0-31.3-14-31.3-31.2v-80c-38.3-34-62.4-83.6-62.5-138.8z m906.3-250c17.2 0 31.2 14 31.2 31.3v31.2c0 17.2-14 31.3-31.2 31.3h-937.5c-17.3 0-31.3-14.1-31.3-31.3v-31.2c0-17.3 14-31.3 31.3-31.3h31.2v-364.7c0-74.7 60.6-135.3 135.3-135.3 37.3 0 71.1 15.1 95.6 39.6l37.6 37.6c58.4-25.6 115.5-14.8 155.7 16.9l0.4-0.4c5.6-5.6 13.4-9.1 22.1-9.1s16.4 3.5 22.1 9.1l22 22.1c5.7 5.7 9.2 13.5 9.2 22.1s-3.5 16.5-9.2 22.1l-205.8 205.8c-5.6 5.7-13.4 9.2-22.1 9.2s-16.4-3.5-22.1-9.2l-22-22.1c-5.7-5.6-9.2-13.4-9.2-22 0-8.6 3.5-16.4 9.2-22.1l0.3-0.3c-31.7-40.3-42.5-97.4-16.9-155.7l-37.6-37.6c-7.5-7.5-17.9-12.2-29.3-12.2-22.9 0-41.5 18.6-41.5 41.5v364.7h812.5z" />
  </svg>
