<svg height="1000" width="1000" xmlns="http://www.w3.org/2000/svg"><path d="M953.1 500H156.3V218.8c0 -34.5 28 -62.5 62.5 -62.5 22.1 0 41.6 11.6 52.7 29 -32.2 49.2 -28.7 116.4 13.4 162.2 -8.2 9.2 -7.9 23.3 .9 32.1l22.1 22.1c9.2 9.1 24 9.1 33.2 0L526.7 216.1c9.1 -9.2 9.1 -24 0 -33.2l-22.1 -22.1c-8.8 -8.8 -22.9 -9.1 -32.1 -.9C437.4 127.7 389.9 118 347.1 129.9 318.9 89.2 271.9 62.5 218.8 62.5c-86.2 0 -156.3 70.1 -156.3 156.3V500H46.9C21 500 0 521 0 546.9v31.2C0 604 21 625 46.9 625h15.6v62.5c0 55.5 24.1 105.4 62.5 139.7v63.4c0 25.9 21 46.9 46.9 46.9h31.2c25.9 0 46.9 -21 46.9 -46.9V875h500v15.6c0 25.9 21 46.9 46.9 46.9h31.2c25.9 0 46.9 -21 46.9 -46.9v-63.4c38.4 -34.3 62.5 -84.2 62.5 -139.7V625h15.6c25.9 0 46.9 -21 46.9 -46.9v-31.2C1000 521 979 500 953.1 500z"/></svg>