
  <svg height="1000" width="1250.0" xmlns="http://www.w3.org/2000/svg">
    <path d="m343.8 500c-86.2 0-156.3-70.1-156.3-156.2s70.1-156.3 156.3-156.3 156.2 70.1 156.2 156.3-70.1 156.2-156.2 156.2z m687.5-250c120.8 0 218.7 97.9 218.7 218.8v375c0 17.2-14 31.2-31.2 31.2h-62.5c-17.3 0-31.3-14-31.3-31.2v-93.8h-1000v93.8c0 17.2-14 31.2-31.2 31.2h-62.5c-17.3 0-31.3-14-31.3-31.2v-687.5c0-17.3 14-31.3 31.3-31.3h62.5c17.2 0 31.2 14 31.2 31.3v406.2h437.5v-281.2c0-17.3 14-31.3 31.3-31.3h437.5z" />
  </svg>
