<svg height="1000" width="875" xmlns="http://www.w3.org/2000/svg"><path d="M718.8 187.5H625v-78.1C625 83.5 604 62.5 578.1 62.5H46.9C21 62.5 0 83.5 0 109.4v781.2c0 25.9 21 46.9 46.9 46.9h531.2c25.9 0 46.9 -21 46.9 -46.9v-82.2l157.4 -70.3C838.7 713 875 657 875 595.4V343.8C875 257.6 804.9 187.5 718.8 187.5zM750 595.4A31.3 -31.3 0 0 0 731.5 624L625 671.5v-359h93.8c17.2 0 31.2 14 31.2 31.3v251.6zM406.3 750C389 750 375 736 375 718.8V281.3C375 264 389 250 406.3 250s31.2 14 31.2 31.3v437.5c0 17.2 -14 31.2 -31.2 31.2zm-187.5 0c-17.3 0 -31.3 -14 -31.3 -31.2V281.3c0 -17.3 14 -31.3 31.3 -31.3s31.2 14 31.2 31.3v437.5C250 736 236 750 218.8 750z"/></svg>