
  <svg height="1000" width="875.0" xmlns="http://www.w3.org/2000/svg">
    <path d="m718.8 187.5c86.1 0 156.2 70.1 156.2 156.3v251.6c0 61.6-36.3 117.6-92.6 142.7l-157.4 70.3v82.2c0 25.9-21 46.9-46.9 46.9h-531.2c-25.9 0-46.9-21-46.9-46.9v-781.2c0-25.9 21-46.9 46.9-46.9h531.2c25.9 0 46.9 21 46.9 46.9v78.1h93.8z m31.2 407.9v-251.6c0-17.3-14-31.3-31.2-31.3h-93.8v359l106.5-47.5c10.9-4.9 18.5-15.9 18.5-28.6z m-343.7 154.6c17.2 0 31.2-14 31.2-31.2v-437.5c0-17.3-14-31.3-31.2-31.3s-31.3 14-31.3 31.3v437.5c0 17.2 14 31.2 31.3 31.2z m-187.5 0c17.2 0 31.2-14 31.2-31.2v-437.5c0-17.3-14-31.3-31.2-31.3s-31.3 14-31.3 31.3v437.5c0 17.2 14 31.2 31.3 31.2z" />
  </svg>
