<svg height="1000" width="1250" xmlns="http://www.w3.org/2000/svg"><path d="M1237.9 894.7l-177 -136.8c.4 -2.7 1.6 -5.2 1.6 -7.9 .1 -14.8 -5.1 -29.8 -16.8 -42.4C1007.9 667 937.3 606 937.3 406.2 937.3 254.5 830.9 133 687.5 103.2V62.5C687.5 28 659.5 0 625 0s-62.5 28 -62.5 62.5v40.7c-78.7 16.4 -145.8 60.7 -190.6 122.2L88.8 6.6C75.2 -4 55.5 -1.6 44.9 12.1L6.6 61.4C-4 75 -1.6 94.7 12.1 105.3l1149.1 888.1c13.6 10.6 33.3 8.2 43.9 -5.5l38.3 -49.3c10.6 -13.6 8.2 -33.3 -5.5 -43.9zM307.1 491.3C290.3 624 236 673.6 204.3 707.6c-11.7 12.6 -16.9 27.7 -16.8 42.4 .2 32 25.4 62.5 62.7 62.5h472.5L307.1 491.3zM625 1000c69 0 124.9 -56 124.9 -125H500.1c0 69 55.9 125 124.9 125z"/></svg>