
  <svg height="1000" width="1250.0" xmlns="http://www.w3.org/2000/svg">
    <path d="m1237.9 894.7c13.7 10.6 16.1 30.3 5.5 43.9l-38.3 49.3c-10.6 13.7-30.3 16.1-43.9 5.5l-1149.1-888.1c-13.7-10.6-16.1-30.3-5.5-43.9l38.3-49.3c10.6-13.7 30.3-16.1 43.9-5.5l283.1 218.8c44.8-61.5 111.9-105.8 190.6-122.2v-40.7c0-34.5 28-62.5 62.5-62.5s62.5 28 62.5 62.5v40.7c143.4 29.8 249.8 151.3 249.8 303 0 199.8 70.6 260.8 108.4 301.4 11.7 12.6 16.9 27.6 16.8 42.4 0 2.7-1.2 5.2-1.6 7.9z m-930.8-403.4l415.6 321.2h-472.5c-37.3 0-62.5-30.5-62.7-62.5-0.1-14.7 5.1-29.8 16.8-42.4 31.7-34 86-83.6 102.8-216.3z m317.9 508.7c-69 0-124.9-56-124.9-125h249.8c0 69-55.9 125-124.9 125z" />
  </svg>
