<svg height="1000" width="1250" xmlns="http://www.w3.org/2000/svg"><path d="M718.8 62.5H531.3c-34.6 0 -62.5 28 -62.5 62.5v187.5c0 34.5 27.9 62.5 62.5 62.5h187.5c34.5 0 62.5 -28 62.5 -62.5V125c0 -34.5 -28 -62.5 -62.5 -62.5zM406.3 171.9H240.7C222.2 126.1 177.4 93.8 125 93.8 56 93.8 0 149.7 0 218.8s56 125 125 125c52.4 0 97.2 -32.4 115.7 -78.2h155.7C288.3 329.1 209.2 436.2 182.5 562.5H279c22.1 -81.3 71.8 -150.8 138.7 -198.4C410.5 348.4 406.3 331 406.3 312.5V171.9zM312.5 625H125c-34.5 0 -62.5 28 -62.5 62.5V875c0 34.5 28 62.5 62.5 62.5h187.5c34.5 0 62.5 -28 62.5 -62.5V687.5C375 653 347 625 312.5 625zM1125 93.8c-52.4 0 -97.2 32.3 -115.7 78.1H843.8v140.6c0 18.5 -4.3 35.9 -11.5 51.6 66.9 47.6 116.6 117.1 138.7 198.4h96.5C1040.8 436.2 961.7 329.1 853.6 265.6h155.7c18.5 45.8 63.3 78.2 115.7 78.2 69 0 125 -56 125 -125s-56 -125 -125 -125zm0 531.2H937.5C903 625 875 653 875 687.5V875c0 34.5 28 62.5 62.5 62.5H1125c34.5 0 62.5 -28 62.5 -62.5V687.5c0 -34.5 -28 -62.5 -62.5 -62.5z"/></svg>