
  <svg height="1000" width="1250.0" xmlns="http://www.w3.org/2000/svg">
    <path d="m718.8 62.5c34.5 0 62.5 28 62.5 62.5v187.5c0 34.5-28 62.5-62.5 62.5h-187.5c-34.6 0-62.5-28-62.5-62.5v-187.5c0-34.5 27.9-62.5 62.5-62.5h187.5z m-312.5 109.4v140.6c0 18.5 4.2 35.9 11.4 51.6-66.9 47.6-116.6 117.1-138.7 198.4h-96.5c26.7-126.3 105.8-233.4 213.9-296.9h-155.7c-18.5 45.8-63.3 78.2-115.7 78.2-69 0-125-56-125-125s56-125 125-125c52.4 0 97.2 32.3 115.7 78.1h165.5z m-93.8 453.1c34.5 0 62.5 28 62.5 62.5v187.5c0 34.5-28 62.5-62.5 62.5h-187.5c-34.5 0-62.5-28-62.5-62.5v-187.5c0-34.5 28-62.5 62.5-62.5h187.5z m812.5-531.2c69 0 125 55.9 125 125s-56 125-125 125c-52.4 0-97.2-32.4-115.7-78.2h-155.7c108.1 63.5 187.2 170.6 213.9 296.9h-96.5c-22.1-81.3-71.8-150.8-138.7-198.4 7.2-15.7 11.4-33.1 11.4-51.6v-140.6h165.6c18.5-45.8 63.3-78.2 115.7-78.2z m0 531.2c34.5 0 62.5 28 62.5 62.5v187.5c0 34.5-28 62.5-62.5 62.5h-187.5c-34.5 0-62.5-28-62.5-62.5v-187.5c0-34.5 28-62.5 62.5-62.5h187.5z" />
  </svg>
