
  <svg height="1000" width="875.0" xmlns="http://www.w3.org/2000/svg">
    <path d="m875 700c0 18.8-6.3 31.3-18.7 37.5-6.3 25-6.3 112.5 0 143.8 12.4 12.4 18.7 24.9 18.7 37.5v31.2c0 31.3-25 50-50 50h-637.5c-106.2 0-187.5-81.2-187.5-187.5v-625c0-106.3 81.3-187.5 187.5-187.5h637.5c31.3 0 50 18.7 50 50v650z m-593.7-418.7v62.5c0 17.2 13.9 31.2 31.2 31.2h93.8v218.8c0 17.2 13.9 31.2 31.2 31.2h62.5c17.3 0 31.3-14 31.3-31.2v-218.8h93.7c17.3 0 31.3-14 31.3-31.2v-62.5c0-17.3-14-31.3-31.3-31.3h-93.7v-93.7c0-17.3-14-31.3-31.3-31.3h-62.5c-17.3 0-31.2 14-31.2 31.3v93.7h-93.8c-17.3 0-31.2 14-31.2 31.3z m462.5 593.7v-125h-556.3c-31.2 0-62.5 25-62.5 62.5s25 62.5 62.5 62.5h556.3z" />
  </svg>
