<svg height="1000" width="1250" xmlns="http://www.w3.org/2000/svg"><path d="M1001 375c-32 -.1 -62.6 5.8 -90.7 16.6L758.6 147.2A46.9 -46.9 0 0 1 718.8 125h-125c-17.3 0 -31.3 14 -31.3 31.3v31.2c0 17.3 14 31.3 31.3 31.3h98.9l29.1 46.8H500v-31.2c0 -17.3 -14 -31.3 -31.2 -31.3H297.9c-26.2 0 -48.4 21.5 -47.9 47.8 .5 25.4 21.3 46 46.9 46H392l-57.4 92.8c-26.2 -9.4 -54.5 -14.6 -84 -14.7C113.5 374.7 .8 486.4 0 623.5 -.8 762.3 111.4 875 250 875c116.5 0 214.4 -79.7 242.1 -187.5h101.7a46.9 -46.9 0 0 1 39.8 -22.2L801.5 394.1l29.2 47C781 486.9 749.8 552.6 750 625.5 750.3 760 863.1 873.7 997.5 875c137.9 1.3 250.4 -109 252.5 -246.1C1252.1 490.3 1139.6 375.5 1001 375zM364.7 519.1c19 20.6 32.6 46.2 38.4 74.7h-84.6l46.2 -74.7zM250 781.3C163.8 781.3 93.8 711.2 93.8 625S163.8 468.8 250 468.8c11.5 0 22.6 1.2 33.4 3.6L194.5 616c-19.3 31.1 3.2 71.5 39.9 71.5h158.8C369 742.6 313.9 781.3 250 781.3zM567.6 593.8h-69.5c-7.8 -62.1 -38.2 -117 -82.8 -156.4l48.3 -78h249.1L567.6 593.8zm424 187.2C911.4 776.8 847 711.3 843.9 631.1c-1.6 -41.2 12.9 -79.1 37.7 -107.9L968.4 663c9.1 14.7 28.4 19.2 43 10.1l26.6 -16.5c14.7 -9.1 19.2 -28.4 10.1 -43l-86.9 -140a156.1 -156.1 0 0 0 38.8 -4.8c86.2 0 156.3 70 156.3 156.2 0 88.9 -74.8 160.8 -164.7 156z"/></svg>