
  <svg height="1000" width="1250.0" xmlns="http://www.w3.org/2000/svg">
    <path d="m1001 375c138.6 0.5 251.1 115.3 249 253.9-2.1 137.1-114.6 247.4-252.5 246.1-134.4-1.3-247.2-115-247.5-249.5-0.1-72.9 31-138.6 80.7-184.4l-29.2-47-167.9 271.2c-8.3 13.3-23 22.2-39.8 22.2h-101.7c-27.7 107.8-125.6 187.5-242.1 187.5-138.6 0-250.8-112.7-250-251.5 0.8-137.2 113.5-248.8 250.6-248.5 29.5 0.1 57.8 5.3 84 14.7l57.4-92.8h-95.1c-25.6 0-46.4-20.6-46.9-46-0.5-26.3 21.7-47.8 47.9-47.8h170.9c17.2 0 31.2 14 31.2 31.3v31.2h221.8l-29.1-46.9h-98.9c-17.3 0-31.3-13.9-31.3-31.2v-31.3c0-17.2 14-31.2 31.3-31.2h125c16.8 0 31.5 8.8 39.8 22.2l151.7 244.4c28.1-10.8 58.7-16.7 90.7-16.6z m-636.3 144.1l-46.2 74.6h84.6c-5.8-28.4-19.4-54.1-38.4-74.6z m-114.7 262.2c63.9 0 119-38.7 143.2-93.8h-158.8c-36.7 0-59.2-40.4-39.9-71.5l88.9-143.6c-10.8-2.4-21.9-3.6-33.4-3.6-86.2 0-156.2 70-156.2 156.2s70 156.3 156.2 156.3z m317.6-187.5l145.1-234.4h-249.1l-48.3 78c44.6 39.4 75 94.3 82.8 156.4h69.5z m424 187.2c89.9 4.8 164.7-67.1 164.7-156 0-86.2-70.1-156.2-156.3-156.2 0 0 0 0 0 0-13.4 0-26.4 1.7-38.8 4.8l86.9 140c9.1 14.6 4.6 33.9-10.1 43l-26.6 16.5c-14.6 9.1-33.9 4.6-43-10.1l-86.8-139.8c-24.8 28.8-39.3 66.7-37.7 107.9 3.1 80.2 67.5 145.7 147.7 149.9z" />
  </svg>
