
  <svg height="1000" width="1250.0" xmlns="http://www.w3.org/2000/svg">
    <path d="m781.3 187.5c-51.8 0-93.8-42-93.8-93.7s42-93.8 93.8-93.8 93.7 42 93.7 93.8-42 93.7-93.7 93.7z m-7.9 236.3l-80.7-64.6-113.8 97.5 80.8 53.8c16.8 11.2 27.8 30.3 27.8 52v250c0 34.5-28 62.5-62.5 62.5s-62.5-28-62.5-62.5v-216.6l-159.6-106.4c-16.8-11.3-27.9-30.3-27.9-52 0-19 8.5-36 21.9-47.5l218.7-187.5c10.9-9.4 25.2-15 40.7-15 14.8 0 28.3 5.1 39 13.7l139.1 111.3h103.1c34.5 0 62.5 28 62.5 62.5s-28 62.5-62.5 62.5h-125c0 0-0.1 0-0.2 0-14.7 0-28.2-5.1-38.9-13.7z m226.6 76.2c138 0 250 112 250 250s-112 250-250 250-250-112-250-250 112-250 250-250z m0 375c69 0 125-56 125-125s-56-125-125-125-125 56-125 125 56 125 125 125z m-750-375c138 0 250 112 250 250s-112 250-250 250-250-112-250-250 112-250 250-250z m0 375c69 0 125-56 125-125s-56-125-125-125-125 56-125 125 56 125 125 125z" />
  </svg>
