
  <svg height="1000" width="1000.0" xmlns="http://www.w3.org/2000/svg">
    <path d="m812.5 93.8v93.7h-187.5v-93.7c0-17.3 14-31.3 31.3-31.3h125c17.2 0 31.2 14 31.2 31.3z m-687.7 218.7c1-34.4 28-62.5 62.4-62.5h187.8v312.5h-62.5v312.5c0 34.5-28 62.5-62.5 62.5h-187.5c-34.5 0-62.5-28-62.5-62.5v-85.9c6.8-253.5 119.9-293.3 124.8-476.6z m750.4 0c4.9 183.3 118 223.1 124.8 476.6v85.9c0 34.5-28 62.5-62.5 62.5h-187.5c-34.5 0-62.5-28-62.5-62.5v-312.5h-62.5v-312.5h187.8c34.4 0 61.4 28.1 62.4 62.5z m-531.4-250c17.2 0 31.2 14 31.2 31.3v93.7h-187.5v-93.7c0-17.3 14-31.3 31.3-31.3h125z m93.7 500v-312.5h125v312.5h-125z" />
  </svg>
