<svg height="1000" width="1000" xmlns="http://www.w3.org/2000/svg"><path d="M812.5 93.8c0 -17.3 -14 -31.3 -31.2 -31.3h-125C639 62.5 625 76.5 625 93.8v93.7h187.5V93.8zM124.8 312.5C119.9 495.8 6.8 535.6 0 789.1V875c0 34.5 28 62.5 62.5 62.5H250c34.5 0 62.5 -28 62.5 -62.5V562.5H375V250H187.2c-34.4 0 -61.4 28.1 -62.4 62.5zm750.4 0c-1 -34.4 -28 -62.5 -62.4 -62.5H625v312.5h62.5V875c0 34.5 28 62.5 62.5 62.5h187.5c34.5 0 62.5 -28 62.5 -62.5v-85.9C993.2 535.6 880.1 495.8 875.2 312.5zM343.8 62.5h-125c-17.3 0 -31.3 14 -31.3 31.3v93.7H375V93.8C375 76.5 361 62.5 343.8 62.5zm93.7 500h125V250h-125v312.5z"/></svg>