
  <svg height="1000" width="875.0" xmlns="http://www.w3.org/2000/svg">
    <path d="m875 750c-54.7 0-61.1-62.5-145.5-62.5-84.8 0-91.5 62.5-146 62.5-54.1 0-61.4-62.5-146-62.5-83.7 0-92.2 62.5-145.5 62.5-55 0-60.9-62.5-146-62.5-85.1 0-91.1 62.5-146 62.5v-156.2c0-51.8 42-93.8 93.8-93.8h31.2v-281.2h125v281.2h125v-281.2h125v281.2h125v-281.2h125v281.2h31.3c51.7 0 93.7 42 93.7 93.8v156.2z m0 250h-875v-187.5c84.7 0 91.3-62.5 146-62.5 54.6 0 61 62.5 146 62.5 83.7 0 92.2-62.5 145.5-62.5 55 0 60.9 62.5 146 62.5 84.7 0 91.3-62.5 146-62.5 53.7 0 61 62.5 145.5 62.5v187.5z m-687.5-812.5c-34.7 0-62.5-27.8-62.5-62.5 0-60.5 62.5-44.9 62.5-125 23.4 0 62.5 57.6 62.5 109.4s-27.8 78.1-62.5 78.1z m250 0c-34.7 0-62.5-27.8-62.5-62.5 0-60.5 62.5-44.9 62.5-125 23.4 0 62.5 57.6 62.5 109.4s-27.8 78.1-62.5 78.1z m250 0c-34.7 0-62.5-27.8-62.5-62.5 0-60.5 62.5-44.9 62.5-125 23.4 0 62.5 57.6 62.5 109.4s-27.8 78.1-62.5 78.1z" />
  </svg>
