<svg height="1000" width="1000" xmlns="http://www.w3.org/2000/svg"><path d="M812.5 750h-500c-69 0 -125 56 -125 125v62.5c0 34.5 28 62.5 62.5 62.5h625c34.5 0 62.5 -28 62.5 -62.5V875c0 -69 -56 -125 -125 -125zm-250 187.5C528 937.5 500 909.5 500 875s28 -62.5 62.5 -62.5 62.5 28 62.5 62.5 -28 62.5 -62.5 62.5zM640.6 125h325.3L1000 0H93.8C42 0 0 42 0 93.8v312.5C0 458 42 500 93.8 500h201.6l17.1 187.5h500l34.1 -125h-206c-8.6 0 -15.6 -7 -15.6 -15.6v-31.3c0 -8.6 7 -15.6 15.6 -15.6h223l34.1 -125H640.6C632 375 625 368 625 359.4v-31.3c0 -8.6 7 -15.6 15.6 -15.6h274.2l34.1 -125H640.6c-8.6 0 -15.6 -7 -15.6 -15.6v-31.3c0 -8.6 7 -15.6 15.6 -15.6zM125 375V125h136.4l22.7 250H125z"/></svg>