
  <svg height="1000" width="1000.0" xmlns="http://www.w3.org/2000/svg">
    <path d="m812.5 750c69 0 125 56 125 125v62.5c0 34.5-28 62.5-62.5 62.5h-625c-34.5 0-62.5-28-62.5-62.5v-62.5c0-69 56-125 125-125h500z m-250 187.5c34.5 0 62.5-28 62.5-62.5s-28-62.5-62.5-62.5-62.5 28-62.5 62.5 28 62.5 62.5 62.5z m78.1-812.5c-8.6 0-15.6 7-15.6 15.6v31.3c0 8.6 7 15.6 15.6 15.6h308.3l-34.1 125h-274.2c-8.6 0-15.6 7-15.6 15.6v31.3c0 8.6 7 15.6 15.6 15.6h257.1l-34.1 125h-223c-8.6 0-15.6 7-15.6 15.6v31.3c0 8.6 7 15.6 15.6 15.6h206l-34.1 125h-500l-17.1-187.5h-201.7c-51.7 0-93.7-42-93.7-93.7v-312.5c0-51.8 42-93.8 93.7-93.8h906.3l-34.1 125h-325.3z m-515.6 250h159.1l-22.7-250h-136.4v250z" />
  </svg>
