<svg height="1000" width="750" xmlns="http://www.w3.org/2000/svg"><path d="M742.5 997.7A15.6 -15.6 0 0 0 721 992.5L476.2 589.3a62.3 -62.3 0 0 1 25.3 -18.5l246.2 405.5a15.6 -15.6 0 0 0 -5.2 21.4zM278.9 613.9l-63.5 174.8 70.5 172.4c13.1 32 49.6 47.3 81.5 34.2 32 -13 47.3 -49.5 34.2 -81.5L278.9 613.9zm-91.4 -442c47.5 0 85.9 -38.5 85.9 -86S235 0 187.5 0s-85.9 38.5 -85.9 85.9 38.4 86 85.9 86zm302.4 330.3L255.5 205.3c-9.2 -11.7 -22.9 -17.8 -36.7 -17.8h-62.5v.1c-14 0 -27.8 6.1 -37 18L0 358.9v186.9c0 26.3 21.5 48.4 47.8 47.9 25.5 -.4 46 -21.2 46 -46.8V391.1L125 350.9v274.8L19.4 916.1c-11.8 32.5 4.9 68.3 37.4 80.1 32.4 11.8 68.3 -4.9 80.1 -37.4l128.7 -354V395.4l-61.3 -77.8a7.8 -7.8 0 1 0 12.2 -9.7l199.8 252.4c17.9 22.6 47.6 22.1 65.9 7.7 20.3 -16 23.7 -45.5 7.7 -65.8z"/></svg>