
  <svg height="1000" width="750.0" xmlns="http://www.w3.org/2000/svg">
    <path d="m742.5 997.7c-2.4 1.5-5.2 2.3-8.1 2.3-5.7 0-10.6-3-13.4-7.5l-244.8-403.2c10-4 18.7-10.3 25.3-18.5l246.2 405.5c1.5 2.3 2.3 5.1 2.3 8.1 0 5.6-3 10.6-7.5 13.3z m-463.6-383.8l122.7 299.9c13.1 32-2.2 68.5-34.2 81.5-31.9 13.1-68.4-2.2-81.5-34.2l-70.5-172.4z m-91.4-442c-47.5 0-85.9-38.5-85.9-86s38.4-85.9 85.9-85.9 85.9 38.5 85.9 85.9-38.4 86-85.9 86z m302.4 330.3c16 20.3 12.6 49.8-7.7 65.8-18.3 14.4-48 14.9-65.9-7.7l-199.8-252.4c-1.4-1.8-3.6-2.9-6.1-2.9-4.3 0-7.8 3.5-7.8 7.8 0 1.8 0.6 3.5 1.7 4.8l61.3 77.8v209.4l-128.7 354c-11.8 32.5-47.7 49.2-80.1 37.4-32.5-11.8-49.2-47.6-37.4-80.1l105.6-290.4v-274.8l-31.3 40.2v155.8c0 25.6-20.4 46.4-45.9 46.8-26.3 0.5-47.8-21.6-47.8-47.9v-186.9l119.2-153.3c9.3-11.9 23.1-18 37-18v-0.1h62.5v0c13.9 0 27.6 6.1 36.8 17.8z" />
  </svg>
