
  <svg height="1000" width="1000.0" xmlns="http://www.w3.org/2000/svg">
    <path d="m336.3 443c147.5 29.3 253.7 174.4 219.8 336.3-22.3 106.1-108.1 192-214.3 214.3-181.4 38-341.8-100-341.8-274.8v-484.4c0-26 20.9-46.9 46.9-46.9h93.7c26 0 46.9 20.9 46.9 46.9v484.4c0 51.7 42 93.7 93.8 93.7s93.7-42 93.7-93.7c0-40.3-25.6-74.7-61.1-87.9-18.8-7.1-32.6-23.1-32.6-43v-98.4c0-29.1 26.5-52.2 55-46.5z m71.9-443c318.8 16.8 575 273 591.6 591.8 1 18-13.3 33.2-31.2 33.2h-62.7c-16.4 0-30.1-12.9-31.1-29.3-14.6-252.9-217.8-458-470.5-471.7-16.4-0.8-29.3-14.4-29.3-31v-61.7c0-18 15.2-32.3 33.2-31.3z m0.6 187.5c215 16.6 387.1 188.7 403.5 403.7 1.4 18.2-13.3 33.8-31.4 33.8h-62.9c-16.2 0-29.5-12.5-31.1-28.7-13.5-150.4-133-271.3-283-283.6-16.2-1.2-28.9-14.7-28.9-31.1v-62.7c0-18.3 15.6-32.8 33.8-31.4z" />
  </svg>
