<svg height="1000" width="750" xmlns="http://www.w3.org/2000/svg"><path d="M595.3 476.3C661 440.1 700.1 370.6 700.1 289.4c0 -94.2 -51.3 -171.1 -134 -203.4C517.8 66.4 470.4 62.5 409.5 62.5H46.9c-17.3 0 -31.3 14 -31.3 31.3v64.5c0 17.3 14 31.2 31.3 31.2h64.6v622.2H46.9c-17.3 0 -31.3 14 -31.3 31.2v63.4c0 17.2 14 31.2 31.3 31.2h382.2c47.3 0 87.5 -2.5 130.6 -14.8C659.2 893 734.4 802 734.4 683.6c0 -101.9 -51.9 -179 -139.1 -207.3zM277.8 196.9h131.7c31.8 0 53.8 3.9 73.3 13.1 30.9 16.6 48.6 51.8 48.6 96.6 0 68.4 -39.7 110.9 -103.5 110.9H277.8V196.9zm220 596.6c-19.8 7.9 -44.3 9.6 -61.4 9.6H277.8V550.7h164.7c77.5 0 123.2 49.5 123.2 123.1 0 55.5 -26.7 102.5 -67.9 119.7z"/></svg>