
  <svg height="1000" width="750.0" xmlns="http://www.w3.org/2000/svg">
    <path d="m651.3 464.8c67.3 53.8 108.6 139 99.3 233.6-13.4 138-137.1 239.1-275.4 239.1h-408.8c-17.2 0-31.2-14-31.2-31.2v-93.8c0-17.2 14-31.2 31.2-31.2h62.3v-562.5h-62.3c-17.2 0-31.2-14.1-31.2-31.3v-93.7c0-17.3 14-31.3 31.2-31.3h389.5c145.7 0 262.6 126 248.2 275-4.8 47.9-23.8 92-52.8 127.3z m-366.8-246v187.5h171.4c51.7 0 93.7-42.1 93.7-93.8s-42-93.7-93.7-93.7h-171.4z m171.4 562.5c60.4 0 109.4-49.1 109.4-109.4s-49-109.4-109.4-109.4h-171.4v218.8h171.4z" />
  </svg>
