
  <svg height="1000" width="1000.0" xmlns="http://www.w3.org/2000/svg">
    <path d="m860.4 172.9l-101.6 101.5 51.7 51.8c18.4 18.3 18.4 48 0 66.2l-33.9 34c23 50.9 35.9 107.6 35.9 167.2 0 224.4-181.8 406.2-406.2 406.2s-406.3-181.6-406.3-406 181.8-406.3 406.3-406.3c59.5 0 116.2 12.9 167.1 35.9l34-33.9c18.4-18.4 48.1-18.4 66.2 0l51.8 51.7 101.6-101.6z m116.2-55.7c12.9 0 23.4 10.5 23.4 23.4s-10.5 23.5-23.4 23.5h-46.9c-12.9 0-23.4-10.6-23.4-23.5s10.5-23.4 23.4-23.4h46.9z m-117.2-117.2c12.9 0 23.4 10.5 23.4 23.4v46.9c0 12.9-10.5 23.5-23.4 23.5s-23.5-10.6-23.5-23.5v-46.9c0-12.9 10.6-23.4 23.5-23.4z m66.2 107.4c-9 9.2-23.8 9.2-33.2 0-9.2-9.2-9.2-24 0-33.2l33.2-33.2c9.2-9.2 24-9.2 33.2 0 9.2 9.2 9.2 24 0 33.2z m-132.4 0l-33.2-33.2c-9.2-9.2-9.2-24 0-33.2 9.1-9.2 24-9.2 33.2 0l33.2 33.2c9.1 9.2 9.1 24 0 33.2-9.2 9.2-24.1 9.2-33.2 0z m132.4 66.4l33.2 33.2c9.2 9.2 9.2 24.1 0 33.2-9.2 9.2-24 9.2-33.2 0l-33.2-33.2c-9.2-9.1-9.2-24 0-33.2 9.2-9.2 24-9.2 33.2 0z m-706.8 357.5c0-69 56-125 125-125 17.1 0 31.2-14.1 31.2-31.3s-14.1-31.2-31.2-31.2c-103.4 0-187.5 84.1-187.5 187.5 0 17.1 14 31.2 31.2 31.2s31.3-14.1 31.3-31.2z" />
  </svg>
