
  <svg height="1000" width="1250.0" xmlns="http://www.w3.org/2000/svg">
    <path d="m1169.7 477.7c-18.4 9.2-18.4 35.4 0 44.6 49.2 24.7 80.3 74.9 80.3 130v14.9c0 80.3-65.1 145.3-145.3 145.3-62.5 0-118-40-137.8-99.3-12.8-38.3-21-88.2-74.5-88.2h-534.9c-51.7 0-59.4 43.2-74.4 88.2-19.8 59.3-75.3 99.3-137.8 99.3-80.3 0-145.3-65-145.3-145.3v-14.9c0-55 31.1-105.3 80.3-130 18.4-9.2 18.4-35.4 0-44.6-49.2-24.7-80.3-75-80.3-130v-14.9c0-80.3 65-145.3 145.3-145.3 62.5 0 118 40 137.8 99.3 12.8 38.3 21 88.2 74.4 88.2h534.9c51.8 0 59.5-43.2 74.5-88.2 19.8-59.3 75.3-99.3 137.8-99.3 80.3 0 145.3 65 145.3 145.3v14.9c0 55-31.1 105.3-80.3 130z" />
  </svg>
