<svg height="1000" width="1250" xmlns="http://www.w3.org/2000/svg"><path d="M1169.7 477.7c49.2 -24.7 80.3 -75 80.3 -130v-14.9c0 -80.3 -65 -145.3 -145.3 -145.3 -62.5 0 -118 40 -137.8 99.3 -15 45 -22.7 88.2 -74.5 88.2H357.5c-53.4 0 -61.6 -49.9 -74.4 -88.2C263.3 227.5 207.8 187.5 145.3 187.5 65 187.5 0 252.5 0 332.8v14.9c0 55 31.1 105.3 80.3 130 18.4 9.2 18.4 35.4 0 44.6C31.1 547 0 597.3 0 652.3v14.9c0 80.3 65 145.3 145.3 145.3 62.5 0 118 -40 137.8 -99.3 15 -45 22.7 -88.2 74.4 -88.2h534.9c53.5 0 61.7 49.9 74.5 88.2 19.8 59.3 75.3 99.3 137.8 99.3 80.2 0 145.3 -65 145.3 -145.3v-14.9c0 -55.1 -31.1 -105.3 -80.3 -130 -18.4 -9.2 -18.4 -35.4 0 -44.6z"/></svg>