<svg height="1000" width="875" xmlns="http://www.w3.org/2000/svg"><path d="M590.8 1000c45.3 0 86.8 -24.6 109.4 -63.8C731.8 881.4 750 817.9 750 750c0 -70.5 -19.7 -136.3 -53.6 -192.6l84.9 -84.9 18.3 18.4c12.2 12.2 32 12.2 44.2 0l22 -22.1c12.2 -12.3 12.2 -32 0 -44.2l-102.9 -103c-12.2 -12.2 -32 -12.2 -44.2 0l-22.1 22.1c-12.2 12.2 -12.2 32 0 44.2l18.4 18.4 -77 76.9C615.4 461 590.1 441.6 562.5 425.6V124.5h31.2c17.2 -.1 31.2 -14 31.2 -31.3l.1 -61.9C625 14 611 0 593.7 0L156.3 .5c-17.2 0 -31.2 14 -31.2 31.2l-.1 62c0 17.3 14 31.3 31.3 31.3l31.2 -.1v300.7C75.5 490.4 0 611.3 0 750c0 67.9 18.2 131.4 49.8 186.2 22.6 39.2 64.1 63.8 109.4 63.8h431.6zM234.5 506.7l46.8 -27.1V124.8l187.5 -.2v355l46.7 27.1C564 534.8 601.7 576.5 626 625H124c24.3 -48.5 62 -90.2 110.5 -118.3z"/></svg>