
  <svg height="1000" width="875.0" xmlns="http://www.w3.org/2000/svg">
    <path d="m590.8 1000h-431.6c-45.3 0-86.8-24.6-109.4-63.8-31.6-54.8-49.8-118.3-49.8-186.2 0-138.7 75.5-259.6 187.5-324.4v-300.7l-31.2 0.1c-17.3 0-31.3-14-31.3-31.3l0.1-62c0-17.2 14-31.2 31.2-31.2l437.4-0.5c17.3 0 31.3 14 31.3 31.3l-0.1 61.9c0 17.3-14 31.2-31.2 31.3l-31.2 0v301.1c27.6 16 52.9 35.4 75.5 57.6l77-77-18.4-18.3c-12.2-12.2-12.2-32 0-44.2l22.1-22.1c12.2-12.2 32-12.2 44.2 0l102.9 103c12.2 12.2 12.2 31.9 0 44.1l-22 22.2c-12.2 12.2-32 12.2-44.2 0l-18.4-18.4-84.8 84.9c33.9 56.3 53.6 122.1 53.6 192.6 0 67.9-18.2 131.4-49.8 186.2-22.6 39.2-64.1 63.8-109.4 63.8z m-356.3-493.3c-48.5 28.1-86.2 69.8-110.5 118.3h502c-24.3-48.5-62-90.2-110.5-118.3l-46.7-27.1v-355l-187.5 0.2v354.8z" />
  </svg>
