
  <svg height="1000" width="875.0" xmlns="http://www.w3.org/2000/svg">
    <path d="m875 700c0 18.8-6.3 31.2-18.7 37.5-6.3 25-6.3 112.5 0 143.8 12.4 12.4 18.7 24.9 18.7 37.5v31.2c0 31.3-25 50-50 50h-637.5c-106.2 0-187.5-81.2-187.5-187.5v-625c0-106.3 81.3-187.5 187.5-187.5h637.5c31.3 0 50 18.7 50 50v650z m-593.7-371.9v93.8c0 8.6 7 15.6 15.6 15.6h109.4v109.4c0 8.6 7 15.6 15.6 15.6h93.7c8.6 0 15.7-7 15.7-15.6v-109.4h109.3c8.6 0 15.7-7 15.7-15.6v-93.8c0-8.6-7.1-15.6-15.7-15.6h-109.3v-109.4c0-8.6-7.1-15.6-15.7-15.6h-93.7c-8.6 0-15.6 7-15.6 15.6v109.4h-109.4c-8.6 0-15.6 7-15.6 15.6z m462.5 546.9v-125h-556.3c-31.2 0-62.5 25-62.5 62.5s25 62.5 62.5 62.5h556.3z" />
  </svg>
