<svg height="1000" width="875" xmlns="http://www.w3.org/2000/svg"><path d="M875 703.1V46.9C875 20.9 854.1 0 828.1 0H187.5C84 0 0 84 0 187.5v625C0 916 84 1000 187.5 1000h640.6c26 0 46.9 -20.9 46.9 -46.9v-31.2c0 -14.7 -6.8 -28 -17.4 -36.5 -8.2 -30.1 -8.2 -115.9 0 -145.9 10.6 -8.4 17.4 -21.7 17.4 -36.4zM250 261.7c0 -6.4 5.3 -11.7 11.7 -11.7h414.1c6.4 0 11.7 5.3 11.7 11.7v39.1c0 6.4 -5.3 11.7 -11.7 11.7H261.7c-6.4 0 -11.7 -5.3 -11.7 -11.7v-39.1zm0 125c0 -6.4 5.3 -11.7 11.7 -11.7h414.1c6.4 0 11.7 5.3 11.7 11.7v39.1c0 6.4 -5.3 11.7 -11.7 11.7H261.7c-6.4 0 -11.7 -5.3 -11.7 -11.7v-39.1zM744.9 875H187.5C152.9 875 125 847.1 125 812.5c0 -34.4 28.1 -62.5 62.5 -62.5h557.4c-3.7 33.4 -3.7 91.6 0 125z"/></svg>