
  <svg height="1000" width="875.0" xmlns="http://www.w3.org/2000/svg">
    <path d="m875 703.1c0 14.7-6.8 28-17.4 36.4-8.2 30-8.2 115.8 0 145.9 10.6 8.5 17.4 21.8 17.4 36.5v31.2c0 26-20.9 46.9-46.9 46.9h-640.6c-103.5 0-187.5-84-187.5-187.5v-625c0-103.5 84-187.5 187.5-187.5h640.6c26 0 46.9 20.9 46.9 46.9v656.2z m-625-441.4v39.1c0 6.4 5.3 11.7 11.7 11.7h414.1c6.4 0 11.7-5.3 11.7-11.7v-39.1c0-6.4-5.3-11.7-11.7-11.7h-414.1c-6.4 0-11.7 5.3-11.7 11.7z m0 125v39.1c0 6.4 5.3 11.7 11.7 11.7h414.1c6.4 0 11.7-5.3 11.7-11.7v-39.1c0-6.4-5.3-11.7-11.7-11.7h-414.1c-6.4 0-11.7 5.3-11.7 11.7z m494.9 488.3c-3.7-33.4-3.7-91.6 0-125h-557.4c-34.4 0-62.5 28.1-62.5 62.5 0 34.6 27.9 62.5 62.5 62.5h557.4z" />
  </svg>
