<svg height="1000" width="1000" xmlns="http://www.w3.org/2000/svg"><path d="M687.5 187.5C687.5 83.9 603.6 0 500 0S312.5 83.9 312.5 187.5 396.4 375 500 375 687.5 291.1 687.5 187.5zM456.2 470.9C340.4 400 152.7 380.5 58.2 375.1 26.5 373.3 0 397.5 0 428v435.2c0 28 22.6 51.3 51.7 52.8 85.3 4.5 257.8 20.9 377.1 80.9 18.3 9.2 40 -3.3 40 -23.2V493.3c0 -9.1 -4.6 -17.5 -12.6 -22.4zm485.6 -95.8c-94.4 5.3 -282.2 24.9 -398 95.8 -8 4.9 -12.5 13.6 -12.5 22.7v480.1c0 19.9 21.7 32.5 40.1 23.2 119.2 -60 291.6 -76.4 376.9 -80.8 29.1 -1.6 51.7 -24.9 51.7 -52.9V428c0 -30.5 -26.5 -54.7 -58.2 -52.9z"/></svg>