
  <svg height="1000" width="875.0" xmlns="http://www.w3.org/2000/svg">
    <path d="m531.3 265.6c-17.2 0-31.3-14-31.3-31.2s14.1-31.3 31.3-31.3 31.2 14.1 31.2 31.3-14.1 31.2-31.2 31.2z m343.7 434.4c0 18.8-6.3 31.3-18.7 37.5-6.3 25-6.3 112.5 0 143.8 12.4 12.4 18.7 24.9 18.7 37.5v31.2c0 31.3-25 50-50 50h-637.5c-106.2 0-187.5-81.2-187.5-187.5v-625c0-106.3 81.3-187.5 187.5-187.5h637.5c31.3 0 50 18.7 50 50v650z m-406.2-590.6c-86.4 0-156.3 56-156.3 125 0 40.8 24.8 76.5 62.5 99.4v25.6c0 17.2 14.1 31.2 31.3 31.2h125c17.1 0 31.2-14 31.2-31.2v-25.6c37.7-22.9 62.5-58.6 62.5-99.4 0-69-69.9-125-156.2-125z m-225 326.7c-3.4 8 0.1 17.2 8.2 20.5l137.6 59.2-137.5 58.8c-8 3.3-11.5 12.5-8.2 20.5l12.4 28.7c3.3 8 12.4 11.6 20.5 8.2l192-82.4 191.9 82.2c8.1 3.4 17.2-0.2 20.5-8.2l12.4-28.7c3.3-8-0.2-17.2-8.2-20.5l-137.4-58.8 137.4-59c8-3.3 11.5-12.5 8.2-20.5l-12.4-28.7c-3.3-8-12.4-11.5-20.5-8.2l-192.1 82.2-192-82.2c-8-3.3-17.2 0.2-20.5 8.2z m500 438.9v-125h-556.3c-31.2 0-62.5 25-62.5 62.5s25 62.5 62.5 62.5h556.3z m-337.5-609.4c-17.2 0-31.3-14-31.3-31.2s14.1-31.3 31.3-31.3 31.2 14.1 31.2 31.3-14.1 31.2-31.2 31.2z" />
  </svg>
