
  <svg height="1000" width="968.8" xmlns="http://www.w3.org/2000/svg">
    <path d="m484.4 15.6c267.6 0 484.4 216.8 484.4 484.4s-216.8 484.4-484.4 484.4-484.4-216.8-484.4-484.4 216.8-484.4 484.4-484.4z m-250 359.4c34.5 0 62.5-27.9 62.5-62.5s-28-62.5-62.5-62.5-62.5 27.9-62.5 62.5 27.9 62.5 62.5 62.5z m125-187.5c0 34.6 27.9 62.5 62.5 62.5s62.5-27.9 62.5-62.5-28-62.5-62.5-62.5-62.5 27.9-62.5 62.5z m93.7 281.3c34.6 0 62.5-28 62.5-62.5s-27.9-62.5-62.5-62.5-62.5 27.9-62.5 62.5 28 62.5 62.5 62.5z" />
  </svg>
