<svg height="1000" width="968.8" xmlns="http://www.w3.org/2000/svg"><path d="M484.4 15.6C216.8 15.6 0 232.4 0 500s216.8 484.4 484.4 484.4S968.8 767.6 968.8 500 752 15.6 484.4 15.6zM234.4 375c-34.6 0 -62.5 -27.9 -62.5 -62.5S199.8 250 234.4 250s62.5 27.9 62.5 62.5 -28 62.5 -62.5 62.5zm125 -187.5c0 -34.6 27.9 -62.5 62.5 -62.5s62.5 27.9 62.5 62.5 -28 62.5 -62.5 62.5 -62.5 -27.9 -62.5 -62.5zm93.7 281.3c-34.5 0 -62.5 -28 -62.5 -62.5s28 -62.5 62.5 -62.5 62.5 27.9 62.5 62.5 -27.9 62.5 -62.5 62.5z"/></svg>