
  <svg height="1000" width="1000.0" xmlns="http://www.w3.org/2000/svg">
    <path d="m749.8 562.1h-500l-125-562.5h276.1c60.6 0.1 112 39.3 130.1 93.8 18.2 54.5 69.5 93.7 130.1 93.7h213.7z m-750 375v-125h1000v125c0 34.5-28 62.5-62.5 62.5h-875c-34.5 0-62.5-28-62.5-62.5z m937.5-500c34.5 0.1 62.4 28.1 62.4 62.5v250h-1000v-250c0-34.4 28.1-62.5 62.5-62.5h95.7l27.8 125h-29.7c-17.2 0-31.2 14.1-31.2 31.3 0 17.2 14 31.2 31.2 31.2h687.5c17.3 0 31.3-14 31.3-31.2 0-17.2-14-31.3-31.3-31.3h-27.9l41.7-125h80z" />
  </svg>
