
  <svg height="1000" width="1250.0" xmlns="http://www.w3.org/2000/svg">
    <path d="m831.4 500c8.8 0 17.6-1.2 26-3.7l267.6-76.4v347.7c0 28.5-19.5 53.5-47.3 60.5l-422.6 105.7c-19.7 4.9-40.6 4.9-60.6 0l-422.2-105.7c-27.8-6.8-47.3-31.8-47.3-60.5v-347.7l267.6 76.6c8.4 2.5 17.2 3.7 26 3.7 33 0 64-17.6 81-45.9l125.4-208.2 125.6 208.2c16.8 28.1 47.8 45.7 80.8 45.7z m415.3-219.1c8.8 17.9-0.6 39.4-19.9 45.1l-386.6 110.3c-13.8 3.9-28.7-1.9-36.1-14.2l-179.1-297.1 488.5-62.3c13.5-1.8 26.5 5.3 32.6 17.4z m-1142.8-200.8c6.1-12.1 19-19 32.4-17.4l488.7 62.3-179.3 296.9c-7.4 12.3-22.3 18.1-36.1 14.2l-386.6-110.3c-19.1-5.5-28.7-27-19.7-44.9z" />
  </svg>
