<svg height="1000" width="1250" xmlns="http://www.w3.org/2000/svg"><path d="M103.9 80.1L3.3 280.9c-9 17.9 .6 39.4 19.7 44.9l386.6 110.3c13.8 3.9 28.7 -1.9 36.1 -14.2L625 125 136.3 62.7C122.9 61.1 110 68 103.9 80.1zm1142.8 200.8L1146.1 80.1C1140 68 1127 60.9 1113.5 62.7L625 125l179.1 297.1c7.4 12.3 22.3 18.1 36.1 14.2L1226.8 326c19.3 -5.7 28.7 -27.2 19.9 -45.1zM831.4 500c-33 0 -64 -17.6 -80.8 -45.7L625 246.1 499.6 454.3c-17 28.3 -48 45.9 -81 45.9 -8.8 0 -17.6 -1.2 -26 -3.7L125 419.9v347.7c0 28.7 19.5 53.7 47.3 60.5l422.2 105.7c20 4.9 40.9 4.9 60.6 0l422.6 -105.7c27.8 -7 47.3 -32 47.3 -60.5V419.9l-267.6 76.4c-8.4 2.5 -17.2 3.7 -26 3.7z"/></svg>