<svg height="1000" width="1125" xmlns="http://www.w3.org/2000/svg"><path d="M1093.8 562.5H937.5V750L875 708.4 812.5 750V562.5H656.3c-17.2 0 -31.3 14.1 -31.3 31.3v375c0 17.1 14.1 31.2 31.3 31.2h437.5c17.1 0 31.2 -14.1 31.2 -31.2v-375c0 -17.2 -14.1 -31.3 -31.2 -31.3zm-750 -125h437.5c17.1 0 31.2 -14.1 31.2 -31.2v-375C812.5 14.1 798.4 0 781.3 0H625v187.5l-62.5 -41.6L500 187.5V0H343.8c-17.2 0 -31.3 14.1 -31.3 31.3v375c0 17.1 14.1 31.2 31.3 31.2zm125 125H312.5V750L250 708.4 187.5 750V562.5H31.3C14.1 562.5 0 576.6 0 593.8v375c0 17.1 14.1 31.2 31.3 31.2h437.5c17.1 0 31.2 -14.1 31.2 -31.2v-375c0 -17.2 -14.1 -31.3 -31.2 -31.3z"/></svg>