
  <svg height="1000" width="1125.0" xmlns="http://www.w3.org/2000/svg">
    <path d="m1093.8 562.5c17.1 0 31.2 14.1 31.2 31.3v375c0 17.1-14.1 31.2-31.2 31.2h-437.5c-17.2 0-31.3-14.1-31.3-31.2v-375c0-17.2 14.1-31.3 31.3-31.3h156.2v187.5l62.5-41.6 62.5 41.6v-187.5h156.3z m-750-125c-17.2 0-31.3-14.1-31.3-31.2v-375c0-17.2 14.1-31.3 31.3-31.3h156.2v187.5l62.5-41.6 62.5 41.6v-187.5h156.3c17.1 0 31.2 14.1 31.2 31.3v375c0 17.1-14.1 31.2-31.2 31.2h-437.5z m125 125c17.1 0 31.2 14.1 31.2 31.3v375c0 17.1-14.1 31.2-31.2 31.2h-437.5c-17.2 0-31.3-14.1-31.3-31.2v-375c0-17.2 14.1-31.3 31.3-31.3h156.2v187.5l62.5-41.6 62.5 41.6v-187.5h156.3z" />
  </svg>
