<svg height="1000" width="1125" xmlns="http://www.w3.org/2000/svg"><path d="M406.3 0c-58.4 0 -107 40.1 -120.8 94.2 -1.4 -.1 -2.8 -.4 -4.2 -.4 -69.1 0 -125 55.9 -125 125 0 9.4 1.2 18.5 3.2 27.4 -56.9 23.3 -97 79.1 -97 144.4 0 24.6 6.2 47.5 16.3 68.2C31.9 485.8 0 535.8 0 593.8c0 65.1 39.9 120.8 96.5 144.3 -1.7 8.9 -2.7 18.1 -2.7 27.5 0 77.7 62.9 140.7 140.6 140.7 8 0 15.8 -1.1 23.5 -2.4 18.7 55.7 70.7 96.1 132.7 96.1 77.7 0 140.7 -63 140.7 -140.6V401.3c-21.4 17.5 -46.9 30.1 -75 35.9 -9.7 2 -18.8 -5.5 -18.8 -15.4v-31.6c0 -7 4.6 -13.3 11.3 -15 47.3 -12 82.5 -54.6 82.5 -105.5V125c0 -69 -56 -125 -125 -125zM1125 593.8c0 -58 -31.9 -108 -78.8 -135 10.1 -20.7 16.3 -43.6 16.3 -68.2 0 -65.3 -40.1 -121.1 -97 -144.4 2 -8.9 3.3 -18 3.3 -27.4 0 -69.1 -56 -125 -125 -125 -1.5 0 -2.9 .3 -4.3 .4C825.7 40.1 777.1 0 718.8 0c-69.1 0 -125 56 -125 125v144.7c0 50.9 35.1 93.5 82.4 105.5 6.7 1.7 11.3 8 11.3 15v31.6c0 9.9 -9.1 17.4 -18.8 15.4 -28.1 -5.8 -53.6 -18.4 -74.9 -35.9v458.1c0 77.6 62.9 140.6 140.6 140.6 62 0 114 -40.4 132.7 -96.1 7.7 1.3 15.5 2.4 23.5 2.4 77.7 0 140.7 -63 140.7 -140.7 0 -9.4 -1.1 -18.6 -2.8 -27.5 56.6 -23.5 96.5 -79.2 96.5 -144.3z"/></svg>