<svg height="1000" width="1250" xmlns="http://www.w3.org/2000/svg"><path d="M250 500c0 69 -56 125 -125 125S0 569 0 500 56 375 125 375s125 56 125 125zM125 750c-34.5 0 -62.5 28 -62.5 62.5S90.5 875 125 875s62.5 -28 62.5 -62.5S159.5 750 125 750zm0 -687.5c-69 0 -125 56 -125 125s56 125 125 125 125 -56 125 -125S194 62.5 125 62.5zm312.5 375c-34.5 0 -62.5 28 -62.5 62.5s28 62.5 62.5 62.5S500 534.5 500 500s-28 -62.5 -62.5 -62.5zm0 312.5C403 750 375 778 375 812.5s28 62.5 62.5 62.5S500 847 500 812.5 472 750 437.5 750zm0 -687.5c-69 0 -125 56 -125 125s56 125 125 125 125 -56 125 -125 -56 -125 -125 -125zm437.5 375c-34.5 0 -62.5 28 -62.5 62.5s28 62.5 62.5 62.5 62.5 -28 62.5 -62.5 -28 -62.5 -62.5 -62.5zm0 312.5c-34.5 0 -62.5 28 -62.5 62.5s28 62.5 62.5 62.5 62.5 -28 62.5 -62.5S909.5 750 875 750zm0 -687.5c-69 0 -125 56 -125 125s56 125 125 125 125 -56 125 -125S944 62.5 875 62.5zm312.5 375c-34.5 0 -62.5 28 -62.5 62.5s28 62.5 62.5 62.5 62.5 -28 62.5 -62.5 -28 -62.5 -62.5 -62.5zm0 312.5c-34.5 0 -62.5 28 -62.5 62.5s28 62.5 62.5 62.5 62.5 -28 62.5 -62.5S1222 750 1187.5 750zm0 -625c-34.5 0 -62.5 28 -62.5 62.5s28 62.5 62.5 62.5 62.5 -28 62.5 -62.5S1222 125 1187.5 125z"/></svg>