
  <svg height="1000" width="1125.0" xmlns="http://www.w3.org/2000/svg">
    <path d="m406.3 0c68.9 0 125 56.1 125 125v734.4c0 77.7-62.9 140.6-140.7 140.6-62.1 0-114-40.4-132.8-96.1-7.6 1.4-15.4 2.4-23.4 2.4-77.8 0-140.6-62.9-140.6-140.7 0-9.3 0.9-18.5 2.7-27.5-56.7-23.5-96.5-79.3-96.5-144.3 0-58.1 31.8-108.1 78.7-135-9.9-20.7-16.2-43.6-16.2-68.2 0-65.2 40-121.1 97.1-144.5-2.2-8.8-3.4-18-3.4-27.3 0-69 56.1-125 125-125 1.6 0 2.8 0.3 4.3 0.3 13.9-54.1 62.4-94.1 120.7-94.1z m718.7 593.8c0 65-39.8 120.8-96.5 144.3 1.8 9 2.7 18.2 2.7 27.5 0 77.8-62.8 140.7-140.6 140.7-8 0-15.8-1-23.4-2.4-18.8 55.7-70.7 96.1-132.8 96.1-77.8 0-140.7-62.9-140.7-140.6v-734.4c0-69.1 56.1-125 125-125 58.4 0 106.9 40 120.8 94.1 1.3 0 2.7-0.3 4.2-0.3 69 0 125 56 125 125 0 9.3-1.3 18.5-3.3 27.3 57.1 23.4 97.1 79.3 97.1 144.5 0 24.6-6.1 47.5-16.2 68.2 46.9 26.9 78.7 76.9 78.7 135z" />
  </svg>
