<svg height="1000" width="1000" xmlns="http://www.w3.org/2000/svg"><path d="M906.3 250H750v-93.7c0 -51.8 -42 -93.8 -93.7 -93.8H343.8c-51.8 0 -93.8 42 -93.8 93.8V250H93.8C42 250 0 292 0 343.8v562.5C0 958 42 1000 93.8 1000h812.5c51.7 0 93.7 -42 93.7 -93.7V343.8C1000 292 958 250 906.3 250zM375 187.5h250V250H375v-62.5zm312.5 484.4c0 8.6 -7 15.6 -15.6 15.6H562.5v109.4c0 8.6 -7 15.6 -15.6 15.6h-93.8c-8.6 0 -15.6 -7 -15.6 -15.6V687.5H328.1c-8.6 0 -15.6 -7 -15.6 -15.6v-93.8c0 -8.6 7 -15.6 15.6 -15.6h109.4V453.1c0 -8.6 7 -15.6 15.6 -15.6h93.8c8.6 0 15.6 7 15.6 15.6v109.4h109.4c8.6 0 15.6 7 15.6 15.6v93.8z"/></svg>