<svg height="1000" width="1250" xmlns="http://www.w3.org/2000/svg"><path d="M294.8 375h65.9c21.5 0 36.3 -21.2 29 -41.4C380.1 307.1 375 279 375 250s5.1 -57.1 14.7 -83.6c7.4 -20.2 -7.5 -41.4 -29 -41.4h-65.9c-13.7 0 -26.3 8.8 -30.1 21.9C255.2 180.1 250 214.6 250 250c0 35.4 5.2 69.9 14.7 103 3.8 13.2 16.4 22 30.1 22zM175.6 45.6C186.6 24.8 171.8 0 148.4 0h-69C67.1 0 55.6 7 50.6 18.2 18.4 88.9 0 167.3 0 250c0 48.3 6.1 133.5 52.1 232.1 5.1 11 16.5 17.9 28.6 17.9h68c23.5 0 38.3 -24.9 27.3 -45.6C78.7 272.1 143.3 106.4 175.6 45.6zM1199.3 18.1C1194.3 7 1182.8 0 1170.6 0h-69.2C1078 0 1063 24.7 1074 45.4c35.7 67 94.6 233.3 .6 408.7 -11.2 20.8 3.5 45.9 27.1 45.9h68.8c12.3 0 23.7 -7 28.8 -18.1C1231.6 411.1 1250 332.7 1250 250S1231.6 88.9 1199.3 18.1zM955.2 125h-65.9c-21.5 0 -36.3 21.2 -29 41.4C869.9 192.9 875 221 875 250s-5.1 57.1 -14.7 83.6c-7.4 20.2 7.5 41.4 29 41.4h65.9c13.7 0 26.3 -8.8 30.1 -22 9.6 -33.1 14.7 -67.6 14.7 -103 0 -35.4 -5.2 -69.9 -14.7 -103 -3.8 -13.2 -16.4 -22 -30.1 -22zM728 320.5c13.8 -20.1 21.9 -44.3 21.9 -70.5C749.9 181 694 125 625 125S500.1 181 500.1 250c0 26.2 8.1 50.4 21.9 70.5L267.1 932.7c-6.7 15.9 .9 34.2 16.8 40.8l57.6 24.1c15.9 6.6 34.2 -.9 40.9 -16.8l96 -230.8h293.1l96.1 230.8c6.7 15.9 25 23.4 40.9 16.8l57.6 -24.1c15.9 -6.6 23.5 -24.9 16.8 -40.8L728 320.5zM530.5 625L625 398.1 719.5 625h-189z"/></svg>