
  <svg height="1000" width="1250.0" xmlns="http://www.w3.org/2000/svg">
    <path d="m294.8 375c-13.7 0-26.3-8.8-30.1-22-9.5-33.1-14.7-67.6-14.7-103s5.2-69.9 14.7-103.1c3.8-13.1 16.4-21.9 30.1-21.9h65.9c21.5 0 36.4 21.2 29 41.4-9.6 26.5-14.7 54.6-14.7 83.6s5.1 57.1 14.7 83.6c7.3 20.2-7.5 41.4-29 41.4h-65.9z m-119.2-329.4c-32.3 60.8-96.9 226.5 0.4 408.8 11 20.7-3.8 45.6-27.3 45.6h-68c-12.1 0-23.5-6.9-28.6-17.9-46-98.6-52.1-183.8-52.1-232.1 0-82.7 18.4-161.1 50.6-231.8 5-11.2 16.5-18.2 28.8-18.2h69c23.4 0 38.2 24.8 27.2 45.6z m1023.7-27.5c32.3 70.8 50.7 149.2 50.7 231.9s-18.4 161.1-50.7 231.9c-5.1 11.1-16.5 18.1-28.8 18.1h-68.8c-23.6 0-38.3-25.1-27.1-45.9 94-175.4 35.1-341.7-0.6-408.7-11-20.7 4-45.4 27.4-45.4h69.2c12.2 0 23.7 7 28.7 18.1z m-244.1 106.9c13.7 0 26.3 8.8 30.1 22 9.5 33.1 14.7 67.6 14.7 103s-5.1 69.9-14.7 103c-3.8 13.2-16.4 22-30.1 22h-65.9c-21.5 0-36.4-21.2-29-41.4 9.6-26.5 14.7-54.6 14.7-83.6s-5.1-57.1-14.7-83.6c-7.3-20.2 7.5-41.4 29-41.4h65.9z m-227.2 195.5l254.9 612.2c6.7 15.9-0.9 34.2-16.8 40.8l-57.6 24.1c-15.9 6.6-34.2-0.9-40.9-16.8l-96.1-230.8h-293.1l-96 230.8c-6.7 15.9-25 23.4-40.9 16.8l-57.6-24.1c-15.9-6.6-23.5-24.9-16.8-40.8l254.9-612.2c-13.8-20.1-21.9-44.3-21.9-70.5 0-69 55.9-125 124.9-125 69 0 124.9 56 124.9 125 0 26.2-8.1 50.4-21.9 70.5z m-197.5 304.5h189l-94.5-226.9z" />
  </svg>
