
  <svg height="1000" width="1250.0" xmlns="http://www.w3.org/2000/svg">
    <path d="m500.9 423.4l169.4 213.2s-32.4 199.9-149.5 293.2c-117.2 93.3-520.8 66.7-520.8 66.7s7.4-45.2 21.5-108.3l184.8-219.1c7.7-9.2-1.7-22.7-13-18.5l-118 43.1c28.2-81.4 63.9-156.3 106.7-190.4 117.1-93.2 318.9-79.9 318.9-79.9z m742.3-362.8c10.7 13.5 8.5 33.1-5 43.8l-454 347.3 66.6 83.8c9.9 12.5 3.2 31.1-12.4 34.4l-114.9 24.3-169.4-213.2 49.5-106.6c6.8-14.5 26.4-16.8 36.3-4.3l66.7 83.9 454.1-347.2c13.4-10.7 33-8.5 43.7 5z" />
  </svg>
