<svg height="1000" width="875" xmlns="http://www.w3.org/2000/svg"><path d="M851.6 937.5h-39.1V46.9C812.5 21 791.5 0 765.6 0H109.4C83.5 0 62.5 21 62.5 46.9v890.6H23.4C10.5 937.5 0 948 0 960.9v39.1h875v-39.1c0 -12.9 -10.5 -23.4 -23.4 -23.4zM250 148.4c0 -12.9 10.5 -23.4 23.4 -23.4h78.2c12.9 0 23.4 10.5 23.4 23.4v78.2c0 12.9 -10.5 23.4 -23.4 23.4h-78.2C260.5 250 250 239.5 250 226.6v-78.2zm0 187.5c0 -12.9 10.5 -23.4 23.4 -23.4h78.2c12.9 0 23.4 10.5 23.4 23.4v78.2c0 12.9 -10.5 23.4 -23.4 23.4h-78.2C260.5 437.5 250 427 250 414.1v-78.2zM351.6 625h-78.2C260.5 625 250 614.5 250 601.6v-78.2c0 -12.9 10.5 -23.4 23.4 -23.4h78.2c12.9 0 23.4 10.5 23.4 23.4v78.2c0 12.9 -10.5 23.4 -23.4 23.4zM500 937.5H375V773.4c0 -12.9 10.5 -23.4 23.4 -23.4h78.2c12.9 0 23.4 10.5 23.4 23.4v164.1zM625 601.6c0 12.9 -10.5 23.4 -23.4 23.4h-78.2C510.5 625 500 614.5 500 601.6v-78.2c0 -12.9 10.5 -23.4 23.4 -23.4h78.2c12.9 0 23.4 10.5 23.4 23.4v78.2zm0 -187.5c0 12.9 -10.5 23.4 -23.4 23.4h-78.2C510.5 437.5 500 427 500 414.1v-78.2c0 -12.9 10.5 -23.4 23.4 -23.4h78.2c12.9 0 23.4 10.5 23.4 23.4v78.2zm0 -187.5c0 12.9 -10.5 23.4 -23.4 23.4h-78.2C510.5 250 500 239.5 500 226.6v-78.2c0 -12.9 10.5 -23.4 23.4 -23.4h78.2c12.9 0 23.4 10.5 23.4 23.4v78.2z"/></svg>