<svg height="1000" width="1000" xmlns="http://www.w3.org/2000/svg"><path d="M500 140.6c198.6 0 359.4 160.8 359.4 359.4 0 198.6 -160.8 359.4 -359.4 359.4C301.4 859.4 140.6 698.6 140.6 500 140.6 301.4 301.4 140.6 500 140.6m0 -125C232.5 15.6 15.6 232.5 15.6 500S232.5 984.4 500 984.4 984.4 767.5 984.4 500 767.5 15.6 500 15.6zm0 359.4c68.9 0 125 56.1 125 125S568.9 625 500 625 375 568.9 375 500 431.1 375 500 375m0 -125C361.9 250 250 361.9 250 500s111.9 250 250 250S750 638.1 750 500 638.1 250 500 250z"/></svg>