
  <svg height="1000" width="968.8" xmlns="http://www.w3.org/2000/svg">
    <path d="m484.4 15.6c267.5 0 484.4 216.9 484.4 484.4s-216.9 484.4-484.4 484.4-484.4-216.9-484.4-484.4 216.9-484.4 484.4-484.4z m0 843.8c198.6 0 359.4-160.8 359.4-359.4 0-198.7-160.8-359.4-359.4-359.4-198.7 0-359.4 160.8-359.4 359.4 0 198.7 160.8 359.4 359.4 359.4z m0-609.4c138 0 250 111.9 250 250s-112 250-250 250-250-111.9-250-250 111.9-250 250-250z m0 375c68.9 0 125-56.1 125-125s-56.1-125-125-125-125 56.1-125 125 56 125 125 125z" />
  </svg>
