<svg height="1000" width="1125" xmlns="http://www.w3.org/2000/svg"><path d="M1125 437.5c0 -40.8 -26.1 -75.5 -62.5 -88.4V125c0 -69 -56 -125 -125 -125C810.6 109.4 660.1 250 406.3 250H93.8C42 250 0 292 0 343.8v187.5C0 583 42 625 93.8 625h84.4c-36.6 126.3 4.9 227.3 36.8 327 3.3 10.4 10.2 19.4 19.4 25.2 40.6 25.7 133.5 30.6 183.1 10 31.4 -12.9 39 -53.5 14.7 -77.2C396.1 874.8 373.4 837.9 393.6 791.2a24 -24 0 0 1 -2.1 -22.8c-31.8 -48.2 -7 -121.3 55.7 -142.1C676.6 640.4 817.6 771.6 937.5 875c69 0 125 -56 125 -125V525.9c36.4 -12.9 62.5 -47.6 62.5 -88.4zM937.5 710.7C830.8 622.8 693.3 529.1 500 505.6V369.4C693.3 345.9 830.8 252.2 937.5 164.3v546.4z"/></svg>