
  <svg height="1000" width="1125.0" xmlns="http://www.w3.org/2000/svg">
    <path d="m1125 468.8c0 46.1-25.3 86-62.5 107.6v298.6c0 18-13.8 62.5-62.5 62.5-14.8 0-28.4-5.2-39-13.7l-166.1-132.9c-83.4-66.7-188.1-103.4-294.9-103.4h-54.8c-5.5 19.9-8.7 40.8-8.7 62.5 0 56.8 19.1 109.2 51.1 151.3 30.9 40.4 0.3 98.7-50.6 98.7h-145c-23.3 0-45.4-12.4-55.5-33.3-31.9-65.6-49.9-139-49.9-216.7 0-21.2 1.5-42 4.2-62.5h-65.8c-69 0-125-56-125-125v-187.5c0-69 56-125 125-125h375c106.8 0 211.5-36.7 294.9-103.4l166.1-132.9c11.3-9.1 25.1-13.7 39-13.7 48.9 0 62.5 45.4 62.5 62.5v298.6c37.2 21.6 62.5 61.5 62.5 107.7z m-187.5 276.2v-552.5l-64.6 51.7c-105.4 84.4-237.9 130.8-372.9 130.8v187.5c135 0 267.5 46.4 372.9 130.8z" />
  </svg>
