<svg height="1000" width="1000" xmlns="http://www.w3.org/2000/svg"><path d="M953.1 250h-15.6v-93.7C937.5 68.7 743.8 0 500 0S62.5 68.7 62.5 156.3V250H46.9C21 250 0 271 0 296.9v156.2C0 479 21 500 46.9 500h15.6v312.5c0 34.5 28 62.5 62.5 62.5v62.5c0 34.5 28 62.5 62.5 62.5H250c34.5 0 62.5 -28 62.5 -62.5V875h375v62.5c0 34.5 28 62.5 62.5 62.5h62.5c34.5 0 62.5 -28 62.5 -62.5V875h12.5c31.3 0 50 -25 50 -50V500h15.6c25.9 0 46.9 -21 46.9 -46.9V296.9C1000 271 979 250 953.1 250zM312.5 140.6c0 -8.6 7 -15.6 15.6 -15.6h343.8c8.6 0 15.6 7 15.6 15.6v31.3c0 8.6 -7 15.6 -15.6 15.6H328.1c-8.6 0 -15.6 -7 -15.6 -15.6v-31.3zm-93.7 640.7c-34.6 0 -62.5 -28 -62.5 -62.5s27.9 -62.5 62.5 -62.5 62.5 27.9 62.5 62.5 -28 62.5 -62.5 62.5zm250 -218.8H250c-34.5 0 -62.5 -28 -62.5 -62.5V312.5c0 -34.5 28 -62.5 62.5 -62.5h218.8v312.5zm62.5 0V250H750c34.5 0 62.5 28 62.5 62.5V500c0 34.5 -28 62.5 -62.5 62.5H531.3zm250 218.8c-34.6 0 -62.5 -28 -62.5 -62.5s27.9 -62.5 62.5 -62.5 62.5 27.9 62.5 62.5 -28 62.5 -62.5 62.5z"/></svg>