
  <svg height="1000" width="1000.0" xmlns="http://www.w3.org/2000/svg">
    <path d="m953.1 250c25.9 0 46.9 21 46.9 46.9v156.2c0 25.9-21 46.9-46.9 46.9h-15.6v325c0 25-18.7 50-50 50h-12.5v62.5c0 34.5-28 62.5-62.5 62.5h-62.5c-34.5 0-62.5-28-62.5-62.5v-62.5h-375v62.5c0 34.5-28 62.5-62.5 62.5h-62.5c-34.5 0-62.5-28-62.5-62.5v-62.5c-34.5 0-62.5-28-62.5-62.5v-312.5h-15.6c-25.9 0-46.9-21-46.9-46.9v-156.2c0-25.9 21-46.9 46.9-46.9h15.6v-93.8c0-87.5 193.8-156.2 437.5-156.2s437.5 68.7 437.5 156.2v93.8h15.6z m-640.6-109.4v31.3c0 8.6 7 15.6 15.6 15.6h343.8c8.6 0 15.6-7 15.6-15.6v-31.3c0-8.6-7-15.6-15.6-15.6h-343.8c-8.6 0-15.6 7-15.6 15.6z m-93.7 640.7c34.5 0 62.5-28 62.5-62.5s-28-62.5-62.5-62.5-62.5 27.9-62.5 62.5 27.9 62.5 62.5 62.5z m250-218.8v-312.5h-218.8c-34.5 0-62.5 28-62.5 62.5v187.5c0 34.5 28 62.5 62.5 62.5h218.8z m62.5 0h218.7c34.5 0 62.5-28 62.5-62.5v-187.5c0-34.5-28-62.5-62.5-62.5h-218.7v312.5z m250 218.8c34.5 0 62.5-28 62.5-62.5s-28-62.5-62.5-62.5-62.5 27.9-62.5 62.5 27.9 62.5 62.5 62.5z" />
  </svg>
