<svg height="1000" width="1000" xmlns="http://www.w3.org/2000/svg"><path d="M953.1 250h-15.6v-93.7C937.5 68.7 743.8 0 500 0S62.5 68.7 62.5 156.3V250H46.9C21 250 0 271 0 296.9v156.2C0 479 21 500 46.9 500h15.6v312.5c0 34.5 28 62.5 62.5 62.5v62.5c0 34.5 28 62.5 62.5 62.5H250c34.5 0 62.5 -28 62.5 -62.5V875h375v62.5c0 34.5 28 62.5 62.5 62.5h62.5c34.5 0 62.5 -28 62.5 -62.5V875h12.5c31.3 0 50 -25 50 -50V500h15.6c25.9 0 46.9 -21 46.9 -46.9V296.9C1000 271 979 250 953.1 250zM218.8 781.3c-34.6 0 -62.5 -28 -62.5 -62.5s27.9 -62.5 62.5 -62.5 62.5 27.9 62.5 62.5 -28 62.5 -62.5 62.5zM250 562.5c-34.5 0 -62.5 -28 -62.5 -62.5V250c0 -34.5 28 -62.5 62.5 -62.5h500c34.5 0 62.5 28 62.5 62.5v250c0 34.5 -28 62.5 -62.5 62.5H250zm531.3 218.8c-34.6 0 -62.5 -28 -62.5 -62.5s27.9 -62.5 62.5 -62.5 62.5 27.9 62.5 62.5 -28 62.5 -62.5 62.5z"/></svg>