
  <svg height="1000" width="1250.0" xmlns="http://www.w3.org/2000/svg">
    <path d="m968.8 437.5c155.4 0 281.2 125.8 281.2 281.3s-125.8 281.2-281.2 281.2-281.3-125.8-281.3-281.2 125.8-281.3 281.3-281.3z m125 293.5v-24.5c0-10.5-8.6-19-19-19h-74.8v-106c0-10.4-8.5-19-19-19h-24.5c-10.4 0-19 8.6-19 19v149.5c0 10.5 8.6 19 19 19h118.3c10.4 0 19-8.5 19-19z m-125-356c-73.4 0-141.2 23.3-197.1 62.5h-771.7v-156.2c0-50 43.8-93.8 93.8-93.8h156.2v-93.7c0-50 43.8-93.8 93.8-93.8h312.5c49.9 0 93.7 43.8 93.7 93.8v93.7h156.3c49.9 0 93.7 43.8 93.7 93.8v95.3c-10.3-1-20.7-1.6-31.2-1.6z m-343.8-187.5v-62.5h-250v62.5h250z m13.3 437.5c-8.5 29.8-13.3 61.2-13.3 93.8 0 56.2 13.9 109.2 37.9 156.2h-569.2c-50 0-93.7-43.8-93.7-93.7v-281.3h375v93.8c0 17.2 14 31.2 31.2 31.2h232.1z" />
  </svg>
