
  <svg height="1000" width="875.0" xmlns="http://www.w3.org/2000/svg">
    <path d="m781.3 0c49.9 0 93.7 43.8 93.7 93.8v812.5c0 49.9-43.8 93.7-93.7 93.7h-687.5c-50 0-93.8-43.8-93.8-93.7v-812.5c0-50 43.8-93.8 93.8-93.8h687.5z m-531.3 850v-75c0-12.5-12.5-25-25-25h-75c-12.5 0-25 12.5-25 25v75c0 12.5 12.5 25 25 25h75c12.5 0 25-12.5 25-25z m0-250v-75c0-12.5-12.5-25-25-25h-75c-12.5 0-25 12.5-25 25v75c0 12.5 12.5 25 25 25h75c12.5 0 25-12.5 25-25z m250 250v-75c0-12.5-12.5-25-25-25h-75c-12.5 0-25 12.5-25 25v75c0 12.5 12.5 25 25 25h75c12.5 0 25-12.5 25-25z m0-250v-75c0-12.5-12.5-25-25-25h-75c-12.5 0-25 12.5-25 25v75c0 12.5 12.5 25 25 25h75c12.5 0 25-12.5 25-25z m250 250v-325c0-12.5-12.5-25-25-25h-75c-12.5 0-25 12.5-25 25v325c0 12.5 12.5 25 25 25h75c12.5 0 25-12.5 25-25z m0-500v-200c0-12.5-12.5-25-25-25h-575c-12.5 0-25 12.5-25 25v200c0 12.5 12.5 25 25 25h575c12.5 0 25-12.5 25-25z" />
  </svg>
