<svg height="1000" width="875" xmlns="http://www.w3.org/2000/svg"><path d="M0 906.3V93.8C0 42 42 0 93.8 0h687.5C833 0 875 42 875 93.8v812.5c0 51.7 -42 93.7 -93.7 93.7H93.8C42 1000 0 958 0 906.3zM750 351.6V148.4C750 135.5 739.5 125 726.6 125H148.4c-12.9 0 -23.4 10.5 -23.4 23.4v203.2c0 12.9 10.5 23.4 23.4 23.4h578.2c12.9 0 23.4 -10.5 23.4 -23.4zm-500 250v-78.2C250 510.5 239.5 500 226.6 500h-78.2c-12.9 0 -23.4 10.5 -23.4 23.4v78.2c0 12.9 10.5 23.4 23.4 23.4h78.2c12.9 0 23.4 -10.5 23.4 -23.4zm500 250V523.4C750 510.5 739.5 500 726.6 500h-78.2c-12.9 0 -23.4 10.5 -23.4 23.4v328.2c0 12.9 10.5 23.4 23.4 23.4h78.2c12.9 0 23.4 -10.5 23.4 -23.4zm-500 0v-78.2C250 760.5 239.5 750 226.6 750h-78.2c-12.9 0 -23.4 10.5 -23.4 23.4v78.2c0 12.9 10.5 23.4 23.4 23.4h78.2c12.9 0 23.4 -10.5 23.4 -23.4zm250 -250v-78.2C500 510.5 489.5 500 476.6 500h-78.2c-12.9 0 -23.4 10.5 -23.4 23.4v78.2c0 12.9 10.5 23.4 23.4 23.4h78.2c12.9 0 23.4 -10.5 23.4 -23.4zm0 250v-78.2C500 760.5 489.5 750 476.6 750h-78.2c-12.9 0 -23.4 10.5 -23.4 23.4v78.2c0 12.9 10.5 23.4 23.4 23.4h78.2c12.9 0 23.4 -10.5 23.4 -23.4z"/></svg>