<svg height="1000" width="875" xmlns="http://www.w3.org/2000/svg"><path d="M23.4 375h828.2c12.9 0 23.4 10.5 23.4 23.4v507.9c0 51.7 -42 93.7 -93.7 93.7H93.8C42 1000 0 958 0 906.3V398.4C0 385.5 10.5 375 23.4 375zM875 289.1v-70.3C875 167 833 125 781.3 125h-93.8V23.4C687.5 10.5 677 0 664.1 0h-78.2C573 0 562.5 10.5 562.5 23.4V125h-250V23.4C312.5 10.5 302 0 289.1 0h-78.2C198 0 187.5 10.5 187.5 23.4V125H93.8C42 125 0 167 0 218.8v70.3c0 12.9 10.5 23.4 23.4 23.4h828.2c12.9 0 23.4 -10.5 23.4 -23.4z"/></svg>