
  <svg height="1000" width="875.0" xmlns="http://www.w3.org/2000/svg">
    <path d="m851.6 312.5h-828.2c-12.9 0-23.4-10.5-23.4-23.4v-70.3c0-51.8 42-93.8 93.8-93.8h93.7v-101.6c0-12.9 10.5-23.4 23.4-23.4h78.2c12.9 0 23.4 10.5 23.4 23.4v101.6h250v-101.6c0-12.9 10.5-23.4 23.4-23.4h78.2c12.9 0 23.4 10.5 23.4 23.4v101.6h93.8c51.7 0 93.7 42 93.7 93.8v70.3c0 12.9-10.5 23.4-23.4 23.4z m-828.2 62.5h828.2c12.9 0 23.4 10.5 23.4 23.4v507.9c0 51.7-42 93.7-93.7 93.7h-687.5c-51.8 0-93.8-42-93.8-93.7v-507.9c0-12.9 10.5-23.4 23.4-23.4z m651 187.4l-55-55.5c-9.1-9.2-24-9.2-33.2-0.1l-207.1 205.4-89.8-90.5c-9.1-9.2-23.9-9.2-33.1-0.1l-55.5 55c-9.2 9.1-9.2 23.9-0.1 33.1l161.3 162.7c9.1 9.2 24 9.2 33.2 0.1l279.2-277c9.2-9.1 9.2-23.9 0.1-33.1z" />
  </svg>
