
  <svg height="1000" width="875.0" xmlns="http://www.w3.org/2000/svg">
    <path d="m0 906.3v-531.3h875v531.3c0 51.7-42 93.7-93.7 93.7h-687.5c-51.8 0-93.8-42-93.8-93.7z m125-375v125c0 17.1 14.1 31.2 31.3 31.2h562.5c17.1 0 31.2-14.1 31.2-31.2v-125c0-17.2-14.1-31.3-31.2-31.3h-562.5c-17.2 0-31.3 14.1-31.3 31.3z m656.3-406.3c51.7 0 93.7 42 93.7 93.8v93.7h-875v-93.7c0-51.8 42-93.8 93.8-93.8h93.7v-93.7c0-17.2 14.1-31.3 31.3-31.3h62.5c17.1 0 31.2 14.1 31.2 31.3v93.7h250v-93.7c0-17.2 14.1-31.3 31.3-31.3h62.5c17.1 0 31.2 14.1 31.2 31.3v93.7h93.8z" />
  </svg>
