
  <svg height="1000" width="875.0" xmlns="http://www.w3.org/2000/svg">
    <path d="m851.6 312.5h-828.2c-12.9 0-23.4-10.5-23.4-23.4v-70.3c0-51.8 42-93.8 93.8-93.8h93.7v-101.6c0-12.9 10.5-23.4 23.4-23.4h78.2c12.9 0 23.4 10.5 23.4 23.4v101.6h250v-101.6c0-12.9 10.5-23.4 23.4-23.4h78.2c12.9 0 23.4 10.5 23.4 23.4v101.6h93.8c51.7 0 93.7 42 93.7 93.8v70.3c0 12.9-10.5 23.4-23.4 23.4z m-828.2 62.5h828.2c12.9 0 23.4 10.5 23.4 23.4v507.9c0 51.7-42 93.7-93.7 93.7h-687.5c-51.8 0-93.8-42-93.8-93.7v-507.9c0-12.9 10.5-23.4 23.4-23.4z m617.2 273.4c0-12.9-10.5-23.4-23.4-23.4h-117.2v-117.2c0-12.9-10.5-23.4-23.4-23.4h-78.2c-12.9 0-23.4 10.5-23.4 23.4v117.2h-117.2c-12.9 0-23.4 10.5-23.4 23.4v78.2c0 12.9 10.5 23.4 23.4 23.4h117.2v117.2c0 12.9 10.5 23.4 23.4 23.4h78.2c12.9 0 23.4-10.5 23.4-23.4v-117.2h117.2c12.9 0 23.4-10.5 23.4-23.4v-78.2z" />
  </svg>
