
  <svg height="1000" width="1000.0" xmlns="http://www.w3.org/2000/svg">
    <path d="m93.8 62.5h812.5c51.7 0 93.7 42 93.7 93.8v687.5c0 51.7-42 93.7-93.7 93.7h-812.5c-51.8 0-93.8-42-93.8-93.7v-687.5c0-51.8 42-93.8 93.8-93.8z m0 62.5c-17.2 0-31.3 14.1-31.3 31.3v19.5c0 6.4 5.3 11.7 11.7 11.7h226.6c6.4 0 11.7-5.3 11.7-11.7v-39.1c0-6.4-5.3-11.7-11.7-11.7h-207z m832 187.5c6.4 0 11.7-5.3 11.7-11.7v-144.5c0-17.2-14.1-31.3-31.2-31.3h-493.8c-3.9 0-7.6 2-9.8 5.3l-59 88.5h-269.5c-6.4 0-11.7 5.2-11.7 11.7v70.3c0 6.4 5.3 11.7 11.7 11.7h851.6z m-425.8 515.6c129.3 0 234.4-105.1 234.4-234.3s-105.1-234.4-234.4-234.4-234.4 105.1-234.4 234.4 105.1 234.3 234.4 234.3z m0-406.2c94.7 0 171.9 77.1 171.9 171.9s-77.2 171.8-171.9 171.8-171.9-77.1-171.9-171.8 77.2-171.9 171.9-171.9z m-93.7 203.1c17.1 0 31.2-14.1 31.2-31.2 0-34.4 28.1-62.5 62.5-62.5 17.2 0 31.3-14.1 31.3-31.3s-14.1-31.2-31.3-31.2c-68.9 0-125 56-125 125 0 17.1 14.1 31.2 31.3 31.2z" />
  </svg>
