<svg height="1000" width="1000" xmlns="http://www.w3.org/2000/svg"><path d="M93.8 62.5C42 62.5 0 104.5 0 156.3v687.5c0 51.7 42 93.7 93.8 93.7h812.5c51.7 0 93.7 -42 93.7 -93.7V156.3c0 -51.8 -42 -93.8 -93.7 -93.8H93.8zm0 62.5h207c6.4 0 11.7 5.3 11.7 11.7v39.1c0 6.4 -5.3 11.7 -11.7 11.7H74.2c-6.4 0 -11.7 -5.3 -11.7 -11.7v-19.5C62.5 139.1 76.6 125 93.8 125zm832 187.5H74.2c-6.4 0 -11.7 -5.3 -11.7 -11.7v-70.3c0 -6.5 5.3 -11.7 11.7 -11.7h269.6l58.9 -88.5c2.2 -3.3 5.9 -5.3 9.8 -5.3h493.8c17.1 0 31.2 14.1 31.2 31.3v144.5c0 6.4 -5.3 11.7 -11.7 11.7zM500 828.1C370.7 828.1 265.6 723 265.6 593.8S370.7 359.4 500 359.4s234.4 105.1 234.4 234.4S629.3 828.1 500 828.1zm0 -406.2c-94.7 0 -171.9 77.1 -171.9 171.9S405.3 765.6 500 765.6 671.9 688.5 671.9 593.8 594.7 421.9 500 421.9zM406.3 625C389.1 625 375 610.9 375 593.8c0 -69 56.1 -125 125 -125 17.2 0 31.3 14 31.3 31.2s-14.1 31.3 -31.3 31.3c-34.4 0 -62.5 28.1 -62.5 62.5 0 17.1 -14.1 31.2 -31.2 31.2z"/></svg>