
  <svg height="1000" width="1000.0" xmlns="http://www.w3.org/2000/svg">
    <path d="m1000 281.3v562.5c0 51.7-42 93.7-93.7 93.7h-812.5c-51.8 0-93.8-42-93.8-93.7v-562.5c0-51.8 42-93.8 93.8-93.8h171.8l24-64.3c13.7-36.5 48.7-60.7 87.7-60.7h245.2c39 0 74 24.2 87.7 60.7l24.2 64.3h171.9c51.7 0 93.7 42 93.7 93.8z m-265.6 281.2c0-129.3-105.1-234.4-234.4-234.4s-234.4 105.1-234.4 234.4 105.1 234.4 234.4 234.4 234.4-105.1 234.4-234.4z m-62.5 0c0 94.7-77.2 171.9-171.9 171.9s-171.9-77.2-171.9-171.9 77.2-171.9 171.9-171.9 171.9 77.2 171.9 171.9z" />
  </svg>
