
  <svg height="1000" width="1000.0" xmlns="http://www.w3.org/2000/svg">
    <path d="m971.7 179.7c69.7 147.4 5.4 324.4-134.6 408.2l-678.3 403.3c-10.2 5.9-21.1 8.8-32 8.8-21.3 0-42-10.9-53.8-30.5l-64-107.2c-17.8-29.7-8.2-68 21.5-85.7l690.6-410.4c29.5-17.8 39.3-56.2 21.5-85.7-11.7-19.6-32.4-30.5-53.7-30.5-11 0-22.1 2.7-32.1 8.8l-53.7 32c-10.1 5.9-21.1 8.8-32 8.8-21.3 0-42-10.9-53.7-30.5l-64.1-107.2c-17.8-29.7-8.2-68 21.5-85.7l53.7-32.1c50-29.8 105.3-44.1 159.8-44.1 116 0 228.9 64.6 283.4 179.7z m-347.1 25.4c16.6-10 35.4-14.9 54.5-16.4l-40.2-120.7c-20.5 4.1-40.3 10.7-59.2 19.9l40 120.1z m-339.6 638.3l60.1-35.8-118.1-75.2-60.2 35.8z m209.9-124.8l60.2-35.8-118.2-75.2-60.1 35.8z m216.6-128.8l60.2-35.7-118.2-75.2-60.1 35.7z m39.9-385.3c17.9 10.5 33.6 25.4 44.7 43.5l89.3-89.2c-12.9-16.6-27.8-31.5-44.2-44.2z m160.3 210.5c9-19.1 15.6-39 19.7-59.3l-117.9-39.3c-0.2 8.8-1.4 17.8-3.5 26.6-3.2 12.1-8.2 23-14.5 33.4z" />
  </svg>
