
  <svg height="1000" width="1000.0" xmlns="http://www.w3.org/2000/svg">
    <path d="m983.3 703.6c10.3 5.4 16.7 16 16.7 27.7 0 11.5-6.4 22.2-16.6 27.6-4.8 2.5-118.7 61.9-260.7 61.9-12 0-23.4-0.2-34.2-0.6 22.2 43.5 32.2 74.9 32.8 76.6 3.5 11.1 0.6 23.3-7.6 31.5-5.7 5.7-13.5 9.2-22.2 9.2-3.2 0-6.3-0.5-9.3-1.4-3.5-1.1-73.6-23.4-150.9-76.7v125c0 8.6-7 15.6-15.7 15.6h-31.2c-8.7 0-15.6-7-15.6-15.6v-125.1c-77.4 53.4-147.5 75.7-151 76.8-3 0.9-6.1 1.4-9.3 1.4-8.7 0-16.5-3.5-22.2-9.2-8.2-8.3-11.1-20.4-7.6-31.5 0.6-1.8 10.6-33.2 32.8-76.6-10.8 0.4-22.2 0.6-34.2 0.6-142 0-255.9-59.4-260.7-61.9-9.9-5.3-16.6-15.7-16.6-27.6 0-12 6.7-22.4 16.7-27.7 3-1.6 63.2-33 149.9-50.4-125.5-146.7-164.1-315.8-165.9-323.5-0.4-2.2-0.7-4.5-0.7-6.8 0-8.6 3.5-16.4 9.1-22.1 5.9-5.9 13.9-9.1 22.1-9.1 2.3 0 4.5 0.2 6.8 0.7 7.5 1.7 169 38.3 313.6 155.8 0-2.9 0-5.7 0-8.6 0-232 117.1-417.4 122.1-425.2 5.7-9 15.7-14.4 26.3-14.4 11 0 20.7 5.7 26.3 14.4 5 7.8 122.1 193.2 122.1 425.2 0 2.9 0 5.7 0 8.6 144.6-117.5 306.1-154.1 313.6-155.8 2.3-0.5 4.5-0.7 6.8-0.7 8.2 0 16.1 3.2 22.1 9.1 7.5 7.6 10.7 18.5 8.4 28.9-1.8 7.7-40.4 176.8-165.9 323.5 86.7 17.4 146.9 48.8 149.9 50.4z" />
  </svg>
