<svg height="1000" width="1000" xmlns="http://www.w3.org/2000/svg"><path d="M983.3 703.6c-3 -1.6 -63.2 -33 -149.9 -50.4C958.9 506.5 997.5 337.4 999.3 329.7c2.3 -10.4 -.9 -21.3 -8.4 -28.9 -6 -5.9 -13.9 -9.1 -22.1 -9.1 -2.3 0 -4.5 .2 -6.8 .7 -7.5 1.7 -169 38.3 -313.6 155.8 0 -2.9 0 -5.7 0 -8.6C648.4 207.6 531.3 22.2 526.3 14.4A31.2 -31.2 0 0 1 500 0c-10.6 0 -20.6 5.4 -26.3 14.4 -5 7.8 -122.1 193.2 -122.1 425.2 0 2.9 0 5.7 0 8.6C207 330.7 45.5 294.1 37.9 292.4c-2.2 -.5 -4.4 -.7 -6.7 -.7 -8.2 0 -16.2 3.2 -22.1 9.1A31.2 -31.2 0 0 1 .7 329.7c1.8 7.7 40.4 176.8 165.9 323.5C79.9 670.6 19.7 702 16.7 703.6a31.3 -31.3 0 0 1 -.1 55.3c4.8 2.5 118.7 61.9 260.7 61.9 12 0 23.4 -.2 34.2 -.6 -22.2 43.4 -32.2 74.8 -32.8 76.6 -3.5 11.1 -.6 23.2 7.6 31.5a31.3 -31.3 0 0 1 31.5 7.8c3.5 -1.1 73.6 -23.4 151 -76.8v125.1c0 8.6 6.9 15.6 15.6 15.6h31.2c8.7 0 15.7 -7 15.7 -15.6v-125c77.3 53.3 147.4 75.6 150.9 76.7a31.3 -31.3 0 0 1 31.5 -7.8c8.2 -8.2 11.1 -20.4 7.6 -31.5 -.6 -1.7 -10.6 -33.1 -32.8 -76.6 10.8 .4 22.2 .6 34.2 .6 142 0 255.9 -59.4 260.7 -61.9 10.2 -5.4 16.6 -16.1 16.6 -27.6 0 -11.7 -6.4 -22.3 -16.7 -27.7z"/></svg>