<svg height="1000" width="1125" xmlns="http://www.w3.org/2000/svg"><path d="M1084.6 586.1L828.5 220.3C785 158.2 715.6 125 645.3 125c-44.1 0 -88.9 13.1 -127.9 40.4 -38.5 27 -65.8 64.1 -81.1 105.1C430.7 154.7 335.9 62.5 218.8 62.5 97.9 62.5 0 160.4 0 281.3v437.5c0 120.8 97.9 218.7 218.8 218.7S437.5 839.6 437.5 718.8V427.5c6.4 16.8 14.3 33.4 25 48.9l256.3 365.8c43.3 62.1 112.6 95.3 183.2 95.3 44.3 0 88.8 -13.1 127.9 -40.4 101 -70.7 125.4 -210 54.7 -311zM312.5 500H125V281.3c0 -51.8 42 -93.8 93.8 -93.8s93.7 42 93.7 93.8V500zM693 587.7l-128.2 -183c-15 -21.5 -20.9 -47.7 -16.2 -73.4 4.5 -25.8 19 -48.5 40.5 -63.5C605.7 256.1 625.2 250 645.3 250c32.2 0 62.3 15.6 80.7 42l128.1 183L693 587.7z"/></svg>