
  <svg height="1000" width="1125.0" xmlns="http://www.w3.org/2000/svg">
    <path d="m1084.6 586.1c70.7 101 46.3 240.3-54.7 311-39.1 27.3-83.6 40.4-127.9 40.4-70.6 0-139.9-33.2-183.2-95.3l-256.3-365.8c-10.7-15.5-18.6-32.1-25-48.9v291.3c0 120.9-97.8 218.7-218.7 218.7s-218.8-97.8-218.8-218.7v-437.5c0-120.9 97.9-218.8 218.8-218.8 117.1 0 211.9 92.2 217.5 208 15.3-41 42.6-78.1 81.1-105.1 39-27.3 83.8-40.4 127.9-40.4 70.3 0 139.7 33.2 183.2 95.3z m-772.1-86.1v-218.7c0-51.8-42-93.8-93.7-93.8s-93.8 42-93.8 93.8v218.7h187.5z m380.5 87.7l161.1-112.7-128.1-183c-18.4-26.4-48.5-42-80.7-42-20.1 0-39.6 6.1-56.2 17.8-21.5 15-36 37.7-40.5 63.4-4.7 25.8 1.2 52 16.2 73.5z" />
  </svg>
