<svg height="1000" width="937.5" xmlns="http://www.w3.org/2000/svg"><path d="M856.8 414.7l-22 -54.9 -38.9 -97.3C762.5 179 682.8 125 592.8 125H344.7C254.8 125 175 179 141.6 262.5l-38.9 97.3 -22 54.9C33.6 432.6 0 477.9 0 531.3V625c0 31.5 12 59.9 31.3 81.9v105.6c0 34.5 27.9 62.5 62.5 62.5h62.5c34.5 0 62.5 -28 62.5 -62.5V750h500v62.5c0 34.5 27.9 62.5 62.5 62.5h62.5c34.5 0 62.5 -28 62.5 -62.5V706.9c19.2 -22 31.2 -50.4 31.2 -81.9v-93.7c0 -53.4 -33.6 -98.7 -80.7 -116.6zM257.7 308.9c14.2 -35.6 48.7 -58.9 87 -58.9h248.1c38.3 0 72.8 23.3 87 58.9l39 97.4h-500l38.9 -97.4zM156.3 624.6c-37.5 0 -62.5 -24.9 -62.5 -62.3s25 -62.3 62.5 -62.3 93.7 56.1 93.7 93.5 -56.2 31.1 -93.7 31.1zm625 0c-37.5 0 -93.8 6.2 -93.8 -31.1S743.8 500 781.3 500s62.5 24.9 62.5 62.3 -25 62.3 -62.5 62.3z"/></svg>