<svg height="1000" width="1250" xmlns="http://www.w3.org/2000/svg"><path d="M1062.5 375h-31.2L818.8 109.4A125 -125 0 0 1 721.2 62.5H303.4c-51.1 0 -97.1 31.1 -116.1 78.6L93.8 379.4C39.9 393.4 0 441.8 0 500v218.8C0 736 14 750 31.3 750H125c0 103.6 83.9 187.5 187.5 187.5S500 853.6 500 750h250c0 103.6 83.9 187.5 187.5 187.5S1125 853.6 1125 750h93.8c17.2 0 31.2 -14 31.2 -31.2V562.5C1250 458.9 1166.1 375 1062.5 375zm-750 468.8c-51.7 0 -93.7 -42.1 -93.7 -93.8s42 -93.7 93.7 -93.7 93.8 42 93.8 93.7 -42.1 93.8 -93.8 93.8zM453.1 375H228.4l75 -187.5h149.7V375zm93.8 0V187.5h174.3l150 187.5H546.9zm390.6 468.8c-51.7 0 -93.7 -42.1 -93.7 -93.8s42 -93.7 93.7 -93.7 93.8 42 93.8 93.7 -42.1 93.8 -93.8 93.8z"/></svg>