
  <svg height="1000" width="937.5" xmlns="http://www.w3.org/2000/svg">
    <path d="m856.8 414.7c47.1 17.9 80.7 63.2 80.7 116.5v93.8c0 31.5-12 59.9-31.3 81.9v105.6c0 34.5-27.9 62.5-62.5 62.5h-62.5c-34.5 0-62.5-28-62.5-62.5v-62.5h-500v62.5c0 34.5-27.9 62.5-62.5 62.5h-62.5c-34.5 0-62.5-28-62.5-62.5v-105.6c-19.2-22-31.2-50.4-31.2-81.9v-93.8c0-53.3 33.6-98.6 80.7-116.5l22-54.9 38.9-97.3c33.4-83.5 113.2-137.5 203.1-137.5h248.1c90 0 169.7 54 203.1 137.5l38.9 97.3z m-599.1-105.8l-38.9 97.4h500l-39-97.4c-14.2-35.6-48.7-58.9-87-58.9h-248.1c-38.3 0-72.8 23.3-87 58.9z m-101.4 315.7c37.5 0 93.7 6.2 93.7-31.1 0-37.4-56.2-93.5-93.7-93.5s-62.5 24.9-62.5 62.3c0 37.4 24.9 62.3 62.5 62.3z m625 0c37.5 0 62.5-24.9 62.5-62.3 0-37.4-25-62.3-62.5-62.3s-93.8 56.1-93.8 93.5c0 37.3 56.2 31.1 93.8 31.1z" />
  </svg>
