
  <svg height="1000" width="1000.0" xmlns="http://www.w3.org/2000/svg">
    <path d="m937.5 250c34.5 0 62.5 28 62.5 62.5v500c0 34.5-28 62.5-62.5 62.5h-875c-34.5 0-62.5-28-62.5-62.5v-500c0-34.5 28-62.5 62.5-62.5h62.5v-93.7c0-17.3 14-31.3 31.3-31.3h187.5c17.2 0 31.2 14 31.2 31.3v93.7h250v-93.7c0-17.3 14-31.3 31.3-31.3h187.5c17.2 0 31.2 14 31.2 31.3v93.7h62.5z m-562.5 265.6v-31.2c0-8.7-7-15.6-15.6-15.6h-218.8c-8.6 0-15.6 6.9-15.6 15.6v31.2c0 8.7 7 15.7 15.6 15.7h218.8c8.6 0 15.6-7 15.6-15.7z m500 0v-31.2c0-8.7-7-15.6-15.6-15.6h-78.1v-78.2c0-8.6-7-15.6-15.7-15.6h-31.2c-8.7 0-15.6 7-15.6 15.6v78.2h-78.2c-8.6 0-15.6 6.9-15.6 15.6v31.2c0 8.7 7 15.7 15.6 15.7h78.2v78.1c0 8.6 6.9 15.6 15.6 15.6h31.2c8.7 0 15.7-7 15.7-15.6v-78.1h78.1c8.6 0 15.6-7 15.6-15.7z" />
  </svg>
