
  <svg height="1000" width="1250.0" xmlns="http://www.w3.org/2000/svg">
    <path d="m279.8 431.3l-24.3 90.5c-5.9 22-7.1 44.7-4.7 67.2l-68.7 56.6c-12.9 10.6-31.9-0.8-28.6-17.1l30.2-149.8c2-10.3-5.2-20.1-15.7-21.1l-152-14.7c-16.6-1.6-22-23.1-8.1-32.3l127.2-84.6c8.7-5.8 10.5-17.9 3.9-25.9l-97.1-118c-10.6-12.9 0.9-31.9 17.2-28.6l149.7 30.2c10.3 2 20.1-5.2 21.1-15.7l14.8-152c1.6-16.6 23.1-22 32.3-8.1l84.6 127.2c5.8 8.7 17.8 10.5 25.9 3.9l118-97.1c12.8-10.6 31.8 0.8 28.5 17.1l-22.1 109.7c-5.3 6-10.6 11.9-15.4 18.4l-62.8 83.9-20.9 28c-64 17.1-115.6 67.4-133 132.3z m965.9 258.8l-24.2 90.5c-6.1 22.8-18.3 42.2-34.3 57.4-5.3 5-11 9.5-17.1 13.6l-27.3 102.1c-2.3 8.3-6.1 15.8-11.1 22.2-14.9 19.2-40.5 28.7-65.5 22l-60.3-16.2c-33.4-8.9-53.2-43.2-44.2-76.6l16.1-60.3-482.9-129.4-16.2 60.3c-8.9 33.4-43.2 53.1-76.6 44.2l-60.3-16.2c-25-6.6-42.4-27.6-45.8-51.7-1.1-8.1-0.6-16.5 1.6-24.8l27.3-102c-3.2-6.5-5.9-13.4-8-20.4-6.2-21.1-7.1-44-1-66.8l24.3-90.6c10.3-38.6 37.8-68 72-82.4 11.2-4.8 23.5-8 36.1-9.2l35.4-47.4 62.8-83.9c6.8-9 14.1-17.4 21.9-25.1 15.6-15.4 33.3-28.2 52.2-38.1 9.5-4.9 19.3-9.2 29.4-12.6 20.2-7 41.4-11 63-11.8s43.6 1.6 65.3 7.4l239.6 64.2c21.7 5.8 41.9 14.7 60.2 26.2 27.5 17.2 50.4 40.1 67.8 67.4 17.2 27.1 28.6 58.3 32.6 91.8l12.4 104 7 58.7c20.2 14.6 35.7 34.8 44.4 58.5 8.6 23.2 10.4 49.2 3.4 75z m-746.5-232.4c-36.3-9.7-66.8 7.9-76.5 44s8 66.6 44.2 76.3c36.2 9.8 89 30.3 98.6-5.8 9.7-36.1-30.1-104.8-66.3-114.5z m567.6 55l-12.4-104.1c-1.2-9.5-3.7-18.6-7.5-27-11.3-25.4-33.6-45-61.4-52.4l-239.6-64.2c-7.7-2.1-15.9-3.2-24.3-3.2-30.7 0-57.9 14.7-75 37.6l-62.8 83.9 335.9 90z m36.1 106.8c-36.2-9.8-105.1 29.9-114.8 65.9-9.6 36.2 46.3 44.7 82.5 54.4 36.3 9.7 66.9-7.9 76.5-44 9.7-36.1-8-66.6-44.2-76.3z" />
  </svg>
