
  <svg height="1000" width="1250.0" xmlns="http://www.w3.org/2000/svg">
    <path d="m1062.5 375c103.6 0 187.5 83.9 187.5 187.5v156.3c0 17.2-14 31.2-31.2 31.2h-93.8c0 103.6-83.9 187.5-187.5 187.5s-187.5-83.9-187.5-187.5h-250c0 103.6-83.9 187.5-187.5 187.5s-187.5-83.9-187.5-187.5h-93.7c-17.3 0-31.3-14-31.3-31.2v-218.8c0-58.2 39.9-106.6 93.8-120.6l93.5-238.3c19-47.5 65-78.6 116.1-78.6h417.8c39.5 0 74.7 18.3 97.6 46.9l212.4 265.6h31.3z m-750 468.8c51.7 0 93.8-42.1 93.8-93.8s-42.1-93.7-93.8-93.7-93.7 42-93.7 93.7 42 93.8 93.7 93.8z m140.6-468.8v-187.5h-149.7l-75 187.5h224.7z m93.8 0h324.3l-150-187.5h-174.3v187.5z m390.6 468.8c51.7 0 93.8-42.1 93.8-93.8s-42.1-93.7-93.8-93.7-93.7 42-93.7 93.7 42 93.8 93.7 93.8z" />
  </svg>
