<svg height="1000" width="1000" xmlns="http://www.w3.org/2000/svg"><path d="M976.5 343.8H859.6l-32.5 -81.3C793.7 179 714 125 624 125H376c-90 0 -169.7 54 -203.1 137.5l-32.5 81.3H23.5C8.2 343.8 -3 358.1 .7 372.9l11.7 46.8c2.6 10.5 12 17.8 22.8 17.8h39.2c-26.3 22.9 -43.1 56.2 -43.1 93.8V625c0 31.5 12 59.9 31.2 81.9v105.6c0 34.5 28 62.5 62.5 62.5h62.5C222 875 250 847 250 812.5V750h500v62.5c0 34.5 28 62.5 62.5 62.5H875c34.5 0 62.5 -28 62.5 -62.5V706.9c19.2 -22 31.3 -50.4 31.3 -81.9v-93.7c0 -37.6 -16.9 -70.9 -43.2 -93.8h39.2c10.8 0 20.2 -7.3 22.8 -17.8l11.7 -46.8c3.7 -14.8 -7.5 -29.1 -22.8 -29.1zM288.9 308.9C303.2 273.3 337.6 250 376 250h248c38.4 0 72.8 23.3 87.1 58.9l38.9 97.4H250l38.9 -97.4zM187.5 624.6C150 624.6 125 599.7 125 562.3S150 500 187.5 500s93.8 56.1 93.8 93.5 -56.3 31.1 -93.8 31.1zm625 0c-37.5 0 -93.7 6.2 -93.7 -31.1S775 500 812.5 500s62.5 24.9 62.5 62.3 -25 62.3 -62.5 62.3z"/></svg>