
  <svg height="1000" width="1000.0" xmlns="http://www.w3.org/2000/svg">
    <path d="m976.5 343.8c15.3 0 26.5 14.3 22.8 29.1l-11.7 46.8c-2.6 10.5-12 17.8-22.8 17.8h-39.2c26.3 22.9 43.1 56.2 43.1 93.8v93.7c0 31.5-12 59.9-31.2 81.9v105.6c0 34.5-28 62.5-62.5 62.5h-62.5c-34.5 0-62.5-28-62.5-62.5v-62.5h-500v62.5c0 34.5-28 62.5-62.5 62.5h-62.5c-34.5 0-62.5-28-62.5-62.5v-105.6c-19.2-22-31.3-50.4-31.3-81.9v-93.7c0-37.6 16.9-70.9 43.2-93.8h-39.2c-10.8 0-20.2-7.3-22.8-17.8l-11.7-46.8c-3.7-14.8 7.5-29.1 22.8-29.1h116.9l32.5-81.3c33.4-83.5 113.1-137.5 203.1-137.5h248c90 0 169.7 54 203.1 137.5l32.5 81.3h116.9z m-687.6-34.9l-38.9 97.4h500l-38.9-97.4c-14.3-35.6-48.7-58.9-87.1-58.9h-248c-38.4 0-72.8 23.3-87.1 58.9z m-101.4 315.7c37.5 0 93.8 6.2 93.8-31.1 0-37.4-56.3-93.5-93.8-93.5s-62.5 24.9-62.5 62.3c0 37.4 25 62.3 62.5 62.3z m625 0c37.5 0 62.5-24.9 62.5-62.3 0-37.4-25-62.3-62.5-62.3s-93.7 56.1-93.7 93.5c0 37.3 56.2 31.1 93.7 31.1z" />
  </svg>
