
  <svg height="1000" width="1250.0" xmlns="http://www.w3.org/2000/svg">
    <path d="m812.5 406.3c17.2 0 31.3 14 31.3 31.2s-14.1 31.3-31.3 31.3-31.2-14.1-31.2-31.3 14-31.2 31.2-31.2z m406.3 218.7c17.2 0 31.2 14 31.2 31.3v62.5c0 17.2-14 31.2-31.2 31.2h-656.3c0 103.5-84 187.5-187.5 187.5s-187.5-84-187.5-187.5h-62.5c-69 0-125-56-125-125v-500c0-69 56-125 125-125h687.5c172.5 0 312.5 140 312.5 312.5v312.5h93.8z m-843.8 218.8c51.7-0.1 93.7-42.1 93.8-93.8 0-51.7-42.1-93.7-93.8-93.7s-93.7 42-93.7 93.7 42 93.8 93.7 93.8z m125-468.8v-125c0-34.5-28-62.5-62.5-62.5h-250c-34.5 0-62.5 28-62.5 62.5v125c0 34.5 28 62.5 62.5 62.5h250c34.5 0 62.5-28 62.5-62.5z m375 250v-375c0-34.5-28-62.5-62.5-62.5h-125c-34.5 0-62.5 28-62.5 62.5v375h250z" />
  </svg>
