
  <svg height="1000" width="1000.0" xmlns="http://www.w3.org/2000/svg">
    <path d="m582.4 305.9c120.5 58.7 170.5 204.1 111.7 324.6-24.6 50.4-64.6 88.6-111.5 111.5l-199.2 97.3-111.3-111.4c-12.1-12.1-31.9-12.1-44.2 0s-12.3 32.1 0 44.2l96.1 96.1-260.9 127.3c-21.7 10.6-48.1 1.6-58.6-20.1-6.1-12.5-5.7-26.8 0-38.5l250.2-513.1 98 98.1c6.1 6 14.1 9.2 22.1 9.2 8 0 16-3.2 22.1-9.2 12.3-12.1 12.3-31.9 0-44.2l-107.8-107.8c69.7-84.5 190.4-114.2 293.3-64z m179.9-68.2c79.5-38.1 173.4-18.4 237.7 59.2-81.2 98.2-210 102.5-296.7 15.4l-15.6-15.6c-87.1-86.7-82.8-215.3 15.4-296.7 77.6 64.3 97.3 158.2 59.2 237.7z" />
  </svg>
