
  <svg height="1000" width="1000.0" xmlns="http://www.w3.org/2000/svg">
    <path d="m998.2 739.8c1.2 6.9 1.8 13.7 1.6 20.6v177.1c0 34.6-27.9 62.5-62.5 62.5h-875c-34.6 0-62.5-27.9-62.5-62.5v-177.3c0-6.9 0.6-13.7 1.8-20.6l52.1-312.5c5.1-30 31.3-52.1 61.7-52.1h165.9v-125h-187.5c-17.2 0-31.3-14.1-31.3-31.2v-187.5c0-17.2 14.1-31.3 31.3-31.3h500c17.1 0 31.2 14.1 31.2 31.3v187.6c0 17.2-14.1 31.3-31.2 31.3h-187.5v125h478.1c30.6 0 56.6 22.1 61.7 52.1z m-451.3-255.4v31.2c0 17.2 14 31.3 31.2 31.3h31.3c17.2 0 31.2-14.1 31.2-31.3v-31.2c0-17.2-14-31.3-31.2-31.3h-31.3c-17.2 0-31.2 14.1-31.2 31.3z m-62.5 125c-17.2 0-31.3 14-31.3 31.2v31.3c0 17.2 14.1 31.2 31.3 31.2h31.2c17.2 0 31.3-14 31.3-31.2v-31.3c0-17.2-14.1-31.2-31.3-31.2h-31.2z m-62.5-156.3h-31.3c-17.2 0-31.2 14.1-31.2 31.3v31.2c0 17.2 14 31.3 31.2 31.3h31.3c17.2 0 31.2-14.1 31.2-31.3v-31.2c0-17.2-14-31.3-31.2-31.3z m-265.6-296.8h375v-62.5h-375v62.5z m78.1 390.6c17.2 0 31.2-14.1 31.2-31.3v-31.2c0-17.2-14-31.3-31.2-31.3h-31.3c-17.2 0-31.2 14.1-31.2 31.3v31.2c0 17.2 14 31.3 31.2 31.3h31.3z m31.2 125c0 17.2 14.1 31.2 31.3 31.2h31.2c17.2 0 31.3-14 31.3-31.2v-31.3c0-17.2-14.1-31.2-31.3-31.2h-31.2c-17.2 0-31.3 14-31.3 31.2v31.3z m421.9 218.7v-31.2c0-8.6-7-15.6-15.6-15.6h-343.8c-8.6 0-15.6 7-15.6 15.6v31.2c0 8.6 7 15.7 15.6 15.7h343.8c8.6 0 15.6-7.1 15.6-15.7z m46.9-218.7v-31.3c0-17.2-14.1-31.2-31.3-31.2h-31.2c-17.2 0-31.3 14-31.3 31.2v31.3c0 17.2 14.1 31.2 31.3 31.2h31.2c17.2 0 31.3-14 31.3-31.2z m93.7-156.3v-31.2c0-17.2-14-31.3-31.2-31.3h-31.3c-17.2 0-31.2 14.1-31.2 31.3v31.2c0 17.2 14 31.3 31.2 31.3h31.3c17.2 0 31.2-14.1 31.2-31.3z" />
  </svg>
