
  <svg height="1000" width="1000.0" xmlns="http://www.w3.org/2000/svg">
    <path d="m567.6 375c23.2 114 124.2 200 244.9 200 21.7 0 42.4-3.7 62.5-8.9v402.6c0 17.3-14 31.3-31.2 31.3h-62.5c-17.3 0-31.3-14-31.3-31.3v-281.2l-250 187.5h62.5c34.5 0 62.5 28 62.5 62.5v31.2c0 17.3-14 31.3-31.2 31.3h-343.8c-68.9 0-125-56.1-125-125v-500c0-34.5-28-62.5-62.5-62.5-34.5 0-62.5-28-62.5-62.5s28-62.5 62.5-62.5c103.4 0 187.5 84.1 187.5 187.5v167.9c108.9-164 278.1-167.9 317.6-167.9z m307.4-187.5l125-125v262.5c0 103.6-83.9 187.5-187.5 187.5s-187.5-83.9-187.5-187.5v-262.5l125 125h125z m-140.6 156.3c17.2 0 31.2-14 31.2-31.3s-14-31.2-31.2-31.2-31.3 13.9-31.3 31.2 14 31.3 31.3 31.3z m156.2 0c17.3 0 31.3-14 31.3-31.3s-14-31.2-31.3-31.2-31.2 13.9-31.2 31.2 14 31.3 31.2 31.3z" />
  </svg>
