<svg height="1000" width="1000" xmlns="http://www.w3.org/2000/svg"><path d="M895.7 499.8l89.9 -87.9c26.7 -25.3 14.2 -70.3 -20.9 -78.7L842.4 301.9l34.5 -121.1c9.7 -34.8 -23.1 -67.7 -58 -57.9l-121.1 34.5L666.6 35C658.4 .4 612.8 -12.3 587.9 14.1L500 104.6 412.1 14.1C387.5 -12 341.7 0 333.4 35l-31.2 122.4L181.1 122.9c-34.9 -9.8 -67.7 23.1 -58 57.9l34.5 121.1L35.3 333.2c-35.2 8.4 -47.6 53.4 -20.9 78.7l89.9 87.9 -89.9 87.9c-26.7 25.4 -14.3 70.4 20.9 78.8l122.3 31.3 -34.5 121.1c-9.7 34.8 23.1 67.7 58 57.9l121 -34.5 31.3 122.4c8.6 36.3 54.1 46.9 78.7 20.9L500 895.7l87.9 89.9c24.4 26.3 70.3 14.6 78.7 -20.9l31.2 -122.4 121.1 34.5c34.9 9.8 67.7 -23.1 58 -57.9L842.4 697.8l122.3 -31.3c35.2 -8.4 47.6 -53.4 20.9 -78.8l-89.9 -87.9z"/></svg>