
  <svg height="1000" width="875.0" xmlns="http://www.w3.org/2000/svg">
    <path d="m218.8 250v250h-93.8v-250c0-138.1 111.9-250 250-250h125c138.1 0 250 111.9 250 250v250h-93.7v-250c0-57.6-31.7-107.4-78.2-134.6v384.6h-93.7v-406.3h-93.8v406.3h-93.7v-384.6c-46.5 27.2-78.1 77-78.1 134.6z m652.9 417.8c13.5 40.4-16.6 82.2-59.2 82.2v218.7c0 17.2-14.1 31.3-31.2 31.3h-62.5c-17.2 0-31.3-14.1-31.3-31.3v-218.7h-500v218.7c0 17.2-14.1 31.3-31.2 31.3h-62.5c-17.2 0-31.3-14.1-31.3-31.3v-218.7c-42.6 0-72.7-41.8-59.4-82.2l20.9-62.5c8.6-25.6 32.4-42.8 59.4-42.8h708c27 0 50.8 17.2 59.4 42.8z" />
  </svg>
