<svg height="1000" width="1250" xmlns="http://www.w3.org/2000/svg"><path d="M406.3 687.5c-4.7 0 -9.4 .7 -13.8 2.1 -25.4 8.3 -52 13.5 -80 13.5s-54.6 -5.2 -80 -13.5c-4.4 -1.4 -9.1 -2.1 -13.7 -2.1C97.5 687.5 -.6 786.1 0 907.5c.3 51.3 42.4 92.5 93.8 92.5h437.5c51.3 0 93.4 -41.2 93.7 -92.5 .6 -121.4 -97.5 -220 -218.7 -220zM312.5 625C416.1 625 500 541.1 500 437.5S416.1 250 312.5 250 125 333.9 125 437.5 208.9 625 312.5 625zM1156.3 0h-750c-51.7 0 -93.8 43.5 -93.8 96.9v90.6c45.7 0 88.1 13.2 125 34.8V125H1125v562.5h-125v-125H750v125H601.1c37.3 32.6 64.7 75.6 77.5 125h477.7c51.6 0 93.7 -43.5 93.7 -96.9V96.9C1250 43.5 1207.9 0 1156.3 0z"/></svg>