
  <svg height="1000" width="1250.0" xmlns="http://www.w3.org/2000/svg">
    <path d="m406.3 687.5c121.2 0 219.3 98.6 218.7 220-0.3 51.2-42.4 92.5-93.7 92.5h-437.5c-51.4 0-93.5-41.3-93.8-92.5-0.6-121.4 97.5-220 218.8-220 4.6 0 9.3 0.7 13.7 2.1 25.4 8.3 52 13.5 80 13.5s54.6-5.2 80-13.5c4.4-1.4 9.1-2.1 13.7-2.1z m-93.8-62.5c-103.6 0-187.5-83.9-187.5-187.5s83.9-187.5 187.5-187.5 187.5 83.9 187.5 187.5-83.9 187.5-187.5 187.5z m843.8-625c51.6 0 93.7 43.5 93.7 96.9v618.7c0 53.4-42.1 96.9-93.7 96.9h-477.7c-12.8-49.4-40.2-92.4-77.5-125h148.9v-125h250v125h125v-562.5h-687.5v97.3c-36.9-21.6-79.3-34.8-125-34.8v-90.6c0-53.4 42.1-96.9 93.7-96.9h750z" />
  </svg>
