
  <svg height="1000" width="1000.0" xmlns="http://www.w3.org/2000/svg">
    <path d="m650 625c-12.5 0-25-12.5-25-25v-262.5c0-12.5 12.5-25 25-25h75c12.5 0 25 12.5 25 25v262.5c0 12.5-12.5 25-25 25h-75z m187.5 0c-12.5 0-25-12.5-25-25v-450c0-12.5 12.5-25 25-25h75c12.5 0 25 12.5 25 25v450c0 12.5-12.5 25-25 25h-75z m-562.5 0c-12.5 0-25-12.5-25-25v-137.5c0-12.5 12.5-25 25-25h75c12.5 0 25 12.5 25 25v137.5c0 12.5-12.5 25-25 25h-75z m187.5 0c-12.5 0-25-12.5-25-25v-387.5c0-12.5 12.5-25 25-25h75c12.5 0 25 12.5 25 25v387.5c0 12.5-12.5 25-25 25h-75z m506.3 125c17.2 0 31.2 14 31.2 31.3v62.5c0 17.2-14 31.2-31.2 31.2h-906.3c-34.5 0-62.5-28-62.5-62.5v-656.2c0-17.3 14-31.3 31.3-31.3h62.5c17.2 0 31.2 14 31.2 31.3v593.7h843.8z" />
  </svg>
