
  <svg height="1000" width="1000.0" xmlns="http://www.w3.org/2000/svg">
    <path d="m968.8 750c17.2 0 31.2 14 31.2 31.3v62.5c0 17.2-14 31.2-31.2 31.2h-906.3c-34.5 0-62.5-28-62.5-62.5v-656.2c0-17.3 14-31.3 31.3-31.3h62.5c17.2 0 31.2 14 31.2 31.3v593.7h843.8z m-62.5-562.5c17.2 0 31.2 14 31.2 31.3v230.5c0 41.8-50.5 62.7-80 33.2l-63.3-63.3-187.5 187.5c-24.4 24.4-64 24.4-88.4 0l-143.3-143.3-90 90c-12.2 12.2-32 12.2-44.2 0l-44.1-44.2c-12.2-12.2-12.2-32 0-44.2l134.1-134.2c24.4-24.4 64-24.4 88.4 0l143.3 143.3 143.3-143.3-63.3-63.3c-29.5-29.5-8.6-80 33.2-80h230.6z" />
  </svg>
