<svg height="1000" width="1000" xmlns="http://www.w3.org/2000/svg"><path d="M976.6 750c12.9 0 23.4 10.5 23.4 23.4v78.2c0 12.9 -10.5 23.4 -23.4 23.4H23.4C10.5 875 0 864.5 0 851.6V148.4C0 135.5 10.5 125 23.4 125h78.2c12.9 0 23.4 10.5 23.4 23.4V750h851.6zM375 664.1V523.4C375 510.5 364.5 500 351.6 500h-78.2c-12.9 0 -23.4 10.5 -23.4 23.4v140.7c0 12.9 10.5 23.4 23.4 23.4h78.2c12.9 0 23.4 -10.5 23.4 -23.4zm375 0V398.4C750 385.5 739.5 375 726.6 375h-78.2c-12.9 0 -23.4 10.5 -23.4 23.4v265.7c0 12.9 10.5 23.4 23.4 23.4h78.2c12.9 0 23.4 -10.5 23.4 -23.4zm-187.5 0V273.4C562.5 260.5 552 250 539.1 250h-78.2c-12.9 0 -23.4 10.5 -23.4 23.4v390.7c0 12.9 10.5 23.4 23.4 23.4h78.2c12.9 0 23.4 -10.5 23.4 -23.4zm375 0V210.9c0 -12.9 -10.5 -23.4 -23.4 -23.4h-78.2c-12.9 0 -23.4 10.5 -23.4 23.4v453.2c0 12.9 10.5 23.4 23.4 23.4h78.2c12.9 0 23.4 -10.5 23.4 -23.4z"/></svg>