
  <svg height="1000" width="1125.0" xmlns="http://www.w3.org/2000/svg">
    <path d="m656.3 875c17.2 0 31.2 14 31.2 31.3v62.5c0 17.2-14 31.2-31.2 31.2h-625c-17.3 0-31.3-14-31.3-31.2v-62.5c0-17.3 14-31.3 31.3-31.3h625z m406.2-625h31.3c17.2 0 31.2 14 31.2 31.3v62.5c0 69.8-46.1 128.3-109.4 148.3v234.5c0 86.7-74.8 156.3-163.2 147.7-77.2-7.6-133.6-76.9-133.6-154.4v-48c0-43.2-35-78.2-78.2-78.2h-15.6v218.8h-562.5v-687.5c0-69 56-125 125-125h312.5c69 0 125 56 125 125v375h15.6c94.9 0 171.9 77 171.9 171.9v54.7c0 33.1 29.7 59.5 63.9 53.9 26.9-4.4 45.5-29.8 45.5-57v-231.5c-63.3-19.9-109.4-78.4-109.4-148.3v-62.5c0-17.2 14-31.2 31.3-31.2h31.2v-93.8c0-17.2 14-31.2 31.3-31.2s31.2 14 31.2 31.2v93.8h62.5v-93.8c0-17.2 14-31.2 31.3-31.2s31.2 14 31.2 31.2v93.8z m-554.5 93.3c9-13.7-2.3-30.8-20.3-30.8h-112.7l22.7-99.2c3.9-13-7.3-25.8-22.7-25.8h-132.8c-11.8 0-21.7 7.6-23.2 17.8l-31.3 209c-1.9 12.3 9.1 23.2 23.2 23.2h116l-45 162.3c-3.5 12.9 7.8 25.2 22.8 25.2 8.2 0 16-3.7 20.3-10.2z" />
  </svg>
