<svg height="1000" width="1000" xmlns="http://www.w3.org/2000/svg"><path d="M976.6 750c12.9 0 23.4 10.5 23.4 23.4v78.2c0 12.9 -10.5 23.4 -23.4 23.4H23.4C10.5 875 0 864.5 0 851.6V148.4C0 135.5 10.5 125 23.4 125h78.2c12.9 0 23.4 10.5 23.4 23.4V750h851.6zm-86 -562.5H671.9c-41.8 0 -62.7 50.6 -33.2 80.1l64.2 64.2L562.3 474.2 453.7 365.6c-9.2 -9.2 -23.8 -9.2 -33 0L188.3 595.7c-9.2 9 -9.4 23.8 -.4 33l55.7 57.4c9.1 9.4 24.2 9.6 33.4 .2L437.3 526l108.4 108.4c9.2 9.2 24 9.2 33.2 0L792.2 421.1l65.2 65.2c29.5 29.5 80.1 8.6 80.1 -33.2V234.4c0 -26 -20.9 -46.9 -46.9 -46.9z"/></svg>