
  <svg height="1000" width="1062.5" xmlns="http://www.w3.org/2000/svg">
    <path d="m1030.8 562.5c18.7 0 34 16.4 31.4 34.9-15.2 107.9-67.2 203.9-142.8 275.1-12.2 11.4-31.6 10.4-43.4-1.3l-308.6-308.7h463.4z m-30.9-126.6c1.3 17.9-13.7 32.8-31.6 32.8h-437.1v-437c0-17.8 15-32.9 32.9-31.6 233.3 16.1 419.7 202.5 435.8 435.8z m-562.4 126.6l304.4 304.4c13.4 13.4 12.4 36.1-3.1 47.1-74.7 53-165.7 84.7-264.1 86-250.4 3.1-465.9-202.1-474.4-452.4-8.3-243.7 169.6-447 402.4-479.9 18.4-2.6 34.8 12.7 34.8 31.3v463.5z" />
  </svg>
