<svg height="1000" width="1125" xmlns="http://www.w3.org/2000/svg"><path d="M656.3 875h-625C14 875 0 889 0 906.3v62.5C0 986 14 1000 31.3 1000h625c17.2 0 31.2 -14 31.2 -31.2v-62.5c0 -17.3 -14 -31.3 -31.2 -31.3zm406.2 -625v-93.7c0 -17.3 -14 -31.3 -31.2 -31.3s-31.3 14 -31.3 31.3V250h-62.5v-93.7c0 -17.3 -14 -31.3 -31.2 -31.3S875 139 875 156.3V250h-31.2c-17.3 0 -31.3 14 -31.3 31.3v62.5c0 69.8 46.1 128.3 109.4 148.3v231.4c0 27.2 -18.6 52.6 -45.5 57 -34.2 5.6 -63.9 -20.8 -63.9 -53.9v-54.7C812.5 577 735.5 500 640.6 500H625V125C625 56 569 0 500 0H187.5c-69 0 -125 56 -125 125v687.5H625V593.8h15.6c43.2 0 78.2 34.9 78.2 78.1v48c0 77.5 56.4 146.8 133.6 154.4 88.4 8.6 163.2 -61 163.2 -147.7V492.1c63.3 -20 109.4 -78.5 109.4 -148.3v-62.5C1125 264 1111 250 1093.8 250h-31.3zM508 343.3L325 614.8c-4.3 6.5 -12.1 10.2 -20.3 10.2 -15 0 -26.3 -12.3 -22.8 -25.2l45 -162.3h-116c-14.1 0 -25.1 -10.9 -23.2 -23.2l31.3 -209c1.5 -10.2 11.4 -17.8 23.2 -17.8H375c15.4 0 26.6 12.8 22.7 25.8L375 312.5h112.7c18 0 29.3 17.1 20.3 30.8z"/></svg>