<svg height="1000" width="1125" xmlns="http://www.w3.org/2000/svg"><path d="M812.5 375C812.5 202.3 630.7 62.5 406.3 62.5S0 202.3 0 375c0 67 27.5 128.7 74.2 179.7C48 613.7 4.9 660.5 4.3 661.1c-4.3 4.5 -5.5 11.2 -2.9 17s8 9.4 14.2 9.4c71.5 0 130.7 -24 173.3 -48.8 62.9 30.6 137.3 48.8 217.4 48.8 224.4 0 406.2 -139.8 406.2 -312.5zm238.3 429.7C1097.5 753.9 1125 692 1125 625 1125 494.3 1020.5 382.4 872.5 335.7c1.7 12.9 2.5 26 2.5 39.3 0 206.8 -210.4 375 -468.7 375 -21.1 0 -41.7 -1.6 -62 -3.7 61.6 112.3 206.1 191.2 374.5 191.2 80 0 154.4 -18 217.3 -48.8 42.6 24.8 101.8 48.8 173.3 48.8 6.2 0 11.9 -3.7 14.2 -9.4 2.6 -5.6 1.4 -12.3 -2.9 -17 -.6 -.6 -43.7 -47.2 -69.9 -106.4z"/></svg>