
  <svg height="1000" width="1000.0" xmlns="http://www.w3.org/2000/svg">
    <path d="m986.3 341.4c18.2 18.2 18.2 47.9-0.2 66.4l-578.1 578.5c-18.2 18.4-47.8 18.4-66.2 0l-328.1-328.3c-18.4-18.4-18.4-48 0-66.4l77.5-77.5c18.2-18.4 47.9-18.4 66.2 0l217.6 217.7 467.8-467.7c18.1-18.4 47.8-18.4 66.2 0z m-633.4 207l-218.7-219.1c-12.1-12.1-12.1-31.8 0-44.1l88.5-88.5c12.1-12.3 32-12.3 44.1 0l108.2 108.4 295.9-295.9c12.1-12.3 32-12.3 44.1 0l88.3 88.5c12.1 12.1 12.1 31.8 0 44.1l-406.2 406.6c-12.1 12.3-32.1 12.3-44.2 0z" />
  </svg>
