<svg height="1000" width="1000" xmlns="http://www.w3.org/2000/svg"><path d="M985.4 335.8l-70.8 -71.1c-19.5 -19.6 -51.1 -19.6 -70.7 0L375 736.4 156.1 516.2c-19.6 -19.7 -51.2 -19.7 -70.7 0l-70.8 71.1c-19.5 19.6 -19.5 51.5 0 71.1l325 326.9c19.6 19.6 51.2 19.6 70.8 0L985.4 407c19.5 -19.7 19.5 -51.5 0 -71.2zM325.3 552.2c13.4 13.7 35.5 13.7 49.3 .3L788.8 141.8c13.7 -13.3 13.7 -35.5 .3 -49.2L707.2 10.3C693.8 -3.4 671.7 -3.4 657.9 10L351 314.8 217.7 180.5c-13.3 -13.7 -35.5 -13.7 -49.2 -.3l-82.3 81.5c-13.7 13.4 -13.7 35.5 -.3 49.3l239.4 241.2z"/></svg>