
  <svg height="1000" width="875.0" xmlns="http://www.w3.org/2000/svg">
    <path d="m781.3 875c17.2 0 31.2 14 31.2 31.3v62.5c0 17.2-14 31.2-31.2 31.2h-687.5c-17.3 0-31.3-14-31.3-31.2v-62.5c0-17.3 14-31.3 31.3-31.3h687.5z m31.2-562.5c34.5 0 62.4 28 62.4 62.5 0 6.5-1 12.7-2.8 18.6l-142.7 418.9h-583.8l-142.7-418.9c-1.8-5.9-2.9-12.1-2.9-18.6 0-34.5 28-62.5 62.5-62.5h312.5v-93.7h-78.1c-8.6 0-15.7-7.1-15.7-15.7v-93.7c0-8.6 7.1-15.6 15.7-15.6h78.1v-78.2c0-8.6 7-15.6 15.6-15.6h93.8c8.6 0 15.6 7 15.6 15.6v78.2h78.1c8.6 0 15.6 7 15.6 15.6v93.7c0 8.6-7 15.7-15.6 15.7h-78.1v93.7h312.5z" />
  </svg>
