<svg height="1000" width="1000" xmlns="http://www.w3.org/2000/svg"><path d="M390.3 425.1a11.7 -11.7 0 0 0 11.7 11.7v40.5a11.7 -11.7 0 0 0 -11.7 11.8h-50.4c0 61.9 -4.2 187.9 34 299.2H126.2c38.9 -113.6 34 -242.9 34 -299.2h-50.5A11.7 -11.7 0 0 0 98 477.3v-40.5a11.7 -11.7 0 0 0 11.7 -11.7h280.6zM81.2 224.8l67.5 185.7h202.6l67.5 -185.7c5.6 -15.3 -5.7 -31.5 -22 -31.5h-99.9v-59H339a11.7 -11.7 0 0 1 11.7 -11.7V78.9A11.7 -11.7 0 0 1 339 67.2h-55.4V11.7A11.7 -11.7 0 0 1 271.9 0h-43.7a11.7 -11.7 0 0 1 -11.8 11.7v55.5H161a11.7 -11.7 0 0 1 -11.7 11.7v43.7a11.7 -11.7 0 0 1 11.7 11.7h42.1v59h-99.9c-16.3 0 -27.6 16.2 -22 31.5zm353.7 644.7v-54.8a11.7 -11.7 0 0 1 -11.7 -11.8H76.8a11.7 -11.7 0 0 1 -11.7 11.8v54.8l-43.3 27.6a11.7 -11.7 0 0 1 -5.4 9.9v81.3a11.7 -11.7 0 0 1 11.7 11.7h443.8a11.7 -11.7 0 0 1 11.7 -11.7V907a11.7 -11.7 0 0 1 -5.4 -9.9l-43.3 -27.6zM611.8 587.8l48.6 33.1c.2 35.4 -.3 124.8 -23.2 223.7h288.1C902.4 746 901.9 656.5 902.1 620.9l48.6 -33.1a7.5 -7.5 0 0 1 3.2 -6.2V445a7.5 -7.5 0 0 1 -7.5 -7.5h-54a7.5 -7.5 0 0 1 -7.5 7.5v61.6h-44.4V445a7.5 -7.5 0 0 1 -7.6 -7.5H729.6A7.5 -7.5 0 0 1 722 445v61.6h-44.4V445a7.5 -7.5 0 0 1 -7.5 -7.5h-54a7.5 -7.5 0 0 1 -7.6 7.5v136.6a7.5 -7.5 0 0 1 3.3 6.2zm139.8 101.4c0 -16.4 13.3 -29.6 29.7 -29.6s29.6 13.2 29.6 29.6v59.2h-59.3v-59.2zm234 228.9l-26.7 -20.8v-30.4a7.5 -7.5 0 0 1 -7.5 -7.5H611.2a7.5 -7.5 0 0 1 -7.6 7.5v30.4l-26.7 20.8A7.5 -7.5 0 0 1 574 924v68.5a7.5 -7.5 0 0 1 7.5 7.5H981a7.5 -7.5 0 0 1 7.5 -7.5V924a7.5 -7.5 0 0 1 -2.9 -5.9z"/></svg>