
  <svg height="1000" width="625.0" xmlns="http://www.w3.org/2000/svg">
    <path d="m15.6 562.3c0-143.4 116.8-353.7 219.9-440.2-27.3-6.7-48-30.3-48-59.6 0-34.5 28-62.5 62.5-62.5h125c34.5 0 62.5 28 62.5 62.5 0 29.4-20.7 52.9-48 59.6 47.6 40 97.7 106.8 138.4 180.8l-210.8 210.8c-2.8 2.9-4.5 6.8-4.5 11.1 0 4.3 1.7 8.2 4.5 11l22.1 22.1c2.9 2.8 6.8 4.6 11.1 4.6 4.3 0 8.2-1.8 11-4.6l195.9-195.9c31.2 69.2 52.2 140.5 52.2 200.3 0 100.7-43.3 144.2-109.4 165.2v85h-375v-85c-66.1-21-109.4-64.4-109.4-165.2z m578.2 312.7c17.2 0 31.2 14 31.2 31.3v62.5c0 17.2-14 31.2-31.2 31.2h-562.5c-17.3 0-31.3-14-31.3-31.2v-62.5c0-17.3 14-31.3 31.3-31.3h562.5z" />
  </svg>
