<svg height="1000" width="1000" xmlns="http://www.w3.org/2000/svg"><path d="M851.6 1000H148.4C135.5 1000 125 989.5 125 976.6v-46.9c0 -13 10.5 -23.4 23.4 -23.4h703.2c12.9 0 23.4 10.4 23.4 23.4v46.9c0 12.9 -10.5 23.4 -23.4 23.4zM499.2 0C438.8 0 389.8 49 389.8 109.4s49 109.4 109.4 109.4 109.4 -49 109.4 -109.4S559.6 0 499.2 0zm399.5 302c-11.2 -5.9 -25.2 -1.8 -31.4 9.3 -16.8 30.3 -44.4 73.9 -86 73.9 -56.1 0 -59.9 -38.7 -61.9 -112.4C719 260.1 708.6 250 695.9 250h-80.1c-10.1 0 -19 6.5 -22.2 16.1 -17.4 52.2 -50.9 80.1 -93.6 80.1s-76.2 -27.9 -93.6 -80.1C403.2 256.5 394.3 250 384.2 250h-80.1c-12.7 0 -23.1 10.1 -23.5 22.8 -2 73.5 -5.7 112.4 -61.9 112.4 -40.4 0 -66 -39.5 -86.7 -74.3 -6.4 -10.7 -20.1 -14.5 -31.1 -8.7l-76.5 40.4a23.4 -23.4 0 0 1 -10.8 29.6L218.8 875h562.5L986.4 372.2a23.4 -23.4 0 0 1 -10.8 -29.6L898.7 302z"/></svg>