
  <svg height="1000" width="1000.0" xmlns="http://www.w3.org/2000/svg">
    <path d="m500 218.8c-60.4 0-109.4-49.1-109.4-109.4s49-109.4 109.4-109.4 109.4 49 109.4 109.4-49 109.4-109.4 109.4z m343.8 656.2c17.2 0 31.2 14 31.2 31.3v62.5c0 17.2-14 31.2-31.2 31.2h-687.5c-17.3 0-31.3-14-31.3-31.2v-62.5c0-17.3 14-31.3 31.3-31.3h687.5z m142.3-515.3c8.4 5.6 13.9 15.2 13.9 26 0 5-1.2 9.8-3.3 14l-200.3 412.8h-592.8l-200.3-412.8c-2.1-4.2-3.3-8.9-3.3-13.9 0-10.9 5.5-20.4 13.9-26l55.8-31.3c14.4-9.6 32.9-5 43.2 8.9 16.9 22.9 43.9 37.6 74.5 37.6 2.2 0 4.4-0.1 6.6-0.2 50.1-3.4 87.2-48.5 87.2-98.6 0-14.5 11.8-26.2 26.2-26.2h75.7c11.8 0 22.7 7.8 25.2 19.4 8.9 42.4 46.6 74.3 91.7 74.3s82.8-31.9 91.7-74.3c2.5-11.6 13.4-19.4 25.2-19.4h75.7c14.4 0 26.1 11.7 26.1 26.2 0 45.9 30.7 88.8 75.9 97.1 5.8 1.2 11.6 1.8 17.7 1.8 30.5 0 57.6-14.7 74.6-37.4 10.5-13.9 29-18.9 43.5-9.1z" />
  </svg>
