<svg height="1000" width="625" xmlns="http://www.w3.org/2000/svg"><path d="M515.6 875H109.4S226.6 791.5 226.6 531.3h-62.5c-13 0 -23.5 -10.5 -23.5 -23.5v-46.9c0 -12.9 10.5 -23.4 23.5 -23.4h78.5C187 411.3 148.4 354.7 148.4 289.1 148.4 198.5 221.9 125 312.5 125s164.1 73.5 164.1 164.1c0 65.6 -38.6 122.2 -94.2 148.4h78.5c13 0 23.5 10.5 23.5 23.4v46.9c0 13 -10.5 23.5 -23.5 23.5h-62.5c0 260.2 117.2 343.7 117.2 343.7zm54.7 31.3H54.7c-13 0 -23.4 10.4 -23.4 23.4v46.9c0 12.9 10.4 23.4 23.4 23.4h515.6c13 0 23.5 -10.5 23.5 -23.4v-46.9c0 -13 -10.5 -23.4 -23.5 -23.4z"/></svg>