<svg height="1000" width="875" xmlns="http://www.w3.org/2000/svg"><path d="M812.5 929.7v46.9c0 12.9 -10.5 23.4 -23.4 23.4H85.9C73 1000 62.5 989.5 62.5 976.6v-46.9c0 -13 10.5 -23.4 23.4 -23.4h703.2c12.9 0 23.4 10.4 23.4 23.4zM796.8 296.9H484.4v-93.8H582a11.7 -11.7 0 0 1 11.8 -11.7v-70.3A11.7 -11.7 0 0 1 582 109.4h-97.6V11.7A11.7 -11.7 0 0 1 472.7 0h-70.4a11.7 -11.7 0 0 1 -11.7 11.7v97.7H293a11.7 -11.7 0 0 1 -11.7 11.7v70.3a11.7 -11.7 0 0 1 11.7 11.7h97.6v93.8H78.2c-53.9 0 -91.6 53.2 -73.7 104L171.1 875h532.8L870.5 400.9c17.9 -50.8 -19.8 -104 -73.7 -104z"/></svg>