<svg height="1000" width="750" xmlns="http://www.w3.org/2000/svg"><path d="M687.5 437.5V875h-625v-90.9c0 -59.2 33.4 -113.3 86.4 -139.8l111.8 -55.9a93.8 -93.8 0 0 1 51.8 -83.8v-98.3l-43.2 21.6a46.9 -46.9 0 0 1 -24.5 30.5l-23.1 92.5a23.4 -23.4 0 0 0 -14.1 16l-57.8 23.2a23.4 -23.4 0 0 0 -18.2 -.4L13.9 537.4A23.4 -23.4 0 0 0 0 516V206.9c0 -12.4 4.9 -24.3 13.7 -33.1l17.6 -17.5L3.5 100.7A33.1 -33.1 0 0 0 0 85.9C0 73 10.5 62.5 23.4 62.5h289.1c207.1 0 375 167.9 375 375zm39.1 468.8H23.4C10.5 906.3 0 916.7 0 929.7v46.9c0 12.9 10.5 23.4 23.4 23.4h703.2c12.9 0 23.4 -10.5 23.4 -23.4v-46.9c0 -13 -10.5 -23.4 -23.4 -23.4zM101.6 250C80 250 62.5 267.5 62.5 289.1s17.5 39 39.1 39 39 -17.5 39 -39S123.1 250 101.6 250z"/></svg>