
  <svg height="1000" width="750.0" xmlns="http://www.w3.org/2000/svg">
    <path d="m718.8 62.5c17.2 0 31.2 14 31.2 31.3v343.7l-125 62.5c0 93.2 3 185.5 25.8 312.5h-551.6c22.8-127 25.8-218.1 25.8-312.5l-125-62.5v-343.7c0-17.3 14-31.3 31.3-31.3h109.5c17.3 0 31.3 14 31.3 31.3v93.7h93.5v-93.7c0-17.3 14-31.3 31.3-31.3h156.2c17.3 0 31.3 14 31.3 31.3v93.7h93.7v-93.7c0-17.3 14-31.3 31.3-31.3h109.4z m-281.3 562.5v-125c0-34.5-28-62.5-62.5-62.5s-62.5 28-62.5 62.5v125h125z m281.3 250c17.2 0 31.2 14 31.2 31.3v62.5c0 17.2-14 31.2-31.2 31.2h-687.5c-17.3 0-31.3-14-31.3-31.2v-62.5c0-17.3 14-31.3 31.3-31.3h687.5z" />
  </svg>
