<svg height="1000" width="625" xmlns="http://www.w3.org/2000/svg"><path d="M240.5 152.1c-30.8 -10.4 -53 -39.6 -53 -74C187.5 35 222.5 0 265.6 0H359c43.1 0 78.1 35 78.1 78.1 0 34.3 -22.1 63.4 -52.7 73.9 46.8 32.5 94.8 91.5 134.1 160.3L283.1 547.7a11.7 -11.7 0 0 1 0 16.6l27.6 27.6a11.7 -11.7 0 0 1 16.6 0L548.6 370.6c34.7 74.8 57.4 155.1 57.4 223.1 0 105.1 -44.7 148.1 -114.2 168.1V875H133.2V761.8C63.7 741.8 19 698.8 19 593.8 19 441.3 132.9 227 240.5 152.1zM625 976.6v-46.9c0 -13 -10.5 -23.4 -23.4 -23.4H23.4C10.5 906.3 0 916.7 0 929.7v46.9c0 12.9 10.5 23.4 23.4 23.4h578.2c12.9 0 23.4 -10.5 23.4 -23.4z"/></svg>