<svg height="1000" width="1000" xmlns="http://www.w3.org/2000/svg"><path d="M500 500v125H375V500h125zM500 0H375v125h125V0zm0 500h125V375H500v125zM750 0H625v125h125V0zm0 1000h125V875H750v125zm250 -125V750H875v125h125zm-750 125h125V875H250v125zM250 0H125v125h125V0zm750 375V250H875v125h125zm0 250V500H875v125h125zM0 1000h125V875H0v125zM0 125v125h125V125H0zm0 250v125h125V375H0zm0 250v125h125V625H0zm500 375h125V875H500v125zM375 750v125h125V750H375zM500 375V250H375v125h125zM125 750v125h125V750H125zM250 500H125v125h125V500zm500 250h125V625H750v125zM1000 0H875v125h125V0zM750 500h125V375H750v125zm0 -375v125h125V125H750zM625 750v125h125V750H625zM250 625v125h125V625H250zm250 0v125h125V625H500zM375 375H250v125h125V375zM250 250H125v125h125V250zm375 375h125V500H625v125zM375 250V125H250v125h125zm250 0V125H500v125h125zm0 125h125V250H625v125z"/></svg>