
  <svg height="1000" width="750.0" xmlns="http://www.w3.org/2000/svg">
    <path d="m37.1 532.2c-21.9-9.8-37.1-31.7-37.1-57.1v-0.1-268c0 0 0-0.1 0-0.1 0-12.9 5.2-24.6 13.7-33.1l17.6-17.5-27.8-55.6c-2.2-4.4-3.5-9.4-3.5-14.7v-0.1c0-12.9 10.5-23.4 23.4-23.4h289c207 0 374.8 168 374.8 375v375h-624.7v-28.4c0 0-0.2 0.1-0.2 0.1 0-61.2 35.3-114.2 86.5-139.8l111.8-56c30.7-15.4 51.8-47.1 51.8-83.8v0-98.3l-43.2 21.6c-12.1 6-21.2 17.2-24.5 30.6l-18 59.8c-5.5 18.3-19.1 33-36.7 40.1l-24.9 10c-7.2 2.8-15.1 4.4-23.3 4.4-9 0-17.6-1.9-25.3-5.4z m64.5-282.2c-21.6 0-39.1 17.5-39.1 39.1s17.5 39 39.1 39 39-17.5 39-39-17.5-39.1-39-39.1z m617.2 625c17.2 0 31.2 14 31.2 31.3v62.5c0 17.2-14 31.2-31.2 31.2h-687.5c-17.3 0-31.3-14-31.3-31.2v-62.5c0-17.3 14-31.3 31.3-31.3h687.5z" />
  </svg>
