
  <svg height="1000" width="1000.0" xmlns="http://www.w3.org/2000/svg">
    <path d="m144.5 406.3l-66.2-176.6c-1.3-3.4-2-7.1-2-11 0-17.2 14-31.2 31.3-31.2h0 111.2v-62.5h-46.9c-8.6 0-15.6-7-15.6-15.6v-31.3c0-8.6 7-15.6 15.6-15.6h46.9v-46.9c0-8.6 7-15.6 15.6-15.6h31.2c8.6 0 15.7 7 15.7 15.6v46.9h46.8c8.6 0 15.7 7 15.7 15.6v31.3c0 8.6-7.1 15.6-15.7 15.6h-46.8v62.5h111.1c0 0 0 0 0 0 17.2 0 31.2 14 31.2 31.3 0 3.8-0.7 7.5-1.9 10.9l-66.2 176.5h19.5c17.2 0 31.2 14.1 31.2 31.3v31.2c0 17.3-14 31.3-31.2 31.3h-31.1c0.2 86.3 11.1 169.8 31.1 250h-250c20-80.2 30.9-163.7 31.1-250h-31.1c-17.2 0-31.3-14-31.3-31.3v-31.2c0-17.2 14.1-31.3 31.3-31.3h19.5z m338.2 491.3c10.3 5.1 17.3 15.7 17.3 28v43.2c0 17.2-14 31.2-31.3 31.2h-437.5c-17.2 0-31.2-14-31.2-31.2v-43.2c0-12.3 7-22.9 17.3-28l45.2-22.6v-31.2c0-17.3 14-31.3 31.2-31.3h312.5c17.3 0 31.3 14 31.3 31.3v31.2z m181.2-308.1l-48-40.7c-13.5-11.4-22.1-28.5-22.1-47.6v-114.5c0-6.4 5.2-11.7 11.7-11.7h51.5c6.5 0 11.7 5.3 11.7 11.7v50.8h48.3v-50.8c0-6.4 5.2-11.7 11.7-11.7h105.1c6.5 0 11.7 5.3 11.7 11.7v50.8h48.3v-50.8c0-6.4 5.2-11.7 11.7-11.7h51.5c6.5 0 11.8 5.3 11.8 11.7v114.4c0 0 0 0 0 0 0 19.1-8.6 36.3-22.2 47.7l-48 40.6 6.4 160.6h-247.5z m86.1 4.3v62.5h62.5v-62.5c0-17.3-14-31.3-31.2-31.3s-31.3 14-31.3 31.3z m232.7 303.8c10.3 5.1 17.3 15.7 17.3 28v43.2c0 17.2-14 31.2-31.3 31.2h-375c-17.2 0-31.2-14-31.2-31.2v-43.2c0-12.3 7-22.9 17.3-28l45.2-22.6v-31.2c0-17.3 14-31.3 31.2-31.3h250c17.3 0 31.3 14 31.3 31.3v31.2z" />
  </svg>
