
  <svg height="1000" width="1000.0" xmlns="http://www.w3.org/2000/svg">
    <path d="m499.8 0.4v125h-125v-125h125z m-499.8 124.9h125v125h-125v-125z m250-124.9v125h-125v-125h125z m125 499.8h125v125h-125v-125z m-375-125h125v125h-125v-125z m749.7-374.8v125h-125v-125h125z m250 0v125h-125v-125h125z m-749.7 499.8v125h-125v-125h125z m749.6 374.8h-125v-125h125v125z m0-250h-125v-125h125v125z m-249.9 375v-125h125v125h-125z m250-624.8h-125v-125h125v125z m-749.7 624.8v-125h125v125h-125z m-250 0v-125h125v125h-125z m499.8 0v-125h125v125h-125z m-499.8-374.9h125v125h-125v-125z m624.8-374.8h-125v-125h125v125z m-125 250v-125h125v125h-125z m-125 250h125v125h-125v-125z m250-125v-125h125v125h-125z m0-249.9v-125h125v125h-125z m0 374.9h125v125h-125v-125z m-499.8-0.2h125v125h-125v-125z m250-499.8h-125v-125h125v125z m374.8 499.8v-125h125v125h-125z m-250-374.9h-125v-125h125v125z m250-249.9h125v125h-125v-125z m-250 499.8h125v125h-125v-125z m-125-249.9l0.2 125h-125v-125h124.8z m374.9 125v-125h125v125h-125z m-499.7-249.9v125h-125v-125h125z m0 374.8h125v125h-125v-125z" />
  </svg>
