
  <svg height="1000" width="625.0" xmlns="http://www.w3.org/2000/svg">
    <path d="m205.3 437.5c-57.4-35.9-95.9-99.2-95.9-171.9 0-112.1 91-203.1 203.1-203.1s203.1 91 203.1 203.1c0 72.7-38.5 136-95.9 171.9h49.1c17.2 0 31.2 14 31.2 31.3v62.5c0 17.2-14 31.2-31.2 31.2h-31.3v10.7c0 86 8 169.2 46.9 239.3h-343.8c38.8-70.1 46.9-153.3 46.9-239.3v-10.7h-31.2c-17.3 0-31.3-14-31.3-31.2v-62.5c0-17.3 14-31.3 31.3-31.3h49z m388.5 437.5c17.2 0 31.2 14 31.2 31.3v62.5c0 17.2-14 31.2-31.2 31.2h-562.5c-17.3 0-31.3-14-31.3-31.2v-62.5c0-17.3 14-31.3 31.3-31.3h562.5z" />
  </svg>
