
  <svg height="1000" width="750.0" xmlns="http://www.w3.org/2000/svg">
    <path d="m234.4 140.6c0-77.6 62.9-140.6 140.6-140.6s140.6 63 140.6 140.6c0 77.7-62.9 140.7-140.6 140.7s-140.6-63-140.6-140.7z m497.3 2.7c24.4 24.4 24.4 64 0 88.4l-184.8 184.8v521c0 34.5-28 62.5-62.5 62.5h-31.3c-34.5 0-62.5-28-62.5-62.5v-218.8h-31.2v218.8c0 34.5-28 62.5-62.5 62.5h-31.3c-34.5 0-62.5-28-62.5-62.5v-521l-184.8-184.8c-24.4-24.4-24.4-64 0-88.4 24.4-24.4 64-24.4 88.4 0l169.2 169.2h198.2l169.2-169.2c24.4-24.4 64-24.4 88.4 0z" />
  </svg>
