<svg height="1000" width="750" xmlns="http://www.w3.org/2000/svg"><path d="M234.4 140.6C234.4 63 297.3 0 375 0s140.6 63 140.6 140.6c0 77.7 -62.9 140.7 -140.6 140.7S234.4 218.3 234.4 140.6zm497.3 2.7c-24.4 -24.4 -64 -24.4 -88.4 0L474.1 312.5H275.9L106.7 143.3c-24.4 -24.4 -64 -24.4 -88.4 0 -24.4 24.4 -24.4 64 0 88.4l184.8 184.8v521c0 34.5 28 62.5 62.5 62.5h31.3c34.5 0 62.5 -28 62.5 -62.5V718.8h31.2v218.7c0 34.5 28 62.5 62.5 62.5h31.3c34.5 0 62.5 -28 62.5 -62.5v-521L731.7 231.7c24.4 -24.4 24.4 -64 0 -88.4z"/></svg>