
  <svg height="1000" width="1250.0" xmlns="http://www.w3.org/2000/svg">
    <path d="m907.1 481.8c18.9 11.3 30.4 31.6 30.4 53.6v464.6h-187.5v-187.5c0-69-56-125-125-125s-125 56-125 125v187.5h-187.5v-464.6c0-22.8 12.1-42.7 30.4-53.6l219.6-131.8v-100h-93.7c-17.3 0-31.3-14-31.3-31.2v-62.5c0-17.3 14-31.3 31.3-31.3h93.7v-93.7c0-17.3 14-31.3 31.3-31.3h62.5c17.2 0 31.2 14 31.2 31.3v93.7h93.8c17.2 0 31.2 14 31.2 31.3v62.5c0 17.2-14 31.2-31.2 31.2h-93.8v100z m-907.1 291.6c0-25.8 15.6-47.9 37.9-57.5l212.1-90.9v375h-218.8c-17.2 0-31.2-14-31.2-31.2v-195.4z m1212.1-57.5c23 9.9 37.9 32.5 37.9 57.5v195.3c0 17.3-14 31.3-31.3 31.3h-218.7v-375z" />
  </svg>
