<svg height="1000" width="1250" xmlns="http://www.w3.org/2000/svg"><path d="M907.1 481.8L687.5 350V250h93.8c17.2 0 31.2 -14 31.2 -31.2v-62.5c0 -17.3 -14 -31.3 -31.2 -31.3h-93.8V31.3C687.5 14 673.5 0 656.3 0h-62.5c-17.3 0 -31.3 14 -31.3 31.3V125h-93.7c-17.3 0 -31.3 14 -31.3 31.3v62.5c0 17.2 14 31.2 31.3 31.2h93.7v100L342.9 481.8a62.5 -62.5 0 0 1 -30.4 53.6V1000H500V812.5c0 -69 56 -125 125 -125s125 56 125 125V1000h187.5V535.4c0 -22 -11.5 -42.3 -30.4 -53.6zM0 773.4v195.4C0 986 14 1000 31.3 1000H250V625L37.9 715.9A62.5 -62.5 0 0 1 0 773.4zm1212.1 -57.5L1000 625v375h218.8c17.2 0 31.2 -14 31.2 -31.2V773.4c0 -25 -14.9 -47.6 -37.9 -57.5z"/></svg>