
  <svg height="1000" width="1250.0" xmlns="http://www.w3.org/2000/svg">
    <path d="m1203.1 375c25.9 0 46.9 21 46.9 46.9v515.6c0 34.5-28 62.5-62.5 62.5h-1125c-34.5 0-62.5-28-62.5-62.5v-703.1c0-25.9 21-46.9 46.9-46.9h78.1v-156.2c0-17.3 14-31.3 31.3-31.3h31.2c17.3 0 31.3 14 31.3 31.3v156.2h125v-156.2c0-17.3 13.9-31.3 31.2-31.3h31.3c17.2 0 31.2 14 31.2 31.3v156.2h125v-140.6c0-25.9 21-46.9 46.9-46.9h281.2c25.9 0 46.9 21 46.9 46.9v328.1h265.6z m-953.1 414.1v-78.2c0-12.9-10.5-23.4-23.4-23.4h-78.2c-12.9 0-23.4 10.5-23.4 23.4v78.2c0 12.9 10.5 23.4 23.4 23.4h78.2c12.9 0 23.4-10.5 23.4-23.4z m0-187.5v-78.2c0-12.9-10.5-23.4-23.4-23.4h-78.2c-12.9 0-23.4 10.5-23.4 23.4v78.2c0 12.9 10.5 23.4 23.4 23.4h78.2c12.9 0 23.4-10.5 23.4-23.4z m0-187.5v-78.2c0-12.9-10.5-23.4-23.4-23.4h-78.2c-12.9 0-23.4 10.5-23.4 23.4v78.2c0 12.9 10.5 23.4 23.4 23.4h78.2c12.9 0 23.4-10.5 23.4-23.4z m250 375v-78.2c0-12.9-10.5-23.4-23.4-23.4h-78.2c-12.9 0-23.4 10.5-23.4 23.4v78.2c0 12.9 10.5 23.4 23.4 23.4h78.2c12.9 0 23.4-10.5 23.4-23.4z m0-187.5v-78.2c0-12.9-10.5-23.4-23.4-23.4h-78.2c-12.9 0-23.4 10.5-23.4 23.4v78.2c0 12.9 10.5 23.4 23.4 23.4h78.2c12.9 0 23.4-10.5 23.4-23.4z m0-187.5v-78.2c0-12.9-10.5-23.4-23.4-23.4h-78.2c-12.9 0-23.4 10.5-23.4 23.4v78.2c0 12.9 10.5 23.4 23.4 23.4h78.2c12.9 0 23.4-10.5 23.4-23.4z m312.5 187.5v-78.2c0-12.9-10.5-23.4-23.4-23.4h-78.2c-12.9 0-23.4 10.5-23.4 23.4v78.2c0 12.9 10.5 23.4 23.4 23.4h78.2c12.9 0 23.4-10.5 23.4-23.4z m0-187.5v-78.2c0-12.9-10.5-23.4-23.4-23.4h-78.2c-12.9 0-23.4 10.5-23.4 23.4v78.2c0 12.9 10.5 23.4 23.4 23.4h78.2c12.9 0 23.4-10.5 23.4-23.4z m0-187.5v-78.2c0-12.9-10.5-23.4-23.4-23.4h-78.2c-12.9 0-23.4 10.5-23.4 23.4v78.2c0 12.9 10.5 23.4 23.4 23.4h78.2c12.9 0 23.4-10.5 23.4-23.4z m312.5 562.5v-78.2c0-12.9-10.5-23.4-23.4-23.4h-78.2c-12.9 0-23.4 10.5-23.4 23.4v78.2c0 12.9 10.5 23.4 23.4 23.4h78.2c12.9 0 23.4-10.5 23.4-23.4z m0-187.5v-78.2c0-12.9-10.5-23.4-23.4-23.4h-78.2c-12.9 0-23.4 10.5-23.4 23.4v78.2c0 12.9 10.5 23.4 23.4 23.4h78.2c12.9 0 23.4-10.5 23.4-23.4z" />
  </svg>
