
  <svg height="1000" width="1125.0" xmlns="http://www.w3.org/2000/svg">
    <path d="m562.5 224.6l427.2 376.8c3 2.7 7 4 10.3 6.2v361.1c0 17.3-14 31.3-31.3 31.3h-812.5c-17.2 0-31.2-14-31.2-31.3v-361.2c3.5-2.3 7.5-3.7 10.7-6.5z m187.5 509.8v-93.8c0-8.6-7-15.6-15.6-15.6h-109.4v-109.4c0-8.6-7-15.6-15.6-15.6h-93.8c-8.6 0-15.6 7-15.6 15.6v109.4h-109.4c-8.6 0-15.6 7-15.6 15.6v93.8c0 8.6 7 15.6 15.6 15.6h109.4v109.4c0 8.6 7 15.6 15.6 15.6h93.8c8.6 0 15.6-7 15.6-15.6v-109.4h109.4c8.6 0 15.6-7 15.6-15.6z m364.6-272.9c6.4 5.7 10.4 14 10.4 23.3 0 8-3 15.3-8 20.8l-41.8 46.5c-5.7 6.4-14 10.4-23.3 10.4-8 0-15.3-3-20.8-8l-447.9-395.1c-5.5-4.8-12.8-7.8-20.7-7.8-7.9 0-15.2 3-20.7 7.8l-447.9 395.1c-5.5 5-12.8 8-20.8 8-9.3 0-17.6-4-23.3-10.4l-41.8-46.5c-5-5.5-8-12.8-8-20.9 0-9.2 4-17.5 10.4-23.2l500-441.4c13.8-12.5 32.1-20.1 52.2-20.1 20 0 38.3 7.6 52.1 20.1z" />
  </svg>
