
  <svg height="1000" width="750.0" xmlns="http://www.w3.org/2000/svg">
    <path d="m656.3 125c51.7 0 93.7 42 93.7 93.8v687.5c0 51.7-42 93.7-93.7 93.7h-562.5c-51.8 0-93.8-42-93.8-93.7v-687.5c0-51.8 42-93.8 93.8-93.8h156.2c0-68.9 56.1-125 125-125s125 56.1 125 125h156.3z m-281.3-46.9c-26 0-46.9 20.9-46.9 46.9s20.9 46.9 46.9 46.9 46.9-20.9 46.9-46.9-20.9-46.9-46.9-46.9z m236.7 452.8c9.2-9.2 9.4-23.9 0.2-33.2l-55.1-55.5c-9.1-9.2-24-9.4-33.2-0.2l-207 205.5-89.8-90.7c-9.2-9.1-24.1-9.3-33.2-0.2l-55.5 55.1c-9.2 9.2-9.4 24-0.2 33.2l161.3 162.7c9.2 9.2 24 9.4 33.2 0.2z" />
  </svg>
