<svg height="1000" width="750" xmlns="http://www.w3.org/2000/svg"><path d="M656.3 125H500C500 56.1 443.9 0 375 0S250 56.1 250 125H93.8C42 125 0 167 0 218.8v687.5C0 958 42 1000 93.8 1000h562.5c51.7 0 93.7 -42 93.7 -93.7V218.8C750 167 708 125 656.3 125zM187.5 828.1c-26 0 -46.9 -20.9 -46.9 -46.8s20.9 -46.9 46.9 -46.9 46.9 20.9 46.9 46.9 -20.9 46.8 -46.9 46.8zm0 -187.5c-26 0 -46.9 -20.9 -46.9 -46.8s20.9 -46.9 46.9 -46.9 46.9 20.9 46.9 46.9 -20.9 46.8 -46.9 46.8zm0 -187.5c-26 0 -46.9 -20.9 -46.9 -46.8s20.9 -46.9 46.9 -46.9 46.9 20.9 46.9 46.9 -20.9 46.8 -46.9 46.8zM375 78.1c26 0 46.9 20.9 46.9 46.9S401 171.9 375 171.9 328.1 151 328.1 125 349 78.1 375 78.1zm250 718.8c0 8.6 -7 15.6 -15.6 15.6H328.1c-8.6 0 -15.6 -7 -15.6 -15.6v-31.3c0 -8.6 7 -15.6 15.6 -15.6h281.3c8.6 0 15.6 7 15.6 15.6v31.3zm0 -187.5c0 8.6 -7 15.6 -15.6 15.6H328.1c-8.6 0 -15.6 -7 -15.6 -15.6v-31.3c0 -8.6 7 -15.6 15.6 -15.6h281.3c8.6 0 15.6 7 15.6 15.6v31.3zm0 -187.5c0 8.6 -7 15.6 -15.6 15.6H328.1c-8.6 0 -15.6 -7 -15.6 -15.6v-31.3c0 -8.6 7 -15.6 15.6 -15.6h281.3c8.6 0 15.6 7 15.6 15.6v31.3z"/></svg>