<svg height="1000" width="750" xmlns="http://www.w3.org/2000/svg"><path d="M656.3 125H500C500 56.1 443.9 0 375 0S250 56.1 250 125H93.8C42 125 0 167 0 218.8v687.5C0 958 42 1000 93.8 1000h562.5c51.7 0 93.7 -42 93.7 -93.7V218.8C750 167 708 125 656.3 125zM375 78.1c26 0 46.9 20.9 46.9 46.9S401 171.9 375 171.9 328.1 151 328.1 125 349 78.1 375 78.1zm236.7 452.8L332.4 807.8c-9.2 9.2 -24 9 -33.2 -.2L137.9 644.9c-9.2 -9.2 -9 -24 .2 -33.2l55.5 -55.1c9.1 -9.1 24 -8.9 33.2 .2l89.8 90.7L523.6 442c9.2 -9.2 24.1 -9 33.2 .2l55.1 55.5c9.2 9.3 9 24 -.2 33.2z"/></svg>