
  <svg height="1000" width="750.0" xmlns="http://www.w3.org/2000/svg">
    <path d="m656.3 125c51.7 0 93.7 42 93.7 93.8v687.5c0 51.7-42 93.7-93.7 93.7h-562.5c-51.8 0-93.8-42-93.8-93.7v-687.5c0-51.8 42-93.8 93.8-93.8h156.2c0-68.9 56.1-125 125-125s125 56.1 125 125h156.3z m-468.8 703.1c26 0 46.9-20.9 46.9-46.8s-20.9-46.9-46.9-46.9-46.9 20.9-46.9 46.9 20.9 46.8 46.9 46.8z m0-187.5c26 0 46.9-20.9 46.9-46.8s-20.9-46.9-46.9-46.9-46.9 20.9-46.9 46.9 20.9 46.8 46.9 46.8z m0-187.5c26 0 46.9-20.9 46.9-46.8s-20.9-46.9-46.9-46.9-46.9 20.9-46.9 46.9 20.9 46.8 46.9 46.8z m187.5-375c-26 0-46.9 20.9-46.9 46.9s20.9 46.9 46.9 46.9 46.9-20.9 46.9-46.9-20.9-46.9-46.9-46.9z m250 718.8v-31.3c0-8.6-7-15.6-15.6-15.6h-281.3c-8.6 0-15.6 7-15.6 15.6v31.3c0 8.6 7 15.6 15.6 15.6h281.3c8.6 0 15.6-7 15.6-15.6z m0-187.5v-31.3c0-8.6-7-15.6-15.6-15.6h-281.3c-8.6 0-15.6 7-15.6 15.6v31.3c0 8.6 7 15.6 15.6 15.6h281.3c8.6 0 15.6-7 15.6-15.6z m0-187.5v-31.3c0-8.6-7-15.6-15.6-15.6h-281.3c-8.6 0-15.6 7-15.6 15.6v31.3c0 8.6 7 15.6 15.6 15.6h281.3c8.6 0 15.6-7 15.6-15.6z" />
  </svg>
