
  <svg height="1000" width="1000.0" xmlns="http://www.w3.org/2000/svg">
    <path d="m906.3 125c51.7 0 93.7 42 93.7 93.8v562.5c0 51.7-42 93.7-93.7 93.7h-812.5c-51.8 0-93.8-42-93.8-93.7v-562.5c0-51.8 42-93.8 93.8-93.8h812.5z m-480.3 436.9c-80.5 74-180.1 30.1-180.3-63.7 0-90 105.1-123.4 184.8-60.9 5.6 4.5 14 2.7 17.7-3.3l34.2-59.6c3-4.9 2.2-7.2-1.9-11.1-99.2-96.5-336.9-53.1-336.9 136.9 0 195.3 232.8 243.5 337.5 132.6 3.9-4.1 4.3-10.3 0.9-15l-38.1-54.1c-4.1-5.9-12.5-6.7-17.9-1.8z m371.9 0c-80.5 74-180.1 30.1-180.1-63.7 0-90 105.1-123.4 184.7-60.9 5.7 4.5 14.1 2.7 17.8-3.3l34.2-59.6c2.9-4.9 2.1-7.2-2-11.1-99.2-96.5-336.9-53.1-336.9 136.9 0 195.3 232.8 243.7 337.3 132.6 3.9-4.1 4.3-10.3 1-15l-38.1-54.1c-4.1-5.9-12.5-6.7-17.9-1.8z" />
  </svg>
