<svg height="1000" width="1000" xmlns="http://www.w3.org/2000/svg"><path d="M906.3 125H93.8C42 125 0 167 0 218.8v562.5C0 833 42 875 93.8 875h812.5c51.7 0 93.7 -42 93.7 -93.7V218.8C1000 167 958 125 906.3 125zM426 561.9c5.4 -4.9 13.8 -4.1 17.9 1.8l38.1 54.1c3.4 4.7 3 10.9 -.9 15C376.4 743.7 143.6 695.5 143.6 500.2c0 -190 237.7 -233.4 336.9 -136.9 4.1 3.9 4.9 6.2 1.9 11.1L448.2 434c-3.7 6 -12.1 7.8 -17.7 3.3C350.8 374.8 245.7 408.2 245.7 498.2c.2 93.8 99.8 137.7 180.3 63.7zm371.9 0c5.4 -4.9 13.8 -4.1 17.9 1.8l38.1 54.1c3.3 4.7 2.9 10.9 -1 15C748.4 743.9 515.6 695.5 515.6 500.2c0 -190 237.7 -233.4 336.9 -136.9 4.1 3.9 4.9 6.2 2 11.1L820.3 434c-3.7 6 -12.1 7.8 -17.8 3.3C722.9 374.8 617.8 408.2 617.8 498.2c0 93.8 99.6 137.7 180.1 63.7z"/></svg>