
  <svg height="1000" width="1125.0" xmlns="http://www.w3.org/2000/svg">
    <path d="m997.1 440.4c72.8 13.3 127.9 76.8 127.9 153.4 0 86.3-69.9 156.2-156.2 156.2h-500c-86.4 0-156.3-69.9-156.3-156.2 0-75.8 53.9-138.7 125.4-153.2 0-1-0.4-2.1-0.4-3.1 0-103.5 84-187.5 187.5-187.5 62.7 0 117.8 31.1 151.8 78.1 20.3-9.7 42.9-15.6 67-15.6 76.5 0 139.8 55.3 153.3 127.9z m-754.7 67.2c6 6.1 12.9 11 19.9 16.2-7.6 22.3-12.1 45.7-12.1 70.1 0 4.9 1 9.4 1.4 14.1l-115.7 38.5c-19.9 6.4-38.8-12.3-32.2-32.2l49-147.1-138.6-69.3c-18.8-9.4-18.8-36.2 0-45.6l138.6-69.3-49-147.1c-6.6-19.9 12.1-38.8 32-32.2l147.1 49 69.3-138.6c9.4-18.8 36.2-18.8 45.6 0l69.3 138.6 147.1-49c19.9-6.6 38.8 12.1 32.2 32l-17.4 52.2c-1.4 0-2.5-0.4-3.9-0.4-50 0-96.1 15.2-135.2 40.4-73.4-57.4-179.8-53.1-247.4 14.5-73.1 73.2-73.1 192.2 0 265.2z m136.3-113.3c-35.5 16.2-65.4 41.6-87.5 72.7-25.2-22.9-41.2-55.5-41.2-92 0-68.9 56.1-125 125-125 24.2 0 46.9 7.2 66 19.3-31.4 34.4-53.9 77.2-62.3 125z m645.7 422.3c15.1 8.6 20.1 27.5 11.7 42.6l-71.5 125c-5.8 10.1-16.4 15.8-27.1 15.8-5.3 0-10.5-1.4-15.4-4.1-15.1-8.6-20.3-27.5-11.7-42.6l71.4-125c8.6-15.2 27.8-20.1 42.6-11.7z m-187.5 0c15.1 8.6 20.1 27.5 11.7 42.6l-71.5 125c-5.8 10.1-16.4 15.8-27.1 15.8-5.3 0-10.5-1.4-15.4-4.1-15.1-8.6-20.3-27.5-11.7-42.6l71.4-125c8.6-15.2 27.8-20.1 42.6-11.7z m-187.5 0c15.1 8.6 20.1 27.5 11.7 42.6l-71.5 125c-5.8 10.1-16.4 15.8-27.1 15.8-5.3 0-10.5-1.4-15.4-4.1-15.1-8.6-20.3-27.5-11.7-42.6l71.4-125c8.6-15.2 27.8-20.1 42.6-11.7z m-187.5 0c15.1 8.6 20.1 27.5 11.7 42.6l-71.5 125c-5.8 10.1-16.4 15.8-27.1 15.8-5.3 0-10.5-1.4-15.4-4.1-15.1-8.6-20.3-27.5-11.7-42.6l71.4-125c8.6-15.2 27.8-20.1 42.6-11.7z" />
  </svg>
