
  <svg height="1000" width="1000.0" xmlns="http://www.w3.org/2000/svg">
    <path d="m93.8 687.5c51.7 0 93.7 42 93.7 93.8s-42 93.7-93.7 93.7-93.8-42-93.8-93.7 42-93.8 93.8-93.8z m812.5 0c51.7 0 93.7 42 93.7 93.8s-42 93.7-93.7 93.7-93.8-42-93.8-93.7 42-93.8 93.8-93.8z m-232.5 21.7c26.4 13.7 45 40.4 45 72.1s-18.6 58.3-45 72c9 28.3 3.3 60.2-19.1 82.6-16 16.1-36.9 24.1-58 24.1-8.4 0-16.6-2.4-24.6-4.9-13.7 26.3-40.5 44.9-72.1 44.9s-58.4-18.6-72.1-44.9c-8 2.7-16.2 4.9-24.6 4.9-21.1 0-42-8-58-24.1-22.4-22.4-28.3-54.3-19.3-82.6-26.4-13.7-44.9-40.4-44.9-72s18.5-58.4 44.9-72.1c-8.8-28.3-3.1-60.2 19.3-82.6s54.3-28.4 82.6-19.4c13.7-26.3 40.5-44.9 72.1-44.9s58.4 18.6 72.1 44.9c28.3-8.8 60.1-3.1 82.6 19.4 22.3 22.4 28.1 54.3 19.1 82.6z m326.2-271.7c0 103.5-84 187.5-187.5 187.5h-84.8c-6.8-15.6-16.4-30.1-28.9-42.6-26.3-26.3-61.5-41.2-99.2-41.6-26.4-25.8-61.9-40.8-99.6-40.8s-73.2 15-99.6 40.8c-37.7 0.4-72.9 15.3-99.2 41.6-12.5 12.5-21.9 27-28.9 42.6h-84.8c-103.5 0-187.5-84-187.5-187.5 0-83 54.3-152.7 129.1-177.3-2.5-13.5-4.1-27.2-4.1-41.4 0-120.9 97.9-218.8 218.7-218.8 84.6 0 157.1 48.4 193.4 118.7 28.7-34.1 71.1-56.2 119.1-56.2 86.4 0 156.3 69.9 156.3 156.3 0 10.9-1 21.4-3.1 31.6 1 0 1.9-0.4 3.1-0.4 103.5 0 187.5 84 187.5 187.5z" />
  </svg>
