<svg height="1000" width="1250" xmlns="http://www.w3.org/2000/svg"><path d="M1050 442.6c8 -20.9 12.5 -43.8 12.5 -67.6 0 -103.5 -84 -187.5 -187.5 -187.5 -38.5 0 -74.4 11.7 -104.1 31.6C716.8 125.4 615.8 62.5 500 62.5 327.3 62.5 187.5 202.3 187.5 375c0 5.3 .2 10.5 .4 15.8C78.5 429.3 0 533.6 0 656.3c0 155.2 126 281.2 281.3 281.2H1000c138.1 0 250 -111.9 250 -250 0 -120.9 -85.9 -221.9 -200 -244.9zM768.4 562.5H640.6v218.8c0 17.1 -14 31.2 -31.2 31.2h-93.8c-17.2 0 -31.2 -14.1 -31.2 -31.2V562.5H356.6c-27.9 0 -41.8 -33.6 -22 -53.3L540.4 303.3c12.1 -12.1 32.1 -12.1 44.2 0l205.8 205.9c19.8 19.7 5.7 53.3 -22 53.3z"/></svg>