
  <svg height="1000" width="1250.0" xmlns="http://www.w3.org/2000/svg">
    <path d="m1050 442.6c114.1 23 200 124 200 244.9 0 138.1-111.9 250-250 250h-718.7c-155.3 0-281.3-126-281.3-281.2 0-122.7 78.5-227 187.9-265.5-0.2-5.3-0.4-10.5-0.4-15.8 0-172.7 139.8-312.5 312.5-312.5 115.8 0 216.8 62.9 270.9 156.6 29.7-19.9 65.6-31.6 104.1-31.6 103.5 0 187.5 84 187.5 187.5 0 23.8-4.5 46.7-12.5 67.6z m-259.6 173.2c19.8-19.7 5.7-53.3-22-53.3h-127.8v-218.7c0-17.2-14-31.3-31.2-31.3h-93.8c-17.2 0-31.2 14.1-31.2 31.3v218.7h-127.8c-27.7 0-41.8 33.6-22 53.3l205.8 205.9c12.1 12.1 32.1 12.1 44.2 0z" />
  </svg>
