
  <svg height="1000" width="1125.0" xmlns="http://www.w3.org/2000/svg">
    <path d="m669.5 688.9c79.9 6.8 143 73 143 154.9 0 86.3-69.9 156.2-156.2 156.2h-468.8c-103.5 0-187.5-84-187.5-187.5 0-81.8 52.9-150.8 126.2-176.4-0.2-3.7-1.2-7.2-1.2-11.1 0-103.5 84-187.5 187.5-187.5 70.7 0 131.6 39.6 163.5 97.5 22.4-21.5 52.9-35 86.5-35 68.9 0 125 56.1 125 125 0 23.4-6.8 45.1-18 63.9z m434.6-106.1c16-3.1 27.3 15.6 17 28.3-65.2 80.3-161.5 130.9-267.8 137.5-21.7-45.1-58.4-81.6-104.5-102.7 0.8-6.8 1.2-13.9 1.2-20.9 0-103.3-84.2-187.5-187.5-187.5-24.8 0-48.8 4.9-71.1 14.1-10-10.4-21.1-19.4-32.6-27.8-2.2-16-3.5-32.2-3.5-48.8 0-207.2 167.9-375 374.8-375 22.8 0 45.7 2.1 68.5 6.2 16 3.2 19.8 24.7 5.5 32.7-92 52.3-148.6 149.6-148.6 255.4 0 183.6 166.8 323.1 348.6 288.5z" />
  </svg>
