
  <svg height="1000" width="1000.0" xmlns="http://www.w3.org/2000/svg">
    <path d="m812.5 250c103.5 0 187.5 84 187.5 187.5s-84 187.5-187.5 187.5h-625c-103.5 0-187.5-84-187.5-187.5 0-83 54.3-152.7 129.1-177.3-2.5-13.5-4.1-27.2-4.1-41.4 0-120.9 97.9-218.8 218.7-218.8 84.6 0 157.1 48.4 193.4 118.7 28.7-34.1 71.1-56.2 119.1-56.2 86.4 0 156.3 69.9 156.3 156.3 0 10.9-1 21.4-3.1 31.6 1 0 1.9-0.4 3.1-0.4z m-640.6 480.9c4.9-16.6 26.9-15.9 31.2 0 25 87.1 78.2 109.9 78.2 171.2 0 54.1-42 97.9-93.8 97.9s-93.7-43.8-93.7-97.9c0-61.1 53.1-84.5 78.1-171.2z m312.5 0c4.9-16.6 26.9-15.9 31.2 0 25 87.1 78.2 109.9 78.2 171.2 0 54.1-42 97.9-93.8 97.9s-93.7-43.8-93.7-97.9c0-61.1 53.1-84.5 78.1-171.2z m312.5 0c4.9-16.6 26.9-15.9 31.2 0 25 87.1 78.2 109.9 78.2 171.2 0 54.1-42 97.9-93.8 97.9s-93.7-43.8-93.7-97.9c0-61.1 53.1-84.5 78.1-171.2z" />
  </svg>
