
  <svg height="1000" width="1000.0" xmlns="http://www.w3.org/2000/svg">
    <path d="m359.2 722.9c15 8.5 20.3 27.7 11.7 42.5l-125 218.8c-5.9 10.1-16.4 15.8-27.2 15.8-5.2 0-10.5-1.4-15.4-4.1-15-8.4-20.3-27.5-11.7-42.6l125-218.7c8.6-15.3 27.7-20.3 42.6-11.7z m187.5 0c15 8.5 20.3 27.7 11.7 42.5l-125 218.8c-5.9 10.1-16.4 15.8-27.2 15.8-5.2 0-10.5-1.4-15.4-4.1-15-8.4-20.3-27.5-11.7-42.6l125-218.7c8.6-15.3 27.7-20.3 42.6-11.7z m-375 0c15 8.5 20.3 27.7 11.7 42.5l-125 218.8c-5.9 10.1-16.4 15.8-27.1 15.8-5.3 0-10.6-1.4-15.5-4.1-15-8.4-20.3-27.5-11.7-42.6l125-218.7c8.6-15.3 27.7-20.3 42.6-11.7z m750 0c15 8.5 20.3 27.7 11.7 42.5l-125 218.8c-5.9 10.1-16.4 15.8-27.2 15.8-5.2 0-10.5-1.4-15.4-4.1-15-8.4-20.3-27.5-11.7-42.6l125-218.7c8.6-15.3 27.7-20.3 42.6-11.7z m-187.5 0c15 8.5 20.3 27.7 11.7 42.5l-125 218.8c-5.9 10.1-16.4 15.8-27.2 15.8-5.2 0-10.5-1.4-15.4-4.1-15-8.4-20.3-27.5-11.7-42.6l125-218.7c8.6-15.3 27.7-20.3 42.6-11.7z m78.3-472.9c103.5 0 187.5 84 187.5 187.5s-84 187.5-187.5 187.5h-625c-103.5 0-187.5-84-187.5-187.5 0-83 54.3-152.7 129.1-177.3-2.5-13.5-4.1-27.2-4.1-41.4 0-120.9 98-218.8 218.7-218.8 84.6 0 157.1 48.4 193.4 118.7 28.7-34.1 71.1-56.2 119.1-56.2 86.4 0 156.3 69.9 156.3 156.3 0 10.9-1 21.4-3.1 31.6 1 0 1.9-0.4 3.1-0.4z" />
  </svg>
