
  <svg height="1000" width="1125.0" xmlns="http://www.w3.org/2000/svg">
    <path d="m684.6 440.4c72.8 13.3 127.9 76.8 127.9 153.4 0 86.3-69.9 156.2-156.2 156.2h-500c-86.4 0-156.3-69.9-156.3-156.2 0-75.8 53.9-138.9 125.4-153.2 0-1-0.4-2.1-0.4-3.1 0-103.5 84-187.5 187.5-187.5 62.7 0 117.8 31.1 151.8 78.1 20.3-9.7 42.9-15.6 67-15.6 76.5 0 139.8 55.3 153.3 127.9z m424.6-3.3c12.1-2.3 20.7 11.7 12.5 21.1-52.8 64.7-132.6 104.1-219.9 104.1-10.2 0-19.8-1.9-29.7-2.9-12.1-77-64.7-141.6-137.1-169.6-20.9-54.4-62.9-97.2-115.1-120.5 6.5-149.8 129.9-269.3 282.1-269.3 17.3 0 34.7 1.6 51.7 4.7 12.1 2.1 14.9 18.3 4.1 24.4-69.5 39.3-112.3 112.3-112.3 191.6 0 137.7 126.2 242.4 263.7 216.4z m-397.3 379.5c15.1 8.6 20.1 27.5 11.7 42.6l-71.5 125c-5.8 10.1-16.4 15.8-27.1 15.8-5.3 0-10.5-1.4-15.4-4.1-15.1-8.6-20.3-27.5-11.7-42.6l71.4-125c8.6-15.2 27.8-20.1 42.6-11.7z m-187.5 0c15.1 8.6 20.1 27.5 11.7 42.6l-71.5 125c-5.8 10.1-16.4 15.8-27.1 15.8-5.3 0-10.5-1.4-15.4-4.1-15.1-8.6-20.3-27.5-11.7-42.6l71.4-125c8.6-15.2 27.8-20.1 42.6-11.7z m-187.5 0c15.1 8.6 20.1 27.5 11.7 42.6l-71.5 125c-5.8 10.1-16.4 15.8-27.1 15.8-5.3 0-10.5-1.4-15.4-4.1-15.1-8.6-20.3-27.5-11.7-42.6l71.4-125c8.6-15.2 27.8-20.1 42.6-11.7z m-187.5 0c15.1 8.6 20.1 27.5 11.7 42.6l-71.5 125c-5.8 10.1-16.4 15.8-27.1 15.8-5.3 0-10.5-1.4-15.4-4.1-15.1-8.6-20.3-27.5-11.7-42.6l71.4-125c8.6-15.2 27.8-20.1 42.6-11.7z" />
  </svg>
