
  <svg height="1000" width="1125.0" xmlns="http://www.w3.org/2000/svg">
    <path d="m578.1 906.3c43.2 0 78.2 34.9 78.2 78.1 0 8.6-7 15.6-15.7 15.6h-468.7c-8.7 0-15.6-7-15.6-15.6 0-43.2 34.9-78.1 78.1-78.1h109.4v-244.6l-329.6-329.6c-30.3-30.3-8.9-82.1 34-82.1h716.1c42.9 0 64.3 51.8 34 82.1l-329.5 329.6v244.6h109.3z m265.7-906.3c155.3 0 281.2 125.9 281.2 281.3s-125.9 281.2-281.2 281.2c-53.6 0-103.1-15.8-145.7-41.8l68.9-68.8c23.4 10.6 49.3 16.8 76.8 16.8 103.3 0 187.5-84.1 187.5-187.5s-84.2-187.5-187.5-187.5c-69.1 0-128.9 38-161.5 93.8h-102.6c38.8-109 141.8-187.5 264.1-187.5z" />
  </svg>
