<svg height="1000" width="1125" xmlns="http://www.w3.org/2000/svg"><path d="M578.1 906.3H468.8V661.7L798.3 332.1c30.3 -30.3 8.9 -82.1 -34 -82.1H48.2c-42.9 0 -64.3 51.8 -34 82.1l329.6 329.6v244.6H234.4c-43.2 0 -78.1 34.9 -78.1 78.1 0 8.6 6.9 15.6 15.6 15.6h468.7c8.7 0 15.7 -7 15.7 -15.6 0 -43.2 -35 -78.1 -78.2 -78.1zM843.8 0C721.5 0 618.5 78.5 579.7 187.5h102.6c32.6 -55.8 92.4 -93.7 161.5 -93.7 103.3 0 187.5 84.1 187.5 187.5S947.1 468.8 843.8 468.8c-27.5 0 -53.4 -6.3 -76.8 -16.9l-68.9 68.8c42.6 26 92.1 41.8 145.7 41.8 155.3 0 281.2 -125.9 281.2 -281.2S999.1 0 843.8 0z"/></svg>