
  <svg height="1000" width="750.0" xmlns="http://www.w3.org/2000/svg">
    <path d="m750 281.3c0 68.7-44.5 127.1-106.3 148.2-0.9 54.9-14.8 98.6-42.1 132.6-55.1 68.4-148.5 77.2-230.9 84.8-50.2 4.7-97.5 9-129.1 25-13.9 7-23 16-29.1 26.1 58.6 22.5 100 79.3 100 145.8 0 86.3-69.9 156.2-156.2 156.2s-156.3-69.9-156.3-156.2c0-70 45.9-129.2 109.4-149.3v-389.2c-63.5-19.9-109.4-79.1-109.4-149.1 0-86.3 69.9-156.2 156.3-156.2s156.2 69.9 156.2 156.2c0 70-45.9 129.2-109.4 149.1v281.2c46.7-22.4 103.7-27.9 158.8-33 70.1-6.4 136.3-12.7 166.4-50.2 13.3-16.4 20.3-40.6 21.5-72.1-64.8-18.9-112.3-78.9-112.3-150 0-86.3 69.9-156.2 156.3-156.2s156.2 69.9 156.2 156.2z m-593.7-156.3c-17.2 0-31.3 14.1-31.3 31.3s14.1 31.2 31.3 31.2 31.2-14.1 31.2-31.2-14.1-31.3-31.2-31.3z m0 750c17.1 0 31.2-14.1 31.2-31.2s-14.1-31.3-31.2-31.3-31.3 14.1-31.3 31.3 14.1 31.2 31.3 31.2z m437.5-625c-17.2 0-31.3 14.1-31.3 31.3s14.1 31.2 31.3 31.2 31.2-14.1 31.2-31.2-14.1-31.3-31.2-31.3z" />
  </svg>
