<svg height="1000" width="750" xmlns="http://www.w3.org/2000/svg"><path d="M750 281.3C750 194.9 680.1 125 593.8 125S437.5 194.9 437.5 281.3c0 71 47.5 131 112.3 150 -1.2 31.4 -8.2 55.6 -21.5 72 -30.1 37.5 -96.3 43.8 -166.4 50.2 -55.1 5.1 -112.1 10.6 -158.8 33V305.3c63.5 -19.9 109.4 -79.1 109.4 -149.1C312.5 69.9 242.6 0 156.3 0S0 69.9 0 156.3c0 69.9 45.9 129.1 109.4 149v389.2C45.9 714.6 0 773.8 0 843.8 0 930.1 69.9 1000 156.3 1000S312.5 930.1 312.5 843.8c0 -66.5 -41.4 -123.3 -100 -145.8 6.1 -10.1 15.2 -19.1 29.1 -26.1 31.6 -16 78.9 -20.3 129.1 -25 82.4 -7.6 175.8 -16.4 230.9 -84.8 27.3 -34 41.2 -77.7 42.2 -132.6C705.5 408.4 750 350 750 281.3zM156.3 125c17.1 0 31.2 14.1 31.2 31.3s-14.1 31.2 -31.2 31.2S125 173.4 125 156.3 139.1 125 156.3 125zm0 750C139.1 875 125 860.9 125 843.8s14.1 -31.3 31.3 -31.3 31.2 14.1 31.2 31.3S173.4 875 156.3 875zM593.8 250c17.1 0 31.2 14.1 31.2 31.3s-14.1 31.2 -31.2 31.2 -31.3 -14.1 -31.3 -31.2S576.6 250 593.8 250z"/></svg>