<svg height="1000" width="1250" xmlns="http://www.w3.org/2000/svg"><path d="M544.7 999L425.6 964.5c-12.5 -3.6 -19.5 -16.6 -16 -29.1L676.2 17C679.7 4.5 692.8 -2.5 705.3 1l119.1 34.5c12.5 3.6 19.5 16.6 16 29.1L573.8 983c-3.7 12.5 -16.6 19.7 -29.1 16zM322.1 779.9L407 689.3c9 -9.6 8.4 -24.8 -1.5 -33.6L228.5 500l177 -155.7c9.9 -8.8 10.7 -24 1.5 -33.6l-84.9 -90.6c-8.8 -9.4 -23.7 -9.9 -33.2 -1L7.4 482.8c-9.9 9.2 -9.9 25 0 34.2l281.5 263.9c9.5 8.9 24.4 8.6 33.2 -1zm639 1.2l281.5 -263.9c9.9 -9.2 9.9 -25 0 -34.2L961.1 218.9c-9.3 -8.7 -24.2 -8.4 -33.2 1L843 310.5c-9 9.6 -8.4 24.9 1.5 33.6l177 155.9 -177 155.7c-9.9 8.8 -10.7 24 -1.5 33.6l84.9 90.6c8.8 9.6 23.7 9.9 33.2 1.2z"/></svg>