
  <svg height="1000" width="1000.0" xmlns="http://www.w3.org/2000/svg">
    <path d="m952 616.6c9.5 5.5 13.8 16.8 10.9 27.5-21.7 69.8-58.6 132.7-106.8 184.8-7.5 8.2-19.4 10-29 4.5l-83.2-48c-35.1 29.8-75.3 53.1-118.7 68.5v96.1c0 10.9-7.6 20.5-18.4 22.9-68.1 15.2-141.6 16-213.2 0-10.8-2.4-18.4-12-18.4-22.9v-96.1c-43.6-15.2-83.8-38.5-118.8-68.5l-83.2 48c-9.3 5.5-21.4 3.5-28.9-4.5-48.2-52.3-85.1-115.2-106.8-184.8-3.1-10.5 1.2-21.8 10.7-27.3l83.2-48c-8.4-45.4-8.4-91.8 0-137.2l-83.2-48c-9.5-5.5-14-16.8-10.7-27.3 21.7-69.8 58.6-132.7 106.8-184.8 7.5-8.2 19.4-10 28.9-4.5l83.1 48c35.1-29.8 75.3-53.1 118.7-68.5v-96.1c0-10.9 7.6-20.5 18.4-22.9 68.1-15.2 141.6-16 213.2 0 10.8 2.4 18.4 12 18.4 22.9v95.9c43.6 15.2 83.8 38.5 118.7 68.5l83.3-48c9.3-5.5 21.4-3.5 28.9 4.5 48.2 52.3 85.1 115.2 106.8 184.8 3.1 10.5-1.2 21.8-10.7 27.3l-83.3 48c8.4 45.4 8.4 91.8 0 137.2z m-452 39.7c86.1 0 156.3-70.2 156.3-156.3s-70.2-156.2-156.3-156.2-156.2 70.1-156.2 156.2 70.1 156.3 156.2 156.3z" />
  </svg>
