<svg height="1000" width="1000" xmlns="http://www.w3.org/2000/svg"><path d="M868.7 568.6l83.3 48c9.5 5.5 13.9 16.8 10.6 27.3C941 713.5 904.1 776.4 855.8 828.7a23.5 -23.5 0 0 0 -29 4.4L743.7 785A374.2 -374.2 0 0 0 625 853.6v96.1a23.5 -23.5 0 0 0 -18.3 22.9c-68.3 15.3 -141.6 16.1 -213.3 0A23.425 23.425 0 0 1 375 949.7v-96.1A374.1 -374.1 0 0 0 256.3 785l-83.1 48.1a23.5 -23.5 0 0 0 -29 -4.4C95.9 776.4 59 713.5 37.4 643.9A23.38 23.38 0 0 1 48 616.6l83.3 -48a377.9 -377.9 0 0 0 0 -137.2L48 383.4A23.38 23.38 0 0 1 37.4 356.1C59 286.5 95.9 223.6 144.2 171.3a23.5 -23.5 0 0 0 29 -4.4l83.1 48.1A374.2 -374.2 0 0 0 375 146.4V50.3a23.5 -23.5 0 0 0 18.3 -22.9c68.3 -15.3 141.6 -16.1 213.3 0 10.8 2.4 18.4 11.9 18.4 22.9v96.1A374.1 -374.1 0 0 0 743.7 215l83.1 -48.1a23.5 -23.5 0 0 0 29 4.4c48.3 52.3 85.2 115.2 106.8 184.8A23.38 23.38 0 0 1 952 383.4l-83.3 48a377.9 -377.9 0 0 0 0 137.2zM656.3 500C656.3 413.8 586.2 343.8 500 343.8S343.8 413.8 343.8 500s70 156.3 156.2 156.3S656.3 586.2 656.3 500z"/></svg>