
  <svg height="1000" width="1000.0" xmlns="http://www.w3.org/2000/svg">
    <path d="m0 791.6c80.7 56.8 228.1 83.4 375 83.4s294.3-26.6 375-83.4v83.4c0 68.9-168 125-375 125s-375-56.1-375-125v-83.4z m625-541.6c-207 0-375-56.1-375-125s168-125 375-125 375 56.1 375 125-168 125-375 125z m-625 336.7c80.7 66.4 228.3 100.8 375 100.8s294.3-34.4 375-100.8v100.8c0 68.9-168 125-375 125s-375-56.1-375-125v-100.8z m812.5 21.5v-124.2c75.6-13.5 142.2-35.4 187.5-67.4v83.4c0 46.3-75.6 86.5-187.5 108.2z m-437.5-295.7c207 0 375 69.9 375 156.3s-168 156.2-375 156.2-375-69.9-375-156.2 168-156.3 375-156.3z m428.3 110c-17.2-46.3-59.5-83.8-117.2-111.8 125.4-6.2 244.6-32.6 313.9-81.6v83.4c0 47.5-79.5 88.9-196.7 110z" />
  </svg>
