<svg height="1000" width="1000" xmlns="http://www.w3.org/2000/svg"><path d="M0 791.6V875c0 68.9 168 125 375 125S750 943.9 750 875v-83.4C669.3 848.4 521.9 875 375 875S80.7 848.4 0 791.6zM625 250c207 0 375 -56.1 375 -125S832 0 625 0 250 56.1 250 125s168 125 375 125zM0 586.7v100.8c0 68.9 168 125 375 125s375 -56.1 375 -125V586.7C669.3 653.1 521.7 687.5 375 687.5S80.7 653.1 0 586.7zm812.5 21.5C924.4 586.5 1000 546.3 1000 500v-83.4c-45.3 32 -111.9 53.9 -187.5 67.4v124.2zM375 312.5C168 312.5 0 382.4 0 468.8S168 625 375 625 750 555.1 750 468.8 582 312.5 375 312.5zm428.3 110C920.5 401.4 1000 360 1000 312.5v-83.4c-69.3 49 -188.5 75.4 -313.9 81.6 57.7 28 100 65.5 117.2 111.8z"/></svg>