<svg height="1000" width="1000" xmlns="http://www.w3.org/2000/svg"><path d="M500 62.5C223.8 62.5 0 244.3 0 468.8 0 565.6 41.8 654.3 111.3 724 86.9 822.5 5.3 910.2 4.3 911.1c-4.3 4.5 -5.5 11.2 -2.9 17s8 9.4 14.2 9.4c129.5 0 226.6 -62.1 274.6 -100.4C354.1 861.1 425 875 500 875c276.2 0 500 -181.8 500 -406.2S776.2 62.5 500 62.5zM250 531.3c-34.6 0 -62.5 -28 -62.5 -62.5s27.9 -62.5 62.5 -62.5 62.5 27.9 62.5 62.5 -27.9 62.5 -62.5 62.5zm250 0c-34.6 0 -62.5 -28 -62.5 -62.5s27.9 -62.5 62.5 -62.5 62.5 27.9 62.5 62.5 -27.9 62.5 -62.5 62.5zm250 0c-34.6 0 -62.5 -28 -62.5 -62.5s27.9 -62.5 62.5 -62.5 62.5 27.9 62.5 62.5 -27.9 62.5 -62.5 62.5z"/></svg>