<svg height="1000" width="1250" xmlns="http://www.w3.org/2000/svg"><path d="M125 468.8c0 96.8 41.8 185.5 111.3 255.2 -24.6 98.3 -106 186 -107 187.1 -4.3 4.5 -5.5 11.2 -2.9 17 2.5 5.7 8 9.4 14.2 9.4 129.5 0 226.6 -62.1 274.6 -100.4C479.1 861.1 550 875 625 875c53.5 0 104.9 -7 153.1 -19.5L142.4 364.1c-11 33.4 -17.4 68.3 -17.4 104.7zm1112.9 425.9L1014.5 722.1C1083.2 652.5 1125 564.8 1125 468.8 1125 244.3 901.2 62.5 625 62.5c-127.1 0 -242.6 39.3 -330.9 102.9L88.9 6.6C75.2 -3.9 55.7 -1.6 44.9 12.1L6.6 61.3C-3.9 75 -1.6 94.5 12.1 105.1l1149.2 888.1c13.7 10.5 33.2 8.2 44 -5.5l38.3 -49.4c10.5 -13.3 8 -33 -5.7 -43.6z"/></svg>