
  <svg height="1000" width="1125.0" xmlns="http://www.w3.org/2000/svg">
    <path d="m812.5 375c0 172.6-181.9 312.5-406.2 312.5-80.1 0-154.5-18-217.4-48.8-42.6 24.9-101.8 48.8-173.3 48.8l0 0c-8.6 0-15.6-7-15.6-15.6 0-4.2 1.6-8 4.3-10.8 0.6-0.6 43.8-47.4 69.9-106.5-46.6-50.8-74.2-112.7-74.2-179.6 0-172.6 181.9-312.5 406.2-312.5s406.3 139.9 406.3 312.5z m-437.5 187.5c0 8.6 7 15.6 15.6 15.6h31.3c8.6 0 15.6-7 15.6-15.6v-31.5c46.1-1.2 83.3-40.1 83.3-88 0-39-25.3-73.9-61.6-84.8l-87.9-26.3c-10.1-3-17.2-13.3-17.2-24.9 0-14.2 10.4-25.7 23.1-25.7h54.9c8.9 0 17.5 2.5 25 7.2 6.4 4 14.4 3.7 19.8-1.4l23-21.9c6.9-6.6 6.5-18-1.1-23.7-17.8-13.4-39.3-21.1-61.3-22.2v-31.8c0-8.6-7-15.6-15.6-15.6h-31.3c-8.6 0-15.6 7-15.6 15.6v31.5c-46.2 1.2-83.4 40.1-83.4 88 0 39 25.4 73.9 61.7 84.8l87.9 26.3c10.1 3 17.1 13.3 17.1 24.9 0 14.2-10.3 25.8-23 25.8h-54.9c-8.9 0-17.5-2.6-25-7.3-6.4-4-14.4-3.7-19.8 1.4l-23 21.9c-6.9 6.6-6.5 18 1.1 23.7 17.8 13.4 39.2 21.1 61.3 22.2v31.8z m675.8 242.2c26.1 59.1 69.3 105.8 69.9 106.4 4.3 4.6 5.5 11.2 3 16.9-2.4 5.8-8.1 9.5-14.3 9.5-71.5 0-130.7-23.9-173.3-48.8-62.9 30.8-137.3 48.8-217.4 48.8-168.4 0-312.8-78.8-374.4-191.2 20.3 2.2 40.9 3.7 62 3.7 258.4 0 468.7-168.2 468.7-375 0-13.2-0.9-26.3-2.6-39.2 148.1 46.6 252.6 158.5 252.6 289.2 0 66.9-27.6 128.8-74.2 179.7z" />
  </svg>
