
  <svg height="1000" width="1000.0" xmlns="http://www.w3.org/2000/svg">
    <path d="m500 62.5c276.2 0 500 181.8 500 406.3s-223.8 406.2-500 406.2c-75 0-145.9-13.9-209.8-37.9-48 38.3-145.1 100.4-274.6 100.4-6.2 0-11.7-3.5-14.2-9.4s-1.4-12.5 2.9-17c1-0.9 82.6-88.6 107-187.1-69.5-69.7-111.3-158.4-111.3-255.2 0-224.5 223.8-406.3 500-406.3z m-250 468.8c34.6 0 62.5-28 62.5-62.5s-27.9-62.5-62.5-62.5-62.5 27.9-62.5 62.5 27.9 62.5 62.5 62.5z m250 0c34.6 0 62.5-28 62.5-62.5s-27.9-62.5-62.5-62.5-62.5 27.9-62.5 62.5 27.9 62.5 62.5 62.5z m250 0c34.6 0 62.5-28 62.5-62.5s-27.9-62.5-62.5-62.5-62.5 27.9-62.5 62.5 27.9 62.5 62.5 62.5z" />
  </svg>
