
  <svg height="1000" width="1250.0" xmlns="http://www.w3.org/2000/svg">
    <path d="m125 468.8c0-36.4 6.4-71.3 17.4-104.7l635.7 491.4c-48.2 12.5-99.6 19.5-153.1 19.5-75 0-145.9-13.9-209.8-37.9-48 38.3-145.1 100.4-274.6 100.4-6.2 0-11.7-3.7-14.2-9.4-2.6-5.8-1.4-12.5 2.9-17 1-1.1 82.4-88.8 107-187.1-69.5-69.7-111.3-158.4-111.3-255.2z m1112.9 425.9c13.7 10.6 16.2 30.3 5.7 43.6l-38.3 49.4c-10.8 13.7-30.3 16-44 5.5l-1149.2-888.1c-13.7-10.6-16-30.1-5.5-43.8l38.3-49.2c10.8-13.7 30.3-16 44-5.5l205.2 158.8c88.3-63.6 203.8-102.9 330.9-102.9 276.2 0 500 181.8 500 406.3 0 96-41.8 183.7-110.5 253.3z" />
  </svg>
