
  <svg height="1000" width="1000.0" xmlns="http://www.w3.org/2000/svg">
    <path d="m500 62.5c276.1 0 500 181.9 500 406.3s-223.9 406.2-500 406.2c-75 0-145.9-13.8-209.8-37.9-48 38.4-145.2 100.4-274.6 100.4l0 0c-8.6 0-15.6-7-15.6-15.6 0-4.2 1.6-8 4.3-10.8 1-1 82.5-88.7 107.1-187-69.6-69.8-111.4-158.6-111.4-255.3 0-224.4 223.9-406.3 500-406.3z m46.9 590.7c59.1-7.1 104.2-60.5 96.3-123.1-5.7-44.9-40.3-80.7-83.8-93.1l-97.8-28c-7-2-12-8.5-12-15.8 0-9.1 7.4-16.4 16.5-16.4h64.1c0 0 0.1 0 0.1 0 7.1 0 13.8 1.5 19.9 4.3 9.4 4.3 20.2 3.3 27.6-4l34.2-34.2c10.3-10.3 9.1-27.9-3.1-35.9-18.5-12.2-39.7-19.7-62-22.4v-34.6c0-17.3-14-31.3-31.3-31.3h-31.2c-17.3 0-31.3 14-31.3 31.3v34.3c-59.1 7-104.2 60.5-96.3 123.1 5.7 44.9 40.3 80.7 83.8 93.1l97.8 28c7 2 12 8.5 12 15.8 0 9.1-7.4 16.4-16.5 16.4h-64.1c-7 0-13.8-1.4-20-4.3-9.4-4.3-20.2-3.3-27.6 4l-34.2 34.2c-10.3 10.3-9.1 27.9 3.1 35.9 18.5 12.2 39.7 19.7 62 22.4v34.6c0 17.3 14 31.2 31.3 31.2h31.2c17.3 0 31.3-13.9 31.3-31.2v-34.3z" />
  </svg>
