
  <svg height="1000" width="1000.0" xmlns="http://www.w3.org/2000/svg">
    <path d="m500 62.5c276.2 0 500 181.9 500 406.3s-223.8 406.2-500 406.2c-0.3 0-0.9-0.2-1.2-0.2-73.4 0-143.6-13.3-208.6-37.7-48 38.4-145.2 100.4-274.6 100.4-8.6 0-15.6-7-15.6-15.6 0-4.2 1.6-8 4.3-10.8 1-0.9 82.5-88.7 107-187-69.5-69.8-111.3-158.6-111.3-255.3 0-224.4 223.9-406.3 500-406.3z m187.5 453.1v-93.7c0-8.6-7-15.6-15.6-15.6h-109.4v-109.4c0-8.6-7-15.6-15.6-15.6h-93.8c-8.6 0-15.6 7-15.6 15.6v109.4h-109.4c-8.6 0-15.6 7-15.6 15.6v93.7c0 8.6 7 15.7 15.6 15.7h109.4v109.3c0 8.6 7 15.7 15.6 15.7h93.8c8.6 0 15.6-7.1 15.6-15.7v-109.3h109.4c8.6 0 15.6-7.1 15.6-15.7z" />
  </svg>
