
  <svg height="1000" width="1125.0" xmlns="http://www.w3.org/2000/svg">
    <path d="m812.5 375c0 172.7-181.8 312.5-406.2 312.5-80.1 0-154.5-18.2-217.4-48.8-42.6 24.8-101.8 48.8-173.3 48.8-6.2 0-11.7-3.5-14.2-9.4s-1.4-12.5 2.9-17c0.6-0.6 43.7-47.4 69.9-106.4-46.7-51-74.2-112.7-74.2-179.7 0-172.7 181.8-312.5 406.2-312.5s406.3 139.8 406.3 312.5z m238.3 429.7c26.2 59.2 69.3 105.8 69.9 106.4 4.3 4.7 5.5 11.4 2.9 17-2.3 5.7-8 9.4-14.2 9.4-71.5 0-130.7-24-173.3-48.8-62.9 30.8-137.3 48.8-217.4 48.8-168.3 0-312.8-78.9-374.4-191.2 20.3 2.1 40.9 3.7 62 3.7 258.3 0 468.7-168.2 468.7-375 0-13.3-0.8-26.4-2.5-39.3 148 46.7 252.5 158.6 252.5 289.3 0 67-27.5 128.9-74.2 179.7z" />
  </svg>
