
  <svg height="1000" width="968.8" xmlns="http://www.w3.org/2000/svg">
    <path d="m484.4 15.6c267.6 0 484.4 216.8 484.4 484.4s-216.8 484.4-484.4 484.4-484.4-216.8-484.4-484.4 216.8-484.4 484.4-484.4z m-312.5 484.4c0-172.3 140.2-312.5 312.5-312.5v-62.5c-206.9 0-375 168.2-375 375h62.5z m312.5 187.5c103.5 0 187.5-84 187.5-187.5s-84-187.5-187.5-187.5-187.5 84-187.5 187.5 84 187.5 187.5 187.5z m0-250c34.5 0 62.5 27.9 62.5 62.5s-28 62.5-62.5 62.5-62.5-27.9-62.5-62.5 27.9-62.5 62.5-62.5z" />
  </svg>
