
  <svg height="1000" width="1000.0" xmlns="http://www.w3.org/2000/svg">
    <path d="m390.6 562.5c26 0 46.9 20.9 46.9 46.9v218.7c0 41.8-50.4 62.7-79.9 33.2l-60.7-64.4-194 193.9c-12.1 12.1-32 12.1-44.1 0l-49.6-49.6c-12.1-12.1-12.1-32 0-44.1l193.7-194-64.2-60.5c-29.5-29.7-8.6-80.1 33.2-80.1h218.7z m218.8-125c-26 0-46.9-20.9-46.9-46.9v-218.7c0-41.8 50.4-62.7 79.9-33.2l60.7 64.4 194-193.9c12.1-12.1 32-12.1 44.1 0l49.6 49.6c12.1 12.1 12.1 32 0 44.1l-193.9 194 64.4 60.5c29.5 29.5 8.6 80.1-33.2 80.1h-218.7z m187.5 265.6l193.9 194.2c12.1 12.1 12.1 32 0 44.1l-49.6 49.6c-12.1 12.1-32 12.1-44.1 0l-194-193.9-60.5 64.2c-29.5 29.5-80.1 8.6-80.1-33.2v-218.7c0-26 20.9-46.9 46.9-46.9h218.7c41.8 0 62.7 50.4 33.2 79.9z m-439.5-564.2c29.5-29.5 80.1-8.6 80.1 33v218.7c0 26-20.9 46.9-46.9 46.9h-218.7c-41.8 0-62.7-50.4-33.2-79.9l64.4-60.7-193.9-194c-12.1-12.1-12.1-32 0-44.1l49.6-49.6c12.1-12.1 32-12.1 44.1 0l194 193.9z" />
  </svg>
