<svg height="1000" width="875" xmlns="http://www.w3.org/2000/svg"><path d="M851.6 375H609.4c-26 0 -46.9 -20.9 -46.9 -46.9V85.9C562.5 73 573 62.5 585.9 62.5h78.2c12.9 0 23.4 10.5 23.4 23.4V250h164.1c12.9 0 23.4 10.5 23.4 23.4v78.2c0 12.9 -10.5 23.4 -23.4 23.4zM312.5 328.1V85.9C312.5 73 302 62.5 289.1 62.5h-78.2C198 62.5 187.5 73 187.5 85.9V250H23.4C10.5 250 0 260.5 0 273.4v78.2C0 364.5 10.5 375 23.4 375h242.2c26 0 46.9 -20.9 46.9 -46.9zm0 586V671.9c0 -26 -20.9 -46.9 -46.9 -46.9H23.4C10.5 625 0 635.5 0 648.4v78.2C0 739.5 10.5 750 23.4 750h164.1v164.1c0 12.9 10.5 23.4 23.4 23.4h78.2c12.9 0 23.4 -10.5 23.4 -23.4zm375 0V750h164.1c12.9 0 23.4 -10.5 23.4 -23.4v-78.2C875 635.5 864.5 625 851.6 625H609.4c-26 0 -46.9 20.9 -46.9 46.9v242.2c0 12.9 10.5 23.4 23.4 23.4h78.2c12.9 0 23.4 -10.5 23.4 -23.4z"/></svg>