<svg height="1000" width="1000" xmlns="http://www.w3.org/2000/svg"><path d="M997.1 499.6C860.4 498 750.1 387 750.1 249.9 613 249.9 502.1 139.6 500.4 2.9 447.1 -5.1 392.7 3.5 344.7 28L209.6 96.8A258.2 -258.2 0 0 1 96.8 209.7L28.2 344.2a259.1 -259.1 0 0 1 -25 158.1l23.6 149a258.8 -258.8 0 0 1 72.6 142.5l106.9 106.9a257.9 -257.9 0 0 1 142 72.4l149.9 23.8c53.7 8.5 108.8 -.3 157.2 -25l135.1 -68.7A258.3 -258.3 0 0 1 903.3 790.3l68.6 -134.6c24.5 -48.1 33.2 -102.7 25.2 -156.1zM343.8 718.8c-34.6 0 -62.5 -28 -62.5 -62.5s27.9 -62.5 62.5 -62.5 62.5 27.9 62.5 62.5 -28 62.5 -62.5 62.5zm62.5 -312.5c-34.6 0 -62.5 -28 -62.5 -62.5s27.9 -62.5 62.5 -62.5 62.5 27.9 62.5 62.5 -28 62.5 -62.5 62.5zm312.5 250c-34.6 0 -62.5 -28 -62.5 -62.5s27.9 -62.5 62.5 -62.5 62.5 27.9 62.5 62.5 -28 62.5 -62.5 62.5z"/></svg>