
  <svg height="1000" width="1000.0" xmlns="http://www.w3.org/2000/svg">
    <path d="m997.1 499.6c8 53.4-0.7 108-25.2 156.1l-68.6 134.6c-24.8 48.6-64.1 88-112.8 112.9l-135.1 68.7c-48.4 24.7-103.5 33.5-157.2 25l-149.9-23.8c-54.9-8.7-104.4-34.7-142-72.4l-106.9-106.9c-37.8-37.8-63.9-87.4-72.6-142.5l-23.6-149c-2.1-13.3-3-26.9-3-40.7 0-42.3 10.1-82.1 28-117.4l68.6-134.5c24.8-48.7 64.2-88.1 112.8-112.9l135.1-68.8c48-24.5 102.4-33.1 155.7-25.1 1.7 136.7 112.6 247 249.7 247 0 137.1 110.3 248.1 247 249.7z m-653.3 219.2c34.5 0 62.5-28 62.5-62.5s-28-62.5-62.5-62.5-62.5 27.9-62.5 62.5 27.9 62.5 62.5 62.5z m62.5-312.5c34.5 0 62.5-28 62.5-62.5s-28-62.5-62.5-62.5-62.5 27.9-62.5 62.5 27.9 62.5 62.5 62.5z m312.5 250c34.5 0 62.5-28 62.5-62.5s-28-62.5-62.5-62.5-62.5 27.9-62.5 62.5 27.9 62.5 62.5 62.5z" />
  </svg>
