
  <svg height="1000" width="1000.0" xmlns="http://www.w3.org/2000/svg">
    <path d="m996.8 497.6c8.6 54.1-0.2 109.4-25 158.2l-68.6 134.5c-24.8 48.7-64.2 88-112.8 112.9l-135 68.7c-48.5 24.7-103.6 33.5-157.3 24.9l-149.8-23.7c-54.9-8.7-104.4-34.7-142-72.3l-107-107c-37.7-37.7-63.8-87.3-72.6-142.5l-23.6-148.9c-2.1-13.3-3-26.9-3-40.8 0-42.2 10.1-82.1 28.1-117.3l68.5-134.5c24.8-48.7 64.2-88.1 112.9-112.9l135-68.8c48.5-24.7 103.5-33.4 157.3-24.9l149.8 23.7c53.7 8.5 103.5 33.9 142 72.4l106.9 106.9c37.8 37.8 63.9 87.4 72.6 142.5z m-653 221.2c34.5 0 62.5-28 62.5-62.5s-28-62.5-62.5-62.5-62.5 27.9-62.5 62.5 27.9 62.5 62.5 62.5z m62.5-312.5c34.5 0 62.5-28 62.5-62.5s-28-62.5-62.5-62.5-62.5 27.9-62.5 62.5 27.9 62.5 62.5 62.5z m312.5 250c34.5 0 62.5-28 62.5-62.5s-28-62.5-62.5-62.5-62.5 27.9-62.5 62.5 27.9 62.5 62.5 62.5z" />
  </svg>
