<svg height="1000" width="1000" xmlns="http://www.w3.org/2000/svg"><path d="M996.8 497.6L973.2 348.7A258.8 -258.8 0 0 1 900.6 206.2L793.7 99.3C755.2 60.8 705.4 35.4 651.7 26.9L501.9 3.2C448.1 -5.3 393.1 3.4 344.6 28.1l-135 68.8A258.3 -258.3 0 0 1 96.7 209.8L28.2 344.3A259 -259 0 0 1 3.1 502.4l23.6 148.9a258.8 -258.8 0 0 1 72.6 142.5l107 107a258 -258 0 0 1 142 72.3l149.8 23.7c53.7 8.6 108.8 -.2 157.3 -24.9l135 -68.7A258.4 -258.4 0 0 1 903.2 790.3l68.6 -134.5c24.8 -48.8 33.6 -104.1 25 -158.2zm-653 221.2c-34.6 0 -62.5 -28 -62.5 -62.5s27.9 -62.5 62.5 -62.5 62.5 27.9 62.5 62.5 -28 62.5 -62.5 62.5zm62.5 -312.5c-34.6 0 -62.5 -28 -62.5 -62.5s27.9 -62.5 62.5 -62.5 62.5 27.9 62.5 62.5 -28 62.5 -62.5 62.5zm312.5 250c-34.6 0 -62.5 -28 -62.5 -62.5s27.9 -62.5 62.5 -62.5 62.5 27.9 62.5 62.5 -28 62.5 -62.5 62.5z"/></svg>