
  <svg height="1000" width="1000.0" xmlns="http://www.w3.org/2000/svg">
    <path d="m500 15.6c267.5 0 484.4 216.9 484.4 484.4s-216.9 484.4-484.4 484.4-484.4-216.9-484.4-484.4 216.9-484.4 484.4-484.4z m228.8 677.3c3.5-4.1 5.6-9.5 5.6-15.2 0-5.2-1.7-10-4.5-13.9l-48-65.5c-8.7-11.9-26.1-13-36.1-2.1-0.5 0.6-52.5 55.9-128 55.9-95.3 0-145.1-78.3-145.1-155.6 0-83 54.3-148.6 144.3-148.6 69.1 0 120.4 46.2 120.9 46.6 10.7 9.9 27.7 7.8 35.6-4.5l43.7-67.7c2.4-3.6 3.8-8 3.8-12.7 0-6.1-2.4-11.6-6.2-15.8-2.8-3.1-71.2-76-202-76-159.7 0-280.8 121.3-280.8 280.1 0 160.7 116.8 284.3 282.2 284.3 136.9 0 211.5-85.7 214.6-89.3z" />
  </svg>
