<svg height="1000" width="1000" xmlns="http://www.w3.org/2000/svg"><path d="M500 15.6C232.5 15.6 15.6 232.5 15.6 500S232.5 984.4 500 984.4 984.4 767.5 984.4 500 767.5 15.6 500 15.6zm228.8 677.3c-3.1 3.6 -77.7 89.3 -214.6 89.3C348.8 782.2 232 658.6 232 497.9 232 339.1 353.1 217.8 512.8 217.8c130.8 0 199.2 72.9 202 76a23.4 -23.4 0 0 0 2.4 28.5L673.5 390c-7.9 12.3 -24.9 14.4 -35.6 4.5 -.5 -.4 -51.8 -46.6 -120.9 -46.6 -90 0 -144.3 65.6 -144.3 148.6 0 77.3 49.8 155.6 145.1 155.6 75.5 0 127.5 -55.3 128 -55.9 10 -10.9 27.4 -9.8 36.1 2.1l48 65.5a23.4 -23.4 0 0 0 -1.1 29.1z"/></svg>