<svg height="1000" width="1250" xmlns="http://www.w3.org/2000/svg"><path d="M312.5 437.5v125h625v-125c0 -68.9 56.1 -125 125 -125h62.5C1125 209 1041 125 937.5 125h-625C209 125 125 209 125 312.5h62.5c68.9 0 125 56.1 125 125zM1125 375h-62.5c-34.6 0 -62.5 27.9 -62.5 62.5V625H250V437.5C250 402.9 222.1 375 187.5 375H125C56.1 375 0 431.1 0 500c0 46.1 25.4 85.9 62.5 107.6v236.2c0 17.1 14.1 31.2 31.3 31.2h125c17.1 0 31.2 -14.1 31.2 -31.2v-31.3h750v31.3c0 17.1 14.1 31.2 31.3 31.2h125c17.1 0 31.2 -14.1 31.2 -31.2V607.6C1224.6 585.9 1250 546.1 1250 500c0 -68.9 -56.1 -125 -125 -125z"/></svg>