
  <svg height="1000" width="1250.0" xmlns="http://www.w3.org/2000/svg">
    <path d="m312.5 437.5c0-68.9-56.1-125-125-125h-62.5c0-103.5 84-187.5 187.5-187.5h625c103.5 0 187.5 84 187.5 187.5h-62.5c-68.9 0-125 56.1-125 125v125h-625v-125z m812.5-62.5c68.9 0 125 56.1 125 125 0 46.1-25.4 85.9-62.5 107.6v236.1c0 17.2-14.1 31.3-31.2 31.3h-125c-17.2 0-31.3-14.1-31.3-31.3v-31.2h-750v31.2c0 17.2-14.1 31.3-31.2 31.3h-125c-17.2 0-31.3-14.1-31.3-31.3v-236.1c-37.1-21.7-62.5-61.5-62.5-107.6 0-68.9 56.1-125 125-125h62.5c34.6 0 62.5 27.9 62.5 62.5v187.5h750v-187.5c0-34.6 27.9-62.5 62.5-62.5h62.5z" />
  </svg>
