
  <svg height="1000" width="1125.0" xmlns="http://www.w3.org/2000/svg">
    <path d="m0 843.8v-343.8h1125v343.8c0 51.7-42 93.7-93.7 93.7h-937.5c-51.8 0-93.8-42-93.8-93.7z m375-132.9v78.2c0 12.9 10.5 23.4 23.4 23.4h265.7c12.9 0 23.4-10.5 23.4-23.4v-78.2c0-12.9-10.5-23.4-23.4-23.4h-265.7c-12.9 0-23.4 10.5-23.4 23.4z m-250 0v78.2c0 12.9 10.5 23.4 23.4 23.4h140.7c12.9 0 23.4-10.5 23.4-23.4v-78.2c0-12.9-10.5-23.4-23.4-23.4h-140.7c-12.9 0-23.4 10.5-23.4 23.4z m1000-554.6v93.7h-1125v-93.7c0-51.8 42-93.8 93.8-93.8h937.5c51.7 0 93.7 42 93.7 93.8z" />
  </svg>
