<svg height="1000" width="1125" xmlns="http://www.w3.org/2000/svg"><path d="M0 843.8c0 51.7 42 93.7 93.8 93.7h937.5c51.7 0 93.7 -42 93.7 -93.7V500H0v343.8zM375 710.9c0 -12.9 10.5 -23.4 23.4 -23.4h265.7c12.9 0 23.4 10.5 23.4 23.4v78.2c0 12.9 -10.5 23.4 -23.4 23.4H398.4C385.5 812.5 375 802 375 789.1v-78.2zm-250 0c0 -12.9 10.5 -23.4 23.4 -23.4h140.7c12.9 0 23.4 10.5 23.4 23.4v78.2c0 12.9 -10.5 23.4 -23.4 23.4H148.4C135.5 812.5 125 802 125 789.1v-78.2zM1125 156.3V250H0v-93.7C0 104.5 42 62.5 93.8 62.5h937.5c51.7 0 93.7 42 93.7 93.8z"/></svg>