
  <svg height="1000" width="1000.0" xmlns="http://www.w3.org/2000/svg">
    <path d="m953.1 687.5c25.9 0 46.9 21 46.9 46.9v93.7c0 25.9-21 46.9-46.9 46.9h-78.1v78.1c0 25.9-21 46.9-46.9 46.9h-93.7c-25.9 0-46.9-21-46.9-46.9v-552.2l-286.6 286.6h224.1v187.5h-453.1c-25.9 0-46.9-21-46.9-46.9v-515.6h-78.1c-25.9 0-46.9-21-46.9-46.9v-93.7c0-25.9 21-46.9 46.9-46.9h78.1v-78.1c0-25.9 21-46.9 46.9-46.9h93.7c25.9 0 46.9 21 46.9 46.9v552.2l286.6-286.6h-224.1v-187.5h411.6l115.9-115.8c12.2-12.2 32-12.2 44.2 0l44.1 44.1c12.2 12.2 12.2 32 0 44.2l-115.8 115.9v474.1h78.1z" />
  </svg>
