<svg height="1000" width="1000" xmlns="http://www.w3.org/2000/svg"><path d="M953.1 687.5H875V213.4L990.8 97.5c12.2 -12.2 12.2 -32 0 -44.2L946.7 9.2C934.5 -3 914.7 -3 902.5 9.2L786.6 125H375v187.5h224.1L312.5 599.1V46.9C312.5 21 291.5 0 265.6 0h-93.7C146 0 125 21 125 46.9V125H46.9C21 125 0 146 0 171.9v93.7c0 25.9 21 46.9 46.9 46.9H125v515.6c0 25.9 21 46.9 46.9 46.9H625V687.5H400.9L687.5 400.9v552.2c0 25.9 21 46.9 46.9 46.9h93.7c25.9 0 46.9 -21 46.9 -46.9V875h78.1c25.9 0 46.9 -21 46.9 -46.9v-93.7c0 -25.9 -21 -46.9 -46.9 -46.9z"/></svg>