
  <svg height="1000" width="1000.0" xmlns="http://www.w3.org/2000/svg">
    <path d="m976.6 437.5c12.9 0 23.4 10.5 23.4 23.4v78.2c0 12.9-10.5 23.4-23.4 23.4h-59.3c-27.2 183-171.8 327.6-354.8 354.8v59.3c0 12.9-10.5 23.4-23.4 23.4h-78.2c-12.9 0-23.4-10.5-23.4-23.4v-59.3c-183-27.2-327.6-171.8-354.8-354.8h-59.3c-12.9 0-23.4-10.5-23.4-23.4v-78.2c0-12.9 10.5-23.4 23.4-23.4h59.3c27.2-183 171.8-327.6 354.8-354.8v-59.3c0-12.9 10.5-23.4 23.4-23.4h78.2c12.9 0 23.4 10.5 23.4 23.4v59.3c183 27.2 327.6 171.8 354.8 354.8h59.3z m-414.1 352.8c113.8-24.3 203.6-114.2 227.8-227.8h-79.4c-12.9 0-23.4-10.5-23.4-23.4v-78.2c0-12.9 10.5-23.4 23.4-23.4h79.4c-24.3-113.8-114.2-203.6-227.8-227.8v79.4c0 12.9-10.5 23.4-23.4 23.4h-78.2c-12.9 0-23.4-10.5-23.4-23.4v-79.4c-113.8 24.3-203.6 114.2-227.8 227.8h79.4c12.9 0 23.4 10.5 23.4 23.4v78.2c0 12.9-10.5 23.4-23.4 23.4h-79.4c24.3 113.8 114.2 203.6 227.8 227.8v-79.4c0-12.9 10.5-23.4 23.4-23.4h78.2c12.9 0 23.4 10.5 23.4 23.4v79.4z m0-290.3c0 34.5-28 62.5-62.5 62.5s-62.5-28-62.5-62.5 28-62.5 62.5-62.5 62.5 28 62.5 62.5z" />
  </svg>
