<svg height="1000" width="1250" xmlns="http://www.w3.org/2000/svg"><path d="M1062.5 62.5h-32C1002 24.8 957.2 0 906.3 0 820 0 750 70 750 156.3v40.9L23.6 768.7A59 -59 0 0 1 0 815.9c0 43.9 46.2 72.4 85.4 52.8L322.8 750h188.5L598 984.6c4.4 12.1 17.9 18.4 30 14l44.1 -16.1c12.1 -4.4 18.4 -17.8 14 -30L611.2 750h76.3c3.7 0 7.3 -.4 11.1 -.6l86.9 235.2c4.4 12.1 17.9 18.4 30 14l44.1 -16.1c12.1 -4.4 18.4 -17.9 14 -30L793 734.6C948.7 689.1 1062.5 545.4 1062.5 375V218.8L1250 187.5c0 -69 -83.9 -125 -187.5 -125zM906.3 203.1c-25.9 0 -46.9 -21 -46.9 -46.8 0 -25.9 21 -46.9 46.9 -46.9s46.8 21 46.8 46.9c0 25.8 -21 46.8 -46.8 46.8z"/></svg>