<svg height="1000" width="1250" xmlns="http://www.w3.org/2000/svg"><path d="M1031.3 875H218.8c-17.2 0 -31.3 14.1 -31.3 31.3v62.5c0 17.1 14.1 31.2 31.3 31.2h812.5c17.1 0 31.2 -14.1 31.2 -31.2v-62.5c0 -17.2 -14.1 -31.3 -31.2 -31.3zm125 -625c-51.8 0 -93.8 42 -93.8 93.8 0 13.8 3.1 26.7 8.6 38.6l-141.4 84.8c-30.1 18 -69 7.8 -86.3 -22.7L684.2 166c20.9 -17.2 34.6 -43 34.6 -72.2C718.8 42 676.8 0 625 0s-93.7 42 -93.7 93.8c0 29.2 13.6 55 34.5 72.2L406.6 444.5c-17.3 30.5 -56.4 40.7 -86.3 22.7L179.1 382.4c5.3 -11.7 8.6 -24.8 8.6 -38.6C187.7 292 145.7 250 93.9 250S0 292 0 343.8s42 93.7 93.8 93.7c5 0 10.1 -.8 15 -1.6L250 812.5h750l141.2 -376.6c4.9 .8 10 1.6 15.1 1.6 51.7 0 93.7 -42 93.7 -93.7S1208 250 1156.3 250z"/></svg>