
  <svg height="1000" width="1250.0" xmlns="http://www.w3.org/2000/svg">
    <path d="m1062.5 62.5c103.6 0 187.5 56 187.5 125l-187.5 31.3v156.2c0 170.4-113.8 314.1-269.5 359.6l80.6 217.9c4.4 12.1-1.9 25.6-14 30l-44.1 16.1c-12.1 4.4-25.6-1.9-30-14l-86.9-235.2c-3.8 0.1-7.4 0.6-11.1 0.6h-76.3l74.9 202.5c4.4 12.2-1.9 25.6-14 30l-44.1 16.1c-12.1 4.4-25.6-1.9-30-14l-86.8-234.6h-188.4l-237.4 118.7c-39.2 19.6-85.4-8.9-85.4-52.8 0-19.3 9.3-36.4 23.6-47.2l726.4-571.5v-41c0-86.2 70-156.2 156.2-156.2 51 0 95.8 24.8 124.3 62.5h32z m-156.2 140.6c25.8 0 46.8-21 46.8-46.8 0-25.9-21-46.9-46.8-46.9s-46.9 21-46.9 46.9c0 25.8 21 46.8 46.9 46.8z" />
  </svg>
