
  <svg height="1000" width="1000.0" xmlns="http://www.w3.org/2000/svg">
    <path d="m990.8 362.7c5.6 5.7 9.1 13.5 9.1 22 0 8.7-3.5 16.5-9.2 22.2l-44.2 44.2c-5.6 5.6-13.4 9.1-22.1 9.1s-16.4-3.5-22.1-9.1l-353.5-353.6c-5.6-5.6-9.1-13.4-9.1-22.1s3.5-16.4 9.1-22.1l44.3-44.1c5.7-5.7 13.5-9.2 22.1-9.2 8.7 0 16.5 3.5 22.1 9.2z m-350.6 129.7l107.6-107.6 88.4 88.4-214.2 214.2c-24.4 24.4-55.7 42.1-90.5 50.1l-234.8 54.2-199.2 199.2c-5.7 5.7-13.5 9.2-22.1 9.2s-16.5-3.5-22.1-9.2l-44.2-44.2c-5.7-5.6-9.2-13.4-9.2-22.1s3.5-16.4 9.2-22.1l199.2-199.2 54.2-234.9c8-34.7 25.7-66 50.1-90.4l214.2-214.2 88.4 88.4-107.6 107.6z m-106.6 106.6l18.2-18.2-132.6-132.6-18.2 18.2c-8.1 8.2-14 18.6-16.7 30.2l-35.8 154.9 154.9-35.8c11.6-2.7 22-8.6 30.2-16.7z" />
  </svg>
