<svg height="1000" width="1000" xmlns="http://www.w3.org/2000/svg"><path d="M954.3 488.7L765.6 418V206.1c0 -29.3 -18.1 -55.5 -45.7 -65.9L524.6 67c-15.8 -6.1 -33.4 -6.1 -49.4 0l-195.3 73.2c-27.6 10.4 -45.7 36.6 -45.7 65.9V418L45.5 488.7C18.2 499 0 525.2 0 554.5v215c0 26.6 15 51 38.9 62.9l195.3 97.7c19.7 9.9 43.1 9.9 62.9 0L500 828.5l202.9 101.6c19.8 9.9 43.2 9.9 62.9 0l195.3 -97.7C985 820.5 1000 796.1 1000 769.5v-215c0 -29.3 -18.2 -55.5 -45.7 -65.8zM699.2 419.5l-166 62.3V348.6l166 -72.2v143.1zM300.8 203.3L500 128.7l199.2 74.6v1.2L500 285.4 300.8 204.5v-1.2zm164 568.6l-166 83V700.4l166 -75.8v147.3zm0 -218.8L265.6 634 66.4 553.1V552l199.2 -74.7L464.8 552v1.1zm468.8 218.8l-166 83V700.4l166 -75.8v147.3zm0 -218.8L734.4 634 535.2 553.1V552l199.2 -74.7L933.6 552v1.1z"/></svg>