
  <svg height="1000" width="1000.0" xmlns="http://www.w3.org/2000/svg">
    <path d="m954.3 488.7c27.5 10.3 45.7 36.5 45.7 65.8v215c0 26.6-15 51-38.9 62.9l-195.3 97.7c-19.7 9.9-43.1 9.9-62.9 0l-202.9-101.6-202.9 101.6c-19.8 9.9-43.2 9.9-62.9 0l-195.3-97.7c-23.9-11.9-38.9-36.3-38.9-62.9v-215c0-29.3 18.2-55.5 45.5-65.8l188.7-70.7v-211.9c0-29.3 18.1-55.5 45.7-65.9l195.3-73.2c16-6.1 33.6-6.1 49.4 0l195.3 73.2c27.6 10.4 45.7 36.6 45.7 65.9v211.9z m-255.1-69.2v-143.1l-166 72.2v133.2z m-398.4-216.2v1.2l199.2 80.9 199.2-80.9v-1.2l-199.2-74.6z m164 568.6v-147.3l-166 75.8v154.5z m0-218.8v-1.1l-199.2-74.7-199.2 74.7v1.1l199.2 80.9z m468.8 218.8v-147.3l-166 75.8v154.5z m0-218.8v-1.1l-199.2-74.7-199.2 74.7v1.1l199.2 80.9z" />
  </svg>
