
  <svg height="1000" width="875.0" xmlns="http://www.w3.org/2000/svg">
    <path d="m543.1 500l325 325.1c9.2 9.1 9.2 24 0 33.1-64 64.1-167.9 64.1-232 0l-225.6-225.6-48.5 48.5c8.4 21.4 13 44.6 13 68.9 0 103.6-83.9 187.5-187.5 187.5s-187.5-83.9-187.5-187.5 83.9-187.5 187.5-187.5c8.8 0 17.6 0.6 26.1 1.8l64.3-64.3-64.3-64.3c-8.5 1.2-17.2 1.8-26.1 1.8-103.6 0-187.5-83.9-187.5-187.5s83.9-187.5 187.5-187.5 187.5 83.9 187.5 187.5c0 24.3-4.6 47.5-13 68.9l48.5 48.5 225.6-225.6c64.1-64.1 168-64.1 232 0 9.2 9.1 9.2 24 0 33.1z m-355.6-187.5c34.5 0 62.5-28 62.5-62.5s-28-62.5-62.5-62.5-62.5 28-62.5 62.5 28 62.5 62.5 62.5z m0 500c34.5 0 62.5-28 62.5-62.5s-28-62.5-62.5-62.5-62.5 28-62.5 62.5 28 62.5 62.5 62.5z" />
  </svg>
