<svg height="1000" width="875" xmlns="http://www.w3.org/2000/svg"><path d="M543.1 500l325 -325.1c9.2 -9.1 9.2 -24 0 -33.1 -64 -64.1 -167.9 -64.1 -232 0L410.5 367.4 362 318.9c8.4 -21.4 13 -44.6 13 -68.9C375 146.4 291.1 62.5 187.5 62.5S0 146.4 0 250s83.9 187.5 187.5 187.5c8.9 0 17.6 -.6 26.1 -1.8l64.3 64.3 -64.3 64.3c-8.5 -1.2 -17.3 -1.8 -26.1 -1.8C83.9 562.5 0 646.4 0 750s83.9 187.5 187.5 187.5S375 853.6 375 750c0 -24.3 -4.6 -47.5 -13 -68.9l48.5 -48.5 225.6 225.6c64.1 64.1 168 64.1 232 0 9.2 -9.1 9.2 -24 0 -33.1L543.1 500zM187.5 312.5C153 312.5 125 284.5 125 250s28 -62.5 62.5 -62.5 62.5 28 62.5 62.5 -28 62.5 -62.5 62.5zm0 500C153 812.5 125 784.5 125 750s28 -62.5 62.5 -62.5 62.5 28 62.5 62.5 -28 62.5 -62.5 62.5z"/></svg>