<svg height="1000" width="1000.7" xmlns="http://www.w3.org/2000/svg"><path d="M977.2 0h-92.6c-13.4 0 -24 11.2 -23.4 24.6l7.7 161.6C780.1 81.8 647.8 15.6 500 15.6 233.1 15.6 15.4 233.4 15.6 500.4c.2 267.3 217 484 484.4 484 124.9 0 238.7 -47.3 324.6 -124.8 10 -9.1 10.4 -24.6 .9 -34.1l-66.3 -66.3c-8.8 -8.8 -22.8 -9.3 -32 -1.1C666.6 811.4 587.1 843.8 500 843.8 310 843.8 156.3 690 156.3 500S310 156.3 500 156.3c118.9 0 223.6 60.2 285.3 151.9l-198.2 -9.5c-13.4 -.6 -24.6 10 -24.6 23.4v92.6c0 13 10.5 23.4 23.4 23.4h391.3c13 0 23.5 -10.4 23.5 -23.4V23.4C1000.7 10.5 990.2 0 977.2 0z"/></svg>