
  <svg height="1000" width="1000.0" xmlns="http://www.w3.org/2000/svg">
    <path d="m421.9 507.8c0 30.2-24.5 54.7-54.7 54.7s-54.7-24.5-54.7-54.7c0-86.1 70.1-156.2 156.3-156.2s156.2 70.1 156.2 156.2c0 30.2-24.5 54.7-54.7 54.7s-54.7-24.5-54.7-54.7c0-25.8-21-46.9-46.8-46.9s-46.9 21.1-46.9 46.9z m46.9-343.7c189.5 0 343.7 154.2 343.7 343.7 0 187.5-139.5 214.5-140.6 281.7-0.3 116.1-94.8 210.5-211 210.5-30.2 0-54.6-24.5-54.6-54.7s24.4-54.7 54.6-54.7c56 0 101.6-45.5 101.6-101.5l0-0.8c1.9-143.2 140.6-133.7 140.6-280.5 0-129.2-105.1-234.4-234.3-234.4s-234.4 105.2-234.4 234.4c0 30.2-24.5 54.7-54.7 54.7s-54.7-24.5-54.7-54.7c0-189.5 154.2-343.7 343.8-343.7z m524.3-102c9.2 9.2 9.2 24 0 33.2l-169.9 169.9c-9.2 9.2-24 9.2-33.2 0l-55.2-55.2c-9.2-9.2-9.2-24 0-33.2l169.9-169.9c9.2-9.2 24-9.2 33.2 0z m-663.1 552.6l55.3 55.3c9.1 9.1 9.1 24 0 33.1l-290 290c-9.2 9.2-24 9.2-33.2 0l-55.2-55.2c-9.2-9.2-9.2-24 0-33.2l290-290c9.1-9.1 24-9.1 33.1 0z" />
  </svg>
