
  <svg height="1000" width="1250.0" xmlns="http://www.w3.org/2000/svg">
    <path d="m1244.7 501.8c9.6 14.4 5.7 33.7-8.6 43.5l-51.9 34.6c-14.5 9.6-33.8 5.8-43.4-8.6-42.6-63.9-46.7-74.4-78.3-98.3v152h-687.5l-105.5-210.9-74.4 67.5c-11.7 11.8-27.5 18.4-44.1 18.4h-60.6c-23.6 0-45.3-13.5-55.8-34.6l-28-55.8c-10.5-21.1-8.4-46.5 5.9-65.5l145.7-193.9c3.3-4.5 8.2-7.2 12.5-10.6-7.8-4.2-15.6-8.2-22.1-14.6-32-32-35.9-81.6-11.9-118 5.5-8.2 17.2-9.3 24.2-2.3l83.8 83.6 81.7-81.7c8.6-8.6 23-7.2 29.7 3 29.4 44.5 24.6 105-14.7 144.3l158.6 158.6h460.2c99.2 0 191.2 49.2 246.2 131.8z m-666.2-26.6c5.9-5.7 2.7-15.4-5.1-16.6l-44.5-6.5-19.9-40.4c-3.7-7.2-14.1-7.2-17.6 0l-19.9 40.4-44.5 6.5c-8.1 1.2-11.4 10.9-5.5 16.6l32.2 31.4-7.6 44.4c-1.4 8 7 14 14.1 10.3l39.8-20.9 39.8 20.9c7.1 3.7 15.5-2.3 14.1-10.3l-7.6-44.4z m218.8 0c5.8-5.7 2.7-15.4-5.1-16.6l-44.5-6.5-20-40.4c-3.7-7.2-14-7.2-17.5 0l-20 40.4-44.5 6.5c-8 1.2-11.3 10.9-5.5 16.6l32.3 31.4-7.7 44.4c-1.3 8 7.1 14 14.1 10.3l39.8-20.9 39.9 20.9c7 3.7 15.4-2.3 14.1-10.3l-7.7-44.4z m218.7 0c5.9-5.7 2.7-15.4-5.1-16.6l-44.5-6.5-19.9-40.4c-3.7-7.2-14.1-7.2-17.6 0l-19.9 40.4-44.5 6.5c-8.1 1.2-11.4 10.9-5.5 16.6l32.2 31.4-7.6 44.4c-1.4 8 7 14 14.1 10.3l39.8-20.9 39.8 20.9c7.1 3.7 15.5-2.3 14.1-10.3l-7.6-44.4z m-641 493.6v-281.3h687.5v281.3c0 17.1-14.1 31.2-31.2 31.2h-125c-17.2 0-31.3-14.1-31.3-31.2v-156.3h-312.5v156.3c0 17.1-14.1 31.2-31.2 31.2h-125c-17.2 0-31.3-14.1-31.3-31.2z" />
  </svg>
