
  <svg height="1000" width="1250.0" xmlns="http://www.w3.org/2000/svg">
    <path d="m968.8 500c-17.2 0-31.3-14.1-31.3-31.2s14.1-31.3 31.3-31.3 31.2 14.1 31.2 31.3-14.1 31.2-31.2 31.2z m-343.8-156.2c-94.7 0-171.9-77.2-171.9-171.9s77.2-171.9 171.9-171.9 171.9 77.1 171.9 171.9-77.2 171.9-171.9 171.9z m-508.2 367.1l-34.6-52.1c-17.2-26-14.8-67.6 19.6-88.1 14.4-8.6 34.1-19.5 56-31.2 61.7 53.3 154.3 8.2 154.7-70.4 92-34.5 201.2-62.9 312.5-62.9 88.1 0 174.4 18 252.3 42.6-22.8 103.3 116.4 158.6 171.3 68.6 41.8 20.3 76.6 39.6 99.8 53.5 34.4 20.5 36.8 62.3 19.6 88.1l-34.8 52.1c-19.9 29.5-57.2 34.8-83.8 19.2-31.6-18.8-109.8-62.1-205.7-94.9v177.1h-437.5v-177.3c-95.8 33-174 76.1-205.6 94.9-26.6 15.6-63.9 10.7-83.8-19.2z m602-39c-26 0-46.9 20.9-46.9 46.9s20.9 46.8 46.9 46.8 46.8-20.9 46.8-46.8-20.9-46.9-46.8-46.9z m-187.5-187.5c-26 0-46.9 20.9-46.9 46.9s20.9 46.8 46.9 46.8 46.8-20.9 46.8-46.8-20.9-46.9-46.8-46.9z m-312.5 15.6c-17.2 0-31.3-14.1-31.3-31.2s14.1-31.3 31.3-31.3 31.2 14.1 31.2 31.3-14.1 31.2-31.2 31.2z m1000 375c17.1 0 31.2 14.1 31.2 31.3v62.5c0 17.1-14.1 31.2-31.2 31.2h-1187.5c-17.2 0-31.3-14.1-31.3-31.2v-62.5c0-17.2 14.1-31.3 31.3-31.3h1187.5z" />
  </svg>
