<svg height="1000" width="1250" xmlns="http://www.w3.org/2000/svg"><path d="M968.8 500c17.1 0 31.2 -14.1 31.2 -31.2s-14.1 -31.3 -31.2 -31.3 -31.3 14.1 -31.3 31.3 14.1 31.2 31.3 31.2zM625 343.8c94.7 0 171.9 -77.2 171.9 -171.9S719.7 0 625 0 453.1 77.1 453.1 171.9 530.3 343.8 625 343.8zM116.8 710.9c19.9 29.9 57.2 34.8 83.8 19.2 31.6 -18.8 109.8 -61.9 205.7 -94.9v177.3h437.5V635.4c95.8 32.8 174 76.1 205.6 94.9 26.6 15.6 63.9 10.3 83.8 -19.2L1168 659c17.2 -25.8 14.8 -67.6 -19.6 -88.1 -23.2 -13.9 -58 -33.2 -99.8 -53.5 -54.9 90 -194.1 34.7 -171.3 -68.6C799.4 424.2 713.1 406.3 625 406.3c-111.3 0 -220.5 28.3 -312.5 62.8 -.4 78.6 -93 123.7 -154.7 70.4 -21.9 11.7 -41.6 22.6 -56 31.2C67.4 591.2 65 632.8 82.2 658.8l34.6 52.1zm602 -39c25.9 0 46.8 20.9 46.8 46.9s-20.9 46.8 -46.8 46.8 -46.9 -20.9 -46.9 -46.8 20.9 -46.9 46.9 -46.9zM531.3 484.4c25.9 0 46.8 20.9 46.8 46.9s-20.9 46.8 -46.8 46.8 -46.9 -20.9 -46.9 -46.8 20.9 -46.9 46.9 -46.9zM218.8 500c17.1 0 31.2 -14.1 31.2 -31.2s-14.1 -31.3 -31.2 -31.3 -31.3 14.1 -31.3 31.3 14.1 31.2 31.3 31.2zm1000 375H31.3C14.1 875 0 889.1 0 906.3v62.5c0 17.1 14.1 31.2 31.3 31.2h1187.5c17.1 0 31.2 -14.1 31.2 -31.2v-62.5c0 -17.2 -14.1 -31.3 -31.2 -31.3z"/></svg>