<svg height="1000" width="875" xmlns="http://www.w3.org/2000/svg"><path d="M750 62.5H125c-69 0 -125 56 -125 125v625c0 69 56 125 125 125h625c69 0 125 -56 125 -125v-625c0 -69 -56 -125 -125 -125zM250 750c-34.5 0 -62.5 -28 -62.5 -62.5S215.5 625 250 625s62.5 28 62.5 62.5S284.5 750 250 750zm0 -187.5c-34.5 0 -62.5 -28 -62.5 -62.5s28 -62.5 62.5 -62.5 62.5 28 62.5 62.5 -28 62.5 -62.5 62.5zM250 375c-34.5 0 -62.5 -28 -62.5 -62.5S215.5 250 250 250s62.5 28 62.5 62.5S284.5 375 250 375zm375 375c-34.5 0 -62.5 -28 -62.5 -62.5S590.5 625 625 625s62.5 28 62.5 62.5S659.5 750 625 750zm0 -187.5c-34.5 0 -62.5 -28 -62.5 -62.5s28 -62.5 62.5 -62.5 62.5 28 62.5 62.5 -28 62.5 -62.5 62.5zM625 375c-34.5 0 -62.5 -28 -62.5 -62.5S590.5 250 625 250s62.5 28 62.5 62.5S659.5 375 625 375z"/></svg>