
  <svg height="1000" width="1250.0" xmlns="http://www.w3.org/2000/svg">
    <path d="m1156.3 375c51.7 0 93.7 42 93.7 93.8v437.5c0 51.7-42 93.7-93.7 93.7h-437.5c-51.8 0-93.8-42-93.8-93.7v-90.7l266.1-266.1c47.1-47.2 58-116.7 33.2-174.5h232z m-218.8 359.4c25.9 0 46.9-21 46.9-46.9 0-25.9-21-46.9-46.9-46.9s-46.9 21-46.9 46.9c0 25.9 21 46.9 46.9 46.9z m-90.6-364.7c37.5 37.4 37.5 98.1 0 135.6l-341.6 341.6c-37.5 37.5-98.2 37.5-135.6 0l-341.6-341.6c-37.5-37.5-37.5-98.1 0-135.6l341.6-341.6c37.5-37.5 98.2-37.5 135.6 0z m-659.4 114.7c25.9 0 46.9-21 46.9-46.9 0-25.9-21-46.9-46.9-46.9s-46.9 21-46.9 46.9c0 25.9 21 46.9 46.9 46.9z m250 250c25.9 0 46.9-21 46.9-46.9 0-25.9-21-46.9-46.9-46.9s-46.9 21-46.9 46.9c0 25.9 21 46.9 46.9 46.9z m0-250c25.9 0 46.9-21 46.9-46.9 0-25.9-21-46.9-46.9-46.9s-46.9 21-46.9 46.9c0 25.9 21 46.9 46.9 46.9z m0-250c25.9 0 46.9-21 46.9-46.9 0-25.9-21-46.9-46.9-46.9s-46.9 21-46.9 46.9c0 25.9 21 46.9 46.9 46.9z m250 250c25.9 0 46.9-21 46.9-46.9 0-25.9-21-46.9-46.9-46.9s-46.9 21-46.9 46.9c0 25.9 21 46.9 46.9 46.9z" />
  </svg>
