
  <svg height="1000" width="937.5" xmlns="http://www.w3.org/2000/svg">
    <path d="m208.5 420l212.2 371.3-406.8-43.1c-11.4-1.2-17.6-13.9-11.6-23.7z m-194 196.1c-4.2 6.7-14.5 3.8-14.5-4.1v-318c0-6.1 6.6-9.8 11.8-6.7l149.7 89.8z m21.1 211.2c-7.8-3.8-4.3-15.7 4.3-14.7l397.6 43.5v128.3c0 11.4-11.8 18.9-22.2 14.2z m158.7-503.4l-159.3-95.1c-4.9-3-5-10.1-0.2-13.3l294.5-192.6c14.1-8 29.6 8 21.1 21.8z m274.5 19.9h-213.4l186.7-328.9c6.1-9.9 16.4-14.9 26.7-14.9s20.5 5 26.6 14.9l186.7 328.9h-213.3z m456.9-56.5c5.2-3.1 11.8 0.6 11.8 6.7v318c0 7.9-10.4 10.8-14.5 4.1l-147-239z m-182.5 36.6l-156.1-279.2c-8.5-13.8 7-29.8 21.1-21.8l294.5 192.6c4.8 3.2 4.7 10.3-0.2 13.3z m154.4 488.7c8.7-1 12.1 10.9 4.3 14.7l-379.7 171.2c-10.4 4.8-22.2-2.7-22.2-14.1v-128.3z m-168.6-392.6l206.2 304.5c6 9.8-0.2 22.5-11.6 23.7l-406.8 43.1z m-260.2-13.7h196.1l-196.1 343.2-196.2-343.2h196.2z" />
  </svg>
