<svg height="1000" width="1250" xmlns="http://www.w3.org/2000/svg"><path d="M1156.3 375h-232c24.8 57.8 13.9 127.3 -33.2 174.5L625 815.6v90.7c0 51.7 42 93.7 93.8 93.7h437.5c51.7 0 93.7 -42 93.7 -93.7V468.8C1250 417 1208 375 1156.3 375zM937.5 734.4c-25.9 0 -46.9 -21 -46.9 -46.9s21 -46.9 46.9 -46.9 46.9 21 46.9 46.9 -21 46.9 -46.9 46.9zM846.9 369.7L505.3 28.1c-37.4 -37.5 -98.1 -37.5 -135.6 0L28.1 369.7c-37.5 37.4 -37.5 98.1 0 135.6l341.6 341.6c37.4 37.5 98.1 37.5 135.6 0L846.9 505.3c37.5 -37.5 37.5 -98.2 0 -135.6zM187.5 484.4c-25.9 0 -46.9 -21 -46.9 -46.9s21 -46.9 46.9 -46.9 46.9 21 46.9 46.9 -21 46.9 -46.9 46.9zm250 250c-25.9 0 -46.9 -21 -46.9 -46.9s21 -46.9 46.9 -46.9 46.9 21 46.9 46.9 -21 46.9 -46.9 46.9zm0 -250c-25.9 0 -46.9 -21 -46.9 -46.9s21 -46.9 46.9 -46.9 46.9 21 46.9 46.9 -21 46.9 -46.9 46.9zm0 -250c-25.9 0 -46.9 -21 -46.9 -46.9s21 -46.9 46.9 -46.9 46.9 21 46.9 46.9 -21 46.9 -46.9 46.9zm250 250c-25.9 0 -46.9 -21 -46.9 -46.9s21 -46.9 46.9 -46.9 46.9 21 46.9 46.9 -21 46.9 -46.9 46.9z"/></svg>