
  <svg height="1000" width="1250.0" xmlns="http://www.w3.org/2000/svg">
    <path d="m1187.5 187.5c34.5 0 62.5 28 62.5 62.5v500c0 34.5-28 62.5-62.5 62.5h-1125c-34.5 0-62.5-28-62.5-62.5v-500c0-34.5 28-62.5 62.5-62.5h1125z m-593.7 500v-15.6c0-8.7-7-15.6-15.7-15.6h-437.5c-8.6 0-15.6 6.9-15.6 15.6v15.6c0 8.6 7 15.6 15.6 15.6h437.5c8.7 0 15.7-7 15.7-15.6z m-453.2-125c0 8.6 7 15.6 15.7 15.6h31.2c8.6 0 15.6-7 15.6-15.6v-31.2c0-8.7-7-15.7-15.6-15.7h-31.2c-8.7 0-15.7 7-15.7 15.7v31.2z m125 0c0 8.6 7 15.6 15.7 15.6h31.2c8.6 0 15.6-7 15.6-15.6v-31.2c0-8.7-7-15.7-15.6-15.7h-31.2c-8.7 0-15.7 7-15.7 15.7v31.2z m125 0c0 8.6 7 15.6 15.7 15.6h31.2c8.6 0 15.6-7 15.6-15.6v-31.2c0-8.7-7-15.7-15.6-15.7h-31.2c-8.7 0-15.7 7-15.7 15.7v31.2z m125 0c0 8.6 7 15.6 15.7 15.6h31.2c8.6 0 15.6-7 15.6-15.6v-31.2c0-8.7-7-15.7-15.6-15.7h-31.2c-8.7 0-15.7 7-15.7 15.7v31.2z m78.2-125v-93.7c0-17.3-14-31.3-31.3-31.3h-406.2c-17.3 0-31.3 14-31.3 31.3v93.7c0 17.3 14 31.3 31.3 31.3h406.2c17.3 0 31.3-14 31.3-31.3z m531.2 250v-15.6c0-8.7-7-15.6-15.6-15.6h-437.5c-8.7 0-15.6 6.9-15.6 15.6v15.6c0 8.6 6.9 15.6 15.6 15.6h437.5c8.6 0 15.6-7 15.6-15.6z" />
  </svg>
