<svg height="1000" width="1000" xmlns="http://www.w3.org/2000/svg"><path d="M981.7 455.7L544.3 18.3c-24.5 -24.4 -64.1 -24.4 -88.6 0L18.3 455.7c-24.4 24.5 -24.4 64.1 0 88.6l437.4 437.4c24.5 24.4 64.1 24.4 88.6 0L981.7 544.3c24.4 -24.5 24.4 -64.1 0 -88.6zm-197.3 24.5L620 632.1c-10 9.2 -26.3 2.1 -26.3 -11.5v-105H406.2v125c0 8.7 -7 15.7 -15.6 15.7h-62.5c-8.6 0 -15.6 -7 -15.6 -15.7V484.4c0 -34.5 28 -62.5 62.5 -62.5h218.7v-105c0 -13.6 16.2 -20.7 26.3 -11.5l164.4 151.9c6.7 6.2 6.7 16.7 0 22.9z"/></svg>