
  <svg height="1000" width="1000.0" xmlns="http://www.w3.org/2000/svg">
    <path d="m922.4 382.6c94.8 32.5 105.2 144.2 17.6 189.1l-121.1 62c-34.8 17.8-57.2 49.2-59.8 83.9l-9.2 120.9c-6.7 87.4-127.2 130.4-204 72.7l-106.1-79.8c-30.5-22.9-72.2-31.5-111.5-22.9l-136.7 29.8c-98.9 21.6-183.8-63.6-143.5-144.1l55.6-111.3c15.9-32 12.5-68.7-9.1-98.2l-75.3-102.3c-54.5-74.2 13.7-169.8 115.3-161.8l140.4 10.9c40.4 3.2 80-10.9 105.9-37.7l90-93.2c65.3-67.4 192.2-41.3 214.8 44.2l31.3 118.1c9 33.9 36.8 61.9 74.5 74.8z m-609.9 117.4c34.5 0 62.5-28 62.5-62.5s-28-62.5-62.5-62.5-62.5 28-62.5 62.5 28 62.5 62.5 62.5z m250 187.5c34.5 0 62.5-28 62.5-62.5s-28-62.5-62.5-62.5-62.5 28-62.5 62.5 28 62.5 62.5 62.5z m31.3-250c17.2 0 31.2-14 31.2-31.2s-14-31.3-31.2-31.3-31.3 14-31.3 31.3 14 31.2 31.3 31.2z" />
  </svg>
