<svg height="1000" width="968.8" xmlns="http://www.w3.org/2000/svg"><path d="M484.4 15.6C216.8 15.6 0 232.4 0 500s216.8 484.4 484.4 484.4S968.8 767.6 968.8 500 752 15.6 484.4 15.6zM296.9 419.1l-56.1 56.1C211.9 504.1 167 460.5 196.7 431.1l56 -56.1 -56 -56.1c-29.3 -29.3 15 -73.4 44.1 -44.1l56.1 56.1 56 -56.1c29.3 -29.3 73.5 15 44.2 44.1L341 375l56.1 56.1c29.7 29.6 -15.5 73 -44.2 44.1l-56 -56.1zm187.5 393.4c-69 0 -125 -56.1 -125 -125s56 -125 125 -125 125 56.1 125 125 -56.1 125 -125 125zM772.1 431.1c29.7 29.6 -15.5 73 -44.2 44.1l-56 -56.1 -56.1 56.1C586.9 504.1 542 460.5 571.7 431.1l56 -56.1 -56 -56.1c-29.3 -29.3 15 -73.4 44.1 -44.1l56.1 56.1 56 -56.1c29.3 -29.3 73.5 15 44.2 44.1L716 375l56.1 56.1z"/></svg>