<svg height="1000" width="875" xmlns="http://www.w3.org/2000/svg"><path d="M.2 965c-2.2 18.6 12.3 34.8 31.1 34.8l63 .2c15.9 0 29.1 -11.5 31.3 -27.1 1.4 -9.6 3.5 -21.7 6.6 -35.4h610c3.1 13.5 5.7 25.8 6.8 35.4 2.2 15.6 15.5 27.3 31.3 27.1l63.1 -.2c18.7 0 33.4 -16.2 31 -34.8 -9 -74 -50 -251.9 -232.2 -405.6 -34.4 24.2 -72.5 47.2 -114.3 69.1 12.1 9 22.3 18.4 33.2 27.7H311.9c41.6 -35.3 91.8 -69.5 153.7 -100.3C801.8 388.9 863.5 128.5 874.8 35 877 16.4 862.5 .2 843.8 .2L780.5 0c-15.9 0 -29.1 11.5 -31.3 27.1 -1.3 9.6 -3.5 21.7 -6.6 35.4H132.4c-3.1 -13.7 -5.3 -25.6 -6.6 -35.4C123.6 11.5 110.4 -.2 94.5 0L31.4 .2C12.7 .2 -2 16.4 .2 35c10.2 83.8 61.1 300.5 312.3 465C61.5 664.5 10.4 881.3 .2 965zM437.5 428.9c-49 -26.8 -90.6 -55.5 -125.6 -85.1h251c-34.8 29.6 -76.4 58.5 -125.4 85.1zM693.6 187.5c-11.4 20.3 -25 41.2 -41.1 62.5H222.7c-16.3 -21.3 -29.9 -42.2 -41.1 -62.5h512zm-512.2 625c11.4 -20.3 25 -41.2 41.1 -62.5H651c16.2 21.3 30.1 42.2 41.4 62.5h-511z"/></svg>