
  <svg height="1000" width="875.0" xmlns="http://www.w3.org/2000/svg">
    <path d="m0.2 965c10.2-83.7 61.3-300.5 312.3-465-251.2-164.5-302.1-381.3-312.3-465-2.2-18.6 12.5-34.8 31.2-34.8l63.1-0.2c15.9-0.2 29.1 11.5 31.3 27.1 1.3 9.8 3.5 21.7 6.6 35.4h610.2c3.1-13.7 5.3-25.8 6.6-35.4 2.2-15.6 15.4-27.1 31.3-27.1l63.2 0.2c18.8 0 33.3 16.2 31.1 34.8-11.3 93.5-73 353.9-409.2 520.9-61.9 30.8-112.1 65-153.7 100.3h249.2c-10.9-9.3-21.1-18.7-33.2-27.7 41.8-21.9 79.9-44.9 114.3-69.1 182.2 153.7 223.2 331.6 232.2 405.6 2.4 18.6-12.3 34.8-31 34.8l-63.1 0.2c-15.8 0.2-29.1-11.5-31.3-27.2-1.1-9.5-3.7-21.8-6.8-35.3h-610c-3.1 13.7-5.2 25.8-6.6 35.3-2.2 15.7-15.4 27.2-31.3 27.2l-63.1-0.2c-18.7 0-33.2-16.2-31-34.8z m437.3-536.1c49-26.6 90.6-55.5 125.4-85.1h-251c35 29.6 76.6 58.3 125.6 85.1z m256.1-241.4h-512c11.2 20.3 24.8 41.2 41.1 62.5h429.8c16.1-21.3 29.7-42.2 41.1-62.5z m-512.2 625h511c-11.3-20.3-25.2-41.2-41.4-62.5h-428.5c-16.1 21.3-29.7 42.2-41.1 62.5z" />
  </svg>
