<svg height="1000" width="750" xmlns="http://www.w3.org/2000/svg"><path d="M437.5 265.6V0H46.9C20.9 0 0 20.9 0 46.9v906.2c0 26 20.9 46.9 46.9 46.9h656.2c26 0 46.9 -20.9 46.9 -46.9V312.5H484.4c-25.8 0 -46.9 -21.1 -46.9 -46.9zm125 461c0 12.9 -10.5 23.4 -23.4 23.4H210.9c-12.9 0 -23.4 -10.5 -23.4 -23.4v-15.7c0 -12.9 10.5 -23.4 23.4 -23.4h328.2c12.9 0 23.4 10.5 23.4 23.4v15.7zm0 -125c0 12.9 -10.5 23.4 -23.4 23.4H210.9c-12.9 0 -23.4 -10.5 -23.4 -23.4v-15.7c0 -12.9 10.5 -23.4 23.4 -23.4h328.2c12.9 0 23.4 10.5 23.4 23.4v15.7zm0 -140.7v15.7c0 12.9 -10.5 23.4 -23.4 23.4H210.9c-12.9 0 -23.4 -10.5 -23.4 -23.4v-15.7c0 -12.9 10.5 -23.4 23.4 -23.4h328.2c12.9 0 23.4 10.5 23.4 23.4zM750 238.1V250H500V0h11.9c12.5 0 24.4 4.9 33.2 13.7l191.2 191.4c8.8 8.8 13.7 20.7 13.7 33z"/></svg>