
  <svg height="1000" width="1125.0" xmlns="http://www.w3.org/2000/svg">
    <path d="m582.1 437.5l292.9 104.6v426.6c0 17.3-14 31.3-31.2 31.3h-125c-17.3 0-31.3-14-31.3-31.3v-218.7h-312.5v218.7c0 17.3-14 31.3-31.2 31.3h-125c-17.3 0-31.3-14-31.3-31.3v-417.7c-72.6-25.9-125-94.6-125-176 0-34.5 28-62.5 62.5-62.5s62.5 28 62.5 62.5c0.1 34.5 28 62.4 62.5 62.5h332.1z m480.4-218.7v62.5c0 68.9-56 125-125 125h-62.5v69.4l-250-89.2v-292.7c0-27.9 33.6-41.8 53.3-22.1l53.3 53.3h104.8c21.3 0 46.4 15.5 55.9 34.6l14 27.9h125c17.2 0 31.2 14 31.2 31.3z m-218.7 0c0-17.3-14.1-31.3-31.3-31.3s-31.2 14-31.2 31.3 14 31.2 31.2 31.2 31.3-14 31.3-31.2z" />
  </svg>
