
  <svg height="1000" width="1250.0" xmlns="http://www.w3.org/2000/svg">
    <path d="m406.3 625c-17.2 0-31.3-14.1-31.3-31.2v-500c0-17.2 14.1-31.3 31.3-31.3h281.2v250l93.8-62.5 93.7 62.5v-250h281.3c17.1 0 31.2 14.1 31.2 31.3v500c0 17.1-14.1 31.2-31.2 31.2h-750z m812.5 125c17.1 0 31.2 14.1 31.2 31.3v62.5c0 17.1-14.1 31.2-31.2 31.2h-161.8c3.4 9.8 5.7 20.3 5.7 31.3 0 51.7-42 93.7-93.8 93.7s-93.7-42-93.7-93.7c0-11 2.1-21.5 5.7-31.3h-386.6c3.4 9.8 5.7 20.3 5.7 31.3 0 51.7-42 93.7-93.7 93.7s-93.8-42-93.8-93.7c0-11 2.1-21.5 5.7-31.3h-161.9c-17.2 0-31.3-14.1-31.3-31.2v-718.8h-93.7c-17.2 0-31.3-14.1-31.3-31.2v-62.5c0-17.2 14.1-31.3 31.3-31.3h187.5c17.1 0 31.2 14.1 31.2 31.3v718.7h968.8z" />
  </svg>
