
  <svg height="1000" width="562.5" xmlns="http://www.w3.org/2000/svg">
    <path d="m408.6 455.9c113.1 33 183.6 156.4 141.6 276.7-30.1 86.1-115.4 140.3-206.4 142v94.1c0 17.2-14.1 31.3-31.3 31.3h-62.5c-17.2 0-31.2-14.1-31.2-31.3v-93.7c-61.4-0.2-121.1-21.1-169-58.6-15.4-11.9-17.4-34.4-3.5-47.8l68-66.5c10.1-9.9 26.1-11.9 38-3.9 19.6 13.3 43 20.5 66.8 20.5h129.5c31.9 0 57.7-25.7 57.7-57.6 0-25.4-17-48-41.5-55.2l-200.2-58.6c-86.7-25.4-155.4-98.7-163.6-188.7-11.5-126.8 88.5-233.6 212.9-233.6h4.8v-93.8c0-17.1 14.1-31.2 31.3-31.2h62.5c17.2 0 31.3 14.1 31.3 31.2v93.8c61.3 0.2 121 21.1 168.9 58.6 15.4 11.9 17.4 34.4 3.5 47.8l-68 66.4c-10.1 10-26.1 12-38 4-19.6-13.3-43-20.6-66.8-20.6h-129.5c-31.9 0-57.7 25.8-57.7 57.7 0 25.4 17 48.2 41.5 55.2z" />
  </svg>
