<svg height="1000" width="562.5" xmlns="http://www.w3.org/2000/svg"><path d="M408.6 455.9L197.7 394.1c-24.5 -7 -41.4 -29.8 -41.4 -55.2 0 -31.9 25.7 -57.6 57.6 -57.6h129.5c23.8 0 47.2 7.2 66.8 20.5 11.9 8 27.9 6 38 -3.9l68 -66.5c13.9 -13.4 11.9 -35.9 -3.5 -47.8C464.8 146.1 405.1 125.2 343.8 125V31.3C343.8 14.1 329.7 0 312.5 0H250c-17.2 0 -31.2 14.1 -31.2 31.3V125h-4.9C89.5 125 -10.5 231.8 1 358.6c8.2 90 76.9 163.3 163.6 188.7l200.2 58.6c24.5 7.2 41.5 29.8 41.5 55.2 0 31.9 -25.8 57.7 -57.7 57.7H219.1c-23.8 0 -47.2 -7.3 -66.8 -20.6 -11.9 -8 -27.9 -6 -38 3.9l-68 66.5c-13.9 13.4 -11.9 35.9 3.5 47.8 47.9 37.5 107.6 58.4 169 58.6v93.8c0 17.1 14 31.2 31.2 31.2h62.5c17.2 0 31.3 -14.1 31.3 -31.2v-94.2c91 -1.7 176.3 -55.8 206.4 -142C592.2 612.3 521.7 488.9 408.6 455.9z"/></svg>