<svg height="1000" width="1250" xmlns="http://www.w3.org/2000/svg"><path d="M406.3 625h750c17.1 0 31.2 -14.1 31.2 -31.2v-500c0 -17.2 -14.1 -31.3 -31.2 -31.3H875v250L781.3 250l-93.8 62.5v-250H406.3C389.1 62.5 375 76.6 375 93.8v500c0 17.1 14.1 31.2 31.3 31.2zm812.5 125H250V31.3C250 14.1 235.9 0 218.8 0H31.3C14.1 0 0 14.1 0 31.3v62.5C0 110.9 14.1 125 31.3 125H125v718.8c0 17.1 14.1 31.2 31.3 31.2h161.9c-3.6 9.8 -5.7 20.3 -5.7 31.3 0 51.7 42 93.7 93.8 93.7S500 958 500 906.3c0 -11 -2.3 -21.5 -5.7 -31.3h386.6c-3.6 9.8 -5.7 20.3 -5.7 31.3 0 51.7 42 93.7 93.7 93.7s93.8 -42 93.8 -93.7c0 -11 -2.3 -21.5 -5.7 -31.3h161.8c17.1 0 31.2 -14.1 31.2 -31.2v-62.5c0 -17.2 -14.1 -31.3 -31.2 -31.3z"/></svg>