<svg height="1000" width="1125" xmlns="http://www.w3.org/2000/svg"><path d="M574.6 542.4c35.2 9.7 67.8 26.2 96.7 48.2L986.7 485.5c16.4 -5.4 25.2 -23.2 19.7 -39.4L888.5 92.2C883 75.8 865.2 67 849 72.5l-119.3 39.8 64.6 194.1 -118.5 39.3L611.1 151.6l-120.3 40c-16.4 5.5 -25.2 23.2 -19.7 39.5l103.5 311.3zm548.8 95.1l-19.9 -59.4c-5.5 -16.4 -23.2 -25.2 -39.4 -19.7l-417 139.1c-33.6 -43 -85.2 -71.1 -143.6 -72.3L309.4 42.8C300.8 17.2 277 0 250 0H31.3C14.1 0 0 14.1 0 31.3v62.5C0 110.9 14.1 125 31.3 125h173.6L385 665.4c-51 39.9 -81.5 104.7 -70.4 176.8 12 76.9 74.1 141.2 151 154.7C583.2 1017.8 685 928.9 687.1 816l416.6 -139c16.2 -5.5 25.2 -23.1 19.7 -39.5zM500 906.3c-51.8 0 -93.7 -42 -93.7 -93.8s41.9 -93.7 93.7 -93.7 93.8 41.9 93.8 93.7 -42 93.8 -93.8 93.8z"/></svg>