
  <svg height="1000" width="1125.0" xmlns="http://www.w3.org/2000/svg">
    <path d="m574.6 542.4l-103.5-311.3c-5.5-16.3 3.3-34 19.7-39.5l120.3-40 64.7 194.1 118.5-39.3-64.6-194.1 119.3-39.8c16.2-5.5 34 3.3 39.5 19.7l117.9 353.9c5.5 16.2-3.3 34-19.7 39.4l-315.4 105.1c-28.9-22-61.5-38.5-96.7-48.2z m548.8 95.1c5.5 16.4-3.5 34-19.7 39.5l-416.6 139c-2.1 112.9-103.9 201.8-221.5 180.9-76.9-13.5-139-77.8-151-154.7-11.1-72.1 19.4-136.9 70.4-176.8l-180.1-540.4h-173.6c-17.2 0-31.3-14.1-31.3-31.3v-62.5c0-17.1 14.1-31.2 31.3-31.2h218.7c27 0 50.8 17.2 59.4 42.8l194.1 582.4c58.4 1.2 110 29.3 143.6 72.3l417-139.1c16.2-5.5 33.9 3.3 39.4 19.7z m-623.4 268.8c51.8 0 93.8-42 93.8-93.8s-42-93.7-93.8-93.7-93.7 41.9-93.7 93.7 41.9 93.8 93.7 93.8z" />
  </svg>
