
  <svg height="1000" width="1000.0" xmlns="http://www.w3.org/2000/svg">
    <path d="m500 812.5c-224.4 0-406.2-181.8-406.2-406.2s181.8-406.3 406.2-406.3 406.3 181.8 406.3 406.3-181.9 406.2-406.3 406.2z m-43.4-622.3c-63.8 1.8-115.2 55.5-115.4 121.9 0 54.1 35.2 102.4 85.4 117.4l121.6 36.5c13.9 4.1 23.7 18.4 23.7 34.4 0 19.7-14.3 35.7-31.9 35.7h-75.9c-12.5 0-24.3-3.3-34.8-9.9-8.8-5.5-19.9-5.3-27.3 1.9l-31.9 30.3c-9.7 9.4-8.6 25.4 2.4 33.4 24.4 18.2 53.7 28.5 83.9 30.1v33.2c0 17.9 14.5 32.4 32.5 32.4h21.6c18 0 32.5-14.5 32.5-32.4v-32.8c63.8-1.8 115.4-55.5 115.4-121.9 0-54.1-35.2-102.4-85.4-117.4l-121.6-36.5c-13.9-4.1-23.7-18.4-23.7-34.4 0-19.7 14.3-35.7 31.9-35.7h75.9c12.5 0 24.3 3.3 34.8 9.9 8.8 5.5 19.9 5.3 27.4-1.9l31.8-30.3c9.8-9.4 8.6-25.4-2.4-33.4-24.4-18.2-53.7-28.5-83.9-30.1v-33.2c0-17.9-14.5-32.4-32.5-32.4h-21.6c-18 0-32.5 14.5-32.5 32.4v32.8z m480.9 497.3c34.6 0 62.5 27.9 62.5 62.5v187.5c0 34.6-27.9 62.5-62.5 62.5h-875c-34.6 0-62.5-27.9-62.5-62.5v-187.5c0-34.6 27.9-62.5 62.5-62.5h63.3c38.5 50.8 87.1 93.2 142.6 125h-124.7c-10.3 0-18.7 7-18.7 15.6v31.3c0 8.6 8.4 15.6 18.7 15.6h712.4c10.3 0 18.7-7 18.7-15.6v-31.3c0-8.6-8.4-15.6-18.7-15.6h-124.7c55.5-31.8 104.3-74.2 142.6-125h63.5z" />
  </svg>
