<svg height="1000" width="1000" xmlns="http://www.w3.org/2000/svg"><path d="M500 812.5c224.4 0 406.3 -181.8 406.3 -406.2S724.4 0 500 0 93.8 181.8 93.8 406.3 275.6 812.5 500 812.5zM456.6 190.2v-32.8c0 -17.9 14.5 -32.4 32.5 -32.4h21.6c18 0 32.5 14.5 32.5 32.4v33.2c30.2 1.6 59.5 11.9 83.9 30.1 11 8 12.2 24 2.4 33.4l-31.8 30.3c-7.5 7.2 -18.6 7.4 -27.4 1.9 -10.5 -6.6 -22.3 -9.9 -34.8 -9.9h-75.9c-17.6 0 -31.9 16 -31.9 35.7 0 16 9.8 30.3 23.7 34.4L573 383c50.2 15 85.4 63.3 85.4 117.4 0 66.4 -51.6 120.1 -115.4 121.9v32.8c0 17.9 -14.5 32.4 -32.5 32.4h-21.6c-18 0 -32.5 -14.5 -32.5 -32.4v-33.2C426.2 620.3 396.9 610 372.5 591.8c-11 -8 -12.1 -24 -2.4 -33.4L402 528.1c7.4 -7.2 18.5 -7.4 27.3 -1.9 10.5 6.6 22.3 9.9 34.8 9.9H540c17.6 0 31.9 -16 31.9 -35.7 0 -16 -9.8 -30.3 -23.7 -34.4L426.6 429.5c-50.2 -15 -85.4 -63.3 -85.4 -117.4 .2 -66.4 51.6 -120.1 115.4 -121.9zm480.9 497.3H874c-38.3 50.8 -87.1 93.2 -142.6 125h124.7c10.3 0 18.7 7 18.7 15.6v31.3c0 8.6 -8.4 15.6 -18.7 15.6H143.8C133.4 875 125 868 125 859.4v-31.3c0 -8.6 8.4 -15.6 18.8 -15.6h124.6C212.9 780.7 164.3 738.3 125.8 687.5H62.5C27.9 687.5 0 715.4 0 750v187.5c0 34.6 27.9 62.5 62.5 62.5h875c34.6 0 62.5 -27.9 62.5 -62.5V750c0 -34.6 -27.9 -62.5 -62.5 -62.5z"/></svg>