<svg height="1000" width="1000" xmlns="http://www.w3.org/2000/svg"><path d="M562.5 326.6v-54.9C507.4 200.8 470.5 116.8 456.8 27.1 452.7 .8 419.7 -9.6 402.5 10.9c-41.2 48.7 -73.6 105.7 -95.5 169 66.8 74.8 156.3 126.2 255.5 146.7zM781.3 125C694.9 125 625 195.1 625 281.4v116.1C421.1 385.4 248 259.8 169.9 81.6 159.2 57.2 124.6 55.9 113.3 79.9 80.9 148.4 62.5 225 62.5 305.9c0 138.2 66.6 267.3 166.2 363 25.8 24.9 51 45.4 76 64.1L23.6 803.3C2.7 808.6 -6.6 832.8 5.1 851c34 52.5 117.9 141.6 299.2 149 15.6 .6 31.2 -5.1 43.2 -15.4L474.8 875H625c172.7 0 312.5 -139.6 312.5 -312.3V250L1000 125H781.3zm0 187.7c-17.2 0 -31.3 -14.1 -31.3 -31.3s14.1 -31.2 31.3 -31.2 31.2 14.1 31.2 31.2 -14.1 31.3 -31.2 31.3z"/></svg>