
  <svg height="1000" width="1000.0" xmlns="http://www.w3.org/2000/svg">
    <path d="m562.5 326.6c-99.2-20.5-188.7-71.9-255.5-146.7 21.9-63.3 54.3-120.3 95.5-169 17.2-20.5 50.2-10.1 54.3 16.2 13.7 89.7 50.6 173.7 105.7 244.6v54.9z m218.8-201.6h218.7l-62.5 125v312.7c0 172.7-139.8 312.3-312.5 312.3h-150.2l-127.3 109.6c-12 10.3-27.6 16-43.2 15.4-181.3-7.4-265.2-96.5-299.2-149-11.7-18.2-2.4-42.4 18.5-47.7l281.1-70.3c-25-18.7-50.2-39.2-76-64.1-99.6-95.7-166.2-224.8-166.2-363 0-80.9 18.4-157.5 50.8-226 11.3-24 45.9-22.7 56.6 1.7 78.1 178.2 251.2 303.8 455.1 315.9v-116.1c0-86.3 69.9-156.4 156.2-156.4z m0 187.7c17.1 0 31.2-14.1 31.2-31.3 0-17.1-14.1-31.2-31.2-31.2s-31.3 14.1-31.3 31.2c0 17.2 14.1 31.3 31.3 31.3z" />
  </svg>
