
  <svg height="1000" width="1000.0" xmlns="http://www.w3.org/2000/svg">
    <path d="m892.6 672.7l107.4 186-13.7 113.8c-2.5 20.6-24.2 33.1-43.3 25l-105.4-45-106.2-184c58.4-23.2 112.3-56.1 161.2-95.8z m83-184.7c-102.8 162.4-282.1 262-475.6 262-69.1 0-136.5-13.1-199.3-37l-138.3 239.5-105.4 45c-19.1 8.2-40.8-4.3-43.3-25l-13.7-113.8 139.2-241.1c-41.6-34.8-78.9-75-109.3-121.2-9.8-14.7-4.3-35 11-43.8l54.2-31.4c14.5-8.4 32.4-3.5 41.8 10.4 18.9 28.1 41.2 53.5 65.7 76.2l133.4-231.1c-14.5-26.6-23.5-56.7-23.5-89.2 0-103.6 83.9-187.5 187.5-187.5s187.5 83.9 187.5 187.5c0 32.5-9 62.6-23.6 89.2l101.2 175.2c-45 45.2-100.4 78-161.4 95.5l-99.7-172.8c-1.4 0-2.7 0.4-4 0.4s-2.6-0.4-4-0.4l-131.6 227.9c43.4 14.2 88.9 22.5 135.6 22.5 148.9 0 287.1-75.9 367.4-200 9.1-14 26.9-19.2 41.5-11.1l54.9 30.4c15.5 8.6 21.3 28.7 11.8 43.7z m-475.6-363c-34.5 0-62.5 28-62.5 62.5s28 62.5 62.5 62.5 62.5-28 62.5-62.5-28-62.5-62.5-62.5z" />
  </svg>
