<svg height="1000" width="1000" xmlns="http://www.w3.org/2000/svg"><path d="M892.6 672.7c-48.9 39.7 -102.8 72.6 -161.2 95.8l106.2 184 105.4 45c19.1 8.1 40.8 -4.4 43.3 -25L1000 858.7l-107.4 -186zm83 -184.7c9.5 -15 3.7 -35.1 -11.8 -43.7l-54.9 -30.4C894.3 405.8 876.5 411 867.4 425 787.1 549.1 648.9 625 500 625c-46.7 0 -92.2 -8.3 -135.6 -22.5L496 374.6c1.4 0 2.6 .4 4 .4s2.6 -.4 4 -.4l99.8 172.8c60.9 -17.5 116.3 -50.3 161.3 -95.5L663.9 276.7c14.6 -26.6 23.6 -56.7 23.6 -89.2C687.5 83.9 603.6 0 500 0S312.5 83.9 312.5 187.5c0 32.5 9 62.6 23.5 89.2L202.6 507.8c-24.5 -22.7 -46.8 -48.1 -65.7 -76.2 -9.4 -13.9 -27.3 -18.8 -41.8 -10.4l-54.2 31.4c-15.3 8.8 -20.8 29.1 -11 43.8 30.4 46.2 67.7 86.4 109.3 121.2L0 858.7l13.7 113.8c2.5 20.7 24.2 33.2 43.3 25l105.4 -45L300.7 713c62.8 23.9 130.2 37 199.3 37 193.5 0 372.8 -99.6 475.6 -262zM500 125c34.5 0 62.5 28 62.5 62.5S534.5 250 500 250s-62.5 -28 -62.5 -62.5S465.5 125 500 125z"/></svg>