
  <svg height="1000" width="1250.0" xmlns="http://www.w3.org/2000/svg">
    <path d="m35.8 499.6c-31.2 4.4-48.6-34.8-24.5-55l229.3-227.2c42.6-36.3 104-40 150.6-9l233.8 171.1v82.6c0 56.4 10.3 111.3 28.8 162.8h-435c-27.8 0-41.8-33.6-22.1-53.3l178.3-134.2z m1087.6 66.6c81.9 40.9 131.2 125.1 126.3 217.5-6.6 123.4-116.6 216.3-240.2 216.3h-974.8c-19.2 0-34.7-15.6-34.7-34.8 0-16.2 11.3-30.3 27.1-33.8 174.9-38.9 465.9-105.7 847.9-119-117.1-78.1-187.5-209.5-187.5-350.3v-212.2l-116.4-48.5c-11.5-5.8-11.5-22.2 0-28l116.4-48.5-120.4-98.3c-9.8-9.9-2.9-26.6 11.1-26.6h463.7c19.7 0 38.2 9.2 50 24.9l145.6 194.1c7.8 10.5 12.5 23.5 12.5 37.6 0 10-2.4 19.5-6.6 27.9l-28 55.9c-10.2 20.5-31.4 34.5-55.8 34.5h-60.5c-16.6 0-32.5-6.6-44.2-18.3l-54.9-44.2h-125v71.7c0 36.7 21.1 68.4 51.8 83.8z m-168-436.8c-8.4 33.5 16.7 56.6 42.1 57.9 22.7 1.3 41.7-14.3 47.1-35.6z" />
  </svg>
