
  <svg height="1000" width="875.0" xmlns="http://www.w3.org/2000/svg">
    <path d="m750 687.5c69 0 125 56 125 125 0 69-56 125-125 125-46.2 0-86-25.3-107.7-62.5h-409.6c-21.7 37.2-61.5 62.5-107.7 62.5-69 0-125-56-125-125 0-46.2 25.3-86 62.5-107.7v-409.6c-37.2-21.7-62.5-61.5-62.5-107.7 0-69 56-125 125-125 46.2 0 86 25.3 107.7 62.5h409.6c21.7-37.2 61.5-62.5 107.7-62.5 69 0 125 56 125 125s-56 125-125 125c-0.7 0-1.3-0.2-2-0.2l-76.6 127.6c10 17.9 16.1 38.2 16.1 60.1s-6.2 42.2-16.1 60.1l76.6 127.6c0.7 0 1.3-0.2 2-0.2z m-562.5 17.3c18.8 10.9 34.3 26.4 45.2 45.2h406.9l-75.1-125.2c-0.7 0-1.3 0.2-2 0.2-69 0-125-56-125-125s56-125 125-125c0.7 0 1.3 0.2 2 0.2l75.1-125.2h-406.9c-11 18.8-26.4 34.2-45.2 45.2v409.6z m343.8-204.8c0 17.2 14 31.3 31.2 31.3s31.3-14.1 31.3-31.3-14.1-31.2-31.3-31.2-31.2 14-31.2 31.2z m250-312.5c0-17.2-14.1-31.2-31.3-31.2s-31.2 14-31.2 31.2 14 31.3 31.2 31.3 31.3-14.1 31.3-31.3z m-656.3-31.2c-17.2 0-31.2 14-31.2 31.2s14 31.3 31.2 31.3 31.3-14.1 31.3-31.3-14.1-31.2-31.3-31.2z m-31.2 656.2c0 17.2 14 31.3 31.2 31.3s31.3-14.1 31.3-31.3-14.1-31.2-31.3-31.2-31.2 14-31.2 31.2z m656.2 31.3c17.2 0 31.3-14.1 31.3-31.3s-14.1-31.2-31.3-31.2-31.2 14-31.2 31.2 14 31.3 31.2 31.3z" />
  </svg>
