<svg height="1000" width="875" xmlns="http://www.w3.org/2000/svg"><path d="M750 687.5c-.7 0 -1.3 .2 -2 .2L671.4 560.1c9.9 -17.9 16.1 -38.2 16.1 -60.1s-6.1 -42.2 -16.1 -60.1L748 312.3c.7 0 1.3 .2 2 .2 69 0 125 -56 125 -125S819 62.5 750 62.5c-46.2 0 -86 25.3 -107.7 62.5H232.7C211 87.8 171.2 62.5 125 62.5c-69 0 -125 56 -125 125 0 46.2 25.3 86 62.5 107.7v409.6C25.3 726.5 0 766.3 0 812.5c0 69 56 125 125 125 46.2 0 86 -25.3 107.7 -62.5h409.6c21.7 37.2 61.5 62.5 107.7 62.5 69 0 125 -56 125 -125s-56 -125 -125 -125zm-562.5 17.3V295.2A124.7 -124.7 0 0 1 232.7 250h406.9l-75.1 125.2c-.7 0 -1.3 -.2 -2 -.2 -69 0 -125 56 -125 125s56 125 125 125c.7 0 1.3 -.2 2 -.2L639.6 750H232.7a124.5 -124.5 0 0 1 -45.2 -45.2zM531.3 500c0 -17.2 14 -31.2 31.2 -31.2s31.3 14 31.3 31.2 -14.1 31.3 -31.3 31.3S531.3 517.2 531.3 500zm250 -312.5c0 17.2 -14.1 31.3 -31.3 31.3s-31.2 -14.1 -31.2 -31.3 14 -31.2 31.2 -31.2 31.3 14 31.3 31.2zM125 156.3c17.2 0 31.3 14 31.3 31.2s-14.1 31.3 -31.3 31.3S93.8 204.7 93.8 187.5s14 -31.2 31.2 -31.2zM93.8 812.5c0 -17.2 14 -31.2 31.2 -31.2s31.3 14 31.3 31.2 -14.1 31.3 -31.3 31.3S93.8 829.7 93.8 812.5zM750 843.8c-17.2 0 -31.2 -14.1 -31.2 -31.3s14 -31.2 31.2 -31.2 31.3 14 31.3 31.2 -14.1 31.3 -31.3 31.3z"/></svg>