
  <svg height="1000" width="1000.0" xmlns="http://www.w3.org/2000/svg">
    <path d="m903.9 96.8c67 67 98.5 155.5 96 243.3-82-44.3-184.3-34.3-251.5 32.8-79.8 79.8-79.5 209.3-2 295.1-37.1 12.6-76.8 19.5-118.1 19.5-1 0-1.9 0-2.8 0h-167.8l-79.3 79.2c-19 19.1-21.6 46.9-11.7 71.8 5.4 13.5 8.4 28.4 8.4 43.8 0 65.1-52.8 117.9-117.8 117.9-32.7 0-62.2-13.3-83.6-34.8-29.8-29.8-38.3-71.2-29.5-109.5-38.3 8.7-79.7 0.3-109.6-29.5-21.3-21.3-34.5-50.7-34.5-83.3 0-65 52.8-117.8 117.9-117.8 15.4 0 30.1 2.9 43.6 8.3 24.9 9.9 52.9 7.2 71.8-11.7l79.4-79.3v-167.6c0-125 54-209 123.3-278.2 59.9-59.8 142.7-96.8 234-96.8s173.9 37 233.8 96.8z" />
  </svg>
