
  <svg height="1000" width="1000.0" xmlns="http://www.w3.org/2000/svg">
    <path d="m842.5 238.4c87.7 31.9 157.5 83.5 157.5 168.1v313c0 59.1-53.7 112.6-140.6 152.1v-199.1c0-25.8-21-46.8-46.9-46.8s-46.9 21-46.9 46.8v232.3c-64.5 17.8-138.8 29.4-218.7 32.7v-202.4c0-25.8-21-46.8-46.9-46.8s-46.9 21-46.9 46.8v202.4c-79.9-3.3-154.2-14.9-218.7-32.7v-232.3c0-25.8-21-46.8-46.9-46.8s-46.9 21-46.9 46.8v199.1c-86.9-39.5-140.6-93-140.6-152.1v-313c0-210.1 428.8-219 500-219 29.7 0 121.9 1.8 219.1 18.9l215-138.6c4.9-3.3 10.9-5.3 17.3-5.3 10.9 0 20.4 5.5 26 13.9l17.3 26c3.4 5 5.3 10.9 5.3 17.3 0 10.9-5.5 20.5-13.9 26.1z m-342.5 293.3c224.4 0 406.3-56 406.3-125.2 0-41.6-66.3-78.4-167.7-101l-231.8 149.4c-4.9 3.3-10.9 5.3-17.3 5.3-10.8 0-20.4-5.5-26-13.9l-17.3-26c-3.3-5-5.3-11-5.3-17.4 0-10.8 5.5-20.4 13.9-26l142.2-91.8c-31.1-2.3-63.5-3.7-97-3.7-224.4 0-406.3 56-406.3 125.1 0 69.2 181.9 125.2 406.3 125.2z" />
  </svg>
