<svg height="1000" width="1125" xmlns="http://www.w3.org/2000/svg"><path d="M562.5 62.5C251.8 62.5 0 174.4 0 312.5v375c0 138.1 251.8 250 562.5 250S1125 825.6 1125 687.5v-375c0 -138.1 -251.8 -250 -562.5 -250zM400.4 371.8c-8.7 32.4 -28.4 59.7 -55.3 79.1C195.8 424.7 93.8 372.6 93.8 312.5c0 -58.9 97.8 -110.1 242.2 -136.8l50 86.6c19.3 33.4 24.4 72.3 14.4 109.5zm162.1 97c-41.2 0 -80.9 -2 -118.9 -5.3C459.3 412.4 506.4 375 562.5 375s103.2 37.4 118.9 88.5c-38 3.3 -77.7 5.3 -118.9 5.3zm125 -281.3c0 68.9 -56.1 125 -125 125s-125 -56.1 -125 -125V162c39.8 -3.6 81.6 -5.7 125 -5.7s85.2 2.1 125 5.7v25.5zM779.2 451c-27 -19.4 -46.8 -46.7 -55.5 -79.2 -10 -37.2 -4.9 -76.1 14.4 -109.5l50.1 -86.7c144.8 26.5 243.1 77.9 243.1 136.9 0 60.2 -102.4 112.4 -252.1 138.5z"/></svg>