<svg height="1000" width="1125" xmlns="http://www.w3.org/2000/svg"><path d="M894.7 236.1l200 -120c29.6 -17.7 39.1 -56.1 21.4 -85.7C1098.3 .8 1060 -8.8 1030.3 8.9L716.5 197.2a1229.1 -1229.1 0 0 1 -154 -9.7C251.8 187.5 0 299.4 0 437.5v314.1c0 59.5 46.9 114.1 125 157V720.4c0 -34.4 28.1 -62.5 62.5 -62.5S250 686 250 720.4v239.1c73 21.7 158.2 36 250 40.5V782.9c0 -34.4 28.1 -62.5 62.5 -62.5s62.5 28.1 62.5 62.5V1000c91.8 -4.5 177 -18.8 250 -40.5V720.4c0 -34.4 28.1 -62.5 62.5 -62.5s62.5 28.1 62.5 62.5v188.2c78.1 -42.9 125 -97.5 125 -157V437.5c0 -82.8 -90.9 -155.9 -230.3 -201.4zM562.5 593.8c-258.9 0 -468.7 -70 -468.7 -156.3S303.6 281.3 562.5 281.3c4.6 0 9 .1 13.6 .2L405.3 383.9c-29.6 17.8 -39.1 56.2 -21.4 85.8 18.7 31.1 57.6 38.3 85.8 21.4L787.5 300.4c145.2 26.6 243.8 78 243.8 137.1 0 86.3 -209.9 156.3 -468.8 156.3z"/></svg>