
  <svg height="1000" width="1250.0" xmlns="http://www.w3.org/2000/svg">
    <path d="m203.1 187.5c26 0 46.9 20.9 46.9 46.9v531.2c0 26-20.9 46.9-46.9 46.9h-93.7c-26 0-46.9-20.9-46.9-46.9v-203.1h-46.9c-8.6 0-15.6-7-15.6-15.6v-93.8c0-8.6 7-15.6 15.6-15.6h46.9v-203.1c0-26 20.9-46.9 46.9-46.9h93.7z m1031.3 250c8.6 0 15.6 7 15.6 15.6v93.8c0 8.6-7 15.6-15.6 15.6h-46.9v203.1c0 26-20.9 46.9-46.9 46.9h-93.7c-26 0-46.9-20.9-46.9-46.9v-531.2c0-26 20.9-46.9 46.9-46.9h93.7c26 0 46.9 20.9 46.9 46.9v203.1h46.9z m-343.8-375c26 0 46.9 20.9 46.9 46.9v781.2c0 26-20.9 46.9-46.9 46.9h-93.7c-26 0-46.9-20.9-46.9-46.9v-328.1h-250v328.1c0 26-20.9 46.9-46.9 46.9h-93.7c-26 0-46.9-20.9-46.9-46.9v-781.2c0-26 20.9-46.9 46.9-46.9h93.7c26 0 46.9 20.9 46.9 46.9v328.1h250v-328.1c0-26 20.9-46.9 46.9-46.9h93.7z" />
  </svg>
