<svg height="1000" width="1250" xmlns="http://www.w3.org/2000/svg"><path d="M203.1 187.5h-93.7c-26 0 -46.9 20.9 -46.9 46.9v203.1H15.6C7 437.5 0 444.5 0 453.1v93.8c0 8.6 7 15.6 15.6 15.6h46.9v203.1c0 26 20.9 46.9 46.9 46.9h93.7c26 0 46.9 -20.9 46.9 -46.9V234.4c0 -26 -20.9 -46.9 -46.9 -46.9zm1031.3 250h-46.9V234.4c0 -26 -20.9 -46.9 -46.9 -46.9h-93.7c-26 0 -46.9 20.9 -46.9 46.9v531.2c0 26 20.9 46.9 46.9 46.9h93.7c26 0 46.9 -20.9 46.9 -46.9V562.5h46.9c8.6 0 15.6 -7 15.6 -15.6v-93.8c0 -8.6 -7 -15.6 -15.6 -15.6zM890.6 62.5h-93.7c-26 0 -46.9 20.9 -46.9 46.9v328.1H500V109.4c0 -26 -20.9 -46.9 -46.9 -46.9h-93.7c-26 0 -46.9 20.9 -46.9 46.9v781.2c0 26 20.9 46.9 46.9 46.9h93.7c26 0 46.9 -20.9 46.9 -46.9V562.5h250v328.1c0 26 20.9 46.9 46.9 46.9h93.7c26 0 46.9 -20.9 46.9 -46.9V109.4c0 -26 -20.9 -46.9 -46.9 -46.9z"/></svg>