
  <svg height="1000" width="1125.0" xmlns="http://www.w3.org/2000/svg">
    <path d="m1093.8 312.5h-190.1l-50-250h193.2c14.2 0 26.7 9.8 30.2 23.6l46.9 187.5c4.9 19.8-9.9 38.9-30.2 38.9z m-562.5-250v250h-246.3l50-250h196.2z m258.7 0l50 250h-246.3v-250h196.3z m-758.7 250c-20.4 0-35.2-19.1-30.3-38.9l46.9-187.5c3.5-13.8 16-23.6 30.2-23.6h193.2l-50 250h-190z m1062.5 125c17.1 0 31.2 14.1 31.2 31.3v62.5c0 17.1-14.1 31.2-31.2 31.2h-54.7l-39.1 312.5v31.3c0 17.1-14.1 31.2-31.2 31.2h-62.5c-17.2 0-31.3-14.1-31.3-31.2v-31.3h-625v31.3c0 17.1-14.1 31.2-31.2 31.2h-62.5c-17.2 0-31.3-14.1-31.3-31.2v-31.3l-39.1-312.5h-54.6c-17.2 0-31.3-14.1-31.3-31.2v-62.5c0-17.2 14.1-31.3 31.3-31.3h39l-7.8-62.5h1000l-7.8 62.5h39.1z" />
  </svg>
