
  <svg height="1000" width="1250.0" xmlns="http://www.w3.org/2000/svg">
    <path d="m817.8 203.3c-38.5 34.4-73.7 71.3-105.3 109h-118.8v-250h196.3l28.2 140.6z m-286.5-140.8v250h-246.3l50-250h196.2z m369.7 140.8l-23.3-20.7-24-120.1h193.2c14.2 0 26.7 9.8 30.1 23.6l46.8 187.5c0.4 1.6-0.2 3 0 4.5-1.9-1.9-3.9-4.3-6-6l-41.6-37.1-41.6 37.1c-11.6 10.1-22.7 20.9-33.8 31.8-30.5-34.8-64.3-68.7-99.8-100.6z m-869.7 109.2c-20.4 0-35.2-19.1-30.3-38.9l46.9-187.5c3.5-13.8 16-23.6 30.2-23.6h193.2l-50 250h-190z m633.9 62.5c-63.8 91.2-102.7 183-102.7 253.1 0 94.8 36.3 181.1 95.3 246.9h-407.8v31.3c0 17.1-14.1 31.2-31.2 31.2h-62.5c-17.2 0-31.3-14.1-31.3-31.2v-31.3l-39.1-312.5h-54.6c-17.2 0-31.3-14.1-31.3-31.2v-62.5c0-17.2 14.1-31.3 31.3-31.3h39l-7.8-62.5h602.7z m411.2-56.2c101.1 90.2 173.6 237.8 173.4 309.3 0 170.9-139.8 309.4-312.5 309.4-172.7 0-312.5-138.5-312.5-309.4 0-96.3 97.3-255.6 234.4-378.1 53.5 47.7 100.6 98.8 138.7 149.2 23.2-27.3 49.4-54.5 78.5-80.5z m-36.4 448c65.3-47.3 80.5-138.9 44.2-210.6-4.5-8.7-9.6-17.9-15.1-27.3l-77.7 91.8s-121.9-161.1-131-172.1c-64.3 79.9-96.5 126.6-96.5 179.5 0 106.5 77.9 171.9 173.6 171.9 38.3 0 73.8-12.3 102.5-33.2z" />
  </svg>
