
  <svg height="1000" width="1000.0" xmlns="http://www.w3.org/2000/svg">
    <path d="m251.4 381.5c12.9 8 17.4 23.9 12.4 38.2-5.9 16.8-10.1 34.4-12.2 52.6-1.8 15.5-13.7 27.7-29.3 27.7h-189.7c-17.8 0-32.7-14.9-31.5-32.7 3.9-61.5 19.4-120.9 43.8-174.3 7.7-16.8 29.1-22.4 44.8-12.6z m371.7-365.9c17.9 4.6 27.2 24.6 20.3 41.8l-73.2 203.2c-4.4 12.4-16.2 20.6-29.4 20.6h-81.6c-13.6 0-25.1-8.6-29.4-20.6l-73.2-203.2c-6.9-17.2 2.4-37.2 20.3-41.8 39.4-10.1 80.6-15.6 123.1-15.6s83.7 5.5 123.1 15.6z m-404.3 546.9c17.2 0 31.2 14 31.2 31.3v125c0 17.2-14 31.2-31.2 31.2h-187.5c-17.3 0-31.3-14-31.3-31.2v-125c0-17.3 14-31.3 31.3-31.3h187.5z m0 250c17.2 0 31.2 14 31.2 31.3v125c0 17.2-14 31.2-31.2 31.2h-187.5c-17.3 0-31.3-14-31.3-31.2v-125c0-17.3 14-31.3 31.3-31.3h187.5z m150.9-554c5.6 13.9 0 29-12.3 37.6-11.7 8.2-22.6 17.4-32.8 27.5-10.6 10.5-26.5 13.4-39.2 5.4l-162-101.2c-15.8-9.9-20.1-31.6-8.2-45.9 39.1-47.3 86.1-86.7 139.8-117 16.2-9.2 36.9-1 43.8 16.2z m408 241.5c-15.6 0-27.5-12.2-29.3-27.7-2.1-18.2-6.3-35.8-12.2-52.6-5-14.3-0.5-30.2 12.4-38.2l161.7-101.1c15.7-9.8 37.1-4.2 44.8 12.6 24.4 53.4 39.9 112.8 43.8 174.3 1.2 17.8-13.7 32.7-31.5 32.7h-189.7z m107.1-318.1c11.9 14.3 7.5 36-8.2 45.9l-162 101.2c-12.7 8-28.6 5.1-39.3-5.4-10.1-10.1-21-19.3-32.8-27.5-12.2-8.6-17.8-23.7-12.3-37.6l71-177.4c6.9-17.2 27.6-25.4 43.8-16.2 53.7 30.3 100.7 69.7 139.8 117z m84 380.6c17.2 0 31.2 14 31.2 31.3v125c0 17.2-14 31.2-31.2 31.2h-187.5c-17.3 0-31.3-14-31.3-31.2v-125c0-17.3 14-31.3 31.3-31.3h187.5z m0 250c17.2 0 31.2 14 31.2 31.3v125c0 17.2-14 31.2-31.2 31.2h-187.5c-17.3 0-31.3-14-31.3-31.2v-125c0-17.3 14-31.3 31.3-31.3h187.5z m-500-465.6c10.2-1.7 20.5-3.2 31.2-3.2s21 1.5 31.3 3.2v575c0 8.6-7 15.6-15.7 15.6h-31.2c-8.7 0-15.6-7-15.6-15.6v-575z m-125 81.1c15.9-24 37.5-43.6 62.5-58.2v552.1c0 8.6-7 15.6-15.7 15.6h-31.2c-8.7 0-15.6-7-15.6-15.6v-493.9z m250-58.2c24.9 14.6 46.5 34.2 62.5 58.2v493.9c0 8.6-7 15.6-15.7 15.6h-31.2c-8.7 0-15.6-7-15.6-15.6v-552.1z" />
  </svg>
