<svg height="1000" width="1125" xmlns="http://www.w3.org/2000/svg"><path d="M786.3 162.5l176.2 176.2c7.4 7.4 7.4 19.5 0 26.9L535.9 792.2l-181.2 20.1c-24.2 2.7 -44.7 -17.8 -42 -42l20.1 -181.2L759.4 162.5c7.4 -7.4 19.5 -7.4 26.9 0zm316.4 -44.7l-95.3 -95.3c-29.7 -29.7 -77.9 -29.7 -107.8 0l-69.1 69.1c-7.5 7.4 -7.5 19.5 0 27l176.1 176.1c7.5 7.4 19.6 7.4 27 0l69.1 -69.1c29.7 -29.9 29.7 -78.1 0 -107.8zM750 676.2V875H125V250h448.8c6.3 0 12.1 -2.5 16.6 -6.8L668.6 165c14.8 -14.8 4.3 -40 -16.6 -40H93.8C42 125 0 167 0 218.8v687.5C0 958 42 1000 93.8 1000h687.5c51.7 0 93.7 -42 93.7 -93.7V598c0 -20.9 -25.2 -31.2 -40 -16.6l-78.2 78.2c-4.3 4.5 -6.8 10.3 -6.8 16.6z"/></svg>