
  <svg height="1000" width="1000.0" xmlns="http://www.w3.org/2000/svg">
    <path d="m343.8 421.9c-17.3 0-31.3-14-31.3-31.3v-31.2c0-17.3 14-31.3 31.3-31.3h312.5c17.2 0 31.2 14 31.2 31.3v31.2c0 17.3-14 31.3-31.2 31.3h-312.5z m-31.3 156.2v-31.2c0-17.3 14-31.3 31.3-31.3h312.5c17.2 0 31.2 14 31.2 31.3v31.2c0 17.3-14 31.3-31.2 31.3h-312.5c-17.3 0-31.3-14-31.3-31.3z m187.5 236.6c32.1 0 64.1-9.9 91.5-29.7l408.5-295v416.3c0 51.7-42 93.7-93.7 93.7h-812.5c-51.8 0-93.8-42-93.8-93.7v-416.3l408.5 295c27.4 19.8 59.4 29.7 91.5 29.7z m464.1-496.4c22.7 17.7 35.9 44.9 35.9 73.7v20.8l-187.5 135.5v-360.8h-625v360.8l-187.5-135.5v-20.8c0-29.9 14-56.6 35.9-73.7 17.3-13.6 33.7-26.4 57.8-44.6v-86.2c0-51.8 42-93.8 93.8-93.8h151.5c5.9-4.2 11.4-8.3 17.6-12.8 32.9-23.9 98.1-81.6 143.4-80.9 45.3-0.7 110.5 57 143.4 80.9 6.2 4.5 11.7 8.6 17.6 12.8h151.5c51.8 0 93.7 42 93.7 93.8v86.2c24.2 18.3 40.6 31 57.9 44.6z" />
  </svg>
