
  <svg height="1000" width="1000.0" xmlns="http://www.w3.org/2000/svg">
    <path d="m981.1 372.7c7.6-6.1 18.9-0.4 18.9 9.1v399.5c0 51.7-42 93.7-93.7 93.7h-812.5c-51.8 0-93.8-42-93.8-93.7v-399.3c0-9.7 11.1-15.2 18.9-9.1 43.8 33.9 101.8 77.1 301 221.8 41.2 30.1 110.8 93.4 180.1 93 69.7 0.6 140.6-64.1 180.3-93 199.2-144.7 257-188.1 300.8-222z m-481.1 252.3c-45.3 0.8-110.5-57-143.4-80.9-259.1-188-278.9-204.6-338.6-251.3-11.4-9-18-22.5-18-36.9v-37.1c0-51.8 42-93.8 93.8-93.8h812.5c51.7 0 93.7 42 93.7 93.8v37.1c0 14.4-6.6 28.1-18 36.9-59.7 46.8-79.5 63.3-338.6 251.3-32.9 23.9-98.1 81.7-143.4 80.9z" />
  </svg>
