
  <svg height="1000" width="875.0" xmlns="http://www.w3.org/2000/svg">
    <path d="m781.3 62.5c51.7 0 93.7 42 93.7 93.8v687.5c0 51.7-42 93.7-93.7 93.7h-687.5c-51.8 0-93.8-42-93.8-93.7v-687.5c0-51.8 42-93.8 93.8-93.8h687.5z m-433.4 449.4c20.5 15 61.3 51 89.6 50.6 28.3 0.4 69.1-35.6 89.6-50.6 177.1-128.5 175.3-128.8 222.9-165.9v-49.1c0-25.9-21-46.9-46.9-46.9h-531.2c-25.9 0-46.9 21-46.9 46.9v49.1c47.6 37 45.8 37.4 222.9 165.9z m402.1-86.6c-27.3 21.1-65.1 49.3-186.1 137.1-26.7 19.5-73.9 62.9-126.4 62.6-52.2 0.3-98.7-42.3-126.4-62.5-121-87.9-158.8-116.1-186.1-137.2v277.8c0 25.9 21 46.9 46.9 46.9h531.2c25.9 0 46.9-21 46.9-46.9v-277.8z" />
  </svg>
