
  <svg height="1000" width="625.0" xmlns="http://www.w3.org/2000/svg">
    <path d="m606.8 808.1l17.3 86.9c2.4 12.2-5.1 24.2-17.2 27.3-24.5 6.3-68 15.2-119.3 15.2-203.9 0-356.5-127.6-405.3-304h-58.9c-12.9 0-23.4-10.5-23.4-23.4v-55.4c0-13 10.5-23.5 23.4-23.5h41.8c-1.9-25.3-1.6-55.9 0.4-82.5h-42.2c-12.9 0-23.4-10.5-23.4-23.4v-58.1c0-13 10.5-23.5 23.4-23.5h64.6c56.6-163.5 209.8-281.2 399.6-281.2 41.1 0 79.2 5.7 102.9 10.2 13.4 2.5 21.7 15.9 18.2 29.1l-23.4 86.7c-3.3 11.9-15.2 19.3-27.4 16.8-18.1-3.7-45.6-8.1-73.9-8.1-107.3 0-189.4 58.7-229.7 146.5h270c15 0 26.1 13.9 22.9 28.5l-12.7 58.1c-2.3 10.5-11.7 18.4-22.9 18.4h-286.3c-3 27.3-2.6 54.6-0.3 82.5h262.2c15 0 26.2 14 22.9 28.6l-12.5 55.4c-2.3 10.5-11.7 18.3-22.8 18.3h-222.1c38.2 99 126.4 166.9 237.3 166.9 35.1 0 67.8-5.8 88.7-10.6 12.8-2.9 25.6 5.4 28.1 18.3z" />
  </svg>
