<svg height="1000" width="625" xmlns="http://www.w3.org/2000/svg"><path d="M606.8 808.1c-2.5 -12.9 -15.3 -21.2 -28.1 -18.3 -20.9 4.8 -53.6 10.6 -88.7 10.6 -110.9 0 -199.1 -67.9 -237.3 -166.9h222.1a23.4 -23.4 0 0 1 22.8 -18.3l12.5 -55.4c3.3 -14.6 -7.9 -28.5 -22.9 -28.5H225c-2.3 -28 -2.7 -55.3 .3 -82.6h286.3a23.4 -23.4 0 0 1 22.9 -18.4l12.7 -58.1c3.2 -14.6 -7.9 -28.4 -22.9 -28.4h-270C294.6 255.9 376.7 197.2 484 197.2c28.3 0 55.8 4.4 73.9 8.1 12.2 2.5 24.1 -4.9 27.4 -16.8l23.4 -86.7c3.5 -13.2 -4.8 -26.6 -18.2 -29.1C566.8 68.2 528.7 62.5 487.6 62.5 297.8 62.5 144.6 180.2 88 343.8H23.4C10.5 343.8 0 354.2 0 367.2v58.1c0 12.9 10.5 23.4 23.4 23.4h42.2c-2 26.6 -2.3 57.2 -.4 82.6H23.4C10.5 531.3 0 541.7 0 554.7v55.4c0 12.9 10.5 23.4 23.4 23.4h58.9c48.8 176.4 201.4 304 405.3 304 51.3 0 94.8 -8.9 119.3 -15.2 12.1 -3.1 19.6 -15.1 17.2 -27.3l-17.3 -86.9z"/></svg>