
  <svg height="1000" width="875.0" xmlns="http://www.w3.org/2000/svg">
    <path d="m0 351.6v-242.2c0-26 20.9-46.9 46.9-46.9h242.2c12.9 0 23.4 10.5 23.4 23.4v78.2c0 12.9-10.5 23.4-23.4 23.4h-164.1v164.1c0 12.9-10.5 23.4-23.4 23.4h-78.2c-12.9 0-23.4-10.5-23.4-23.4z m562.5-265.7c0-12.9 10.5-23.4 23.4-23.4h242.2c26 0 46.9 20.9 46.9 46.9v242.2c0 12.9-10.5 23.4-23.4 23.4h-78.2c-12.9 0-23.4-10.5-23.4-23.4v-164.1h-164.1c-12.9 0-23.4-10.5-23.4-23.4v-78.2z m289.1 539.1c12.9 0 23.4 10.5 23.4 23.4v242.2c0 26-20.9 46.9-46.9 46.9h-242.2c-12.9 0-23.4-10.5-23.4-23.4v-78.2c0-12.9 10.5-23.4 23.4-23.4h164.1v-164.1c0-12.9 10.5-23.4 23.4-23.4h78.2z m-539.1 289.1c0 12.9-10.5 23.4-23.4 23.4h-242.2c-26 0-46.9-20.9-46.9-46.9v-242.2c0-12.9 10.5-23.4 23.4-23.4h78.2c12.9 0 23.4 10.5 23.4 23.4v164.1h164.1c12.9 0 23.4 10.5 23.4 23.4v78.2z" />
  </svg>
