<svg height="1000" width="875.2" xmlns="http://www.w3.org/2000/svg"><path d="M875.2 671.9v218.7c0 26 -20.9 46.9 -46.9 46.9H609.6c-41.8 0 -62.7 -50.6 -33.2 -80.1l70.7 -70.7L437.5 577.3 228.1 786.9l70.7 70.5c29.5 29.5 8.6 80.1 -33.2 80.1H46.9C20.9 937.5 0 916.6 0 890.6V671.9c0 -41.8 50.6 -62.7 80.1 -33.2l70.7 70.7L360.4 500 150.8 290.4l-70.7 70.9C50.6 390.8 0 369.9 0 328.1V109.4C0 83.4 20.9 62.5 46.9 62.5h218.7c41.8 0 62.7 50.6 33.2 80.1l-70.7 70.7 209.4 209.4L647.1 213.1l-70.7 -70.5c-29.5 -29.5 -8.6 -80.1 33.2 -80.1h218.7c26 0 46.9 20.9 46.9 46.9v218.7c0 41.8 -50.6 62.7 -80.1 33.2l-70.7 -70.7L514.8 500l209.6 209.6 70.7 -70.7c29.5 -29.7 80.1 -8.8 80.1 33z"/></svg>