<svg height="1000" width="875" xmlns="http://www.w3.org/2000/svg"><path d="M0 351.6V109.4C0 83.4 20.9 62.5 46.9 62.5h242.2c12.9 0 23.4 10.5 23.4 23.4v78.2c0 12.9 -10.5 23.4 -23.4 23.4H125v164.1c0 12.9 -10.5 23.4 -23.4 23.4H23.4C10.5 375 0 364.5 0 351.6zM562.5 85.9v78.2c0 12.9 10.5 23.4 23.4 23.4H750v164.1c0 12.9 10.5 23.4 23.4 23.4h78.2c12.9 0 23.4 -10.5 23.4 -23.4V109.4c0 -26 -20.9 -46.9 -46.9 -46.9H585.9C573 62.5 562.5 73 562.5 85.9zM851.6 625h-78.2c-12.9 0 -23.4 10.5 -23.4 23.4v164.1H585.9c-12.9 0 -23.4 10.5 -23.4 23.4v78.2c0 12.9 10.5 23.4 23.4 23.4h242.2c26 0 46.9 -20.9 46.9 -46.9V648.4C875 635.5 864.5 625 851.6 625zM312.5 914.1v-78.2c0 -12.9 -10.5 -23.4 -23.4 -23.4H125V648.4C125 635.5 114.5 625 101.6 625H23.4C10.5 625 0 635.5 0 648.4v242.2c0 26 20.9 46.9 46.9 46.9h242.2c12.9 0 23.4 -10.5 23.4 -23.4z"/></svg>