
  <svg height="1000" width="875.0" xmlns="http://www.w3.org/2000/svg">
    <path d="m875 671.9v218.7 0.1c0 25.9-21 46.8-46.8 46.8 0 0 0 0-0.1 0h-218.7c-41.8 0-62.7-50.6-33.2-80.1l70.7-70.7-209.4-209.4-209.4 209.6 70.7 70.5c29.5 29.5 8.6 80.1-33.2 80.1h-218.7-0.1c-25.9 0-46.8-21-46.8-46.8 0 0 0 0 0-0.1v-218.7c0-41.8 50.6-62.7 80.1-33.2l70.7 70.7 209.5-209.4-209.6-209.6-70.6 70.9c-29.5 29.5-80.1 8.6-80.1-33.2v-218.7-0.1c0-25.9 21-46.8 46.8-46.8 0 0 0 0 0.1 0h218.7c41.8 0 62.7 50.6 33.2 80.1l-70.7 70.7 209.4 209.4 209.4-209.6-70.7-70.5c-29.5-29.5-8.6-80.1 33.2-80.1h218.7 0.1c25.9 0 46.8 21 46.8 46.8 0 0 0 0 0 0.1v218.7c0 41.8-50.6 62.7-80.1 33.2l-70.7-70.7-209.5 209.4 209.6 209.6 70.6-70.7c29.5-29.7 80.1-8.8 80.1 33z" />
  </svg>
