<svg height="1000" width="1125" xmlns="http://www.w3.org/2000/svg"><path d="M1125 46.9v249.9c0 42 -50.7 62.5 -80 33.2l-69.8 -69.8L499.6 735.9c-18.3 18.3 -48 18.3 -66.3 0l-44.2 -44.2c-18.3 -18.3 -18.3 -48 0 -66.3L864.8 149.8 795 80C765.6 50.6 786.4 0 828.2 0h249.9c25.9 0 46.9 21 46.9 46.9zm-330 482l-31.3 31.2A46.9 -46.9 0 0 1 750 593.3V875H125V250h515.6a46.9 -46.9 0 0 1 33.2 -13.7L705 205c29.5 -29.5 8.6 -80 -33.1 -80H93.8C42 125 0 167 0 218.8v687.5C0 958 42 1000 93.8 1000h687.5c51.7 0 93.7 -42 93.7 -93.7V562c0 -41.7 -50.5 -62.6 -80 -33.1z"/></svg>