
  <svg height="1000" width="1000.0" xmlns="http://www.w3.org/2000/svg">
    <path d="m843.8 625c17.2 0 31.2 14 31.2 31.3v250c0 51.7-42 93.7-93.7 93.7h-687.5c-51.8 0-93.8-42-93.8-93.7v-687.5c0-51.8 42-93.8 93.8-93.8h312.5c17.2 0 31.2 14 31.2 31.3v62.5c0 17.2-14 31.2-31.2 31.2h-281.3v625h625v-218.7c0-17.3 14-31.3 31.3-31.3h62.5z m109.3-625c25.9 0 46.9 21 46.9 46.9v250c0 42-50.8 62.5-80.1 33.2l-69.7-69.7-475.8 475.9c-8.5 8.5-20.3 13.8-33.3 13.8s-24.7-5.3-33.2-13.8l-44.2-44.2c-8.5-8.5-13.8-20.2-13.8-33.2 0-12.9 5.3-24.7 13.8-33.2l476-475.8-69.8-69.8c-29.4-29.5-8.5-80.1 33.2-80.1h250z" />
  </svg>
