
  <svg height="1000" width="1250.0" xmlns="http://www.w3.org/2000/svg">
    <path d="m625 781.3c17.4-0.2 34.3-2 50.8-5.1l101.3 78.4c-48.8 12.6-99.5 20.4-152.1 20.4-240.1 0-449.8-139.8-555.7-346.5-4.3-8.5-6.8-18.3-6.8-28.6 0-10.2 2.5-19.8 6.8-28.4 20-39.1 44.8-74.8 71.7-108.6l204.9 158.4c11 145.3 131 260 279.1 260z m612.9 113.4c7.4 5.7 12.1 14.7 12.1 24.7 0 7.2-2.5 13.9-6.6 19.2l-38.3 49.3c-5.7 7.4-14.7 12.1-24.7 12.1-7.2 0-13.9-2.5-19.2-6.6l-1149.1-888.1c-7.4-5.7-12.1-14.7-12.1-24.7 0-7.2 2.5-13.9 6.6-19.2l38.3-49.3c5.7-7.4 14.7-12.1 24.7-12.1 7.2 0 13.9 2.5 19.2 6.6l248.5 192c85.3-46.6 183.7-73.5 287.7-73.6 240.1 0 449.8 139.8 555.7 346.5 4.3 8.5 6.8 18.3 6.8 28.6 0 10.2-2.5 19.8-6.8 28.4-39.5 76.9-93.1 144.1-158.7 199.4z m-358.8-277.3c16.8-35.8 27.2-75.2 27.2-117.4 0-0.1 0-0.1 0-0.2 0-155.1-126-281-281.1-281h-0.2c-67.6 0-129.8 24.3-178 64.6l143.7 111.1c1.7-6.2 2.8-12.8 3.1-19.5-0.1-20.6-6.9-39.7-18.2-55.1 16.4-4.8 33.8-7.5 51.8-7.5 102.2 0 185.1 83 185.1 185.1 0 0.8 0 1.7 0 2.5-0.3 20.3-3.9 39.8-10.2 58z" />
  </svg>
