<svg height="1000" width="1125" xmlns="http://www.w3.org/2000/svg"><path d="M559.9 765.6l63.7 90.9a652.3 -652.3 0 0 0 -61.1 2.9C328.5 859.4 123.1 734.5 13 547.6a93.7 -93.7 0 0 0 0 -95.2c46.9 -79.6 111.1 -148 187.5 -200.3L312 411.4c-9.8 27.7 -15.1 57.5 -15.1 88.6 0 146 117.4 264.2 263 265.6zm552.1 -218c-61.8 105 -153.8 190.3 -264 245.1l81 115.6c14.9 21.2 9.7 50.4 -11.5 65.3l-25.6 17.9c-21.2 14.9 -50.4 9.7 -65.3 -11.5L196 91.7C181.1 70.5 186.3 41.3 207.5 26.4L233.1 8.5c21.2 -14.9 50.4 -9.7 65.3 11.5l99.7 141.8C450.5 148 505.7 140.6 562.5 140.6c234 0 439.4 124.9 549.5 311.8a93.8 -93.8 0 0 0 0 95.2zM828.1 500C828.1 353.2 709.3 234.4 562.5 234.4c-35 0 -68.5 6.8 -99.1 19.1l37.7 52.8c50.5 -16 107.5 -12 157 14.5 -46.2 0 -83.6 37.4 -83.6 83.6 0 46.2 37.3 83.6 83.6 83.6 46.2 0 83.6 -37.4 83.6 -83.6 36.1 67.3 31.9 152.1 -16.1 216.7l37.7 52.8C803.7 627.3 828.1 566.6 828.1 500zM511.7 696.7L360.3 480.4c-9.8 102.3 57.3 192.1 151.4 216.3z"/></svg>