
  <svg height="1000" width="1125.0" xmlns="http://www.w3.org/2000/svg">
    <path d="m1118.2 471.5c4.3 8.5 6.8 18.3 6.8 28.6 0 10.2-2.5 19.8-6.8 28.4-105.9 206.6-315.6 346.5-555.7 346.5s-449.8-139.8-555.7-346.5c-4.3-8.5-6.8-18.3-6.8-28.6 0-10.2 2.5-19.8 6.8-28.4 105.9-206.6 315.6-346.5 555.7-346.5s449.8 139.8 555.7 346.5z m-555.7 309.8c0 0 0.1 0 0.1 0 155.2 0 281.2-126 281.2-281.2v-0.1c0-155.2-126.1-281.3-281.3-281.3s-281.2 126.1-281.2 281.3 126 281.2 281.2 281.2z m0-468.8c0.1 0 0.3 0.1 0.5 0.1 103.2 0 187 83.8 187 187s-83.8 187.1-187 187.1-187.1-83.8-187.1-187.1c0-16.9 2.3-33.4 6.5-49 15.5 11.4 34.7 18.1 55.3 18.1 51.6 0 93.5-41.9 93.5-93.5 0-20.7-6.7-39.8-18.1-55.3 15.7-4.6 32.3-7.2 49.4-7.4z" />
  </svg>
