<svg height="1000" width="1125" xmlns="http://www.w3.org/2000/svg"><path d="M1112 452.4C1001.9 265.5 796.5 140.6 562.5 140.6c-234.1 0 -439.4 125 -549.5 311.8a93.7 -93.7 0 0 1 0 95.2c110.1 186.9 315.5 311.8 549.5 311.8 234.1 0 439.4 -125 549.5 -311.8a93.7 -93.7 0 0 1 0 -95.2zM562.5 765.6C415.7 765.6 296.9 646.8 296.9 500S415.7 234.4 562.5 234.4 828.1 353.2 828.1 500 709.3 765.6 562.5 765.6zM765.6 500c0 112.2 -90.9 203.1 -203.1 203.1S359.4 612.2 359.4 500c0 -34.6 8.6 -67.1 23.9 -95.7v.1c0 46.2 37.4 83.7 83.6 83.7s83.7 -37.5 83.7 -83.7 -37.5 -83.6 -83.7 -83.6h-.1c28.6 -15.3 61.1 -23.9 95.7 -23.9 112.2 0 203.1 90.9 203.1 203.1z"/></svg>