
  <svg height="1000" width="1000.0" xmlns="http://www.w3.org/2000/svg">
    <path d="m688.6 250c159.8 0 291.6 120.4 311.1 276 2.6 20.5-14 38.4-34.4 36.3l-240.4-24.2c16.3 44.9 25.1 95.7 25.1 150.5 0 159.8-120.4 291.6-276 311.1-20.5 2.6-38.4-14-36.3-34.4l24.2-240.4c-44.9 16.3-95.6 25.1-150.5 25.1-159.8 0-291.6-120.4-311.1-276-2.6-20.5 14-38.5 34.4-36.3l240.4 24.2c-16.3-44.9-25.1-95.6-25.1-150.5 0-159.8 120.4-291.6 276-311.1 20.5-2.6 38.5 14 36.3 34.4l-24.2 240.4c44.9-16.3 95.7-25.1 150.5-25.1z m-188.6 312.5c34.5 0 62.5-28 62.5-62.5s-28-62.5-62.5-62.5-62.5 28-62.5 62.5 28 62.5 62.5 62.5z" />
  </svg>
