
  <svg height="1000" width="1000.0" xmlns="http://www.w3.org/2000/svg">
    <path d="m687.5 500c172.5 0 312.5 140 312.5 312.5 0 34.5-28 62.5-62.5 62.5h-125c-34.5 0-62.5-28-62.5-62.5s-28-62.5-62.5-62.5h-25c-40.2 73.7-125.4 125-225 125s-184.8-51.3-225-125h-181.2c-17.3 0-31.3-14-31.3-31.2v-187.5c0-17.3 14-31.3 31.3-31.3h231.6c30.7-26.2 69.3-44.9 112.1-54.7v-92.9l62.5-6.6 62.5 6.6v92.9c42.8 9.6 81.4 28.4 112.1 54.7h75.4z m-528.1-187.7c-18.4 2-34.4-13.3-34.4-32.8v-59c0-19.5 16-34.8 34.4-32.8l215.6 22.7v-54.2c0-17.2 14-31.2 31.2-31.2h62.5c17.3 0 31.3 14 31.3 31.2v54.2l215.6-22.7c18.4-2 34.4 13.3 34.4 32.8v59c0 19.5-16 34.8-34.4 32.8l-278.1-29.3z" />
  </svg>
