<svg height="1000" width="1000" xmlns="http://www.w3.org/2000/svg"><path d="M250 281.3v625c0 51.7 -42 93.7 -93.7 93.7H93.8C42 1000 0 958 0 906.3v-625c0 -51.8 42 -93.8 93.8 -93.8h62.5c51.7 0 93.7 42 93.7 93.8zm750 125v500c0 51.7 -42 93.7 -93.7 93.7H375c-51.8 0 -93.7 -42 -93.7 -93.7V78.1C281.3 35 316.2 0 359.4 0h405.1a78.1 -78.1 0 0 0 55.3 22.9l94.8 94.8a78.1 -78.1 0 0 0 22.9 55.3v144.9c36.4 12.8 62.5 47.5 62.5 88.4zM375 375h468.8V187.5h-46.9c-25.8 0 -46.9 -21.1 -46.9 -46.9V93.8H375V375zm187.5 398.4C562.5 760.5 552 750 539.1 750h-78.2c-12.9 0 -23.4 10.5 -23.4 23.4v78.2c0 12.9 10.5 23.4 23.4 23.4h78.2c12.9 0 23.4 -10.5 23.4 -23.4v-78.2zm0 -250C562.5 510.5 552 500 539.1 500h-78.2c-12.9 0 -23.4 10.5 -23.4 23.4v78.2c0 12.9 10.5 23.4 23.4 23.4h78.2c12.9 0 23.4 -10.5 23.4 -23.4v-78.2zm250 250C812.5 760.5 802 750 789.1 750h-78.2c-12.9 0 -23.4 10.5 -23.4 23.4v78.2c0 12.9 10.5 23.4 23.4 23.4h78.2c12.9 0 23.4 -10.5 23.4 -23.4v-78.2zm0 -250C812.5 510.5 802 500 789.1 500h-78.2c-12.9 0 -23.4 10.5 -23.4 23.4v78.2c0 12.9 10.5 23.4 23.4 23.4h78.2c12.9 0 23.4 -10.5 23.4 -23.4v-78.2z"/></svg>