
  <svg height="1000" width="1000.0" xmlns="http://www.w3.org/2000/svg">
    <path d="m937.5 312.5c34.5 0 62.5 28 62.5 62.5v562.5c0 34.5-28 62.5-62.5 62.5h-625c-34.5 0-62.5-28-62.5-62.5v-875c0-34.5 28-62.5 62.5-62.5h474.1c17.3 0 32.9 7 44.2 18.3l88.4 88.4c11.3 11.3 18.3 26.9 18.3 44.2v161.6z m-375 531.3v-62.5c0-17.3-14-31.3-31.2-31.3h-62.5c-17.3 0-31.3 14-31.3 31.3v62.5c0 17.2 14 31.2 31.3 31.2h62.5c17.2 0 31.2-14 31.2-31.2z m0-250v-62.5c0-17.3-14-31.3-31.2-31.3h-62.5c-17.3 0-31.3 14-31.3 31.3v62.5c0 17.2 14 31.2 31.3 31.2h62.5c17.2 0 31.2-14 31.2-31.2z m250 250v-62.5c0-17.3-14-31.3-31.2-31.3h-62.5c-17.3 0-31.3 14-31.3 31.3v62.5c0 17.2 14 31.2 31.3 31.2h62.5c17.2 0 31.2-14 31.2-31.2z m0-250v-62.5c0-17.3-14-31.3-31.2-31.3h-62.5c-17.3 0-31.3 14-31.3 31.3v62.5c0 17.2 14 31.2 31.3 31.2h62.5c17.2 0 31.2-14 31.2-31.2z m0-218.8v-125h-93.7c-17.3 0-31.3-14-31.3-31.2v-93.8h-312.5v250h437.5z m-687.5-125c34.5 0 62.5 28 62.5 62.5v625c0 34.5-28 62.5-62.5 62.5h-62.5c-34.5 0-62.5-28-62.5-62.5v-625c0-34.5 28-62.5 62.5-62.5h62.5z" />
  </svg>
