<svg height="1000" width="1250" xmlns="http://www.w3.org/2000/svg"><path d="M1062.5 437.5l-250 -31.2L718.8 375h-46.9L443.7 85.9h77.1c22.8 0 41.7 -5.1 41.7 -11.7S543.6 62.5 520.8 62.5H296.9v23.4h31.2v320.4h-93.7L104.2 250H36.5l-20.9 20.8v135.5h15.7v31.2H125v5.2L0 458.3v83.4l125 15.6v5.2H31.3v31.3H15.6v135.4L36.5 750h67.7L234.4 593.8h93.7v320.3h-31.2v23.4h223.9c22.8 0 41.7 -5.1 41.7 -11.7s-18.9 -11.7 -41.7 -11.7h-77.1L671.9 625h46.9l93.7 -31.2 250 -31.3C1250 520.8 1250 510.6 1250 500c0 -10.6 0 -20.8 -187.5 -62.5z"/></svg>