
  <svg height="1000" width="1250.0" xmlns="http://www.w3.org/2000/svg">
    <path d="m1062.5 437.5c187.5 41.7 187.5 51.9 187.5 62.5s0 20.8-187.5 62.5l-250 31.3-93.7 31.2h-46.9l-228.2 289.1h77.1c22.8 0 41.7 5.1 41.7 11.7s-18.9 11.7-41.7 11.7h-223.9v-23.4h31.2v-320.3h-93.7l-130.2 156.2h-67.7l-20.9-20.8v-135.4h15.6v-31.3h93.8v-5.2l-125-15.6v-83.4l125-15.6v-5.2h-93.8v-31.3h-15.6v-135.4l20.9-20.8h67.7l130.2 156.2h93.7v-320.3h-31.2v-23.4h223.9c22.8 0 41.7 5.1 41.7 11.7s-18.9 11.7-41.7 11.7h-77.1l228.2 289.1h46.9l93.7 31.2z" />
  </svg>
