<svg height="1000" width="750" xmlns="http://www.w3.org/2000/svg"><path d="M378.3 529.7c17.2 0 30.3 5.3 39.7 15.8 18.7 21.3 19.1 63.9 -.4 86.1 -9.6 11 -23.3 16.6 -41.2 16.6h-52.6V529.7h54.5zm358 -324.6L544.9 13.7C536.1 4.9 524.2 0 511.7 0H500v250h250v-11.9c0 -12.3 -4.9 -24.2 -13.7 -33zm-298.8 60.5V0H46.9C20.9 0 0 20.9 0 46.9v906.2c0 26 20.9 46.9 46.9 46.9h656.2c26 0 46.9 -20.9 46.9 -46.9V312.5H484.4c-25.8 0 -46.9 -21.1 -46.9 -46.9zM541 588.3c0 176.3 -173.4 151.5 -217 151.5v111.8c0 12.9 -10.5 23.4 -23.4 23.4h-60.2C227.5 875 217 864.5 217 851.6V461.3c0 -12.9 10.5 -23.4 23.4 -23.4h158.2c86.9 0 142.4 64.1 142.4 150.4z"/></svg>