<svg height="1000" width="750" xmlns="http://www.w3.org/2000/svg"><path d="M736.3 205.1L545.1 13.7C536.3 4.9 524.4 0 511.9 0H500v250h250v-11.9c0 -12.3 -4.9 -24.2 -13.7 -33zm-298.8 60.5V0H46.9C20.9 0 0 20.9 0 46.9v906.2c0 26 20.9 46.9 46.9 46.9h656.2c26 0 46.9 -20.9 46.9 -46.9V312.5H484.4c-25.8 0 -46.9 -21.1 -46.9 -46.9zm125 312.5v93.8c0 8.6 -7 15.6 -15.6 15.6H437.5v109.4c0 8.6 -7 15.6 -15.6 15.6h-93.8c-8.6 0 -15.6 -7 -15.6 -15.6V687.5H203.1c-8.6 0 -15.6 -7 -15.6 -15.6v-93.8c0 -8.6 7 -15.6 15.6 -15.6h109.4V453.1c0 -8.6 7 -15.6 15.6 -15.6h93.8c8.6 0 15.6 7 15.6 15.6v109.4h109.4c8.6 0 15.6 7 15.6 15.6z"/></svg>