
  <svg height="1000" width="750.0" xmlns="http://www.w3.org/2000/svg">
    <path d="m736.3 205.1c8.8 8.8 13.7 20.7 13.7 33v11.9h-250v-250h11.9c12.5 0 24.4 4.9 33.2 13.7z m-298.8 60.5c0 25.8 21.1 46.9 46.9 46.9h265.6v640.6c0 26-20.9 46.9-46.9 46.9h-656.2c-26 0-46.9-20.9-46.9-46.9v-906.2c0-26 20.9-46.9 46.9-46.9h390.6v265.6z m-312.5-125v31.3c0 8.6 7 15.6 15.6 15.6h156.3c8.6 0 15.6-7 15.6-15.6v-31.3c0-8.6-7-15.6-15.6-15.6h-156.3c-8.6 0-15.6 7-15.6 15.6z m0 156.3c0 8.6 7 15.6 15.6 15.6h156.3c8.6 0 15.6-7 15.6-15.6v-31.3c0-8.6-7-15.6-15.6-15.6h-156.3c-8.6 0-15.6 7-15.6 15.6v31.3z m281.3 515.4c46.1-1.3 83.3-40.2 83.3-88.1 0-39-25.4-73.8-61.7-84.7l-87.9-26.4c-10.1-3-17.1-13.2-17.1-24.8 0-14.2 10.3-25.8 23-25.8h54.9c8.9 0 17.5 2.5 25.1 7.3 6.3 3.9 14.4 3.7 19.8-1.5l22.9-21.9c6.9-6.5 6.5-17.9-1.1-23.7-17.8-13.3-39.2-21-61.3-22.1v-47.5c0-8.6-7-15.6-15.6-15.6h-31.2c-8.7 0-15.7 7-15.7 15.6v47.1c-46.1 1.3-83.3 40.2-83.3 88.1 0 39 25.4 73.8 61.7 84.7l87.9 26.4c10 3 17.1 13.2 17.1 24.8 0 14.2-10.4 25.8-23.1 25.8h-54.9c-8.9 0-17.4-2.5-25-7.3-6.3-3.9-14.4-3.7-19.8 1.5l-22.9 21.9c-6.9 6.5-6.5 17.9 1.1 23.7 17.8 13.3 39.2 21 61.2 22.1v47.5c0 8.6 7 15.6 15.7 15.6h31.2c8.7 0 15.6-7 15.6-15.6v-47.1z" />
  </svg>
