
  <svg height="1000" width="750.0" xmlns="http://www.w3.org/2000/svg">
    <path d="m437.5 265.6c0 25.8 21.1 46.9 46.9 46.9h265.6v640.6c0 26-20.9 46.9-46.9 46.9h-656.2c-26 0-46.9-20.9-46.9-46.9v-906.2c0-26 20.9-46.9 46.9-46.9h390.6v265.6z m127.3 421.9c27.9 0 41.8-33.8 22-53.4l-188.3-186.9c-13-12.9-34-12.9-47 0l-188.3 186.9c-19.8 19.6-5.9 53.4 22 53.4h127.3v156.3c0 17.2 14 31.2 31.3 31.2h62.5c17.2 0 31.2-14 31.2-31.2v-156.3h127.3z m171.5-482.4c8.8 8.8 13.7 20.7 13.7 33v11.9h-250v-250h11.9c12.5 0 24.4 4.9 33.2 13.7z" />
  </svg>
