<svg height="1000" width="750" xmlns="http://www.w3.org/2000/svg"><path d="M750 238.2V250H500V0h11.8A46.9 -46.9 0 0 0 545 13.7L736.3 205a46.9 -46.9 0 0 0 13.7 33.2zm-265.6 74.3c-25.8 0 -46.9 -21.1 -46.9 -46.9V0H46.9C21 0 0 21 0 46.9v906.2C0 979 21 1000 46.9 1000h656.2c25.9 0 46.9 -21 46.9 -46.9V312.5H484.4zm-264.6 31.3c51.8 0 93.8 41.9 93.8 93.7s-42 93.8 -93.8 93.8 -93.7 -42 -93.7 -93.8 41.9 -93.7 93.7 -93.7zm406.3 468.7h-500l.9 -94.7 77.2 -77.2c9.1 -9.1 23 -8.2 32.2 1l77.2 77.2L515.7 516.6c9.2 -9.2 24 -9.2 33.2 0l77.2 77.2v218.7z"/></svg>