<svg height="1000" width="875" xmlns="http://www.w3.org/2000/svg"><path d="M562.5 265.6V0H171.9C145.9 0 125 20.9 125 46.9V500H15.6C7 500 0 507 0 515.6v31.3c0 8.6 7 15.6 15.6 15.6h275.2c5.9 0 11.3 3.3 14.1 8.6l38.9 77.7 110.9 -222c5.7 -11.6 22.3 -11.6 27.9 0l67.8 135.7h137.1c17.2 0 31.3 14.1 31.3 31.3S704.7 625 687.5 625H511.9l-43.1 -86.3 -111 222c-5.7 11.6 -22.3 11.6 -27.9 0L261.9 625H125v328.1c0 26 20.9 46.9 46.9 46.9h656.2c26 0 46.9 -20.9 46.9 -46.9V312.5H609.4c-25.8 0 -46.9 -21.1 -46.9 -46.9zm298.8 -60.5L670.1 13.7C661.3 4.9 649.4 0 636.9 0H625v250h250v-11.9c0 -12.3 -4.9 -24.2 -13.7 -33z"/></svg>