<svg height="1000" width="750" xmlns="http://www.w3.org/2000/svg"><path d="M437.5 265.6V0H46.9C20.9 0 0 20.9 0 46.9v906.2c0 26 20.9 46.9 46.9 46.9h656.2c26 0 46.9 -20.9 46.9 -46.9V312.5H484.4c-25.8 0 -46.9 -21.1 -46.9 -46.9zm133.8 350.6l22.1 22.1c12.2 12.2 12.2 32 0 44.2L535 740.9l58.8 58.7c12.2 12.2 12.2 32 0 44.2l-22.1 22.1c-12.2 12.2 -32 12.2 -44.2 0l-58.7 -58.8L410 865.8c-12.2 12.2 -32 12.2 -44.2 0l-22 -22c-12.3 -12.3 -12.3 -32 0 -44.2l58.7 -58.8L286.6 625H250v93.8C250 736 236 750 218.8 750h-31.3c-17.3 0 -31.2 -14 -31.2 -31.2V406.3c0 -17.3 13.9 -31.3 31.2 -31.3h156.3c69 0 125 56 125 125 0 47.3 -26.7 88 -65.4 109.2l65.4 65.4 58.3 -58.4c12.3 -12.2 32 -12.2 44.2 0zM343.8 531.3H250v-62.5h93.8c17.2 0 31.2 14 31.2 31.2s-14 31.3 -31.2 31.3zM750 238.1V250H500V0h11.9c12.5 0 24.4 4.9 33.2 13.7l191.2 191.4c8.8 8.8 13.7 20.7 13.7 33z"/></svg>