<svg height="1000" width="1125" xmlns="http://www.w3.org/2000/svg"><path d="M750 238.1c0 -12.3 -4.9 -24.2 -13.7 -33L545.1 13.7C536.3 4.9 524.4 0 511.9 0H500v250h250v-11.9zM375 656.3v-62.5c0 -17.3 14 -31.3 31.3 -31.3H750v-250H484.4c-25.8 0 -46.9 -21.1 -46.9 -46.9V0H46.9C20.9 0 0 20.9 0 46.9v906.2c0 26 20.9 46.9 46.9 46.9h656.2c26 0 46.9 -20.9 46.9 -46.9V687.5H406.3c-17.3 0 -31.3 -14 -31.3 -31.2zm740.3 -54.8L928.4 413.2c-19.6 -19.8 -53.4 -5.9 -53.4 22v127.3H750v125h125v127.3c0 27.9 33.8 41.8 53.4 22l186.9 -188.3c12.9 -13 12.9 -34 0 -47z"/></svg>