
  <svg height="1000" width="750.0" xmlns="http://www.w3.org/2000/svg">
    <path d="m750 238.2v11.8h-250v-250h11.8c12.5 0 24.4 4.9 33.2 13.7l191.3 191.3c8.5 8.5 13.7 20.2 13.7 33.2z m-312.5 27.4c0 25.8 21.1 46.9 46.9 46.9h265.6v640.6c0 25.9-21 46.9-46.9 46.9h-656.2c-25.9 0-46.9-21-46.9-46.9v-906.2c0-25.9 21-46.9 46.9-46.9h390.6v265.6z m187.5 281.3c0-41.9-50.7-62.5-80-33.1l-107.5 107.4v-74.3c0-25.9-21-46.9-46.9-46.9h-218.7c-25.9 0-46.9 21-46.9 46.9v218.7c0 25.9 21 46.9 46.9 46.9h218.7c25.9 0 46.9-21 46.9-46.9v-74.3l107.5 107.4c29.3 29.4 80 8.8 80-33.1v-218.7z" />
  </svg>
