<svg height="1000" width="750" xmlns="http://www.w3.org/2000/svg"><path d="M437.5 265.6V0H46.9C20.9 0 0 20.9 0 46.9v906.2c0 26 20.9 46.9 46.9 46.9h656.2c26 0 46.9 -20.9 46.9 -46.9V312.5H484.4c-25.8 0 -46.9 -21.1 -46.9 -46.9zM549 500h46.7c15 0 26.2 13.9 22.9 28.7l-74.3 328.1C542 867.6 532.4 875 521.5 875h-74.2c-10.8 0 -20.2 -7.4 -22.7 -17.8C374.2 655.1 384 698.6 374.6 641.4h-1c-2.1 27.9 -4.7 34 -50 215.8C321.1 867.6 311.7 875 301 875h-72.5c-10.9 0 -20.5 -7.6 -22.8 -18.4L131.8 528.5c-3.3 -14.6 7.8 -28.5 22.9 -28.5h47.8c11.2 0 20.9 7.8 23.1 18.9 30.5 152.4 39.2 213.9 41 238.7C269.7 737.7 280.9 693.8 324 518c2.6 -10.6 11.9 -17.8 22.9 -17.8h56.8c10.9 0 20.3 7.4 22.9 18 46.8 196.1 56.2 242.2 57.8 252.7C484 749 479.3 736.1 526.6 518.6c1.9 -11 11.5 -18.6 22.4 -18.6zM750 238.1V250H500V0h11.9c12.5 0 24.4 4.9 33.2 13.7l191.2 191.4c8.8 8.8 13.7 20.7 13.7 33z"/></svg>