
  <svg height="1000" width="875.0" xmlns="http://www.w3.org/2000/svg">
    <path d="m562.5 265.6c0 25.8 21.1 46.9 46.9 46.9h265.6v640.6c0 26-20.9 46.9-46.9 46.9h-656.2c-26 0-46.9-20.9-46.9-46.9v-328.1h136.9l68 135.7c5.6 11.6 22.2 11.6 27.9 0l110.9-222 43.2 86.3h175.6c17.2 0 31.2-14.1 31.2-31.2s-14-31.3-31.2-31.3h-137.1l-67.8-135.7c-5.6-11.6-22.2-11.6-27.9 0l-111 222-38.8-77.7c-2.8-5.3-8.2-8.6-14.1-8.6h-275.2c-8.6 0-15.6-7-15.6-15.6v-31.3c0-8.6 7-15.6 15.6-15.6h109.4v-453.1c0-26 20.9-46.9 46.9-46.9h390.6v265.6z m298.8-60.5c8.8 8.8 13.7 20.7 13.7 33v11.9h-250v-250h11.9c12.5 0 24.4 4.9 33.2 13.7z" />
  </svg>
