
  <svg height="1000" width="750.0" xmlns="http://www.w3.org/2000/svg">
    <path d="m750 238.2v11.8h-250v-250h11.8c12.5 0 24.4 4.9 33.2 13.7l191.3 191.3c8.5 8.5 13.7 20.2 13.7 33.2z m-265.6 74.3h265.6v640.6c0 25.9-21 46.9-46.9 46.9h-656.2c-25.9 0-46.9-21-46.9-46.9v-906.2c0-25.9 21-46.9 46.9-46.9h390.6v265.6c0 25.8 21.1 46.9 46.9 46.9z m-243.8 469.7l38.3-40.8c1.7-1.8 2.8-4.4 2.8-7.2 0-3.1-1.4-5.9-3.5-7.9l-79.7-70 79.7-70.1c2.1-2 3.5-4.8 3.5-7.9 0-2.8-1.1-5.4-2.8-7.2l-38.3-40.8c-1.9-2.1-4.6-3.4-7.7-3.4-2.7 0-5.3 1.1-7.2 2.9l-126.7 118.8c-2 1.9-3.3 4.6-3.3 7.6 0 3.1 1.3 5.8 3.3 7.7l126.7 118.8c1.9 1.8 4.5 2.9 7.2 2.9 3.1 0 5.8-1.3 7.7-3.4z m100.2 98.6c1 0.3 1.9 0.4 3 0.4 4.8 0 8.8-3.2 10.1-7.6l120-413.3c0.3-0.9 0.4-1.9 0.4-2.9 0-4.8-3.2-8.9-7.6-10.2l-53.6-15.5c-0.9-0.3-1.9-0.4-3-0.4-4.8 0-8.8 3.2-10.1 7.6l-120 413.3c-0.3 0.9-0.4 1.9-0.4 2.9 0 4.8 3.2 8.9 7.6 10.2z m314.1-216.9c2-1.9 3.3-4.6 3.3-7.7 0-3-1.3-5.7-3.3-7.6l-126.7-118.8c-1.9-1.8-4.4-2.9-7.2-2.9-3.1 0-5.8 1.3-7.7 3.4l-38.3 40.8c-1.7 1.8-2.8 4.4-2.8 7.2 0 3.1 1.4 5.9 3.6 7.9l79.6 70-79.6 70.1c-2.2 1.9-3.6 4.8-3.6 7.9 0 2.8 1.1 5.4 2.8 7.2l38.3 40.8c1.9 2.1 4.6 3.4 7.7 3.4 2.8 0 5.3-1.1 7.2-2.9z" />
  </svg>
