<svg height="1000" width="750" xmlns="http://www.w3.org/2000/svg"><path d="M750 238.2V250H500V0h11.8c12.5 0 24.4 4.9 33.2 13.7L736.3 205a46.9 -46.9 0 0 0 13.7 33.2zm-312.5 27.4V0H46.9C21 0 0 21 0 46.9v906.2C0 979 21 1000 46.9 1000h656.2c25.9 0 46.9 -21 46.9 -46.9V312.5H484.4c-25.8 0 -46.9 -21.1 -46.9 -46.9zM625 546.9v218.7c0 41.9 -50.7 62.5 -80 33.1L437.5 691.3v74.3c0 25.9 -21 46.9 -46.9 46.9H171.9c-25.9 0 -46.9 -21 -46.9 -46.9V546.9C125 521 146 500 171.9 500h218.7c25.9 0 46.9 21 46.9 46.9v74.3L545 513.8c29.3 -29.4 80 -8.8 80 33.1z"/></svg>