
  <svg height="1000" width="750.0" xmlns="http://www.w3.org/2000/svg">
    <path d="m437.5 265.6c0 25.8 21.1 46.9 46.9 46.9h265.6v640.6c0 26-20.9 46.9-46.9 46.9h-656.2c-26 0-46.9-20.9-46.9-46.9v-906.2c0-26 20.9-46.9 46.9-46.9h390.6v265.6z m-312.5-125v31.3c0 8.6 7 15.6 15.6 15.6h156.3c8.6 0 15.6-7 15.6-15.6v-31.3c0-8.6-7-15.6-15.6-15.6h-156.3c-8.6 0-15.6 7-15.6 15.6z m0 125v31.3c0 8.6 7 15.6 15.6 15.6h156.3c8.6 0 15.6-7 15.6-15.6v-31.3c0-8.6-7-15.6-15.6-15.6h-156.3c-8.6 0-15.6 7-15.6 15.6z m376.6 484.4c-8.2 0-15.9-4.8-19.9-12.7-23.3-46.6-90.3-59.3-128.9-27.7l-27.1-81.3c-6.4-19.2-24.3-32-44.4-32s-38.1 12.9-44.5 32l-35.6 106.7c-3 9-11.3 15-20.8 15h-24.1c-17.3 0-31.3 14-31.3 31.2s14 31.3 31.3 31.3h24.1c36.4 0 68.6-23.2 80.1-57.7l20.8-62.2 32.8 98.5c4 12 14.8 20.4 27.4 21.3 0.8 0 1.5 0.1 2.3 0.1 0 0-0.1 0 0 0 12.2 0 22.8-7 27.9-17.3l15-29.9c5.4-11 15.5-12.1 19.6-12.1s14.1 1.1 19.8 12.7c14.4 28.7 43.4 46.6 75.5 46.6h92.2c17.2 0 31.2-14 31.2-31.3s-14-31.2-31.2-31.2h-92.2z m234.7-544.9c8.8 8.8 13.7 20.7 13.7 33v11.9h-250v-250h11.9c12.5 0 24.4 4.9 33.2 13.7z" />
  </svg>
