
  <svg height="1000" width="1125.0" xmlns="http://www.w3.org/2000/svg">
    <path d="m750 238.1v11.9h-250v-250h11.9c12.5 0 24.4 4.9 33.2 13.7l191.2 191.4c8.8 8.8 13.7 20.7 13.7 33z m365.2 363.5c12.9 12.9 12.9 33.9 0 46.8l-186.9 188.5c-19.7 19.7-53.5 5.9-53.5-22.1v-127.3h-125v-125h125v-127.1c0-28 33.8-41.8 53.5-22.1z m-740.2 54.7c0 17.1 14.1 31.2 31.3 31.2h343.7v265.6c0 26-20.9 46.9-46.9 46.9h-656.2c-26 0-46.9-20.9-46.9-46.9v-906.2c0-26 20.9-46.9 46.9-46.9h390.6v265.6c0 25.8 21.1 46.9 46.9 46.9h265.6v250h-343.7c-17.2 0-31.3 14.1-31.3 31.3v62.5z" />
  </svg>
