<svg height="1000" width="750" xmlns="http://www.w3.org/2000/svg"><path d="M437.5 265.6V0H46.9C20.9 0 0 20.9 0 46.9v906.2c0 26 20.9 46.9 46.9 46.9h656.2c26 0 46.9 -20.9 46.9 -46.9V312.5H484.4c-25.8 0 -46.9 -21.1 -46.9 -46.9zM125 140.6c0 -8.6 7 -15.6 15.6 -15.6h156.3c8.6 0 15.6 7 15.6 15.6v31.3c0 8.6 -7 15.6 -15.6 15.6H140.6c-8.6 0 -15.6 -7 -15.6 -15.6v-31.3zm0 125c0 -8.6 7 -15.6 15.6 -15.6h156.3c8.6 0 15.6 7 15.6 15.6v31.3c0 8.6 -7 15.6 -15.6 15.6H140.6c-8.6 0 -15.6 -7 -15.6 -15.6v-31.3zM501.6 750h92.2c17.2 0 31.2 14 31.2 31.3s-14 31.2 -31.2 31.2h-92.2c-32.1 0 -61.1 -17.9 -75.5 -46.6 -5.7 -11.6 -15.8 -12.7 -19.8 -12.7s-14.2 1.1 -19.6 12.1l-15 29.9a31.2 -31.2 0 0 0 -27.9 17.3c-.8 0 -1.5 -.1 -2.3 -.1 -12.6 -.9 -23.4 -9.3 -27.4 -21.3l-32.8 -98.5 -20.8 62.2c-11.5 34.5 -43.7 57.7 -80.1 57.7h-24.1c-17.3 0 -31.3 -14 -31.3 -31.2S139 750 156.3 750h24.1c9.5 0 17.8 -6 20.8 -15l35.6 -106.7c6.4 -19.1 24.3 -32 44.5 -32s38 12.8 44.4 32l27.1 81.3c38.6 -31.6 105.6 -18.9 128.9 27.7 4 7.9 11.7 12.7 19.9 12.7zM736.3 205.1L545.1 13.7C536.3 4.9 524.4 0 511.9 0H500v250h250v-11.9c0 -12.3 -4.9 -24.2 -13.7 -33z"/></svg>