<svg height="1000" width="750" xmlns="http://www.w3.org/2000/svg"><path d="M562.5 500h-375v125h375V500zM736.3 205.1L545.1 13.7C536.3 4.9 524.4 0 511.9 0H500v250h250v-11.9c0 -12.3 -4.9 -24.2 -13.7 -33zm-298.8 60.5V0H46.9C20.9 0 0 20.9 0 46.9v906.2c0 26 20.9 46.9 46.9 46.9h656.2c26 0 46.9 -20.9 46.9 -46.9V312.5H484.4c-25.8 0 -46.9 -21.1 -46.9 -46.9zM125 140.6c0 -8.6 7 -15.6 15.6 -15.6h156.3c8.6 0 15.6 7 15.6 15.6v31.3c0 8.6 -7 15.6 -15.6 15.6H140.6c-8.6 0 -15.6 -7 -15.6 -15.6v-31.3zm0 125c0 -8.6 7 -15.6 15.6 -15.6h156.3c8.6 0 15.6 7 15.6 15.6v31.3c0 8.6 -7 15.6 -15.6 15.6H140.6c-8.6 0 -15.6 -7 -15.6 -15.6v-31.3zm500 593.8c0 8.6 -7 15.6 -15.6 15.6H453.1c-8.6 0 -15.6 -7 -15.6 -15.6v-31.3c0 -8.6 7 -15.6 15.6 -15.6h156.3c8.6 0 15.6 7 15.6 15.6v31.3zm0 -390.6v187.5c0 17.2 -14 31.2 -31.2 31.2H156.3c-17.3 0 -31.3 -14 -31.3 -31.2V468.8c0 -17.3 14 -31.3 31.3 -31.3h437.5c17.2 0 31.2 14 31.2 31.3z"/></svg>