
  <svg height="1000" width="750.0" xmlns="http://www.w3.org/2000/svg">
    <path d="m437.5 265.6c0 25.8 21.1 46.9 46.9 46.9h265.6v640.6c0 26-20.9 46.9-46.9 46.9h-656.2c-26 0-46.9-20.9-46.9-46.9v-906.2c0-26 20.9-46.9 46.9-46.9h390.6v265.6z m125 461v-15.7c0-12.9-10.5-23.4-23.4-23.4h-328.2c-12.9 0-23.4 10.5-23.4 23.4v15.7c0 12.9 10.5 23.4 23.4 23.4h328.2c12.9 0 23.4-10.5 23.4-23.4z m0-125v-15.7c0-12.9-10.5-23.4-23.4-23.4h-328.2c-12.9 0-23.4 10.5-23.4 23.4v15.7c0 12.9 10.5 23.4 23.4 23.4h328.2c12.9 0 23.4-10.5 23.4-23.4z m0-140.7c0-12.9-10.5-23.4-23.4-23.4h-328.2c-12.9 0-23.4 10.5-23.4 23.4v15.7c0 12.9 10.5 23.4 23.4 23.4h328.2c12.9 0 23.4-10.5 23.4-23.4v-15.7z m187.5-222.8v11.9h-250v-250h11.9c12.5 0 24.4 4.9 33.2 13.7l191.2 191.4c8.8 8.8 13.7 20.7 13.7 33z" />
  </svg>
