<svg height="1000" width="750" xmlns="http://www.w3.org/2000/svg"><path d="M437.5 265.6V0H46.9C20.9 0 0 20.9 0 46.9v906.2c0 26 20.9 46.9 46.9 46.9h656.2c26 0 46.9 -20.9 46.9 -46.9V312.5H484.4c-25.8 0 -46.9 -21.1 -46.9 -46.9zm117.4 208L437.5 656.3l117.4 182.6c9.9 15.6 -1.2 36.1 -19.7 36.1H467c-8.6 0 -16.6 -4.7 -20.7 -12.3C408 792 375 728.5 375 728.5c-12.5 28.9 -19.5 39.1 -71.5 134.4 -4.1 7.6 -11.9 12.3 -20.5 12.3h-68.2c-18.5 0 -29.6 -20.5 -19.7 -36.1L312.9 656.4 195.1 473.8c-10.1 -15.6 1.2 -36.1 19.7 -36.1h68c8.6 0 16.6 4.7 20.7 12.3 51 95.3 39.1 65.6 71.5 133.8 0 0 11.9 -22.9 71.5 -133.8 4.1 -7.6 12.1 -12.3 20.7 -12.3h68c18.5 -.2 29.6 20.3 19.7 35.9zM750 238.1V250H500V0h11.9c12.5 0 24.4 4.9 33.2 13.7l191.2 191.4c8.8 8.8 13.7 20.7 13.7 33z"/></svg>