
  <svg height="1000" width="1000.0" xmlns="http://www.w3.org/2000/svg">
    <path d="m31.3 562.5h218.7v125h-218.7c-17.2 0-31.3-14.1-31.3-31.2v-62.5c0-17.2 14.1-31.3 31.3-31.3z m955-357.4c8.8 8.8 13.7 20.7 13.7 33v11.9h-250v-250h11.9c12.5 0 24.4 4.9 33.2 13.7z m-298.8 60.5c0 25.8 21.1 46.9 46.9 46.9h265.6v640.6c0 26-20.9 46.9-46.9 46.9h-656.2c-26 0-46.9-20.9-46.9-46.9v-265.6h249.8v127.1c0 28 33.8 41.8 53.5 22.1l186.9-188.3c12.9-12.9 12.9-33.8 0-46.8l-186.7-188.5c-19.7-19.7-53.5-5.9-53.5 22.1v127.3h-250v-515.6c0-26 20.9-46.9 46.9-46.9h390.6v265.6z" />
  </svg>
