<svg height="1000" width="750" xmlns="http://www.w3.org/2000/svg"><path d="M437.5 265.6V0H46.9C20.9 0 0 20.9 0 46.9v906.2c0 26 20.9 46.9 46.9 46.9h656.2c26 0 46.9 -20.9 46.9 -46.9V312.5H484.4c-25.8 0 -46.9 -21.1 -46.9 -46.9zm149.3 412.8l-188.3 187c-13 12.9 -34 12.9 -47 0l-188.3 -187c-19.8 -19.6 -5.9 -53.4 22 -53.4h127.3V468.8c0 -17.3 14 -31.3 31.3 -31.3h62.5c17.2 0 31.2 14 31.2 31.3V625h127.3c27.9 0 41.8 33.8 22 53.4zM736.3 205.1L545.1 13.7C536.3 4.9 524.4 0 511.9 0H500v250h250v-11.9c0 -12.3 -4.9 -24.2 -13.7 -33z"/></svg>