<svg height="1000" width="1125" xmlns="http://www.w3.org/2000/svg"><path d="M426.1 828.4c-5.7 -11.6 -15.8 -12.7 -19.8 -12.7s-14.2 1.1 -19.6 12.1l-15 29.9c-12.4 25 -48.9 22.2 -57.6 -4.1l-32.8 -98.5 -20.8 62.2C249 851.8 216.8 875 180.4 875h-24.1C139 875 125 861 125 843.8s14 -31.3 31.3 -31.3h24.1c9.5 0 17.8 -6 20.8 -15l35.6 -106.7c6.4 -19.1 24.3 -32 44.5 -32s38 12.8 44.4 32l27.1 81.3c38.6 -31.6 105.6 -18.9 128.9 27.7 3.7 7.4 10.8 11.6 18.3 12.2V651.6L750 403.4v-90.9H484.4c-25.8 0 -46.9 -21.1 -46.9 -46.9V0H46.9C20.9 0 0 20.9 0 46.9v906.2c0 26 20.9 46.9 46.9 46.9h656.2c26 0 46.9 -20.9 46.9 -46.9V875l-250 -.2c-31.5 -.6 -59.7 -18.1 -73.9 -46.4zM750 238.1c0 -12.3 -4.9 -24.2 -13.7 -33L545.1 13.7C536.3 4.9 524.4 0 511.9 0H500v250h250v-11.9zM562.5 677.7v134.8h134.7L1013 494.6 880.4 362 562.5 677.7zm547.9 -350.9l-62.2 -62.2c-19.4 -19.4 -50.9 -19.4 -70.3 0l-53.3 53.2 132.6 132.6 53.2 -53.3c19.5 -19.4 19.5 -50.9 0 -70.3z"/></svg>