
  <svg height="1000" width="750.0" xmlns="http://www.w3.org/2000/svg">
    <path d="m437.5 265.6c0 25.8 21.1 46.9 46.9 46.9h265.6v640.6c0 26-20.9 46.9-46.9 46.9h-656.2c-26 0-46.9-20.9-46.9-46.9v-906.2c0-26 20.9-46.9 46.9-46.9h390.6v265.6z m133.8 350.6c-12.2-12.2-31.9-12.2-44.2 0l-58.4 58.4-65.3-65.4c38.7-21.2 65.3-61.9 65.3-109.2 0-69-55.9-125-125-125h-156.2c-17.3 0-31.3 14-31.3 31.2v312.5c0 17.3 14 31.3 31.3 31.3h31.2c17.3 0 31.3-14 31.3-31.3v-93.7h36.6l115.9 115.8-58.8 58.7c-12.2 12.3-12.2 32 0 44.2l22.1 22.1c12.2 12.2 32 12.2 44.2 0l58.7-58.7 58.8 58.8c12.2 12.2 32 12.2 44.2 0l22-22.1c12.3-12.2 12.3-32 0-44.2l-58.7-58.7 58.4-58.4c12.2-12.2 12.2-32 0-44.2z m-227.5-84.9h-93.8v-62.5h93.8c17.2 0 31.2 14 31.2 31.2s-14 31.3-31.2 31.3z m406.2-293.2v11.9h-250v-250h11.9c12.5 0 24.4 4.9 33.2 13.7l191.2 191.4c8.8 8.8 13.7 20.7 13.7 33z" />
  </svg>
