
  <svg height="1000" width="750.0" xmlns="http://www.w3.org/2000/svg">
    <path d="m437.5 265.6c0 25.8 21.1 46.9 46.9 46.9h265.6v640.6c0 26-20.9 46.9-46.9 46.9h-656.2c-26 0-46.9-20.9-46.9-46.9v-906.2c0-26 20.9-46.9 46.9-46.9h390.6v265.6z m149.3 412.8c19.8-19.6 5.9-53.4-22-53.4h-127.3v-156.3c0-17.2-14-31.2-31.3-31.2h-62.5c-17.2 0-31.2 14-31.2 31.2v156.3h-127.3c-27.9 0-41.8 33.8-22 53.4l188.3 187c13 12.9 34 12.9 47 0z m149.5-473.3c8.8 8.8 13.7 20.7 13.7 33v11.9h-250v-250h11.9c12.5 0 24.4 4.9 33.2 13.7z" />
  </svg>
