
  <svg height="1000" width="750.0" xmlns="http://www.w3.org/2000/svg">
    <path d="m378.3 529.7c17.2 0 30.3 5.3 39.7 15.8 18.7 21.3 19.1 63.9-0.4 86.1-9.6 11-23.3 16.6-41.2 16.6h-52.6v-118.5h54.5z m358-324.6c8.8 8.8 13.7 20.7 13.7 33v11.9h-250v-250h11.7c12.5 0 24.4 4.9 33.2 13.7z m-298.8 60.5c0 25.8 21.1 46.9 46.9 46.9h265.6v640.6c0 26-20.9 46.9-46.9 46.9h-656.2c-26 0-46.9-20.9-46.9-46.9v-906.2c0-26 20.9-46.9 46.9-46.9h390.6v265.6z m103.5 322.7c0-86.3-55.5-150.4-142.4-150.4h-158.2c-12.9 0-23.4 10.5-23.4 23.4v390.3c0 12.9 10.5 23.4 23.4 23.4h60.2c12.9 0 23.4-10.5 23.4-23.4v-111.8c43.6 0 217 24.8 217-151.5z" />
  </svg>
