<svg height="1000" width="750" xmlns="http://www.w3.org/2000/svg"><path d="M437.5 265.6V0H46.9C20.9 0 0 20.9 0 46.9v906.2c0 26 20.9 46.9 46.9 46.9h656.2c26 0 46.9 -20.9 46.9 -46.9V312.5H484.4c-25.8 0 -46.9 -21.1 -46.9 -46.9zm-125 523.5c0 20.9 -25.2 31.2 -40 16.6l-69.4 -71.3h-54.7c-12.9 0 -23.4 -10.6 -23.4 -23.5V601.6c0 -12.9 10.5 -23.5 23.4 -23.5h54.7l69.4 -71.3c14.8 -14.8 40 -4.3 40 16.6v265.7zm64.8 -93c17.8 -18.2 17.8 -47.1 0 -65.2 -43.1 -44.6 23.9 -109.8 67.2 -65.5 53.2 54.5 53.2 141.4 0 196.1C402 805.1 333.4 741.2 377.3 696.1zm168 -228.7c106.3 109.2 106.3 282.8 0 392.2C502.7 903.3 434 839.5 478.1 794.1c70.7 -72.6 70.9 -188.4 0 -261.3 -43.1 -44.5 24 -109.9 67.2 -65.4zM750 238.1V250H500V0h11.9c12.5 0 24.4 4.9 33.2 13.7l191.2 191.4c8.8 8.8 13.7 20.7 13.7 33z"/></svg>