
  <svg height="1000" width="750.0" xmlns="http://www.w3.org/2000/svg">
    <path d="m437.5 265.6c0 25.8 21.1 46.9 46.9 46.9h265.6v640.6c0 26-20.9 46.9-46.9 46.9h-656.2c-26 0-46.9-20.9-46.9-46.9v-906.2c0-26 20.9-46.9 46.9-46.9h390.6v265.6z m-187.5 281.3v-31.3c0-8.6-7-15.6-15.6-15.6h-15.6c-51.8 0-93.8 42-93.8 93.8v62.5c0 51.7 42 93.7 93.8 93.7h15.6c8.6 0 15.6-7 15.6-15.6v-31.3c0-8.6-7-15.6-15.6-15.6h-15.6c-17.3 0-31.3-14-31.3-31.2v-62.5c0-17.3 14-31.3 31.3-31.3h15.6c8.6 0 15.6-7 15.6-15.6z m86.5 203.1c45.6 0 82.8-33.8 82.8-75.4 0-20.9-9.5-40.9-26.1-55l-42.7-36.7c-2.7-2.3-4.2-4.9-4.2-7.5 0-6 8.7-12.9 20.4-12.9h23.9c8.7 0 15.7-7 15.7-15.6v-31.3c0-8.6-7-15.6-15.7-15.6h-23.9c-45.7 0-82.8 33.8-82.8 75.4 0 20.9 9.5 40.9 26 55l42.8 36.7c2.6 2.3 4.1 4.9 4.1 7.5 0 6.1-8.7 12.9-20.3 12.9h-24c-8.6 0-15.6 7-15.6 15.6v31.3c0 8.6 7 15.6 15.6 15.6h24z m163.5-234.4c0-8.6-7-15.6-15.6-15.6h-31.3c-8.6 0-15.6 7-15.6 15.6v40.6c0 69.3 25.2 134.6 70.9 183.8 5.9 6.4 14.2 10 22.9 10s16.9-3.6 22.8-10c45.7-49.2 70.9-114.5 70.9-183.8v-40.6c0-8.6-7-15.6-15.6-15.6h-31.3c-8.6 0-15.6 7-15.6 15.6v40.6c0 39.6-11.1 78.5-31.2 111.1-20.2-32.6-31.3-71.5-31.3-111.1v-40.6z m236.3-310.5c8.8 8.8 13.7 20.7 13.7 33v11.9h-250v-250h11.9c12.5 0 24.4 4.9 33.2 13.7z" />
  </svg>
