
  <svg height="1000" width="750.0" xmlns="http://www.w3.org/2000/svg">
    <path d="m562.5 500v125h-375v-125h375z m173.8-294.9c8.8 8.8 13.7 20.7 13.7 33v11.9h-250v-250h11.9c12.5 0 24.4 4.9 33.2 13.7z m-298.8 60.5c0 25.8 21.1 46.9 46.9 46.9h265.6v640.6c0 26-20.9 46.9-46.9 46.9h-656.2c-26 0-46.9-20.9-46.9-46.9v-906.2c0-26 20.9-46.9 46.9-46.9h390.6v265.6z m-312.5-125v31.3c0 8.6 7 15.6 15.6 15.6h156.3c8.6 0 15.6-7 15.6-15.6v-31.3c0-8.6-7-15.6-15.6-15.6h-156.3c-8.6 0-15.6 7-15.6 15.6z m0 125v31.3c0 8.6 7 15.6 15.6 15.6h156.3c8.6 0 15.6-7 15.6-15.6v-31.3c0-8.6-7-15.6-15.6-15.6h-156.3c-8.6 0-15.6 7-15.6 15.6z m500 593.8v-31.3c0-8.6-7-15.6-15.6-15.6h-156.3c-8.6 0-15.6 7-15.6 15.6v31.3c0 8.6 7 15.6 15.6 15.6h156.3c8.6 0 15.6-7 15.6-15.6z m0-390.6c0-17.3-14-31.3-31.2-31.3h-437.5c-17.3 0-31.3 14-31.3 31.3v187.5c0 17.2 14 31.2 31.3 31.2h437.5c17.2 0 31.2-14 31.2-31.2v-187.5z" />
  </svg>
