
  <svg height="1000" width="750.0" xmlns="http://www.w3.org/2000/svg">
    <path d="m750 238.2v11.8h-250v-250h11.8c13 0 24.7 5.2 33.2 13.7l191.3 191.3c8.5 8.5 13.7 20.2 13.7 33.2z m-265.6 74.3h265.6v640.6c0 25.9-21 46.9-46.9 46.9h-656.2c-25.9 0-46.9-21-46.9-46.9v-906.2c0-25.9 21-46.9 46.9-46.9h390.6v265.6c0 25.8 21.1 46.9 46.9 46.9z m-264.6 31.3c-51.8 0-93.7 41.9-93.7 93.7s41.9 93.8 93.7 93.8 93.8-42 93.8-93.8-42-93.7-93.8-93.7z m406.3 468.7v-218.7l-77.2-77.2c-9.2-9.2-24-9.2-33.2 0l-202.1 202.2-77.2-77.2c-9.2-9.2-23.1-10.1-32.2-1l-77.2 77.2-0.9 94.7h500z" />
  </svg>
