
  <svg height="1000" width="750.0" xmlns="http://www.w3.org/2000/svg">
    <path d="m437.5 265.6c0 25.8 21.1 46.9 46.9 46.9h265.6v640.6c0 26-20.9 46.9-46.9 46.9h-656.2c-26 0-46.9-20.9-46.9-46.9v-906.2c0-26 20.9-46.9 46.9-46.9h390.6v265.6z m111.5 234.4c-10.9 0-20.5 7.6-22.4 18.6-47.3 217.5-42.6 230.4-42.2 252.3-1.6-10.5-11-56.6-57.8-252.7-2.6-10.6-12-18-22.9-18h-56.8c-11 0-20.3 7.2-22.9 17.8-43.1 175.8-54.3 219.7-57.4 239.6-1.8-24.8-10.5-86.3-41-238.7-2.2-11.1-11.9-18.9-23.1-18.9h-47.8c-15.1 0-26.2 13.9-22.9 28.5l73.9 328.1c2.3 10.8 11.9 18.4 22.8 18.4h72.5c10.7 0 20.1-7.4 22.6-17.8 45.3-181.8 47.9-187.9 50-215.8h1c9.4 57.2-0.4 13.7 50 215.8 2.5 10.4 11.9 17.8 22.7 17.8h74.2c10.9 0 20.5-7.4 22.8-18.2l74.3-328.1c3.3-14.8-7.9-28.7-22.9-28.7h-46.7z m201-261.9v11.9h-250v-250h11.9c12.5 0 24.4 4.9 33.2 13.7l191.2 191.4c8.8 8.8 13.7 20.7 13.7 33z" />
  </svg>
