
  <svg height="1000" width="750.0" xmlns="http://www.w3.org/2000/svg">
    <path d="m736.3 205.1c8.8 8.8 13.7 20.7 13.7 33v11.9h-250v-250h11.9c12.5 0 24.4 4.9 33.2 13.7z m-485.5 451.2c34.9 0 63.5 23.6 63.5 52.7s-28.4 52.7-63.3 52.7-63.5-23.4-63.5-52.7c0-29.1 28.3-52.7 63.3-52.7z m186.7-390.7c0 25.8 21.1 46.9 46.9 46.9h265.6v640.6c0 26-20.9 46.9-46.9 46.9h-656.2c-26 0-46.9-20.9-46.9-46.9v-906.2c0-26 20.9-46.9 46.9-46.9h203.9v62.5h62.5v-62.5h124.2v265.6z m-250.2-203.1v62.5h62.5v-62.5h-62.5z m63.1 750c64.4 0 112.9-59 100.4-122.3l-33.8-171.3c-2.2-10.9-11.9-18.9-23.1-18.9h-43.1v-62.5h62.5v-62.5h-62.5v-62.5h62.5v-62.5h-62.5v-62.5h62.5v-62.5h-62.5v62.5h-62.5v62.5h62.5v62.5h-62.5v62.5h62.5v62.5h-62.5v62.5l-38.3 189.6c-12.9 63.5 35.5 122.9 100.4 122.9z" />
  </svg>
