<svg height="1000" width="1000" xmlns="http://www.w3.org/2000/svg"><path d="M31.3 562.5C14 562.5 0 576.5 0 593.8v62.5c0 17.2 14 31.2 31.3 31.2H250v-125H31.3zM687.5 265.6V0H296.9C270.9 0 250 20.9 250 46.9v515.6h250V435.2c0 -27.9 33.8 -41.8 53.4 -22l186.9 188.3c12.9 13 12.9 34 0 47L553.4 836.8c-19.6 19.8 -53.4 5.9 -53.4 -22V687.5H250v265.6c0 26 20.9 46.9 46.9 46.9h656.2c26 0 46.9 -20.9 46.9 -46.9V312.5H734.4c-25.8 0 -46.9 -21.1 -46.9 -46.9zm298.8 -60.5L795.1 13.7C786.3 4.9 774.4 0 761.9 0H750v250h250v-11.9c0 -12.3 -4.9 -24.2 -13.7 -33z"/></svg>