<svg height="1000" width="750" xmlns="http://www.w3.org/2000/svg"><path d="M750 238.2V250H500V0h11.8c12.5 0 24.4 4.9 33.2 13.7L736.3 205a46.9 -46.9 0 0 0 13.7 33.2zm-265.6 74.3c-25.8 0 -46.9 -21.1 -46.9 -46.9V0H46.9C21 0 0 21 0 46.9v906.2C0 979 21 1000 46.9 1000h656.2c25.9 0 46.9 -21 46.9 -46.9V312.5H484.4zM240.6 782.2a10.5 -10.5 0 0 0 -14.9 .5L99 663.9a10.5 -10.5 0 0 0 0 -15.3L225.7 529.8a10.5 -10.5 0 0 0 14.9 .5l38.3 40.8a10.5 -10.5 0 0 0 -.7 15.1l-79.7 70.1 79.7 70a10.5 -10.5 0 0 0 .7 15.1l-38.3 40.8zm100.2 98.6l-53.6 -15.5A10.6 -10.6 0 0 0 280 852.2L400 438.9a10.6 -10.6 0 0 0 13.1 -7.2l53.6 15.5a10.5 -10.5 0 0 0 7.2 13.1l-120 413.3a10.5 -10.5 0 0 0 -13.1 7.2zM654.9 663.9L528.2 782.7a10.5 -10.5 0 0 0 -14.9 -.5L475 741.4a10.5 -10.5 0 0 0 .8 -15.1l79.6 -70 -79.6 -70.1a10.5 -10.5 0 0 0 -.8 -15.1l38.3 -40.8a10.5 -10.5 0 0 0 14.9 -.5l126.7 118.8a10.5 -10.5 0 0 0 0 15.3z"/></svg>