<svg height="1000" width="750" xmlns="http://www.w3.org/2000/svg"><path d="M437.5 265.6V0H313.3v62.5h-62.5V0H46.9C20.9 0 0 20.9 0 46.9v906.2c0 26 20.9 46.9 46.9 46.9h656.2c26 0 46.9 -20.9 46.9 -46.9V312.5H484.4c-25.8 0 -46.9 -21.1 -46.9 -46.9zM187.3 62.5h62.5V125h-62.5V62.5zm63.1 750C185.5 812.5 137.1 753.1 150 689.6L188.3 500v-62.5h62.5V375h-62.5v-62.5h62.5V250h-62.5v-62.5h62.5V125h62.5v62.5h-62.5V250h62.5v62.5h-62.5V375h62.5v62.5h-62.5V500h43.1c11.2 0 20.9 8 23.1 18.9l33.8 171.3c12.5 63.3 -36 122.3 -100.4 122.3zM314.3 709c0 29.1 -28.4 52.7 -63.3 52.7S187.5 738.3 187.5 709c0 -29.1 28.3 -52.7 63.3 -52.7s63.5 23.6 63.5 52.7zM750 238.1V250H500V0h11.9c12.5 0 24.4 4.9 33.2 13.7l191.2 191.4c8.8 8.8 13.7 20.7 13.7 33z"/></svg>