<svg height="1000" width="750" xmlns="http://www.w3.org/2000/svg"><path d="M736.3 205.1L545.1 13.7C536.3 4.9 524.4 0 511.9 0H500v250h250v-11.9c0 -12.3 -4.9 -24.2 -13.7 -33zm-298.8 60.5V0H46.9C20.9 0 0 20.9 0 46.9v906.2c0 26 20.9 46.9 46.9 46.9h656.2c26 0 46.9 -20.9 46.9 -46.9V312.5H484.4c-25.8 0 -46.9 -21.1 -46.9 -46.9zM125 140.6c0 -8.6 7 -15.6 15.6 -15.6h156.3c8.6 0 15.6 7 15.6 15.6v31.3c0 8.6 -7 15.6 -15.6 15.6H140.6c-8.6 0 -15.6 -7 -15.6 -15.6v-31.3zm0 156.3v-31.3c0 -8.6 7 -15.6 15.6 -15.6h156.3c8.6 0 15.6 7 15.6 15.6v31.3c0 8.6 -7 15.6 -15.6 15.6H140.6c-8.6 0 -15.6 -7 -15.6 -15.6zm281.3 515.4v47.1c0 8.6 -7 15.6 -15.7 15.6h-31.2c-8.7 0 -15.6 -7 -15.6 -15.6v-47.5c-22.1 -1.1 -43.5 -8.8 -61.3 -22.1 -7.6 -5.8 -8 -17.2 -1.1 -23.7l22.9 -21.9c5.4 -5.2 13.5 -5.4 19.8 -1.5 7.6 4.8 16.1 7.3 25 7.3H404c12.7 0 23.1 -11.6 23.1 -25.8 0 -11.6 -7.1 -21.8 -17.1 -24.8L322.1 673c-36.3 -10.9 -61.7 -45.7 -61.7 -84.7 0 -47.9 37.2 -86.8 83.3 -88.1v-47.1c0 -8.6 7 -15.6 15.7 -15.6h31.2c8.6 0 15.6 7 15.6 15.6v47.5c22.1 1.1 43.5 8.8 61.3 22.1 7.6 5.8 8 17.2 1.1 23.7l-22.9 21.9c-5.4 5.2 -13.5 5.4 -19.8 1.5 -7.6 -4.8 -16.2 -7.3 -25.1 -7.3h-54.9c-12.7 0 -23 11.6 -23 25.8 0 11.6 7 21.8 17.1 24.8l87.9 26.4c36.3 10.9 61.7 45.7 61.7 84.7 0 47.9 -37.2 86.8 -83.3 88.1z"/></svg>