<svg height="1000" width="1000" xmlns="http://www.w3.org/2000/svg"><path d="M981.7 423.9L576.1 18.3C563.8 6.1 547.9 0 531.9 0s-32 6.1 -44.2 18.3L328.3 177.6 160 9.3c-12.2 -12.2 -32 -12.2 -44.2 0L71.7 53.5c-12.2 12.2 -12.2 32 0 44.2L240 266 54.9 451.1c-73.2 73.2 -73.2 191.9 0 265.1l228.9 228.9c36.6 36.6 84.6 54.9 132.6 54.9s95.9 -18.3 132.5 -54.9L981.7 512.3c24.4 -24.4 24.4 -63.9 0 -88.4zm-227 138.7H128.8c2.6 -7.5 6.9 -15.6 14.5 -23.1L169 513.8 328.4 354.4l114.4 114.4c24.4 24.4 64 24.4 88.4 0 24.4 -24.4 24.4 -63.9 0 -88.3L416.7 266 531.9 150.9l317.2 317.2 -94.4 94.5z"/></svg>