
  <svg height="1000" width="1000.0" xmlns="http://www.w3.org/2000/svg">
    <path d="m981.7 423.9c24.4 24.5 24.4 64 0 88.4l-432.8 432.8c-36.6 36.6-84.5 54.9-132.5 54.9-48 0-96-18.3-132.6-54.9l-228.9-228.9c-73.2-73.2-73.2-191.9 0-265.1l185.1-185.1-168.3-168.3c-12.2-12.2-12.2-32 0-44.2l44.1-44.2c12.2-12.2 32-12.2 44.2 0l168.3 168.3 159.4-159.3c12.2-12.2 28.2-18.3 44.2-18.3 16 0 32 6.1 44.2 18.3z m-227 138.7l94.4-94.5-317.2-317.2-115.2 115.1 114.5 114.5c24.4 24.4 24.4 63.9 0 88.3-24.4 24.4-64 24.4-88.4 0l-114.4-114.4-159.4 159.4-25.7 25.7c-7.6 7.5-11.9 15.6-14.5 23.1h625.9z" />
  </svg>
