
  <svg height="1000" width="1000.0" xmlns="http://www.w3.org/2000/svg">
    <path d="m953.1 125c26 0 46.9 20.9 46.9 46.9v656.2c0 26-20.9 46.9-46.9 46.9h-15.6v-39.1c0-12.9-10.5-23.4-23.4-23.4h-78.2c-12.9 0-23.4 10.5-23.4 23.4v39.1h-625v-39.1c0-12.9-10.5-23.4-23.4-23.4h-78.2c-12.9 0-23.4 10.5-23.4 23.4v39.1h-15.6c-26 0-46.9-20.9-46.9-46.9v-656.2c0-26 20.9-46.9 46.9-46.9h15.6v39.1c0 12.9 10.5 23.4 23.4 23.4h78.2c12.9 0 23.4-10.5 23.4-23.4v-39.1h625v39.1c0 12.9 10.5 23.4 23.4 23.4h78.2c12.9 0 23.4-10.5 23.4-23.4v-39.1h15.6z m-765.6 601.6v-78.2c0-12.9-10.5-23.4-23.4-23.4h-78.2c-12.9 0-23.4 10.5-23.4 23.4v78.2c0 12.9 10.5 23.4 23.4 23.4h78.2c12.9 0 23.4-10.5 23.4-23.4z m0-187.5v-78.2c0-12.9-10.5-23.4-23.4-23.4h-78.2c-12.9 0-23.4 10.5-23.4 23.4v78.2c0 12.9 10.5 23.4 23.4 23.4h78.2c12.9 0 23.4-10.5 23.4-23.4z m0-187.5v-78.2c0-12.9-10.5-23.4-23.4-23.4h-78.2c-12.9 0-23.4 10.5-23.4 23.4v78.2c0 12.9 10.5 23.4 23.4 23.4h78.2c12.9 0 23.4-10.5 23.4-23.4z m531.3 406.2v-187.5c0-12.9-10.6-23.4-23.5-23.4h-390.6c-12.9 0-23.4 10.5-23.4 23.4v187.5c0 12.9 10.5 23.5 23.4 23.5h390.6c12.9 0 23.5-10.6 23.5-23.5z m0-328.1v-187.5c0-12.9-10.6-23.4-23.5-23.4h-390.6c-12.9 0-23.4 10.5-23.4 23.4v187.5c0 12.9 10.5 23.4 23.4 23.4h390.6c12.9 0 23.5-10.5 23.5-23.4z m218.7 296.9v-78.2c0-12.9-10.5-23.4-23.4-23.4h-78.2c-12.9 0-23.4 10.5-23.4 23.4v78.2c0 12.9 10.5 23.4 23.4 23.4h78.2c12.9 0 23.4-10.5 23.4-23.4z m0-187.5v-78.2c0-12.9-10.5-23.4-23.4-23.4h-78.2c-12.9 0-23.4 10.5-23.4 23.4v78.2c0 12.9 10.5 23.4 23.4 23.4h78.2c12.9 0 23.4-10.5 23.4-23.4z m0-187.5v-78.2c0-12.9-10.5-23.4-23.4-23.4h-78.2c-12.9 0-23.4 10.5-23.4 23.4v78.2c0 12.9 10.5 23.4 23.4 23.4h78.2c12.9 0 23.4-10.5 23.4-23.4z" />
  </svg>
