
  <svg height="1000" width="1000.0" xmlns="http://www.w3.org/2000/svg">
    <path d="m500.2 480.4c25.9 0 46.9 21 46.9 46.9 3 193.5-31.2 344.9-57.6 438.5-5.8 20.7-24.6 34.2-45.1 34.2-40.9 0-50.5-40.6-45.1-59.6 38.2-136 56.3-272 54.1-413.1 0-25.9 21-46.9 46.8-46.9z m-1.6-159.6c111.2 1.6 203.1 91.6 204.9 200.6 1.5 99.4-5.9 199.4-22.1 297.1-1.5 9.1-14.8 45.1-53.8 38.6-25.5-4.2-42.9-28.4-38.6-53.9 15.2-92.2 22.2-186.5 20.7-280.3-0.9-58.9-51.4-107.5-112.5-108.4-67.5-0.3-107.2 51.6-106.4 102.2 1.6 100.5-7.8 201.1-28 298.9-5.3 25.4-29.9 41.6-55.4 36.4-25.4-5.2-41.7-30-36.4-55.4 18.7-91.1 27.5-184.8 26.1-278.4-1.7-105.5 81.8-197.6 201.5-197.4z m-216.2-38.7c20 16.4 23.1 45.9 6.8 66-36.7 45.1-55.6 99.8-54.7 158.1 1.2 79.4-5.2 159.2-19.3 237-1.6 8.9-15.2 44.6-54.4 37.8-25.5-4.6-42.4-29-37.9-54.5 13-71.8 19-145.4 17.8-218.8-1.2-79.6 25.7-157.3 75.7-218.8 16.4-20.1 45.8-23.1 66-6.8z m213.8-121.7c197.4 2.9 360.5 162.3 363.6 355.1 0.1 9.6 0.3 16.7 0.3 26.3 0 70.3-4 139.6-11.8 207.8-2.1 18-19.3 45-52 41.2-25.7-2.9-44.1-26.2-41.2-51.9 8.4-73.3 12.1-147.9 10.9-221.9-2.2-142.7-123.9-260.7-271.2-262.9-22.6-0.1-44.9 2.2-66.4 7.2-25.2 5.9-50.5-9.6-56.5-34.8-5.9-25.2 9.7-50.4 34.9-56.4 29.1-6.9 59.3-10.5 89.4-9.7z m492.3 237.2c12.2 55.1 11.7 98 11.4 141.3-0.2 25.7-21.2 46.5-46.9 46.5h-0.4c-25.9-0.2-46.7-21.4-46.5-47.3 0.4-47.2 0.1-78.5-9.1-120.3-5.6-25.3 10.3-50.3 35.6-55.9 25.6-5.7 50.3 10.5 55.9 35.7z m-78.4-177.2c14.9 21.2 9.8 50.4-11.4 65.3-21.2 14.8-50.4 9.8-65.2-11.4-78-111-205.5-178.5-341.1-180.5-110-1.6-212.7 39.2-288.4 115-72.5 72.5-111.6 168.9-110 271.5l-0.3 46.1c-0.7 25.4-21.6 45.5-46.8 45.5-0.5 0-0.9 0-1.4 0-25.9-0.7-46.2-22.3-45.5-48.2l0.3-42c-2.1-128.1 46.7-248.6 137.3-339.2 93.8-93.8 219.9-144.1 356.2-142.5 165.6 2.5 321.2 84.9 416.3 220.4z" />
  </svg>
