<svg height="1000" width="1000" xmlns="http://www.w3.org/2000/svg"><path d="M500.2 480.4c-25.8 0 -46.8 21 -46.8 46.9 2.2 141.1 -15.9 277.1 -54.1 413.1 -5.4 19 4.2 59.6 45.1 59.6 20.5 0 39.3 -13.5 45.1 -34.2 26.4 -93.6 60.6 -245 57.6 -438.5 0 -25.9 -21 -46.9 -46.9 -46.9zm-1.6 -159.6c-119.7 -.2 -203.2 91.9 -201.5 197.4 1.4 93.6 -7.4 187.3 -26.1 278.4 -5.3 25.4 11 50.2 36.4 55.4 25.5 5.2 50.1 -11 55.4 -36.4 20.1 -97.8 29.6 -198.4 28 -298.9C390 466.1 429.7 414.2 497.2 414.5c61.1 .9 111.6 49.5 112.5 108.4 1.5 93.8 -5.5 188.1 -20.7 280.3 -4.3 25.5 13.1 49.7 38.6 53.9 39 6.5 52.3 -29.5 53.8 -38.6C697.6 720.8 705 620.8 703.5 521.4c-1.8 -109 -93.7 -199 -204.9 -200.6zM282.4 282.1c-20.2 -16.3 -49.6 -13.3 -66 6.8 -50 61.5 -76.9 139.2 -75.7 218.8 1.2 73.4 -4.8 147 -17.8 218.8 -4.5 25.5 12.4 49.9 37.9 54.5 39.2 6.8 52.8 -28.9 54.4 -37.8 14.1 -77.8 20.5 -157.6 19.3 -237 -.9 -58.3 18 -113 54.7 -158.1 16.3 -20.1 13.2 -49.6 -6.8 -66zM496.2 160.4c-30.1 -.8 -60.3 2.8 -89.4 9.7 -25.2 6 -40.8 31.2 -34.9 56.4 6 25.2 31.3 40.7 56.5 34.8 21.5 -5 43.8 -7.3 66.4 -7.2 147.3 2.2 269 120.2 271.2 262.9 1.2 74 -2.5 148.6 -10.9 221.9 -2.9 25.7 15.5 49 41.2 51.9 32.7 3.8 49.9 -23.2 52 -41.2a1814.6 -1814.6 0 0 1 11.5 -234.1C856.7 322.7 693.6 163.3 496.2 160.4zm492.3 237.2c-5.6 -25.2 -30.3 -41.4 -55.9 -35.7 -25.3 5.6 -41.2 30.6 -35.6 55.9 9.2 41.8 9.5 73.1 9.1 120.3 -.2 25.9 20.6 47.1 46.5 47.3h.4c25.7 0 46.7 -20.8 46.9 -46.5 .3 -43.3 .8 -86.2 -11.4 -141.3zM910.1 220.4C815 84.9 659.4 2.5 493.8 0 357.5 -1.6 231.4 48.7 137.6 142.5 47.1 233.1 -1.8 353.6 .3 481.7l-.3 42c-.7 25.9 19.6 47.5 45.5 48.2 .5 0 .9 0 1.4 0 25.2 0 46.1 -20.1 46.8 -45.5l.3 -46.1c-1.6 -102.6 37.5 -199 110 -271.5C279.7 133 382.4 92.2 492.4 93.8c135.6 2 263.1 69.5 341.1 180.5 14.8 21.2 44 26.2 65.2 11.4 21.2 -14.9 26.3 -44.1 11.4 -65.3z"/></svg>