
  <svg height="1000" width="875.0" xmlns="http://www.w3.org/2000/svg">
    <path d="m847.7 51.4c14.3-2.4 27.3 8.7 27.3 23.1v226c0 14.4-13 25.5-27.3 23.1l-328.1-54.7c-22.9-3.8-19.6-28.7-19.6-34.5h-78.1v52.8c80.8 20.8 140.6 94.2 140.6 181.5v484.4c0 25.9-21 46.9-46.9 46.9h-281.2c-25.9 0-46.9-21-46.9-46.9v-482c0-87.7 59.5-162.6 140.6-183.8v-52.9c-119.2 0-181.5-13.7-237.7 126.8-9.6 24-36.9 35.7-60.9 26.1-24.1-9.6-35.8-36.9-26.1-61 28.6-71.6 74.2-152 175.8-177.5-27.6-71.3 25-148.8 102-148.8 73.2 0 125.7 70.5 104.9 140.6h113.9c0-8.2-2.6-30.8 19.6-34.5z m-566.4 89.2c17.2 0 31.2-14 31.2-31.2s-14-31.3-31.2-31.3-31.3 14-31.3 31.3 14 31.2 31.3 31.2z" />
  </svg>
