<svg height="1000" width="875" xmlns="http://www.w3.org/2000/svg"><path d="M847.7 51.4l-328.1 54.7c-22.2 3.7 -19.6 26.3 -19.6 34.5H386.1C406.9 70.5 354.4 0 281.3 0 204.2 0 151.6 77.5 179.2 148.8 77.6 174.3 32 254.7 3.4 326.3c-9.7 24.1 2 51.4 26.1 61 24 9.6 51.3 -2.1 60.9 -26.1C146.6 220.7 208.9 234.4 328.1 234.4v52.9C247 308.5 187.5 383.4 187.5 471.1v482c0 25.9 21 46.9 46.9 46.9h281.2c25.9 0 46.9 -21 46.9 -46.9V468.8C562.5 381.4 502.7 308 421.9 287.2v-52.8H500c0 5.8 -3.3 30.7 19.6 34.5l328.1 54.7C862 326 875 314.9 875 300.5v-226C875 60.1 862 49 847.7 51.4zm-566.4 89.2c-17.3 0 -31.3 -14 -31.3 -31.2s14 -31.3 31.3 -31.3 31.2 14 31.2 31.3 -14 31.2 -31.2 31.2z"/></svg>