<svg height="1000" width="1125" xmlns="http://www.w3.org/2000/svg"><path d="M0 156.3v687.5c0 51.7 42 93.7 93.8 93.7h93.7v-875H93.8C42 62.5 0 104.5 0 156.3zm250 781.2h625v-875H250v875zM375 453.1c0 -8.6 7 -15.6 15.6 -15.6H500V328.1c0 -8.6 7 -15.6 15.6 -15.6h93.8c8.6 0 15.6 7 15.6 15.6v109.4h109.4c8.6 0 15.6 7 15.6 15.6v93.8c0 8.6 -7 15.6 -15.6 15.6H625v109.4c0 8.6 -7 15.6 -15.6 15.6h-93.8c-8.6 0 -15.6 -7 -15.6 -15.6V562.5H390.6c-8.6 0 -15.6 -7 -15.6 -15.6v-93.8zM1031.3 62.5h-93.8v875h93.8c51.7 0 93.7 -42 93.7 -93.7V156.3c0 -51.8 -42 -93.8 -93.7 -93.8z"/></svg>