
  <svg height="1000" width="1125.0" xmlns="http://www.w3.org/2000/svg">
    <path d="m0 156.3c0-51.8 42-93.8 93.8-93.8h93.7v875h-93.7c-51.8 0-93.8-42-93.8-93.7v-687.5z m250 781.2v-875h625v875h-625z m125-484.4v93.8c0 8.6 7 15.6 15.6 15.6h109.4v109.4c0 8.6 7 15.6 15.6 15.6h93.8c8.6 0 15.6-7 15.6-15.6v-109.4h109.4c8.6 0 15.6-7 15.6-15.6v-93.8c0-8.6-7-15.6-15.6-15.6h-109.4v-109.4c0-8.6-7-15.6-15.6-15.6h-93.8c-8.6 0-15.6 7-15.6 15.6v109.4h-109.4c-8.6 0-15.6 7-15.6 15.6z m656.3-390.6c51.7 0 93.7 42 93.7 93.8v687.5c0 51.7-42 93.7-93.7 93.7h-93.8v-875h93.8z" />
  </svg>
