
  <svg height="1000" width="750.0" xmlns="http://www.w3.org/2000/svg">
    <path d="m500 312.5h-93.8c-11 0-21.4 2.2-31.2 5.7v-287c0-17.2 13.9-31.2 31.2-31.2h62.5c17.3 0 31.3 14 31.3 31.2v281.3z m250 187.5l0 172.3c0 51.7-21 98.7-54.9 132.6l-70.2 70.2v124.9h-499.9v-125l-51.8-51.8c-46.9-46.9-73.2-110.4-73.2-176.8v-152.2c9.8 3.6 20.2 5.8 31.3 5.8h62.5c24 0 45.8-9.4 62.5-24.4 16.6 15 38.3 24.4 62.5 24.4h62.5c15.4 0 29.8-4.1 42.7-10.8 14.6 31.9 42.2 56.5 75.9 67.3-33.4 28.9-61.7 67.3-92.4 113.4l-12.3 18.5c-1.7 2.5-2.7 5.5-2.7 8.7 0 5.4 2.8 10.2 7 13l26 17.3c2.5 1.7 5.4 2.7 8.6 2.7 5.5 0 10.2-2.8 13-7l12.4-18.5c62.3-93.4 100.6-137.3 187.6-141.7 8.3-0.4 15.4-7.3 15.4-15.6v-31.7c0-8.6-6.9-15.6-25.8-15.6h-68.9c-51.3 0-92.9-41.6-92.9-92.9v-1.1c0-17.2 13.9-31 31.1-31h219c69 0 124.9 56 125 125z m-62.6-176c-19.6-7-40.4-11.5-62.5-11.5h-62.5v-218.8c0-17.2 14-31.2 31.3-31.2h62.5c17.3 0 31.2 14 31.2 31.2v230.3z m-656.1 113.5c-17.3 0-31.3-14-31.3-31.2v-250c0-17.3 14-31.3 31.3-31.3h62.5c17.2 0 31.2 14 31.2 31.3v250c0 17.2-14 31.2-31.2 31.2h-62.5z m187.4 0c-17.2 0-31.2-14-31.2-31.2v-312.5c0-17.3 14-31.3 31.2-31.3h62.5c17.3 0 31.3 14 31.3 31.3v312.5c0 17.2-14 31.2-31.3 31.2h-62.5z" />
  </svg>
