
  <svg height="1000" width="1000.0" xmlns="http://www.w3.org/2000/svg">
    <path d="m682.7 192.9c79.1 0 161.4-31 228.5-62.2 41.4-19.2 88.8 11 88.8 56.7v474.8c0 20.6-10.1 39.9-27 51.5-70 48-145.2 79.8-239.3 79.8-131.6 0-218-68-322.7-68-99.3 0-168.2 19.7-223.5 43.2v184.4c0 25.9-21 46.9-46.9 46.9h-31.2c-25.9 0-46.9-21-46.9-46.9v-754c-28.3-19.8-46.9-52.6-46.9-89.7 0-61.9 51.5-111.8 114-109.3 55.6 2.3 101.1 46.8 104.6 102.3 0.1 2.4 0.1 4.7 0.1 7 0 13.8-2.5 26.9-7.1 39.1 40.5-14.9 84.1-23.5 132.9-23.5 131.5 0 218 67.9 322.6 67.9z" />
  </svg>
