<svg height="1000" width="1000" xmlns="http://www.w3.org/2000/svg"><path d="M682.7 192.9C578.1 192.9 491.6 125 360.1 125c-48.8 0 -92.4 8.6 -132.9 23.5a109.3 -109.3 0 0 1 7 -46.1C230.7 46.9 185.2 2.4 129.6 .1 67.1 -2.4 15.6 47.5 15.6 109.4c0 37.1 18.6 69.9 46.9 89.7v754c0 25.9 21 46.9 46.9 46.9h31.2c25.9 0 46.9 -21 46.9 -46.9V768.8C242.8 745.2 311.7 725.5 411 725.5c104.7 0 191.1 68 322.7 68 94.1 0 169.3 -31.8 239.3 -79.8 16.9 -11.6 27 -30.9 27 -51.5V187.4c0 -45.7 -47.4 -75.9 -88.8 -56.7 -67.1 31.2 -149.4 62.2 -228.5 62.2z"/></svg>