
  <svg height="1000" width="1000.0" xmlns="http://www.w3.org/2000/svg">
    <path d="m62.5 0c34.6 0 62.5 27.9 62.5 62.5v906.3c0 17.1-14.1 31.2-31.2 31.2h-62.5c-17.2 0-31.3-14.1-31.3-31.2v-906.3c0-34.6 27.9-62.5 62.5-62.5z m523.2 593c60.8 16 122.3 32.2 195.4 32.4 62.3 0 133.7-13.3 218.9-47.1v70.3c0 24.1-13.9 46.5-36.1 56.3-343.4 149.2-413.7-135-776.4 45.1v-135.4c180.1-77.9 286.5-51.1 398.2-21.6z m0-187.5c60.8 16 122.3 32.2 195.4 32.2 62.3 0 133.7-13.3 218.9-47.1v120.1c-180.1 78-286.5 51.2-398.2 21.7-112.3-29.5-229.1-58.6-414.3 14.9v-120.2c180.1-77.9 286.5-51.1 398.2-21.6z m18.6-245.9c-13.7-4.1-27.5-8.2-41.6-12.1v64.8c7.8 2.2 15.8 4.5 23.6 6.8 52.2 15.9 103.3 31.1 167.4 31.1 64.1 0 141.6-15.4 246.3-61.3v134.5c-180.1 77.8-286.5 51-398.2 21.7-112.3-29.5-229.1-58.4-414.3 14.9v-296.7c409-184.8 381.4 115.4 716-55.1 44.2-22.5 96.5 2.9 96.5 52v60.1c-205.5 95.9-294.5 69.7-395.7 39.3z m-291.8 90.6c17.2 0 31.3-13.9 31.3-31.3 0-17.3-14.1-31.2-31.3-31.2s-31.2 14.1-31.2 31.2c0 17.4 14 31.3 31.2 31.3z m0-109c17.2 0 31.3-14.1 31.3-31.2 0-17.4-14.1-31.3-31.3-31.3s-31.2 14.1-31.2 31.3c0 17.3 14 31.2 31.2 31.2z m125 93.6c17.2 0 31.3-14.1 31.3-31.3 0-17.4-14.1-31.2-31.3-31.2s-31.2 14-31.2 31.2c0 17.4 14 31.3 31.2 31.3z m0-109.2c17.2 0 31.3-14.1 31.3-31.3 0-17.3-14.1-31.2-31.3-31.2s-31.2 14-31.2 31.2c0 17.4 14 31.3 31.2 31.3z" />
  </svg>
