<svg height="1000" width="1000" xmlns="http://www.w3.org/2000/svg"><path d="M911.2 130.7c41.4 -19.2 88.8 11 88.8 56.7v474.8c0 20.6 -10.1 39.9 -27 51.5 -70 48 -145.2 79.8 -239.3 79.8 -131.6 0 -218 -68 -322.7 -68 -99.3 0 -168.2 19.7 -223.5 43.2v184.4c0 25.9 -21 46.9 -46.9 46.9h-31.2c-25.9 0 -46.9 -21 -46.9 -46.9v-754C34.2 179.3 15.6 146.5 15.6 109.4 15.6 47.5 67.1 -2.4 129.6 .1c55.6 2.3 101.1 46.8 104.6 102.3 1 16.3 -1.6 31.9 -7 46.1C267.7 133.6 311.3 125 360.1 125c131.5 0 218 67.9 322.6 67.9 79.1 0 161.4 -31 228.5 -62.2zM187.5 262.9v137.7c56.6 -20.8 100 -34.8 143.8 -40.8V220c-45.9 4.2 -79 19.1 -143.8 42.9zm431.3 18C567.2 271.8 521.3 253.6 475 239.2v131.7c47.2 13.1 92.9 32.1 143.8 43.6V280.9zm-287.5 78.9v136.8c64 -5.8 105.2 -1.3 143.7 7.4V370.9C425.7 357.2 384 352.5 331.3 359.8zM475 637.6c51.4 9.1 97.1 27.2 143.8 41.7V547.6C571.3 534.4 525.9 515.5 475 504v133.6zm-287.5 30.6c46.1 -16.4 93.3 -27.1 143.8 -32.4V496.6c-51 4.6 -92.5 15.7 -143.8 33.9v137.7zM906.3 235.4c-41.7 17.2 -91 34.4 -143.8 43.8v140.5c53.3 -8.5 97.7 -27.6 143.8 -46.7V235.4zm0 410V507.8c-43.4 27.7 -95.3 44.1 -143.8 50.8v139.8c49 -4.7 94.7 -21.6 143.8 -53zM618.8 414.5v133.1c50.1 13.9 91 18.2 143.7 11V419.7c-50.8 8.2 -97.5 5.2 -143.7 -5.2z"/></svg>