<svg height="1000" width="875" xmlns="http://www.w3.org/2000/svg"><path d="M847.5 253.8L683.7 90A93.8 -93.8 0 0 1 617.4 62.5H93.8C42 62.5 0 104.5 0 156.3v687.5c0 51.7 42 93.7 93.8 93.7h687.5c51.7 0 93.7 -42 93.7 -93.7V320.1a93.8 -93.8 0 0 1 -27.5 -66.3zm-410 558.7c-69 0 -125 -56 -125 -125s56 -125 125 -125 125 56 125 125 -56 125 -125 125zM625 217.7v196.4c0 12.9 -10.5 23.4 -23.4 23.4H148.4C135.5 437.5 125 427 125 414.1V210.9c0 -12.9 10.5 -23.4 23.4 -23.4h446.4c6.2 0 12.1 2.5 16.5 6.9l6.8 6.8a23.4 -23.4 0 0 0 6.9 16.5z"/></svg>