<svg height="1000" width="968.8" xmlns="http://www.w3.org/2000/svg"><path d="M671.9 390.6c-26 0 -46.9 20.9 -46.9 46.9s20.9 46.9 46.9 46.9 46.9 -20.9 46.9 -46.9 -20.9 -46.9 -46.9 -46.9zm-375 0c-26 0 -46.9 20.9 -46.9 46.9s20.9 46.9 46.9 46.9 46.9 -20.9 46.9 -46.9 -20.9 -46.9 -46.9 -46.9zm187.5 -375C216.8 15.6 0 232.4 0 500s216.8 484.4 484.4 484.4S968.8 767.6 968.8 500 752 15.6 484.4 15.6zM156.3 437.5c0 -77.7 62.8 -140.6 140.6 -140.6s140.6 62.9 140.6 140.6S374.6 578.1 296.9 578.1 156.3 515.2 156.3 437.5zm453.1 343.8h-250c-41.4 0 -41.4 -62.5 0 -62.5h250c41.4 0 41.4 62.5 0 62.5zm62.5 -203.2c-77.8 0 -140.6 -62.9 -140.6 -140.6S594.1 296.9 671.9 296.9s140.6 62.9 140.6 140.6S749.6 578.1 671.9 578.1z"/></svg>