
  <svg height="1000" width="968.8" xmlns="http://www.w3.org/2000/svg">
    <path d="m671.9 390.6c26 0 46.9 20.9 46.9 46.9s-20.9 46.9-46.9 46.9-46.9-20.9-46.9-46.9 20.9-46.9 46.9-46.9z m-375 0c26 0 46.9 20.9 46.9 46.9s-20.9 46.9-46.9 46.9-46.9-20.9-46.9-46.9 20.9-46.9 46.9-46.9z m187.5-375c267.6 0 484.4 216.8 484.4 484.4s-216.8 484.4-484.4 484.4-484.4-216.8-484.4-484.4 216.8-484.4 484.4-484.4z m-328.1 421.9c0 77.7 62.8 140.6 140.6 140.6s140.6-62.9 140.6-140.6-62.9-140.6-140.6-140.6-140.6 62.9-140.6 140.6z m453.1 343.8c41.4 0 41.4-62.5 0-62.5h-250c-41.4 0-41.4 62.5 0 62.5h250z m62.5-203.2c77.7 0 140.6-62.9 140.6-140.6s-62.9-140.6-140.6-140.6-140.6 62.9-140.6 140.6 62.8 140.6 140.6 140.6z" />
  </svg>
