
  <svg height="1000" width="1000.0" xmlns="http://www.w3.org/2000/svg">
    <path d="m906.3 250c51.7 0 93.7 42 93.7 93.8v437.5c0 51.7-42 93.7-93.7 93.7h-812.5c-51.8 0-93.8-42-93.8-93.7v-562.5c0-51.8 42-93.8 93.8-93.8h312.5l125 125h375z m-204.2 328.1v-31.2c0-17.3-14-31.3-31.2-31.3h-125v-125c0-17.2-14-31.2-31.3-31.2h-31.2c-17.2 0-31.3 14-31.3 31.2v125h-125c-17.2 0-31.2 14-31.2 31.3v31.2c0 17.3 14 31.3 31.2 31.3h125v125c0 17.2 14.1 31.2 31.3 31.2h31.2c17.3 0 31.3-14 31.3-31.2v-125h125c17.2 0 31.2-14 31.2-31.3z" />
  </svg>
