
  <svg height="1000" width="875.0" xmlns="http://www.w3.org/2000/svg">
    <path d="m843.8 812.5c17.2 0 31.2 14 31.2 31.3v62.5c0 17.2-14 31.2-31.2 31.2h-250c-17.3 0-31.3-14-31.3-31.2v-62.5c0-17.3 14-31.3 31.3-31.3h38.2l-45.5-125h-298l-45.5 125h38.2c17.3 0 31.3 14 31.3 31.3v62.5c0 17.2-14 31.2-31.3 31.2h-250c-17.2 0-31.2-14-31.2-31.2v-62.5c0-17.3 14-31.3 31.2-31.3h45.8l255.3-707.6c8.3-24.7 31.7-42.4 59.1-42.4h0 92.2l-0.1 0c27.5 0 50.8 17.7 59.2 42.4l255.3 707.6h45.7z m-498.4-281.2h184.2l-92.1-253z" />
  </svg>
