<svg height="1000" width="875" xmlns="http://www.w3.org/2000/svg"><path d="M296.9 812.5H250l51.9 -157.8h270l51.9 157.8h-45.7c-17.2 0 -31.2 14 -31.2 31.3v62.5c0 17.2 14 31.2 31.2 31.2h265.7c17.2 0 31.2 -14 31.2 -31.2v-62.5c0 -17.3 -14 -31.3 -31.2 -31.3h-52.3L538.1 83.5a31.3 -31.3 0 0 1 -29.5 -21H366.4a31.3 -31.3 0 0 1 -29.5 21l-253.4 729H31.3C14 812.5 0 826.5 0 843.8v62.5c0 17.2 14 31.2 31.3 31.2h265.6c17.2 0 31.2 -14 31.2 -31.2v-62.5c0 -17.3 -14 -31.3 -31.2 -31.3zM422.6 281.7c8.5 -29.7 12.9 -55 14.8 -67.7 1.6 12.8 5.7 38.1 15.1 67.8L533.2 524H340.6l82 -242.3z"/></svg>