<svg height="1000" width="968.8" xmlns="http://www.w3.org/2000/svg"><path d="M940.4 117.8C931.1 82.2 903.1 54.3 867.6 44.7 820.9 32.2 748 17.4 662.9 15.6l305.9 306.3c-1.6 -85 -16.1 -157.4 -28.4 -204.1zM28.3 882.2c9.4 35.6 37.3 63.5 72.9 73.1 46.7 12.5 119.5 27.3 204.7 29.1L0 678.1c1.6 85 16 157.4 28.3 204.1zM8.2 553.5l422.3 423.1C689.3 938.7 916.4 744.7 960.7 446.5L538.3 23.4C279.5 61.3 52.3 255.3 8.2 553.5zM627.9 312.1c6.1 -6 16 -6 22.1 0l22.1 22.1c6 6 6 16 0 22l-55.3 55.3 55.3 55.3c6 6.1 6 16 0 22.1l-22.1 22c-6.1 6.1 -16 6.1 -22.1 0l-55.2 -55.2L528.5 500l55.3 55.3c6 6 6 16 0 22l-22.1 22.1c-6 6.1 -16 6.1 -22.1 0l-55.2 -55.3 -44.2 44.2 55.3 55.3c6.1 6 6.1 16 0 22l-22.1 22.1c-6 6.1 -16 6.1 -22 0l-55.3 -55.3 -55.3 55.3c-6 6.1 -16 6.1 -22 0l-22.1 -22.1c-6.1 -6 -6.1 -16 0 -22L352 588.3l-55.3 -55.1c-6.1 -6.1 -6.1 -16 0 -22.1l22.1 -22c6 -6.1 16 -6.1 22 0l55.3 55.2 44.1 -44.1L385 444.9c-6.1 -6 -6.1 -16 0 -22l22 -22.1c6.1 -6.1 16 -6.1 22.1 0l55.3 55.3 44.1 -44.2 -55.3 -55.3c-6 -6 -6 -16 0 -22l22.1 -22.1c6.1 -6.1 16 -6.1 22.1 0l55.3 55.3 55.2 -55.7z"/></svg>