
  <svg height="1000" width="968.8" xmlns="http://www.w3.org/2000/svg">
    <path d="m940.4 117.8c12.3 46.7 26.8 119.1 28.4 204.1l-305.9-306.3c85.1 1.8 158 16.6 204.7 29.1 35.5 9.6 63.5 37.5 72.8 73.1z m-912.1 764.4c-12.3-46.7-26.7-119.1-28.3-204.1l305.9 306.3c-85.2-1.8-158-16.6-204.7-29.1-35.6-9.6-63.5-37.5-72.9-73.1z m-20.1-328.7c44.1-298.2 271.3-492.2 530.1-530.1l422.4 423.1c-44.3 298.2-271.4 492.2-530.2 530.1z m619.7-241.4l-55.2 55.7-55.3-55.3c-6.1-6.1-16-6.1-22.1 0l-22.1 22.1c-6 6-6 16 0 22l55.3 55.3-44.1 44.2-55.3-55.3c-6.1-6.1-16-6.1-22.1 0l-22 22.1c-6.1 6-6.1 16 0 22l55.2 55.3-44.1 44.1-55.3-55.2c-6-6.1-16-6.1-22 0l-22.1 22c-6.1 6.1-6.1 16 0 22.1l55.3 55.1-55.3 55.3c-6.1 6-6.1 16 0 22l22.1 22.1c6 6.1 16 6.1 22 0l55.3-55.3 55.3 55.3c6 6.1 16 6.1 22 0l22.1-22.1c6.1-6 6.1-16 0-22l-55.3-55.3 44.2-44.2 55.2 55.3c6.1 6.1 16.1 6.1 22.1 0l22.1-22.1c6-6 6-16 0-22l-55.3-55.3 44.2-44.3 55.2 55.2c6.1 6.1 16 6.1 22.1 0l22.1-22c6-6.1 6-16 0-22.1l-55.3-55.3 55.3-55.2c6-6.1 6-16.1 0-22.1l-22.1-22.1c-6.1-6-16-6-22.1 0z" />
  </svg>
