<svg height="1000" width="1125" xmlns="http://www.w3.org/2000/svg"><path d="M872.1 190.3C858.7 117.6 795.3 62.5 718.8 62.5c-76.7 0 -140.1 55.3 -153.4 128C247.6 220.6 -1 488.5 0 814.4c.2 68.2 56.8 123.1 125 123.1h593.8c17.2 0 31.2 -14 31.2 -31.2 0 -34.6 -28 -62.5 -62.5 -62.5H532.2l70 -94.4c47.1 -70.8 20.2 -172.5 -65.9 -208.2 -46.6 -19.4 -100.7 -9.1 -141.1 21.2l-63.9 48c-13.8 10.4 -33.4 7.7 -43.8 -6.2 -10.4 -13.8 -7.6 -33.4 6.2 -43.8l67.9 -50.9c72 -54.1 172.5 -54 244.4 0 21.3 15.9 89.6 76.3 79.7 182l231.5 246h176.6c17.2 0 31.2 -14 31.2 -31.2 0 -34.6 -28 -62.5 -62.5 -62.5H957.8L765.3 639.3 1067 470.1a113.6 -113.6 0 0 1 58 -99.1c0 -41.8 -22.9 -80 -59.5 -100.1C986.3 227.5 872.1 190.3 872.1 190.3zm-153.3 75.3c-25.9 0 -46.9 -21 -46.9 -46.8 0 -25.9 21 -46.9 46.9 -46.9 25.8 0 46.8 21 46.8 46.9 0 25.8 -21 46.8 -46.8 46.8z"/></svg>