<svg height="1000" width="968.8" xmlns="http://www.w3.org/2000/svg"><path d="M484.4 15.6C216.8 15.6 0 232.4 0 500s216.8 484.4 484.4 484.4S968.8 767.6 968.8 500 752 15.6 484.4 15.6zm156.2 328.2c34.6 0 62.5 27.9 62.5 62.5s-27.9 62.5 -62.5 62.5 -62.5 -28 -62.5 -62.5 28 -62.5 62.5 -62.5zm-312.5 0c34.6 0 62.5 27.9 62.5 62.5s-27.9 62.5 -62.5 62.5 -62.5 -28 -62.5 -62.5 28 -62.5 62.5 -62.5zm332.4 426.1c-43.7 -52.3 -108 -82.4 -176.1 -82.4S352 717.6 308.2 769.9c-26.4 31.9 -74.4 -8.2 -48 -40C315.8 663.3 397.7 625 484.4 625s168.5 38.3 224 105.1c26.6 31.6 -21.5 71.7 -47.9 39.8z"/></svg>