
  <svg height="1000" width="968.8" xmlns="http://www.w3.org/2000/svg">
    <path d="m484.4 15.6c267.6 0 484.4 216.8 484.4 484.4s-216.8 484.4-484.4 484.4-484.4-216.8-484.4-484.4 216.8-484.4 484.4-484.4z m156.2 328.2c-34.5 0-62.5 27.9-62.5 62.5s28 62.5 62.5 62.5 62.5-28 62.5-62.5-27.9-62.5-62.5-62.5z m-312.5 0c-34.5 0-62.5 27.9-62.5 62.5s28 62.5 62.5 62.5 62.5-28 62.5-62.5-27.9-62.5-62.5-62.5z m332.4 426.1c26.4 31.9 74.5-8.2 47.9-39.8-55.5-66.8-137.3-105.1-224-105.1s-168.6 38.3-224.2 104.9c-26.4 31.8 21.6 71.9 48 40 43.8-52.3 108-82.4 176.2-82.4s132.4 30.1 176.1 82.4z" />
  </svg>
