<svg height="1000" width="968.8" xmlns="http://www.w3.org/2000/svg"><path d="M484.4 15.6C216.8 15.6 0 232.4 0 500s216.8 484.4 484.4 484.4S968.8 767.6 968.8 500 752 15.6 484.4 15.6zM265.6 406.3c0 -34.6 28 -62.5 62.5 -62.5s62.5 27.9 62.5 62.5 -27.9 62.5 -62.5 62.5 -62.5 -28 -62.5 -62.5zm365.8 358c-60.9 -18.8 -116 -29.9 -147 -29.9s-86.2 11.1 -147.1 29.9c-22.5 6.8 -43.9 -12.3 -40 -35.4C310.9 650.8 414.6 609.4 484.4 609.4S657.8 651 671.5 728.9c3.9 23.2 -17.8 42.2 -40.1 35.4zm9.2 -295.5c-34.5 0 -62.5 -28 -62.5 -62.5s28 -62.5 62.5 -62.5 62.5 27.9 62.5 62.5 -27.9 62.5 -62.5 62.5z"/></svg>