
  <svg height="1000" width="968.8" xmlns="http://www.w3.org/2000/svg">
    <path d="m484.4 15.6c267.6 0 484.4 216.8 484.4 484.4s-216.8 484.4-484.4 484.4-484.4-216.8-484.4-484.4 216.8-484.4 484.4-484.4z m-218.8 390.7c0 34.5 28 62.5 62.5 62.5s62.5-28 62.5-62.5-27.9-62.5-62.5-62.5-62.5 27.9-62.5 62.5z m365.8 358c22.3 6.8 44-12.2 40.1-35.4-13.7-77.9-117.4-119.5-187.1-119.5s-173.5 41.4-187.1 119.5c-3.9 23.1 17.5 42.2 40 35.4 60.9-18.8 116-29.9 147.1-29.9s86.1 11.1 147 29.9z m9.2-295.5c34.6 0 62.5-28 62.5-62.5s-27.9-62.5-62.5-62.5-62.5 27.9-62.5 62.5 28 62.5 62.5 62.5z" />
  </svg>
