<svg height="1000" width="1250" xmlns="http://www.w3.org/2000/svg"><path d="M937.5 187.5h-625C139.8 187.5 0 327.3 0 500s139.8 312.5 312.5 312.5c87.5 0 166.4 -35.9 223 -93.7h178.8c56.6 57.8 135.7 93.7 223 93.7 172.7 0 312.5 -139.8 312.5 -312.5S1110.2 187.5 937.5 187.5zM500 539.1c0 12.9 -10.5 23.4 -23.4 23.4H375v101.6c0 12.9 -10.5 23.4 -23.4 23.4h-78.2C260.5 687.5 250 677 250 664.1V562.5H148.4C135.5 562.5 125 552 125 539.1v-78.2c0 -12.9 10.5 -23.4 23.4 -23.4H250V335.9c0 -12.9 10.5 -23.4 23.4 -23.4h78.2c12.9 0 23.4 10.5 23.4 23.4v101.6h101.6c12.9 0 23.4 10.5 23.4 23.4v78.2zm359.4 132.8c-51.8 0 -93.8 -42 -93.8 -93.8s42 -93.7 93.8 -93.7 93.7 42 93.7 93.7 -42 93.8 -93.7 93.8zm156.2 -156.3c-51.7 0 -93.7 -42 -93.7 -93.7s42 -93.8 93.7 -93.8 93.8 42 93.8 93.8 -42 93.7 -93.8 93.7z"/></svg>