
  <svg height="1000" width="1250.0" xmlns="http://www.w3.org/2000/svg">
    <path d="m937.6 187.5c172.5 0.1 312.4 140.1 312.4 312.6 0 172.4-140 312.5-312.5 312.5-87.4 0-166.4-36-223.1-93.9h-178.8c-56.7 57.9-135.7 93.8-223.1 93.8-172.5 0-312.5-140-312.5-312.5s140-312.5 312.5-312.5h625.1z m-453.2 335.9v-46.8c0-13-10.5-23.5-23.5-23.5h-101.5v-101.5c0-13-10.5-23.5-23.5-23.5h-46.8c-13 0-23.5 10.5-23.5 23.5v101.5h-101.5c-13 0-23.5 10.5-23.5 23.5v46.8c0 13 10.5 23.5 23.5 23.5h101.5v101.5c0 13 10.5 23.5 23.5 23.5h46.8c13 0 23.5-10.5 23.5-23.5v-101.5h101.5c13 0 23.5-10.5 23.5-23.5z m421.9 148.5c43.1 0 78.1-35 78.1-78.1s-35-78.2-78.1-78.2-78.2 35-78.2 78.2 35 78.1 78.2 78.1z m125-187.5c43.1 0 78.1-35 78.1-78.1s-35-78.2-78.1-78.2-78.2 35-78.2 78.2 35 78.1 78.2 78.1z" />
  </svg>
