<svg height="1000" width="1000" xmlns="http://www.w3.org/2000/svg"><path d="M656.3 875h-625C14.1 875 0 889.1 0 906.3v62.5c0 17.1 14.1 31.2 31.3 31.2h625c17.1 0 31.2 -14.1 31.2 -31.2v-62.5c0 -17.2 -14.1 -31.3 -31.2 -31.3zm307 -665.4L805.1 51.4C793 39.3 773 39.3 760.9 51.4l-22 22c-12.1 12.1 -12.1 32.1 0 44.2l73.6 73.6v121.3c0 54.9 40.8 100.2 93.8 107.8v314.1c0 25.8 -21.1 46.9 -46.9 46.9s-46.9 -21.1 -46.9 -46.9v-62.5C812.5 577 735.5 500 640.6 500H625V125C625 56.1 568.9 0 500 0H187.5c-68.9 0 -125 56.1 -125 125v687.5H625V593.8h15.6c43.2 0 78.2 34.9 78.2 78.1v54.3c0 73.6 52.7 140.6 125.9 148.2 84 8.4 155.3 -57.6 155.3 -140V298c0 -33.2 -13.3 -65 -36.7 -88.4zM500 375H187.5V125H500v250z"/></svg>