
  <svg height="1000" width="1000.0" xmlns="http://www.w3.org/2000/svg">
    <path d="m656.3 875c17.1 0 31.2 14.1 31.2 31.3v62.5c0 17.1-14.1 31.2-31.2 31.2h-625c-17.2 0-31.3-14.1-31.3-31.2v-62.5c0-17.2 14.1-31.3 31.3-31.3h625z m307-665.4c23.4 23.4 36.7 55.2 36.7 88.4v436.4c0 82.4-71.3 148.4-155.3 140-73.2-7.6-126-74.6-126-148.2v-54.3c0-43.2-34.9-78.2-78.1-78.2h-15.6v218.8h-562.5v-687.5c0-68.9 56.1-125 125-125h312.5c68.9 0 125 56.1 125 125v375h15.6c94.9 0 171.9 77 171.9 171.9v62.5c0 25.8 21.1 46.8 46.9 46.8s46.8-21 46.8-46.8v-314.1c-52.9-7.6-93.7-52.9-93.7-107.8v-121.3l-73.6-73.6c-12.1-12.1-12.1-32.1 0-44.2l22-22c12.1-12.1 32.1-12.1 44.2 0z m-463.3 165.4v-250h-312.5v250h312.5z" />
  </svg>
