<svg height="1000" width="1000" xmlns="http://www.w3.org/2000/svg"><path d="M986.3 389.4l-44.2 -44.2c-18.3 -18.3 -48 -18.3 -66.3 0l-11.1 11L643.8 135.3l11 -11.1c18.3 -18.3 18.3 -48 0 -66.3L610.6 13.7c-18.3 -18.3 -48 -18.3 -66.3 0l-243 243.1c-18.3 18.3 -18.3 48 0 66.3l44.2 44.2c18.3 18.3 47.9 18.3 66.2 0l11.1 -11.1 77.3 77.4L341.9 591.9l-11.1 -11.1c-24.4 -24.4 -64 -24.4 -88.4 0L18.3 804.9c-24.4 24.4 -24.4 64 0 88.4l88.4 88.4c24.4 24.4 64 24.4 88.4 0L419.2 757.6c24.4 -24.4 24.4 -64 0 -88.4l-11.1 -11.1L566.4 499.9l77.4 77.3 -11.1 11.1c-18.3 18.3 -18.3 47.9 0 66.2l44.2 44.2c18.3 18.3 48 18.3 66.3 0l243.1 -243c18.3 -18.3 18.3 -48 0 -66.3z"/></svg>