
  <svg height="1000" width="750.0" xmlns="http://www.w3.org/2000/svg">
    <path d="m363.5 0.2c212.3-6.4 386.5 163.9 386.5 374.8v531.2c0 27.8-33.7 41.8-53.3 22.1l-48.7-36.2c-13-9.7-31.3-7.8-42 4.3l-83.9 94.4c-12.2 12.2-32 12.2-44.2 0l-79.5-89.5c-12.5-14-34.3-14-46.8 0l-79.5 89.5c-12.2 12.2-32 12.2-44.2 0l-83.9-94.4c-10.7-12.1-29-14-42-4.3l-48.7 36.2c-19.6 19.7-53.3 5.7-53.3-22.1v-515.5c0-205.3 158.2-384.4 363.5-390.5z m-113.5 437.3c34.5 0 62.5-28 62.5-62.5s-28-62.5-62.5-62.5-62.5 28-62.5 62.5 28 62.5 62.5 62.5z m250 0c34.5 0 62.5-28 62.5-62.5s-28-62.5-62.5-62.5-62.5 28-62.5 62.5 28 62.5 62.5 62.5z" />
  </svg>
