<svg height="1000" width="1000" xmlns="http://www.w3.org/2000/svg"><path d="M62.5 875c0 34.6 27.9 62.5 62.5 62.5h312.5V625h-375v250zm875 -562.5h-82.2C867.4 288.9 875 262.7 875 234.4 875 139.6 797.9 62.5 703.1 62.5c-81.2 0 -133.8 41.6 -201.1 133.4C434.6 104.1 382 62.5 300.8 62.5c-94.7 0 -171.9 77.1 -171.9 171.9 0 28.3 7.4 54.5 19.7 78.1H62.5C27.9 312.5 0 340.4 0 375v156.3c0 17.1 14.1 31.2 31.3 31.2h937.5c17.1 0 31.2 -14.1 31.2 -31.2V375c0 -34.6 -27.9 -62.5 -62.5 -62.5zm-636.9 0c-43.2 0 -78.1 -35 -78.1 -78.1s34.9 -78.1 78.1 -78.1c38.9 0 67.6 6.4 168.2 156.2H300.6zm402.5 0H535C635.4 163.1 663.3 156.3 703.1 156.3c43.2 0 78.2 34.9 78.2 78.1s-35 78.1 -78.2 78.1zm-140.6 625H875c34.6 0 62.5 -27.9 62.5 -62.5V625h-375v312.5z"/></svg>