
  <svg height="1000" width="1250.0" xmlns="http://www.w3.org/2000/svg">
    <path d="m469.9 379.1c-54.3 13.5-94.9 62.5-94.9 120.9v437.5c0 22.9 6.6 43.9 17.4 62.5h-329.9c-34.6 0-62.5-27.9-62.5-62.5v-687.5c0-34.6 27.9-62.5 62.5-62.5h57.4l-59.9-43c-14.1-9.9-17.2-29.5-7.3-43.5l18.2-25.4c10-14.1 29.5-17.2 43.6-7.2l62.7 44.5-22.5-59.8c-6.3-16 1.9-34.2 18.2-40.2l29.2-10.9c16.3-6.1 34.2 2.1 40.3 18.3l38.9 103.7 38.8-103.5c6.1-16.2 24-24.4 40.3-18.4l29.2 11c16.3 6 24.5 24 18.4 40.2l-22.5 59.8 62.5-44.7c14.1-10.2 33.6-6.9 43.6 7.2l18.2 25.4c10.1 14 6.8 33.6-7.3 43.5l-59.9 43h57.4c24.8 0 45.7 14.6 55.9 35.7-52.2 36.4-82.3 95.7-86 155.9z m-32.4 558.4v-187.5h375v250h-312.5c-34.6 0-62.5-27.9-62.5-62.5z m437.5 62.5v-250h375v187.5c0 34.6-27.9 62.5-62.5 62.5h-312.5z m312.5-562.5c34.6 0 62.5 27.9 62.5 62.5v187.5h-375v-250h-29.9l-1.3-0.4-1.4 0.4h-29.9v250h-375v-187.5c0-34.6 27.9-62.5 62.5-62.5h39.8c-5.2-14.8-8.5-30.3-8.5-46.5 0-69.3 52.7-141 140.8-141 93.7 0 148 93.2 171.7 147.1 23.4-53.9 77.7-147.1 171.6-147.1 88.1 0 140.9 71.7 140.9 141 0 16.2-3.6 31.7-8.6 46.5h39.8z m-531.2 0h102.7c-17.4-40.2-50.4-93.7-86.9-93.7-34.6 0-47.1 28.3-47.1 47.2 0 10.2 2.9 24.6 17.2 37.1 4.1 3.5 8.8 6.7 14.1 9.4z m389-9.4c14.3-12.5 17.2-26.9 17.2-37.1 0-18.9-12.5-47.3-47.1-47.3-36.5 0-69.7 54.2-86.9 93.8h102.7c5.3-2.7 10-5.9 14.1-9.4z" />
  </svg>
