
  <svg height="1000" width="1000.0" xmlns="http://www.w3.org/2000/svg">
    <path d="m62.5 875v-250h375v312.5h-312.5c-34.6 0-62.5-27.9-62.5-62.5z m500 62.5v-312.5h375v250c0 34.6-27.9 62.5-62.5 62.5h-312.5z m375-625c34.6 0 62.5 27.9 62.5 62.5v156.3c0 17.1-14.1 31.2-31.2 31.2h-937.5c-17.2 0-31.3-14.1-31.3-31.2v-156.3c0-34.6 27.9-62.5 62.5-62.5h86.1c-12.3-23.6-19.7-49.8-19.7-78.1 0-94.8 77.2-171.9 171.9-171.9 81.2 0 133.8 41.6 201.2 133.4 67.3-91.8 119.9-133.4 201.1-133.4 94.8 0 171.9 77.1 171.9 171.9 0 28.3-7.6 54.5-19.7 78.1h82.2z m-636.9 0h168.1c-100.5-149.8-129.2-156.2-168.1-156.2-43.2 0-78.1 34.9-78.1 78.1s34.9 78.1 78.1 78.1z m402.5 0c43.2 0 78.2-35 78.2-78.1s-35-78.1-78.2-78.1c-39.8 0-67.7 6.8-168.1 156.2h168.1z" />
  </svg>
