<svg height="1000" width="1125" xmlns="http://www.w3.org/2000/svg"><path d="M1121.3 547.6l-88.6 -354.9c-11.5 -46.3 -42.2 -86 -84 -109C906.9 60.8 857 56.1 811.6 71.3l-29.7 10c-16.4 5.4 -25.3 23.1 -19.8 39.5l9.9 29.6c5.4 16.4 23.1 25.2 39.5 19.8l25.7 -8.6c21.3 -7 44.9 -7 64.8 3.4 20.1 10.5 34.3 28.4 39.8 50.4l75.1 300.5C973.6 502.6 919.6 491.5 858.3 491.5c-67.9 0 -144.5 13.7 -224.3 52.3H491.1C411.2 505.2 334.6 491.5 266.7 491.5c-61.3 0 -115.3 11 -158.6 24.3l75.1 -300.4c5.5 -22 19.7 -40 39.8 -50.4 19.9 -10.4 43.5 -10.5 64.8 -3.4l25.7 8.6c16.4 5.4 34.1 -3.4 39.5 -19.8l9.9 -29.6c5.5 -16.4 -3.4 -34.1 -19.8 -39.6l-29.8 -9.9C268 56.1 218.1 60.7 176.3 83.7c-41.9 23 -72.5 62.7 -84 109L3.7 547.6A125.4 -125.4 0 0 1 0 577.9v137.2c0 122.8 100.7 222.4 225 222.4h72.5c117.7 0 215.6 -89.7 224.4 -205.8l5.7 -75.4h69.8l5.7 75.4c8.8 116.1 106.7 205.8 224.4 205.8H900c124.3 0 225 -99.6 225 -222.4V577.9c0 -10.2 -1.2 -20.4 -3.7 -30.3zM397.2 722.2c-3.8 50.7 -47.6 90.3 -99.7 90.3H225c-55.1 0 -100 -43.7 -100 -97.4v-73.4c35.4 -12.6 84.8 -25.2 141.8 -25.2 46.6 0 92.3 8.5 136.5 25.2l-6.1 80.5zm602.8 -7.1c0 53.7 -44.9 97.4 -100 97.4h-72.5c-52.1 0 -95.9 -39.6 -99.7 -90.3l-6.1 -80.5c44.2 -16.7 90 -25.2 136.6 -25.2 56.9 0 106.3 12.6 141.7 25.3v73.3z"/></svg>