
  <svg height="1000" width="1250.0" xmlns="http://www.w3.org/2000/svg">
    <path d="m1248.8 846.9c3.3 8-0.6 17-8.4 20.3l-317.2 131.6c-7.8 3.3-16.9-0.4-20.3-8.4-16.6-39.8 2.4-85.5 42.2-102.1l43.2-18-76.8-202.3c-8.6 0.9-17.2 2.5-25.6 2.5-100.9 0-194.1-64.6-221.4-166.6l-39.5-147.3-39.5 147.3c-27.3 102-120.5 166.6-221.4 166.6-8.4 0-17-1.6-25.6-2.5l-77 202.3 43.2 18c39.8 16.6 58.6 62.3 42.2 102.1-3.3 8-12.3 11.7-20.3 8.4l-317-131.6c-8-3.3-11.7-12.5-8.4-20.5 16.6-39.9 62.1-58.8 101.9-42.2l43.2 18 75.6-199.1c-93.6-68.1-126.4-195.7-67.4-298.2l169.1-293.9c15.7-27.2 49.1-38.7 78.2-26.6l223.2 92.6 223.2-92.6c29.1-11.9 62.5-0.6 78.2 26.6l169.1 293.9c59.2 102.5 26.2 230.1-67.4 298.4l75.6 199.1 43.2-18c39.8-16.6 85.5 2.3 101.9 42.2z m-709.9-530.3l36.9-138.1-184.6-76.5-71.3 123.8z m172.2 0l219-90.8-71.3-123.8-184.6 76.5z" />
  </svg>
