<svg height="1000" width="968.8" xmlns="http://www.w3.org/2000/svg"><path d="M657.2 312.5C628.9 138.1 562.1 15.6 484.4 15.6S339.8 138.1 311.5 312.5h345.7zM296.9 500c0 43.4 2.3 85 6.4 125h361.9c4.1 -40 6.5 -81.6 6.5 -125s-2.4 -85 -6.5 -125H303.3c-4.1 40 -6.4 81.6 -6.4 125zM931.1 312.5C875.2 179.9 762.1 77.3 622.5 35.9c47.6 66.1 80.4 165.5 97.6 276.6h211zM346.1 35.9C206.6 77.3 93.4 179.9 37.7 312.5h210.9C265.6 201.4 298.4 102 346.1 35.9zM952 375H727.9c4.1 41 6.5 83 6.5 125s-2.4 84 -6.5 125h223.9c10.7 -40 16.8 -81.6 16.8 -125S962.5 415 952 375zM234.4 500c0 -42 2.3 -84 6.4 -125h-224C6.3 415 0 456.6 0 500s6.3 85 16.8 125h223.8c-3.9 -41 -6.2 -83 -6.2 -125zm77.1 187.5c28.3 174.4 95.1 296.9 172.9 296.9S628.9 861.9 657.2 687.5H311.5zm311.2 276.6c139.4 -41.4 252.7 -144 308.6 -276.6h-211c-17.2 111.1 -50 210.5 -97.6 276.6zM37.7 687.5c55.9 132.6 168.9 235.2 308.6 276.6C298.6 898 265.8 798.6 248.6 687.5H37.7z"/></svg>