
  <svg height="1000" width="968.8" xmlns="http://www.w3.org/2000/svg">
    <path d="m484.4 15.6c267.5 0 484.4 216.9 484.4 484.4s-216.9 484.4-484.4 484.4-484.4-216.9-484.4-484.4 216.9-484.4 484.4-484.4z m312.5 420.9c0-16.7 13.5-30.2 30.2-30.2h36c-37.2-150.4-161.5-266.4-316.2-291.5v42.4c0 16.7-13.6 30.3-30.3 30.3h-47.3c-10.1 0-19.5 5-25.1 13.5l-15.8 23.6c-4.2 6.3-10.6 10.8-17.9 12.6l-28.2 7c-13.5 3.4-22.9 15.5-22.9 29.4v8.6c0 16.7 13.5 30.3 30.2 30.3h175.9l0 0c8.4 0 16 3.4 21.4 8.8l13.5 13.6c5.7 5.6 13.4 8.8 21.5 8.8h19.7c16.7 0 30.2 13.6 30.2 30.3 0 13-8.3 24.6-20.7 28.7l-92.4 30.8c-7.6 2.6-15.9 2-23.1-1.6l-28.7-14.4c-14.8-7.4-31.2-11.3-47.7-11.3h-1.8c-23.9 0-46.2 8-64 21.4l-53.9 40.4c-26.8 20.1-42.6 51.8-42.6 85.3v27.5c0 29.4 11.9 56.1 31.2 75.4 20 20.1 47.2 31.3 75.5 31.3h50.5c16.7 0 30.3 13.6 30.3 30.3v58.4c0 24.7 5.9 48.2 16.2 68.9 9.2 18.3 28 29.9 48.5 29.9 18.8 0 35.4-9.5 45.1-24.1l25.5-38.2c14-21 30.2-39.9 48.8-56.9 4.8-4.5 8.1-10.3 9.3-16.8l8.4-44.5c0.8-4.6 2.7-8.9 5.5-12.6l36.6-48.8c3.9-5.2 6.1-11.6 6.1-18.2v-22.1c0-16.7-13.6-30.3-30.3-30.3h-16c-10.2 0-19.6-5-25.2-13.5l-25.9-38.7c-11-16.7-3.3-39.2 15.6-45.6l5.2-1.7c3-1 6.3-1.5 9.6-1.5 6.2 0 12 1.9 16.8 5.1l35.5 23.7c4.8 3.2 10.7 5 16.9 5 4.8 0 9.4-1.1 13.5-3.1l30-15.1c10.3-5.1 16.8-15.6 16.8-27v-13.6z" />
  </svg>
