<svg height="1000" width="968.8" xmlns="http://www.w3.org/2000/svg"><path d="M484.4 15.6C216.9 15.6 0 232.5 0 500s216.9 484.4 484.4 484.4S968.8 767.5 968.8 500 751.9 15.6 484.4 15.6zm160.7 698.5c-7.6 7.5 -15.6 15.5 -22.1 22 -5.8 5.9 -10 13.1 -12 20.9 -3 11.1 -5.4 22.2 -9.4 33l-33.9 91.5c-26.9 5.8 -54.7 9.1 -83.3 9.1v-53.5c3.3 -24.6 -14.9 -70.8 -44.2 -100 -11.7 -11.8 -18.3 -27.7 -18.3 -44.2v-62.6c0 -22.7 -12.3 -43.6 -32.2 -54.6 -28 -15.5 -68 -37.2 -95.3 -51C272 513.4 251.2 499 232.6 482.2l-1.6 -1.4a224.2 -224.2 0 0 0 -35.3 -40.5c-18.3 -26.9 -48.1 -71.1 -67.5 -99.9 40 -88.8 112 -160.2 201.5 -199l46.9 23.5c20.8 10.4 45.3 -4.7 45.3 -28v-22c15.6 -2.6 31.5 -4.2 47.6 -4.8l55.3 55.3c12.2 12.2 12.2 32 0 44.2l-9.2 9.2 -20.2 20.1c-6.1 6.1 -6.1 16 0 22.1l9.2 9.2c6.1 6.1 6.1 16 0 22.1L489 307.9a15.6 -15.6 0 0 0 -11.1 4.6h-17.5c-4.1 0 -8 1.6 -10.9 4.4l-19.4 18.9a15.6 -15.6 0 0 1 -3.1 18.1l30.4 61c5.2 10.4 -2.3 22.6 -13.9 22.6h-11c-3.8 0 -7.4 -1.4 -10.3 -3.8l-18.1 -15.8a31.3 -31.3 0 0 1 -30.4 -6l-60.8 20.2a23.3 -23.3 0 0 1 -16 22.2c0 8.8 5 16.9 12.9 20.9l21.6 10.8c18.4 9.2 38.7 14 59.2 14s44.2 53.3 62.5 62.5h130.4c16.6 0 32.5 6.6 44.2 18.3l26.8 26.7a59.6 -59.6 0 0 0 17.4 42.1 90.9 -90.9 0 0 0 -26.8 64.5zM814.5 535.6c-11.4 -2.8 -21.2 -9.7 -27.7 -19.4l-35.1 -52.7a46.8 -46.8 0 0 0 0 -52L790 354.1c4.5 -6.8 10.7 -12.3 18 -15.9l25.4 -12.7C859.8 378.1 875 437.2 875 500c0 16.9 -1.4 33.5 -3.6 49.9l-56.9 -14.3z"/></svg>