
  <svg height="1000" width="968.8" xmlns="http://www.w3.org/2000/svg">
    <path d="m484.4 15.6c267.6 0 484.4 216.8 484.4 484.4s-216.8 484.4-484.4 484.4-484.4-216.8-484.4-484.4 216.8-484.4 484.4-484.4z m390.6 484.4c0-215.4-175.2-390.6-391-390.6-3.7 0-7.4 0.4-11.1 0.6l-56.5 42.3c-3.9 3-6.2 7.7-6.2 12.5v39.1c0 8.6 7 15.6 15.6 15.6h31.2c8.6 0 15.7-7 15.7-15.6v-15.6l31.2-31.3h40.4c12.1 0 22.1 10 22.1 22.1 0 5.9-2.3 11.5-6.4 15.6l-52.4 52.4c-2.3 2.3-5.3 4.1-8.6 5.2l-78.1 26c-6.4 2.2-10.7 8.2-10.7 14.9 0 12.9-5.1 25.2-14.1 34.1l-39.3 39.3c-5.8 5.9-9.1 13.9-9.1 22.1v49.4c0 17.2 14 31.2 31.2 31.2h43.2c11.9 0 22.6-6.6 27.9-17.2l18.4-36.5c2.7-5.2 8.2-8.6 14-8.6h6.1c8.6 0 15.6 7.1 15.6 15.7 0 8.5 7 15.6 15.6 15.6h31.3c8.6 0 15.6-7.1 15.6-15.6v-4.3c0-6.9 4.3-12.7 10.7-14.9l61.8-20.5c12.7-4.3 21.3-16.2 21.3-29.7v-8.8c0-17.2 14-31.2 31.2-31.2h71.7c12.1 0 22.1 9.9 22.1 22.1v18.3c0 12.1-10 22.1-22.1 22.1h-62.5c-5.9 0-11.5 2.3-15.6 6.4l-18.4 18.4c-4.1 4.1-6.4 9.8-6.4 15.6 0 12.1 9.9 22.1 22 22.1h31.3c5.8 0 11.5 2.3 15.6 6.4l18.4 18.4c4.1 4.1 6.4 9.8 6.4 15.6v17l-24.4 24.4c-9 9-9 23.7-0.2 32.6l62.5 63.7c5.9 6.1 13.9 9.4 22.3 9.4h39.6c13.5-39.5 21.1-81.9 21.1-125.8z m-620.9-208.8c0 12.1 10 22.1 22.1 22.1h31.2c5.9 0 11.5-2.4 15.6-6.5l18.4-18.3c4.1-4.1 6.5-9.8 6.5-15.6v-31.3c0-12.1-10-22.1-22.1-22.1-5.9 0-11.5 2.4-15.6 6.5l-49.7 49.6c-4.1 4.1-6.4 9.8-6.4 15.6z m250 598.4c138.9-7 258.8-86.3 322.1-201.3h-26.2c-9.4 0-18.6-3.7-25.2-10.4l-33.8-33.8c-11.7-11.7-27.5-18.3-44.1-18.3h-35.8l-84.3-72.5c-16.1-13.7-36.6-21.3-57.9-21.3h-60.9c-16 0-31.8 4.5-45.7 12.7l-83.8 50.2c-26.7 16-43.1 44.9-43.1 76.2v46.7c0 27.9 13 54.3 35.5 71.1l43.4 32.6c17 12.7 48 23 69.1 23h39.5c17.1 0 31.2 14.1 31.2 31.3v13.8z" />
  </svg>
