
  <svg height="1000" width="968.8" xmlns="http://www.w3.org/2000/svg">
    <path d="m484.4 15.6c267.5 0 484.4 216.9 484.4 484.4s-216.9 484.4-484.4 484.4-484.4-216.9-484.4-484.4 216.9-484.4 484.4-484.4z m-22.2 469.2l34-56.5c3.5-5.9 12.1-5.5 15.1 0.6 2.6 5.3 8.1 8.6 14 8.6h5.9c8.7 0 15.7-7 15.7-15.6v-152.6c0-11.8-6.7-22.7-17.3-28l-21.1-10.5c-10.8-5.4-11.7-20.3-1.7-27l97.9-75.2c-37.9-12.4-78.3-19.2-120.3-19.2-215.4 0-390.7 175.2-390.7 390.6 0 21.3 2.2 42.1 5.5 62.5h122.2c8.3 0 16.3-3.3 22.1-9.2l38.1-38c7.5-7.5 20.2-5.5 25 4.1l44.2 88.3c5.3 10.6 16.1 17.3 27.9 17.3h11.9c17.3 0 31.3-14 31.3-31.3v-18.3c0-8.2-3.3-16.2-9.2-22l-11-11.1c-6.1-6.1-6.1-16 0-22.1l11-11c5.9-5.9 13.8-9.2 22.1-9.2h0.6c11 0 21.2-5.8 26.8-15.2z m334.7 215.3l0-48.1c0-8.3-3.3-16.2-9.2-22.1l-23.3-23.2c-2.9-3-4.5-7-4.5-11.1v-25.2c0-4.4-3.5-7.9-7.8-7.9h-11.9c-3.5 0-6.5 2.3-7.5 5.7l-8.2 28.2c-0.9 3.3-4 5.7-7.5 5.7h-7.4c-3.3-0.1-6-2-7.2-4.9l-10.5-25.1c-2.4-5.8-8.1-9.6-14.4-9.6h-23.6c0 0 0 0 0 0-3.4 0-6.5 1.1-9.1 2.9l-46.3 33c-3.4 2.4-7 4.4-10.9 6l-76.8 30.7c-6 2.4-9.9 8.1-9.9 14.5v19.9l0 0c0 4.3 1.8 8.3 4.6 11.1l23.3 23.2c5.8 5.9 13.8 9.2 22.1 9.2h20.2c2.5 0 5.1-0.3 7.5-0.9l41.6-10.4c4-1 8.3-1.6 12.7-1.6 14.4 0 27.5 5.9 36.9 15.3l25.4 25.4c5.9 5.9 13.8 9.2 22.1 9.2h29.6c8.3 0 16.3-3.3 22.1-9.2l18.7-18.7c5.9-5.8 9.2-13.8 9.2-22z" />
  </svg>
