<svg height="1000" width="968.8" xmlns="http://www.w3.org/2000/svg"><path d="M484.4 15.6C216.9 15.6 0 232.5 0 500s216.9 484.4 484.4 484.4S968.8 767.5 968.8 500 751.9 15.6 484.4 15.6zm312.5 420.9v13.6c0 11.4 -6.5 21.9 -16.8 27l-30 15.1a30.2 -30.2 0 0 0 -30.4 -1.9l-35.5 -23.7A30.3 -30.3 0 0 1 657.8 463l-5.2 1.7c-18.9 6.4 -26.6 28.9 -15.6 45.6l25.9 38.7c5.6 8.5 15 13.5 25.2 13.5h16c16.7 0 30.3 13.6 30.3 30.3v22.1c0 6.6 -2.2 13 -6.1 18.2l-36.6 48.8c-2.8 3.7 -4.6 8 -5.5 12.6l-8.4 44.5c-1.2 6.5 -4.5 12.3 -9.3 16.8a311.7 -311.7 0 0 1 -48.8 56.9l-25.5 38.2A54.2 -54.2 0 0 0 549.1 875c-20.5 0 -39.3 -11.6 -48.5 -29.9a154.1 -154.1 0 0 0 -16.2 -68.9v-58.4c0 -16.7 -13.6 -30.3 -30.3 -30.3h-50.5c-28.3 0 -55.5 -11.2 -75.5 -31.2a106.8 -106.8 0 0 0 -31.2 -75.5v-27.5c0 -33.5 15.8 -65.2 42.6 -85.3l53.9 -40.4a106.8 -106.8 0 0 0 64 -21.4h1.8c16.5 0 32.9 3.9 47.7 11.3l28.7 14.4c7.2 3.6 15.5 4.2 23.1 1.6l92.4 -30.8c12.4 -4.1 20.7 -15.7 20.7 -28.7 0 -16.7 -13.5 -30.3 -30.2 -30.3h-19.7c-8.1 0 -15.8 -3.2 -21.5 -8.8l-13.5 -13.6a30.3 -30.3 0 0 1 -21.4 -8.8H389.6c-16.7 0 -30.2 -13.6 -30.2 -30.3v-8.6c0 -13.9 9.4 -26 22.9 -29.4l28.2 -7c7.3 -1.8 13.7 -6.3 17.9 -12.6L444.2 201c5.6 -8.5 15 -13.5 25.1 -13.5h47.3c16.7 0 30.3 -13.6 30.3 -30.3v-42.4c154.7 25.1 279 141.1 316.2 291.5h-36c-16.7 0 -30.2 13.5 -30.2 30.2z"/></svg>