
  <svg height="1000" width="968.8" xmlns="http://www.w3.org/2000/svg">
    <path d="m484.4 15.6c267.5 0 484.4 216.9 484.4 484.4s-216.9 484.4-484.4 484.4-484.4-216.9-484.4-484.4 216.9-484.4 484.4-484.4z m160.7 698.5c16.5-16.5 26.8-39.3 26.8-64.5l0 0c0-16.4-6.7-31.3-17.4-42.1l-26.8-26.7c-11.7-11.7-27.6-18.3-44.2-18.3h-130.4c-18.3-9.2-41.9-62.5-62.5-62.5-20.5 0-40.8-4.8-59.2-14l-21.6-10.8c-7.9-4-12.9-12.1-12.9-20.9h0c0-10.3 6.7-19.1 16-22.2l60.8-20.2c3.1-1.1 6.5-1.6 9.9-1.6 7.8 0 15 2.8 20.5 7.6l18.1 15.8c2.9 2.4 6.5 3.8 10.3 3.8h11c11.6 0 19.1-12.2 13.9-22.6l-30.4-61c-1.1-2.1-1.7-4.4-1.7-6.9 0-4.4 1.9-8.4 4.8-11.2l19.4-18.9c2.9-2.8 6.8-4.4 10.9-4.4h17.5l0 0c4.3 0 8.2-1.8 11.1-4.6l15.6-15.6c6.1-6.1 6.1-16 0-22.1l-9.2-9.2c-6.1-6.1-6.1-16 0-22.1l20.2-20.1 9.2-9.2c12.2-12.2 12.2-32 0-44.2l-55.3-55.3c-16.1 0.6-32 2.2-47.6 4.8v22c0 23.3-24.5 38.4-45.3 28l-46.9-23.5c-89.5 38.8-161.5 110.2-201.5 199 19.4 28.8 49.2 73 67.5 99.9 10.2 15 21.9 28.4 35.3 40.5l1.6 1.4c18.6 16.8 39.4 31.2 61.8 42.5 27.3 13.8 67.3 35.5 95.3 51 19.9 11 32.2 31.9 32.2 54.6v62.6c0 16.5 6.6 32.4 18.3 44.2 29.3 29.2 47.5 75.4 44.2 100v53.5c28.6 0 56.4-3.3 83.3-9.1l33.9-91.5c4-10.8 6.4-21.9 9.4-33 2-7.8 6.2-15 12-20.9 6.5-6.5 14.5-14.5 22.1-22z m169.4-178.5l56.9 14.3c2.2-16.4 3.6-33 3.6-49.9 0-62.8-15.2-121.9-41.6-174.5l-25.4 12.7c-7.3 3.6-13.5 9.1-18 15.9l-38.3 57.4c-5 7.4-7.9 16.5-7.9 26 0 9.6 2.9 18.6 7.9 26l35.1 52.7c6.5 9.7 16.3 16.6 27.7 19.4z" />
  </svg>
