<svg height="1000" width="968.8" xmlns="http://www.w3.org/2000/svg"><path d="M484.4 15.6C216.9 15.6 0 232.5 0 500s216.9 484.4 484.4 484.4S968.8 767.5 968.8 500 751.9 15.6 484.4 15.6zm-22.2 469.2c-5.6 9.4 -15.8 15.2 -26.8 15.2h-.6c-8.3 0 -16.2 3.3 -22.1 9.2l-11 11c-6.1 6.1 -6.1 16 0 22.1l11 11.1c5.9 5.8 9.2 13.8 9.2 22v18.4c0 17.2 -14 31.2 -31.3 31.2h-11.9c-11.8 0 -22.6 -6.7 -27.9 -17.3l-44.2 -88.3c-4.8 -9.6 -17.5 -11.6 -25 -4.1l-38.1 38c-5.8 5.9 -13.8 9.2 -22.1 9.2H99.2C95.9 542.1 93.8 521.3 93.8 500 93.8 284.6 269 109.4 484.4 109.4c42 0 82.4 6.8 120.3 19.2l-97.9 75.2c-10 6.7 -9.1 21.6 1.7 27l21.1 10.5c10.6 5.3 17.3 16.2 17.3 28v152.6c0 8.6 -7 15.6 -15.6 15.6h-6c-5.9 0 -11.4 -3.3 -14 -8.6 -3 -6.1 -11.6 -6.5 -15.1 -.6l-34 56.5zm334.7 215.3c0 8.2 -3.3 16.2 -9.2 22L769 740.8c-5.8 5.9 -13.8 9.2 -22.1 9.2h-29.6c-8.3 0 -16.2 -3.3 -22.1 -9.2l-25.4 -25.4a52.3 -52.3 0 0 1 -49.6 -13.7l-41.6 10.4c-2.4 .6 -5 .9 -7.5 .9h-20.2c-8.3 0 -16.3 -3.3 -22.1 -9.2l-23.3 -23.2a15.6 -15.6 0 0 0 -4.6 -11.1v-19.9c0 -6.4 3.9 -12.1 9.9 -14.5l76.8 -30.7c3.9 -1.6 7.5 -3.6 10.9 -6l46.3 -33a15.6 -15.6 0 0 0 9.1 -2.9h23.6c6.3 0 12 3.8 14.4 9.6l10.5 25.1a7.8 -7.8 0 0 1 7.2 4.9h7.4c3.5 0 6.6 -2.4 7.5 -5.7l8.2 -28.2c1 -3.4 4 -5.7 7.5 -5.7h11.9c4.3 0 7.8 3.5 7.8 7.9v25.2c0 4.1 1.6 8.1 4.5 11.1l23.3 23.2c5.9 5.9 9.2 13.8 9.2 22.1v48.1z"/></svg>