
  <svg height="1000" width="968.8" xmlns="http://www.w3.org/2000/svg">
    <path d="m657.2 312.5h-345.7c28.3-174.4 95.1-296.9 172.9-296.9s144.5 122.5 172.8 296.9z m-360.3 187.5c0-43.4 2.3-85 6.4-125h361.9c4.1 40 6.5 81.6 6.5 125s-2.4 85-6.5 125h-361.9c-4.1-40-6.4-81.6-6.4-125z m634.2-187.5h-211c-17.2-111.1-50-210.5-97.6-276.6 139.6 41.4 252.7 144 308.6 276.6z m-585-276.6c-47.7 66.1-80.5 165.5-97.5 276.6h-210.9c55.7-132.6 168.9-235.2 308.4-276.6z m605.9 339.1c10.5 40 16.6 81.6 16.6 125s-6.1 85-16.8 125h-223.9c4.1-41 6.5-83 6.5-125s-2.4-84-6.5-125h224.1z m-717.6 125c0 42 2.3 84 6.2 125h-223.8c-10.6-40-16.8-81.6-16.8-125s6.2-85 16.8-125h224c-4.1 41-6.4 83-6.4 125z m77.1 187.5h345.7c-28.3 174.4-95.1 296.9-172.8 296.9s-144.6-122.5-172.9-296.9z m311.2 276.6c47.6-66.1 80.4-165.5 97.6-276.6h211c-55.9 132.6-169.2 235.2-308.6 276.6z m-585-276.6h210.9c17.2 111.1 50 210.5 97.7 276.6-139.7-41.4-252.7-144-308.6-276.6z" />
  </svg>
