
  <svg height="1000" width="1000.0" xmlns="http://www.w3.org/2000/svg">
    <path d="m968.8 687.5c17.1 0 31.2 14.1 31.2 31.3v250c0 17.1-14.1 31.2-31.2 31.2h-156.3v-312.5h-62.5v-250h-62.5v-187.5h-62.5v187.5h62.5v250h62.5v312.5h-156.2v-156.2c0-17.2-14.1-31.3-31.3-31.3h-125c-17.2 0-31.2 14.1-31.2 31.3v156.2h-156.3v-312.5h62.5v-250h62.5v-187.5h-62.5v187.5h-62.5v250h-62.5v312.5h-156.2c-17.2 0-31.3-14.1-31.3-31.2v-250c0-17.2 14.1-31.3 31.3-31.3h31.2v-218.7c0-17.2 14.1-31.3 31.3-31.3h31.2v-156.2c0-17.2 14.1-31.3 31.3-31.3h31.2v-218.7c0-17.2 14.1-31.3 31.3-31.3s31.2 14.1 31.2 31.3v31.2h125v-31.2c0-17.2 14.1-31.3 31.3-31.3s31.2 14.1 31.2 31.3v31.2h125v-31.2c0-17.2 14.1-31.3 31.3-31.3s31.2 14.1 31.2 31.3v31.2h125v-31.2c0-17.2 14.1-31.3 31.3-31.3s31.2 14.1 31.2 31.3v218.7h31.3c17.1 0 31.2 14.1 31.2 31.3v156.2h31.3c17.1 0 31.2 14.1 31.2 31.3v218.7h31.3z m-515.7-343.7v93.7h93.8v-93.7c0-17.2-14.1-31.3-31.3-31.3h-31.2c-17.2 0-31.3 14.1-31.3 31.3z m109.4 343.7v-125c0-17.2-14.1-31.2-31.2-31.2h-62.5c-17.2 0-31.3 14-31.3 31.2v125h125z" />
  </svg>
