
  <svg height="1000" width="1250.0" xmlns="http://www.w3.org/2000/svg">
    <path d="m1215.5 299.2c46 14.2 46 74.9 0 89.1l-544.8 167.4c-39.8 12.2-73.7 5.4-91.4 0l-382-117.4c-23.9 16.4-38.9 42.4-40.4 71.7 18 11 30.6 29.9 30.6 52.5 0 21.1-11.1 38.8-27.1 50.1l49.9 224.4c4.3 19.5-10.5 38-30.5 38h-109.6c-20 0-34.8-18.5-30.5-38l49.9-224.4c-16-11.3-27.1-29-27.1-50.1 0-23.2 13.2-42.7 32.1-53.5 1.2-34.4 14-65.8 34.9-91.6l-95-29.1c-46-14.2-46-75 0-89.1l544.8-167.4c29.7-9.1 61.7-9.1 91.4 0z m-526.5 316.2l283.3-87 27.7 221.6c0 69-167.9 125-375 125s-375-56-375-125l27.7-221.6 283.2 87c24.9 7.7 72.4 17.1 128.1 0z" />
  </svg>
