<svg height="1000" width="1250" xmlns="http://www.w3.org/2000/svg"><path d="M1215.5 299.2L670.7 131.8c-29.7 -9.1 -61.7 -9.1 -91.4 0L34.5 299.2c-46 14.1 -46 74.9 0 89.1l95 29.1C108.6 443.2 95.8 474.6 94.6 509c-18.9 10.8 -32.1 30.3 -32.1 53.5 0 21.1 11.1 38.8 27.1 50.1L39.7 837c-4.3 19.5 10.5 38 30.5 38h109.6c20 0 34.8 -18.5 30.5 -38L160.4 612.6c16 -11.3 27.1 -29 27.1 -50.1 0 -22.6 -12.6 -41.5 -30.6 -52.5 1.5 -29.3 16.5 -55.3 40.4 -71.7l382 117.4c17.7 5.4 51.6 12.2 91.4 0l544.8 -167.4c46 -14.2 46 -74.9 0 -89.1zM689 615.4c-55.7 17.1 -103.2 7.7 -128.1 0l-283.2 -87L250 750c0 69 167.9 125 375 125s375 -56 375 -125L972.3 528.4l-283.3 87z"/></svg>