<svg height="1000" width="968.8" xmlns="http://www.w3.org/2000/svg"><path d="M484.4 15.6C216.8 15.6 0 232.4 0 500s216.8 484.4 484.4 484.4S968.8 767.6 968.8 500 752 15.6 484.4 15.6zM281.3 781.3h-15.7c-34.5 0 -62.5 -28 -62.5 -62.5v-15.7h78.2v78.2zm0 -109.4h-78.2v-15.6c0 -34.6 28 -62.5 62.5 -62.5h15.7v78.1zM265.6 406.3c0 -34.6 28 -62.5 62.5 -62.5s62.5 27.9 62.5 62.5 -27.9 62.5 -62.5 62.5 -62.5 -28 -62.5 -62.5zm140.7 375h-93.8v-78.2h93.8v78.2zm0 -109.4h-93.8v-78.1h93.8v78.1zm125 109.4h-93.8v-78.2h93.8v78.2zm0 -109.4h-93.8v-78.1h93.8v78.1zm125 109.4h-93.8v-78.2h93.8v78.2zm0 -109.4h-93.8v-78.1h93.8v78.1zM640.6 468.8c-34.5 0 -62.5 -28 -62.5 -62.5s28 -62.5 62.5 -62.5 62.5 27.9 62.5 62.5 -27.9 62.5 -62.5 62.5zm125 250c0 34.5 -27.9 62.5 -62.5 62.5h-15.6v-78.2h78.1v15.7zm0 -46.9h-78.1v-78.1h15.6c34.6 0 62.5 27.9 62.5 62.5v15.6z"/></svg>