
  <svg height="1000" width="968.8" xmlns="http://www.w3.org/2000/svg">
    <path d="m484.4 15.6c267.6 0 484.4 216.8 484.4 484.4s-216.8 484.4-484.4 484.4-484.4-216.8-484.4-484.4 216.8-484.4 484.4-484.4z m-203.1 765.7v-78.2h-78.2v15.7c0 34.5 28 62.5 62.5 62.5h15.7z m0-109.4v-78.1h-15.7c-34.5 0-62.5 27.9-62.5 62.5v15.6h78.2z m-15.7-265.6c0 34.5 28 62.5 62.5 62.5s62.5-28 62.5-62.5-27.9-62.5-62.5-62.5-62.5 27.9-62.5 62.5z m140.7 375v-78.2h-93.8v78.2h93.8z m0-109.4v-78.1h-93.8v78.1h93.8z m125 109.4v-78.2h-93.8v78.2h93.8z m0-109.4v-78.1h-93.8v78.1h93.8z m125 109.4v-78.2h-93.8v78.2h93.8z m0-109.4v-78.1h-93.8v78.1h93.8z m-15.7-203.1c34.6 0 62.5-28 62.5-62.5s-27.9-62.5-62.5-62.5-62.5 27.9-62.5 62.5 28 62.5 62.5 62.5z m125 250v-15.7h-78.1v78.2h15.6c34.6 0 62.5-28 62.5-62.5z m0-46.9v-15.6c0-34.6-27.9-62.5-62.5-62.5h-15.6v78.1h78.1z" />
  </svg>
