
  <svg height="1000" width="1250.0" xmlns="http://www.w3.org/2000/svg">
    <path d="m200 500.2c10.9-1.6 20.1 7.6 18.6 18.4-6.5 44.1-23.5 143.5-52.4 172.4-37.5 37.5-98.8 36.9-137.1-1.4-38.3-38.2-38.9-99.8-1.6-137.1 28.9-28.9 128.4-46.1 172.5-52.3z m1022.3 52.3c37.5 37.3 36.7 99.1-1.6 137.3-38.3 38.3-99.6 38.9-137.1 1.4-28.9-28.9-46.1-128.3-52.3-172.5-1.6-10.9 7.8-20.1 18.5-18.5 44.1 6.4 143.6 23.4 172.5 52.3z m-252.8-25c23.1 160.8 58.4 196.1 70 207.7 1.7 1.9 3.9 3.1 5.8 4.8-83.4 145.9-240.2 244.4-420.3 244.4s-336.9-98.5-420.3-244.2c1.9-1.7 4.1-3.1 5.8-4.8 11.6-11.8 46.9-47.1 70-207.9 5.6-39.8-24.4-96.8-89.3-89.2-17.4 2.5-32.8 5.3-47.5 8 26.8-242.2 231.9-430.7 481.3-430.7s454.5 188.5 481.2 430.7c-14.6-2.7-30-5.5-47.4-8-52-7.4-96.7 37.3-89.3 89.2z m-188.2-230.6c-46.5 0-103 57.2-109 139.4-1.4 16.6 20.9 23.3 29.1 8.8l18.5-33.2c15.1-26.7 37.5-42.2 61.5-42.2 24.1 0 46.5 15.5 61.6 42.2l18.5 33.2c8 14.7 30.5 8 29.1-8.8-6.4-82.2-62.9-139.4-109.3-139.4z m-312.5 0c-46.5 0-103 57.2-109 139.4-1.4 16.6 20.9 23.3 29.1 8.8l18.5-33.2c15.1-26.7 37.5-42.2 61.5-42.2 24.1 0 46.5 15.5 61.6 42.2l18.5 33.2c8 14.7 30.5 8 29.1-8.8-6.4-82.2-62.9-139.4-109.3-139.4z m156.2 546.9c118.4 0 262.7-74.9 280.9-182.3 3.7-23-18.2-42.2-40.5-34.9-59 18.9-146.6 29.7-240.4 29.7s-181.4-10.8-240.4-29.7c-22.5-7.3-44.4 12.1-40.5 34.9 18.2 107.4 162.5 182.3 280.9 182.3z" />
  </svg>
