<svg height="1000" width="968.8" xmlns="http://www.w3.org/2000/svg"><path d="M484.4 15.6C216.8 15.6 0 232.4 0 500s216.8 484.4 484.4 484.4S968.8 767.6 968.8 500 752 15.6 484.4 15.6zm66 370.5l156.2 -93.7c22.7 -13.5 46.9 15 30.1 35.1l-65.6 78.8 65.6 78.7c17 20.3 -7.6 48.4 -30.1 35.1L550.4 426.4c-15 -9.2 -15 -31.1 0 -40.3zM232 327.5c-16.8 -20.1 7.5 -48.6 30.1 -35.1l156.3 93.7c15.2 9.2 15.2 31.1 0 40.3l-156.3 93.7C239.6 533.4 215.2 505.3 232 485l65.7 -78.8L232 327.5zm252.4 516.3C366 843.8 221.7 768.9 203.5 661.5c-3.9 -23.2 18.4 -42.2 40.4 -34.9 59 18.9 146.7 29.7 240.5 29.7s181.4 -10.8 240.4 -29.7c22.5 -7.3 44.1 12.1 40.4 34.9C747.1 768.9 602.7 843.8 484.4 843.8z"/></svg>