
  <svg height="1000" width="968.8" xmlns="http://www.w3.org/2000/svg">
    <path d="m484.4 15.6c267.6 0 484.4 216.8 484.4 484.4s-216.8 484.4-484.4 484.4-484.4-216.8-484.4-484.4 216.8-484.4 484.4-484.4z m-307.8 343c-15.1 39.4 7.4 81.6 47.2 92.2l137.1 35.5c9 2.4 18.2-2.9 20.5-11.7l37.9-136.5c11-39.7-14.4-80.3-56.2-86.9-36.5-5.9-71.3 19.1-81.1 54.5l-3.9 13.8-13.8-3.7c-35.6-9.4-74.7 8.4-87.7 42.8z m307.8 485.2c118.3 0 262.7-74.9 280.8-182.3 3.7-23-18.1-42-40.4-34.9-59 18.9-146.7 29.7-240.4 29.7s-181.5-10.8-240.5-29.7c-22.4-7.1-44.3 11.9-40.4 34.9 18.2 107.4 162.5 182.3 280.9 182.3z m260.5-393.2c39.9-10.4 62.3-52.6 47.3-92.2-13.1-34.4-52.2-52-87.7-42.8l-13.9 3.7-3.9-13.8c-9.9-35.4-44.7-60.4-81-54.5-41.8 6.6-67.2 47.2-56.3 86.9l37.9 136.5c2.5 8.8 11.7 14.1 20.5 11.7z" />
  </svg>
