
  <svg height="1000" width="968.8" xmlns="http://www.w3.org/2000/svg">
    <path d="m671.9 359.4c26 0 46.9 20.9 46.9 46.9s-20.9 46.8-46.9 46.8-46.9-20.9-46.9-46.8 20.9-46.9 46.9-46.9z m-187.5-343.8c267.6 0 484.4 216.8 484.4 484.4 0 207.6-130.9 384.2-314.5 453.1 10.9-23.8 17.6-50.2 17.6-78.1v-88.9c48.2-31.6 84.9-74.4 93.3-124.6 3.7-23-17.9-42.2-40.4-34.9-59 18.9-146.7 29.7-240.4 29.7s-181.5-10.8-240.5-29.7c-22.2-7.1-44.3 11.9-40.4 34.9 8.4 50.2 45.1 93 93.4 124.6v88.9c0 27.9 6.6 54.3 17.6 78.1-183.6-68.9-314.5-245.5-314.5-453.1 0-267.6 216.8-484.4 484.4-484.4z m-109.4 439.5c16.4 14.4 42.2 0.6 39.1-21.1-7.8-49.2-66.8-82.2-117-82.2-50.2 0-109.2 33-117 82.2-3.5 21.7 22 35.5 38.7 21.1l18.5-16.6c28.9-25.8 90.2-25.8 119.1 0z m296.9 76.2c68.9 0 125-56.1 125-125s-56.1-125-125-125-125 56-125 125 56 125 125 125z m-99.4 200.3c1.5 0.8-1-0.5 37.1 18.2v125c0 69.5-57.1 126-126.8 125-68.5-0.8-123.2-58-123.2-126.8v-123c37.5-18.7 35.1-17.6 36.9-18.4 28.1-12.7 60.7 4.3 67.6 34.4l3.5 15.2c4.1 18 29.7 18 33.8 0l3.5-15.2c6.8-30.1 39.4-47.1 67.6-34.4z" />
  </svg>
