<svg height="1000" width="968.8" xmlns="http://www.w3.org/2000/svg"><path d="M484.4 15.6C216.8 15.6 0 232.4 0 500s216.8 484.4 484.4 484.4S968.8 767.6 968.8 500 752 15.6 484.4 15.6zm156.2 281.3c46.5 0 103 57.2 109.4 139.4 1.4 16.8 -21.1 23.3 -29.1 8.8l-18.6 -33.2c-15 -26.7 -37.5 -42.2 -61.5 -42.2s-46.5 15.5 -61.5 42.2l-18.6 33.2c-8 14.3 -30.4 7.8 -29.1 -8.8 6.1 -82.2 62.5 -139.4 109 -139.4zm-312.5 0c46.5 0 103 57.2 109.4 139.4 1.4 16.8 -21.1 23.3 -29.1 8.8l-18.6 -33.2c-15 -26.7 -37.5 -42.2 -61.5 -42.2s-46.5 15.5 -61.5 42.2l-18.6 33.2c-8.2 14.5 -30.4 7.8 -29.1 -8.8 6.1 -82.2 62.5 -139.4 109 -139.4zm156.3 546.9C366 843.8 221.7 768.9 203.5 661.5c-3.9 -23.2 18.4 -42.2 40.4 -34.9 59 18.9 146.7 29.7 240.5 29.7s181.4 -10.8 240.4 -29.7c22.3 -7.3 44.1 11.9 40.4 34.9C747.1 768.9 602.7 843.8 484.4 843.8z"/></svg>