<svg height="1000" width="968.8" xmlns="http://www.w3.org/2000/svg"><path d="M484.4 15.6C216.8 15.6 0 232.4 0 500s216.8 484.4 484.4 484.4S968.8 767.6 968.8 500 752 15.6 484.4 15.6zm156.2 328.2c34.6 0 62.5 27.9 62.5 62.5s-27.9 62.5 -62.5 62.5 -62.5 -28 -62.5 -62.5 28 -62.5 62.5 -62.5zm-312.5 0c34.6 0 62.5 27.9 62.5 62.5s-27.9 62.5 -62.5 62.5 -62.5 -28 -62.5 -62.5 28 -62.5 62.5 -62.5zm156.3 500C366 843.8 221.7 768.9 203.5 661.5c-3.9 -23 18.2 -42.2 40.4 -34.9 59 18.9 146.7 29.7 240.5 29.7s181.4 -10.8 240.4 -29.7c22.1 -7.3 44.1 11.9 40.4 34.9C747.1 768.9 602.7 843.8 484.4 843.8z"/></svg>