<svg height="1000" width="968.8" xmlns="http://www.w3.org/2000/svg"><path d="M0 500c0 267.6 216.8 484.4 484.4 484.4S968.8 767.6 968.8 500 752 15.6 484.4 15.6 0 232.4 0 500zm390.6 -93.7c0 34.5 -27.9 62.5 -62.5 62.5s-62.5 -28 -62.5 -62.5 28 -62.5 62.5 -62.5 62.5 27.9 62.5 62.5zm328.2 48.8l-18.6 -16.6c-28.9 -25.8 -90.2 -25.8 -119.1 0l-18.6 16.6c-16.2 14.4 -42.2 .8 -38.7 -21.1 7.8 -49.2 66.8 -82.2 117 -82.2s109.2 33 117 82.2c3.1 21.5 -22.4 35.5 -39 21.1zM243.9 626.6c59 18.9 146.7 29.7 240.5 29.7s181.4 -10.8 240.4 -29.7c22.1 -7.3 44.1 11.7 40.4 34.9C747.3 768.9 602.7 843.8 484.4 843.8S221.7 768.9 203.5 661.5c-3.9 -23.2 18.2 -42.2 40.4 -34.9z"/></svg>