<svg height="1000" width="968.8" xmlns="http://www.w3.org/2000/svg"><path d="M484.4 15.6C216.8 15.6 0 232.4 0 500s216.8 484.4 484.4 484.4S968.8 767.6 968.8 500 752 15.6 484.4 15.6zm-307.8 343c13 -34.4 52.1 -52.2 87.7 -42.8l13.8 3.7 3.9 -13.8c9.8 -35.4 44.6 -60.4 81.1 -54.5 41.8 6.6 67.2 47.2 56.2 86.9l-37.9 136.5c-2.3 8.8 -11.5 14.1 -20.5 11.7L223.8 450.8C184 440.2 161.5 398 176.6 358.6zm307.8 485.2C366 843.8 221.7 768.9 203.5 661.5c-3.9 -23 18 -42 40.4 -34.9 59 18.9 146.7 29.7 240.5 29.7s181.4 -10.8 240.4 -29.7c22.3 -7.1 44.1 11.9 40.4 34.9C747.1 768.9 602.7 843.8 484.4 843.8zM744.9 450.6l-137.1 35.5c-8.8 2.4 -18 -2.9 -20.5 -11.7L549.4 337.9c-10.9 -39.7 14.5 -80.3 56.3 -86.9 36.3 -5.9 71.1 19.1 81 54.5l3.9 13.8 13.9 -3.7c35.5 -9.2 74.6 8.4 87.7 42.8 15 39.6 -7.4 81.8 -47.3 92.2z"/></svg>