<svg height="1000" width="968.8" xmlns="http://www.w3.org/2000/svg"><path d="M572.5 731.6c-28.2 -12.7 -60.8 4.3 -67.6 34.4l-3.5 15.3c-4.1 17.9 -29.7 17.9 -33.8 0L464.1 766c-6.9 -30.1 -39.5 -47.1 -67.6 -34.4 -1.8 .8 .6 -.3 -36.9 18.4v123c0 68.8 54.7 126 123.2 126.8 69.7 1 126.8 -55.5 126.8 -125v-125C571.5 731.1 574 732.4 572.5 731.6zm-88.1 -716C216.8 15.6 0 232.4 0 500c0 207.6 130.9 384.2 314.5 453.1 -11 -23.8 -17.6 -50.2 -17.6 -78.1v-88.9c-48.3 -31.6 -85 -74.4 -93.4 -124.6 -3.9 -23 18 -42 40.4 -34.9 59 18.9 146.7 29.7 240.5 29.7s181.4 -10.8 240.4 -29.7c22.3 -7.3 44.1 11.9 40.4 34.9 -8.4 50.2 -45.1 93 -93.3 124.6V875c0 27.9 -6.7 54.3 -17.6 78.1C837.9 884.2 968.8 707.6 968.8 500 968.8 232.4 752 15.6 484.4 15.6zm-66 410.8l-156.3 93.7C239.6 533.4 215.2 505.3 232 485l65.7 -78.7L232 327.5c-16.8 -20.1 7.5 -48.6 30.1 -35.1l156.3 93.7c15 9.2 15 31.1 0 40.3zM736.7 485c17 20.3 -7.6 48.4 -30.1 35.1L550.4 426.4c-15.2 -9.2 -15.2 -31.1 0 -40.3l156.2 -93.7c22.9 -13.5 46.7 15 30.1 35.1l-65.6 78.8 65.6 78.7z"/></svg>