
  <svg height="1000" width="968.8" xmlns="http://www.w3.org/2000/svg">
    <path d="m572.5 731.6c1.5 0.8-1-0.5 37.1 18.2v125c0 69.5-57.1 126-126.8 125-68.5-0.8-123.2-58-123.2-126.8v-123c37.5-18.7 35.1-17.6 36.9-18.4 28.1-12.7 60.7 4.3 67.6 34.4l3.5 15.2c4.1 18 29.7 18 33.8 0l3.5-15.2c6.8-30.1 39.4-47.1 67.6-34.4z m-88.1-716c267.6 0 484.4 216.8 484.4 484.4 0 207.6-130.9 384.2-314.5 453.1 10.9-23.8 17.6-50.2 17.6-78.1v-88.9c48.2-31.6 84.9-74.4 93.3-124.6 3.7-23-18.1-42.2-40.4-34.9-59 18.9-146.7 29.7-240.4 29.7s-181.5-10.8-240.5-29.7c-22.4-7.1-44.3 11.9-40.4 34.9 8.4 50.2 45.1 93 93.4 124.6v88.9c0 27.9 6.6 54.3 17.6 78.1-183.6-68.9-314.5-245.5-314.5-453.1 0-267.6 216.8-484.4 484.4-484.4z m-66 410.8c15-9.2 15-31.1 0-40.3l-156.3-93.7c-22.6-13.5-46.9 15-30.1 35.1l65.7 78.8-65.7 78.7c-16.8 20.3 7.6 48.4 30.1 35.1z m318.3 58.6l-65.6-78.7 65.6-78.8c16.6-20.1-7.2-48.6-30.1-35.1l-156.2 93.7c-15.2 9.2-15.2 31.1 0 40.3l156.2 93.7c22.5 13.3 47.1-14.8 30.1-35.1z" />
  </svg>
