<svg height="1000" width="984.4" xmlns="http://www.w3.org/2000/svg"><path d="M890.6 250c51.8 0 93.8 -41 93.8 -91.8 0 -39.1 -55.7 -118 -81.3 -152 -6.2 -8.3 -18.7 -8.3 -25 0 -25.6 34 -81.2 112.9 -81.2 152 0 50.8 42 91.8 93.7 91.8zm0 62.5c-86.1 0 -156.2 -69.1 -156.2 -154.3 0 -8.6 .6 -27.7 15.8 -62.9C673.8 45.1 582.6 15.6 484.4 15.6 216.8 15.6 0 232.4 0 500s216.8 484.4 484.4 484.4S968.8 767.6 968.8 500c0 -68.6 -14.5 -133.6 -40.1 -192.6 -12.3 3 -24.8 5.1 -38.1 5.1zm-250 -15.6c46.5 0 103 57.2 109.4 139.4 1.4 16.8 -21.1 23.5 -29.1 8.8l-18.6 -33.2c-15 -26.7 -37.5 -42.2 -61.5 -42.2s-46.5 15.5 -61.5 42.2l-18.6 33.2c-8 14.5 -30.4 7.8 -29.1 -8.8 6.1 -82.2 62.5 -139.4 109 -139.4zm-312.5 0c46.5 0 103 57.2 109.4 139.4 1.4 16.8 -21.1 23.5 -29.1 8.8l-18.6 -33.2c-15 -26.7 -37.5 -42.2 -61.5 -42.2s-46.5 15.5 -61.5 42.2l-18.6 33.2c-8.2 14.5 -30.4 7.8 -29.1 -8.8 6.1 -82.2 62.5 -139.4 109 -139.4zm156.3 546.9C366 843.8 221.7 768.9 203.5 661.5c-3.9 -23 18.2 -42.2 40.4 -34.9 59 18.9 146.7 29.7 240.5 29.7s181.4 -10.8 240.4 -29.7c22.5 -7.3 44.1 12.1 40.4 34.9C747.1 768.9 602.7 843.8 484.4 843.8z"/></svg>