<svg height="1000" width="1000" xmlns="http://www.w3.org/2000/svg"><path d="M800 218.6c44.1 -6.3 143.6 -23.5 172.5 -52.4 37.5 -37.5 36.9 -98.8 -1.4 -137.1S871.1 -9.8 833.8 27.7c-28.9 28.9 -45.9 128.4 -52.4 172.5 -1.5 10.7 7.7 19.9 18.6 18.4zM200 781.4c-44.1 6.3 -143.6 23.5 -172.5 52.4 -37.3 37.3 -36.7 98.8 1.6 137.1s99.6 38.9 137.1 1.4c28.9 -28.9 45.9 -128.4 52.4 -172.5 1.5 -10.7 -7.7 -19.9 -18.6 -18.4zM808.8 280.5c-64.5 7.6 -94.9 -49.1 -89.3 -89.3C726.2 144.3 734 109 742 80.9 556.8 -26.2 316 -1 157.4 157.4 -1 315.8 -26.2 556.6 80.9 742c28.1 -8 63.2 -15.6 110.3 -22.5 64.9 -7.6 94.9 49.3 89.3 89.3C273.8 855.7 266 891 258 919.1c185.2 107.1 426 81.9 584.6 -76.5S1026.2 443.4 919.1 258c-28.1 8 -63.4 15.6 -110.3 22.5zM499.4 207c6.5 -25.7 43.8 -22.4 46.1 3.5l9.4 102.2 102.1 9.4c26.2 2.3 29.1 39.6 3.5 46.1l-176.7 44.1c-17.4 4.3 -32.6 -11.5 -28.3 -28.3l43.9 -177zM321.9 656.8l-9.4 -102.1 -102.1 -9.4c-26.2 -2.3 -29.1 -39.6 -3.6 -46.1l176.8 -44.1c17.2 -4.3 32.6 11.3 28.3 28.3l-44.1 176.8c-6.1 25.7 -43.4 22.8 -45.9 -3.4zm421.3 86.4c-57.3 57.2 -147.9 98.4 -228 98.4 -36.9 0 -71.4 -8.8 -99.6 -28.7 -19.1 -13.5 -17 -42.6 3.9 -53.1 55.3 -28.5 124.8 -82.8 191 -149.1s120.6 -135.9 149.1 -191c10.5 -20.5 39.4 -23.2 53.3 -3.9 63.1 88.5 13.9 243.6 -69.7 327.4z"/></svg>