
  <svg height="1000" width="968.8" xmlns="http://www.w3.org/2000/svg">
    <path d="m484.4 15.6c267.6 0 484.4 216.8 484.4 484.4s-216.8 484.4-484.4 484.4-484.4-216.8-484.4-484.4 216.8-484.4 484.4-484.4z m156.2 281.3c-46.5 0-102.9 57.2-109 139.4-1.3 16.6 21.1 23.1 29.1 8.8l18.6-33.2c15-26.7 37.5-42.2 61.5-42.2 24 0 46.5 15.5 61.5 42.2l18.6 33.2c8 14.5 30.5 8 29.1-8.8-6.4-82.2-62.9-139.4-109.4-139.4z m-312.5 0c-46.5 0-102.9 57.2-109 139.4-1.3 16.6 20.9 23.3 29.1 8.8l18.6-33.2c15-26.7 37.5-42.2 61.5-42.2 24 0 46.5 15.5 61.5 42.2l18.6 33.2c8 14.5 30.5 8 29.1-8.8-6.4-82.2-62.9-139.4-109.4-139.4z m156.3 546.9c118.3 0 262.7-74.9 280.8-182.3 3.7-23-18.1-42.2-40.4-34.9-59 18.9-146.7 29.7-240.4 29.7s-181.5-10.8-240.5-29.7c-22-7.3-44.3 11.7-40.4 34.9 18.2 107.4 162.5 182.3 280.9 182.3z" />
  </svg>
