
  <svg height="1000" width="968.8" xmlns="http://www.w3.org/2000/svg">
    <path d="m484.4 15.6c267.6 0 484.4 216.8 484.4 484.4s-216.8 484.4-484.4 484.4-484.4-216.8-484.4-484.4 216.8-484.4 484.4-484.4z m-299.6 314.3c-12.1 1.9-17.4 16.8-8.4 26l49.6 48-11.7 68.2c-2 12.1 10.3 21.5 21.4 15.4l61.2-31.8 60.9 31.6c11.1 6.1 23.5-3.3 21.5-15.4l-11.7-68.2 49.6-48c9-9 3.7-23.9-8.4-25.8l-68.2-9.8-30.2-61.7c-5.7-11.3-21.5-11.3-27.2 0l-30.3 61.7z m299.6 513.9c118.3 0 262.7-74.9 280.8-182.3 3.7-23-17.9-42.2-40.4-34.9-59 18.9-146.7 29.7-240.4 29.7s-181.5-10.8-240.5-29.7c-22.2-7.1-44.3 11.9-40.4 34.9 18.2 107.4 162.5 182.3 280.9 182.3z m308-488.1c9-9 3.7-23.9-8.6-25.6l-68.2-9.8-30.2-61.7c-5.7-11.3-21.5-11.3-27.2 0l-30.3 61.7-68.1 9.8c-12.1 1.9-17.2 16.8-8.4 25.8l49.6 48-11.7 68.2c-2 12.1 10.3 21.5 21.4 15.4l61.2-31.8 61.1 31.6c11.1 6.1 23.4-3.3 21.5-15.4l-11.7-68.2z" />
  </svg>
