<svg height="1000" width="968.8" xmlns="http://www.w3.org/2000/svg"><path d="M484.4 15.6C216.8 15.6 0 232.4 0 500s216.8 484.4 484.4 484.4S968.8 767.6 968.8 500 752 15.6 484.4 15.6zM608.8 267c14.8 -22.3 48.2 -22.9 63.9 0 24.2 35.9 29.4 72.1 30.6 108 -1 35.9 -6.4 72.1 -30.6 108 -14.9 22.3 -48.3 22.9 -63.9 0C584.6 447.1 579.3 410.9 578.1 375c1 -35.9 6.5 -72.1 30.7 -108zm-312.5 0c14.8 -22.3 48.2 -22.9 63.9 0 24.2 35.9 29.4 72.1 30.6 108 -1 35.9 -6.4 72.1 -30.6 108 -14.9 22.3 -48.3 22.9 -63.9 0C272.1 447.1 266.8 410.9 265.6 375c1 -35.9 6.5 -72.1 30.7 -108zm188.1 576.8C366 843.8 221.7 768.9 203.5 661.5c-3.9 -23 18.2 -42.2 40.4 -34.9 59 18.9 146.7 29.7 240.5 29.7s181.4 -10.8 240.4 -29.7c22.3 -7.3 44.1 11.9 40.4 34.9C747.1 768.9 602.7 843.8 484.4 843.8z"/></svg>