
  <svg height="1000" width="1000.0" xmlns="http://www.w3.org/2000/svg">
    <path d="m800 218.6c-10.9 1.5-20.1-7.7-18.6-18.4 6.5-44.1 23.5-143.6 52.4-172.5 37.3-37.5 99-36.9 137.3 1.4 38.3 38.3 38.9 99.6 1.4 137.1-28.9 28.9-128.4 46.1-172.5 52.4z m-600 562.8c10.9-1.5 20.1 7.7 18.6 18.4-6.5 44.1-23.5 143.6-52.4 172.5-37.5 37.5-98.8 36.9-137.1-1.4-38.3-38.3-38.9-99.8-1.6-137.1 28.9-28.9 128.4-46.1 172.5-52.4z m608.8-500.9c46.9-6.9 82.2-14.5 110.3-22.5 107.1 185.4 82.1 426.2-76.5 584.6-158.6 158.4-399.4 183.6-584.6 76.5 8-28.1 15.8-63.4 22.5-110.3 5.6-40-24.4-96.9-89.3-89.3-47.1 6.9-82.2 14.5-110.3 22.5-107.1-185.4-81.9-426.2 76.5-584.6 158.6-158.4 399.4-183.6 584.6-76.5-8 28.1-15.8 63.4-22.5 110.3-5.6 40.2 24.8 96.9 89.3 89.3z m-309.4-73.5l-43.9 177c-4.3 16.8 10.9 32.6 28.3 28.3l176.7-44.1c25.6-6.5 22.7-43.8-3.5-46.1l-102.1-9.4-9.4-102.2c-2.3-25.9-39.6-29.3-46.1-3.5z m-177.5 449.8c2.5 26.2 39.8 29.1 45.9 3.4l44.1-176.8c4.3-17-11.1-32.6-28.3-28.3l-176.8 44.1c-25.5 6.5-22.6 43.8 3.6 46.1l102.1 9.4z m421.3 86.4c83.6-83.8 132.8-238.9 69.7-327.4-13.9-19.3-42.8-16.6-53.3 3.9-28.5 55.1-82.8 124.8-149.1 191-66.2 66.3-135.7 120.6-191 149.1-20.9 10.5-23 39.6-3.9 53.1 28.2 19.9 62.7 28.7 99.6 28.7 80.1 0 170.7-41.2 228-98.4z" />
  </svg>
