<svg height="1000" width="968.8" xmlns="http://www.w3.org/2000/svg"><path d="M484.4 15.6C216.8 15.6 0 232.4 0 500s216.8 484.4 484.4 484.4S968.8 767.6 968.8 500 752 15.6 484.4 15.6zM184.8 329.9l68.1 -9.8 30.3 -61.7c5.7 -11.3 21.5 -11.3 27.2 0l30.2 61.7 68.2 9.8c12.1 1.9 17.4 16.8 8.4 25.8l-49.6 48 11.7 68.2c2 12.1 -10.4 21.5 -21.5 15.4l-60.9 -31.6 -61.2 31.8c-11.1 6.1 -23.4 -3.3 -21.4 -15.4L226 403.9l-49.6 -48c-9 -9.2 -3.7 -24.1 8.4 -26zm299.6 513.9C366 843.8 221.7 768.9 203.5 661.5c-3.9 -23 18.2 -42 40.4 -34.9 59 18.9 146.7 29.7 240.5 29.7s181.4 -10.8 240.4 -29.7c22.5 -7.3 44.1 11.9 40.4 34.9C747.1 768.9 602.7 843.8 484.4 843.8zm308 -488.1l-49.6 48 11.7 68.2c1.9 12.1 -10.4 21.5 -21.5 15.4l-61.1 -31.6 -61.2 31.8c-11.1 6.1 -23.4 -3.3 -21.4 -15.4L601 403.9l-49.6 -48c-8.8 -9 -3.7 -23.9 8.4 -25.8l68.1 -9.8 30.3 -61.7c5.7 -11.3 21.5 -11.3 27.2 0l30.2 61.7 68.2 9.8c12.3 1.7 17.6 16.6 8.6 25.6z"/></svg>