
  <svg height="1000" width="968.8" xmlns="http://www.w3.org/2000/svg">
    <path d="m484.4 15.6c267.6 0 484.4 216.8 484.4 484.4s-216.8 484.4-484.4 484.4-484.4-216.8-484.4-484.4 216.8-484.4 484.4-484.4z m156.2 328.2c-34.5 0-62.5 27.9-62.5 62.5s28 62.5 62.5 62.5 62.5-28 62.5-62.5-27.9-62.5-62.5-62.5z m-312.5 0c-34.5 0-62.5 27.9-62.5 62.5s28 62.5 62.5 62.5 62.5-28 62.5-62.5-27.9-62.5-62.5-62.5z m156.3 500c118.3 0 262.7-74.9 280.8-182.3 3.7-23-18.3-42.2-40.4-34.9-59 18.9-146.7 29.7-240.4 29.7s-181.5-10.8-240.5-29.7c-22.2-7.3-44.3 11.9-40.4 34.9 18.2 107.4 162.5 182.3 280.9 182.3z" />
  </svg>
