<svg height="1000" width="1250" xmlns="http://www.w3.org/2000/svg"><path d="M200 500.2c-44.1 6.2 -143.6 23.4 -172.5 52.3 -37.3 37.3 -36.7 98.9 1.6 137.1s99.6 38.9 137.1 1.4c28.9 -28.9 45.9 -128.3 52.4 -172.4 1.5 -10.8 -7.7 -20 -18.6 -18.4zm1022.3 52.3c-28.9 -28.9 -128.4 -45.9 -172.5 -52.3 -10.7 -1.6 -20.1 7.6 -18.5 18.6 6.2 44.1 23.4 143.5 52.3 172.4 37.5 37.5 98.8 36.9 137.1 -1.4s39.1 -100 1.6 -137.3zm-252.8 -25c-7.4 -51.9 37.3 -96.6 89.3 -89.2 17.4 2.5 32.8 5.3 47.5 8C1079.5 204.1 874.4 15.6 625 15.6S170.5 204.1 143.8 446.3c14.6 -2.7 30 -5.5 47.4 -8 64.9 -7.6 94.9 49.4 89.3 89.2 -23.1 160.8 -58.4 196.1 -70 207.9 -1.7 1.7 -3.9 3.1 -5.8 4.8C288.1 885.9 444.9 984.4 625 984.4S961.9 885.9 1045.3 740c-1.9 -1.7 -4.1 -2.9 -5.8 -4.8 -11.6 -11.6 -46.9 -46.9 -70 -207.7zM781.3 296.9c46.4 0 102.9 57.2 109.3 139.4 1.4 16.8 -21.1 23.5 -29.1 8.8L843 411.9c-15.1 -26.7 -37.5 -42.2 -61.6 -42.2s-46.4 15.5 -61.5 42.2l-18.5 33.2c-8.2 14.5 -30.5 7.8 -29.1 -8.8 6 -82.2 62.5 -139.4 109 -139.4zm-312.5 0c46.4 0 102.9 57.2 109.3 139.4 1.4 16.8 -21.1 23.5 -29.1 8.8l-18.5 -33.2C515.4 385.2 493 369.7 468.9 369.7s-46.4 15.5 -61.5 42.2l-18.5 33.2c-8.2 14.5 -30.5 7.8 -29.1 -8.8 6 -82.2 62.5 -139.4 109 -139.4zM625 843.8c-118.4 0 -262.7 -74.9 -280.9 -182.3 -3.9 -22.8 18 -42.2 40.5 -34.9 59 18.9 146.7 29.7 240.4 29.7s181.4 -10.8 240.4 -29.7c22.3 -7.3 44.2 11.9 40.5 34.9C887.7 768.9 743.4 843.8 625 843.8z"/></svg>