
  <svg height="1000" width="968.8" xmlns="http://www.w3.org/2000/svg">
    <path d="m0 500c0-267.6 216.8-484.4 484.4-484.4s484.4 216.8 484.4 484.4-216.8 484.4-484.4 484.4-484.4-216.8-484.4-484.4z m390.6-93.7c0-34.6-27.9-62.5-62.5-62.5s-62.5 27.9-62.5 62.5 28 62.5 62.5 62.5 62.5-28 62.5-62.5z m328.2 48.8c16.6 14.4 42.1 0.4 39-21.1-7.8-49.2-66.8-82.2-117-82.2-50.2 0-109.2 33-117 82.2-3.5 21.9 22.5 35.5 38.7 21.1l18.6-16.6c28.9-25.8 90.2-25.8 119.1 0z m-474.9 171.5c-22.2-7.3-44.3 11.7-40.4 34.9 18.2 107.4 162.5 182.3 280.9 182.3s262.9-74.9 280.8-182.3c3.7-23.2-18.3-42.2-40.4-34.9-59 18.9-146.7 29.7-240.4 29.7s-181.5-10.8-240.5-29.7z" />
  </svg>
