<svg height="1000" width="625" xmlns="http://www.w3.org/2000/svg"><path d="M187.5 62.5h-125C28 62.5 0 90.5 0 125v125c0 34.5 28 62.5 62.5 62.5h125c34.5 0 62.5 -28 62.5 -62.5V125C250 90.5 222 62.5 187.5 62.5zm0 312.5h-125C28 375 0 403 0 437.5v125C0 597 28 625 62.5 625h125C222 625 250 597 250 562.5v-125C250 403 222 375 187.5 375zm0 312.5h-125C28 687.5 0 715.5 0 750v125c0 34.5 28 62.5 62.5 62.5h125c34.5 0 62.5 -28 62.5 -62.5V750c0 -34.5 -28 -62.5 -62.5 -62.5zm375 -625h-125C403 62.5 375 90.5 375 125v125c0 34.5 28 62.5 62.5 62.5h125c34.5 0 62.5 -28 62.5 -62.5V125C625 90.5 597 62.5 562.5 62.5zm0 312.5h-125C403 375 375 403 375 437.5v125c0 34.5 28 62.5 62.5 62.5h125C597 625 625 597 625 562.5v-125C625 403 597 375 562.5 375zm0 312.5h-125c-34.5 0 -62.5 28 -62.5 62.5v125c0 34.5 28 62.5 62.5 62.5h125c34.5 0 62.5 -28 62.5 -62.5V750c0 -34.5 -28 -62.5 -62.5 -62.5z"/></svg>