
  <svg height="1000" width="875.0" xmlns="http://www.w3.org/2000/svg">
    <path d="m187.5 562.5c34.5 0 62.5 28 62.5 62.5v125c0 34.5-28 62.5-62.5 62.5h-125c-34.5 0-62.5-28-62.5-62.5v-125c0-34.5 28-62.5 62.5-62.5h125z m312.5 0c34.5 0 62.5 28 62.5 62.5v125c0 34.5-28 62.5-62.5 62.5h-125c-34.5 0-62.5-28-62.5-62.5v-125c0-34.5 28-62.5 62.5-62.5h125z m312.5 0c34.5 0 62.5 28 62.5 62.5v125c0 34.5-28 62.5-62.5 62.5h-125c-34.5 0-62.5-28-62.5-62.5v-125c0-34.5 28-62.5 62.5-62.5h125z m-625-375c34.5 0 62.5 28 62.5 62.5v125c0 34.5-28 62.5-62.5 62.5h-125c-34.5 0-62.5-28-62.5-62.5v-125c0-34.5 28-62.5 62.5-62.5h125z m312.5 0c34.5 0 62.5 28 62.5 62.5v125c0 34.5-28 62.5-62.5 62.5h-125c-34.5 0-62.5-28-62.5-62.5v-125c0-34.5 28-62.5 62.5-62.5h125z m312.5 0c34.5 0 62.5 28 62.5 62.5v125c0 34.5-28 62.5-62.5 62.5h-125c-34.5 0-62.5-28-62.5-62.5v-125c0-34.5 28-62.5 62.5-62.5h125z" />
  </svg>
