
  <svg height="1000" width="1000.0" xmlns="http://www.w3.org/2000/svg">
    <path d="m981.7 76.2c11.3 11.3 18.3 26.9 18.3 44.1 0 17.3-7 32.9-18.4 44.2l-90.4 90.5c-7.5 7.5-16.7 13.2-27 16.6l-71.2 23.8-148.9 148.9c17.1 23.8 30.8 49.9 37.4 78.5 15.1 65.2 1.7 130.6-43 175.3-18.1 18-40.4 31.7-65.4 39.5-36.2 11.8-63.8 45.5-67.2 82.3-4.5 46.5-22.4 89.6-55.6 122.5-89 88.9-249 73-357.4-35.3-108.3-108.3-124.4-268.4-35.2-357.3 32.9-33.2 76-51.1 122.3-55.6 37-3.4 70.6-31 82.3-67.3 7.8-24.9 21.5-47.3 39.5-65.3 44.7-44.7 110.2-58.2 175.6-43 28.5 6.6 54.5 20.3 78.3 37.4l148.9-149 23.8-71.3c3.4-10.2 9.1-19.4 16.6-26.9l90.4-90.5c11.3-11.3 27-18.3 44.2-18.3s32.9 7 44.2 18.3z m-575.4 611.3c51.7 0 93.7-42 93.7-93.7s-42-93.8-93.7-93.8-93.8 42-93.8 93.8 42 93.7 93.8 93.7z" />
  </svg>
