
  <svg height="1000" width="1000.0" xmlns="http://www.w3.org/2000/svg">
    <path d="m906.3 500c51.7 0 93.7 42 93.7 93.8s-42 93.7-93.7 93.7h-812.5c-51.8 0-93.8-42-93.8-93.7s42-93.8 93.8-93.8h812.5z m31.2 250c17.2 0 31.3 14 31.3 31.3v31.2c0 69-56.1 125-125 125h-687.5c-69 0-125-56-125-125v-31.2c0-17.3 14-31.3 31.2-31.3h875z m-823-312.5c-67.5 0-106.7-85.8-68-148.2 78.5-126.8 251.3-226.6 453.5-226.8 202.2 0.2 375 100 453.5 226.8 38.7 62.5-0.5 148.2-68 148.2h-771z m635.5-218.7c-17.2 0-31.2 14-31.2 31.2s14 31.3 31.2 31.3 31.3-14.1 31.3-31.3-14.1-31.2-31.3-31.2z m-250-62.5c-17.2 0-31.2 14-31.2 31.2s14 31.3 31.2 31.3 31.3-14.1 31.3-31.3-14.1-31.2-31.3-31.2z m-250 62.5c-17.2 0-31.2 14-31.2 31.2s14 31.3 31.2 31.3 31.3-14.1 31.3-31.3-14.1-31.2-31.3-31.2z" />
  </svg>
