
  <svg height="1000" width="1125.0" xmlns="http://www.w3.org/2000/svg">
    <path d="m1115.8 378.8c12.2 12.2 12.2 32 0.1 44.2l-176.8 176.7c-12.2 12.3-32 12.3-44.2 0l-44.2-44.2c-12.2-12.2-12.2-31.9 0-44.2l22.1-22-56.5-56.5c-41.6 11-87.6 0.7-120.3-31.9l-96-96c-23.4-23.4-36.6-55.2-36.6-88.4v-36.6l-176.8-88.4c122.1-122 320-122 442 0l88.4 88.4c32.6 32.6 42.9 78.7 31.9 120.3l56.5 56.5 22-22.1c12.2-12.2 32-12.2 44.2 0z m-560-29.7l96 96c6.9 6.9 14.6 12.7 22.4 18.4l-465.1 498.1c-46.7 50-125.4 51.3-173.7 3-48.3-48.3-47-127 3-173.7l498.2-465.1c5.9 8.1 12 16.1 19.2 23.3z" />
  </svg>
