
  <svg height="1000" width="1000.0" xmlns="http://www.w3.org/2000/svg">
    <path d="m994.8 600.1c3.3 7.6 5.2 16.1 5.2 25 0 16.4-6.4 31.4-16.8 42.5l-200.5 214.9c-69.8 74.7-172.7 117.5-282.7 117.5s-213-42.8-282.6-117.5l-200.6-214.9c-10.4-11.1-16.8-26.2-16.8-42.6 0-8.9 1.9-17.3 5.2-24.9 9.9-22.8 32.4-37.6 57.3-37.6h125v-406.2c0-43 35.2-78.2 78.1-78.2s78.1 35.2 78.1 78.2v261.7c0 10.7 8.8 19.5 19.6 19.5h39c10.8 0 19.6-8.8 19.6-19.5v-339.9c0-42.9 35.1-78.1 78.1-78.1s78.1 35.2 78.1 78.1v339.9c0 10.7 8.8 19.5 19.6 19.5h39c10.8 0 19.5-8.8 19.5-19.5v-261.7c0-43 35.2-78.2 78.2-78.2s78.1 35.2 78.1 78.2v406.2h125c24.9 0 47.4 14.8 57.3 37.6z m-494.8 212.4c103.6 0 187.5-125 187.5-125s-83.9-125-187.5-125-187.5 125-187.5 125 83.9 125 187.5 125z m0-187.5c34.5 0 62.5 28 62.5 62.5s-28 62.5-62.5 62.5-62.5-28-62.5-62.5 28-62.5 62.5-62.5z" />
  </svg>
