
  <svg height="1000" width="1000.0" xmlns="http://www.w3.org/2000/svg">
    <path d="m421.9 859.4c0-43.2 35-78.1 78.1-78.1v-15.7h-62.5c-43.1 0-78.1-35-78.1-78.1s35-78.1 78.1-78.1h62.5v-15.6h-406.2c-51.8 0-93.8-42-93.8-93.8s42-93.7 93.8-93.7h406.2v-26.6l-346.8-136.2c-48.2-18.9-71.9-73.3-53-121.5 19-48.2 73.4-71.9 121.6-53l371.7 146 48.6-60.7c24.1-30 66.4-38.1 99.8-19l218.7 125c23.6 13.5 39.4 38.8 39.4 67.8v468.8c0 36.2-24.9 67.7-60.2 76l-265.7 62.5c-5.7 1.4-11.7 2.1-17.9 2.1h-156.2c-43.1 0-78.1-35-78.1-78.1z" />
  </svg>
