<svg height="1000" width="875" xmlns="http://www.w3.org/2000/svg"><path d="M796.9 421.9c-43.2 0 -78.1 35 -78.1 78.1h-15.7v-62.5c0 -43.1 -35 -78.1 -78.1 -78.1s-78.1 35 -78.1 78.1V500h-15.6V93.8C531.3 42 489.3 0 437.5 0s-93.7 42 -93.7 93.8V500h-26.6L181 153.2C162.1 105 107.7 81.3 59.5 100.2c-48.2 19 -71.9 73.4 -53 121.6l146 371.7 -60.7 48.6c-30 24.1 -38.1 66.4 -19 99.8l125 218.7a78.1 -78.1 0 0 1 67.8 39.4h468.8c36.2 0 67.7 -24.9 76 -60.2l62.5 -265.7a78.1 -78.1 0 0 1 2.1 -17.8V500c0 -43.1 -35 -78.1 -78.1 -78.1z"/></svg>