
  <svg height="1000" width="750.0" xmlns="http://www.w3.org/2000/svg">
    <path d="m179.3 912.5v-291.5c-16.1 11.4-32.3 20.7-48.6 27.7-62.1 26.6-130.7-19.4-130.7-86.2 0-36.4 21.3-62.9 56.8-78.1 55.3-23.7 125.7-153.6 151-210.1 15.6-34.8 49.8-55.5 85.7-55.5l0 0h335c23.1 0 42.8 16.7 46.3 39.5 14.1 91.5 75.1 120.7 74.8 241.7 0 5.3 0.4 25.9 0.4 31.3 0 98.9-43.2 159.3-139.2 141.7-18.1 36.4-77.1 60.1-121.7 32.2-41.4 48.1-105.3 44.2-138.6 12.3v195c0 47.2-39.4 87.5-85.6 87.5-45.4 0-85.6-41.7-85.6-87.5z m39.5-771.9v-93.7c0-25.9 20.9-46.9 46.8-46.9h375c25.9 0 46.9 21 46.9 46.9v93.7c0 25.9-21 46.9-46.9 46.9h-375c-25.9 0-46.8-21-46.8-46.9z m414-46.8c0-21.6-17.5-39.1-39-39.1s-39.1 17.5-39.1 39.1 17.5 39 39.1 39 39-17.5 39-39z" />
  </svg>
