
  <svg height="1000" width="1125.0" xmlns="http://www.w3.org/2000/svg">
    <path d="m537.7 489.3l-212.7-223.1c-61.7-64.8-58-172.3 10.9-232 60.2-52.2 149.8-42.8 204.9 15.2l21.7 22.7 21.9-22.9c55.1-57.8 144.7-67.2 204.9-15 69.1 59.7 72.6 167.2 10.9 232l-212.7 223.1c-13.9 14.4-36.1 14.4-49.8 0z m566.4 151.5c29.5 26.6 27.2 71.9-2.5 95.5l-295.3 236.4c-22.3 17.7-49.9 27.3-78.2 27.3h-696.8c-17.2 0-31.3-14.1-31.3-31.2v-187.5c0-17.2 14.1-31.3 31.3-31.3h108.2l90.8-73.6c41-33.2 92-51.4 144.7-51.4h312.5c38.1 0 68.2 34 61.7 73-5.1 30.7-34 52-65 52h-152.9c-17.2 0-31.3 14.1-31.3 31.3s14.1 31.2 31.3 31.2h231c28.5 0 56.1-9.6 78.1-27.3l180.5-144.4c24.2-19.5 60.2-20.9 83.2 0z" />
  </svg>
