
  <svg height="1000" width="750.0" xmlns="http://www.w3.org/2000/svg">
    <path d="m264.9 0c46.2 0 85.6 40.3 85.6 87.5v195c33.3-31.9 97.2-35.8 138.6 12.3 44.6-27.9 103.6-4.2 121.7 32.2 96-17.6 139.2 42.8 139.2 141.8 0 5.3-0.4 25.9-0.4 31.2 0.3 121-60.7 150.2-74.8 241.7-3.5 22.8-23.2 39.5-46.3 39.5h-335l0 0c-35.9 0-70.1-20.7-85.7-55.5-25.3-56.5-95.7-186.4-151-210.1-35.5-15.2-56.8-41.7-56.8-78.1 0-66.8 68.6-112.8 130.7-86.2 16.3 7 32.5 16.3 48.6 27.7v-291.5c0-45.8 40.2-87.5 85.6-87.5z m0.7 812.5h375c25.9 0 46.9 21 46.9 46.9v93.7c0 25.9-21 46.9-46.9 46.9h-375c-25.9 0-46.8-21-46.8-46.9v-93.7c0-25.9 20.9-46.9 46.8-46.9z m328.2 54.7c-21.6 0-39.1 17.5-39.1 39.1s17.5 39 39.1 39 39-17.5 39-39-17.5-39.1-39-39.1z" />
  </svg>
