
  <svg height="1000" width="1125.0" xmlns="http://www.w3.org/2000/svg">
    <path d="m529.4 281.8c-47-12.5-84.8-48.2-90.9-93.1-8.5-62.5 40.2-116 104.5-123.1v-34.3c0-17.2 15.2-31.3 33.9-31.3h33.9c18.7 0 33.9 14.1 33.9 31.3v34.6c24.4 2.5 47.5 10.4 67.5 22.4 6.5 3.9 10.8 11.1 10.8 19.2 0 4.2-1.2 8.2-3.3 11.6-1.2 2-2.6 3.6-4.3 5.1l-37.1 34.2c-7.8 7.2-19.6 8.2-29.9 3.9-6.7-2.7-14.2-4.3-21.9-4.3h-69.5c-9.9 0-17.8 7.4-17.8 16.4 0.2 7.7 5.7 14.1 12.9 15.8l106 28c47.1 12.5 84.8 48.2 90.9 93.1 8.5 62.5-40.1 116-104.4 123.1v34.4c0 17.1-15.3 31.2-34 31.2h-33.9c-18.7 0-33.9-14.1-33.9-31.2v-34.6c-24.4-2.5-47.5-10.5-67.4-22.5-6.6-3.9-10.9-11-10.9-19.1 0-4.3 1.2-8.2 3.3-11.6 1.2-2 2.6-3.7 4.4-5.2l37.1-34.2c7.8-7.2 19.6-8.2 29.9-3.9 6.7 2.7 14.1 4.3 21.8 4.3h69.5c9.9 0 17.9-7.4 17.9-16.4-0.3-7.7-5.7-14.1-13-15.8z m574.6 359c12.9 11.5 21.1 28.1 21.1 46.7 0 19.7-9.2 37.4-23.5 48.8l-295.4 236.4c-21.4 17-48.6 27.3-78 27.3h-0.1-696.8c-17.3 0-31.3-14-31.3-31.2v-187.5c0-17.3 14-31.3 31.3-31.3h108.2l90.8-73.7c39.5-32 89.9-51.3 144.7-51.3h312.5c34.5 0 62.4 27.9 62.5 62.4 0 0.1 0 0.1 0 0.2 0 3.5-0.3 7-0.9 10.4-5 30.7-33.9 52-64.9 52h-152.9c-17.3 0-31.3 14-31.3 31.3s14 31.2 31.3 31.2h230.9c0.2 0 0.4 0 0.5 0 29.4 0 56.4-10.3 77.7-27.3l180.4-144.4c24.3-19.5 60.2-20.9 83.2 0z" />
  </svg>
