<svg height="1000" width="1250" xmlns="http://www.w3.org/2000/svg"><path d="M953.1 375H656.3v109.4c0 77.5 -63.1 140.6 -140.7 140.6S375 561.9 375 484.4V246.9L248.2 323c-37.7 22.5 -60.7 63.3 -60.7 107.1v92.4L31.3 612.7C1.4 629.9 -9 668.2 8.4 698l156.2 270.8c17.2 29.8 55.5 40 85.4 22.8L452 875h266.8c68.9 0 125 -56.1 125 -125H875c34.6 0 62.5 -27.9 62.5 -62.5v-125h15.6c26 0 46.9 -20.9 46.9 -46.9v-93.7c0 -26 -20.9 -46.9 -46.9 -46.9zm288.5 -73L1085.4 31.3C1068.2 1.4 1029.9 -8.8 1000 8.4L798 125H598.4c-23.4 0 -46.3 6.6 -66.2 18.9l-65.4 40.9c-18.4 11.3 -29.3 31.4 -29.3 52.9v246.7c0 43.1 35 78.1 78.1 78.1s78.2 -35 78.2 -78.1V312.5h359.3c60.4 0 109.4 49 109.4 109.4v55.6l156.3 -90.2c29.8 -17.4 40 -55.5 22.8 -85.3z"/></svg>