
  <svg height="1000" width="1250.0" xmlns="http://www.w3.org/2000/svg">
    <path d="m953.1 375c26 0 46.9 20.9 46.9 46.9v93.7c0 26-20.9 46.9-46.9 46.9h-15.6v125c0 34.6-27.9 62.5-62.5 62.5h-31.2c0 68.9-56.1 125-125 125h-266.8l-202 116.6c-29.9 17.2-68.2 7-85.4-22.8l-156.2-270.8c-17.4-29.8-7-68.1 22.8-85.3l156.3-90.2v-92.4c0-43.8 23-84.6 60.7-107.1l126.8-76.1v237.5c0 77.5 63.1 140.6 140.6 140.6s140.7-63.1 140.7-140.6v-109.4h296.8z m288.5-73c17.2 29.8 7 67.9-22.9 85.3l-156.2 90.2v-55.6c0-60.4-49-109.4-109.4-109.4h-359.4v171.9c0 43.1-34.9 78.1-78.1 78.1s-78.1-35-78.1-78.1v-246.7c0-21.5 10.9-41.6 29.3-52.9l65.4-40.9c19.9-12.3 42.8-18.9 66.2-18.9h199.6l202-116.6c29.9-17.2 68.2-7 85.4 22.9z" />
  </svg>
