
  <svg height="1000" width="1125.0" xmlns="http://www.w3.org/2000/svg">
    <path d="m312.3 343.4c-17.3 0-31.3-14-31.3-31.3v-125c0-17.2 14-31.2 31.3-31.2h125v-125c0-17.2 14-31.3 31.2-31.3h125c17.3 0 31.3 14.1 31.3 31.3v125h125c17.2 0 31.2 14 31.2 31.2v125c0 17.3-14 31.3-31.2 31.3h-125v125c0 17.2-14 31.2-31.3 31.2h-125c-17.2 0-31.2-14-31.2-31.2v-125h-125z m797.2 313.1c9.5 12.9 15.3 29 15.3 46.2 0 25.8-12.6 48.7-31.8 62.9l-263.8 194.5c-33.7 24.7-75.5 39.5-120.5 39.6h-677.7c-17.2-0.1-31.1-14.1-31.3-31.3v-187.5c0.2-17.2 14.1-31.1 31.3-31.2h108.1l90.8-73.7c39.5-32 90-51.3 144.8-51.3h0 312.5c34.6 0 62.6 28 62.6 62.6 0 3.5-0.3 7-0.8 10.4-5.2 30.8-34 52-65.2 52h-152.8c-17.3 0-31.3 14-31.3 31.2 0 17.3 14 31.3 31.3 31.3h235.5l233.8-172.2c12.9-9.6 29-15.4 46.3-15.4 25.8 0 48.7 12.6 62.9 31.9z" />
  </svg>
