<svg height="1000" width="1062.5" xmlns="http://www.w3.org/2000/svg"><path d="M503.1 281.8l97.7 28c7 1.9 11.9 8.6 11.9 15.8 0 9 -7.4 16.4 -16.4 16.4h-64.1c-7 0 -13.8 -1.6 -20.1 -4.3 -9.4 -4.3 -20.3 -3.3 -27.5 3.9l-34.2 34.2c-10.4 10.3 -9.2 27.9 2.9 35.9 18.6 12.3 39.7 19.7 62.1 22.5v34.6c0 17.1 14.1 31.2 31.3 31.2h31.2c17.2 0 31.3 -14.1 31.3 -31.2v-34.4c59.2 -7.1 104.1 -60.6 96.3 -123.1C699.8 266.4 665 230.7 621.7 218.2l-97.7 -28c-7 -1.9 -11.9 -8.6 -11.9 -15.8 0 -9 7.4 -16.4 16.4 -16.4h64.1c7 0 13.8 1.6 20.1 4.3 9.4 4.3 20.3 3.3 27.5 -3.9l34.2 -34.2c10.4 -10.3 9.2 -27.9 -2.9 -35.9C652.9 76 631.8 68.6 609.4 65.8V31.3C609.4 14.1 595.3 0 578.1 0h-31.2c-17.2 0 -31.3 14.1 -31.3 31.3v34.3c-59.2 7.1 -104.1 60.6 -96.3 123.1 5.7 44.9 40.5 80.6 83.8 93.1zm539.7 359c-21.9 -20.9 -55.7 -19.5 -78.7 0L793.8 785.2c-20.9 17.7 -46.9 27.3 -73.9 27.3H501.8c-16.3 0 -29.5 -14.1 -29.5 -31.2S485.5 750 501.8 750h144.3c29.5 0 56.6 -21.3 61.3 -52 6.1 -39 -22.4 -73 -58.2 -73H354.1c-49.8 0 -98 18.2 -136.5 51.4L131.8 750H29.5C13.3 750 0 764.1 0 781.3v187.5c0 17.1 13.3 31.2 29.5 31.2h658c26.8 0 52.7 -9.6 73.8 -27.3l278.9 -236.4c28.2 -23.6 30.3 -68.9 2.6 -95.5z"/></svg>