
  <svg height="1000" width="1125.0" xmlns="http://www.w3.org/2000/svg">
    <path d="m562.5 500c-103.5 0-187.5-82.2-187.5-183.6 0-78.1 111.5-235.7 162.5-303.9 12.5-16.6 37.5-16.6 50 0 51 68.2 162.5 225.8 162.5 303.9 0 101.4-84 183.6-187.5 183.6z m541.6 140.8c29.5 26.6 27.2 71.9-2.5 95.5l-295.3 236.4c-22.3 17.7-49.9 27.3-78.2 27.3h-696.8c-17.2 0-31.3-14.1-31.3-31.2v-187.5c0-17.2 14.1-31.3 31.3-31.3h108.2l90.8-73.6c41-33.2 92-51.4 144.7-51.4h312.5c38.1 0 68.2 34 61.7 73-5.1 30.7-34 52-65 52h-152.9c-17.2 0-31.3 14.1-31.3 31.3s14.1 31.2 31.3 31.2h231c28.5 0 56.1-9.6 78.1-27.3l180.5-144.4c24.2-19.5 60.2-20.9 83.2 0z" />
  </svg>
