
  <svg height="1000" width="1250.0" xmlns="http://www.w3.org/2000/svg">
    <path d="m700.4 382l51-46.6c6.2-5.7 10.1-14 10.1-23.1 0-17.2-14-31.2-31.2-31.2-8.2 0-15.6 3.1-21.1 8.2l-52.8 48.2-63.8 58.4 645.4 498.8c7.3 5.7 12 14.7 12 24.7 0 7.2-2.4 13.9-6.6 19.2l-38.3 49.3c-5.7 7.4-14.7 12.1-24.7 12.1-7.2 0-13.9-2.5-19.2-6.6l-1149.1-888.1c-7.4-5.7-12.1-14.7-12.1-24.7 0-7.2 2.5-13.9 6.6-19.2l38.3-49.3c5.7-7.4 14.7-12.1 24.7-12.1 7.3 0 13.9 2.5 19.2 6.6l228.3 176.4 39.7-39.6c11.3-11.3 26.9-18.4 44.2-18.4h163.6l-147.6 135.2 50.1 38.8 172.2-157.6c11.1-10.2 25.9-16.4 42.2-16.4h167.7c17.3 0 32.9 7 44.2 18.4l106.6 106.6h218.8c17.1 0 31.1 13.9 31.2 31.1v374.6c-0.1 17.2-14 31.2-31.2 31.2h-190.7c-5.2-29.6-21-55.7-43.3-74z m-669.1-132h14.7l747 577.3-17.2 21.2c-13.3 16.3-33.7 26.7-56.4 26.7-17.3 0-33.3-6.1-45.7-16.2l-35-30.3-0.4 0.4c-22.9 28.2-57.9 46.1-97.1 46.1-29.8 0-57.2-10.5-78.7-27.9l-176.8-160h-254.5c-17.2 0-31.2-14-31.2-31.2v-374.8c0.1-17.3 14-31.2 31.2-31.3z" />
  </svg>
