
  <svg height="1000" width="1250.0" xmlns="http://www.w3.org/2000/svg">
    <path d="m0 250.4h46.5l141 109v328.1c0 34.5-28 62.5-62.5 62.5h-125v-499.6z m93.8 374.8c-17.3 0-31.3 14-31.3 31.2 0 17.3 14 31.3 31.3 31.3s31.2-14 31.2-31.3c0-17.2-14-31.2-31.2-31.2z m156.2 62.1v-279.6l543 419.6-17.2 21.2c-13.3 16.3-33.7 26.7-56.4 26.7-17.3 0-33.3-6.1-45.7-16.2l-35-30.3-0.4 0.4c-22.9 28.2-57.9 46.1-97.1 46.1-29.8 0-57.2-10.5-78.7-27.9l-176.8-160h-35.7z m812.5-436.9h187.5v499.8h-125c-34.5 0-62.5-28-62.5-62.5v-437.3z m93.8 437.3c17.2 0 31.2-14 31.2-31.3 0-17.2-14-31.2-31.2-31.2s-31.3 14-31.3 31.2c0 17.3 14 31.3 31.3 31.3z m-563.9-291.9l645.5 498.9c7.4 5.7 12.1 14.7 12.1 24.7 0 7.2-2.4 13.9-6.5 19.2l-38.4 49.3c-5.7 7.4-14.7 12.1-24.7 12.1-7.3 0-13.9-2.5-19.2-6.6l-1149.1-888.1c-7.4-5.7-12.1-14.7-12.1-24.7 0-7.2 2.5-13.9 6.6-19.2l38.3-49.3c5.7-7.4 14.7-12.1 24.7-12.1 7.3 0 13.9 2.5 19.2 6.6l228.3 176.4 39.7-39.6c11.3-11.3 26.9-18.4 44.2-18.4h163.6l-147.6 135.2 50.1 38.7 172-157.5c11.1-10.2 25.9-16.4 42.1-16.4h0 167.8c0 0 0.1 0 0.1 0 17.2 0 32.8 7 44.1 18.4l106.6 106.6v377.9c-4.8-5.4-9.9-10.4-15.4-15l-284.4-230.9 51-46.6c5.9-5.7 9.6-13.7 9.6-22.6 0-17.3-14-31.3-31.2-31.3-7.9 0-15.1 2.9-20.6 7.8z" />
  </svg>
