<svg height="1000" width="1125" xmlns="http://www.w3.org/2000/svg"><path d="M537.7 489.3c13.7 14.4 35.9 14.4 49.8 0L800.2 266.2c61.7 -64.8 58.2 -172.3 -10.9 -232C729.1 -18 639.5 -8.6 584.4 49.2l-21.9 22.9L540.8 49.4C485.7 -8.6 396.1 -18 335.9 34.2 267 93.9 263.3 201.4 325 266.2l212.7 223.1zm566.4 151.5c-23 -20.9 -59 -19.5 -83.2 0L840.4 785.2c-22 17.7 -49.6 27.3 -78.1 27.3h-231c-17.2 0 -31.3 -14.1 -31.3 -31.2S514.1 750 531.3 750h152.9c31 0 59.9 -21.3 65 -52 6.5 -39 -23.6 -73 -61.7 -73H375c-52.7 0 -103.7 18.2 -144.7 51.4L139.5 750H31.3C14.1 750 0 764.1 0 781.3v187.5c0 17.1 14.1 31.2 31.3 31.2h696.8c28.3 0 55.9 -9.6 78.2 -27.3l295.3 -236.4c29.7 -23.6 32 -68.9 2.5 -95.5z"/></svg>