
  <svg height="1000" width="875.0" xmlns="http://www.w3.org/2000/svg">
    <path d="m798.4 250c42.4 0.8 76.6 35.5 76.6 78.1v293.7c0 29.6-3.5 58.2-10 85.9l-51.7 220c-10 42.4-47.8 72.3-91.3 72.3h-385.9c-31.2 0-58.8-15.2-75.8-38.6l-245.4-337.3c-25.3-34.9-17.6-83.8 17.3-109.2 34.9-25.3 83.7-17.6 109.1 17.3l61.8 85v-461c0-42.6 34.2-77.2 76.6-78.1 43.8-0.8 79.7 35.9 79.7 79.7v342.2h15.6v-421.9c0-42.6 34.2-77.3 76.6-78.1 43.8-0.8 79.6 35.9 79.6 79.7v420.3h15.7v-345.7c0-42.6 34.1-77.3 76.6-78.1 43.8-0.9 79.6 35.8 79.6 79.6v344.2h15.6v-170.3c0-43.8 35.9-80.5 79.7-79.7z" />
  </svg>
