<svg height="1000" width="1250" xmlns="http://www.w3.org/2000/svg"><path d="M400 450c-20.7 -27.5 -60 -33.2 -87.5 -12.5C285 458.2 279.3 497.5 300 525l74.4 99.2c9.4 12.5 8 29.9 -2.9 40.8l-25 25c-13.1 13.1 -34.4 12.1 -46.1 -2.1L125 477.3V187.5C125 152.9 97.1 125 62.5 125S0 152.9 0 187.5v426.6c0 21.3 7.2 42 20.5 58.6L223.8 935c9.8 12.7 16.4 27.1 20.3 42.3 3.6 13.5 15.9 22.7 29.9 22.7h257.3c17.1 0 31.2 -14.1 31.2 -31.2V750c0 -54.1 -17.6 -106.6 -50 -150L400 450zm787.5 -325c-34.6 0 -62.5 27.9 -62.5 62.5v289.8L949.6 687.9c-11.7 14.1 -33.2 15 -46.1 2.1l-25 -25c-10.9 -10.9 -12.3 -28.3 -2.9 -40.8L950 525c20.7 -27.5 15 -66.8 -12.5 -87.5C910 416.8 870.7 422.5 850 450L737.5 600c-32.4 43.4 -50 95.9 -50 150v218.8c0 17.1 14.1 31.2 31.3 31.2H976c13.8 0 26.3 -9.2 29.9 -22.7 3.9 -15.2 10.5 -29.6 20.3 -42.3l203.3 -262.3c13.3 -16.6 20.5 -37.3 20.5 -58.6V187.5c0 -34.6 -27.9 -62.5 -62.5 -62.5z"/></svg>