<svg height="1000" width="1000" xmlns="http://www.w3.org/2000/svg"><path d="M21.2 618.3c29.6 -31.4 79 -32.9 110.5 -3.3L250 726.4V571.3L173.8 236.1c-9.5 -42.1 16.8 -84 58.9 -93.5 42.1 -9.6 83.9 16.8 93.5 58.8L394 500h19.2L320.3 95.6C310.7 53.6 336.9 11.7 379 2c42 -9.7 84 16.6 93.6 58.7l101 439.3h29.5l94.5 -378.3c10.5 -41.9 52.9 -67.3 94.8 -56.9 41.8 10.5 67.3 52.9 56.8 94.8L764.1 500h21.7l60.1 -252.5c10 -41.9 52.1 -67.9 94.1 -57.9 41.9 10 67.9 52.1 57.9 94.1L927 581.5a187.5 -187.5 0 0 1 -5.1 43.4v82.3a187.5 -187.5 0 0 0 -7.8 53.3L863 932.9c-11.8 39.8 -48.3 67.1 -89.9 67.1H349.9a93.8 -93.8 0 0 0 -64.2 -25.5L24.6 728.8C-6.8 699.2 -8.3 649.8 21.2 618.3z"/></svg>