
  <svg height="1000" width="875.0" xmlns="http://www.w3.org/2000/svg">
    <path d="m796.9 421.9c43.1 0 78.1 35 78.1 78.1v156.3c0 6.1-0.7 12.1-2.1 17.8l-62.5 265.7c-8.3 35.3-39.8 60.2-76 60.2h-468.8c-29 0-54.3-15.8-67.8-39.4l-125-218.7c-19.1-33.4-11-75.7 19-99.8l60.7-48.6-146-371.7c-18.9-48.2 4.8-102.6 53-121.6 48.2-18.9 102.6 4.8 121.5 53l136.2 346.8h26.6v-406.3c0-51.7 41.9-93.7 93.7-93.7s93.8 42 93.8 93.7v406.3h15.6v-62.5c0-43.1 35-78.1 78.1-78.1s78.1 35 78.1 78.1v62.5h15.7c0-43.1 34.9-78.1 78.1-78.1z" />
  </svg>
