<svg height="1000" width="1250" xmlns="http://www.w3.org/2000/svg"><path d="M849 125H681.3c-15.7 0 -30.7 5.9 -42.2 16.4l-192 175.8c-.2 .2 -.4 .6 -.6 .8 -32.4 30.4 -31.9 79.1 -4.1 109.3 24.8 27.2 76.9 34.4 109.6 5.3 .1 -.2 .5 -.2 .7 -.4L708.8 289.3c12.7 -11.6 32.6 -10.8 44.1 1.9 11.7 12.7 10.8 32.4 -1.9 44.2L700 382l284.4 230.9c5.6 4.7 10.7 9.8 15.4 15V250L893.2 143.4C881.6 131.6 865.6 125 849 125zm213.5 125.4v437.3c0 34.6 27.9 62.5 62.5 62.5h125V250.4h-187.5zm93.8 437.3c-17.2 0 -31.3 -14.1 -31.3 -31.3s14.1 -31.2 31.3 -31.2 31.2 14.1 31.2 31.2 -14.1 31.3 -31.2 31.3zM0 750h125c34.6 0 62.5 -27.9 62.5 -62.5V250.4H0V750zM93.8 625.2c17.1 0 31.2 14.1 31.2 31.2s-14.1 31.3 -31.2 31.3S62.5 673.6 62.5 656.4c0 -17.3 14.1 -31.2 31.3 -31.2zm851.3 36.3L653.5 424.8l-58.6 53.7c-58 52.9 -146.9 47.9 -198.6 -8.6 -52.5 -57.4 -48.4 -146.3 8.6 -198.6L564.6 125H401c-16.6 0 -32.4 6.6 -44.2 18.4L250 250v437.3h35.7l176.8 160c53.5 43.5 132.2 35.3 175.8 -18.2l.4 -.4 34.9 30.3c31.1 25.4 77 20.5 102.2 -10.6L837.1 773l10.6 8.6c26.7 21.7 66.2 17.8 87.8 -9.1l18.6 -22.9c21.9 -26.9 17.8 -66.2 -9 -88.1z"/></svg>