<svg height="1000" width="1000" xmlns="http://www.w3.org/2000/svg"><path d="M1000 251.5c0 -51.4 -40.7 -94.4 -92.1 -95.2 -52.6 -.9 -95.4 41.4 -95.4 93.7h-15.6v-61c0 -51.4 -40.8 -94.4 -92.2 -95.2 -52.5 -.9 -95.3 41.4 -95.3 93.7V250h-15.6v-92.2c0 -51.4 -40.8 -94.4 -92.2 -95.3 -52.5 -.9 -95.3 41.4 -95.3 93.8V250h-15.7v-61c0 -51.4 -40.7 -94.4 -92.1 -95.2 -52.5 -.9 -95.4 41.4 -95.4 93.7v265.6l-15.6 -13.9v-93.9c0 -51.4 -40.7 -94.4 -92.1 -95.3C42.8 249.1 0 291.4 0 343.8v129.7a187.5 -187.5 0 0 1 62.9 140.2L281 807.5a93.7 -93.7 0 0 0 31.5 70.1v13c0 25.9 21 46.9 46.9 46.9h468.7c25.9 0 46.9 -21 46.9 -46.9v-5.7a187.5 -187.5 0 0 0 14.7 -72.7l95.6 -227.1a187.5 -187.5 0 0 1 14.7 -72.8V251.5z"/></svg>