
  <svg height="1000" width="875.0" xmlns="http://www.w3.org/2000/svg">
    <path d="m875 468.8v187.5c0 6-0.7 12-2.1 17.8l-62.5 265.7c-8.3 35.3-39.8 60.2-76 60.2h-406.3c-26 0-48.9-12.6-63.2-32.2l-250-343.7c-25.3-34.9-17.6-83.8 17.3-109.2 34.9-25.3 83.7-17.6 109.1 17.3l61.8 85v-539.1c0-43.1 35-78.1 78.2-78.1s78.1 35 78.1 78.1v390.7h15.6v-78.2c0-43.1 35-78.1 78.1-78.1s78.2 35 78.2 78.1v78.2h15.6v-46.9c0-43.2 35-78.1 78.1-78.1s78.1 34.9 78.1 78.1v46.9h15.7c0-43.2 34.9-78.2 78.1-78.2s78.1 35 78.1 78.2z m-500 156.2h-15.6v187.5h15.6v-187.5z m171.9 0h-15.6v187.5h15.6v-187.5z m171.9 0h-15.7v187.5h15.7v-187.5z" />
  </svg>
