
  <svg height="1000" width="1000.0" xmlns="http://www.w3.org/2000/svg">
    <path d="m907.8 156.3c51.4 0.7 92.2 43.9 92.2 95.3v260.7c0 25-4.9 49.8-14.6 72.9l-95.8 227.1c-9.5 23.1-14.6 47.9-14.6 72.9v5.6c0 26-20.9 46.9-46.9 46.9h-468.7c-26 0-46.9-20.9-46.9-46.9v-13.1c0-26.7-11.5-52.3-31.4-70.1l-218.2-193.9c-40-35.8-62.9-86.7-62.9-140.3v-129.6c0-52.4 42.8-94.6 95.3-93.8 51.4 1 92.2 43.9 92.2 95.3v94l15.6 13.8v-265.6c0-52.3 42.8-94.5 95.3-93.7 51.4 0.9 92.2 43.9 92.2 95.3v60.9h15.7v-93.7c0-52.4 42.7-94.6 95.3-93.8 51.3 1 92.2 43.9 92.2 95.3v92.2h15.6v-62.5c0-52.3 42.7-94.5 95.3-93.7 51.4 0.9 92.2 43.9 92.2 95.3v60.9h15.6c0-52.3 42.8-94.5 95.3-93.7z" />
  </svg>
