
  <svg height="1000" width="1250.0" xmlns="http://www.w3.org/2000/svg">
    <path d="m208.3 333.3l-40.5 96.9c-2.1 4.3-6.5 7.2-11.6 7.2s-9.5-2.9-11.7-7.2l-40.3-97h-0.2l-96.8-40.2c-4.1-2.4-7-6.7-7.2-11.7v0c0.2-5.1 3.1-9.4 7.2-11.8l97-40.4h0.1l40.4-96.9c2.1-4.3 6.5-7.2 11.6-7.2s9.5 2.9 11.7 7.2l40.3 96.9h0.2l96.8 40.4c4.1 2.4 6.9 6.7 7.2 11.7v0c-0.3 5.1-3.1 9.4-7.2 11.8l-96.8 40.3h-0.2z m712.4 579.6l73.2 30.5 0.1 0.4c-14.8 33.3-46.9 56.2-84.4 56.2h-386c-31.1-0.1-58.7-15.2-75.7-38.7l-245.4-337.1c-9.3-12.9-15-28.9-15-46 0-43.2 35.1-78.2 78.2-78.2 26 0 49 12.7 63.2 32.2l46.1 63.5v-470.7c0-34.5 28-62.5 62.5-62.5s62.5 28 62.5 62.5v296.9c0 8.6 7 15.6 15.6 15.6h31.3c8.6 0 15.6-7 15.6-15.6v-359.4c0-34.5 28-62.5 62.5-62.5s62.5 28 62.5 62.5v359.4c0 8.6 7 15.6 15.6 15.6h31.3c8.6 0 15.6-7 15.6-15.6v-296.9c0-34.5 28-62.5 62.5-62.5s62.5 28 62.5 62.5v296.9c0 8.6 7 15.6 15.6 15.6h31.3c8.6 0 15.6-7 15.6-15.6v-140.6c0-34.5 28-62.5 62.5-62.5s62.5 28 62.5 62.5v343.8c0 2.5-0.5 5.2-0.5 7.8-15.2 7.2-28.3 18.7-35.9 33.8l-0.9 1.9-0.8 1.9-30.5 73.2-73.2 30.6-2 0.8-1.9 1c-24.8 12.4-41.8 37.9-41.8 67.5s17 55.1 41.8 67.5l1.9 1z m-237.5-249.8c2.6-1.3 4.3-3.9 4.3-7s-1.7-5.7-4.3-7l-58.2-24.2-24.3-58.2c-1.3-2.5-3.9-4.3-7-4.3-3 0-5.7 1.8-6.9 4.3l-24.3 58.2-58.2 24.2c-2.6 1.3-4.3 4-4.3 7s1.7 5.7 4.3 7l58.2 24.3 24.3 58.1c1.3 2.6 3.9 4.3 7 4.3 3 0 5.7-1.7 6.9-4.3l24.3-58.1z m566.8 180.5l-0.1 0.1v0c-0.3 5-3.1 9.3-7.2 11.6l-96.8 40.4h-0.2v0l-40.4 96.9c-2.1 4.3-6.5 7.2-11.6 7.2s-9.5-2.9-11.7-7.2l-40.3-96.9h-0.2l-96.8-40.3c-4.1-2.4-6.9-6.7-7.2-11.6v0c0.3-5.1 3.1-9.4 7.2-11.8l97-40.5h0.1l40.4-96.9c2.1-4.3 6.5-7.2 11.6-7.2s9.5 2.9 11.7 7.2l40.4 96.9h0.1l96.8 40.4c4.1 2.3 7 6.6 7.2 11.7z" />
  </svg>
