
  <svg height="1000" width="1000.0" xmlns="http://www.w3.org/2000/svg">
    <path d="m997.9 283.7l-133.4 560.2c-21.3 89.4-101.8 156.1-197.6 156.1h-248.8c-70.4 0-134.4-27.4-182-72.2l-211.5-199c-15.1-14.3-24.5-34.5-24.5-56.8 0-43.2 35-78.2 78.1-78.2 20.6 0 39.5 8.1 53.4 21.2l118.4 111.4v0c0-54.6-8-107.3-22.8-157.2l-83.4-281.4c-2.1-7-3.2-14.5-3.2-22.2 0-43.1 35-78.1 78.2-78.1 35.4 0 65.3 23.6 74.9 55.9l72.5 245c2 6.7 8.3 11.6 15.6 11.6 9 0 16.3-7.3 16.3-16.3 0-1.4-0.2-2.7-0.5-4l-98.3-382.1c-1.6-6.3-2.4-12.8-2.4-19.5 0-43.1 35-78.2 78.1-78.2 36.4 0 67 25 75.6 58.7l109.6 426.1c2.3 8.8 10.2 15.3 19.7 15.3 9.8 0 18.1-7 20-16.3l73.6-358.8c7.3-35.5 38.8-62.3 76.6-62.3 8.2 0 16.1 1.2 23.6 3.6 38.7 12.3 60.2 54 52.1 93.9l-66.1 322.2c-0.2 1-0.3 1.9-0.3 3 0 8.1 6.6 14.7 14.7 14.7 7 0 12.8-4.8 14.4-11.3l57.4-241.2c8.2-34.3 39.1-59.9 76-59.9 43.1 0 78.1 35 78.1 78.1 0 6.2-0.8 12.2-2.1 18v0z" />
  </svg>
