
  <svg height="1000" width="1000.0" xmlns="http://www.w3.org/2000/svg">
    <path d="m937.4 619.4l0.1 161.8c0 120.7-98 218.7-218.7 218.8h-419.9c-60.3 0-115-24.5-154.6-64.1l-60.5-60.4c-13.1-13.2-21.3-31.4-21.3-51.5v-143.5c0-28.6 16.4-53.3 40.3-65.3l53.5-29.3v148.5c0 8.6 7 15.6 15.6 15.6s15.6-7 15.6-15.6v-287.2c0-29.8 25.1-55.4 60.3-61.3l59.9-10c34.8-5.8 67.3 16.4 67.3 46v62.5c0 8.6 7 15.6 15.6 15.6s15.7-7 15.7-15.6v-390.7c0 0-0.1 0-0.1 0 0-51.7 42-93.7 93.8-93.7 0.9 0 1.9 0 2.9 0 51.3 1.6 90.9 46.3 90.9 97.7v386.7c0 8.6 7 15.6 15.6 15.6s15.6-7 15.6-15.6v-62.5c0-29.6 32.5-51.8 67.3-46l75 12.5c26.3 4.4 45.2 23.6 45.2 46v96.8l69.6 17.5c31.7 7.9 55.2 36.6 55.3 70.7z" />
  </svg>
