<svg height="1000" width="875" xmlns="http://www.w3.org/2000/svg"><path d="M798.4 250c-43.8 -.8 -79.6 35.9 -79.6 79.7V500h-15.7V155.8c0 -43.8 -35.8 -80.5 -79.6 -79.6 -42.5 .8 -76.6 35.5 -76.6 78.1V500h-15.6V79.7C531.3 35.9 495.4 -.8 451.6 0 409.2 .8 375 35.5 375 78.1V500h-15.6V157.8c0 -43.8 -35.9 -80.5 -79.7 -79.7 -42.4 .9 -76.6 35.5 -76.6 78.2v460.9l-61.8 -85C115.9 497.3 67.1 489.6 32.2 514.9c-34.9 25.4 -42.6 74.3 -17.3 109.2l245.4 337.3a93.8 -93.8 0 0 1 75.8 38.6H722c43.5 0 81.3 -29.9 91.3 -72.3l51.7 -220a375 -375 0 0 1 10 -85.9V328.1c0 -42.6 -34.2 -77.3 -76.6 -78.1z"/></svg>