
  <svg height="1000" width="1250.0" xmlns="http://www.w3.org/2000/svg">
    <path d="m849 125c16.6 0 32.6 6.6 44.2 18.4l106.6 106.6v377.9c-4.7-5.2-9.8-10.3-15.4-15l-284.4-230.9 51-46.6c12.7-11.8 13.6-31.5 1.9-44.2-11.5-12.7-31.4-13.5-44.1-1.9l-156.1 142.9c-0.2 0.2-0.6 0.2-0.7 0.4-32.7 29.1-84.8 21.9-109.6-5.3-27.8-30.2-28.3-78.9 4.1-109.3 0.2-0.2 0.4-0.6 0.6-0.8l192-175.8c11.5-10.5 26.5-16.4 42.1-16.4h167.8z m213.5 125.4h187.5v499.8h-125c-34.6 0-62.5-27.9-62.5-62.5v-437.3z m93.8 437.3c17.1 0 31.2-14.1 31.2-31.3 0-17.1-14.1-31.2-31.2-31.2s-31.3 14.1-31.3 31.2c0 17.2 14.1 31.3 31.3 31.3z m-1156.3 62.3v-499.6h187.5v437.1c0 34.6-27.9 62.5-62.5 62.5h-125z m93.8-124.8c-17.2 0-31.3 13.9-31.3 31.2 0 17.2 14.1 31.3 31.3 31.3s31.2-14.1 31.2-31.3c0-17.1-14.1-31.2-31.2-31.2z m851.3 36.3c26.8 21.9 30.9 61.2 9 88.1l-18.6 22.9c-21.6 26.9-61.1 30.8-87.8 9.1l-10.6-8.6-61.3 75.4c-25.2 31.1-71.1 36-102.2 10.6l-34.9-30.3-0.4 0.4c-43.6 53.5-122.3 61.7-175.8 18.2l-176.8-160h-35.7v-437.3l106.8-106.6c11.8-11.8 27.6-18.4 44.2-18.4h163.6l-159.7 146.3c-57 52.3-61.2 141.2-8.6 198.6 51.7 56.5 140.6 61.5 198.6 8.6l58.6-53.7z" />
  </svg>
