
  <svg height="1000" width="1125.0" xmlns="http://www.w3.org/2000/svg">
    <path d="m968.8 437.5c-51.8 0-93.8-42-93.8-93.7s42-93.8 93.8-93.8 93.7 42 93.7 93.8-42 93.7-93.7 93.7z m-360.5-89l-31.4 9.7 40.9-129.2c6.8-21.6 27.6-36.8 50.2-34.2 23.5 2.5 41.9 22.4 41.9 46.6 0 5-0.8 9.7-2.2 14.2l-30 95c-11.5-4.3-24.1-6.7-37.1-6.9 0 0 0 0.1 0 0.1-11.2 0-22.1 1.6-32.3 4.7z m-425.4 406.1c-71.1-41.3-119.1-117.7-120.4-205.5v-220.2c0.4-26 22.8-46.7 48.6-46.6 25.8 0.2 46.6 21.1 46.6 46.9 0 0.1 0 0.2 0 0.3l4.1 97.7 117.1-370.8c6.9-21.6 27.7-36.9 50.3-34.1 23.5 2.6 41.8 22.5 41.8 46.7 0 4.9-0.7 9.6-2.1 14.1l-75.3 238.3c-0.5 1.5-0.8 3.1-0.8 4.7 0 8.6 7 15.6 15.7 15.6 6.9 0 12.9-4.6 14.9-10.9l93.6-296.3c6.8-21.6 27.7-36.8 50.2-34.2 23.5 2.5 41.9 22.4 41.9 46.6 0 4.9-0.8 9.7-2.2 14.2l-84.7 269.1c-0.5 1.5-0.7 3.1-0.7 4.7 0 8.6 7 15.6 15.6 15.6 7 0 12.9-4.6 14.9-10.9l65.3-207.8c6.9-21.7 27.7-36.9 50.3-34.3 23.5 2.6 41.8 22.5 41.8 46.7 0 4.9-0.7 9.6-2.1 14.1l-66.8 211.2-143.9 44.4c-121.3 40.1-209 154.4-209.1 289.1v50.2c-1.6 0.3-3 1-4.6 1.4z m831-98.3c22.6 0 43.4 15.3 47.7 37.5 0.6 3 0.9 6.1 0.9 9.3 0 25.9-21 46.9-46.8 46.9h-0.1-312.5c-8.6 0-15.6 7-15.6 15.6s7 15.6 15.6 15.6h248.3c22.6 0 43.4 15.4 47.7 37.6 0.6 3 0.9 6.1 0.9 9.3 0 25.9-21 46.9-46.8 46.9h-0.1-250c-8.6 0-15.6 7-15.6 15.6s7 15.6 15.6 15.6h185.8c22.6 0 43.4 15.4 47.7 37.6 0.6 3 0.9 6.1 0.9 9.3 0 25.9-21 46.9-46.8 46.9h-0.1-406.2c-44.3-0.2-86-12.9-121.1-34.6 7.5-18.3 11.6-38.4 11.6-59.4 0-75.5-53.7-138.4-124.9-152.8v-50.1c0-107.1 69.8-198.1 166.4-229.8l210.4-65c4.4-1.3 9-2.1 13.8-2.1 25.9 0 46.9 21 46.9 46.9 0 21.1-13.9 38.9-33 44.8l-92 33.4h388.9c22.6 0 43.4 15.3 47.7 37.5 0.6 3 0.9 6.1 0.9 9.3 0 25.9-21 46.9-46.8 46.9h-0.1-250c-8.6 0-15.6 7-15.6 15.6s7 15.7 15.6 15.7h310.8z m-201.4-531.3c-34.5 0-62.5-28-62.5-62.5s28-62.5 62.5-62.5 62.5 28 62.5 62.5-28 62.5-62.5 62.5z m-593.7 687.5c51.7 0 93.7 42 93.7 93.8s-42 93.7-93.7 93.7-93.8-42-93.8-93.7 42-93.8 93.8-93.8z" />
  </svg>
