
  <svg height="1000" width="1000.0" xmlns="http://www.w3.org/2000/svg">
    <path d="m1000 389.9c0 46.2-40.3 85.6-87.5 85.6h-195c31.9 33.3 35.8 97.2-12.3 138.6 27.9 44.6 4.2 103.6-32.2 121.7 17.6 96-42.8 139.2-141.8 139.2-5.3 0-25.9-0.4-31.2-0.4-121 0.3-150.2-60.7-241.7-74.8-22.8-3.5-39.5-23.2-39.5-46.3v-335l0 0c0-35.9 20.7-70.1 55.5-85.7 56.5-25.3 186.4-95.7 210.1-151 15.2-35.5 41.7-56.8 78.1-56.8 66.8 0 112.8 68.6 86.2 130.7-7 16.3-16.3 32.5-27.7 48.6h291.5c45.8 0 87.5 40.2 87.5 85.6z m-812.5 0.7v375c0 25.9-21 46.9-46.9 46.9h-93.7c-25.9 0-46.9-21-46.9-46.9v-375c0-25.9 21-46.8 46.9-46.8h93.7c25.9 0 46.9 20.9 46.9 46.8z m-54.7 328.2c0-21.6-17.5-39.1-39-39.1s-39.1 17.5-39.1 39.1 17.5 39 39.1 39 39-17.5 39-39z" />
  </svg>
