
  <svg height="1000" width="1250.0" xmlns="http://www.w3.org/2000/svg">
    <path d="m453.1 312.5h31.3c8.6 0 15.6 7 15.6 15.6v234.4h-62.5v-234.4c0-8.6 7-15.6 15.6-15.6z m-125 0h31.3c8.6 0 15.6 7 15.6 15.6v234.4h-62.5v-234.4c0-8.6 7-15.6 15.6-15.6z m437.5 0h31.3c8.6 0 15.6 7 15.6 15.6v234.4h-62.5v-234.4c0-8.6 7-15.6 15.6-15.6z m125 0h31.3c8.6 0 15.6 7 15.6 15.6v234.4h-62.5v-234.4c0-8.6 7-15.6 15.6-15.6z m171.9 15.6v234.4h-62.5v-234.4c0-8.6 7-15.6 15.6-15.6h31.3c8.6 0 15.6 7 15.6 15.6z m-859.4-15.6h31.3c8.6 0 15.6 7 15.6 15.6v234.4h-62.5v-234.4c0-8.6 7-15.6 15.6-15.6z m1015.7 0c17.2 0 31.2 14 31.2 31.3v218.7c0 103.6-83.9 187.5-187.5 187.5h-375v125h343.8c17.2 0 31.2 14 31.2 31.3v62.5c0 17.2-14 31.2-31.2 31.2h-812.5c-17.3 0-31.3-14-31.3-31.2v-62.5c0-17.3 14-31.3 31.3-31.3h343.7v-125h-375c-103.6 0-187.5-83.9-187.5-187.5v-218.7c0-17.3 14-31.3 31.3-31.3h62.5c17.2 0 31.2 14 31.2 31.3v218.7c0 34.5 28 62.5 62.5 62.5h375v-375c0-17.3 14-31.2 31.3-31.2h62.5c17.2 0 31.2 13.9 31.2 31.2v375h375c34.5 0 62.5-28 62.5-62.5v-218.7c0-17.3 14-31.3 31.3-31.3h62.5z m-31.3-62.5c-25.9 0-46.9-23.3-46.9-52.1s46.9-104.1 46.9-104.1 46.9 75.3 46.9 104.1c0 28.8-21 52.1-46.9 52.1z m-1125 0c-25.9 0-46.9-23.3-46.9-52.1s46.9-104.1 46.9-104.1 46.9 75.3 46.9 104.1c0 28.8-21 52.1-46.9 52.1z m562.5-93.7c-25.9 0-46.9-23.4-46.9-52.1s46.9-104.2 46.9-104.2 46.9 75.4 46.9 104.2c0 28.7-21 52.1-46.9 52.1z m-406.2 93.7c-25.9 0-46.9-23.3-46.9-52.1s46.9-104.1 46.9-104.1 46.8 75.3 46.8 104.1c0 28.8-21 52.1-46.8 52.1z m125 0c-25.9 0-46.9-23.3-46.9-52.1s46.9-104.1 46.9-104.1 46.8 75.3 46.8 104.1c0 28.8-21 52.1-46.8 52.1z m125 0c-25.9 0-46.9-23.3-46.9-52.1s46.9-104.1 46.9-104.1 46.8 75.3 46.8 104.1c0 28.8-21 52.1-46.8 52.1z m312.5 0c-25.9 0-46.9-23.3-46.9-52.1s46.9-104.1 46.9-104.1 46.8 75.3 46.8 104.1c0 28.8-21 52.1-46.8 52.1z m125 0c-25.9 0-46.9-23.3-46.9-52.1s46.9-104.1 46.9-104.1 46.8 75.3 46.8 104.1c0 28.8-21 52.1-46.8 52.1z m125 0c-25.9 0-46.9-23.3-46.9-52.1s46.9-104.1 46.9-104.1 46.8 75.3 46.8 104.1c0 28.8-21 52.1-46.8 52.1z" />
  </svg>
