<svg height="1000" width="875" xmlns="http://www.w3.org/2000/svg"><path d="M860.7 355.7l13.9 -78.1c2.6 -14.4 -8.5 -27.6 -23 -27.6H705.4L734 90.1c2.6 -14.4 -8.5 -27.6 -23.1 -27.6h-79.3a23.4 -23.4 0 0 1 -23.1 19.3l-30 168.2H385.8L414.4 90.1c2.5 -14.4 -8.5 -27.6 -23.1 -27.6h-79.4a23.4 -23.4 0 0 1 -23 19.3L258.8 250H104.4a23.4 -23.4 0 0 1 -23.1 19.3l-14 78.1c-2.5 14.4 8.5 27.6 23.1 27.6h146.1l-44.6 250H37.4a23.4 -23.4 0 0 1 -23.1 19.3L.4 722.4c-2.6 14.4 8.5 27.6 23 27.6h146.2L141 909.9c-2.6 14.4 8.5 27.6 23.1 27.6h79.3a23.4 -23.4 0 0 1 23.1 -19.3l30 -168.2h192.7l-28.6 159.9c-2.5 14.4 8.5 27.6 23.1 27.6h79.4a23.4 -23.4 0 0 1 23 -19.3L616.2 750h154.4a23.4 -23.4 0 0 1 23.1 -19.3l14 -78.1C810.2 638.2 799.2 625 784.6 625H638.5l44.6 -250h154.5a23.4 -23.4 0 0 1 23.1 -19.3zM511.5 625H318.9l44.6 -250h192.6l-44.6 250z"/></svg>