
  <svg height="1000" width="875.0" xmlns="http://www.w3.org/2000/svg">
    <path d="m860.7 355.7c-2 10.9-11.6 19.3-23.1 19.3h-154.5l-44.6 250h146.1c14.6 0 25.6 13.2 23.1 27.6l-14 78.1c-1.9 10.9-11.5 19.3-23.1 19.3h-154.4l-30.1 168.2c-1.9 10.9-11.5 19.3-23 19.3h-79.4c-14.6 0-25.6-13.2-23.1-27.6l28.6-159.9h-192.7l-30 168.2c-2 10.9-11.5 19.3-23.1 19.3h-79.3c-14.6 0-25.7-13.2-23.1-27.6l28.6-159.9h-146.2c-14.5 0-25.6-13.2-23-27.6l13.9-78.1c2-10.9 11.6-19.3 23.1-19.3h154.5l44.6-250h-146.1c-14.6 0-25.6-13.2-23.1-27.6l14-78.1c1.9-10.9 11.5-19.3 23.1-19.3h154.4l30.1-168.2c1.9-10.9 11.5-19.3 23-19.3h79.4c14.6 0 25.6 13.2 23.1 27.6l-28.6 159.9h192.7l30-168.2c2-10.9 11.5-19.3 23.1-19.3h79.3c14.6 0 25.7 13.2 23.1 27.6l-28.6 159.9h146.2c14.5 0 25.6 13.2 23 27.6z m-349.2 269.3l44.6-250h-192.6l-44.6 250h192.6z" />
  </svg>
