
  <svg height="1000" width="1250.0" xmlns="http://www.w3.org/2000/svg">
    <path d="m957 579.9c-75.7 24.6-183 45.1-332 45.1s-256.2-20.6-332-45.2c18.6-112.1 77.2-454.8 190.8-454.8 27.4 0 51.8 11.7 72.3 27.3 19.1 14.6 43.1 23.3 69 23.3 25.9 0 49.7-8.7 68.8-23.3 20.6-15.7 45-27.3 72.3-27.3 113.7 0 172.3 342.8 190.8 454.9z m279.1-72.6c8.4 5.6 13.9 15.1 13.9 25.9 0 3.8-0.7 7.4-2 10.8-1.4 3.9-151 393.5-623 393.5s-621.6-389.5-623-393.5c-1.3-3.3-1.9-7-1.9-10.7 0-17.3 14-31.3 31.2-31.3 8.1 0 15.4 3.1 20.9 8.1 2 1.7 200.1 177.4 572.8 177.4 374.8 0 570.6-175.5 572.6-177.3 5.5-5.1 13-8.2 21.1-8.2 6.5 0 12.5 1.9 17.4 5.3z" />
  </svg>
