
  <svg height="1000" width="1000.0" xmlns="http://www.w3.org/2000/svg">
    <path d="m968.8 875c17.2 0 31.2 14 31.2 31.3v62.5c0 17.2-14 31.2-31.2 31.2h-937.5c-17.3 0-31.3-14-31.3-31.2v-62.5c0-17.3 14-31.3 31.3-31.3h937.5z m-593.8-125l31.3 62.5h-281.3l216.7-487.6c21.7-48.9 58.3-89.2 104.4-115.5l366.4-209.4-110 329.9c-4.1 12.4-6.3 25.8-6.3 39.6 0 17.5 3.6 34.1 10 49.2l168.8 393.8h-406.2l31.2-62.5 125-62.5-125-62.5-62.5-125-62.5 125-125 62.5z m125-437.5l-62.5 31.3 62.5 31.2 31.3 62.5 31.2-62.5 62.5-31.2-62.5-31.3-31.2-62.5z" />
  </svg>
