
  <svg height="1000" width="1250.0" xmlns="http://www.w3.org/2000/svg">
    <path d="m509.4 568.5l191.4 165c152.7 131.6 253.9 204 455.4 204h-1066.6c-27.4 0-53-14.7-70.1-40.3-17.5-26.3-23.6-60-16.7-92.4 39.1-182.3 167.1-304.8 318.3-304.8 67.2 0 132.4 23.7 188.3 68.5z m458.3-35.7c224.5 15.4 282.3 198.9 282.3 248.5 0 51.7-42 93.7-93.7 93.7-189.7 0-275.9-69.3-414.7-188.9l-191.4-165c-68.9-55.2-147.5-83.6-229.1-83.6-13.9 0-27.1 2.3-40.6 3.9l13.4-127.4c5.8-54 46.1-97.8 98.4-108.9l373.3-79.3c8.4-1.8 17.1-2.6 26-2.6 61.8 0 113.2 44.9 123.2 103.8z" />
  </svg>
