
  <svg height="1000" width="1125.0" xmlns="http://www.w3.org/2000/svg">
    <path d="m1125 593.8v187.5c0 51.7-42 93.7-93.7 93.7h-937.5c-51.8 0-93.8-42-93.8-93.7v-187.5c0-51.8 42-93.8 93.8-93.8h937.5c51.7 0 93.7 42 93.7 93.8z m-93.7-156.3h-937.5c-0.1 0-0.2 0.1-0.3 0.1-21.2 0-41.4 4.2-59.9 11.9l188.6-282.8c16.8-25.2 45.4-41.7 78-41.7h524.6c32.6 0 61.2 16.5 78 41.7l188.6 282.8c-18.5-7.7-38.8-12-60-12h-0.2z m-93.8 187.5c-34.5 0-62.5 28-62.5 62.5s28 62.5 62.5 62.5 62.5-28 62.5-62.5-28-62.5-62.5-62.5z m-187.5 0c-34.5 0-62.5 28-62.5 62.5s28 62.5 62.5 62.5 62.5-28 62.5-62.5-28-62.5-62.5-62.5z" />
  </svg>
