<svg height="1000" width="1125" xmlns="http://www.w3.org/2000/svg"><path d="M1125 593.8v187.5c0 51.7 -42 93.7 -93.7 93.7H93.8C42 875 0 833 0 781.3V593.8C0 542 42 500 93.8 500h937.5c51.7 0 93.7 42 93.7 93.8zm-93.7 -156.3a155.4 -155.4 0 0 0 60.1 12L902.8 166.7a93.8 -93.8 0 0 1 -78 -41.7H300.2a93.8 -93.8 0 0 1 -78 41.7L33.6 449.5a155.4 -155.4 0 0 0 60.2 -12h937.5zM937.5 625C903 625 875 653 875 687.5s28 62.5 62.5 62.5 62.5 -28 62.5 -62.5S972 625 937.5 625zM750 625c-34.5 0 -62.5 28 -62.5 62.5s28 62.5 62.5 62.5 62.5 -28 62.5 -62.5S784.5 625 750 625z"/></svg>