
  <svg height="1000" width="1000.0" xmlns="http://www.w3.org/2000/svg">
    <path d="m0.3 360.2c0.9-18.8 3.2-37.1 6.9-55l430.3 313v381.8h-312.5v-345.9c-80.1-72-129.2-177.1-124.7-293.9z m994.3 176.9c3.2 7.4 4.9 15.6 4.9 24.2 0 0.4 0 0.8 0 1.2h-532.3l-441.3-321c57.1-142.7 202.6-241.5 364.7-241.5h129.1c137.3 0.1 258.5 68 332.1 172.4 48 68.3 101.8 272.7 142.8 364.7z m-369.6-99.6c34.5-0.1 62.4-28 62.5-62.5 0-34.5-28-62.5-62.5-62.5s-62.5 28-62.5 62.5 28 62.5 62.5 62.5z m31.3 281.3c-17.3 0-31.3 14-31.3 31.2s14 31.3 31.3 31.3h291.6l-20.8 62.5h-270.8c-17.3 0-31.3 14-31.3 31.2s14 31.3 31.3 31.3h250l-2.8 8.2c-16.6 49.7-63.4 85.5-118.6 85.5h-284.9v-375h500l-31.3 93.8h-312.5z" />
  </svg>
