
  <svg height="1000" width="1000.0" xmlns="http://www.w3.org/2000/svg">
    <path d="m500 62.5c276.4 0 500 223.7 500 500v93.8c0 24.4-14 45.6-34.6 55.9l-28 14c-4 117.4-100.3 211.3-218.7 211.3h-46.8c-25.9 0-46.9-21-46.9-46.9v-343.7c0-25.9 21-46.9 46.9-46.9h46.8c61.3 0 116.6 25.2 156.3 65.7v-3.2c0-206.8-168.2-375-375-375s-375 168.2-375 375v3.2c39.7-40.5 95-65.7 156.2-65.7h46.9c25.9 0 46.9 21 46.9 46.9v343.7c0 25.9-21 46.9-46.9 46.9h-46.9c-118.3 0-214.6-93.9-218.6-211.3l-28.1-14c-20.5-10.3-34.5-31.5-34.5-55.9v-93.8c0-276.4 223.7-500 500-500z" />
  </svg>
