
  <svg height="1000" width="1250.0" xmlns="http://www.w3.org/2000/svg">
    <path d="m1203.1 593.8c-25.8 0-46.8-21.1-46.8-46.9s21-46.9 46.8-46.9 46.9 21 46.9 46.9-21 46.9-46.9 46.9z m-125 218.7c25.9 0 46.9 21 46.9 46.9s-21 46.9-46.9 46.9-46.8-21.1-46.8-46.9 21-46.9 46.8-46.9z m-125-109.4c25.9 0 46.9 21 46.9 46.9s-21 46.9-46.9 46.9-46.8-21-46.8-46.9 21-46.9 46.8-46.9z m250 203.2c25.9 0 46.9 21 46.9 46.8s-21 46.9-46.9 46.9-46.8-21-46.8-46.9 21-46.8 46.8-46.8z m0-203.2c25.9 0 46.9 21 46.9 46.9s-21 46.9-46.9 46.9-46.8-21-46.8-46.9 21-46.9 46.8-46.9z m-125-78.1c25.9 0 46.9 21 46.9 46.9s-21 46.9-46.9 46.9-46.8-21.1-46.8-46.9 21-46.9 46.8-46.9z m-146-87.9c3.4 7.8 5.4 16.4 5.4 25.4 0 34.5-28 62.5-62.5 62.5h-62.5v62.5h-187.5c-34.5 0-62.5 28-62.5 62.5s28 62.5 62.5 62.5h187.5c0 69-56 125-125 125h-125v62.5h-437.5v-345.9c-76.7-68.9-125-168.3-125-279.1 0-207 168-375 375-375h82.2c137.3 0.1 258.5 68 332.1 172.4 48 68.3 101.8 272.7 142.8 364.7z m-369.6-99.6c34.5-0.1 62.4-28 62.5-62.5 0-34.5-28-62.5-62.5-62.5s-62.5 28-62.5 62.5 28 62.5 62.5 62.5z" />
  </svg>
