
  <svg height="1000" width="1000.0" xmlns="http://www.w3.org/2000/svg">
    <path d="m531.3 468.8c17.2 0 31.2 14 31.2 31.2s-14 31.3-31.2 31.3-31.3-14.1-31.3-31.3 14-31.2 31.3-31.2z m-125-125c17.2 0 31.2 14 31.2 31.2s-14 31.3-31.2 31.3-31.3-14.1-31.3-31.3 14-31.2 31.3-31.2z m588.2 193.3c3.5 7.8 5.4 16.4 5.4 25.4 0 34.5-27.9 62.5-62.4 62.5h-62.5v125c0 69-56 125-125 125h-125v125h-500v-346.1c-76.8-68.4-125-168-125-278.8v-0.1c0-207 168-375 375-375h144.7c137.3 0 258.6 67.9 332.1 172.4 48.1 68.4 101.9 272.7 142.7 364.7z m-275.7-68.3c17.2 0 31.2-14.1 31.2-31.3s-14-31.2-31.2-31.2h-23.7c-55.7 0-83.6-67.4-44.2-106.7l16.7-16.8c5.7-5.6 9.2-13.5 9.2-22.1 0-17.2-14-31.2-31.3-31.2-8.6 0-16.4 3.5-22.1 9.1l-16.7 16.8c-39.4 39.3-106.7 11.5-106.7-44.2v-23.7c0-17.2-14-31.3-31.3-31.3s-31.2 14.1-31.2 31.3v23.7c0 55.7-67.3 83.5-106.7 44.2l-16.7-16.8c-5.7-5.6-13.5-9.1-22.1-9.1-17.3 0-31.3 14-31.3 31.2 0 8.6 3.5 16.5 9.2 22.1l16.7 16.8c39.4 39.3 11.5 106.6-44.2 106.6h-23.7c-17.2 0-31.2 14.1-31.2 31.3s14 31.2 31.2 31.2h23.7c55.7 0 83.6 67.4 44.2 106.7l-16.7 16.8c-5.7 5.6-9.2 13.5-9.2 22.1 0 17.2 14 31.2 31.3 31.2 8.6 0 16.4-3.5 22.1-9.1l16.7-16.8c39.4-39.3 106.7-11.5 106.7 44.2v23.7c0 17.2 14 31.3 31.2 31.3s31.3-14.1 31.3-31.3v-23.7c0-55.7 67.3-83.5 106.7-44.2l16.7 16.8c5.7 5.6 13.5 9.1 22.1 9.1 17.3 0 31.3-14 31.3-31.2 0-8.6-3.5-16.5-9.2-22.1l-16.7-16.8c-39.4-39.3-11.5-106.6 44.2-106.6h23.7z" />
  </svg>
