<svg height="1000" width="1000" xmlns="http://www.w3.org/2000/svg"><path d="M375 406.3c0 -34.6 -28 -62.5 -62.5 -62.5h-31.2c-69.1 0 -125 55.9 -125 125v93.7c0 69 55.9 125 125 125h31.2c34.5 0 62.5 -28 62.5 -62.5V406.3zm343.8 281.2c69 0 125 -56 125 -125v-93.7c0 -69.1 -56 -125 -125 -125h-31.3c-34.5 0 -62.5 27.9 -62.5 62.5V625c0 34.5 28 62.5 62.5 62.5h31.3zM500 0C221.1 0 8.9 232.1 0 500v31.3c0 17.2 14 31.2 31.3 31.2h31.2c17.3 0 31.3 -14 31.3 -31.2V500C93.8 276 276 93.8 500 93.8S906.3 276 906.3 500h-.3c.2 4.7 .3 323.7 .3 323.7 0 45.6 -37 82.6 -82.6 82.6H625c0 -51.8 -42 -93.8 -93.7 -93.8h-62.5c-51.8 0 -93.8 42 -93.8 93.8s42 93.7 93.8 93.7h354.9c97.4 0 176.3 -78.9 176.3 -176.3V500C991.1 232.1 778.9 0 500 0z"/></svg>