<svg height="1000" width="1000" xmlns="http://www.w3.org/2000/svg"><path d="M312.5 562.5h-31.2c-69.1 0 -125 56.1 -125 125.2v124.6c0 69.1 55.9 125.2 125 125.2h31.2c34.5 0 62.5 -28 62.5 -62.6V625.1c0 -34.6 -28 -62.6 -62.5 -62.6zm406.3 0h-31.3c-34.5 0 -62.5 28 -62.5 62.6v249.8c0 34.6 28 62.6 62.5 62.6h31.3c69 0 125 -56.1 125 -125.2V687.7c0 -69.1 -56 -125.2 -125 -125.2zM500 62.5C220.5 62.5 8.9 295.2 0 562.5v218.8c0 17.2 14 31.2 31.3 31.2h31.2c17.3 0 31.3 -14 31.3 -31.2V562.5C93.8 338.5 276 156.6 500 156.6s406.3 181.9 406.3 405.9v218.8c0 17.2 13.9 31.2 31.2 31.2h31.3c17.2 0 31.2 -14 31.2 -31.2V562.5C991.1 295.2 779.5 62.5 500 62.5z"/></svg>