
  <svg height="1000" width="1000.0" xmlns="http://www.w3.org/2000/svg">
    <path d="m375 406.3v218.7c0 34.5-28 62.5-62.5 62.5h-31.2c-69.1 0-125-56-125-125v-93.7c0-69.1 55.9-125 125-125h31.2c34.5 0 62.5 27.9 62.5 62.5z m343.8 281.2h-31.3c-34.5 0-62.5-28-62.5-62.5v-218.7c0-34.6 28-62.5 62.5-62.5h31.3c69 0 125 55.9 125 125v93.7c0 69-56 125-125 125z m-218.8-687.5c278.9 0 491.1 232.1 500 500v323.7c0 97.4-78.9 176.3-176.3 176.3h-355c-51.7 0-93.7-42-93.7-93.7s42-93.8 93.7-93.8h62.5c51.8 0 93.8 42 93.8 93.8h198.7c45.6 0 82.6-37 82.6-82.6 0 0-0.1-319-0.3-323.7h0.3c0-224-182.3-406.2-406.3-406.2s-406.2 182.2-406.2 406.2v31.3c0 17.2-14 31.2-31.3 31.2h-31.2c-17.3 0-31.3-14-31.3-31.2v-31.3c8.9-267.9 221.1-500 500-500z" />
  </svg>
