<svg height="1000" width="1000" xmlns="http://www.w3.org/2000/svg"><path d="M500 62.5C223.7 62.5 0 286.1 0 562.5v93.8a62.5 -62.5 0 0 1 34.5 55.9l28.1 14c4 117.4 100.3 211.3 218.7 211.3h46.8c25.9 0 46.9 -21 46.9 -46.9V546.9C375 521 354 500 328.1 500h-46.8C220 500 164.7 525.2 125 565.7v-3.2c0 -206.8 168.2 -375 375 -375s375 168.2 375 375v3.2C835.3 525.2 780 500 718.8 500h-46.9C646 500 625 521 625 546.9v343.7c0 25.9 21 46.9 46.9 46.9h46.9c118.3 0 214.6 -93.9 218.6 -211.3l28 -14a62.5 -62.5 0 0 1 34.6 -55.9v-93.8c0 -276.3 -223.6 -500 -500 -500z"/></svg>