<svg height="1000" width="1000" xmlns="http://www.w3.org/2000/svg"><path d="M968.8 156.3V93.8c0 -17.3 -14 -31.3 -31.3 -31.3H625c-17.3 0 -31.2 14 -31.2 31.3v62.5c0 17.2 13.9 31.2 31.2 31.2h73.5v250h-397v-250H375c17.3 0 31.3 -14 31.3 -31.2V93.8c0 -17.3 -14 -31.3 -31.3 -31.3H62.5c-17.3 0 -31.2 14 -31.2 31.3v62.5c0 17.2 13.9 31.2 31.2 31.2h72.8v625H62.5c-17.3 0 -31.2 14 -31.2 31.3v62.5c0 17.2 13.9 31.2 31.2 31.2H375c17.3 0 31.3 -14 31.3 -31.2v-62.5c0 -17.3 -14 -31.3 -31.3 -31.3h-73.5v-250h397v250H625c-17.3 0 -31.2 14 -31.2 31.3v62.5c0 17.2 13.9 31.2 31.2 31.2h312.5c17.3 0 31.3 -14 31.3 -31.2v-62.5c0 -17.3 -14 -31.3 -31.3 -31.3h-72.8v-625h72.8c17.3 0 31.3 -14 31.3 -31.2z"/></svg>