
  <svg height="1000" width="1000.0" xmlns="http://www.w3.org/2000/svg">
    <path d="m312.5 562.5c34.5 0 62.5 28 62.5 62.6v249.8c0 34.6-28 62.6-62.5 62.6h-31.2c-69.1 0-125-56.1-125-125.2v-124.6c0-69.1 55.9-125.2 125-125.2h31.2z m406.3 0c69 0 125 56.1 125 125.2v124.6c0 69.1-56 125.2-125 125.2h-31.3c-34.5 0-62.5-28-62.5-62.6v-249.8c0-34.6 28-62.6 62.5-62.6h31.3z m-218.8-500c279.5 0 491.1 232.7 500 500v218.8c0 17.2-14 31.2-31.2 31.2h-31.3c-17.3 0-31.2-14-31.2-31.2v-218.8c0-224-182.3-405.9-406.3-405.9-224 0-406.2 181.9-406.2 405.9v218.8c0 17.2-14 31.2-31.3 31.2h-31.2c-17.3 0-31.3-14-31.3-31.2v-218.8c8.9-267.3 220.5-500 500-500z" />
  </svg>
