
  <svg height="1000" width="1000.0" xmlns="http://www.w3.org/2000/svg">
    <path d="m875 187.5v625h62.5c17.2 0 31.3 14 31.3 31.3v62.5c0 17.2-14.1 31.2-31.3 31.2h-312.5c-17.2 0-31.2-14-31.2-31.2v-62.5c0-17.3 14-31.3 31.2-31.3h62.5v-250h-375v250h62.5c17.2 0 31.3 14 31.3 31.3v62.5c0 17.2-14.1 31.2-31.3 31.2h-312.5c-17.2 0-31.2-14-31.2-31.2v-62.5c0-17.3 14-31.3 31.2-31.3h62.5v-625h-62.5c-17.2 0-31.2-14-31.2-31.2v-62.5c0-17.3 14-31.3 31.2-31.3h312.5c17.2 0 31.3 14 31.3 31.3v62.5c0 17.2-14.1 31.2-31.3 31.2h-62.5v250h375v-250h-62.5c-17.2 0-31.2-14-31.2-31.2v-62.5c0-17.3 14-31.3 31.2-31.3h312.5c17.2 0 31.3 14 31.3 31.3v62.5c0 17.2-14.1 31.2-31.3 31.2h-62.5z" />
  </svg>
