
  <svg height="1000" width="1250.0" xmlns="http://www.w3.org/2000/svg">
    <path d="m886.9 623.5l351 271.2c7.4 5.7 12.1 14.7 12.1 24.7 0 7.2-2.4 13.9-6.6 19.2l-38.3 49.3c-5.7 7.4-14.7 12.1-24.7 12.1-7.3 0-13.9-2.5-19.2-6.6l-1149.1-888.1c-7.4-5.7-12.1-14.7-12.1-24.7 0-7.2 2.5-13.9 6.6-19.2l38.3-49.3c5.7-7.4 14.7-12.1 24.7-12.1 7.2 0 13.9 2.5 19.2 6.6l75.6 58.4c59.8-40.9 132.4-65 210.3-65h0.3 82.2c137.3 0.1 258.5 68 332.1 172.4 48 68.3 101.8 272.7 142.8 364.7 16.6 37.5-7 78.9-45.2 86.4z m-274.8-212.5c7.5-10.3 12.9-22.3 12.8-36 0-34.5-28-62.4-62.5-62.5-19.4 0-36.1 9.5-47.5 23.4z m591 182.8c-25.8 0-46.8-21.1-46.8-46.9s21-46.9 46.8-46.9 46.9 21 46.9 46.9-21 46.9-46.9 46.9z m-125 125c-25.8 0-46.8-21.1-46.8-46.9s21-46.9 46.8-46.9 46.9 21 46.9 46.9-21 46.9-46.9 46.9z m-515.6 31.2c0 34.5 28 62.5 62.5 62.5h187.5c0 69-56 125-125 125h-125v62.5h-437.5v-345.9c-76.7-68.9-125-168.3-125-279.1 0-60.6 14.8-118.2 40.5-168.8l622.7 481.3h-38.2c-34.5 0-62.5 28-62.5 62.5z m640.6-46.9c25.9 0 46.9 21 46.9 46.9s-21 46.9-46.9 46.9-46.8-21-46.8-46.9 21-46.9 46.8-46.9z" />
  </svg>
