
  <svg height="1000" width="1000.0" xmlns="http://www.w3.org/2000/svg">
    <path d="m625.4 476.2l43.2 86.3h213l-356.6 364.3c-13.9 14.2-36.3 14.2-50.2 0l-356.4-364.3h183.7l58.6-140 111.2 246.6c10.7 24.1 44.7 24.8 56.4 1.2z m299.8-331.9c95.1 97.3 99.2 252.2 14.3 355.7h-232.3l-53.9-107.8c-11.5-23.1-44.3-23.1-55.8 0l-95.7 191.2-113.7-252.5c-11.3-25-46.9-24.5-57.4 0.7l-70.2 168.4h-200c-84.9-103.5-80.8-258.4 14.3-355.7l4.7-4.7c100.6-102.9 265.4-102.9 366 0l54.5 55.7 54.5-55.8c100.8-102.8 265.4-102.8 366 0z" />
  </svg>
