<svg height="1000" width="1000" xmlns="http://www.w3.org/2000/svg"><path d="M625.4 476.2l-97.1 194.1c-11.7 23.6 -45.7 22.9 -56.4 -1.2L360.7 422.5l-58.6 140H118.4l356.4 364.3c13.9 14.2 36.3 14.2 50.2 0L881.6 562.5h-213l-43.2 -86.3zM925.2 144.3l-4.7 -4.8C819.9 36.7 655.3 36.7 554.5 139.5L500 195.3l-54.5 -55.7C344.9 36.7 180.1 36.7 79.5 139.6l-4.7 4.7C-20.3 241.6 -24.4 396.5 60.5 500h200l70.2 -168.4c10.5 -25.2 46.1 -25.7 57.4 -.7l113.7 252.5 95.7 -191.2c11.5 -23.1 44.3 -23.1 55.8 0L707.2 500h232.3c84.9 -103.5 80.8 -258.4 -14.3 -355.7z"/></svg>