
  <svg height="1000" width="1250.0" xmlns="http://www.w3.org/2000/svg">
    <path d="m593.8 750c-20.5 0-38.6-9.8-50-25l-168.8-225-312.5-125-61.5-211.2c-5-19.7 9.9-38.8 30.3-38.8h78.1c9.8 0 19.1 4.6 25 12.5l84.3 112.5h406.3v-125h-343.8c-17.2 0-31.2-14-31.2-31.2v-62.5c0-17.3 14-31.3 31.2-31.3h812.5c17.3 0 31.3 14 31.3 31.3v62.5c0 17.2-14 31.2-31.3 31.2h-343.7v125c241.6 0 437.5 195.9 437.5 437.5 0 34.5-28 62.5-62.5 62.5h-531.3z m218.7-368.1v243.1h243.7c-24.9-122.2-121.5-218.2-243.7-243.1z m428.5 514.2c12.8 12.9 11.8 34.2-2 46.2-64.7 56.8-104.6 57.7-133.6 57.7h-636.6c-17.3 0-31.3-14-31.3-31.3v-62.6c0-17.3 14-31.4 31.3-31.4h636.6c21 0 34.2-8.7 48.1-21.9 12.5-12 32-12.3 44.2 0z" />
  </svg>
