<svg height="1000" width="1250" xmlns="http://www.w3.org/2000/svg"><path d="M593.8 750H1125c34.5 0 62.5 -28 62.5 -62.5C1187.5 445.9 991.6 250 750 250V125h343.8c17.2 0 31.2 -14 31.2 -31.2V31.3C1125 14 1111 0 1093.8 0H281.3C264 0 250 14 250 31.3v62.5c0 17.2 14 31.2 31.3 31.2H625v125H218.8L134.4 137.5c-5.9 -7.9 -15.2 -12.5 -25 -12.5H31.3C10.9 125 -4 144.1 1 163.8L62.5 375 375 500l168.8 225a62.5 -62.5 0 0 1 50 25zM812.5 381.9c122.2 24.9 218.8 120.9 243.7 243.1H812.5V381.9zM1241 896.1l-43.3 -43.3c-12.2 -12.3 -31.7 -12 -44.2 0 -13.9 13.2 -27.1 21.9 -48.1 21.9H468.8c-17.3 0 -31.3 14.1 -31.3 31.4v62.6c0 17.3 14 31.3 31.3 31.3h636.6c29 0 68.9 -.9 133.6 -57.7 13.8 -12 14.8 -33.3 2 -46.2z"/></svg>