<svg height="1000" width="750" xmlns="http://www.w3.org/2000/svg"><path d="M394.6 0C238.7 0 137.7 63.9 58.4 177.8c-14.4 20.6 -9.9 49 10.1 64.2l84.3 63.9c20.3 15.3 49.1 11.7 64.9 -8.1 49 -61.3 85.3 -96.6 161.7 -96.6 60.1 0 134.4 38.7 134.4 96.9 0 44.1 -36.4 66.7 -95.7 100 -69.2 38.7 -160.7 87 -160.7 207.8V625c0 25.9 20.9 46.9 46.8 46.9h141.6c25.9 0 46.8 -21 46.8 -46.9v-11.3C492.6 530 737.3 526.5 737.3 300 737.3 129.4 560.4 0 394.6 0zM375 729.4c-74.6 0 -135.3 60.7 -135.3 135.3 0 74.6 60.7 135.3 135.3 135.3S510.3 939.3 510.3 864.7 449.6 729.4 375 729.4z"/></svg>