
  <svg height="1000" width="750.0" xmlns="http://www.w3.org/2000/svg">
    <path d="m158.1 922.3l67.5-269.9 103.1 103-49.3 197.3c-7.1 28.3-32.6 47.3-60.6 47.3-5 0-10.1-0.6-15.2-1.9-33.5-8.3-53.9-42.3-45.5-75.8z m29.1-383c-4.3 16.4-21.7 26.4-38.8 22.3l-124.2-29.8c-17.1-4.1-27.5-20.7-23.2-37.2l49.3-191.7c21.4-82.2 108.3-132.2 194-111.6 17.1 4.1 27.6 20.8 23.3 37.2z m531.6-226.8c17.2 0 31.2 14 31.2 31.3v625c0 17.2-14 31.2-31.3 31.2h-31.2c-17.3 0-31.3-14-31.3-31.2v-468.8h-93.7c-16.6 0-32.5-6.6-44.2-18.3l-43.8-43.8-38.9 155.4c-0.2 1-0.9 1.8-1.2 2.8l91.5 91.4c23.6 23.6 36.6 55 36.6 88.4v161.6c0 34.5-28 62.5-62.5 62.5s-62.5-28-62.5-62.5v-161.6l-169.2-169.2c-11.3-11.3-18.3-26.9-18.3-44.2 0-5.2 0.7-10.3 1.9-15.2l52.6-210.3c12.8-51.3 58.6-87 111.3-87 30.7 0 59.6 11.9 81.2 33.6l91.4 91.4h67.9v-31.3c0-17.2 13.9-31.2 31.2-31.2h31.3z m-250-125c-51.8 0-93.8-42-93.8-93.7s42-93.8 93.8-93.8 93.7 42 93.7 93.8-42 93.7-93.7 93.7z" />
  </svg>
