
  <svg height="1000" width="875.0" xmlns="http://www.w3.org/2000/svg">
    <path d="m281.3 375c-51.8 0-93.8-42-93.8-93.7s42-93.8 93.8-93.8 93.7 42 93.7 93.8-42 93.7-93.7 93.7z m218.7-93.7c0-51.8 42-93.8 93.8-93.8s93.7 42 93.7 93.8-42 93.7-93.7 93.7-93.8-42-93.8-93.7z m-62.5-93.8c-51.8 0-93.7-42-93.7-93.7s41.9-93.8 93.7-93.8 93.8 42 93.8 93.8-42 93.7-93.8 93.7z m-31.6 271.7c-0.8 77.7 14.4 152.5 44.7 219.3 7.8 17.4-3.9 37.5-22.9 39.5-29.7 2.9-59.3 9-88.4 17.7-29.1 8.8-46.5 38.9-39.5 68.6s16.6 58.4 28.7 85.5c7.8 17.4-3.7 37.7-22.6 39.5-70.2 6.6-139.9 29.1-204.7 66.2-24.2 13.9-53.7-3.1-53.9-31.2-0.2-74.7-15.7-146.3-45-210.4-7.8-17.4 4-37.5 22.9-39.4 29.7-3 59.4-9 88.5-17.8 29.1-8.8 46.5-38.9 39.4-68.6-7-29.7-16.6-58.4-28.7-85.5-7.8-17.4 3.7-37.7 22.7-39.5 72.8-6.8 145.3-31 212.3-70.7 20.9-12.5 46.7 2.6 46.5 26.8z m443.7 254.9c19 1.9 30.9 22.2 22.5 39.2-29.3 63.9-44.6 135.8-45 210.4 0 28.1-29.4 45.1-53.9 31.2-64.8-37.1-134.5-59.5-204.6-66.2-19-1.7-30.5-22.1-22.7-39.4 12.1-27.4 21.7-55.9 28.7-85.6 7-29.7-10.3-59.8-39.4-68.5-9.6-3-19.4-4.9-28.9-7.3 11.3-24 12.3-51.7 1.1-75.9-25.2-55.3-38.5-118.6-38.8-183.6 0-3.4 0.3-6.5 0.3-9.6-0.2-24 25.6-39.1 46.5-26.8 67 39.7 139.5 63.9 212.3 70.7 19 1.8 30.5 22.1 22.7 39.5-12.1 27.3-21.7 55.8-28.7 85.5-7.1 29.7 10.3 59.8 39.4 68.6 29.3 8.6 58.8 14.6 88.5 17.8z" />
  </svg>
