
  <svg height="1000" width="1125.0" xmlns="http://www.w3.org/2000/svg">
    <path d="m547.6 289.6c4.1-3.3 9.3-5.3 15-5.3s10.8 2 14.9 5.3l360 296.3v320.4c0 17.2-14 31.2-31.3 31.2l-218.7-0.6c-17.3 0-31.3-14-31.3-31.3 0 0 0 0 0-0.1v-186.7c0-17.3-14-31.3-31.2-31.3h-125c-17.3 0-31.3 14-31.3 31.3v186.9c0 17.2-13.9 31.1-31.1 31.2l-218.9 0.6c-17.2 0-31.2-14-31.2-31.2v-320.1z m568.8 201.6c5.3 4.3 8.7 10.8 8.7 18.2 0 5.6-2 10.8-5.4 14.8l-49.8 60.6c-4.3 5.2-10.8 8.5-18.1 8.5-5.6 0-10.8-2.1-14.9-5.4l-459.4-378.4c-4.1-3.3-9.3-5.3-15-5.3-5.6 0-10.8 2-14.9 5.3l-459.4 378.4c-4.1 3.3-9.3 5.4-14.9 5.4-7.3 0-13.8-3.4-18.1-8.6l-49.8-60.5c-3.4-4.1-5.4-9.3-5.4-15 0-7.2 3.3-13.7 8.5-18l494.4-407.2c16.2-13.3 37-21.3 59.6-21.3s43.3 8 59.5 21.3l174.9 143.9v-141.9c0-12.9 10.5-23.4 23.4-23.4h109.4c12.9 0 23.4 10.5 23.4 23.4v270.6z" />
  </svg>
