<svg height="1000" width="1125" xmlns="http://www.w3.org/2000/svg"><path d="M953.1 610.7v279.9c0 26 -20.9 46.9 -46.8 46.9H679.7c-12.9 0 -23.4 -10.5 -23.4 -23.4V695.3c0 -12.9 -10.6 -23.4 -23.5 -23.4H492.2c-12.9 0 -23.4 10.5 -23.4 23.4v218.8c0 12.9 -10.6 23.4 -23.5 23.4H218.8c-26 0 -46.9 -20.9 -46.9 -46.9V610.7c0 -7 3.1 -13.6 8.6 -18.1L547.7 290.2c8.6 -7 21.1 -7 29.8 0l367.2 302.4c5.3 4.5 8.4 11.1 8.4 18.1zm163.3 -118.9L953.1 357.2V86.7c0 -12.9 -10.5 -23.4 -23.4 -23.4H820.3c-12.9 0 -23.4 10.5 -23.4 23.4v141.8L622.1 84.6c-34.6 -28.5 -84.6 -28.5 -119.2 0L8.6 491.8c-10 8.2 -11.3 23 -3.1 33l49.8 60.6c8.2 9.9 23 11.3 33 3.1L547.7 210.2c8.6 -7.1 21.1 -7.1 29.8 0l459.4 378.3c10 8.2 24.8 6.8 33 -3.1l49.8 -60.6c8.2 -10.2 6.7 -24.8 -3.3 -33z"/></svg>