
  <svg height="1000" width="1000.0" xmlns="http://www.w3.org/2000/svg">
    <path d="m995.7 649.4c9 23.1 3.5 49.4-13.9 67.2l-88.4 77.7c-11.8 11.8-27.6 18.4-44.2 18.4h-98.2c-20.1 0-39.1-9.6-50.8-26l-89.8-124.8c-27 15.8-57.9 25.8-91.5 25.8-76.5 0-141.8-46.3-170.7-112.1-4.4-10-17.5-12.3-25.2-4.7l-23.6 23.6c-4.9 4.7-6.2 12.1-3.1 18.2 38.5 76 114.6 129.1 203.7 135.9v1.4l79.7 159.6c20.9 41.6-9.4 90.4-55.9 90.4h-461.3c-34.6 0-62.5-27.9-62.5-62.5v-158.6c0-312.3 70.1-537.9 326-629.9l394.9-147.8c9.6-3.5 20.9 2.1 23.4 11.9 23.7 90.6-31.6 140-66.8 160.7 83.2 16 152.6 74.2 181.7 154.7z m-355.1-211.9c26 0 46.9-20.9 46.9-46.9s-20.9-46.8-46.9-46.8-46.8 20.8-46.8 46.8 20.8 46.9 46.8 46.9z" />
  </svg>
