
  <svg height="1000" width="1125.0" xmlns="http://www.w3.org/2000/svg">
    <path d="m1124.8 149.6l0.2 151.8c0 0 0 0 0 0 0 26.3-16.3 48.9-39.3 58.1l-63.6 25.4c-30.2 12.1-64.5-1-79.1-30l-36.9-73.6-31.3-13.9v200.1c0.1 0.4 0.2 0.8 0.2 1.3 0 59.5-23.9 113.3-62.5 152.7v347.3c0 17.2-14 31.2-31.3 31.2h-125c-17.2 0-31.2-14-31.2-31.2v-293.8l-261.7-43.6-46.5 124.2 51.4 205.6c4.9 19.7-10 38.8-30.3 38.8h-128.9c-14.6 0-26.9-10.1-30.3-23.7l-48.5-194.1c-2.4-9.8-3.7-19.9-3.7-30.4 0-15.4 2.8-30.2 7.9-43.8l50.2-134c-36.5-34.2-59.6-82.5-59.6-136.5 0-5.1 1.1-10 1.5-15-19.3 14.2-32.8 36.1-32.8 61.9v109.4c0 17.2-13.9 31.2-31.2 31.2h-31.3c-17.2 0-31.2-14-31.2-31.2v-109.4c0-94.8 77.1-171.9 171.9-171.9v2.2c34.3-39.3 84.3-64.7 140.6-64.7h312.3c0-138.1 112-250 250-250h234.4c9.9 0 17.5 9.1 15.5 18.8-5.3 25.8-21.8 46.6-43.4 59.9 10 10.5 19.4 20.5 26.8 28.3 10.8 11.6 16.7 26.7 16.7 42.6z m-125 37.9c17.3 0 31.3-14 31.3-31.2s-14-31.3-31.3-31.3-31.2 14-31.2 31.3 14 31.2 31.2 31.2z" />
  </svg>
