
  <svg height="1000" width="1250.0" xmlns="http://www.w3.org/2000/svg">
    <path d="m937.5 625c-103.5 0-187.5-84-187.5-187.5s84-187.5 187.5-187.5 187.5 84 187.5 187.5-84 187.5-187.5 187.5z m93.8 62.5c120.7 0 218.7 98 218.7 218.7 0 0.4 0 0.8 0 1.3-0.3 51.2-42.4 92.5-93.7 92.5h-437.5c-51.4 0-93.5-41.3-93.8-92.5 0-0.5 0-0.8 0-1.3 0-120.7 98-218.7 218.8-218.7 0 0 0.1 0 0.1 0 4.8 0 9.3 0.8 13.6 2.1 25.1 8.7 52.1 13.5 80.1 13.5s54.8-4.8 79.9-13.5c4.3-1.3 8.8-2.1 13.6-2.1h0.2z m-386.9 20.4c-50.6 50.6-81.9 120.5-81.9 197.6 0 0.7 0 1.5 0 2.3 0.3 34.6 12.2 66.7 31.9 92.2h-563.2c-17.2 0-31.2-14-31.2-31.3v-718.7c0-34.5 28-62.5 62.5-62.5h62.5v-125c0-34.5 28-62.5 62.5-62.5h312.5c34.5 0 62.5 28 62.5 62.5v125h62.5c34.5 0 62.5 28 62.5 62.5v423.1c-15.6 10.2-29.9 21.8-43.1 34.8z m-363.1 81.2v-78.2c0-12.9-10.6-23.4-23.5-23.4h-78.1c-12.9 0-23.4 10.5-23.4 23.4v78.2c0 12.9 10.5 23.4 23.4 23.4h78.1c12.9 0 23.5-10.5 23.5-23.4z m0-250v-78.2c0-12.9-10.6-23.4-23.5-23.4h-78.1c-12.9 0-23.4 10.5-23.4 23.4v78.2c0 12.9 10.5 23.4 23.4 23.4h78.1c12.9 0 23.5-10.5 23.5-23.4z m93.7-238.3v-50.8h50.8c6.4 0 11.7-5.3 11.7-11.7v-39.1c0-6.4-5.3-11.7-11.7-11.7h-50.8v-50.8c0-6.4-5.3-11.7-11.7-11.7h-39.1c-6.4 0-11.7 5.3-11.7 11.7v50.8h-50.8c-6.4 0-11.7 5.3-11.7 11.7v39.1c0 6.4 5.3 11.7 11.7 11.7h50.8v50.8c0 6.4 5.3 11.7 11.7 11.7h39.1c6.4 0 11.7-5.3 11.7-11.7z m156.3 488.3v-78.2c0-12.9-10.6-23.4-23.5-23.4h-78.1c-12.9 0-23.4 10.5-23.4 23.4v78.2c0 12.9 10.5 23.4 23.4 23.4h78.1c12.9 0 23.5-10.5 23.5-23.4z m0-250v-78.2c0-12.9-10.6-23.4-23.5-23.4h-78.1c-12.9 0-23.4 10.5-23.4 23.4v78.2c0 12.9 10.5 23.4 23.4 23.4h78.1c12.9 0 23.5-10.5 23.5-23.4z" />
  </svg>
