
  <svg height="1000" width="875.0" xmlns="http://www.w3.org/2000/svg">
    <path d="m875 960.9v39.1h-875v-39.1c0-12.9 10.5-23.4 23.4-23.4h39.1v-703.1c0-25.9 21-46.9 46.9-46.9h171.9v-140.6c0-25.9 20.9-46.9 46.8-46.9h218.8c25.9 0 46.9 21 46.9 46.9v140.6h171.8c25.9 0 46.9 21 46.9 46.9v703.1h39.1c12.9 0 23.4 10.5 23.4 23.4z m-273.4-585.9h-78.2c-12.9 0-23.4 10.5-23.4 23.4v78.2c0 12.9 10.5 23.4 23.4 23.4h78.2c12.9 0 23.4-10.5 23.4-23.4v-78.2c0-12.9-10.5-23.4-23.4-23.4z m-328.2 125h78.2c12.9 0 23.4-10.5 23.4-23.4v-78.2c0-12.9-10.5-23.4-23.4-23.4h-78.2c-12.9 0-23.4 10.5-23.4 23.4v78.2c0 12.9 10.5 23.4 23.4 23.4z m203.2 250h-78.2c-12.9 0-23.4 10.5-23.4 23.4v164.1h125v-164.1c0-12.9-10.5-23.4-23.4-23.4z m125-187.5h-78.2c-12.9 0-23.4 10.5-23.4 23.4v78.2c0 12.9 10.5 23.4 23.4 23.4h78.2c12.9 0 23.4-10.5 23.4-23.4v-78.2c0-12.9-10.5-23.4-23.4-23.4z m-226.6 23.4c0-12.9-10.5-23.4-23.4-23.4h-78.2c-12.9 0-23.4 10.5-23.4 23.4v78.2c0 12.9 10.5 23.4 23.4 23.4h78.2c12.9 0 23.4-10.5 23.4-23.4v-78.2z m-19.5-398.4h50.8v50.8c0 6.4 5.2 11.7 11.7 11.7h39c6.5 0 11.8-5.3 11.8-11.7v-50.8h50.7c6.5 0 11.8-5.3 11.8-11.7v-39.1c0-6.4-5.3-11.7-11.8-11.7h-50.7v-50.8c0-6.4-5.3-11.7-11.8-11.7h-39c-6.5 0-11.7 5.3-11.7 11.7v50.8h-50.8c-6.5 0-11.7 5.3-11.7 11.7v39.1c0 6.4 5.2 11.7 11.7 11.7z" />
  </svg>
