<svg height="1000" width="1125" xmlns="http://www.w3.org/2000/svg"><path d="M1062.5 187.5h-250v-125C812.5 27.9 784.6 0 750 0H375c-34.6 0 -62.5 27.9 -62.5 62.5v125h-250C27.9 187.5 0 215.4 0 250v718.8c0 17.1 14.1 31.2 31.3 31.2h1062.5c17.1 0 31.2 -14.1 31.2 -31.2V250c0 -34.6 -27.9 -62.5 -62.5 -62.5zm-750 664.1c0 12.9 -10.5 23.4 -23.4 23.4h-78.2c-12.9 0 -23.4 -10.5 -23.4 -23.4v-78.2c0 -12.9 10.5 -23.4 23.4 -23.4h78.2c12.9 0 23.4 10.5 23.4 23.4v78.2zm0 -250c0 12.9 -10.5 23.4 -23.4 23.4h-78.2c-12.9 0 -23.4 -10.5 -23.4 -23.4v-78.2c0 -12.9 10.5 -23.4 23.4 -23.4h78.2c12.9 0 23.4 10.5 23.4 23.4v78.2zm312.5 250c0 12.9 -10.5 23.4 -23.4 23.4h-78.2C510.5 875 500 864.5 500 851.6v-78.2c0 -12.9 10.5 -23.4 23.4 -23.4h78.2c12.9 0 23.4 10.5 23.4 23.4v78.2zm0 -250c0 12.9 -10.5 23.4 -23.4 23.4h-78.2C510.5 625 500 614.5 500 601.6v-78.2c0 -12.9 10.5 -23.4 23.4 -23.4h78.2c12.9 0 23.4 10.5 23.4 23.4v78.2zm31.3 -332.1c0 6.5 -5.3 11.8 -11.8 11.8h-50.7V332c0 6.5 -5.3 11.8 -11.8 11.8h-39c-6.5 0 -11.7 -5.3 -11.7 -11.8v-50.7h-50.8c-6.5 0 -11.7 -5.3 -11.7 -11.8v-39c0 -6.5 5.2 -11.7 11.7 -11.7h50.8V168c0 -6.5 5.2 -11.7 11.7 -11.7h39c6.5 0 11.8 5.2 11.8 11.7v50.8h50.7c6.5 0 11.8 5.2 11.8 11.7v39zm281.2 582.1c0 12.9 -10.5 23.4 -23.4 23.4h-78.2c-12.9 0 -23.4 -10.5 -23.4 -23.4v-78.2c0 -12.9 10.5 -23.4 23.4 -23.4h78.2c12.9 0 23.4 10.5 23.4 23.4v78.2zm0 -250c0 12.9 -10.5 23.4 -23.4 23.4h-78.2c-12.9 0 -23.4 -10.5 -23.4 -23.4v-78.2c0 -12.9 10.5 -23.4 23.4 -23.4h78.2c12.9 0 23.4 10.5 23.4 23.4v78.2z"/></svg>