
  <svg height="1000" width="1125.0" xmlns="http://www.w3.org/2000/svg">
    <path d="m1062.5 187.5c34.6 0 62.5 27.9 62.5 62.5v718.8c0 17.1-14.1 31.2-31.2 31.2h-1062.5c-17.2 0-31.3-14.1-31.3-31.2v-718.8c0-34.6 27.9-62.5 62.5-62.5h250v-125c0-34.6 27.9-62.5 62.5-62.5h375c34.6 0 62.5 27.9 62.5 62.5v125h250z m-750 664.1v-78.2c0-12.9-10.5-23.4-23.4-23.4h-78.2c-12.9 0-23.4 10.5-23.4 23.4v78.2c0 12.9 10.5 23.4 23.4 23.4h78.2c12.9 0 23.4-10.5 23.4-23.4z m0-250v-78.2c0-12.9-10.5-23.4-23.4-23.4h-78.2c-12.9 0-23.4 10.5-23.4 23.4v78.2c0 12.9 10.5 23.4 23.4 23.4h78.2c12.9 0 23.4-10.5 23.4-23.4z m312.5 250v-78.2c0-12.9-10.5-23.4-23.4-23.4h-78.2c-12.9 0-23.4 10.5-23.4 23.4v78.2c0 12.9 10.5 23.4 23.4 23.4h78.2c12.9 0 23.4-10.5 23.4-23.4z m0-250v-78.2c0-12.9-10.5-23.4-23.4-23.4h-78.2c-12.9 0-23.4 10.5-23.4 23.4v78.2c0 12.9 10.5 23.4 23.4 23.4h78.2c12.9 0 23.4-10.5 23.4-23.4z m31.3-332.1v-39c0-6.5-5.3-11.7-11.8-11.7h-50.7v-50.8c0-6.5-5.3-11.7-11.8-11.7h-39c-6.5 0-11.7 5.2-11.7 11.7v50.8h-50.8c-6.5 0-11.7 5.2-11.7 11.7v39c0 6.5 5.2 11.8 11.7 11.8h50.8v50.7c0 6.5 5.2 11.8 11.7 11.8h39c6.5 0 11.8-5.3 11.8-11.8v-50.7h50.7c6.5 0 11.8-5.3 11.8-11.8z m281.2 582.1v-78.2c0-12.9-10.5-23.4-23.4-23.4h-78.2c-12.9 0-23.4 10.5-23.4 23.4v78.2c0 12.9 10.5 23.4 23.4 23.4h78.2c12.9 0 23.4-10.5 23.4-23.4z m0-250v-78.2c0-12.9-10.5-23.4-23.4-23.4h-78.2c-12.9 0-23.4 10.5-23.4 23.4v78.2c0 12.9 10.5 23.4 23.4 23.4h78.2c12.9 0 23.4-10.5 23.4-23.4z" />
  </svg>
