
  <svg height="1000" width="1000.0" xmlns="http://www.w3.org/2000/svg">
    <path d="m809 347c-6.1-49.6-28.5-93.7-62.4-121.4-54.2-44.2-89.5-113.4-97.9-189.8-2.2-19.1 12.6-35.8 31.2-35.8h31.5c15.6 0 28.8 12 30.7 28 6.2 49.6 28.6 93.7 62.5 121.4 54.1 44.2 89.4 113.4 97.9 189.8 2.1 19.1-12.7 35.8-31.2 35.8h-31.5c-15.7 0-28.8-12-30.8-28z m-210.9 0c-6.2-49.6-28.6-93.7-62.5-121.4-54.1-44.2-89.4-113.4-97.9-189.8-2.1-19.1 12.7-35.8 31.3-35.8h31.5c15.6 0 28.7 12 30.7 28 6.2 49.6 28.5 93.7 62.5 121.4 54.1 44.2 89.4 113.4 97.9 189.8 2.1 19.1-12.7 35.8-31.3 35.8h-31.5c-15.6 0-28.7-12-30.7-28z m339.4 153c34.5 0 62.5 28 62.5 62.5v312.5c0 69-56 125-125 125h-750c-69 0-125-56-125-125v-437.5c0-69 56-125 125-125h83.3c28.1 0 54.2 9.3 75 25l216.7 162.5h437.5z m-687.5 359.4v-218.8c0-8.6-7-15.6-15.6-15.6h-31.3c-8.6 0-15.6 7-15.6 15.6v218.8c0 8.6 7 15.6 15.6 15.6h31.3c8.6 0 15.6-7 15.6-15.6z m187.5 0v-218.8c0-8.6-7-15.6-15.6-15.6h-31.3c-8.6 0-15.6 7-15.6 15.6v218.8c0 8.6 7 15.6 15.6 15.6h31.3c8.6 0 15.6-7 15.6-15.6z m187.5 0v-218.8c0-8.6-7-15.6-15.6-15.6h-31.3c-8.6 0-15.6 7-15.6 15.6v218.8c0 8.6 7 15.6 15.6 15.6h31.3c8.6 0 15.6-7 15.6-15.6z m187.5 0v-218.8c0-8.6-7-15.6-15.6-15.6h-31.3c-8.6 0-15.6 7-15.6 15.6v218.8c0 8.6 7 15.6 15.6 15.6h31.3c8.6 0 15.6-7 15.6-15.6z m-687.5-609.4c-69 0-125-56-125-125s56-125 125-125 125 56 125 125-56 125-125 125z" />
  </svg>
