<svg height="1000" width="1000" xmlns="http://www.w3.org/2000/svg"><path d="M809 347c2 16 15.1 28 30.8 28h31.5c18.5 0 33.3 -16.7 31.2 -35.8C894 262.8 858.8 193.6 804.6 149.4 770.7 121.7 748.3 77.6 742.1 28 740.2 12 727 0 711.4 0h-31.5c-18.6 0 -33.4 16.7 -31.2 35.8 8.4 76.4 43.7 145.6 97.9 189.8 33.9 27.7 56.3 71.8 62.4 121.4zm-210.9 0c2 16 15.1 28 30.7 28h31.5c18.6 0 33.4 -16.7 31.3 -35.8C683.1 262.8 647.8 193.6 593.7 149.4 559.7 121.7 537.4 77.6 531.2 28 529.2 12 516.1 0 500.4 0H469c-18.6 0 -33.4 16.7 -31.3 35.8 8.5 76.4 43.8 145.6 97.9 189.8 33.9 27.7 56.3 71.8 62.5 121.4zm339.4 153H500L283.3 337.5a125 -125 0 0 1 -75 -25H125c-69 0 -125 56 -125 125V875c0 69 56 125 125 125h750c69 0 125 -56 125 -125V562.5C1000 528 972 500 937.5 500zM250 859.4c0 8.6 -7 15.6 -15.6 15.6h-31.3c-8.6 0 -15.6 -7 -15.6 -15.6V640.6c0 -8.6 7 -15.6 15.6 -15.6h31.3c8.6 0 15.6 7 15.6 15.6v218.8zm187.5 0c0 8.6 -7 15.6 -15.6 15.6h-31.3C382 875 375 868 375 859.4V640.6c0 -8.6 7 -15.6 15.6 -15.6h31.3c8.6 0 15.6 7 15.6 15.6v218.8zm187.5 0c0 8.6 -7 15.6 -15.6 15.6h-31.3c-8.6 0 -15.6 -7 -15.6 -15.6V640.6c0 -8.6 7 -15.6 15.6 -15.6h31.3c8.6 0 15.6 7 15.6 15.6v218.8zm187.5 0c0 8.6 -7 15.6 -15.6 15.6h-31.3C757 875 750 868 750 859.4V640.6c0 -8.6 7 -15.6 15.6 -15.6h31.3c8.6 0 15.6 7 15.6 15.6v218.8zM125 250c69 0 125 -56 125 -125S194 0 125 0 0 56 0 125s56 125 125 125z"/></svg>