
  <svg height="1000" width="1000.0" xmlns="http://www.w3.org/2000/svg">
    <path d="m954.2 45.8c28.3 28.3 45.8 67.4 45.8 110.5s-17.5 82.1-45.8 110.4l-687.5 687.5c-28.4 29.4-68.3 47.7-112.4 47.7-86.2 0-156.3-70-156.3-156.2 0-44.1 18.4-84 47.8-112.4l687.5-687.5c28.3-28.3 67.4-45.8 110.5-45.8s82.1 17.5 110.4 45.8z m-97.5 185.9c5.7-5.7 9.1-13.5 9.1-22.1 0-17.3-14-31.3-31.2-31.3-8.6 0-16.4 3.5-22.1 9.2-24.2 24.2-42.5 27.3-67.8 31.7-28.1 4.8-63.1 10.9-101.4 49.1-38.3 38.3-44.3 73.3-49.1 101.4-4.4 25.3-7.5 43.6-31.7 67.8-24.2 24.2-42.4 27.4-67.8 31.7-28.1 4.8-63.1 10.9-101.4 49.1-38.3 38.3-44.3 73.3-49.1 101.4-4.4 25.3-7.5 43.6-31.7 67.8s-42.4 27.4-67.8 31.7c-28.1 4.8-63.1 10.8-101.4 49.1-5.7 5.7-9.1 13.5-9.1 22.1 0 17.3 14 31.3 31.2 31.3 8.6 0 16.4-3.5 22.1-9.2 24.2-24.2 42.5-27.3 67.8-31.7 28.1-4.8 63.1-10.9 101.4-49.1 38.3-38.3 44.3-73.3 49.1-101.4 4.4-25.3 7.5-43.6 31.7-67.8s42.5-27.3 67.8-31.7c28.1-4.8 63.1-10.8 101.4-49.1 38.3-38.3 44.3-73.3 49.1-101.4 4.4-25.3 7.5-43.6 31.7-67.8s42.5-27.3 67.8-31.7c28.1-4.8 63.1-10.8 101.4-49.1z m-795.3 397.6l-22.6-22.6c-48.8-48.8-52-124.7-7.2-169.5l405.6-405.6c44.8-44.8 120.7-41.6 169.5 7.2l22.6 22.6z m877.2-258.6l22.6 22.6c48.8 48.8 52 124.7 7.2 169.5l-405.6 405.6c-44.8 44.8-120.7 41.6-169.5-7.2l-22.6-22.6z" />
  </svg>
