<svg height="1000" width="1125" xmlns="http://www.w3.org/2000/svg"><path d="M1093.8 125c17.2 0 31.2 -14 31.2 -31.2V31.3C1125 14 1111 0 1093.8 0H31.3C14 0 0 14 0 31.3v62.5C0 111 14 125 31.3 125h31.2v750H31.3C14 875 0 889 0 906.3v62.5C0 986 14 1000 31.3 1000H500V843.8c0 -17.2 14.1 -31.3 31.3 -31.3h62.5c17.1 0 31.2 14.1 31.2 31.3V1000h468.8c17.2 0 31.2 -14 31.2 -31.2v-62.5C1125 889 1111 875 1093.8 875h-31.3V125h31.3zM500 212.5c0 -12.5 12.5 -25 25 -25h75c12.5 0 25 12.5 25 25v75c0 12.5 -12.5 25 -25 25h-75c-12.5 0 -25 -12.5 -25 -25v-75zm0 187.5c0 -12.5 12.5 -25 25 -25h75c12.5 0 25 12.5 25 25v75c0 12.5 -12.5 25 -25 25h-75c-12.5 0 -25 -12.5 -25 -25v-75zM250 212.5c0 -12.5 12.5 -25 25 -25h75c12.5 0 25 12.5 25 25v75c0 12.5 -12.5 25 -25 25h-75c-12.5 0 -25 -12.5 -25 -25v-75zM350 500h-75c-12.5 0 -25 -12.5 -25 -25v-75c0 -12.5 12.5 -25 25 -25h75c12.5 0 25 12.5 25 25v75c0 12.5 -12.5 25 -25 25zm25 250c0 -103.6 83.9 -187.5 187.5 -187.5S750 646.4 750 750H375zM875 475c0 12.5 -12.5 25 -25 25h-75c-12.5 0 -25 -12.5 -25 -25v-75c0 -12.5 12.5 -25 25 -25h75c12.5 0 25 12.5 25 25v75zm0 -187.5c0 12.5 -12.5 25 -25 25h-75c-12.5 0 -25 -12.5 -25 -25v-75c0 -12.5 12.5 -25 25 -25h75c12.5 0 25 12.5 25 25v75z"/></svg>