
  <svg height="1000" width="1125.0" xmlns="http://www.w3.org/2000/svg">
    <path d="m1093.8 125h-31.3v750h31.3c17.2 0 31.2 14 31.2 31.3v62.5c0 17.2-14 31.2-31.2 31.2h-468.8v-156.2c0-17.2-14.1-31.3-31.2-31.3h-62.5c-17.2 0-31.3 14.1-31.3 31.3v156.2h-468.7c-17.3 0-31.3-14-31.3-31.2v-62.5c0-17.3 14-31.3 31.3-31.3h31.2v-750h-31.2c-17.3 0-31.3-14-31.3-31.2v-62.5c0-17.3 14-31.3 31.3-31.3h1062.5c17.2 0 31.2 14 31.2 31.3v62.5c0 17.2-14 31.2-31.2 31.2z m-593.8 87.5v75c0 12.5 12.5 25 25 25h75c12.5 0 25-12.5 25-25v-75c0-12.5-12.5-25-25-25h-75c-12.5 0-25 12.5-25 25z m0 187.5v75c0 12.5 12.5 25 25 25h75c12.5 0 25-12.5 25-25v-75c0-12.5-12.5-25-25-25h-75c-12.5 0-25 12.5-25 25z m-250-187.5v75c0 12.5 12.5 25 25 25h75c12.5 0 25-12.5 25-25v-75c0-12.5-12.5-25-25-25h-75c-12.5 0-25 12.5-25 25z m100 287.5c12.5 0 25-12.5 25-25v-75c0-12.5-12.5-25-25-25h-75c-12.5 0-25 12.5-25 25v75c0 12.5 12.5 25 25 25h75z m25 250h375c0-103.6-83.9-187.5-187.5-187.5s-187.5 83.9-187.5 187.5z m500-275v-75c0-12.5-12.5-25-25-25h-75c-12.5 0-25 12.5-25 25v75c0 12.5 12.5 25 25 25h75c12.5 0 25-12.5 25-25z m0-187.5v-75c0-12.5-12.5-25-25-25h-75c-12.5 0-25 12.5-25 25v75c0 12.5 12.5 25 25 25h75c12.5 0 25-12.5 25-25z" />
  </svg>
