
  <svg height="1000" width="750.0" xmlns="http://www.w3.org/2000/svg">
    <path d="m703.1 0c25.9 0 46.9 21 46.9 46.9v31.2c0 25.9-21 46.9-46.9 46.9 0 177.7-99.6 327.6-236 375 136.4 47.4 236 197.3 236 375 25.9 0 46.9 21 46.9 46.9v31.2c0 25.9-21 46.9-46.9 46.9h-656.2c-25.9 0-46.9-21-46.9-46.9v-31.2c0-25.9 21-46.9 46.9-46.9 0-177.7 99.6-327.6 236-375-136.4-47.4-236-197.3-236-375-25.9 0-46.9-21-46.9-46.9v-31.2c0-25.9 21-46.9 46.9-46.9h656.2z m-125 875c0-151.3-90.2-281.2-203.1-281.2-112.9 0-203.1 129.9-203.1 281.2h406.2z" />
  </svg>
