<svg height="1000" width="750" xmlns="http://www.w3.org/2000/svg"><path d="M703.1 125C729 125 750 104 750 78.1V46.9C750 21 729 0 703.1 0H46.9C21 0 0 21 0 46.9v31.2C0 104 21 125 46.9 125c0 177.7 99.6 327.6 236 375 -136.4 47.4 -236 197.3 -236 375C21 875 0 896 0 921.9v31.2C0 979 21 1000 46.9 1000h656.2c25.9 0 46.9 -21 46.9 -46.9v-31.2C750 896 729 875 703.1 875c0 -177.7 -99.6 -327.6 -236 -375 136.4 -47.4 236 -197.3 236 -375zM375 406.3C262.1 406.3 171.9 276.3 171.9 125h406.2c0 152.2 -90.8 281.3 -203.1 281.3z"/></svg>