<svg height="1000" width="750" xmlns="http://www.w3.org/2000/svg"><path d="M703.1 0H46.9C21 0 0 21 0 46.9v31.2C0 104 21 125 46.9 125c0 177.7 99.6 327.6 236 375 -136.4 47.4 -236 197.3 -236 375C21 875 0 896 0 921.9v31.2C0 979 21 1000 46.9 1000h656.2c25.9 0 46.9 -21 46.9 -46.9v-31.2C750 896 729 875 703.1 875c0 -177.7 -99.6 -327.6 -236 -375 136.4 -47.4 236 -197.3 236 -375C729 125 750 104 750 78.1V46.9C750 21 729 0 703.1 0zm-125 875H171.9c0 -151.3 90.2 -281.2 203.1 -281.2 112.9 0 203.1 129.9 203.1 281.2z"/></svg>