
  <svg height="1000" width="1125.0" xmlns="http://www.w3.org/2000/svg">
    <path d="m1114.6 461.5c5.7 6.2 9.5 14.4 10.4 23.2-0.8 7.8-3.6 15-8 20.9l-41.8 46.5c-6.3 5.7-14.3 9.5-23.2 10.4-7.7-0.8-15-3.7-20.9-8l-31.1-27.4v410.4c0 34.5-28 62.5-62.5 62.5h-749.8c-34.5 0-62.5-28-62.5-62.5v-410.4l-31.1 27.4c-5.9 4.3-13.1 7.2-20.9 8-8.9-0.9-17.1-4.7-23.4-10.3l-41.8-46.5c-4.7-5.8-7.6-13.1-8-20.9 0.5-9.1 4.3-17.2 10.3-23.3l500-441.4c12.2-11.1 35.5-20.1 52.2-20.1s40 9 52.3 20.1l197.7 174.6v-100.9c0-17.3 14-31.3 31.2-31.3h125c17.3 0 31.3 14 31.3 31.3v266.4z m-552.1-117.7c-69 0-125 56-125 125s56 125 125 125 125-56.1 125-125-56-125-125-125z m218.8 531.2c17.2 0 31.2-14 31.2-31.2 0-103.5-84-187.5-187.5-187.5h-125c-103.5 0-187.5 84-187.5 187.5 0 17.2 14 31.2 31.3 31.2h437.5z" />
  </svg>
