
  <svg height="1000" width="1125.0" xmlns="http://www.w3.org/2000/svg">
    <path d="m562.5 224.5l427.2 376.9c3 2.7 7 4 10.3 6.2v361.1c0 17.3-14 31.3-31.3 31.3h-344.1l-77.9-107.9 203.3-125-289.2-267.2 117.5 232.9-203.3 125 72.7 142.2h-291.4c-17.3 0-31.3-14-31.3-31.3v-361.2c3.5-2.3 7.5-3.7 10.7-6.5z m552.1 237c12.9 11.5 13.9 31.3 2.4 44.1l-41.8 46.5c-11.5 12.9-31.3 13.9-44.1 2.4l-447.9-395.1c-11.8-10.4-29.5-10.4-41.4 0l-447.9 395.1c-12.8 11.6-32.6 10.5-44.1-2.4l-41.8-46.5c-11.5-12.8-10.5-32.6 2.4-44.1l500-441.4c14.8-13.4 33.4-20.1 52.1-20.1s37.3 6.7 52.2 20.1l197.8 174.6v-101c0-17.2 14-31.2 31.2-31.2h125c17.3 0 31.3 14 31.3 31.2v266.6z" />
  </svg>
