
  <svg height="1000" width="1000.0" xmlns="http://www.w3.org/2000/svg">
    <path d="m227.8 428.4l-189-195c-54.7-56.7-51.6-150.5 9.8-202.9 53.5-45.5 133.1-37.3 182.2 13.3l19.2 19.8 19.3-19.8c49.1-50.6 128.6-58.8 182.1-13.3 61.4 52.4 64.6 146.3 9.6 202.9l-188.9 195c-5.6 5.8-13.5 9.5-22.2 9.5s-16.5-3.7-22.1-9.5z m281.1 196.3c29.6 0 53.6 24 53.6 53.6v0 268.1c0 29.6-24 53.6-53.6 53.6h-455.3c-29.6 0-53.6-24-53.6-53.6v0-268.1 0c0-29.6 24-53.6 53.6-53.6h0 93.8l13.7-27.8c7.6-20.3 27.1-34.8 50-34.8h0.1 140c0 0 0 0 0 0 23 0 42.5 14.5 50.1 34.8l13.9 27.8h93.7z m-227.6 289.4c56 0 101.5-45.5 101.5-101.6s-45.5-101.6-101.5-101.6-101.6 45.5-101.6 101.6 45.5 101.6 101.6 101.6z m694.1-226.4c19 0 30.8 17.2 21.2 30.7l-180.4 271.3c-4.8 6.2-12.3 10.2-20.7 10.2-0.2 0-0.4 0-0.7 0-15.7 0-27.6-12.2-23.9-25.2l47.3-162.1h-121.7c-14.9 0-26.4-10.9-24.4-23.2l32.8-208.9c1.6-10.1 12.1-17.7 24.4-17.7h147.7c16.1 0 27.8 12.8 23.7 25.8l-43.6 99.1h118.3z m-41.6-687.1c34.9-5.3 66.2 23.9 66.2 61.9v281.8c-0.5 51.4-56.2 93-125 93-69 0-125-41.9-125-93.7 0-51.8 56-93.8 125-93.8 10.7 0.1 21.1 1.3 31.2 3.4v-92.2l-218.7 33.6v212.1c-0.5 51.5-56.2 93.1-125 93.1-69 0-125-41.9-125-93.7 0-51.8 56-93.8 125-93.8 10.7 0.1 21.1 1.2 31.2 3.3v-208.5c0-31.1 21.3-57.5 49.9-61.8z" />
  </svg>
