<svg height="1000" width="1125" xmlns="http://www.w3.org/2000/svg"><path d="M1031.3 125H750v187.5H375V125H93.8C42 125 0 167 0 218.8v687.5C0 958 42 1000 93.8 1000h937.5c51.7 0 93.7 -42 93.7 -93.7V218.8C1125 167 1083 125 1031.3 125zM562.5 437.5c68.9 0 125 56.1 125 125s-56.1 125 -125 125 -125 -56.1 -125 -125 56.1 -125 125 -125zM744.7 875H380.3c-20.3 0 -36.7 -19.5 -30.5 -38.7 16.2 -50 63.3 -86.3 119 -86.3h16c24 10 50.2 15.6 77.7 15.6S616.4 760 640.2 750h16.1c55.4 0 102.5 36.1 118.9 86.3C781.4 855.5 765 875 744.7 875zM687.5 62.5C687.5 27.9 659.6 0 625 0H500c-34.6 0 -62.5 27.9 -62.5 62.5V250h250V62.5z"/></svg>