<svg height="1000" width="1125" xmlns="http://www.w3.org/2000/svg"><path d="M1031.3 62.5H93.8C42 62.5 0 104.5 0 156.3v31.2h1125v-31.2c0 -51.8 -42 -93.8 -93.7 -93.8zM0 843.8c0 51.7 42 93.7 93.8 93.7h937.5c51.7 0 93.7 -42 93.7 -93.7V250H0v593.8zM687.5 390.6c0 -8.6 7 -15.6 15.6 -15.6h281.3c8.6 0 15.6 7 15.6 15.6v31.3c0 8.6 -7 15.6 -15.6 15.6H703.1c-8.6 0 -15.6 -7 -15.6 -15.6v-31.3zm0 125c0 -8.6 7 -15.6 15.6 -15.6h281.3c8.6 0 15.6 7 15.6 15.6v31.3c0 8.6 -7 15.6 -15.6 15.6H703.1c-8.6 0 -15.6 -7 -15.6 -15.6v-31.3zm0 125c0 -8.6 7 -15.6 15.6 -15.6h281.3c8.6 0 15.6 7 15.6 15.6v31.3c0 8.6 -7 15.6 -15.6 15.6H703.1c-8.6 0 -15.6 -7 -15.6 -15.6v-31.3zM343.8 375c68.9 0 125 56.1 125 125s-56.1 125 -125 125 -125 -56.1 -125 -125 56 -125 125 -125zM131.1 773.8c16.4 -50.2 63.4 -86.3 118.9 -86.3h16c24 10 50.2 15.6 77.8 15.6s53.9 -5.6 77.7 -15.6h16c55.5 0 102.5 36.1 118.9 86.3 6.3 19.4 -10.1 38.7 -30.4 38.7H161.5c-20.3 0 -36.7 -19.5 -30.4 -38.7z"/></svg>