
  <svg height="1000" width="1125.0" xmlns="http://www.w3.org/2000/svg">
    <path d="m1031.3 62.5c51.7 0 93.7 42 93.7 93.8v31.2h-1125v-31.2c0-51.8 42-93.8 93.8-93.8h937.5z m-1031.3 781.3v-593.8h1125v593.8c0 51.7-42 93.7-93.7 93.7h-937.5c-51.8 0-93.8-42-93.8-93.7z m687.5-453.2v31.3c0 8.6 7 15.6 15.6 15.6h281.3c8.6 0 15.6-7 15.6-15.6v-31.3c0-8.6-7-15.6-15.6-15.6h-281.3c-8.6 0-15.6 7-15.6 15.6z m0 125v31.3c0 8.6 7 15.6 15.6 15.6h281.3c8.6 0 15.6-7 15.6-15.6v-31.3c0-8.6-7-15.6-15.6-15.6h-281.3c-8.6 0-15.6 7-15.6 15.6z m0 125v31.3c0 8.6 7 15.6 15.6 15.6h281.3c8.6 0 15.6-7 15.6-15.6v-31.3c0-8.6-7-15.6-15.6-15.6h-281.3c-8.6 0-15.6 7-15.6 15.6z m-343.7-265.6c-69 0-125 56.1-125 125s56 125 125 125 125-56.1 125-125-56.1-125-125-125z m-212.7 398.8c-6.3 19.2 10.1 38.7 30.4 38.7h364.5c20.3 0 36.7-19.3 30.4-38.7-16.4-50.2-63.4-86.3-118.9-86.3h-16c-23.8 10-50.2 15.6-77.7 15.6s-53.8-5.6-77.8-15.6h-16c-55.5 0-102.5 36.1-118.9 86.3z" />
  </svg>
