
  <svg height="1000" width="1125.0" xmlns="http://www.w3.org/2000/svg">
    <path d="m1031.3 125c51.7 0 93.7 42 93.7 93.8v687.5c0 51.7-42 93.7-93.7 93.7h-937.5c-51.8 0-93.8-42-93.8-93.7v-687.5c0-51.8 42-93.8 93.8-93.8h281.2v187.5h375v-187.5h281.3z m-468.8 312.5c-68.9 0-125 56.1-125 125s56.1 125 125 125 125-56.1 125-125-56.1-125-125-125z m182.2 437.5c20.3 0 36.7-19.5 30.5-38.7-16.4-50.2-63.5-86.3-118.9-86.3h-16.1c-23.8 10-50.2 15.6-77.7 15.6s-53.7-5.6-77.7-15.6h-16c-55.7 0-102.8 36.3-119 86.3-6.2 19.2 10.2 38.7 30.5 38.7h364.4z m-57.2-812.5v187.5h-250v-187.5c0-34.6 27.9-62.5 62.5-62.5h125c34.6 0 62.5 27.9 62.5 62.5z" />
  </svg>
