
  <svg height="1000" width="1125.0" xmlns="http://www.w3.org/2000/svg">
    <path d="m625 66.2v246.3h-530.1c100.8-150.8 272.7-250 467.6-250 21.1 0 42 1.4 62.5 3.7z m-437.5 308.8v250h-187.5c0-89.8 21.7-174.6 59.2-250h128.3z m500-298c142.2 32.2 264.1 118.1 342.6 235.5h-342.6v-235.5z m250 548v-250h128.3c37.5 75.4 59.2 160.2 59.2 250h-187.5z m-125 125c0-21.7-3.7-42.4-8.8-62.5h321.3v187.5c0 34.6-27.9 62.5-62.5 62.5h-250v-187.5z m62.5-375v250h-97.3c-43.3-74.4-123-125-215.2-125s-171.9 50.6-215.2 125h-97.3v-250h625z m-875 500v-187.5h321.3c-5.1 20.1-8.8 40.8-8.8 62.5v187.5h-250c-34.6 0-62.5-27.9-62.5-62.5z m562.5-312.5c103.5 0 187.5 84 187.5 187.5v187.5h-375v-187.5c0-103.5 84-187.5 187.5-187.5z" />
  </svg>
