
  <svg height="1000" width="1125.0" xmlns="http://www.w3.org/2000/svg">
    <path d="m937.5 812.5v31.3c0 51.7-42 93.7-93.7 93.7h-750c-51.8 0-93.8-42-93.8-93.7v-500c0-51.8 42-93.8 93.8-93.8h31.2v406.3c0 86.1 70.1 156.2 156.3 156.2h656.2z m187.5-156.2c0 51.7-42 93.7-93.7 93.7h-750c-51.8 0-93.8-42-93.8-93.7v-500c0-51.8 42-93.8 93.8-93.8h750c51.7 0 93.7 42 93.7 93.8v500z m-625-406.3c0-51.8-42-93.7-93.7-93.7s-93.8 41.9-93.8 93.7 42 93.8 93.8 93.8 93.7-42 93.7-93.8z m-187.5 281.3v93.7h687.5v-218.7l-170.9-171c-9.2-9.1-24-9.1-33.2 0l-264.7 264.7-77.1-77.2c-9.2-9.1-24-9.1-33.2 0z" />
  </svg>
