<svg height="1000" width="1125" xmlns="http://www.w3.org/2000/svg"><path d="M937.5 812.5v31.3c0 51.7 -42 93.7 -93.7 93.7h-750C42 937.5 0 895.5 0 843.8v-500C0 292 42 250 93.8 250H125v406.3c0 86.1 70.1 156.2 156.3 156.2h656.2zM1125 656.3v-500c0 -51.8 -42 -93.8 -93.7 -93.8h-750c-51.8 0 -93.8 42 -93.8 93.8v500c0 51.7 42 93.7 93.8 93.7h750c51.7 0 93.7 -42 93.7 -93.7zM500 250c0 51.8 -42 93.8 -93.7 93.8s-93.8 -42 -93.8 -93.8 42 -93.7 93.8 -93.7S500 198.2 500 250zM312.5 531.3L420.9 422.8c9.2 -9.1 24 -9.1 33.2 0l77.2 77.2L795.9 235.3c9.2 -9.1 24 -9.1 33.2 0l170.9 171V625H312.5v-93.7z"/></svg>