<svg height="1000" width="875" xmlns="http://www.w3.org/2000/svg"><path d="M0 164.1V85.9C0 68.7 14 54.7 31.3 54.7h812.5c17.2 0 31.2 14 31.2 31.2v78.2c0 17.2 -14 31.2 -31.2 31.2H31.3C14 195.3 0 181.3 0 164.1zm406.3 281.2h437.5c17.2 0 31.2 -14 31.2 -31.2v-78.2c0 -17.2 -14 -31.2 -31.2 -31.2H406.3c-17.3 0 -31.3 14 -31.3 31.2v78.2c0 17.2 14 31.2 31.3 31.2zm-375 500h812.5c17.2 0 31.2 -14 31.2 -31.2v-78.2c0 -17.2 -14 -31.2 -31.2 -31.2H31.3C14 804.7 0 818.7 0 835.9v78.2c0 17.2 14 31.2 31.3 31.2zm375 -250h437.5c17.2 0 31.2 -14 31.2 -31.2v-78.2c0 -17.2 -14 -31.2 -31.2 -31.2H406.3c-17.3 0 -31.3 14 -31.3 31.2v78.2c0 17.2 14 31.2 31.3 31.2zM9.2 522.1l187.5 187.5c19.6 19.6 53.3 5.7 53.3 -22.1v-375c0 -28 -33.8 -41.6 -53.3 -22.1L9.2 477.9c-12.3 12.2 -12.3 32 0 44.2z"/></svg>