
  <svg height="1000" width="875.0" xmlns="http://www.w3.org/2000/svg">
    <path d="m53.3 709.6c-19.5 19.5-53.3 5.8-53.3-22.1v-375c0-27.8 33.7-41.7 53.3-22.1l187.5 187.5c5.7 5.6 9.2 13.5 9.2 22.1s-3.5 16.4-9.2 22.1z m790.5 102.9c17.2 0 31.2 14 31.2 31.3v62.5c0 17.2-14 31.2-31.2 31.2h-812.5c-17.3 0-31.3-14-31.3-31.2v-62.5c0-17.3 14-31.3 31.3-31.3h812.5z m6.1-250c13.9 0 25.1 11.2 25.1 25v0.1 74.8 0.1c0 13.8-11.2 25-25 25h-0.1-449.8-0.1c-13.8 0-25-11.2-25-25v-0.1-74.8-0.1c0-13.8 11.2-25 25-25h0.1 449.8z m0-250c13.9 0 25.1 11.2 25.1 25v0.1 74.8 0.1c0 13.8-11.2 25-25 25h-0.1-449.8-0.1c-13.8 0-25-11.2-25-25v-0.1-74.8-0.1c0-13.8 11.2-25 25-25h0.1 449.8z m-6.1-250c17.2 0 31.2 14 31.2 31.3v62.5c0 17.2-14 31.2-31.2 31.2h-812.5c-17.3 0-31.3-14-31.3-31.2v-62.5c0-17.3 14-31.3 31.3-31.3h812.5z" />
  </svg>
