<svg height="1000" width="875" xmlns="http://www.w3.org/2000/svg"><path d="M0 164.1V85.9C0 68.7 14 54.7 31.3 54.7h812.5c17.2 0 31.2 14 31.2 31.2v78.2c0 17.2 -14 31.2 -31.2 31.2H31.3C14 195.3 0 181.3 0 164.1zm343.8 281.2h500c17.2 0 31.2 -14 31.2 -31.2v-78.2c0 -17.2 -14 -31.2 -31.2 -31.2h-500c-17.3 0 -31.3 14 -31.3 31.2v78.2c0 17.2 14 31.2 31.3 31.2zm-312.5 500h812.5c17.2 0 31.2 -14 31.2 -31.2v-78.2c0 -17.2 -14 -31.2 -31.2 -31.2H31.3C14 804.7 0 818.7 0 835.9v78.2c0 17.2 14 31.2 31.3 31.2zm312.5 -250h500c17.2 0 31.2 -14 31.2 -31.2v-78.2c0 -17.2 -14 -31.2 -31.2 -31.2h-500c-17.3 0 -31.3 14 -31.3 31.2v78.2c0 17.2 14 31.2 31.3 31.2zm-103 -217.4L53.3 290.4C33.7 270.8 0 284.7 0 312.5v375c0 28 33.8 41.6 53.3 22.1L240.8 522.1c12.3 -12.2 12.3 -32 0 -44.2z"/></svg>