<svg height="1000" width="1250" xmlns="http://www.w3.org/2000/svg"><path d="M920.1 187.5C791 187.5 690 268.2 625 341 560 268.2 459 187.5 329.9 187.5 148 187.5 0 327.7 0 500s148 312.5 329.9 312.5C459 812.5 560 731.8 625 659c65 72.8 166 153.5 295.1 153.5C1102 812.5 1250 672.3 1250 500S1102 187.5 920.1 187.5zM329.9 625C251.4 625 187.5 568.9 187.5 500S251.4 375 329.9 375c74.6 0 143.3 70.5 183.6 125C473.6 553.9 404.3 625 329.9 625zm590.2 0C845.5 625 776.8 554.5 736.5 500 776.4 446.1 845.7 375 920.1 375c78.5 0 142.4 56.1 142.4 125S998.6 625 920.1 625z"/></svg>