
  <svg height="1000" width="1250.0" xmlns="http://www.w3.org/2000/svg">
    <path d="m920.1 187.5c181.9 0 329.9 140.2 329.9 312.5s-148 312.5-329.9 312.5c-129.1 0-230.1-80.7-295.1-153.5-65 72.8-166 153.5-295.1 153.5-181.9 0-329.9-140.2-329.9-312.5s148-312.5 329.9-312.5c129.1 0 230.1 80.7 295.1 153.5 65-72.8 166-153.5 295.1-153.5z m-590.2 437.5c74.4 0 143.7-71.1 183.6-125-40.3-54.5-109-125-183.6-125-78.5 0-142.4 56.1-142.4 125s63.9 125 142.4 125z m590.2 0c78.5 0 142.4-56.1 142.4-125s-63.9-125-142.4-125c-74.4 0-143.7 71.1-183.6 125 40.3 54.5 109 125 183.6 125z" />
  </svg>
