<svg height="1000" width="1000" xmlns="http://www.w3.org/2000/svg"><path d="M500 15.6C232.5 15.6 15.6 232.6 15.6 500c0 267.6 216.9 484.4 484.4 484.4S984.4 767.6 984.4 500C984.4 232.6 767.5 15.6 500 15.6zm0 214.9c45.3 0 82 36.7 82 82s-36.7 82 -82 82 -82 -36.7 -82 -82 36.7 -82 82 -82zm109.4 496.1c0 12.9 -10.5 23.4 -23.5 23.4H414.1c-13 0 -23.5 -10.5 -23.5 -23.4v-46.9c0 -13 10.5 -23.4 23.5 -23.4h23.4v-125h-23.4c-13 0 -23.5 -10.5 -23.5 -23.5v-46.9c0 -12.9 10.5 -23.4 23.5 -23.4h125c12.9 0 23.4 10.5 23.4 23.4v195.4h23.4c13 0 23.5 10.4 23.5 23.4v46.9z"/></svg>