
  <svg height="1000" width="1000.0" xmlns="http://www.w3.org/2000/svg">
    <path d="m500 15.6c267.5 0 484.4 217 484.4 484.4 0 267.6-216.9 484.4-484.4 484.4s-484.4-216.8-484.4-484.4c0-267.4 216.9-484.4 484.4-484.4z m0 214.9c-45.3 0-82 36.7-82 82s36.7 82 82 82 82-36.7 82-82-36.7-82-82-82z m109.4 496.1v-46.9c0-13-10.5-23.4-23.5-23.4h-23.4v-195.4c0-12.9-10.5-23.4-23.4-23.4h-125c-13 0-23.5 10.5-23.5 23.4v46.9c0 13 10.5 23.5 23.5 23.5h23.4v125h-23.4c-13 0-23.5 10.4-23.5 23.4v46.9c0 12.9 10.5 23.4 23.5 23.4h171.8c13 0 23.5-10.5 23.5-23.4z" />
  </svg>
