
  <svg height="1000" width="1125.0" xmlns="http://www.w3.org/2000/svg">
    <path d="m1046.8 687.5c-83.3 183.9-268.8 312.5-484.4 312.5-8.3 0-16.7-0.2-25-0.6-203.1-9.3-378.7-135.7-459.2-311.9h77.9l-114.4-114.4c-5.2-25.1-8.6-50.8-10-77-0.3-6.9-0.4-13.8-0.4-20.7 0-13 0.4-25.1 1.4-37.9h92.2l-80.9-80.8c28.9-130.1 105.4-242.2 210.9-316.6 5.1-3.6 11.4-5.8 18.1-5.8 11 0 20.7 5.6 26.4 14.1 3.5 5.1 5.5 11.1 5.5 17.7 0 4.2-0.8 8.2-2.3 11.8-12.4 30.9-19.2 64.8-19.2 100.1 0 88.1 41.1 169.1 112.7 222.2 7.9 5.8 13.1 15.1 13.1 25.7 0 9.5-4.2 18-10.8 23.9-51.8 46.8-80.4 110.3-80.4 178.8 0 117.3 83.9 215.4 195.1 238.2l4.9-127.5-53 36.1c-2.6 1.6-5.6 2.6-8.8 2.6-4.1 0-7.9-1.6-10.8-4.1-3-2.8-4.9-6.9-4.9-11.4 0-2.9 0.8-5.6 2.2-8l39.3-65.9-82.1-17.1c-7.1-1.4-12.5-7.7-12.5-15.3s5.4-13.8 12.5-15.3l82.1-17-39.3-65.9c-1.4-2.3-2.2-5.1-2.2-8 0-8.6 7-15.6 15.6-15.6 3.3 0 6.3 1 8.8 2.7l59.4 40.3 22.5-562.4c0.3-8.3 7.1-15 15.5-15 0.1 0 0.1 0 0.1 0h0.1c8.4 0.1 15.2 6.7 15.5 15l22.6 562.4 59.3-40.4c2.5-1.7 5.5-2.6 8.8-2.6 4.1 0 7.9 1.6 10.7 4.2 3.1 2.9 5 6.9 5 11.4 0 2.9-0.9 5.6-2.2 8l-39.4 65.9 82.2 17.1c7.1 1.4 12.4 7.7 12.4 15.2s-5.3 13.9-12.4 15.3l-82.2 17.1 39.3 65.9c1.4 2.3 2.2 5.1 2.2 8 0 4.5-1.8 8.5-4.8 11.3-2.9 2.6-6.6 4.2-10.8 4.2-3.2 0-6.3-1-8.8-2.6l-53.1-36.1 4.9 127.6c94.7-18.3 171.1-94 190.1-188.4 3.3-15.9 5-32.3 5-49.1 0-71.4-31-135.4-80.3-179.6-6.6-5.8-10.8-14.4-10.8-23.9 0-10.6 5.1-20 13.1-25.8 71.6-53 112.7-134 112.7-222.1v-0.2c0-35.2-6.9-69.1-19.3-100-1.5-3.7-2.3-7.6-2.3-11.8 0-6.6 2-12.7 5.5-17.7 5.7-8.5 15.4-14.1 26.3-14.1 6.8 0 13 2.2 18.1 5.8 105.3 74.7 181.8 186.8 210.8 317l-80.6 80.5h91.7c0.7 11.3 2.1 22.4 2.1 33.7-0.1 34.8-3.6 68.4-10.1 101.3l-115 115h78.1z" />
  </svg>
