
  <svg height="1000" width="1250.0" xmlns="http://www.w3.org/2000/svg">
    <path d="m867.9 353.7c-69.9-49-117.9-123.1-117.9-208.4v-129.7c0-8.6 7-15.6 15.6-15.6h93.8c8.6 0 15.6 7 15.6 15.6v121.7c0 56.7 31 106.9 77.5 139.3 69 48.2 110 126.6 110 211.1v59.2c0 8.6-7 15.6-15.6 15.6h-93.8c-8.6 0-15.6-7-15.6-15.6v-59.2c0-53.6-25.9-103.4-69.6-134z m-487.1 347.4c43.7-7 88 8.5 116.8 42l220.2 256.9h-173c-192.7 0-381.4-54.1-544.8-156.2 116.6-72.9 246.2-121 380.8-142.7z m699.8-531c106.1 71.1 169.4 189.8 169.4 317.6v59.2c0 8.6-7 15.6-15.6 15.6h-93.8c-8.6 0-15.6-7-15.6-15.6v-59.2c0-98-49.2-188.8-131.6-242.2-36-23.4-55.9-65.2-55.9-108.2v-121.7c0-8.6 7-15.6 15.6-15.6h93.8c8.6 0 15.6 7 15.6 15.6v121.7c0 13.3 7.1 25.4 18.1 32.8z m-375.7 517.5c0 0 0.1-0.1 0.1-0.1 38 0 72 17 94.9 43.8l230.4 268.7h-172.7c-38 0-72-16.9-94.9-43.7l-230.1-268.4c2.7 0 105.1-0.2 172.3-0.3z m498.2-0.1c25.9 0 46.9 21 46.9 46.9v218.7c0 25.9-21 46.9-46.9 46.9h-34c-38 0-72-16.9-94.9-43.7l-230.4-268.8h359.3z" />
  </svg>
