<svg height="1000" width="1250" xmlns="http://www.w3.org/2000/svg"><path d="M867.9 353.7c43.7 30.6 69.6 80.4 69.6 134v59.2c0 8.6 7 15.6 15.6 15.6h93.8c8.6 0 15.6 -7 15.6 -15.6v-59.2c0 -84.5 -41 -162.9 -110 -211.1C906 244.2 875 194 875 137.3V15.6C875 7 868 0 859.4 0h-93.8C757 0 750 7 750 15.6v129.7c0 85.3 48 159.4 117.9 208.4zM380.8 701.1C246.2 722.8 116.6 770.9 0 843.8 163.4 945.9 352.1 1000 544.8 1000h173L497.6 743.1c-28.8 -33.5 -73.1 -49 -116.8 -42zm699.8 -531c-11 -7.4 -18.1 -19.5 -18.1 -32.8V15.6C1062.5 7 1055.5 0 1046.9 0h-93.8c-8.6 0 -15.6 7 -15.6 15.6v121.7c0 43 19.9 84.8 55.9 108.2 82.4 53.4 131.6 144.2 131.6 242.2v59.2c0 8.6 7 15.6 15.6 15.6h93.8c8.6 0 15.6 -7 15.6 -15.6v-59.2c0 -127.8 -63.3 -246.5 -169.4 -317.6zM704.9 687.6c-67.2 .1 -169.6 .3 -172.3 .3l230.1 268.4a125 -125 0 0 1 94.9 43.7h172.7L799.9 731.3a124.9 -124.9 0 0 1 -95 -43.7zm498.2 -.1H843.8l230.4 268.8a125 -125 0 0 1 94.9 43.7h34c25.9 0 46.9 -21 46.9 -46.9V734.4c0 -25.9 -21 -46.9 -46.9 -46.9z"/></svg>