
  <svg height="1000" width="875.0" xmlns="http://www.w3.org/2000/svg">
    <path d="m856.3 737.5c-6.3 25-6.3 112.5 0 143.8 12.4 12.4 18.7 24.9 18.7 37.5v31.2c0 31.3-25 50-50 50h-637.5c-106.3 0-187.5-81.2-187.5-187.5v-625c0-106.3 81.2-187.5 187.5-187.5h637.5c31.3 0 50 18.7 50 50v650c0 18.7-6.2 31.2-18.7 37.5z m-112.6 12.5h-556.2c-31.2 0-62.5 25-62.5 62.5s25 62.5 62.5 62.5h556.2v-125z m-493.7-406.2c0 1 0.3 1.9 0.3 2.9l72.5 63.4c3.3 2.9 5.3 7.1 5.3 11.8 0 8.6-7 15.6-15.6 15.6h0c-3.9-0.2-7.4-1.6-10.3-3.9l-46.1-40.3c22.6 96.8 109 169.2 212.6 169.2s190.1-72.4 212.7-169.2l-46.1 40.3c-2.7 2.4-6.3 3.9-10.3 3.9h0c-4.6-0.3-8.7-2.3-11.7-5.3-2.3-2.9-3.7-6.5-3.9-10.3 0.2-4.6 2.2-8.8 5.3-11.8l72.5-63.4c0-1 0.3-1.9 0.3-2.9 0-21.6-4.1-42.1-9.9-61.8l-41.5 41.5c-2.9 2.9-6.8 4.6-11.1 4.6-8.6 0-15.6-7-15.6-15.6 0-4.3 1.7-8.2 4.6-11l51.6-51.6c-19.6-40.8-51.2-74.3-90.6-96.2 11.8 18.9 18.7 41.2 18.7 65.1 0 38.9-17.9 73.7-46.2 96.3 19 19.6 30.6 46.3 30.6 75.7 0 52.5-37.2 96.4-86.6 106.7l-2.8-66.9 24.7 16.8c1.3 0.9 2.8 1.4 4.4 1.4 0 0 0 0 0 0h0.1c4.3 0 7.7-3.5 7.7-7.8 0-1.5-0.4-2.8-1.1-4l-16.6-28 34.9-7.2c3.6-0.8 6.3-3.9 6.3-7.7s-2.7-6.9-6.3-7.7l-34.9-7.2 16.6-28c0.7-1.1 1.1-2.5 1.1-4 0-4.3-3.4-7.7-7.7-7.7 0 0-0.1-0.1-0.1-0.1-1.6 0.1-3.1 0.6-4.4 1.4l-27.7 18.8-9.1-219.3c-0.2-4.2-3.6-7.5-7.8-7.5s-7.7 3.3-7.9 7.5l-9 216.4-23.4-15.9c-1.3-0.9-2.8-1.4-4.4-1.4-4.3 0-7.8 3.5-7.8 7.9 0 1.4 0.4 2.8 1.1 4l16.6 27.9-35 7.3c-3.5 0.7-6.2 3.9-6.2 7.6s2.7 6.9 6.2 7.7l35 7.3-16.6 27.9c-0.7 1.2-1.1 2.5-1.1 4 0.1 2.2 1 4.2 2.4 5.7 1.4 1.3 3.3 2.1 5.4 2.1 1.6 0 3.1-0.5 4.4-1.4l20.2-13.7-2.7 63.9c-49.4-10.4-86.5-54.3-86.5-106.8 0-29.4 11.5-56.1 30.5-75.7-28.3-22.6-46.3-57.3-46.3-96.2 0-23.9 7-46.4 18.8-65.3-39.4 22-70.9 55.4-90.6 96.2l51.6 51.7c2.9 2.8 4.6 6.7 4.6 11 0 8.6-7 15.6-15.6 15.6-4.3 0-8.2-1.7-11-4.6l-41.6-41.5c-5.8 19.7-9.9 40.2-9.9 61.8z" />
  </svg>
