
  <svg height="1000" width="1125.0" xmlns="http://www.w3.org/2000/svg">
    <path d="m1082.3 163.1c25.5 8.5 42.7 32.4 42.7 59.3v95.7l-517.6-155.3c-29.4-8.8-60.4-8.8-89.8 0l-517.6 155.3v-95.7c0-27.6 17.9-51 42.7-59.3l460.5-153.5c18.7-6.2 38.6-9.5 59.3-9.5 20.7 0 40.7 3.3 59.3 9.5z m-546.7 59.6c17.6-5.3 36.2-5.3 53.9 0l535.5 160.7v446.1c0 29.2-20.3 54.6-48.9 61l-472.9 105c-13.2 3-26.6 4.5-40.6 4.5s-27.6-1.5-40.8-4.5l-472.9-105c-28.5-6.4-48.9-31.8-48.9-61v-446.1z m-285.6 226.7v-32.3c0-10.4-9.8-17.8-19.7-15.1l-156.3 42.6c-6.8 1.8-11.5 8-11.5 15.1v32.3c0 10.3 9.8 17.8 19.7 15.1l156.3-42.6c6.8-1.8 11.5-8 11.5-15.1z m281.3-76.7v-32.4c0-10.3-9.9-17.8-19.8-15l-187.5 51.1c-6.8 1.8-11.5 8-11.5 15.1v32.3c0 10.4 9.8 17.8 19.7 15.1l187.5-51.1c6.8-1.9 11.6-8 11.6-15.1z m343.7 44.4v32.3c0 0 0 0 0 0 0 7.2 4.9 13.3 11.5 15.1l156.3 42.6c9.9 2.7 19.7-4.7 19.7-15.1v-32.3c0-7.1-4.7-13.3-11.5-15.1l-156.3-42.6c-9.9-2.7-19.7 4.7-19.7 15.1z m-281.2-76.7v32.3c0 0 0 0 0 0 0 7.2 4.8 13.3 11.5 15.1l187.5 51.1c9.9 2.8 19.7-4.7 19.7-15v-32.4c0-7.1-4.7-13.2-11.5-15.1l-187.5-51.1c-9.9-2.7-19.7 4.7-19.7 15.1z" />
  </svg>
