
  <svg height="1000" width="1000.0" xmlns="http://www.w3.org/2000/svg">
    <path d="m1000 343.8c0 189.8-153.9 343.7-343.7 343.7-22 0-43.4-2.1-64.2-6l-46.9 52.8c-8.6 9.6-21.1 15.7-35 15.7h-72.7v78.1c0 25.9-21 46.9-46.9 46.9h-78.1v78.1c0 25.9-21 46.9-46.9 46.9h-218.7c-25.9 0-46.9-21-46.9-46.9v-152.4c0-12.5 4.9-24.4 13.7-33.2l316-316c-11.1-33.9-17.2-70.1-17.2-107.8 0-189.8 153.9-343.7 343.7-343.7 190.5 0 343.8 153.3 343.8 343.8z m-343.7-93.8c0 51.8 41.9 93.8 93.7 93.8s93.8-42 93.8-93.8-42-93.7-93.8-93.7-93.7 41.9-93.7 93.7z" />
  </svg>
