
  <svg height="1000" width="1125.0" xmlns="http://www.w3.org/2000/svg">
    <path d="m1031.3 875h-937.5c-51.8 0-93.8-42-93.8-93.7v-562.5c0-51.8 42-93.8 93.8-93.8h937.5c51.7 0 93.7 42 93.7 93.8v562.5c0 51.7-42 93.7-93.7 93.7z m-781.3-523.4v-78.2c0-12.9-10.5-23.4-23.4-23.4h-78.2c-12.9 0-23.4 10.5-23.4 23.4v78.2c0 12.9 10.5 23.4 23.4 23.4h78.2c12.9 0 23.4-10.5 23.4-23.4z m187.5 0v-78.2c0-12.9-10.5-23.4-23.4-23.4h-78.2c-12.9 0-23.4 10.5-23.4 23.4v78.2c0 12.9 10.5 23.4 23.4 23.4h78.2c12.9 0 23.4-10.5 23.4-23.4z m187.5 0v-78.2c0-12.9-10.5-23.4-23.4-23.4h-78.2c-12.9 0-23.4 10.5-23.4 23.4v78.2c0 12.9 10.5 23.4 23.4 23.4h78.2c12.9 0 23.4-10.5 23.4-23.4z m187.5 0v-78.2c0-12.9-10.5-23.4-23.4-23.4h-78.2c-12.9 0-23.4 10.5-23.4 23.4v78.2c0 12.9 10.5 23.4 23.4 23.4h78.2c12.9 0 23.4-10.5 23.4-23.4z m187.5 0v-78.2c0-12.9-10.5-23.4-23.4-23.4h-78.2c-12.9 0-23.4 10.5-23.4 23.4v78.2c0 12.9 10.5 23.4 23.4 23.4h78.2c12.9 0 23.4-10.5 23.4-23.4z m-656.2 187.5v-78.2c0-12.9-10.5-23.4-23.5-23.4h-78.1c-13 0-23.4 10.5-23.4 23.4v78.2c0 12.9 10.4 23.4 23.4 23.4h78.1c13 0 23.5-10.5 23.5-23.4z m187.5 0v-78.2c0-12.9-10.5-23.4-23.5-23.4h-78.1c-13 0-23.4 10.5-23.4 23.4v78.2c0 12.9 10.4 23.4 23.4 23.4h78.1c13 0 23.5-10.5 23.5-23.4z m187.5 0v-78.2c0-12.9-10.5-23.4-23.5-23.4h-78.1c-13 0-23.4 10.5-23.4 23.4v78.2c0 12.9 10.4 23.4 23.4 23.4h78.1c13 0 23.5-10.5 23.5-23.4z m187.5 0v-78.2c0-12.9-10.5-23.4-23.5-23.4h-78.1c-13 0-23.4 10.5-23.4 23.4v78.2c0 12.9 10.4 23.4 23.4 23.4h78.1c13 0 23.5-10.5 23.5-23.4z m-656.3 187.5v-78.2c0-12.9-10.5-23.4-23.4-23.4h-78.2c-12.9 0-23.4 10.5-23.4 23.4v78.2c0 12.9 10.5 23.4 23.4 23.4h78.2c12.9 0 23.4-10.5 23.4-23.4z m562.5 0v-78.2c0-12.9-10.5-23.4-23.4-23.4h-453.2c-12.9 0-23.4 10.5-23.4 23.4v78.2c0 12.9 10.5 23.4 23.4 23.4h453.2c12.9 0 23.4-10.5 23.4-23.4z m187.5 0v-78.2c0-12.9-10.5-23.4-23.4-23.4h-78.2c-12.9 0-23.4 10.5-23.4 23.4v78.2c0 12.9 10.5 23.4 23.4 23.4h78.2c12.9 0 23.4-10.5 23.4-23.4z" />
  </svg>
