
  <svg height="1000" width="968.8" xmlns="http://www.w3.org/2000/svg">
    <path d="m484.4 15.6c267.6 0 484.4 216.8 484.4 484.4s-216.8 484.4-484.4 484.4-484.4-216.8-484.4-484.4 216.8-484.4 484.4-484.4z m-156.3 453.2c34.6 0 62.5-28 62.5-62.5s-27.9-62.5-62.5-62.5-62.5 27.9-62.5 62.5 28 62.5 62.5 62.5z m265.7 304.6c0-25.4-26.2-53.3-68.8-71.1 42.6-16.9 68.8-44.9 68.8-70.3 0-37.5-56.1-81-139.7-85.9-16.4-2.2-23.8 23-7 30.1l33.2 14c25.4 10.8 40.6 26.4 40.6 42s-15.2 31.3-40.6 42l-33.2 14.1c-11.9 5.1-11.7 24 0 28.9l33.2 14.1c25.4 10.7 40.6 26.3 40.6 41.9s-15.2 31.3-40.6 42l-33.2 14.1c-16.6 7-9.6 31.6 7 30.1 83.6-4.9 139.7-48.5 139.7-86z m46.8-304.6c34.6 0 62.5-28 62.5-62.5s-27.9-62.5-62.5-62.5-62.5 27.9-62.5 62.5 28 62.5 62.5 62.5z" />
  </svg>
