<svg height="1000" width="968.8" xmlns="http://www.w3.org/2000/svg"><path d="M484.4 15.6C216.8 15.6 0 232.4 0 500s216.8 484.4 484.4 484.4S968.8 767.6 968.8 500 752 15.6 484.4 15.6zm-76.2 429.5l-18.6 -33.2c-15 -26.7 -37.5 -42.2 -61.5 -42.2s-46.5 15.5 -61.5 42.2L248 445.1c-8.2 14.5 -30.4 7.8 -29.1 -8.8 6.5 -82.2 62.9 -139.4 109.4 -139.4s103 57.2 109.4 139.4c1 16.6 -21.3 23.5 -29.5 8.8zm185.6 328.3c0 37.5 -56.1 81.1 -139.7 86 -16.6 1.5 -23.6 -23.1 -7 -30.1l33.2 -14.1c25.4 -10.7 40.6 -26.3 40.6 -42S505.7 742 480.3 731.3l-33.2 -14.1c-11.7 -4.9 -11.9 -23.8 0 -28.9l33.2 -14.1c25.4 -10.7 40.6 -26.3 40.6 -42s-15.2 -31.2 -40.6 -42l-33.2 -14c-16.8 -7.1 -9.4 -32.3 7 -30.1 83.6 4.9 139.7 48.4 139.7 85.9 0 25.4 -26.2 53.4 -68.8 70.3 42.6 17.8 68.8 45.7 68.8 71.1zM720.7 445.1l-18.6 -33.2c-15 -26.7 -37.5 -42.2 -61.5 -42.2s-46.5 15.5 -61.5 42.2l-18.6 33.2c-8 14.3 -30.4 7.8 -29.1 -8.8 6.5 -82.2 62.9 -139.4 109.4 -139.4s103 57.2 109.4 139.4c1 16.6 -21.3 23.5 -29.5 8.8z"/></svg>