<svg height="1000" width="984.4" xmlns="http://www.w3.org/2000/svg"><path d="M978.7 786.1C963.1 745.5 917.2 724.6 875 735.5l-16.4 4.3 -4.5 -16.4C842.6 681.6 801.4 652.1 758.4 659c-49.2 7.8 -79.3 55.8 -66.4 102.7L736.7 923c2.9 10.4 13.7 16.6 24.2 13.9l162.1 -42c47.1 -12.3 73.7 -62.1 55.7 -108.8zm-346.9 -7.8c-10.9 -39.6 -4.5 -82 17.6 -116.6 58 -90.4 192.8 -88.8 249.6 8.4 12.5 .2 24.6 2.8 36.4 5.7C956.6 621.3 968.8 562.1 968.8 500 968.8 232.4 752 15.6 484.4 15.6S0 232.4 0 500s216.8 484.4 484.4 484.4c69.1 0 134.5 -14.7 194.1 -40.8 -.6 -1.4 -46.7 -165.3 -46.7 -165.3zM328.1 468.8c-34.5 0 -62.5 -28 -62.5 -62.5s28 -62.5 62.5 -62.5 62.5 27.9 62.5 62.5 -27.9 62.5 -62.5 62.5zm234.4 304.6c0 37.5 -56.1 81.1 -139.6 86 -16.6 1.5 -23.7 -23.1 -7.1 -30.1L449 815.2c25.4 -10.7 40.6 -26.3 40.6 -42S474.4 742 449 731.3l-33.2 -14.1c-11.7 -4.9 -11.1 -24 0 -28.9L449 674.2c25.4 -10.7 40.6 -26.3 40.6 -42S474.4 601 449 590.2l-33.2 -14c-17.2 -7.3 -9 -32.4 7.1 -30.1 83.5 4.9 139.6 48.4 139.6 85.9 0 25.4 -26.2 53.4 -68.7 70.3 42.5 17.8 68.7 45.7 68.7 71.1zm31.3 -349.6c-16.3 14.5 -42.2 .8 -38.7 -21.1 7.8 -49.2 66.8 -82.2 117 -82.2s109.2 33 117 82.2c3.3 21.7 -22.1 35.8 -38.7 21.1l-18.6 -16.6c-28.9 -25.8 -90.2 -25.8 -119.1 0l-18.9 16.6z"/></svg>