<svg height="1000" width="968.8" xmlns="http://www.w3.org/2000/svg"><path d="M484.4 15.6C216.8 15.6 0 232.4 0 500s216.8 484.4 484.4 484.4S968.8 767.6 968.8 500 752 15.6 484.4 15.6zM328.1 468.8c-34.5 0 -62.5 -28 -62.5 -62.5s28 -62.5 62.5 -62.5 62.5 27.9 62.5 62.5 -27.9 62.5 -62.5 62.5zm265.7 304.6c0 37.5 -56.1 81.1 -139.7 86 -16.6 1.5 -23.6 -23.1 -7 -30.1l33.2 -14.1c25.4 -10.7 40.6 -26.3 40.6 -42S505.7 742 480.3 731.3l-33.2 -14.1c-11.7 -4.9 -11.9 -23.8 0 -28.9l33.2 -14.1c25.4 -10.7 40.6 -26.3 40.6 -42s-15.2 -31.2 -40.6 -42l-33.2 -14c-16.8 -7.1 -9.4 -32.3 7 -30.1 83.6 4.9 139.7 48.4 139.7 85.9 0 25.4 -26.2 53.4 -68.8 70.3 42.6 17.8 68.8 45.7 68.8 71.1zm46.8 -304.6c-34.5 0 -62.5 -28 -62.5 -62.5s28 -62.5 62.5 -62.5 62.5 27.9 62.5 62.5 -27.9 62.5 -62.5 62.5z"/></svg>