
  <svg height="1000" width="1125.0" xmlns="http://www.w3.org/2000/svg">
    <path d="m1124.6 425.7c0.6 11.3 0.3 480.6 0.3 480.6 0 14.2-9.6 26.7-23.5 30.2-2.6 0.7-5.1 1-7.7 1-11.2 0-21.9-6.1-27.4-16.3l-145.4-266.5c-13.7 0.9 4.8 1.6-45 1.6-106.6 0-207.8 37.5-297.1 95.8-24.4 15.8-51 28.2-78.8 38.1v116.1c0 17.2-14 31.2-31.3 31.2h-31.2c-17.3 0-31.3-14-31.3-31.2v-96.1c-10.4 0.9-20.6 2.3-31.2 2.3-32.4 0-63.8-4.5-93.8-12.2v106c0 17.2-14 31.2-31.2 31.2h-31.3c-17.2 0-31.2-14-31.2-31.2v-144.6c-112-64.8-187.4-185.6-187.5-324.2-0.2-284.7 252.5-357.2 287.7-365.1 111.7-25.3 217.2-0.5 299.3 56 84.9 58.6 185.3 90.4 288.5 90.4h18.3c118.5 0 224.6 88.6 230.8 206.9z m-218.4 58.7c25.9 0 46.9-21 46.9-46.9 0-25.9-21-46.9-46.9-46.9s-46.9 21-46.9 46.9c0 25.9 21 46.9 46.9 46.9z m156.2 299.3v-193.5c-21.7 22.2-48.3 39.4-77.8 50.8z" />
  </svg>
