<svg height="1000" width="1125" xmlns="http://www.w3.org/2000/svg"><path d="M1124.6 425.7C1118.4 307.4 1012.3 218.8 893.8 218.8h-18.3C772.3 218.8 671.9 187 587 128.4 504.9 71.9 399.4 47.1 287.7 72.4 252.5 80.3 -.2 152.8 0 437.5c.1 138.6 75.5 259.4 187.5 324.2v144.6c0 17.2 14 31.2 31.2 31.2H250c17.2 0 31.2 -14 31.2 -31.2v-106c30 7.7 61.4 12.2 93.8 12.2 10.6 0 20.8 -1.4 31.2 -2.3v96.1c0 17.2 14 31.2 31.3 31.2h31.2c17.3 0 31.3 -14 31.3 -31.2V790.2c27.8 -9.9 54.4 -22.3 78.8 -38.1 89.3 -58.3 190.5 -95.8 297.1 -95.8 49.8 0 31.3 -.7 45 -1.6l145.4 266.5c5.5 10.2 16.2 16.3 27.4 16.3 2.5 0 5.1 -.3 7.7 -1 13.9 -3.5 23.5 -16 23.5 -30.2 0 0 .3 -469.3 -.3 -480.6zm-218.4 58.7c-25.9 0 -46.9 -21 -46.9 -46.9s21 -46.9 46.9 -46.9 46.9 21 46.9 46.9 -21 46.9 -46.9 46.9zm156.2 299.3L984.6 641c29.5 -11.4 56.1 -28.6 77.8 -50.8v193.5z"/></svg>