
  <svg height="1000" width="1000.0" xmlns="http://www.w3.org/2000/svg">
    <path d="m979.7 179.9c12.2 4.6 20.3 16.2 20.3 29.3v72c0 17.3-14 31.3-31.3 31.3h-937.5c-17.2 0-31.2-14-31.2-31.3v-72c0-13.4 8.4-24.9 20.3-29.3l457.8-175.9c6.8-2.6 14.2-4 21.9-4 7.7 0 15.1 1.4 22 4z m-854.7 195.1h125v312.5h187.5v-312.5h125v312.5h187.5v-312.5h125v312.5h31.3c17.2 0 31.2 14 31.2 31.3v93.7h-875v-93.7c0-17.3 14-31.3 31.3-31.3h31.2v-312.5z m843.8 500c17.2 0 31.2 14 31.2 31.3v62.5c0 17.2-14 31.2-31.2 31.2h-937.5c-17.3 0-31.3-14-31.3-31.2v-62.5c0-17.3 14-31.3 31.3-31.3h937.5z" />
  </svg>
