<svg height="1000" width="1250" xmlns="http://www.w3.org/2000/svg"><path d="M593.8 812.5H46.9C21 812.5 0 791.5 0 765.6V234.4c0 -25.9 21 -46.9 46.9 -46.9h546.9v625zM358.1 670.7a23.4 -23.4 0 0 1 22.4 16.8h44.7c16.1 0 27.4 -15.8 22.2 -31L335.2 326.3A23.4 -23.4 0 0 1 313 310.4h-63.5a23.4 -23.4 0 0 1 -22.2 15.9L115.1 656.5c-5.1 15.2 6.2 31 22.2 31h44.6a23.4 -23.4 0 0 1 22.5 -17l17.8 -62.1h117.6l18.3 62.3zM281.8 396.4s8.4 41.1 15.3 64.9l21.1 73.3h-74.4l21.6 -73.3c6.9 -23.8 15.3 -64.9 15.3 -64.9h1.1zm921.3 416.1H656.3v-625h546.8c25.9 0 46.9 21 46.9 46.9v531.2c0 25.9 -21 46.9 -46.9 46.9zm-70.3 -445.3h-125v-31.3c0 -12.9 -10.5 -23.4 -23.4 -23.4h-31.3c-12.9 0 -23.4 10.5 -23.4 23.4v31.3h-125c-13 0 -23.4 10.5 -23.4 23.4v31.3c0 12.9 10.4 23.4 23.4 23.4h222.9c-12.3 27.9 -32.3 56.6 -58.7 84.4C956.1 516.2 944.7 502.5 935 488.8c-7.1 -10 -20.7 -13 -31.2 -6.7l-14.3 8.5 -12.7 7.5c-11.6 7 -15 22.4 -7.2 33.5 11.8 17 25.5 33.8 40.9 50.2 -15.8 12.2 -32.9 23.9 -50.9 35.1 -10.8 6.7 -14.5 20.6 -8.2 31.6l15.5 27.2c6.6 11.5 21.4 15.3 32.7 8.3 24.8 -15.3 48 -31.6 69.2 -48.6 21.3 17.1 44.5 33.4 69.1 48.6 11.3 7 26.1 3.2 32.7 -8.3l15.5 -27.2c6.3 -11 2.7 -24.9 -8.1 -31.6a610.8 -610.8 0 0 0 -50.9 -35.2c41.1 -43.8 69.9 -90.4 83.4 -136.4h22.3c13 0 23.5 -10.5 23.5 -23.4v-31.3c0 -12.9 -10.5 -23.4 -23.5 -23.4z"/></svg>