
  <svg height="1000" width="1250.0" xmlns="http://www.w3.org/2000/svg">
    <path d="m453.1 437.5c-8.6 0-15.6-7-15.6-15.6v-93.8c0-8.6 7-15.6 15.6-15.6h109.4v-109.4c0-8.6 7-15.6 15.6-15.6h93.8c8.6 0 15.6 7 15.6 15.6v109.4h109.4c8.6 0 15.6 7 15.6 15.6v93.8c0 8.6-7 15.6-15.6 15.6h-109.4v109.4c0 8.6-7 15.6-15.6 15.6h-93.8c-8.6 0-15.6-7-15.6-15.6v-109.4h-109.4z m671.9-343.7v656.2h-1000v-656.2c0.2-51.7 42.1-93.6 93.8-93.8h812.5c51.6 0.2 93.5 42.1 93.7 93.8z m-125 531.2v-500h-750v500h750z m218.8 187.5c17.2 0 31.2 14 31.2 31.3v31.2c-0.2 68.9-56.1 124.8-125 125h-1000c-68.9-0.2-124.8-56.1-125-125v-31.2c0-17.3 14-31.3 31.3-31.3h467.2c-0.5 28.4 27.5 62.5 64 62.5h118.7c35.3 0 62.5-23.8 64-62.5h473.5z" />
  </svg>
