
  <svg height="1000" width="1250.0" xmlns="http://www.w3.org/2000/svg">
    <path d="m531.3 562.5v250h-343.8c-34.5 0-62.5-28-62.5-62.5v-320.5l-42.3 37.3c-5.1 4-11.4 6.5-18.2 6.8-8.2-0.4-15.5-3.9-20.9-9.3l-36.7-41.7c-4-5-6.6-11.4-6.9-18.3 0.5-8.1 3.9-15.3 9.3-20.7l413.7-366.2c10.8-9.6 31.4-17.4 45.8-17.4 14.5 0 35.1 7.8 45.8 17.4l172.9 153.1v-76.7c0-17.3 14-31.3 31.3-31.3h62.5c17.2 0 31.2 14 31.2 31.3v187.5l115.7 102.3c5.4 5.3 8.8 12.6 9.3 20.7-0.4 7-3 13.4-7.1 18.5l-12.9 14.7h-267.5c-34.8 0-65.8 16.1-87.5 41.3v-72.5c0-17.3-14-31.3-31.2-31.3h-125c-17.3 0-31.3 14-31.3 31.3v125c0 17.2 14 31.2 31.3 31.2h125z m697.9 312.5c11.5 0 20.8 9.3 20.8 20.8v20.9c-0.2 45.8-37.3 83.1-83.2 83.3h-583.6c-45.9-0.2-83-37.5-83.2-83.3v-20.9c0-11.5 9.3-20.8 20.8-20.8h72.9v-312.5c0-34.5 25.2-62.5 56.3-62.5h450c31.1 0 56.2 28 56.2 62.5v312.5h73z m-166.7 0v-281.2h-375v281.2h375z" />
  </svg>
