<svg height="1000" width="1250" xmlns="http://www.w3.org/2000/svg"><path d="M498.1 511c12.2 12.2 32 12.2 44.2 0l22.1 -22.1c12.2 -12.2 12.2 -31.9 0 -44.2L494.6 375l69.8 -69.8c12.2 -12.2 12.2 -32 0 -44.2l-22.1 -22.1c-12.2 -12.2 -32 -12.2 -44.2 0l-114 114c-12.2 12.2 -12.2 32 0 44.2l114 113.9zm187.5 -22l22.1 22.1c12.2 12.2 32 12.2 44.2 0l114 -114c12.2 -12.2 12.2 -32 0 -44.2L751.9 239c-12.2 -12.2 -32 -12.2 -44.2 0l-22.1 22.1c-12.2 12.2 -12.2 31.9 0 44.2l69.8 69.7 -69.8 69.8c-12.2 12.2 -12.2 32 0 44.2zm533.2 323.5H745.2c-1.4 38.7 -28.7 62.5 -63.9 62.5H562.5c-36.5 0 -64.5 -34.1 -64 -62.5H31.3C14.1 812.5 0 826.6 0 843.8V875c0 68.8 56.3 125 125 125h1000c68.8 0 125 -56.2 125 -125v-31.2c0 -17.2 -14.1 -31.3 -31.2 -31.3zM1125 93.8C1125 42.2 1082.8 0 1031.3 0H218.8C167.2 0 125 42.2 125 93.8V750h1000V93.8zM1000 625H250V125h750v500z"/></svg>