
  <svg height="1000" width="1250.0" xmlns="http://www.w3.org/2000/svg">
    <path d="m498.1 511l-114-113.9c-12.2-12.2-12.2-32 0-44.2l114-114c12.2-12.2 32-12.2 44.2 0l22.1 22.1c12.2 12.2 12.2 32 0 44.2l-69.8 69.8 69.8 69.7c12.2 12.3 12.2 32 0 44.2l-22.1 22.1c-12.2 12.2-32 12.2-44.2 0z m187.5-22c-12.2-12.2-12.2-32 0-44.2l69.8-69.8-69.8-69.7c-12.2-12.3-12.2-32 0-44.2l22.1-22.1c12.2-12.2 32-12.2 44.2 0l114 113.9c12.2 12.2 12.2 32 0 44.2l-114 114c-12.2 12.2-32 12.2-44.2 0z m533.2 323.5c17.1 0 31.2 14.1 31.2 31.3v31.2c0 68.8-56.2 125-125 125h-1000c-68.8 0-125-56.2-125-125v-31.2c0-17.2 14.1-31.3 31.3-31.3h467.2c-0.5 28.4 27.5 62.5 64 62.5h118.7c35.3 0 62.5-23.8 64-62.5h473.5z m-93.8-718.7v656.2h-1000v-656.2c0-51.6 42.2-93.8 93.8-93.8h812.5c51.5 0 93.7 42.2 93.7 93.8z m-125 531.2v-500h-750v500h750z" />
  </svg>
