
  <svg height="1000" width="968.8" xmlns="http://www.w3.org/2000/svg">
    <path d="m484.4 15.6c267.6 0 484.4 216.8 484.4 484.4s-216.8 484.4-484.4 484.4-484.4-216.8-484.4-484.4 216.8-484.4 484.4-484.4z m46.9 389.5c-1.4 16.8 21.2 23.2 29.4 8.8l18.6-33.2c15-26.8 37.5-42.2 61.5-42.2 24 0 46.5 15.4 61.5 42.2l18.6 33.2c8 14.4 30.5 8 29.1-8.8-6.4-82.2-62.9-139.5-109.4-139.5s-102.9 57.3-109.3 139.5z m-312.5 0c-1.4 16.6 21 23.2 29.4 8.8l18.6-33.2c15-26.8 37.5-42.2 61.5-42.2 24 0 46.5 15.4 61.5 42.2l18.6 33.2c8 14.4 30.5 8 29.1-8.8-6.4-82.2-62.9-139.5-109.4-139.5s-102.9 57.3-109.3 139.5z m560.3 192.6c2.3-18.8-12.3-35.2-31.1-35.2h-527.3c-18.7 0-33.4 16.6-31.1 35.2 17.4 138.6 135.8 246.1 279.1 246.1h31.3c143.4 0 261.7-107.5 279.1-246.1z" />
  </svg>
