<svg height="1000" width="968.8" xmlns="http://www.w3.org/2000/svg"><path d="M484.4 15.6C216.8 15.6 0 232.4 0 500s216.8 484.4 484.4 484.4S968.8 767.6 968.8 500 752 15.6 484.4 15.6zm46.9 389.5c6.4 -82.2 62.8 -139.5 109.3 -139.5s103 57.3 109.4 139.5c1.4 16.8 -21.1 23.2 -29.1 8.8l-18.6 -33.2c-15 -26.8 -37.5 -42.2 -61.5 -42.2s-46.5 15.4 -61.5 42.2l-18.6 33.2c-8.2 14.4 -30.8 8 -29.4 -8.8zm-312.5 0c6.4 -82.2 62.8 -139.5 109.3 -139.5s103 57.3 109.4 139.5c1.4 16.8 -21.1 23.2 -29.1 8.8l-18.6 -33.2c-15 -26.8 -37.5 -42.2 -61.5 -42.2s-46.5 15.4 -61.5 42.2l-18.6 33.2c-8.4 14.4 -30.8 7.8 -29.4 -8.8zm560.3 192.6C761.7 736.3 643.4 843.8 500 843.8h-31.2C325.4 843.8 207 736.3 189.6 597.7c-2.3 -18.6 12.4 -35.2 31.1 -35.2H748c18.8 0 33.4 16.4 31.1 35.2z"/></svg>