
  <svg height="1000" width="968.8" xmlns="http://www.w3.org/2000/svg">
    <path d="m484.4 15.6c267.6 0 484.4 216.8 484.4 484.4s-216.8 484.4-484.4 484.4-484.4-216.8-484.4-484.4 216.8-484.4 484.4-484.4z m156.2 296.9c-34.5 0-62.5 27.9-62.5 62.5s28 62.5 62.5 62.5 62.5-27.9 62.5-62.5-27.9-62.5-62.5-62.5z m-312.5 0c-34.5 0-62.5 27.9-62.5 62.5s28 62.5 62.5 62.5 62.5-27.9 62.5-62.5-27.9-62.5-62.5-62.5z m171.9 531.3c143.4 0 261.7-107.5 279.1-246.1 2.3-18.8-12.3-35.2-31.1-35.2h-527.3c-18.7 0-33.4 16.6-31.1 35.2 17.4 138.6 135.8 246.1 279.1 246.1h31.3z" />
  </svg>
