
  <svg height="1000" width="968.8" xmlns="http://www.w3.org/2000/svg">
    <path d="m484.4 15.6c267.6 0 484.4 216.8 484.4 484.4s-216.8 484.4-484.4 484.4-484.4-216.8-484.4-484.4 216.8-484.4 484.4-484.4z m66 315.8c-15 9.2-15 31.1 0 40.3l156.2 93.7c22.5 13.3 47.1-14.8 30.1-35.1l-65.6-78.7 65.6-78.7c16.8-20.2-7.4-48.7-30.1-35.2z m-318.4-58.5l65.7 78.7-65.7 78.7c-16.8 20.3 7.6 48.4 30.1 35.1l156.3-93.7c15.2-9.2 15.2-31.1 0-40.3l-156.3-93.7c-22.6-13.5-46.9 15-30.1 35.2z m547.1 324.8c2.3-18.8-12.3-35.2-31.1-35.2h-527.3c-18.7 0-33.4 16.6-31.1 35.2 17.4 138.6 135.8 246.1 279.1 246.1h31.3c143.4 0 261.7-107.5 279.1-246.1z" />
  </svg>
