
  <svg height="1000" width="968.8" xmlns="http://www.w3.org/2000/svg">
    <path d="m484.4 15.6c267.6 0 484.4 216.8 484.4 484.4s-216.8 484.4-484.4 484.4-484.4-216.8-484.4-484.4 216.8-484.4 484.4-484.4z m39.2 386.9c-3.3 21.9 22.5 35.8 38.9 21.3l18.8-16.8c28.9-25.7 90.2-25.7 119.1 0l18.5 16.6c16.5 14.7 42 0.6 38.7-21.1-7.8-49.2-66.8-82.2-117-82.2s-109.2 33-117 82.2z m-195.5-90c-34.5 0-62.5 27.9-62.5 62.5s28 62.5 62.5 62.5 62.5-27.9 62.5-62.5-27.9-62.5-62.5-62.5z m451 285.2c2.3-18.8-12.3-35.2-31.1-35.2h-527.3c-18.7 0-33.4 16.6-31.1 35.2 17.4 138.6 135.8 246.1 279.1 246.1h31.3c143.4 0 261.7-107.5 279.1-246.1z" />
  </svg>
