<svg height="1000" width="968.8" xmlns="http://www.w3.org/2000/svg"><path d="M484.4 15.6C216.8 15.6 0 232.4 0 500s216.8 484.4 484.4 484.4S968.8 767.6 968.8 500 752 15.6 484.4 15.6zm66 315.8l156.2 -93.7c22.7 -13.5 46.9 15 30.1 35.2l-65.6 78.7 65.6 78.7c17 20.3 -7.6 48.4 -30.1 35.1L550.4 371.7c-15 -9.2 -15 -31.1 0 -40.3zM232 272.9c-16.8 -20.2 7.5 -48.7 30.1 -35.2l156.3 93.7c15.2 9.2 15.2 31.1 0 40.3l-156.3 93.7C239.6 478.7 215.2 450.6 232 430.3l65.7 -78.7L232 272.9zm547.1 324.8C761.7 736.3 643.4 843.8 500 843.8h-31.2C325.4 843.8 207 736.3 189.6 597.7c-2.3 -18.6 12.4 -35.2 31.1 -35.2H748c18.8 0 33.4 16.4 31.1 35.2z"/></svg>