<svg height="1000" width="968.8" xmlns="http://www.w3.org/2000/svg"><path d="M484.4 15.6C216.8 15.6 0 232.4 0 500s216.8 484.4 484.4 484.4S968.8 767.6 968.8 500 752 15.6 484.4 15.6zm156.2 296.9c34.6 0 62.5 27.9 62.5 62.5s-27.9 62.5 -62.5 62.5S578.1 409.6 578.1 375s28 -62.5 62.5 -62.5zm-312.5 0c34.6 0 62.5 27.9 62.5 62.5s-27.9 62.5 -62.5 62.5S265.6 409.6 265.6 375s28 -62.5 62.5 -62.5zM500 843.8h-31.2C325.4 843.8 207 736.3 189.6 597.7c-2.3 -18.6 12.4 -35.2 31.1 -35.2H748c18.8 0 33.4 16.4 31.1 35.2C761.7 736.3 643.4 843.8 500 843.8z"/></svg>