<svg height="1000" width="968.8" xmlns="http://www.w3.org/2000/svg"><path d="M484.4 15.6C216.8 15.6 0 232.4 0 500s216.8 484.4 484.4 484.4S968.8 767.6 968.8 500 752 15.6 484.4 15.6zm39.2 386.9c7.8 -49.2 66.8 -82.2 117 -82.2s109.2 33 117 82.2c3.3 21.7 -22.2 35.8 -38.7 21.1L700.4 407c-28.9 -25.7 -90.2 -25.7 -119.1 0l-18.8 16.8c-16.4 14.5 -42.2 .6 -38.9 -21.3zm-195.5 -90c34.6 0 62.5 27.9 62.5 62.5s-27.9 62.5 -62.5 62.5S265.6 409.6 265.6 375s28 -62.5 62.5 -62.5zm451 285.2C761.7 736.3 643.4 843.8 500 843.8h-31.2C325.4 843.8 207 736.3 189.6 597.7c-2.3 -18.6 12.4 -35.2 31.1 -35.2H748c18.8 0 33.4 16.4 31.1 35.2z"/></svg>