<svg height="1000" width="1000" xmlns="http://www.w3.org/2000/svg"><path d="M24.2 289.1l455 206.4c13.3 6 28.3 6 41.6 0L975.7 289.1c32.4 -14.7 32.4 -63.5 0 -78.2L520.8 4.5a50 -50 0 0 1 -41.6 0l-455 206.4c-32.3 14.7 -32.3 63.5 0 78.2zm951.6 172.4L862.3 410.1 546.6 553.2c-14.8 6.7 -30.4 10.1 -46.6 10.1s-31.8 -3.4 -46.6 -10.1L137.7 410.1 24.2 461.5c-32.3 14.7 -32.3 63.5 0 78.1l455 206.3c13.3 6 28.3 6 41.6 0l455 -206.3c32.3 -14.6 32.3 -63.4 0 -78.1zm0 249.6L862.7 659.9 546.6 803.2c-14.8 6.7 -30.4 10.1 -46.6 10.1s-31.8 -3.4 -46.6 -10.1L137.3 659.9 24.2 711.1c-32.3 14.7 -32.3 63.5 0 78.2l455 206.2c13.3 6 28.3 6 41.6 0l455 -206.2c32.3 -14.7 32.3 -63.5 0 -78.2z"/></svg>