
  <svg height="1000" width="1000.0" xmlns="http://www.w3.org/2000/svg">
    <path d="m24.2 289.1c-32.3-14.7-32.3-63.5 0-78.2l455-206.4c6.3-2.9 13.5-4.5 20.9-4.5s14.4 1.6 20.7 4.5l454.9 206.4c32.4 14.7 32.4 63.5 0 78.2l-454.9 206.4c-13.3 6-28.3 6-41.6 0z m951.6 172.4c32.3 14.7 32.3 63.5 0 78.1l-455 206.3c-13.3 6-28.3 6-41.6 0l-455-206.3c-32.3-14.6-32.3-63.4 0-78.1l113.5-51.4 315.7 143.1c14.8 6.7 30.5 10.1 46.6 10.1s31.8-3.4 46.6-10.1l315.7-143.1z m0 249.6c32.3 14.7 32.3 63.5 0 78.2l-455 206.2c-13.3 6-28.3 6-41.6 0l-455-206.2c-32.3-14.7-32.3-63.5 0-78.2l113.1-51.2 316.1 143.3c14.8 6.7 30.5 10.1 46.6 10.1s31.8-3.4 46.6-10.1l316.1-143.3z" />
  </svg>
