<svg height="1000" width="1125" xmlns="http://www.w3.org/2000/svg"><path d="M1066.8 18.9c-10.9 -24.4 -42.2 -25.3 -55.3 -2.3C951 121.9 842.6 187.5 718.8 187.5H562.5c-207 0 -375 168 -375 375 0 13.7 1.6 26.8 2.9 40C315 513.3 494.9 437.5 750 437.5c17.2 0 31.3 14.1 31.3 31.3S767.2 500 750 500C259 500 50.8 801 4.7 914.1c-12.9 31.8 2.3 68.1 34.2 81.2 32 13.3 68.3 -2.1 81.6 -33.8 2.9 -7 40.8 -93.5 140.4 -176.9 63.3 85.7 183.6 167.5 341.6 150.8C909.2 913.1 1125 638.1 1125 301.4c0 -98.1 -21.1 -199.6 -58.2 -282.5z"/></svg>