
  <svg height="1000" width="1125.0" xmlns="http://www.w3.org/2000/svg">
    <path d="m1066.8 18.9c37.1 82.9 58.2 184.4 58.2 282.5 0 336.7-215.8 611.7-522.5 634-158 16.7-278.3-65.1-341.6-150.8-99.6 83.4-137.5 169.9-140.4 176.9-13.3 31.7-49.6 47.1-81.6 33.8-31.9-13.1-47.1-49.4-34.2-81.2 46.1-113.1 254.3-414.1 745.3-414.1 17.2 0 31.3-14.1 31.3-31.2s-14.1-31.3-31.3-31.3c-255.1 0-435 75.8-559.6 165-1.3-13.2-2.9-26.3-2.9-40 0-207 168-375 375-375h156.3c123.8 0 232.2-65.6 292.7-170.9 13.1-23 44.4-22.1 55.3 2.3z" />
  </svg>
