<svg height="1000" width="1000" xmlns="http://www.w3.org/2000/svg"><path d="M955.2 44.8C910 -.3 848.9 -11.6 808.5 12 693.4 79 454.5 -91.7 181.4 181.4S79 693.4 12 808.5C-11.6 848.9 -.3 910 44.8 955.2c45.2 45.1 106.3 56.4 146.7 32.8 115.1 -67 354 103.7 627.1 -169.4S921 306.6 988 191.5C1011.6 151.1 1000.3 90 955.2 44.8zM476.3 186.6C362.7 215 215 362.7 186.6 476.3 183 490.5 170.3 500 156.3 500c-2.5 0 -5.1 -.3 -7.6 -.9 -16.8 -4.2 -27 -21.2 -22.8 -37.9C160 325.1 324.8 160 461.2 125.9c16.7 -4.2 33.7 6 37.9 22.8s-6 33.7 -22.8 37.9z"/></svg>