
  <svg height="1000" width="1000.0" xmlns="http://www.w3.org/2000/svg">
    <path d="m955.2 44.8c45.1 45.2 56.4 106.3 32.8 146.7-67 115.1 103.7 354-169.4 627.1s-512 102.4-627.1 169.4c-40.4 23.6-101.5 12.3-146.7-32.8-45.1-45.2-56.4-106.3-32.8-146.7 67-115.1-103.7-354 169.4-627.1s512-102.4 627.1-169.4c40.4-23.6 101.5-12.3 146.7 32.8z m-478.9 141.8c16.8-4.2 27-21.2 22.8-37.9-4.2-16.8-21.2-27-37.9-22.8-136.4 34.1-301.2 199.2-335.3 335.3-4.2 16.7 6 33.7 22.8 37.9 2.5 0.6 5.1 0.9 7.6 0.9 14 0 26.7-9.5 30.3-23.7 28.4-113.7 176.1-261.3 289.7-289.7z" />
  </svg>
