<svg height="1000" width="1000" xmlns="http://www.w3.org/2000/svg"><path d="M500 15.6C232.5 15.6 15.6 232.5 15.6 500S232.5 984.4 500 984.4 984.4 767.5 984.4 500 767.5 15.6 500 15.6zm339.3 233.5L715.4 373C694 336.7 663.3 306.1 627 284.6L750.9 160.7a426.6 -426.6 0 0 0 88.4 88.4zM500 687.5C396.4 687.5 312.5 603.6 312.5 500S396.4 312.5 500 312.5 687.5 396.4 687.5 500 603.6 687.5 500 687.5zM249.1 160.7L373 284.6C336.7 306 306.1 336.7 284.6 373L160.8 249.1a426.5 -426.5 0 0 0 88.3 -88.4zm-88.3 590.2L284.6 627c21.4 36.3 52.1 66.9 88.4 88.4L249.1 839.3a426.6 -426.6 0 0 0 -88.3 -88.4zm590.1 88.4L627 715.4C663.3 694 693.9 663.3 715.4 627l123.9 123.9a426.6 -426.6 0 0 0 -88.4 88.4z"/></svg>