
  <svg height="1000" width="1000.0" xmlns="http://www.w3.org/2000/svg">
    <path d="m500 15.6c267.5 0 484.4 216.9 484.4 484.4s-216.9 484.4-484.4 484.4-484.4-216.9-484.4-484.4 216.9-484.4 484.4-484.4z m339.3 233.5c-25.2-33.8-54.6-63.2-88.4-88.3l-123.9 123.8c36.3 21.5 67 52.1 88.4 88.4z m-339.3 438.4c103.6 0 187.5-83.9 187.5-187.5s-83.9-187.5-187.5-187.5-187.5 83.9-187.5 187.5 83.9 187.5 187.5 187.5z m-250.9-526.8c-33.8 25.2-63.2 54.6-88.3 88.4l123.8 123.9c21.5-36.3 52.1-67 88.4-88.4z m-88.4 590.2c25.2 33.8 54.6 63.2 88.4 88.4l123.9-123.9c-36.3-21.5-67-52.1-88.4-88.4z m590.2 88.4c33.8-25.2 63.2-54.6 88.3-88.4l-123.8-123.9c-21.5 36.3-52.1 67-88.4 88.4z" />
  </svg>
