<svg height="1000" width="750" xmlns="http://www.w3.org/2000/svg"><path d="M531.3 835.9v54.7c0 20.4 -13.1 37.8 -31.3 44.2v18.3c0 25.9 -21 46.9 -46.9 46.9H296.9C271 1000 250 979 250 953.1v-18.3C231.8 928.4 218.8 911 218.8 890.6v-54.7c0 -12.9 10.4 -23.4 23.4 -23.4h265.6c13 0 23.5 10.5 23.5 23.4zM251.7 750C232.4 750 215 738.1 208 720.1 132.2 522.5 31.3 542.4 31.3 343.8 31.3 153.9 185.2 0 375 0s343.8 153.9 343.8 343.8c0 198.6 -101 178.7 -176.8 376.3 -7 18 -24.4 29.9 -43.7 29.9H251.7zM218.8 343.8c0 -86.2 70 -156.3 156.2 -156.3 17.3 0 31.3 -14 31.3 -31.2S392.3 125 375 125c-120.6 0 -218.7 98.1 -218.7 218.8 0 17.2 13.9 31.2 31.2 31.2s31.3 -14 31.3 -31.2z"/></svg>