
  <svg height="1000" width="687.5" xmlns="http://www.w3.org/2000/svg">
    <path d="m187.6 887.4l-0.1-74.9h312.5l-0.1 74.9c0 12.7-3.9 24.7-10.5 34.6l-33.3 50.1c-11.2 16.9-30.4 27.9-52.1 27.9h-120.5c-21.7 0-40.8-11-52-27.9l-33.4-50.1c-6.8-10.3-10.5-22.3-10.5-34.6z m-187.6-543.6c0-181.7 143.4-343.2 342.7-343.8 190.3-0.6 344.8 153.5 344.8 343.8 0 86.6-32.1 165.7-85.1 226.1-32.2 36.8-82.7 113.7-101.9 178.6-0.1 0.5-0.2 1-0.3 1.5h-312.9c-0.1-0.5-0.2-1-0.2-1.5-19.3-64.9-69.8-141.8-102-178.6-53-60.4-85.1-139.5-85.1-226.1z m343.8-156.3c17.2 0 31.2-14 31.2-31.2s-14-31.3-31.2-31.3c-120.7 0-218.8 98.1-218.8 218.8 0 17.2 14 31.2 31.3 31.2s31.2-14 31.2-31.2c0-86.2 70.1-156.3 156.3-156.3z" />
  </svg>
