
  <svg height="1000" width="1000.0" xmlns="http://www.w3.org/2000/svg">
    <path d="m637.9 362.1c116.7 116.8 115.1 304.1 0.7 419.1-0.2 0.2-0.5 0.5-0.7 0.7l-131.2 131.3c-115.8 115.7-304.1 115.7-419.9 0-115.7-115.8-115.7-304.1 0-419.9l72.5-72.4c19.2-19.2 52.3-6.5 53.3 20.7 1.3 34.6 7.5 69.4 18.9 103 3.9 11.3 1.1 23.9-7.4 32.4l-25.5 25.6c-54.8 54.7-56.5 143.8-2.3 199.1 54.8 55.8 144.7 56.2 199.9 1l131.2-131.2c55.1-55.1 54.9-144.1 0-198.9-7.2-7.2-14.5-12.8-20.2-16.8-7.9-5.4-13.2-14.4-13.5-24.6-0.8-20.6 6.5-41.9 22.8-58.2l41.1-41.1c10.8-10.8 27.7-12.1 40.2-3.4 14.5 10.1 27.7 21.2 40.1 33.6z m275.3-275.3c115.7 115.8 115.7 304.1 0 419.9l-72.5 72.4c-19.2 19.2-52.3 6.5-53.3-20.7-1.3-34.6-7.5-69.4-18.9-103-3.9-11.3-1.1-23.9 7.4-32.4l25.5-25.6c54.8-54.7 56.5-143.8 2.3-199.1-54.8-55.8-144.7-56.2-199.9-1l-131.2 131.2c-55.1 55.1-54.9 144.1 0 198.9 7.2 7.2 14.5 12.8 20.2 16.8 7.9 5.4 13.1 14.4 13.5 24.6 0.8 20.6-6.5 41.9-22.8 58.2l-41.1 41.1c-10.8 10.8-27.7 12.1-40.2 3.4-14.5-10.1-27.7-21.2-40.1-33.6-116.7-116.8-115.1-304.1-0.7-419.1 0.2-0.2 0.4-0.5 0.7-0.7l131.2-131.3c115.8-115.7 304.1-115.7 419.9 0z" />
  </svg>
