<svg height="1000" width="1000" xmlns="http://www.w3.org/2000/svg"><path d="M637.9 362.1c116.7 116.8 115.1 304.1 .7 419.1 -.2 .2 -.5 .5 -.7 .7L506.7 913.2c-115.8 115.7 -304.1 115.7 -419.9 0C-28.9 797.4 -28.9 609.1 86.8 493.3l72.5 -72.4c19.2 -19.2 52.3 -6.5 53.3 20.7 1.3 34.6 7.5 69.4 18.9 103 3.9 11.3 1.1 23.9 -7.4 32.4l-25.5 25.6c-54.8 54.7 -56.5 143.8 -2.3 199.1 54.8 55.8 144.7 56.2 199.9 1L527.4 671.5c55.1 -55.1 54.9 -144.1 0 -198.9 -7.2 -7.2 -14.5 -12.8 -20.2 -16.8a31.3 -31.3 0 0 0 -13.5 -24.6c-.8 -20.6 6.5 -41.9 22.8 -58.2l41.1 -41.1c10.8 -10.8 27.7 -12.1 40.2 -3.4a297.8 -297.8 0 0 0 40.1 33.6zM913.2 86.8C797.4 -28.9 609.1 -28.9 493.3 86.8L362.1 218.1c-.3 .2 -.5 .5 -.7 .7 -114.4 115 -116 302.3 .7 419.1a297.8 -297.8 0 0 1 40.1 33.6c12.5 8.7 29.4 7.4 40.2 -3.4L483.5 627c16.3 -16.3 23.6 -37.6 22.8 -58.2a31.3 -31.3 0 0 1 -13.5 -24.6c-5.7 -4 -13 -9.6 -20.2 -16.8 -54.9 -54.8 -55.1 -143.8 0 -198.9L603.8 197.3c55.2 -55.2 145.1 -54.8 199.9 1 54.2 55.3 52.5 144.4 -2.3 199.1L775.9 423c-8.5 8.5 -11.3 21.1 -7.4 32.4 11.4 33.6 17.6 68.4 18.9 103 1 27.2 34.1 39.9 53.3 20.7l72.5 -72.4c115.7 -115.8 115.7 -304.1 0 -419.9z"/></svg>