
  <svg height="1000" width="750.0" xmlns="http://www.w3.org/2000/svg">
    <path d="m726.6 500c13.2 0 23.9 11 23.4 24.2-10.1 261.3-184.2 413.3-446.1 413.3h-155.5c-12.9 0-23.4-10.5-23.4-23.4v-377.9l-96.5 21.5c-14.6 3.2-28.5-7.9-28.5-22.9v-80c0-11.2 7.9-20.6 18.4-22.9l106.6-23.7v-59.5l-96.5 21.5c-14.6 3.2-28.5-7.9-28.5-22.9v-80c0-11.2 7.9-20.6 18.4-22.9l106.6-23.7v-134.8c0-12.9 10.5-23.4 23.4-23.4h109.4c13 0 23.5 10.5 23.5 23.4v100.1l252.7-56.2c14.6-3.2 28.5 7.9 28.5 22.9v80c0 11.2-7.9 20.6-18.4 22.9l-262.9 58.4v59.5l252.8-56.2c14.6-3.2 28.5 7.9 28.5 22.9v80c0 11.2-7.9 20.6-18.4 22.9l-262.9 58.4v311c168.4 0 328.2-93.7 328.2-290.5 0-12.4 11-22 23.4-22h93.7z" />
  </svg>
