<svg height="1000" width="750" xmlns="http://www.w3.org/2000/svg"><path d="M726.6 500h-93.8c-12.4 0 -23.4 9.6 -23.4 22 0 196.8 -159.8 290.5 -328.1 290.5v-311l262.8 -58.4a23.4 -23.4 0 0 1 18.4 -22.9v-80c0 -15 -13.9 -26.1 -28.5 -22.9l-252.7 56.2V314l262.8 -58.4a23.4 -23.4 0 0 1 18.4 -22.9v-80c0 -15 -13.9 -26.1 -28.5 -22.9L281.3 186V85.9C281.3 73 270.8 62.5 257.8 62.5H148.4C135.5 62.5 125 73 125 85.9v134.8L18.4 244.4A23.4 -23.4 0 0 1 0 267.3v80c0 15 13.9 26.1 28.5 22.9L125 348.7v59.5L18.4 431.9A23.4 -23.4 0 0 1 0 454.8v80c0 15 13.9 26.1 28.5 22.9L125 536.2v377.9c0 12.9 10.5 23.4 23.4 23.4h155.5c261.9 0 436 -152 446.1 -413.3C750.5 511 739.8 500 726.6 500z"/></svg>