
  <svg height="1000" width="1000.0" xmlns="http://www.w3.org/2000/svg">
    <path d="m93.8 93.8c51.7 0 93.7 42 93.7 93.7s-42 93.8-93.7 93.8-93.8-42.1-93.8-93.8 42-93.7 93.8-93.7z m0 312.5c51.7 0 93.7 42 93.7 93.7s-42 93.8-93.7 93.8-93.8-42.1-93.8-93.8 42-93.7 93.8-93.7z m0 312.5c51.7 0 93.7 42 93.7 93.7s-42 93.8-93.7 93.8-93.8-42.1-93.8-93.8 42-93.7 93.8-93.7z m875 31.2c17.2 0 31.2 14 31.2 31.3v62.5c0 17.2-14 31.2-31.2 31.2h-625c-17.3 0-31.3-14-31.3-31.2v-62.5c0-17.3 14-31.3 31.3-31.3h625z m0-625c17.2 0 31.2 14 31.2 31.3v62.5c0 17.2-14 31.2-31.2 31.2h-625c-17.3 0-31.3-14-31.3-31.2v-62.5c0-17.3 14-31.3 31.3-31.3h625z m0 312.5c17.2 0 31.2 14 31.2 31.3v62.5c0 17.2-14 31.2-31.2 31.2h-625c-17.3 0-31.3-14-31.3-31.2v-62.5c0-17.3 14-31.3 31.3-31.3h625z" />
  </svg>
