<svg height="1000" width="1000" xmlns="http://www.w3.org/2000/svg"><path d="M187.5 187.5c0 51.8 -42 93.8 -93.7 93.8S0 239.3 0 187.5 42 93.8 93.8 93.8s93.7 41.9 93.7 93.7zM93.8 406.3C42 406.3 0 448.2 0 500s42 93.8 93.8 93.8 93.7 -42 93.7 -93.8 -42 -93.7 -93.7 -93.7zm0 312.5C42 718.8 0 760.7 0 812.5s42 93.8 93.8 93.8 93.7 -42 93.7 -93.8 -42 -93.7 -93.7 -93.7zm187.5 -461h687.5c17.2 0 31.2 -14 31.2 -31.2v-78.2c0 -17.2 -14 -31.2 -31.2 -31.2H281.3c-17.3 0 -31.3 14 -31.3 31.2v78.2c0 17.2 14 31.2 31.3 31.2zm0 312.5h687.5c17.2 0 31.2 -14 31.2 -31.2v-78.2c0 -17.2 -14 -31.2 -31.2 -31.2H281.3c-17.3 0 -31.3 14 -31.3 31.2v78.2c0 17.2 14 31.2 31.3 31.2zm0 312.5h687.5c17.2 0 31.2 -14 31.2 -31.2v-78.2c0 -17.2 -14 -31.2 -31.2 -31.2H281.3c-17.3 0 -31.3 14 -31.3 31.2v78.2c0 17.2 14 31.2 31.3 31.2z"/></svg>