<svg height="1000" width="1000" xmlns="http://www.w3.org/2000/svg"><path d="M6.4 272.5C6.4 257.9 14 249.9 29 249.9h29.5V172c0 -10.1 1.1 -20.5 1.1 -20.5h-.7s-3.5 5.2 -5.6 7.3c-8.7 8.4 -20.5 8.7 -30.6 -2.1L11.9 144.6C1.5 134.1 2.2 122.7 13 112.6l42.4 -39c8.7 -8 16.3 -11.1 28.2 -11.1h23.6c15 0 23 7.6 23 22.6v164.8h30.2c15 0 22.6 8 22.6 22.6v17.4c0 14.6 -7.6 22.6 -22.6 22.6H29c-15 0 -22.6 -8 -22.6 -22.6v-17.4zM4.3 594.9c0 -92.3 99.5 -110.1 99.5 -135.1 0 -14 -11.6 -17.1 -18.1 -17.1 -6.1 0 -12.6 2.1 -18.5 7.5 -9.9 9.6 -20.5 13.7 -31.4 4.8L19 441.7C7.7 432.8 5 422.5 13.6 411.6 26.5 394.5 50.8 375 92.6 375c37.9 0 86.8 20.5 86.8 77.3 0 74.9 -91.3 90.6 -95.1 111.1h76.3c14.7 0 22.6 7.9 22.6 22.3v17.1c0 14.3 -7.9 22.2 -22.6 22.2H27.9C14.2 625 4.3 617.1 4.3 602.8v-7.9zm6.7 293l11 -18.1c7.5 -13 17.8 -13.7 30.4 -6.2 9.6 4.1 18.8 6.2 28.1 6.2 19.8 0 28 -6.9 28 -16.1 0 -13 -10.9 -17.8 -31.1 -17.8h-9.2c-11.7 0 -18.2 -4.1 -24 -15.4l-2 -3.7c-4.8 -9.3 -2.4 -19.2 5.4 -29.1l11 -13.7c13.3 -16.4 23.9 -26.3 23.9 -26.3v-.7s-8.2 2.1 -24.6 2.1H32.6c-14.7 0 -22.2 -7.9 -22.2 -22.3v-17.1c0 -14.7 7.5 -22.2 22.2 -22.2h114.2c14.7 0 22.2 7.9 22.2 22.2v6.5c0 11.3 -2.7 19.2 -9.9 27.7l-34.2 39.4c38.3 9.9 56.1 40 56.1 68 0 41.7 -28 86.2 -94.7 86.2 -32.5 0 -55.1 -9.2 -70.1 -18.5C4.9 910.8 3.9 899.9 11 887.9zM281.3 257.8h687.5c17.2 0 31.2 -14 31.2 -31.2v-78.2c0 -17.2 -14 -31.2 -31.2 -31.2H281.3c-17.3 0 -31.3 14 -31.3 31.2v78.2c0 17.2 14 31.2 31.3 31.2zm0 312.5h687.5c17.2 0 31.2 -14 31.2 -31.2v-78.2c0 -17.2 -14 -31.2 -31.2 -31.2H281.3c-17.3 0 -31.3 14 -31.3 31.2v78.2c0 17.2 14 31.2 31.3 31.2zm0 312.5h687.5c17.2 0 31.2 -14 31.2 -31.2v-78.2c0 -17.2 -14 -31.2 -31.2 -31.2H281.3c-17.3 0 -31.3 14 -31.3 31.2v78.2c0 17.2 14 31.2 31.3 31.2z"/></svg>