<svg height="1000" width="1000" xmlns="http://www.w3.org/2000/svg"><path d="M250 226.6v-78.2c0 -17.2 14 -31.2 31.3 -31.2h687.5c17.2 0 31.2 14 31.2 31.2v78.2c0 17.2 -14 31.2 -31.2 31.2H281.3c-17.3 0 -31.3 -14 -31.3 -31.2zm31.3 343.7h687.5c17.2 0 31.2 -14 31.2 -31.2v-78.2c0 -17.2 -14 -31.2 -31.2 -31.2H281.3c-17.3 0 -31.3 14 -31.3 31.2v78.2c0 17.2 14 31.2 31.3 31.2zm0 312.5h687.5c17.2 0 31.2 -14 31.2 -31.2v-78.2c0 -17.2 -14 -31.2 -31.2 -31.2H281.3c-17.3 0 -31.3 14 -31.3 31.2v78.2c0 17.2 14 31.2 31.3 31.2zM31.3 281.3h125c17.2 0 31.2 -14 31.2 -31.3V125c0 -17.3 -14 -31.2 -31.2 -31.2h-125C14 93.8 0 107.7 0 125v125c0 17.3 14 31.3 31.3 31.3zm0 312.5h125c17.2 0 31.2 -14 31.2 -31.3v-125c0 -17.3 -14 -31.2 -31.2 -31.2h-125C14 406.3 0 420.2 0 437.5v125c0 17.3 14 31.3 31.3 31.3zm0 312.5h125c17.2 0 31.2 -14 31.2 -31.3V750c0 -17.3 -14 -31.2 -31.2 -31.2h-125C14 718.8 0 732.7 0 750v125c0 17.3 14 31.3 31.3 31.3z"/></svg>