
  <svg height="1000" width="1000.0" xmlns="http://www.w3.org/2000/svg">
    <path d="m120.6 783.2c38.3 10 56.1 40 56.2 68.1 0 41.8-28 86.2-94.8 86.2-32.4 0-57.2-9.3-72.2-18.4-11.4-8.3-12.4-19.2-5.2-31.2l10.9-18.2c7.6-12.9 17.8-13.6 30.5-6 9.3 3.8 19.6 6 30.2 6 19.9 0 28.1-6.8 28.1-16 0-13-11-17.8-31.2-17.8h-9.2c-11.6 0-18.1-4.1-23.9-15.4l-2.1-3.7c-4.8-9.3-2.3-19.2 5.5-29.1l11-13.7c6.7-8.4 13.8-16.3 21.4-24h-44.6c-8.6 0-15.6-7-15.6-15.6v-31.3c0-8.6 7-15.6 15.6-15.6h111.4c14.6 0 22.1 7.8 22.1 22.2v6.4c0.1 0.6 0.1 1.2 0.1 1.8 0 10-3.8 19.1-10 25.9z m848.2-345.7c17.2 0 31.2 14 31.2 31.3v62.5c0 17.2-14 31.2-31.2 31.2h-625c-17.3 0-31.3-14-31.3-31.2v-62.5c0-17.3 14-31.3 31.3-31.3h625z m0-312.5c17.2 0 31.2 14 31.2 31.3v62.5c0 17.2-14 31.2-31.2 31.2h-625c-17.3 0-31.3-14-31.3-31.2v-62.5c0-17.3 14-31.3 31.3-31.3h625z m0 625c17.2 0 31.2 14 31.2 31.3v62.5c0 17.2-14 31.2-31.2 31.2h-625c-17.3 0-31.3-14-31.3-31.2v-62.5c0-17.3 14-31.3 31.3-31.3h625z m-937.5-437.5c-8.7 0-15.7-7-15.7-15.6v-31.3c0-8.6 7-15.6 15.7-15.6h31.2v-125h-15.6c-8.6 0-15.6-7-15.6-15.6 0-2.5 0.6-4.9 1.6-7l15.7-31.3c2.5-5.1 7.8-8.6 13.9-8.6h46.9c8.6 0 15.6 7 15.6 15.6v171.9h31.2c8.7 0 15.7 7 15.7 15.6v31.3c0 8.6-7 15.6-15.7 15.6h-125z m-7.7 312.5c-13.7 0-23.6-7.8-23.6-22.3v-7.8c0-92.3 99.6-110.2 99.6-135 0-14-11.7-17.1-18.2-17.1 0 0 0 0-0.1 0-7.1 0-13.6 2.9-18.3 7.5-10.1 9.6-20.6 13.7-31.5 4.8l-16.8-13.5c-11.3-8.8-14-19.1-5.5-30 13-17.1 37.3-36.6 79.1-36.6 38 0 86.8 20.5 86.8 77.3 0 73.7-88 90.1-94.4 110.2h75.6c8.6 0 15.6 7 15.6 15.6v31.3c0 8.6-7 15.6-15.6 15.6h-132.7z" />
  </svg>
