
  <svg height="1000" width="1000.0" xmlns="http://www.w3.org/2000/svg">
    <path d="m156.3 718.8c17.2 0 31.2 14 31.2 31.2v125c0 17.2-14 31.3-31.2 31.3h-125c-17.3 0-31.3-14.1-31.3-31.3v-125c0-17.2 14-31.2 31.3-31.2h125z m0-625c17.2 0 31.2 14 31.2 31.2v125c0 17.2-14 31.3-31.2 31.3h-125c-17.3 0-31.3-14.1-31.3-31.3v-125c0-17.2 14-31.2 31.3-31.2h125z m0 312.5c17.2 0 31.2 14 31.2 31.2v125c0 17.2-14 31.3-31.2 31.3h-125c-17.3 0-31.3-14.1-31.3-31.3v-125c0-17.2 14-31.2 31.3-31.2h125z m812.5 343.7c17.2 0 31.2 14 31.2 31.3v62.5c0 17.2-14 31.2-31.2 31.2h-625c-17.3 0-31.3-14-31.3-31.2v-62.5c0-17.3 14-31.3 31.3-31.3h625z m0-625c17.2 0 31.2 14 31.2 31.3v62.5c0 17.2-14 31.2-31.2 31.2h-625c-17.3 0-31.3-14-31.3-31.2v-62.5c0-17.3 14-31.3 31.3-31.3h625z m0 312.5c17.2 0 31.2 14 31.2 31.3v62.5c0 17.2-14 31.2-31.2 31.2h-625c-17.3 0-31.3-14-31.3-31.2v-62.5c0-17.3 14-31.3 31.3-31.3h625z" />
  </svg>
