
  <svg height="1000" width="1125.0" xmlns="http://www.w3.org/2000/svg">
    <path d="m1112 452.4c8.2 13.9 12.9 30.4 12.9 47.7 0 17.3-4.7 33.6-12.9 47.5-62.5 106-155.6 192-267.2 246.7l0 0 84.2 114c14.9 21.2 9.7 50.5-11.5 65.3l-25.6 17.9c-21.2 14.9-50.4 9.7-65.3-11.5l-491.9-696.4c-26.4 12.1-51.8 26.2-75.7 42.1l371.1 530.1c-22.5 2.4-43.9 3.6-67 3.6-29.6 0-58.7-2-87.2-5.9l-79.4-113.3h0l-233.2-333.2c-20.4 21.9-38.7 45.1-55.3 70.2l242.6 346.5c-142.8-49.8-262.4-148.5-337.6-276.1-17.5-29.7-17.1-66.1 0-95.2 0 0 0-0.1 0-0.1 65.6-111.1 161.7-195 267.2-246.6l-84.2-114c-14.9-21.2-9.7-50.5 11.5-65.3l25.6-17.9c21.2-14.9 50.4-9.7 65.3 11.5l103.1 141c51.4-13.3 105.4-20.4 161-20.4 234 0 439.4 124.9 549.5 311.8z m-350.2 223.3c41.3-46.8 66.3-108.3 66.3-175.7 0-146.8-118.8-265.6-265.6-265.6-34.2 0-66.9 6.4-96.9 18.2l37.3 53.2c50.7-15.6 106.9-10.9 155.2 15h0c-46.2 0-83.6 37.4-83.6 83.6 0 45.9 37 83.6 83.6 83.6 46.2 0 83.6-37.4 83.6-83.6v0c37 69 31 154.5-17.2 218.1z" />
  </svg>
