<svg height="1000" width="1125" xmlns="http://www.w3.org/2000/svg"><path d="M1112 452.4C1001.9 265.5 796.5 140.6 562.5 140.6c-55.6 0 -109.6 7.1 -161 20.4L298.4 20C283.5 -1.2 254.3 -6.4 233.1 8.5l-25.6 17.9C186.3 41.2 181.1 70.5 196 91.7l84.2 114C174.7 257.3 78.6 341.2 13.1 452.3c-.1 0 -.1 .1 -.1 .1 -17.1 29.1 -17.5 65.5 0 95.2 75.2 127.6 194.8 226.3 337.6 276.1L108 477.2A531.6 -531.6 0 0 0 163.3 407l233.2 333.2 79.4 113.3a644.6 -644.6 0 0 1 154.2 2.3L259 325.7a542.2 -542.2 0 0 0 75.7 -42.1L826.6 980c14.9 21.2 44.1 26.4 65.3 11.5l25.6 -17.9c21.2 -14.8 26.4 -44.1 11.5 -65.3l-84.2 -114C956.4 739.6 1049.5 653.6 1112 547.6a93.6 -93.6 0 0 1 0 -95.2zM761.8 675.7l-37.3 -53.2c48.2 -63.6 54.2 -149.1 17.2 -218.1 0 46.2 -37.4 83.6 -83.6 83.6 -46.6 0 -83.6 -37.7 -83.6 -83.6 0 -46.2 37.4 -83.6 83.6 -83.6 -48.3 -25.9 -104.5 -30.6 -155.2 -15l-37.3 -53.2c30 -11.8 62.7 -18.2 96.9 -18.2 146.8 0 265.6 118.8 265.6 265.6 0 67.4 -25 128.9 -66.3 175.7z"/></svg>