<svg height="1000" width="1250" xmlns="http://www.w3.org/2000/svg"><path d="M437.5 625H500V187.5h-62.5c-34.5 0 -62.5 28 -62.5 62.5v312.5c0 34.5 28 62.5 62.5 62.5zM1125 562.5V250c0 -34.5 -28 -62.5 -62.5 -62.5H1000V625h62.5c34.5 0 62.5 -28 62.5 -62.5zm93.8 187.5H250V31.3C250 14 236 0 218.8 0H31.3C14 0 0 14 0 31.3v62.5C0 111 14 125 31.3 125H125v718.8c0 17.2 14 31.2 31.3 31.2h161.9c-3.5 9.8 -5.7 20.2 -5.7 31.3 0 51.7 42 93.7 93.8 93.7S500 958 500 906.3c0 -11.1 -2.2 -21.5 -5.7 -31.3h386.4c-3.5 9.8 -5.7 20.2 -5.7 31.3 0 51.7 42 93.7 93.8 93.7s93.7 -42 93.7 -93.7c0 -11.1 -2.2 -21.5 -5.7 -31.3h162c17.2 0 31.2 -14 31.2 -31.2v-62.5C1250 764 1236 750 1218.8 750zM937.5 187.5V93.8C937.5 42 895.5 0 843.8 0H656.3c-51.8 0 -93.8 42 -93.8 93.8V625h375V187.5zm-93.7 0H656.3V93.8h187.5v93.7z"/></svg>