
  <svg height="1000" width="1250.0" xmlns="http://www.w3.org/2000/svg">
    <path d="m437.5 625c-34.5 0-62.5-28-62.5-62.5v-312.5c0-34.5 28-62.5 62.5-62.5h62.5v437.5h-62.5z m687.5-62.5c0 34.5-28 62.5-62.5 62.5h-62.5v-437.5h62.5c34.5 0 62.5 28 62.5 62.5v312.5z m93.8 187.5c17.2 0 31.2 14 31.2 31.3v62.5c0 17.2-14 31.2-31.2 31.2h-162c3.5 9.8 5.7 20.2 5.7 31.3 0 51.7-42 93.7-93.7 93.7s-93.8-42-93.8-93.7c0-11.1 2.2-21.5 5.7-31.3h-386.4c3.5 9.8 5.7 20.2 5.7 31.3 0 51.7-42 93.7-93.8 93.7s-93.7-42-93.7-93.7c0-11.1 2.2-21.5 5.7-31.3h-162c-17.2 0-31.2-14-31.2-31.2v-718.8h-93.8c-17.2 0-31.2-14-31.2-31.2v-62.5c0-17.3 14-31.3 31.2-31.3h187.5c17.3 0 31.3 14 31.3 31.3v718.7h968.7z m-281.3-562.5v437.5h-375v-531.2c0-51.8 42-93.8 93.8-93.8h187.5c51.7 0 93.7 42 93.7 93.8v93.7z m-93.7 0v-93.7h-187.5v93.7h187.5z" />
  </svg>
