
  <svg height="1000" width="1250.0" xmlns="http://www.w3.org/2000/svg">
    <path d="m1242.4 762c5.1 18.9 7.6 38.4 7.6 57.9 0 119.6-122 205.9-244.6 173.1l-116.2-31.2c-82.4-22.1-139.2-92.7-139.2-173.1v-170.8l167.7 111.7c2.4 1.7 5.4 2.7 8.6 2.7 5.4 0 10.2-2.8 13-7l17.4-26c1.6-2.5 2.6-5.5 2.6-8.7 0-5.4-2.8-10.2-7-13l-327.3-218.2-327.3 218.2c-4.2 2.8-7 7.6-7 13 0 3.2 1 6.2 2.6 8.7l17.4 26c2.8 4.2 7.6 6.9 13 6.9 3.2 0 6.2-0.9 8.6-2.6l167.7-111.7v170.8c0 80.4-56.8 151-139.2 173.1l-116.2 31.2c-122.6 32.8-244.6-53.5-244.6-173.1 0-19.5 2.5-39 7.6-57.9 42.3-158.8 109.4-310.8 199.2-451.2 43.2-67.5 70.5-123.3 156.4-123.3 75.5 0 136.8 57.5 136.8 128.3v117.4l64.2-42.8c8.7-5.8 13.9-15.5 13.9-26v-333.2c0-17.2 14-31.2 31.3-31.2h31.2c17.3 0 31.3 14 31.3 31.2v333.2c0 10.9 5.5 20.4 13.9 26l64.2 42.8v-117.4c0-70.8 61.3-128.3 136.8-128.3 85.9 0 113.2 55.8 156.4 123.3 89.7 140.4 156.9 292.4 199.2 451.2z" />
  </svg>
