
  <svg height="1000" width="1250.0" xmlns="http://www.w3.org/2000/svg">
    <path d="m671.9 294.3c-13.7-8.2-29.9-13-47-13s-33.1 4.8-46.8 13v-263c0-17.3 14-31.3 31.3-31.3h31.2c17.3 0 31.3 14 31.3 31.3v263z m-290 573.8c16.5 16.9 39.5 27.5 65 27.5 5.6 0 11.1-0.6 16.5-1.5-25.5 32.7-61.3 56.9-102.6 67.8l-116.2 31c-122.5 33-244.6-53.4-244.6-173.1 0-0.1 0-0.2 0-0.4 0-19.8 2.7-39.1 7.6-57.4 43-161.1 111.4-314.3 199.2-451.2 43.2-67.6 70.5-123.3 156.5-123.3 75.4 0 136.7 57.4 136.7 128.4v54.1c-14.9-10-32.9-15.8-52.1-15.8-51.7 0-93.8 42-93.8 93.7 0 26.1 10.7 49.6 27.8 66.6l16.8 16.8h-23.7c-51.7 0-93.8 42-93.8 93.7s42.1 93.8 93.8 93.8h23.7l-16.8 16.7c-16.9 17-27.4 40.5-27.4 66.3s10.5 49.3 27.4 66.3z m442-44.2c-5.7 5.6-13.5 9.1-22.1 9.1s-16.5-3.5-22.1-9.1l-16.8-16.8c-39.3-39.3-106.7-11.4-106.7 44.2v23.7c0 17.2-14 31.2-31.2 31.2s-31.3-14-31.3-31.2v-23.7c0-55.6-67.3-83.5-106.6-44.2l-16.8 16.8c-5.7 5.8-13.6 9.5-22.4 9.5-17.3 0-31.3-14-31.3-31.3 0-8.8 3.7-16.7 9.5-22.4l16.8-16.8c39.3-39.3 11.5-106.6-44.2-106.6h-23.7c-17.2 0-31.3-14.1-31.3-31.3s14.1-31.2 31.3-31.2h23.7c55.7 0 83.5-67.4 44.2-106.7l-16.8-16.8c-5.6-5.6-9.1-13.5-9.1-22.1 0-17.2 14-31.2 31.2-31.2 8.6 0 16.5 3.5 22.1 9.1l16.8 16.8c39.3 39.3 106.6 11.5 106.6-44.2v-23.7c0-17.2 14.1-31.3 31.3-31.3s31.2 14.1 31.2 31.3v23.7c0 55.7 67.4 83.5 106.7 44.2l16.8-16.8c5.6-5.6 13.5-9.1 22.1-9.1 17.2 0 31.2 14 31.2 31.2 0 8.6-3.5 16.5-9.1 22.1l-16.8 16.8c-39.3 39.3-11.5 106.6 44.2 106.6h23.7c17.2 0 31.3 14.1 31.3 31.3s-14.1 31.2-31.3 31.2h-23.7c-55.7 0-83.5 67.4-44.2 106.7l16.8 16.8c5.6 5.7 9.1 13.5 9.1 22.1 0 8.6-3.5 16.4-9.1 22.1z m-261.4-230.1c17.2 0 31.3-14.1 31.3-31.3s-14.1-31.2-31.3-31.2-31.2 14-31.2 31.2 14 31.3 31.2 31.3z m125 125c17.2 0 31.3-14.1 31.3-31.3s-14.1-31.2-31.3-31.2-31.2 14-31.2 31.2 14 31.3 31.2 31.3z m554.9 43.2c4.9 18.3 7.6 37.5 7.6 57.3v0.5c0 119.7-122.1 206.1-244.6 173.1l-116.2-31c-41.3-10.9-77.1-35.1-102.6-67.8 5.4 0.9 11 1.4 16.7 1.4 51.4 0 93.1-41.7 93.1-93.1 0-26.2-10.8-50-28.3-66.9l-16.8-16.7h23.7c51.7 0 93.7-42.1 93.7-93.8s-42-93.7-93.7-93.7h-23.7l16.8-16.7c17.1-17 27.6-40.5 27.6-66.5 0-51.8-42-93.8-93.7-93.8-19.2 0-37.1 5.8-52 15.8v-54.2c0-71 61.3-128.4 136.7-128.4 86 0 113.3 55.7 156.5 123.3 87.8 136.9 156.2 290.1 199.2 451.2z" />
  </svg>
