<svg height="1000" width="1000" xmlns="http://www.w3.org/2000/svg"><path d="M437.5 187.5L468.8 125l62.5 -31.2L468.8 62.5 437.5 0l-31.2 62.5 -62.5 31.3 62.5 31.2 31.2 62.5zm-281.2 125l52 -104.2 104.2 -52L208.3 104.2 156.3 0l-52.1 104.2L0 156.3l104.2 52 52.1 104.2zm687.5 250l-52.1 104.2 -104.2 52.1 104.2 52L843.8 875l52 -104.2 104.2 -52L895.8 666.7l-52 -104.2zM981.7 184L816 18.3C803.8 6.1 787.8 0 771.8 0c-16 0 -32 6.1 -44.2 18.3L18.3 727.6c-24.4 24.4 -24.4 64 0 88.4L184 981.7c12.3 12.2 28.2 18.3 44.2 18.3 16 0 32 -6.1 44.2 -18.3L981.7 272.4c24.4 -24.4 24.4 -64 0 -88.4zM702.1 397.4l-99.5 -99.5L771.8 128.8l99.4 99.4L702.1 397.4z"/></svg>