
  <svg height="1000" width="1000.0" xmlns="http://www.w3.org/2000/svg">
    <path d="m437.5 187.5l-31.2-62.5-62.5-31.2 62.5-31.3 31.2-62.5 31.3 62.5 62.5 31.3-62.5 31.2z m-281.2 125l-52.1-104.2-104.2-52 104.2-52.1 52.1-104.2 52 104.2 104.2 52.1-104.2 52z m687.5 250l52 104.2 104.2 52.1-104.2 52-52 104.2-52.1-104.2-104.2-52 104.2-52.1z m137.9-378.5c24.4 24.4 24.4 64 0 88.4l-709.3 709.3c-12.2 12.2-28.2 18.3-44.2 18.3-16 0-31.9-6.1-44.2-18.3l-165.7-165.7c-24.4-24.4-24.4-64 0-88.4l709.3-709.3c12.2-12.2 28.2-18.3 44.2-18.3 16 0 32 6.1 44.2 18.3z m-279.6 213.4l169.1-169.2-99.4-99.4-169.2 169.1z" />
  </svg>
