
  <svg height="1000" width="1000.0" xmlns="http://www.w3.org/2000/svg">
    <path d="m320.4 289.3h-297c-12.9 0-23.4-10.5-23.4-23.5v-156.2c0-38.8 31.5-70.3 70.3-70.3h203.1c38.8 0 70.4 31.5 70.4 70.3v156.2c0 0.1 0 0.2 0 0.2 0 12.9-10.5 23.3-23.3 23.3 0 0 0 0-0.1 0z m679.6-23.5c0 0 0 0 0 0 0 12.9-10.4 23.3-23.2 23.3-0.1 0-0.2 0-0.2 0h-296.9c-12.9 0-23.4-10.5-23.4-23.5v-156.2c0-38.8 31.5-70.3 70.3-70.3h203.1c38.8 0 70.3 31.5 70.3 70.3v156.4z m-320.3 86h296.6c12.9 0 23.4 10.5 23.4 23.4 0 0.1 0 0.1 0 0.2-0.4 39.4-1.2 78.9 0 103.9 0 294.3-262.5 481.8-498 481.8s-501.5-187.5-501.5-481.6c1.2-25.4 0.2-62.3 0-104.1v-0.2c0-12.9 10.5-23.4 23.4-23.4h296.7c12.9 0 23.5 10.5 23.5 23.4v101.6c0 249.8 312.5 250.2 312.5 0v-101.6c0-12.9 10.5-23.4 23.4-23.4z" />
  </svg>
