<svg height="1000" width="1000.2" xmlns="http://www.w3.org/2000/svg"><path d="M320.5 312.5H23.4C10.5 312.5 0 302 0 289.1V132.8C0 93.9 31.4 62.5 70.3 62.5h203.1c38.9 0 70.4 31.4 70.4 70.3v156.3c.1 12.9 -10.4 23.4 -23.3 23.4zm679.7 -23.4V132.6c0 -38.8 -31.4 -70.3 -70.3 -70.3H726.8c-38.9 0 -70.4 31.5 -70.4 70.3v156.3c0 12.9 10.6 23.4 23.5 23.4h296.9c12.8 .2 23.4 -10.3 23.4 -23.2zM679.9 375c-12.9 0 -23.5 10.5 -23.5 23.4V500c0 250.2 -312.5 249.8 -312.5 0V398.4c0 -12.9 -10.5 -23.4 -23.4 -23.4H23.6C10.5 375 .2 385.5 .2 398.6c.2 41.8 1.2 78.7 0 104.1 0 294.2 266 481.7 501.6 481.7 235.5 0 498.2 -187.5 498.2 -481.9 -1.2 -25 -.4 -64.4 0 -103.9C1000 385.5 989.6 375 976.6 375H679.9z"/></svg>