<svg height="1000" width="875" xmlns="http://www.w3.org/2000/svg"><path d="M781.3 62.5H93.8C42 62.5 0 104.5 0 156.3v687.5c0 51.7 42 93.7 93.8 93.7h687.5c51.7 0 93.7 -42 93.7 -93.7V156.3c0 -51.8 -42 -93.8 -93.7 -93.8zM347.9 511.9C170.8 383.4 172.6 383 125 346v-49.1C125 271 146 250 171.9 250h531.2c25.9 0 46.9 21 46.9 46.9V346c-47.6 37.1 -45.8 37.4 -222.9 165.9 -20.5 15 -61.3 51 -89.6 50.6 -28.3 .4 -69.1 -35.6 -89.6 -50.6zM750 425.3v277.8C750 729 729 750 703.1 750H171.9C146 750 125 729 125 703.1V425.3c27.3 21.1 65.1 49.3 186.1 137.2 27.7 20.2 74.2 62.8 126.4 62.5 52.5 .3 99.7 -43.1 126.4 -62.6 121 -87.8 158.8 -116 186.1 -137.1z"/></svg>