
  <svg height="1000" width="1125.0" xmlns="http://www.w3.org/2000/svg">
    <path d="m312.5 875c50 0 100-43.8 125-62.5 125-87.5 162.5-118.7 187.5-137.5v262.5c0 34.5-28 62.5-62.5 62.5h-500c-34.5 0-62.5-28-62.5-62.5v-262.5c25 18.8 62.5 50 187.5 137.5 25 18.7 75 62.5 125 62.5z m250-375c34.5 0 62.5 28 62.5 62.5v37.5c-50 37.5-43.8 37.5-225 168.7-18.7 6.3-56.2 43.8-87.5 43.8s-68.7-37.5-87.5-50c-181.2-131.2-175-131.2-225-168.7v-31.3c0-34.5 28-62.5 62.5-62.5h500z m500-187.5c34.5 0 62.5 28 62.5 62.5v375c0 34.5-28 62.5-62.5 62.5h-375v-262.5l-0.6 0.4c-6.1-63.3-59.5-112.9-124.4-112.9h-187.5v-62.5c0-34.5 28-62.5 62.5-62.5h625z m-62.5 250v-125h-125v125h125z m-687.5-187.5v62.5h-187.5v-375c0-34.5 28-62.5 62.5-62.5h625c34.5 0 62.5 28 62.5 62.5v187.5h-437.5c-68.9 0-125 56.1-125 125z" />
  </svg>
