
  <svg height="1000" width="1000.0" xmlns="http://www.w3.org/2000/svg">
    <path d="m990.8 165.4c12.2 12.2 12.2 32 0 44.2l-84.5 84.6c-11.8 11.7-27.7 18.3-44.2 18.3h-752.7c-25.9 0-46.9-21-46.9-46.9v-156.2c0-25.9 21-46.9 46.9-46.9h328.1v-31.3c0-17.2 14-31.2 31.3-31.2h62.5c17.2 0 31.2 14 31.2 31.2v31.3h299.6c16.5 0 32.4 6.6 44.2 18.3z m-553.3 803.4v-218.8h125v218.8c0 17.2-14 31.2-31.2 31.2h-62.5c-17.3 0-31.3-14-31.3-31.2z m453.1-531.3c25.9 0 46.9 21 46.9 46.9v156.2c0 25.9-21 46.9-46.9 46.9h-752.7c-16.5 0-32.4-6.6-44.1-18.3l-84.6-84.6c-12.2-12.2-12.2-32 0-44.2l84.6-84.6c11.7-11.7 27.6-18.3 44.1-18.3h299.6v-62.5h125v62.5h328.1z" />
  </svg>
