<svg height="1000" width="1125" xmlns="http://www.w3.org/2000/svg"><path d="M562.5 0C426.6 0 316.4 110.2 316.4 246.1c0 109.9 160.8 310.2 222.5 382.8 12.4 14.8 34.8 14.8 47.2 0C647.8 556.3 808.6 356 808.6 246.1 808.6 110.2 698.4 0 562.5 0zm0 328.1c-45.3 0 -82 -36.7 -82 -82s36.7 -82 82 -82 82 36.7 82 82 -36.7 82 -82 82zM39.3 421.8A62.5 -62.5 0 0 1 0 479.8v488.9c0 22.1 22.3 37.2 42.9 29L312.5 875V419.8C295.2 388.6 281.1 358.2 271 329.1L39.3 421.8zm523.2 280.7c-27.5 0 -53.5 -12.1 -71.3 -33.1C452.8 624 412 572.4 375 519.5V875l375 125V519.5c-37 52.9 -77.8 104.6 -116.2 149.9 -17.8 21 -43.8 33.1 -71.3 33.1zm519.6 -387.7L812.5 437.5V1000l273.2 -109.3a62.5 -62.5 0 0 1 39.3 -58V343.8c0 -22.1 -22.3 -37.2 -42.9 -29z"/></svg>