<svg height="1000" width="1000" xmlns="http://www.w3.org/2000/svg"><path d="M990.8 165.4L906.3 80.8C894.5 69.1 878.6 62.5 862.1 62.5H562.5V31.3C562.5 14 548.5 0 531.3 0h-62.5c-17.3 0 -31.3 14 -31.3 31.3v31.2H109.4c-25.9 0 -46.9 21 -46.9 46.9v156.2c0 25.9 21 46.9 46.9 46.9h752.7c16.5 0 32.4 -6.6 44.2 -18.3l84.5 -84.6c12.2 -12.2 12.2 -32 0 -44.2zM437.5 968.8c0 17.2 14 31.2 31.3 31.2h62.5c17.2 0 31.2 -14 31.2 -31.2V750h-125v218.8zM890.6 437.5H562.5V375h-125v62.5H137.9c-16.5 0 -32.4 6.6 -44.1 18.3L9.2 540.4c-12.2 12.2 -12.2 32 0 44.2l84.6 84.6c11.7 11.7 27.6 18.3 44.1 18.3h752.7c25.9 0 46.9 -21 46.9 -46.9V484.4c0 -25.9 -21 -46.9 -46.9 -46.9z"/></svg>