
  <svg height="1000" width="1125.0" xmlns="http://www.w3.org/2000/svg">
    <path d="m562.5 0c135.9 0 246.1 110.2 246.1 246.1 0 109.9-160.8 310.2-222.5 382.8-12.4 14.8-34.8 14.8-47.2 0-61.7-72.6-222.5-272.9-222.5-382.8 0-135.9 110.2-246.1 246.1-246.1z m-523.2 421.8l231.7-92.7c10.1 29.1 24.2 59.5 41.5 90.7v455.2l-269.6 122.7c-20.6 8.2-42.9-6.9-42.9-29v-488.9c0-26.3 16.3-48.8 39.3-58z m523.2 280.7c27.5 0 53.5-12.1 71.3-33.1 38.4-45.3 79.2-97 116.2-149.9v480.5l-375-125v-355.5c37 52.9 77.8 104.5 116.2 149.9 17.8 21 43.8 33.1 71.3 33.1z m519.6-387.7c20.6-8.2 42.9 6.9 42.9 29v488.9c0 26.3-16.3 48.8-39.3 58l-273.2 109.3v-562.5z" />
  </svg>
