<svg height="1000" width="937.5" xmlns="http://www.w3.org/2000/svg"><path d="M930.1 483.4L820.9 374.2c-14.8 -14.8 -40 -4.3 -40 16.6v46.7h-46.5v-39.1c0 -12.9 -10.6 -23.4 -23.5 -23.4h-78.1c-12.9 0 -23.4 10.5 -23.4 23.4v39.1h-53.9C544.1 387.5 518.9 340 480.1 301.2 370.3 191.4 192.2 191.4 82.4 301.2c-109.7 109.7 -109.7 287.9 0 397.6 109.8 109.8 287.9 109.8 397.7 0 38.8 -38.8 64 -86.3 75.4 -136.3h53.9v39.1c0 12.9 10.5 23.4 23.4 23.4h78.1c12.9 0 23.5 -10.5 23.5 -23.4v-39.1h46.7v46.7c0 20.9 25.2 31.2 40 16.6L930.3 516.6c9 -9.2 9 -24 -.2 -33.2zM391.8 610.5c-60.9 61 -160 61 -220.9 0C110 549.6 110 450.6 170.9 389.6c60.9 -60.9 160 -60.9 220.9 0 60.9 60.8 60.9 160 0 220.9z"/></svg>