<svg height="1000" width="1000" xmlns="http://www.w3.org/2000/svg"><path d="M664.1 0H509.8c-20.9 0 -31.3 25.2 -16.6 40l33 33 -95.1 95.2C387.7 140.8 336.3 125 281.3 125 126 125 0 251 0 406.3s126 281.2 281.3 281.2 281.2 -126 281.2 -281.2c0 -55.1 -15.8 -106.5 -43.2 -149.9l95.2 -95.1 33 33c4.6 4.7 10.7 6.9 16.4 6.9 12.1 0 23.6 -9.4 23.6 -23.5V23.4C687.5 10.5 677 0 664.1 0zM281.3 562.5C195.1 562.5 125 492.4 125 406.3S195.1 250 281.3 250s156.2 70.1 156.2 156.3S367.4 562.5 281.3 562.5zM976.6 312.3H822.3c-20.9 0 -31.3 25.2 -16.6 40l33 33.1 -95.1 95.1C708 458.2 667.4 443.6 623.4 438.9c-4.1 42.5 -16 84.5 -35.9 123.6 2.1 0 4.3 -.2 6.3 -.2 86.1 0 156.2 70.1 156.2 156.3S679.9 874.8 593.8 874.8 437.5 804.7 437.5 718.6c0 -2.2 0 -4.3 .2 -6.3 -39.1 19.9 -81.1 32 -123.6 35.9C328.9 889.8 448.4 1000 593.8 1000 749 1000 875 874 875 718.8c0 -55.1 -15.8 -106.5 -43.2 -149.9L927 473.8l33 33c4.6 4.7 10.5 6.9 16.4 6.9 12.1 0 23.6 -9.4 23.6 -23.5V335.9c0 -13 -10.5 -23.6 -23.4 -23.6z"/></svg>