<svg height="1000" width="750" xmlns="http://www.w3.org/2000/svg"><path d="M726.6 125H572.3c-20.9 0 -31.3 25.2 -16.6 40l33 33 -34.2 34.2L527 204.7c-9.2 -9.2 -24.1 -9.2 -33.2 0l-55.3 55.1c-9.2 9.1 -9.2 24 0 33.2l27.5 27.5 -35.1 35.2C387.5 328.3 336.1 312.5 281.1 312.5 126 312.5 0 438.5 0 593.8S126 875 281.3 875 562.5 749 562.5 593.8c0 -55.1 -15.8 -106.5 -43.2 -149.9l35.2 -35.1 27.5 27.5c9.2 9.2 24.1 9.2 33.2 0l55.3 -55.2c9.2 -9.2 9.2 -24.1 0 -33.2L643 320.3l34.1 -34.2 33.1 33c14.8 14.9 40 4.3 40 -16.6V148.4C750 135.5 739.5 125 726.6 125zM281.3 750C195.1 750 125 679.9 125 593.8S195.1 437.5 281.3 437.5s156.2 70.1 156.2 156.3S367.4 750 281.3 750z"/></svg>