
  <svg height="1000" width="750.0" xmlns="http://www.w3.org/2000/svg">
    <path d="m726.6 125c12.9 0 23.4 10.5 23.6 23.4v154.1c0 20.9-25.2 31.5-40 16.6l-33.1-33-34.1 34.2 27.5 27.6c9.2 9.1 9.2 24 0 33.2l-55.3 55.2c-9.1 9.2-24 9.2-33.2 0l-27.5-27.5-35.2 35.1c27.4 43.4 43.2 94.8 43.2 149.9 0 155.2-126 281.2-281.3 281.2s-281.2-126-281.2-281.2 126-281.3 281.1-281.3c55 0 106.4 15.8 149.8 43.2l35.1-35.2-27.5-27.5c-9.2-9.2-9.2-24.1 0-33.2l55.2-55.1c9.2-9.2 24.1-9.2 33.3 0l27.5 27.5 34.2-34.2-33-33c-14.7-14.8-4.3-40 16.6-40h154.3z m-445.3 625c86.1 0 156.2-70.1 156.2-156.2s-70.1-156.3-156.2-156.3-156.3 70.1-156.3 156.3 70.1 156.2 156.3 156.2z" />
  </svg>
