<svg height="1000" width="562.5" xmlns="http://www.w3.org/2000/svg"><path d="M480.1 457.4C441.2 418.6 393.8 393.4 343.8 382v-49.6h39c12.9 0 23.5 -10.5 23.5 -23.4v-78.1c0 -12.9 -10.6 -23.5 -23.5 -23.5h-39V159h46.6c20.9 0 31.3 -25.2 16.6 -40.1L297.9 10C288.7 .8 273.8 .8 264.6 10L155.5 119.1c-14.9 14.9 -4.3 40.1 16.6 40.1h46.7v48.2h-39.1c-12.9 0 -23.4 10.6 -23.4 23.5V309c0 12.9 10.5 23.4 23.4 23.4h39.1V382c-50 11.4 -97.5 36.6 -136.4 75.4 -109.7 109.8 -109.7 287.9 0 397.7 109.8 109.7 287.9 109.7 397.7 0C590 745.3 590 567.2 480.1 457.4zm-88.3 309.4c-60.9 60.9 -160 60.9 -220.9 0 -60.9 -60.9 -60.9 -160 0 -220.9 60.9 -60.9 160 -60.9 220.9 0 60.9 60.7 60.9 160 0 220.9z"/></svg>