
  <svg height="1000" width="1000.0" xmlns="http://www.w3.org/2000/svg">
    <path d="m664.1 0c12.9 0 23.4 10.5 23.4 23.4v154.3c0 14.1-11.5 23.5-23.6 23.5-5.7 0-11.8-2.2-16.4-6.9l-33-33-95.2 95.1c27.4 43.4 43.2 94.8 43.2 149.9 0 155.2-126 281.2-281.2 281.2s-281.3-126-281.3-281.2 126-281.3 281.3-281.3c55 0 106.4 15.8 149.8 43.2l95.1-95.2-33-33c-14.7-14.8-4.3-40 16.6-40h154.3z m-382.8 562.5c86.1 0 156.2-70.1 156.2-156.2s-70.1-156.3-156.2-156.3-156.3 70.1-156.3 156.3 70.1 156.2 156.3 156.2z m695.3-250.2c12.9 0 23.4 10.6 23.4 23.6v154.3c0 14.1-11.5 23.5-23.6 23.5-5.9 0-11.8-2.2-16.4-6.9l-33-33-95.2 95.1c27.4 43.4 43.2 94.8 43.2 149.8 0 155.3-126 281.3-281.2 281.3-145.4 0-264.9-110.2-279.7-251.8 42.5-3.9 84.5-16 123.6-35.9-0.2 2-0.2 4.1-0.2 6.3 0 86.1 70.1 156.2 156.3 156.2s156.2-70.1 156.2-156.2c0-86.2-70.1-156.3-156.2-156.3-2 0-4.2 0.2-6.3 0.2 19.9-39.1 31.8-81.1 35.9-123.6 44 4.7 84.6 19.3 120.2 41.6l95.1-95.1-33-33.1c-14.7-14.8-4.3-40 16.6-40h154.3z" />
  </svg>
