
  <svg height="1000" width="1250.0" xmlns="http://www.w3.org/2000/svg">
    <path d="m626.3 125c877.1 0 680.3 750 309.5 750-77.9 0-151.3-40.4-198.1-109.1l-50.2-73.8c-30.6-44.9-91.8-44.9-122.3 0l-50.3 73.8c-46.8 68.7-120.2 109.1-198.1 109.1-388.9 0-554.9-750 309.5-750z m-266.9 477.3c80.2 0 132.3-50.1 156.4-80.2 10.2-12.8 10.2-31.5 0-44.2-24.1-30.1-76.2-80.2-156.4-80.2s-132.4 50.1-156.4 80.2c-10.2 12.8-10.2 31.4 0 44.2 24 30 76.2 80.2 156.4 80.2z m531.2 0c80.2 0 132.4-50.1 156.4-80.2 10.2-12.8 10.2-31.5 0-44.2-24-30.1-76.2-80.2-156.4-80.2s-132.3 50.1-156.4 80.2c-10.2 12.8-10.2 31.4 0 44.2 24.1 30 76.2 80.2 156.4 80.2z" />
  </svg>
