
  <svg height="1000" width="1000.0" xmlns="http://www.w3.org/2000/svg">
    <path d="m437 255.4c-82.1 12.8-155.9 50-214 104.2l-217.3-310.4c-14.5-20.7 0.3-49.2 25.6-49.2h217.1c22.8 0 42.7 12.1 53.6 30.4z m531.7-255.4c25.3 0 40.1 28.5 25.6 49.2l-217.3 310.4c-58.1-54.2-131.9-91.4-214-104.2l135-225c11.3-18.9 31.6-30.4 53.6-30.4h217.1z m-468.7 312.5c189.8 0 343.8 153.9 343.8 343.8s-154 343.7-343.8 343.7-343.7-153.9-343.7-343.7 153.9-343.8 343.7-343.8z m180.7 307.1c13.3-12.9 6-35.6-12.4-38.2l-102.4-14.9-45.8-92.8c-4.1-8.3-12.1-12.5-20.1-12.5-8 0-16 4.1-20.1 12.5l-45.8 92.8-102.4 14.9c-18.3 2.6-25.7 25.3-12.4 38.2l74.1 72.2-17.5 102c-3.1 18.3 16.1 32.3 32.5 23.6l91.6-48.1 91.6 48.1c16.4 8.7 35.7-5.3 32.5-23.6l-17.5-102z" />
  </svg>
