<svg height="1000" width="1000" xmlns="http://www.w3.org/2000/svg"><path d="M437 255.4L302 30.4A62.5 -62.5 0 0 1 248.4 0H31.3C6 0 -8.8 28.5 5.7 49.2L223 359.6c58.1 -54.2 131.9 -91.4 214 -104.2zM968.7 0H751.6c-22 0 -42.3 11.5 -53.6 30.4l-135 225c82.1 12.8 155.9 50 214 104.2L994.3 49.2C1008.8 28.5 994 0 968.7 0zM500 312.5c-189.8 0 -343.7 153.9 -343.7 343.8S310.2 1000 500 1000 843.8 846.1 843.8 656.3 689.8 312.5 500 312.5zm180.7 307.1l-74.1 72.2 17.5 102c3.2 18.3 -16.1 32.3 -32.5 23.6L500 769.3l-91.6 48.1c-16.4 8.7 -35.6 -5.3 -32.5 -23.6l17.5 -102 -74.1 -72.2C306 606.7 313.4 584 331.7 581.4l102.4 -14.9 45.8 -92.8C484 465.3 492 461.2 500 461.2c8 0 16 4.2 20.1 12.5l45.8 92.8 102.4 14.9c18.4 2.6 25.7 25.3 12.4 38.2z"/></svg>