
  <svg height="1000" width="1000.0" xmlns="http://www.w3.org/2000/svg">
    <path d="m187.5 937.5v-687.5h62.5v-93.7c0-51.8 42-93.8 93.8-93.8h312.5c51.7 0 93.7 42 93.7 93.8v93.7h62.5v687.5h-625z m187.5-750v62.5h250v-62.5h-250z m625 156.3v500c0 51.7-42 93.7-93.7 93.7h-31.3v-687.5h31.3c51.7 0 93.7 42 93.7 93.8z m-875 593.7h-31.2c-51.8 0-93.8-42-93.8-93.7v-500c0-51.8 42-93.8 93.8-93.8h31.2v687.5z m562.5-406.2c0-17.3-14-31.3-31.2-31.3h-93.8v-93.7c0-17.3-14-31.3-31.2-31.3h-62.5c-17.3 0-31.3 14-31.3 31.3v93.7h-93.7c-17.3 0-31.3 14-31.3 31.3v62.5c0 17.2 14 31.2 31.3 31.2h93.7v93.8c0 17.2 14 31.2 31.3 31.2h62.5c17.2 0 31.2-14 31.2-31.2v-93.8h93.8c17.2 0 31.2-14 31.2-31.2v-62.5z" />
  </svg>
