<svg height="1000" width="1000" xmlns="http://www.w3.org/2000/svg"><path d="M187.5 937.5h625V250H750v-93.7c0 -51.8 -42 -93.8 -93.7 -93.8H343.8c-51.8 0 -93.8 42 -93.8 93.8V250h-62.5v687.5zM375 187.5h250V250H375v-62.5zm625 156.3v500c0 51.7 -42 93.7 -93.7 93.7H875V250h31.3c51.7 0 93.7 42 93.7 93.8zM125 937.5H93.8C42 937.5 0 895.5 0 843.8v-500C0 292 42 250 93.8 250H125v687.5zM687.5 531.3v62.5c0 17.2 -14 31.2 -31.2 31.2h-93.8v93.8c0 17.2 -14 31.2 -31.2 31.2h-62.5c-17.3 0 -31.3 -14 -31.3 -31.2V625h-93.7c-17.3 0 -31.3 -14 -31.3 -31.2v-62.5c0 -17.3 14 -31.3 31.3 -31.3h93.7v-93.7c0 -17.3 14 -31.3 31.3 -31.3h62.5c17.2 0 31.2 14 31.2 31.3V500h93.8c17.2 0 31.2 14 31.2 31.3z"/></svg>