
  <svg height="1000" width="968.8" xmlns="http://www.w3.org/2000/svg">
    <path d="m484.4 15.6c267.6 0 484.4 216.8 484.4 484.4s-216.8 484.4-484.4 484.4-484.4-216.8-484.4-484.4 216.8-484.4 484.4-484.4z m-312.5 421.9c0 68.9 56 125 125 125s125-56.1 125-125c0-47.5-26.8-88.3-65.6-109.4 1.3 5.1 3.1 10.2 3.1 15.7 0 34.5-28 62.5-62.5 62.5s-62.5-28-62.5-62.5c0-5.5 1.7-10.6 3.1-15.7-38.9 21.1-65.6 61.9-65.6 109.4z m437.5 343.8c41.4 0 41.4-62.5 0-62.5h-250c-41.4 0-41.4 62.5 0 62.5h250z m62.5-218.8c68.9 0 125-56.1 125-125 0-47.5-26.8-88.3-65.6-109.4 1.3 5.1 3.1 10.2 3.1 15.7 0 34.5-28 62.5-62.5 62.5s-62.5-28-62.5-62.5c0-5.5 1.7-10.6 3.1-15.7-38.9 21.1-65.6 61.9-65.6 109.4 0 68.9 56 125 125 125z" />
  </svg>
