<svg height="1000" width="1250" xmlns="http://www.w3.org/2000/svg"><path d="M1250 255.7v-68.2C1250 153 1222 125 1187.5 125H62.5C28 125 0 153 0 187.5v68.2c36.3 13 62.5 47.3 62.5 88.1s-26.2 75 -62.5 88V625h1250V431.8c-36.3 -13 -62.5 -47.3 -62.5 -88s26.2 -75.1 62.5 -88.1zM437.5 500h-125V250h125v250zm250 0h-125V250h125v250zm250 0h-125V250h125v250zM0 875h125v-52.1c0 -17.3 14 -31.2 31.3 -31.2s31.2 13.9 31.2 31.2V875h250v-52.1c0 -17.3 14 -31.2 31.3 -31.2s31.2 13.9 31.2 31.2V875h250v-52.1c0 -17.3 14 -31.2 31.3 -31.2s31.2 13.9 31.2 31.2V875h250v-52.1c0 -17.3 14 -31.2 31.3 -31.2s31.2 13.9 31.2 31.2V875h125V687.5H0V875z"/></svg>