
  <svg height="1000" width="1250.0" xmlns="http://www.w3.org/2000/svg">
    <path d="m1250 255.7c-36.3 13-62.5 47.3-62.5 88s26.2 75.1 62.5 88.1v193.2h-1250v-193.2c36.3-13 62.5-47.3 62.5-88.1s-26.2-75-62.5-88v-68.2c0-34.5 28-62.5 62.5-62.5h1125c34.5 0 62.5 28 62.5 62.5v68.2z m-812.5 244.3v-250h-125v250h125z m250 0v-250h-125v250h125z m250 0v-250h-125v250h125z m-937.5 375v-187.5h1250v187.5h-125v-52.1c0-17.3-14-31.2-31.2-31.2s-31.3 13.9-31.3 31.2v52.1h-250v-52.1c0-17.3-14-31.2-31.2-31.2s-31.3 13.9-31.3 31.2v52.1h-250v-52.1c0-17.3-14-31.2-31.2-31.2s-31.3 13.9-31.3 31.2v52.1h-250v-52.1c0-17.3-14-31.2-31.2-31.2s-31.3 13.9-31.3 31.2v52.1h-125z" />
  </svg>
