
  <svg height="1000" width="1250.0" xmlns="http://www.w3.org/2000/svg">
    <path d="m281.3 250c17.2 0 31.2 14 31.2 31.3v281.2h-125v-281.2c0-17.3 14-31.3 31.3-31.3h62.5z m187.5 0c17.2 0 31.2 14 31.2 31.3v281.2h-125v-281.2c0-17.3 14-31.3 31.3-31.3h62.5z m375 0c17.2 0 31.2 14 31.2 31.3v281.2h-125v-281.2c0-17.3 14-31.3 31.3-31.3h62.5z m187.5 0c17.2 0 31.2 14 31.2 31.3v281.2h-125v-281.2c0-17.3 14-31.3 31.3-31.3h62.5z m156.2-62.5c-34.5 0-62.5-28-62.5-62.5s62.5-125 62.5-125 62.5 90.5 62.5 125-28 62.5-62.5 62.5z m-187.5 0c-34.5 0-62.5-28-62.5-62.5s62.5-125 62.5-125 62.5 90.5 62.5 125-28 62.5-62.5 62.5z m-187.5 0c-34.5 0-62.5-28-62.5-62.5s62.5-125 62.5-125 62.5 90.5 62.5 125-28 62.5-62.5 62.5z m-187.5 0c-34.5 0-62.5-28-62.5-62.5s62.5-125 62.5-125 62.5 90.5 62.5 125-28 62.5-62.5 62.5z m-187.5 0c-34.5 0-62.5-28-62.5-62.5s62.5-125 62.5-125 62.5 90.5 62.5 125-28 62.5-62.5 62.5z m-187.5 0c-34.5 0-62.5-28-62.5-62.5s62.5-125 62.5-125 62.5 90.5 62.5 125-28 62.5-62.5 62.5z m-187.5 0c-34.5 0-62.5-28-62.5-62.5s62.5-125 62.5-125 62.5 90.5 62.5 125-28 62.5-62.5 62.5z m1062.5 375v-281.2c0-17.3 14-31.3 31.3-31.3h62.5c17.2 0 31.2 14 31.2 31.3v281.2c0 103.6-83.9 187.5-187.5 187.5h-375v125h343.8c17.2 0 31.2 14 31.2 31.3v62.5c0 17.2-14 31.2-31.2 31.2h-812.5c-17.3 0-31.3-14-31.3-31.2v-62.5c0-17.3 14-31.3 31.3-31.3h343.7v-125h-375c-103.6 0-187.5-83.9-187.5-187.5v-281.2c0-17.3 14-31.3 31.3-31.3h62.5c17.2 0 31.2 14 31.2 31.3v281.2c0 34.5 28 62.5 62.5 62.5h375v-343.7c0-17.3 14-31.3 31.3-31.3h62.5c17.2 0 31.2 14 31.2 31.3v343.7h375c34.5 0 62.5-28 62.5-62.5z" />
  </svg>
