<svg height="1000" width="562.5" xmlns="http://www.w3.org/2000/svg"><path d="M562.5 406.3c0 -86.4 -38.9 -163.5 -100 -215.1 4.9 -3.5 9.6 -7.4 14.1 -11.3C524.8 138.5 554.3 84.6 560.9 26 562.7 12.1 551.8 0 537.7 0h-79.1c-11.3 0 -20.9 8 -23.1 19.1 -4.6 24.5 -18.7 47.5 -40.4 66.1C365.2 110.9 324.8 125 281.3 125s-84 -14.1 -114.1 -39.8C145.5 66.6 131.6 43.6 126.8 19.1 124.6 8 115 0 103.9 0H24.8C10.7 0 -.2 12.1 1.6 26c6.6 58.8 35.9 112.7 84.3 154.1 4.5 3.9 9.2 7.6 14.1 11.3C38.9 242.8 0 319.9 0 406.3 0 540 93.6 652.1 218.8 680.5v100.8h-70.4c-12.9 0 -23.4 10.5 -23.4 23.4v78.1c0 12.9 10.5 23.5 23.4 23.5h70.4v70.3c0 12.9 10.5 23.4 23.4 23.4h78.1c12.9 0 23.5 -10.5 23.5 -23.4v-70.3h70.3c12.9 0 23.4 -10.6 23.4 -23.5v-78.1c0 -12.9 -10.5 -23.4 -23.4 -23.4h-70.3V680.5C468.9 652.1 562.5 540 562.5 406.2zm-437.5 0C125 320.1 195.1 250 281.3 250s156.2 70.1 156.2 156.3S367.4 562.5 281.3 562.5 125 492.4 125 406.3z"/></svg>