
  <svg height="1000" width="562.5" xmlns="http://www.w3.org/2000/svg">
    <path d="m562.5 406.3c0 133.7-93.6 245.8-218.7 274.2v100.7h70.3c12.9 0 23.4 10.6 23.4 23.5v78.1c0 12.9-10.5 23.4-23.4 23.4h-70.3v70.4c0 12.9-10.6 23.4-23.5 23.4h-78.1c-12.9 0-23.4-10.5-23.4-23.4v-70.4h-70.4c-12.9 0-23.4-10.5-23.4-23.4v-78.1c0-12.9 10.5-23.5 23.4-23.5h70.4v-100.7c-125.2-28.4-218.8-140.5-218.8-274.2 0-86.4 38.9-163.5 100-214.9-4.9-3.7-9.6-7.4-14.1-11.3-48.4-41.4-77.7-95.3-84.3-154.1-1.8-13.9 9.1-26 23.2-26h79.1c11.1 0 20.7 8 22.9 19.1 4.8 24.5 18.7 47.5 40.4 66.1 30.1 25.7 70.5 39.8 114.1 39.8s83.9-14.1 113.8-39.8c21.7-18.6 35.8-41.6 40.4-66.1 2.2-11.1 11.8-19.1 23.1-19.1h79.1c14.1 0 25 12.1 23.2 26-6.6 58.6-36.1 112.5-84.3 153.9-4.5 3.9-9.2 7.8-14.1 11.3 61.1 51.6 100 128.7 100 215.1z m-437.5 0c0 86.1 70.1 156.2 156.3 156.2s156.2-70.1 156.2-156.2-70.1-156.3-156.2-156.3-156.3 70.1-156.3 156.3z" />
  </svg>
