
  <svg height="1000" width="1000.0" xmlns="http://www.w3.org/2000/svg">
    <path d="m998.7 40.6c-22.7 75.6-67 218.2-119.7 366.6 13.6 4.1 26.1 7.8 36.3 11 12.9 3.9 22.2 15.8 22.2 30 0 5.3-1.3 10.3-3.7 14.7-43.1 82.6-161.5 298.4-278.2 418.8-2 2.1-3.9 4.8-5.9 6.8-68.9 68.9-164 111.5-269 111.5-210.1 0-380.6-170.5-380.6-380.5 0-105 42.5-200.2 111.4-269.1 1.9-1.9 4.7-3.9 6.8-5.8 120.3-117.1 335.9-235.2 418.7-278.4 4.4-2.3 9.4-3.6 14.7-3.6 14.2 0 26.1 9.3 30.1 22.2 3.1 9.9 6.8 22.6 10.9 36.3 148.2-52.7 291-97.1 366.5-119.7 2.9-0.9 6-1.4 9.2-1.4 17.4 0 31.6 14.2 31.6 31.6 0 3.2-0.5 6.2-1.3 9z m-373.8 584.4c0-137.9-112-249.9-250-249.9-137.9 0-249.9 112-249.9 249.9 0 138 112 250 249.9 250 138 0 250-112 250-250 0 0 0 0 0 0z m-250-62.5c0 34.5-28 62.5-62.4 62.5-34.5 0-62.5-28-62.5-62.5 0-34.5 28-62.5 62.5-62.5h0c34.5 0 62.4 28 62.4 62.4 0 0.1 0 0.1 0 0.1v0z m62.5 156.3c0 17.2-14 31.2-31.2 31.2s-31.3-14-31.3-31.3 14-31.2 31.3-31.2c17.2 0.1 31.2 14 31.2 31.3v0z" />
  </svg>
