<svg height="1000" width="687.5" xmlns="http://www.w3.org/2000/svg"><path d="M656.3 375H625c-17.3 0 -31.2 14 -31.2 31.3V500c0 146.1 -126 263.3 -275 248.8C188.9 736.1 93.8 619.4 93.8 488.9v-82.6C93.8 389 79.8 375 62.5 375H31.3C14 375 0 389 0 406.3v78.4c0 175.1 124.9 331.1 296.9 354.9v66.7H187.5c-17.3 0 -31.2 13.9 -31.2 31.2v31.3c0 17.2 13.9 31.2 31.2 31.2H500c17.3 0 31.3 -14 31.3 -31.2v-31.3c0 -17.3 -14 -31.2 -31.3 -31.2H390.6v-66C558 817.3 687.5 673.6 687.5 500v-93.7c0 -17.3 -14 -31.3 -31.2 -31.3zM343.8 687.5c103.5 0 187.5 -83.9 187.5 -187.5H364.6c-11.5 0 -20.8 -7 -20.8 -15.6v-31.3c0 -8.6 9.3 -15.6 20.8 -15.6h166.7V375H364.6c-11.5 0 -20.8 -7 -20.8 -15.6v-31.3c0 -8.6 9.3 -15.6 20.8 -15.6h166.7V250H364.6c-11.5 0 -20.8 -7 -20.8 -15.6v-31.3c0 -8.6 9.3 -15.6 20.8 -15.6h166.7C531.3 83.9 447.3 0 343.8 0S156.3 83.9 156.3 187.5V500c0 103.6 83.9 187.5 187.5 187.5z"/></svg>