<svg height="1000" width="1000" xmlns="http://www.w3.org/2000/svg"><path d="M312.5 625h23.4v31.3c0 17.2 14 31.2 31.3 31.2h78.1c17.3 0 31.3 -14 31.3 -31.2V625H500c34.5 0 62.5 -28 62.5 -62.5V125c0 -34.5 -28 -62.5 -62.5 -62.5V31.3C500 14 486 0 468.8 0h-125c-17.3 0 -31.3 14 -31.3 31.3v31.2C278 62.5 250 90.5 250 125v437.5c0 34.5 28 62.5 62.5 62.5zm593.8 250h-2.6C963.4 808.6 1000 721.1 1000 625 1000 418.2 831.8 250 625 250v125c137.9 0 250 112.1 250 250S762.9 875 625 875H93.8C42 875 0 917 0 968.8 0 986 14 1000 31.3 1000h937.5c17.2 0 31.2 -14 31.2 -31.2C1000 917 958 875 906.3 875zM203.1 812.5h406.3c8.6 0 15.6 -7 15.6 -15.6v-31.3C625 757 618 750 609.4 750H203.1c-8.6 0 -15.6 7 -15.6 15.6v31.3c0 8.6 7 15.6 15.6 15.6z"/></svg>