
  <svg height="1000" width="1250.0" xmlns="http://www.w3.org/2000/svg">
    <path d="m1237.9 894.7c13.7 10.6 16.1 30.3 5.5 43.9l-38.3 49.3c-10.6 13.7-30.3 16.1-43.9 5.5l-1149.1-888.1c-13.7-10.6-16.1-30.3-5.5-43.9l38.3-49.3c10.6-13.7 30.3-16.1 43.9-5.5l348.7 269.5v-88.6c0-103.5 83.9-187.5 187.5-187.5s187.5 84 187.5 187.5h-166.7c-11.5 0-20.8 7-20.8 15.6v31.3c0 8.6 9.3 15.6 20.8 15.6h166.7v62.5h-166.7c-11.5 0-20.8 7-20.8 15.6v31.3c0 8.6 9.3 15.6 20.8 15.6h166.7v62.5h-166.1l80.8 62.5h85.3c0 20.4-4.2 39.6-10.3 58l51.9 40c13.2-30 20.9-63 20.9-98v-93.7c0-17.3 14-31.3 31.2-31.3h31.3c17.3 0 31.2 14 31.2 31.3v93.7c0 56.6-14.1 109.8-38.5 156.9z m-456.6 11.6c17.2 0 31.2 13.9 31.2 31.2v31.3c0 17.2-14 31.2-31.2 31.2h-312.5c-17.3 0-31.3-14-31.3-31.2v-31.3c0-17.3 14-31.2 31.3-31.2h109.3v-66.8c-171.9-23.7-296.8-179.7-296.8-354.8v-13.4l101.6 78.6c24.3 103.9 108 188.2 217.1 198.9 13.6 1.3 26.7 0.4 39.8-0.4l98.4 76.1c-21.2 7.4-43.5 12.6-66.3 15.8v66h109.4z" />
  </svg>
