<svg height="1000" width="1000" xmlns="http://www.w3.org/2000/svg"><path d="M812.5 93.8v812.5c0 51.7 -42 93.7 -93.7 93.7H281.3c-51.8 0 -93.8 -42 -93.8 -93.7V93.8C187.5 42 229.5 0 281.3 0h437.5c51.7 0 93.7 42 93.7 93.8zM1000 207v23.5a11.7 -11.7 0 0 0 -11.7 11.7h-35.2v11.7a11.7 -11.7 0 0 0 -11.7 11.7h-82v-93.7h82a11.7 -11.7 0 0 0 11.7 11.7v11.7h35.2A11.7 -11.7 0 0 0 1000 207zm0 187.5V418a11.7 -11.7 0 0 0 -11.7 11.7h-35.2v11.7a11.7 -11.7 0 0 0 -11.7 11.7h-82v-93.7h82a11.7 -11.7 0 0 0 11.7 11.7v11.7h35.2a11.7 -11.7 0 0 0 11.7 11.7zm0 187.5v23.5a11.7 -11.7 0 0 0 -11.7 11.7h-35.2v11.7a11.7 -11.7 0 0 0 -11.7 11.7h-82v-93.7h82a11.7 -11.7 0 0 0 11.7 11.7v11.7h35.2A11.7 -11.7 0 0 0 1000 582zm0 187.5V793a11.7 -11.7 0 0 0 -11.7 11.7h-35.2v11.7a11.7 -11.7 0 0 0 -11.7 11.7h-82v-93.7h82a11.7 -11.7 0 0 0 11.7 11.7v11.7h35.2a11.7 -11.7 0 0 0 11.7 11.7zM58.6 734.4h82v93.7h-82A11.7 -11.7 0 0 0 46.9 816.4v-11.7H11.7A11.7 -11.7 0 0 0 0 793v-23.5a11.7 -11.7 0 0 0 11.7 -11.7h35.2v-11.7a11.7 -11.7 0 0 0 11.7 -11.7zm0 -187.5h82v93.7h-82A11.7 -11.7 0 0 0 46.9 628.9v-11.7H11.7A11.7 -11.7 0 0 0 0 605.5V582a11.7 -11.7 0 0 0 11.7 -11.7h35.2v-11.7a11.7 -11.7 0 0 0 11.7 -11.7zm0 -187.5h82v93.7h-82A11.7 -11.7 0 0 0 46.9 441.4v-11.7H11.7A11.7 -11.7 0 0 0 0 418v-23.5a11.7 -11.7 0 0 0 11.7 -11.7h35.2v-11.7a11.7 -11.7 0 0 0 11.7 -11.7zm0 -187.5h82v93.7h-82A11.7 -11.7 0 0 0 46.9 253.9v-11.7H11.7A11.7 -11.7 0 0 0 0 230.5V207a11.7 -11.7 0 0 0 11.7 -11.7h35.2v-11.7a11.7 -11.7 0 0 0 11.7 -11.7z"/></svg>