
  <svg height="1000" width="687.5" xmlns="http://www.w3.org/2000/svg">
    <path d="m343.8 687.5c-103.6 0-187.5-83.9-187.5-187.5v-312.5c0-103.6 83.9-187.5 187.5-187.5s187.5 83.9 187.5 187.5v312.5c0 103.6-84 187.5-187.5 187.5z m312.5-312.5c17.2 0 31.2 14 31.2 31.3v93.7c0 173.6-129.5 317.3-296.9 340.3v65.9h109.4c17.3 0 31.3 14 31.3 31.3v31.2c0 17.3-14 31.3-31.3 31.3h-312.5c-17.3 0-31.2-14-31.2-31.3v-31.2c0-17.3 13.9-31.3 31.2-31.3h109.4v-66.7c-172-23.7-296.9-179.7-296.9-354.8v-78.5c0-17.2 14-31.2 31.3-31.2h31.2c17.3 0 31.3 14 31.3 31.2v82.7c0 130.5 95.1 247.2 225 259.9 149 14.5 275-102.7 275-248.8v-93.8c0-17.2 13.9-31.2 31.2-31.2h31.3z" />
  </svg>
