<svg height="1000" width="1250" xmlns="http://www.w3.org/2000/svg"><path d="M1237.9 894.7L929.7 656.5c24.6 -46.9 39.1 -99.8 39.1 -156.5v-93.7c0 -17.3 -14 -31.3 -31.3 -31.3h-31.2C889 375 875 389 875 406.3V500c0 35 -7.7 68 -20.9 98l-51.9 -40c6.1 -18.4 10.3 -37.6 10.3 -58V187.5C812.5 83.9 728.6 0 625 0S437.5 83.9 437.5 187.5v88.6L88.8 6.6C75.2 -4 55.5 -1.6 44.9 12.1L6.6 61.4C-4 75 -1.6 94.7 12.1 105.3l1149.1 888.1c13.6 10.6 33.3 8.2 43.9 -5.5l38.3 -49.3c10.6 -13.6 8.2 -33.3 -5.5 -43.9zm-456.6 11.6H671.9v-66c22.7 -3.1 44.6 -8.9 65.7 -16.2l-97.8 -75.7c-13.1 .8 -26.2 1.7 -39.8 .4C490.9 738.2 407.2 653.8 382.9 549.9L281.3 471.3v13.4c0 175.1 124.9 331.1 296.8 354.9v66.7H468.8c-17.3 0 -31.3 13.9 -31.3 31.2v31.3c0 17.2 14 31.2 31.3 31.2h312.5c17.2 0 31.2 -14 31.2 -31.2v-31.3c0 -17.3 -14 -31.2 -31.2 -31.2z"/></svg>