<svg height="1000" width="1250" xmlns="http://www.w3.org/2000/svg"><path d="M1237.9 894.7L930.2 656.9C954.6 609.8 968.8 556.6 968.8 500v-93.7c0 -17.3 -14 -31.3 -31.3 -31.3h-31.2C889 375 875 389 875 406.3V500c0 35 -7.7 68 -20.9 98l-51.9 -40c6.1 -18.4 10.3 -37.6 10.3 -58h-85.3l-80.8 -62.5h166.1V375H645.8C634.3 375 625 368 625 359.4v-31.3c0 -8.6 9.3 -15.6 20.8 -15.6h166.7V250H645.8C634.3 250 625 243 625 234.4v-31.3c0 -8.6 9.3 -15.6 20.8 -15.6h166.7C812.5 84 728.6 0 625 0S437.5 84 437.5 187.5v88.6L88.8 6.6C75.2 -4 55.5 -1.6 44.9 12.1L6.6 61.4C-4 75 -1.6 94.7 12.1 105.3l1149.1 888.1c13.6 10.6 33.3 8.2 43.9 -5.5l38.3 -49.3c10.6 -13.6 8.2 -33.3 -5.5 -43.9zm-456.6 11.6H671.9v-66c22.8 -3.2 45.1 -8.4 66.3 -15.8l-98.4 -76.1c-13.1 .8 -26.2 1.7 -39.8 .4C490.9 738.1 407.2 653.8 382.9 549.9L281.3 471.3v13.4c0 175.1 124.9 331.1 296.8 354.9v66.7H468.8c-17.3 0 -31.3 13.9 -31.3 31.2v31.3c0 17.2 14 31.2 31.3 31.2h312.5c17.2 0 31.2 -14 31.2 -31.2v-31.3c0 -17.3 -14 -31.2 -31.2 -31.2z"/></svg>