
  <svg height="1000" width="1000.0" xmlns="http://www.w3.org/2000/svg">
    <path d="m312.5 625c-34.5 0-62.5-28-62.5-62.5v-437.5c0-34.5 28-62.5 62.5-62.5v-31.2c0-17.3 14-31.3 31.3-31.3h125c17.2 0 31.2 14 31.2 31.3v31.2c34.5 0 62.5 28 62.5 62.5v437.5c0 34.5-28 62.5-62.5 62.5h-23.4v31.3c0 17.2-14 31.2-31.3 31.2h-78.1c-17.3 0-31.3-14-31.3-31.2v-31.3h-23.4z m593.8 250c51.7 0 93.7 42 93.7 93.8 0 17.2-14 31.2-31.2 31.2h-937.5c-17.3 0-31.3-14-31.3-31.2 0-51.8 42-93.8 93.8-93.8h531.2c137.9 0 250-112.1 250-250s-112.1-250-250-250v-125c206.8 0 375 168.2 375 375 0 96.1-36.6 183.6-96.3 250h2.6z m-703.2-62.5c-8.6 0-15.6-7-15.6-15.6v-31.3c0-8.6 7-15.6 15.6-15.6h406.3c8.6 0 15.6 7 15.6 15.6v31.3c0 8.6-7 15.6-15.6 15.6h-406.3z" />
  </svg>
