
  <svg height="1000" width="1250.0" xmlns="http://www.w3.org/2000/svg">
    <path d="m0 875v-625h1250v625c0 34.5-28 62.5-62.5 62.5h-1125c-34.5 0-62.5-28-62.5-62.5z m875-406.2v62.5c0 17.2 14 31.2 31.3 31.2h187.5c17.2 0 31.2-14 31.2-31.2v-62.5c0-17.3-14-31.3-31.2-31.3h-187.5c-17.3 0-31.3 14-31.3 31.3z m0 234.3v31.3c0 8.6 7 15.6 15.6 15.6h218.8c8.6 0 15.6-7 15.6-15.6v-31.3c0-8.6-7-15.6-15.6-15.6h-218.8c-8.6 0-15.6 7-15.6 15.6z m-750-187.5v31.3c0 8.6 7 15.6 15.6 15.6h593.8c8.6 0 15.6-7 15.6-15.6v-31.3c0-8.6-7-15.6-15.6-15.6h-593.8c-8.6 0-15.6 7-15.6 15.6z m0 187.5v31.3c0 8.6 7 15.6 15.6 15.6h343.8c8.6 0 15.6-7 15.6-15.6v-31.3c0-8.6-7-15.6-15.6-15.6h-343.8c-8.6 0-15.6 7-15.6 15.6z m1093.8-640.6c17.2 0 31.2 14 31.2 31.3v93.7h-1250v-93.7c0-17.3 14-31.3 31.3-31.3h1187.5z" />
  </svg>
