<svg height="1000" width="1250" xmlns="http://www.w3.org/2000/svg"><path d="M1213.2 106.4C1137.4 74.6 1061.6 62.5 985.8 62.5c-240.5 0 -481.1 121.8 -721.6 121.8 -60.4 0 -120.7 -7.7 -181 -26.8A65.48 65.48 0 0 0 63 154.3c-33.6 0 -63 26 -63 62.1v619.7c0 24.6 14.1 48 36.8 57.5 75.8 31.8 151.6 43.9 227.4 43.9 240.5 0 481.1 -121.8 721.7 -121.8 60.3 0 120.6 7.7 180.9 26.8 6.8 2.2 13.6 3.2 20.2 3.2 33.6 0 63 -26 63 -62.1V163.9c0 -24.7 -14.1 -48 -36.8 -57.5zM93.8 258.2c39.2 9.9 80.3 14.8 122.5 17.5 -11.5 57.4 -62 100.6 -122.5 100.6V258.2zm0 556.7v-93.3c67.1 0 121.4 53.2 124.4 119.9C174.2 837.9 133 829.2 93.8 814.9zM625 687.5c-86.3 0 -156.2 -84 -156.2 -187.5 0 -103.6 69.9 -187.5 156.2 -187.5S781.3 396.4 781.3 500 711.3 687.5 625 687.5zm531.3 54.3c-34.3 -8.6 -69.8 -13.4 -106.1 -16.5 11.4 -51 53.7 -89.6 106.1 -96.3v112.8zm0 -461.2c-60.4 -7.6 -107.2 -58 -109.1 -120.2 38.2 4.2 74.4 12.2 109.1 24.7v95.5z"/></svg>