<svg height="1000" width="1250" xmlns="http://www.w3.org/2000/svg"><path d="M1213.2 106.4C1137.4 74.6 1061.6 62.5 985.8 62.5c-240.5 0 -481.1 121.8 -721.6 121.8 -60.4 0 -120.7 -7.7 -181 -26.8A65.48 65.48 0 0 0 63 154.3c-33.6 0 -63 26 -63 62.1v619.7c0 24.6 14.1 48 36.8 57.5 75.8 31.8 151.6 43.9 227.4 43.9 240.5 0 481.1 -121.8 721.7 -121.8 60.3 0 120.6 7.7 180.9 26.8 6.8 2.2 13.6 3.2 20.2 3.2 33.6 0 63 -26 63 -62.1V163.9c0 -24.7 -14.1 -48 -36.8 -57.5zM625 687.5c-86.3 0 -156.2 -84 -156.2 -187.5 0 -103.6 69.9 -187.5 156.2 -187.5S781.3 396.4 781.3 500 711.3 687.5 625 687.5z"/></svg>