<svg height="1000" width="1250" xmlns="http://www.w3.org/2000/svg"><path d="M687.5 562.5h-31.2V390.6c0 -8.6 -7 -15.6 -15.7 -15.6h-26.5c-9.3 0 -18.3 2.7 -26 7.9l-29.9 19.9a15.6 -15.6 0 0 1 -4.4 21.7l17.4 26a15.6 -15.6 0 0 1 21.6 4.3l1 -.6v108.3h-31.3c-8.6 0 -15.6 7 -15.6 15.6v31.3c0 8.6 7 15.6 15.6 15.6h125c8.6 0 15.6 -7 15.6 -15.6v-31.3c0 -8.6 -7 -15.6 -15.6 -15.6zm500 -437.5H62.5C28 125 0 153 0 187.5v625C0 847 28 875 62.5 875h1125c34.5 0 62.5 -28 62.5 -62.5v-625C1250 153 1222 125 1187.5 125zM93.8 781.3v-125c69 0 125 55.9 125 125h-125zm0 -437.5v-125h125c0 69 -56 125 -125 125zm531.2 375c-103.6 0 -187.5 -98 -187.5 -218.8 0 -120.8 83.9 -218.7 187.5 -218.7S812.5 379.2 812.5 500c0 120.8 -84 218.8 -187.5 218.8zm531.3 62.5h-125c0 -69.1 55.9 -125 125 -125v125zm0 -437.5c-69.1 0 -125 -56 -125 -125h125v125z"/></svg>