<svg height="1000" width="1250" xmlns="http://www.w3.org/2000/svg"><path d="M1187.5 125H62.5C28 125 0 153 0 187.5v625C0 847 28 875 62.5 875h1125c34.5 0 62.5 -28 62.5 -62.5v-625C1250 153 1222 125 1187.5 125zM93.8 781.3v-125c69 0 125 55.9 125 125h-125zm0 -437.5v-125h125c0 69 -56 125 -125 125zM625 687.5c-86.3 0 -156.2 -84 -156.2 -187.5 0 -103.6 69.9 -187.5 156.2 -187.5S781.3 396.4 781.3 500 711.3 687.5 625 687.5zm531.3 93.8h-125c0 -69.1 55.9 -125 125 -125v125zm0 -437.5c-69.1 0 -125 -56 -125 -125h125v125z"/></svg>