
  <svg height="1000" width="1250.0" xmlns="http://www.w3.org/2000/svg">
    <path d="m687.5 562.5c8.6 0 15.6 7 15.6 15.6v31.3c0 8.6-7 15.6-15.6 15.6h-125c-8.6 0-15.6-7-15.6-15.6v-31.3c0-8.6 7-15.6 15.6-15.6h31.3v-108.3l-1 0.6c-2.4 1.7-5.4 2.7-8.6 2.7-5.4 0-10.2-2.8-13-7l-17.4-26c-1.6-2.5-2.6-5.5-2.6-8.7 0-5.4 2.8-10.2 7-13l29.9-19.9c7.7-5.2 16.7-7.9 26-7.9h26.5c8.7 0 15.7 7 15.7 15.6v171.9h31.2z m500-437.5c34.5 0 62.5 28 62.5 62.5v625c0 34.5-28 62.5-62.5 62.5h-1125c-34.5 0-62.5-28-62.5-62.5v-625c0-34.5 28-62.5 62.5-62.5h1125z m-1093.7 656.3h125c0-69.1-56-125-125-125v125z m0-437.5c69 0 125-56 125-125h-125v125z m531.2 375c103.5 0 187.5-98 187.5-218.8 0-120.8-83.9-218.7-187.5-218.7s-187.5 97.9-187.5 218.7c0 120.8 83.9 218.8 187.5 218.8z m531.3 62.5v-125c-69.1 0-125 55.9-125 125h125z m0-437.5v-125h-125c0 69 55.9 125 125 125z" />
  </svg>
