<svg height="1000" width="1250" xmlns="http://www.w3.org/2000/svg"><path d="M0 875c0 34.5 28 62.5 62.5 62.5h1125c34.5 0 62.5 -28 62.5 -62.5V250H0v625zM875 468.8c0 -17.3 14 -31.3 31.3 -31.3h187.5c17.2 0 31.2 14 31.2 31.3v62.5c0 17.2 -14 31.2 -31.2 31.2H906.3c-17.3 0 -31.3 -14 -31.3 -31.2v-62.5zm0 234.3c0 -8.6 7 -15.6 15.6 -15.6h218.8c8.6 0 15.6 7 15.6 15.6v31.3c0 8.6 -7 15.6 -15.6 15.6H890.6C882 750 875 743 875 734.4v-31.3zM125 515.6c0 -8.6 7 -15.6 15.6 -15.6h593.8c8.6 0 15.6 7 15.6 15.6v31.3c0 8.6 -7 15.6 -15.6 15.6H140.6c-8.6 0 -15.6 -7 -15.6 -15.6v-31.3zm0 187.5c0 -8.6 7 -15.6 15.6 -15.6h343.8c8.6 0 15.6 7 15.6 15.6v31.3c0 8.6 -7 15.6 -15.6 15.6H140.6C132 750 125 743 125 734.4v-31.3zM1218.8 62.5H31.3C14 62.5 0 76.5 0 93.8v93.7h1250V93.8c0 -17.3 -14 -31.3 -31.2 -31.3z"/></svg>