
  <svg height="1000" width="1250.0" xmlns="http://www.w3.org/2000/svg">
    <path d="m1213.2 106.4c22.7 9.5 36.8 32.8 36.8 57.5v619.7c0 36.1-29.4 62.1-63 62.1-6.6 0-13.4-1-20.2-3.2-60.3-19.1-120.6-26.8-180.9-26.8-240.6 0-481.2 121.8-721.7 121.8-75.8 0-151.6-12.1-227.4-43.9-22.7-9.5-36.8-32.9-36.8-57.5v-619.7c0-36.1 29.4-62.1 63-62.1 6.6 0 13.4 1 20.2 3.2 60.3 19.1 120.6 26.8 181 26.8 240.5 0 481.1-121.8 721.6-121.8 75.8 0 151.6 12.1 227.4 43.9z m-588.2 581.1c86.3 0 156.3-83.9 156.3-187.5 0-103.6-70-187.5-156.3-187.5s-156.2 83.9-156.2 187.5c0 103.5 69.9 187.5 156.2 187.5z" />
  </svg>
