<svg height="1000" width="1250" xmlns="http://www.w3.org/2000/svg"><path d="M1187.5 62.5H62.5C28 62.5 0 90.5 0 125v750c0 34.5 28 62.5 62.5 62.5h1125c34.5 0 62.5 -28 62.5 -62.5V125c0 -34.5 -28 -62.5 -62.5 -62.5zM343.8 640.4v31.5c0 8.6 -7 15.6 -15.7 15.6h-31.2c-8.7 0 -15.6 -7 -15.6 -15.6v-31.8c-22.1 -1.2 -43.5 -8.9 -61.3 -22.2 -7.6 -5.7 -8 -17.1 -1.1 -23.7l22.9 -21.9c5.4 -5.2 13.5 -5.4 19.8 -1.4 7.6 4.7 16.1 7.2 25 7.2h54.9c12.7 0 23.1 -11.5 23.1 -25.7 0 -11.7 -7.1 -21.9 -17.1 -24.9l-87.9 -26.4c-36.3 -10.9 -61.7 -45.7 -61.7 -84.7 0 -47.9 37.2 -86.8 83.3 -88v-31.5c0 -8.7 7 -15.6 15.7 -15.6h31.2c8.6 0 15.6 6.9 15.6 15.6v31.8c22.1 1.1 43.5 8.8 61.3 22.2 7.6 5.7 8 17.1 1.1 23.7l-22.9 21.9c-5.4 5.1 -13.5 5.4 -19.8 1.4 -7.6 -4.8 -16.2 -7.3 -25.1 -7.3h-54.9c-12.7 0 -23 11.6 -23 25.8 0 11.6 7 21.8 17.1 24.8l87.9 26.4c36.3 10.9 61.7 45.8 61.7 84.8 0 47.9 -37.2 86.8 -83.3 88zm468.7 -31c0 8.6 -7 15.6 -15.6 15.6H578.1c-8.6 0 -15.6 -7 -15.6 -15.6v-31.3c0 -8.6 7 -15.6 15.6 -15.6h218.8c8.6 0 15.6 7 15.6 15.6v31.3zm312.5 0c0 8.6 -7 15.6 -15.6 15.6H953.1c-8.6 0 -15.6 -7 -15.6 -15.6v-31.3c0 -8.6 7 -15.6 15.6 -15.6h156.3c8.6 0 15.6 7 15.6 15.6v31.3zm0 -187.5c0 8.6 -7 15.6 -15.6 15.6H578.1c-8.6 0 -15.6 -7 -15.6 -15.6v-31.3c0 -8.6 7 -15.6 15.6 -15.6h531.3c8.6 0 15.6 7 15.6 15.6v31.3z"/></svg>