
  <svg height="1000" width="1250.0" xmlns="http://www.w3.org/2000/svg">
    <path d="m1187.5 125c34.5 0 62.5 28 62.5 62.5v625c0 34.5-28 62.5-62.5 62.5h-1125c-34.5 0-62.5-28-62.5-62.5v-625c0-34.5 28-62.5 62.5-62.5h1125z m-1093.7 656.3h125c0-69.1-56-125-125-125v125z m0-437.5c69 0 125-56 125-125h-125v125z m531.2 343.7c86.3 0 156.3-83.9 156.3-187.5 0-103.6-70-187.5-156.3-187.5s-156.2 83.9-156.2 187.5c0 103.5 69.9 187.5 156.2 187.5z m531.3 93.8v-125c-69.1 0-125 55.9-125 125h125z m0-437.5v-125h-125c0 69 55.9 125 125 125z" />
  </svg>
