
  <svg height="1000" width="1250.0" xmlns="http://www.w3.org/2000/svg">
    <path d="m1213.2 106.4c22.7 9.5 36.8 32.8 36.8 57.5v619.7c0 36.1-29.4 62.1-63 62.1-6.6 0-13.4-1-20.2-3.2-60.3-19.1-120.6-26.8-180.9-26.8-240.6 0-481.2 121.8-721.7 121.8-75.8 0-151.6-12.1-227.4-43.9-22.7-9.5-36.8-32.9-36.8-57.5v-619.7c0-36.1 29.4-62.1 63-62.1 6.6 0 13.4 1 20.2 3.2 60.3 19.1 120.6 26.8 181 26.8 240.5 0 481.1-121.8 721.6-121.8 75.8 0 151.6 12.1 227.4 43.9z m-1119.4 151.8v118.1c60.5 0 111-43.2 122.4-100.6-42.1-2.7-83.2-7.6-122.4-17.5z m0 556.7c39.2 14.3 80.4 23 124.4 26.6-3-66.7-57.3-119.9-124.4-119.9v93.3z m531.2-127.4c86.3 0 156.3-83.9 156.3-187.5 0-103.6-70-187.5-156.3-187.5s-156.2 83.9-156.2 187.5c0 103.5 69.9 187.5 156.2 187.5z m531.3 54.3v-112.8c-52.4 6.7-94.7 45.3-106.1 96.3 36.3 3.1 71.8 7.9 106.1 16.5z m0-461.2v-95.5c-34.7-12.5-70.9-20.5-109.1-24.7 1.9 62.2 48.7 112.6 109.1 120.2z" />
  </svg>
