<svg height="1000" width="1000" xmlns="http://www.w3.org/2000/svg"><path d="M979.6 119C1013.2 85.3 1004 28.6 961.5 7.4a69.7 -69.7 0 0 1 -73 6.5L490.4 312.5h295.7L979.6 119zm-10.8 256H31.3C14 375 0 389 0 406.3v62.5C0 486 14 500 31.3 500h31.2c0 158.2 98 293.2 236.6 348.3 -24.9 32.9 -42.4 71.9 -48.7 114.6 -2.9 19.4 11.7 37.1 31.3 37.1h436.6c19.6 0 34.2 -17.7 31.3 -37.1 -6.2 -42.7 -23.7 -81.7 -48.7 -114.6C839.5 793.2 937.5 658.2 937.5 500h31.3c17.2 0 31.2 -14 31.2 -31.2v-62.5C1000 389 986 375 968.8 375z"/></svg>