
  <svg height="1000" width="1000.0" xmlns="http://www.w3.org/2000/svg">
    <path d="m979.6 119l-193.5 193.5h-295.7l398.1-298.6c11.6-8.7 26.2-13.9 41.9-13.9 11.1 0 21.7 2.7 31.1 7.4 42.5 21.2 51.7 77.9 18.1 111.6z m-10.8 256c17.2 0 31.2 14 31.2 31.3v62.5c0 17.2-14 31.2-31.2 31.2h-31.3c0 158.2-98 293.2-236.6 348.3 25 32.9 42.5 71.9 48.7 114.6 2.9 19.4-11.7 37.1-31.3 37.1h-436.6c-19.6 0-34.2-17.7-31.3-37.1 6.3-42.7 23.8-81.7 48.7-114.6-138.6-55.1-236.6-190.1-236.6-348.3h-31.3c-17.2 0-31.2-14-31.2-31.2v-62.5c0-17.3 14-31.3 31.2-31.3h937.5z" />
  </svg>
