
  <svg height="1000" width="1250.0" xmlns="http://www.w3.org/2000/svg">
    <path d="m0 937.5v-625h250v625c0 34.5-28 62.5-62.5 62.5h-125c-34.5 0-62.5-28-62.5-62.5z m1131.2-375h-699.9c-34.9-34-56.3-72.9-56.3-115.1 0-103.2 81.6-183.1 171.7-240 82-51.7 157.5-112.8 218.7-187.9l15.9-19.5 15.8 19.5c61.2 75.1 136.8 136.2 218.7 187.9 90.1 56.9 171.7 136.8 171.7 240 0 42.2-21.4 81.1-56.3 115.1z m56.3 62.5c34.5 0 62.5 28 62.5 62.5v250c0 34.5-28 62.5-62.5 62.5h-62.5v-125c0-34.5-28-62.5-62.5-62.5s-62.5 28-62.5 62.5v125h-125v-140.6c0-93.8-93.7-140.6-93.7-140.6s-93.8 46.8-93.8 140.6v140.6h-125v-125c0-34.5-28-62.5-62.5-62.5s-62.5 28-62.5 62.5v125h-62.5c-34.5 0-62.5-28-62.5-62.5v-250c0-34.5 28-62.5 62.5-62.5h812.5z m-1062.5-625c0 0 125 62.5 125 187.5v62.5h-250v-62.5c0-125 125-187.5 125-187.5z" />
  </svg>
