
  <svg height="1000" width="1250.0" xmlns="http://www.w3.org/2000/svg">
    <path d="m1001.8 375c135.9 1 247 111.9 248.4 247.9 1.2 139.8-112.5 253.5-252.3 252.1-136-1.2-246.7-112.3-247.7-248.2-0.6-76.8 33.6-145.5 87.5-191.8l-24.4-40.7c-75.6 61.2-113.9 152.2-109.8 244.2 1.2 26.7-20.1 49-46.9 49h-164.4c-27.9 107.8-125.8 187.5-242.2 187.5-140 0-253.1-115-250-255.9 3.1-131.6 109.2-239.2 240.6-243.9 28.1-1 55.3 2.5 80.7 10.2l22.1-40.1c-17.8-27.1-45.6-48.4-93.4-48.4h-109.4c-25.6 0-46.5-20.5-46.9-45.9-0.5-26.4 21.5-47.9 47.9-47.9h108.4c107.4 0 160.5 33 195.1 78.2h300.2l-37.5-62.5h-129.7c-17.2 0-31.2-14.1-31.2-31.3v-31.2c0-17.2 14-31.3 31.2-31.3h156.3c16.4 0 31.6 8.6 40.2 22.7l44.5 74.2 73.3-81.5c8.8-9.7 21.5-15.4 34.7-15.4h88.5c26 0 46.9 20.9 46.9 46.9v62.5c0 26-20.9 46.9-46.9 46.9h-160.9l64.2 107.2c26-9 53.8-13.7 82.9-13.5z m-751.8 406.3c63.9 0 118.9-38.7 143.2-93.8h-158.8c-35.6 0-58.2-38.3-41-69.5l81-147.3c-8-1.4-16.2-1.9-24.4-1.9-86.1 0-156.2 70.1-156.2 156.2s70.1 156.3 156.2 156.3z m906.1-147.7c4.6-90-67-164.9-156.1-164.7-10.5 0-20.9 1-31.1 3.2l95 158c8.8 14.8 4.1 34.2-10.8 42.9l-26.7 16.1c-14.9 8.8-34.2 4.1-43-10.8l-96.5-160.9c-26.7 27.9-43.2 65.8-43.2 107.6 0 89.1 74.9 160.9 164.9 156.1 79.1-4.1 143.2-68.2 147.5-147.5z" />
  </svg>
