<svg height="1000" width="1250" xmlns="http://www.w3.org/2000/svg"><path d="M1001.9 375c-29.1 -.2 -57 4.5 -82.9 13.4L854.7 281.3h160.9c25.9 0 46.9 -21 46.9 -46.9v-62.5c0 -25.9 -21 -46.9 -46.9 -46.9h-88.5a46.9 -46.9 0 0 1 -34.8 15.5l-73.2 81.4 -44.5 -74.1A46.9 -46.9 0 0 1 734.4 125H578.1c-17.2 0 -31.2 14 -31.2 31.3v31.2c0 17.3 14 31.3 31.2 31.3h129.7l37.5 62.5H445.1C410.5 236.2 357.4 203.1 250 203.1H141.7c-26.3 0 -48.4 21.5 -47.9 47.8 .4 25.5 21.2 46 46.8 46H250c47.9 0 75.6 21.3 93.3 48.4l-22 40c-25.4 -7.5 -52.5 -11.2 -80.6 -10.1C109.1 380 3.1 487.5 .1 619.2 -3.1 759.9 110 875 250 875c116.5 0 214.3 -79.7 242.1 -187.5h164.5c26.7 0 48 -22.3 46.8 -49 -4.1 -92 34.3 -182.9 109.8 -244.2l24.4 40.7c-54 46.2 -88.1 115 -87.6 191.7 .9 135.9 111.7 247 247.6 248.3 139.9 1.3 253.6 -112.3 252.4 -252.2C1248.8 486.9 1137.8 376 1001.9 375zM250 781.3C163.8 781.3 93.8 711.2 93.8 625S163.8 468.8 250 468.8c8.3 0 16.4 .6 24.4 1.9L193.3 618c-17.2 31.2 5.5 69.5 41.1 69.5h158.8C369 742.6 313.9 781.3 250 781.3zm758.5 -.3c-90 4.8 -164.7 -67 -164.7 -156 0 -41.7 16.4 -79.7 43.2 -107.7l96.5 160.8c8.8 14.8 28 19.6 42.8 10.8l26.8 -16.1c14.8 -8.9 19.6 -28.1 10.8 -42.9L969 471.8a156.3 -156.3 0 0 0 31 -3c89 0 160.8 74.7 156 164.7 -4.2 79.2 -68.3 143.3 -147.5 147.5z"/></svg>