
  <svg height="1000" width="1000.0" xmlns="http://www.w3.org/2000/svg">
    <path d="m248.2 286.1c-5.2-32.4-20.3-62.3-43.7-86.1-44.1-45.1-71.7-102.5-79.3-164.8-2.2-18.6 12.7-35.2 31.8-35.2h32.1c16 0 29.3 11.5 31.4 27 5.5 39.4 23.4 75.7 51.6 104.4 39.4 40.1 64 90.9 71.5 145.9 2.5 18.6-12.7 35.2-31.9 35.2h-32.2c-15.6 0-28.7-11.3-31.3-26.4z m218.8 0c-5.3-32.4-20.3-62.3-43.8-86.1-44.1-45.1-71.6-102.5-79.3-164.8-2.3-18.6 12.7-35.2 31.9-35.2h32c16 0 29.3 11.5 31.5 27 5.4 39.4 23.4 75.7 51.5 104.4 39.5 40.1 64.1 90.9 71.5 145.9 2.5 18.6-12.7 35.2-31.8 35.2h-32.3c-15.6 0-28.7-11.3-31.2-26.4z m314.3 88.9c120.7 0 218.7 98 218.7 218.8s-98 218.7-218.7 218.7h-31.3c0 103.5-84 187.5-187.5 187.5h-375c-103.5 0-187.5-84-187.5-187.5v-375c0-34.6 27.9-62.5 62.5-62.5h718.8z m0 312.5c51.7 0 93.7-42 93.7-93.7s-42-93.8-93.7-93.8h-31.3v187.5h31.3z" />
  </svg>
