
  <svg height="1000" width="1250.0" xmlns="http://www.w3.org/2000/svg">
    <path d="m1250 515.6c0 17.3-14 31.3-31.2 31.3h-203.2v78.1h109.4c34.5 0 62.5 28 62.5 62.5v250c0 34.5-28 62.5-62.5 62.5h-312.5c-34.5 0-62.5-28-62.5-62.5v-250c0-34.5 28-62.5 62.5-62.5h109.4v-78.1h-593.8v78.1h109.4c34.5 0 62.5 28 62.5 62.5v250c0 34.5-28 62.5-62.5 62.5h-312.5c-34.5 0-62.5-28-62.5-62.5v-250c0-34.5 28-62.5 62.5-62.5h109.4v-78.1h-203.1c-17.3 0-31.3-14-31.3-31.3v-31.2c0-17.3 14-31.3 31.3-31.3h546.8v-78.1h-140.6c-34.5 0-62.5-28-62.5-62.5v-250c0-34.5 28-62.5 62.5-62.5h375c34.5 0 62.5 28 62.5 62.5v250c0 34.5-28 62.5-62.5 62.5h-140.6v78.1h546.9c17.2 0 31.2 14 31.2 31.3v31.2z m-750-265.6h250v-125h-250v125z m-125 625v-125h-187.5v125h187.5z m687.5 0v-125h-187.5v125h187.5z" />
  </svg>
