
  <svg height="1000" width="1125.0" xmlns="http://www.w3.org/2000/svg">
    <path d="m1078.1 125c25.9 0 46.9 21 46.9 46.9v609.4c0 51.7-42 93.7-93.7 93.7h-921.9c-60.4 0-109.4-49-109.4-109.4v-531.2c0-25.9 21-46.9 46.9-46.9h78.1v-15.6c0-25.9 21-46.9 46.9-46.9h906.2z m-968.7 656.3c8.6 0 15.6-7.1 15.6-15.7v-484.3h-31.2v484.3c0 8.6 7 15.7 15.6 15.7z m460.9-31.3c13 0 23.5-10.5 23.5-23.4v-15.7c0-12.9-10.5-23.4-23.5-23.4h-296.9c-12.9 0-23.4 10.5-23.4 23.4v15.7c0 12.9 10.5 23.4 23.4 23.4h296.9z m406.3 0c12.9 0 23.4-10.5 23.4-23.4v-15.7c0-12.9-10.5-23.4-23.4-23.4h-296.9c-13 0-23.4 10.5-23.4 23.4v15.7c0 12.9 10.4 23.4 23.4 23.4h296.9z m-406.3-187.5c13 0 23.5-10.5 23.5-23.4v-15.7c0-12.9-10.5-23.4-23.5-23.4h-296.9c-12.9 0-23.4 10.5-23.4 23.4v15.7c0 12.9 10.5 23.4 23.4 23.4h296.9z m406.3 0c12.9 0 23.4-10.5 23.4-23.4v-15.7c0-12.9-10.5-23.4-23.4-23.4h-296.9c-13 0-23.4 10.5-23.4 23.4v15.7c0 12.9 10.4 23.4 23.4 23.4h296.9z m0-187.5c12.9 0 23.4-10.5 23.4-23.4v-78.2c0-12.9-10.5-23.4-23.4-23.4h-703.2c-12.9 0-23.4 10.5-23.4 23.4v78.2c0 12.9 10.5 23.4 23.4 23.4h703.2z" />
  </svg>
