<svg height="1000" width="1125" xmlns="http://www.w3.org/2000/svg"><path d="M1078.1 125H171.9C146 125 125 146 125 171.9v15.6H46.9C21 187.5 0 208.5 0 234.4v531.2C0 826 49 875 109.4 875h921.9c51.7 0 93.7 -42 93.7 -93.7V171.9C1125 146 1104 125 1078.1 125zM109.4 781.3A15.6 -15.6 0 0 0 93.8 765.6V281.3H125v484.3a15.6 -15.6 0 0 0 -15.6 15.7zM570.3 750H273.4C260.5 750 250 739.5 250 726.6v-15.7c0 -12.9 10.5 -23.4 23.4 -23.4h296.9c13 0 23.5 10.5 23.5 23.4v15.7c0 12.9 -10.5 23.4 -23.5 23.4zm406.3 0H679.7c-13 0 -23.4 -10.5 -23.4 -23.4v-15.7c0 -12.9 10.4 -23.4 23.4 -23.4h296.9c12.9 0 23.4 10.5 23.4 23.4v15.7c0 12.9 -10.5 23.4 -23.4 23.4zM570.3 562.5H273.4C260.5 562.5 250 552 250 539.1v-15.7c0 -12.9 10.5 -23.4 23.4 -23.4h296.9c13 0 23.5 10.5 23.5 23.4v15.7c0 12.9 -10.5 23.4 -23.5 23.4zm406.3 0H679.7c-13 0 -23.4 -10.5 -23.4 -23.4v-15.7c0 -12.9 10.4 -23.4 23.4 -23.4h296.9c12.9 0 23.4 10.5 23.4 23.4v15.7c0 12.9 -10.5 23.4 -23.4 23.4zm0 -187.5H273.4C260.5 375 250 364.5 250 351.6v-78.2c0 -12.9 10.5 -23.4 23.4 -23.4h703.2c12.9 0 23.4 10.5 23.4 23.4v78.2c0 12.9 -10.5 23.4 -23.4 23.4z"/></svg>