<svg height="1000" width="875" xmlns="http://www.w3.org/2000/svg"><path d="M812.5 406.3c34.5 0 62.5 -28 62.5 -62.5v-62.5c0 -34.6 -28 -62.5 -62.5 -62.5h-46.6L867.2 88.3c10.5 -13.7 7.9 -33.4 -5.8 -43.8L811.7 6.4C798 -4.1 778.4 -1.4 767.9 12.2L607.6 218.8H62.5C28 218.8 0 246.7 0 281.3v62.5c0 34.5 28 62.5 62.5 62.5H462L316.5 593.8h-254C28 593.8 0 621.7 0 656.3v62.5c0 34.5 28 62.5 62.5 62.5h108.4L69.6 911.7c-10.5 13.7 -7.9 33.3 5.8 43.8l49.6 38.1c13.7 10.5 33.3 7.8 43.8 -5.8L329.1 781.3h483.4c34.5 0 62.5 -28 62.5 -62.5v-62.5c0 -34.6 -28 -62.5 -62.5 -62.5H474.7L620.3 406.3h192.2z"/></svg>