
  <svg height="1000" width="875.0" xmlns="http://www.w3.org/2000/svg">
    <path d="m812.5 406.3h-192.2l-145.6 187.5h337.8c34.5 0 62.5 27.9 62.5 62.5v62.5c0 34.5-28 62.5-62.5 62.5h-483.4l-160.3 206.5c-10.5 13.6-30.1 16.3-43.8 5.8l-49.6-38.1c-13.7-10.5-16.3-30.1-5.8-43.8l101.3-130.5h-108.4c-34.5 0-62.5-27.9-62.5-62.5v-62.5c0-34.5 28-62.5 62.5-62.5h254l145.5-187.5h-399.5c-34.5 0-62.5-27.9-62.5-62.5v-62.5c0-34.5 28-62.5 62.5-62.5h545.1l160.3-206.5c10.5-13.6 30.1-16.3 43.8-5.8l49.7 38.1c13.7 10.4 16.3 30.1 5.8 43.8l-101.3 130.4h46.6c34.5 0 62.5 28 62.5 62.5v62.5c0 34.6-28 62.5-62.5 62.5z" />
  </svg>
