<svg height="1000" width="750" xmlns="http://www.w3.org/2000/svg"><path d="M656.3 125H500C500 56.1 443.9 0 375 0S250 56.1 250 125H93.8C42 125 0 167 0 218.8v687.5C0 958 42 1000 93.8 1000h562.5c51.7 0 93.7 -42 93.7 -93.7V218.8C750 167 708 125 656.3 125zM375 78.1c26 0 46.9 20.9 46.9 46.9S401 171.9 375 171.9 328.1 151 328.1 125 349 78.1 375 78.1zm187.5 593.8c0 8.6 -7 15.6 -15.6 15.6H437.5v109.4c0 8.6 -7 15.6 -15.6 15.6h-93.8c-8.6 0 -15.6 -7 -15.6 -15.6V687.5H203.1c-8.6 0 -15.6 -7 -15.6 -15.6v-93.8c0 -8.6 7 -15.6 15.6 -15.6h109.4V453.1c0 -8.6 7 -15.6 15.6 -15.6h93.8c8.6 0 15.6 7 15.6 15.6v109.4h109.4c8.6 0 15.6 7 15.6 15.6v93.8zm0 -375c0 8.6 -7 15.6 -15.6 15.6H203.1c-8.6 0 -15.6 -7 -15.6 -15.6v-31.3c0 -8.6 7 -15.6 15.6 -15.6h343.8c8.6 0 15.6 7 15.6 15.6v31.3z"/></svg>