<svg height="1000" width="1000" xmlns="http://www.w3.org/2000/svg"><path d="M937.5 250v-62.5h39.1c12.9 0 23.4 -10.5 23.4 -23.4V85.9C1000 73 989.5 62.5 976.6 62.5h-78.2C885.5 62.5 875 73 875 85.9V125H125V85.9C125 73 114.5 62.5 101.6 62.5H23.4C10.5 62.5 0 73 0 85.9v78.2c0 12.9 10.5 23.4 23.4 23.4h39.1v625H23.4C10.5 812.5 0 823 0 835.9v78.2c0 12.9 10.5 23.4 23.4 23.4h78.2c12.9 0 23.4 -10.5 23.4 -23.4V875h750v39.1c0 12.9 10.5 23.4 23.4 23.4h78.2c12.9 0 23.4 -10.5 23.4 -23.4v-78.2c0 -12.9 -10.5 -23.4 -23.4 -23.4h-39.1V250zm-750 289.1V273.4c0 -12.9 10.5 -23.4 23.4 -23.4h328.2c12.9 0 23.4 10.5 23.4 23.4v265.7c0 12.9 -10.5 23.4 -23.4 23.4H210.9c-12.9 0 -23.4 -10.5 -23.4 -23.4zm625 187.5c0 12.9 -10.5 23.4 -23.4 23.4H460.9c-12.9 0 -23.4 -10.5 -23.4 -23.4V625h140.6C604 625 625 604 625 578.1V437.5h164.1c12.9 0 23.4 10.5 23.4 23.4v265.7z"/></svg>