
  <svg height="1000" width="1125.0" xmlns="http://www.w3.org/2000/svg">
    <path d="m125 625v50.8c0 6.4-5.3 11.7-11.7 11.7h-101.6c-6.4 0-11.7-5.3-11.7-11.7v-101.6c0-6.4 5.3-11.7 11.7-11.7h50.8v-375h-50.8c-6.4 0-11.7-5.3-11.7-11.7v-101.6c0-6.4 5.3-11.7 11.7-11.7h101.6c6.4 0 11.7 5.3 11.7 11.7v50.8h562.5v-50.8c0-6.4 5.3-11.7 11.7-11.7h101.6c6.4 0 11.7 5.3 11.7 11.7v101.6c0 6.4-5.3 11.7-11.7 11.7h-50.8v375h50.8c6.4 0 11.7 5.3 11.7 11.7v101.6c0 6.4-5.3 11.7-11.7 11.7h-101.6c-6.4 0-11.7-5.3-11.7-11.7v-50.8h-562.5z m937.5-125v312.5h50.8c6.4 0 11.7 5.3 11.7 11.7v101.6c0 6.4-5.3 11.7-11.7 11.7h-101.6c-6.4 0-11.7-5.3-11.7-11.7v-50.8h-562.5v50.8c0 6.4-5.3 11.7-11.7 11.7h-101.6c-6.4 0-11.7-5.3-11.7-11.7v-101.6c0-6.4 5.3-11.7 11.7-11.7h50.8v-140.6h265.6v15.6c0 25.9 21 46.9 46.9 46.9h125c25.9 0 46.9-21 46.9-46.9v-125c0-25.9-21-46.9-46.9-46.9h-15.6v-140.6h203.1v-50.8c0-6.4 5.3-11.7 11.7-11.7h101.6c6.4 0 11.7 5.3 11.7 11.7v101.6c0 6.4-5.3 11.7-11.7 11.7h-50.8v62.5z" />
  </svg>
