
  <svg height="1000" width="1000.0" xmlns="http://www.w3.org/2000/svg">
    <path d="m937.5 250v562.5h39.1c12.9 0 23.4 10.5 23.4 23.4v78.2c0 12.9-10.5 23.4-23.4 23.4h-78.2c-12.9 0-23.4-10.5-23.4-23.4v-39.1h-750v39.1c0 12.9-10.5 23.4-23.4 23.4h-78.2c-12.9 0-23.4-10.5-23.4-23.4v-78.2c0-12.9 10.5-23.4 23.4-23.4h39.1v-625h-39.1c-12.9 0-23.4-10.5-23.4-23.4v-78.2c0-12.9 10.5-23.4 23.4-23.4h78.2c12.9 0 23.4 10.5 23.4 23.4v39.1h750v-39.1c0-12.9 10.5-23.4 23.4-23.4h78.2c12.9 0 23.4 10.5 23.4 23.4v78.2c0 12.9-10.5 23.4-23.4 23.4h-39.1v62.5z m-750 289.1c0 12.9 10.5 23.4 23.4 23.4h328.2c12.9 0 23.4-10.5 23.4-23.4v-265.7c0-12.9-10.5-23.4-23.4-23.4h-328.2c-12.9 0-23.4 10.5-23.4 23.4v265.7z m625 187.5v-265.7c0-12.9-10.5-23.4-23.4-23.4h-164.1v140.6c0 25.9-21 46.9-46.9 46.9h-140.6v101.6c0 12.9 10.5 23.4 23.4 23.4h328.2c12.9 0 23.4-10.5 23.4-23.4z" />
  </svg>
