<svg height="1000" width="1125" xmlns="http://www.w3.org/2000/svg"><path d="M125 625v50.8a11.7 -11.7 0 0 0 -11.7 11.7H11.7A11.7 -11.7 0 0 0 0 675.8V574.2a11.7 -11.7 0 0 0 11.7 -11.7h50.8v-375H11.7A11.7 -11.7 0 0 0 0 175.8V74.2A11.7 -11.7 0 0 0 11.7 62.5h101.6A11.7 -11.7 0 0 0 125 74.2V125h562.5V74.2a11.7 -11.7 0 0 0 11.7 -11.7h101.6a11.7 -11.7 0 0 0 11.7 11.7v101.6a11.7 -11.7 0 0 0 -11.7 11.7H750v375h50.8a11.7 -11.7 0 0 0 11.7 11.7v101.6a11.7 -11.7 0 0 0 -11.7 11.7H699.2a11.7 -11.7 0 0 0 -11.7 -11.7V625H125zm937.5 -125v-62.5h50.8a11.7 -11.7 0 0 1 11.7 -11.7V324.2a11.7 -11.7 0 0 1 -11.7 -11.7h-101.6a11.7 -11.7 0 0 1 -11.7 11.7V375H796.9v140.6h15.6c25.9 0 46.9 21 46.9 46.9v125c0 25.9 -21 46.9 -46.9 46.9h-125c-25.9 0 -46.9 -21 -46.9 -46.9v-15.6H375v140.6h-50.8a11.7 -11.7 0 0 1 -11.7 11.7v101.6a11.7 -11.7 0 0 1 11.7 11.7h101.6a11.7 -11.7 0 0 1 11.7 -11.7V875H1000v50.8a11.7 -11.7 0 0 1 11.7 11.7h101.6a11.7 -11.7 0 0 1 11.7 -11.7V824.2a11.7 -11.7 0 0 1 -11.7 -11.7h-50.8V500z"/></svg>