
  <svg height="1000" width="1250.0" xmlns="http://www.w3.org/2000/svg">
    <path d="m1230.1 313.1c10-2.8 19.9 4.7 19.9 15v35.3c0 4.2-1.7 8.2-4.6 11.1l-414.6 419.4c-11.7 11.9-27.7 18.6-44.4 18.6h-536.4c-34.5 0-62.5-28-62.5-62.5v-90.9l-136.2-24.8c-29.7-5.4-51.3-31.3-51.3-61.5v-185.4c0-35.1 28.7-62.5 62.4-62.5 3.8 0 7.6 0.3 11.3 1l270 49.1h109.4v-93.7h-109.4c-17.2 0-31.2-14-31.2-31.3v-31.2c0-17.3 14-31.3 31.2-31.3h312.5c17.3 0 31.3 14 31.3 31.3v31.2c0 17.3-14 31.3-31.3 31.3h-109.3v93.7h111.1c20 0 39.1 4.8 55.9 13.2l98.6 49.3z m-1042.6 250.7v-121.9l-93.7-17.1v122z m885.4 165.4c0-46.1 83.3-166.7 83.3-166.7s83.4 120.6 83.4 166.7-37.3 83.3-83.4 83.3-83.3-37.3-83.3-83.3z" />
  </svg>
