<svg height="1000" width="1250" xmlns="http://www.w3.org/2000/svg"><path d="M1230.1 313.1L812.5 437.5l-98.6 -49.3A125.1 -125.1 0 0 1 658 375H546.9v-93.7h109.4c17.2 0 31.2 -14 31.2 -31.3v-31.2c0 -17.3 -14 -31.3 -31.2 -31.3H343.8c-17.3 0 -31.3 14 -31.3 31.3V250c0 17.3 14 31.3 31.3 31.3h109.3V375H343.8L73.7 325.9a62.3 -62.3 0 0 1 -11.3 -1C28.7 324.9 0 352.3 0 387.4v185.4c0 30.2 21.6 56.1 51.3 61.5l136.2 24.8V750c0 34.5 28 62.5 62.5 62.5h536.4c16.7 0 32.7 -6.7 44.4 -18.6l414.6 -419.4c2.9 -2.9 4.6 -6.9 4.6 -11.1v-35.3c0 -10.3 -9.9 -17.8 -19.9 -15zM187.5 563.8l-93.7 -17v-122l93.7 17.1v121.9zm885.4 165.4c0 46 37.3 83.3 83.3 83.3s83.4 -37.3 83.4 -83.3 -83.3 -166.7 -83.3 -166.7 -83.4 120.6 -83.4 166.7z"/></svg>