
  <svg height="1000" width="1000.0" xmlns="http://www.w3.org/2000/svg">
    <path d="m704.3 119l-42.2-42.1c-3.6-3.7-5.9-8.8-5.9-14.4 0-5.6 2.3-10.7 5.9-14.4l42.2-42.1c7.9-8 20.8-8 28.8 0l42.2 42.1c3.6 3.7 5.9 8.8 5.9 14.4 0 5.6-2.3 10.7-5.9 14.4l-42.2 42.1c-3.7 3.7-8.8 6-14.4 6s-10.7-2.3-14.4-6z m100.6 256c107.6 0 195.1 87.5 195.1 195.1v195.5c0 94.8-92.7 171.9-187.5 171.9-187.6 0-187.6-125-187.6-125v-74c0-14.7 18.4-21.2 27.8-9.8 29.5 36.5 82.8 83.8 159.8 83.8 25.8 0 62.5-21 62.5-46.9v-195.5c0-38.7-31.5-70.1-70.1-70.1-18.7 0-36.3 7.3-49.6 20.5l-47.3 47.4c-36.9 36.8-85.9 57.1-138 57.1h-42.4c21.6 36.9 34.8 79.3 34.8 125 0 137.9-112.1 250-250 250-232.1 0-312.6-187.5-312.4-294.6 0-17.1 20-24.9 28.9-10.1 44.5 74.2 95.9 179.7 283.5 179.7 68.9 0 125-56.1 125-125s-56.1-125-125-125h-64.5c-10.9-0.9-20.8-6.8-25.8-16.7l-31.4-62.8c-10.4-20.9 4.8-45.5 28.1-45.5h62.3c51.7 0 93.8-42.1 93.8-93.8s-42.1-93.7-93.8-93.7c-21.9 0-42.6 7.4-59.1 20.9-10.8 8.9-26.3 8.8-37.5 0.4l-51.1-38.3c-15.8-11.9-16.5-35.1-2.2-48.7 49.1-46.4 117-67.8 187.6-56.2 84.3 13.8 155.1 79.4 174.8 162.5 12.6 52.9 5.5 103.7-15.1 146.9h91.5c18.7 0 36.3-7.3 49.6-20.5l47.3-47.4c36.9-36.8 85.9-57.1 138-57.1z m82.4-243.6c20.6-15.6 50.2-1 50.2 24.9v69.3c0 4.6-1 9.2-3 13.4-5.8 12.3-42.6 73.5-198.7 73.5-153.2 0-228.9-135.5-232.1-141.3-7-12.9-4-29 7.2-38.6 11.1-9.7 27.6-10.1 39.3-1.1 6.9 5.3 170 127.1 337.1-0.1z" />
  </svg>
