
  <svg height="1000" width="1250.0" xmlns="http://www.w3.org/2000/svg">
    <path d="m1187.5 62.5c34.5 0 62.5 28 62.5 62.5v62.5c0 103.6-83.9 187.5-187.5 187.5h-44.6l-180.7 97.2 107.7 215.3h55.1c34.5 0 62.5 28 62.5 62.5v31.3c0 17.2-14 31.2-31.2 31.2h-156.3l-145.5-282.2-292 157.2h125c34.5 0 62.5 28 62.5 62.5v31.3c0 17.2-14 31.2-31.2 31.2h-437.5c-17.3 0-31.3 14-31.3 31.3s14 31.2 31.3 31.2h218.7c34.5 0 62.5 28 62.5 62.5s-28 62.5-62.5 62.5h-211.9c-76.9 0-147.5-52.5-160.7-128.3-9.5-54.9 9.8-105.9 45.3-140.3 46-44.4 77.3-101.8 77.3-165.8v-3.1c0-207.1 167.9-375 375-375h109.4l299.3-171c18.9-10.8 40.2-16.5 62-16.5h40c0 0 0.1 0 0.1 0 34.5 0 65.7 14 88.3 36.6l25.9 25.9h62.5z m-187.5 31.3c-17.3 0-31.2 13.9-31.2 31.2s13.9 31.3 31.2 31.3 31.3-14 31.3-31.3-14-31.2-31.3-31.2z m62.5 187.5c40.7 0 75.1-26.3 88-62.5h-150.5l-231.6 115.8 26.9 53.8 198.9-107.1h68.3z" />
  </svg>
