
  <svg height="1000" width="1000.0" xmlns="http://www.w3.org/2000/svg">
    <path d="m875 125c69 0 125 56 125 125v500c0 69-56 125-125 125h-750c-69 0-125-56-125-125v-500c0-69 56-125 125-125h750z m-562.5 593.8v-93.8h-156.2c-17.3 0-31.3 14-31.3 31.3v31.2c0 17.2 14 31.3 31.3 31.3h156.2z m250-31.3v-31.2c0-17.3-14-31.3-31.2-31.3h-156.3v93.8h156.3c17.2 0 31.2-14.1 31.2-31.3z m312.5-250v-125c0-34.5-28-62.5-62.5-62.5h-625c-34.5 0-62.5 28-62.5 62.5v125c0 34.5 28 62.5 62.5 62.5h625c34.5 0 62.5-28 62.5-62.5z" />
  </svg>
