
  <svg height="1000" width="1000.0" xmlns="http://www.w3.org/2000/svg">
    <path d="m326.2 604.2l171.9 143.2c0.6 6 1.9 11.8 1.9 17.9 0 149.2-101.8 234.7-250 234.7-175.9 0-250-141.4-250-302.2 19.1 13 86.2 67.1 107.9 67.1 12.9 0 23.9-7.4 28.5-19.5 40.3-106.3 111.5-136.2 189.8-141.2z m568.1-604.2c54.9 0 105.7 40.3 105.7 96.8 0 31.5-12.7 61.8-27.1 89.8-220.8 412.1-291.2 500.9-412.5 500.9-15.1 0-29.6-2.4-43.7-5.9l-124.6-103.9c-10.8-23.3-17.1-48.8-17.1-75.6 0-105 41.5-113.3 440.8-470 21.2-19 48.9-32.1 78.5-32.1z" />
  </svg>
