<svg height="1000" width="1000" xmlns="http://www.w3.org/2000/svg"><path d="M326.2 604.2c-78.3 5 -149.5 34.9 -189.8 141.2 -4.6 12.1 -15.6 19.5 -28.5 19.5C86.2 764.9 19.1 710.8 0 697.8 0 858.6 74.1 1000 250 1000c148.2 0 250 -85.5 250 -234.7 0 -6.1 -1.3 -11.9 -1.9 -17.9L326.2 604.2zM894.3 0C864.7 0 837 13.1 815.8 32.1 416.5 388.8 375 397.1 375 502.1c0 26.8 6.3 52.3 17.1 75.6l124.6 103.9c14.1 3.5 28.6 5.9 43.7 5.9 121.3 0 191.7 -88.8 412.5 -500.9 14.4 -28 27.1 -58.3 27.1 -89.8C1000 40.3 949.2 0 894.3 0z"/></svg>