<svg height="1000" width="1000" xmlns="http://www.w3.org/2000/svg"><path d="M399 9.8C204.9 47.7 48.4 203.7 10.2 397.3c-72.3 365.2 257.2 637.5 505.4 599 80.5 -12.5 119.9 -106.7 83 -179.1C553.5 728.5 618 625 717.6 625h155.6c70 0 126.6 -57.8 126.8 -127.5C999 189.6 718.9 -52.5 399 9.8zM187.5 625C152.9 625 125 597.1 125 562.5S152.9 500 187.5 500s62.5 27.9 62.5 62.5S222.1 625 187.5 625zM250 375c-34.6 0 -62.5 -27.9 -62.5 -62.5S215.4 250 250 250s62.5 27.9 62.5 62.5S284.6 375 250 375zM500 250c-34.6 0 -62.5 -27.9 -62.5 -62.5S465.4 125 500 125s62.5 27.9 62.5 62.5S534.6 250 500 250zm250 125c-34.6 0 -62.5 -27.9 -62.5 -62.5S715.4 250 750 250s62.5 27.9 62.5 62.5S784.6 375 750 375z"/></svg>