
  <svg height="1000" width="1000.0" xmlns="http://www.w3.org/2000/svg">
    <path d="m399 9.8c319.9-62.3 600 179.8 601 487.7-0.2 69.7-56.8 127.5-126.8 127.5h-155.6c-99.6 0-164.1 103.5-119 192.2 36.9 72.4-2.5 166.6-83 179.1-248.2 38.5-577.7-233.8-505.4-599 38.2-193.6 194.7-349.6 388.8-387.5z m-211.5 615.2c34.6 0 62.5-27.9 62.5-62.5s-27.9-62.5-62.5-62.5-62.5 27.9-62.5 62.5 27.9 62.5 62.5 62.5z m62.5-250c34.6 0 62.5-27.9 62.5-62.5s-27.9-62.5-62.5-62.5-62.5 27.9-62.5 62.5 27.9 62.5 62.5 62.5z m250-125c34.6 0 62.5-27.9 62.5-62.5s-27.9-62.5-62.5-62.5-62.5 27.9-62.5 62.5 27.9 62.5 62.5 62.5z m250 125c34.6 0 62.5-27.9 62.5-62.5s-27.9-62.5-62.5-62.5-62.5 27.9-62.5 62.5 27.9 62.5 62.5 62.5z" />
  </svg>
