
  <svg height="1000" width="1250.0" xmlns="http://www.w3.org/2000/svg">
    <path d="m281.3 500c-17.2 0-31.3-14.1-31.3-31.2v-437.5c0-17.2 14.1-31.3 31.3-31.3h218.7v250l125-62.5 125 62.5v-250h218.8c17.1 0 31.2 14.1 31.2 31.3v437.5c0 17.1-14.1 31.2-31.2 31.2h-687.5z m937.5 250h-93.8v125h93.8c17.1 0 31.2 14.1 31.2 31.3v62.5c0 17.1-14.1 31.2-31.2 31.2h-1187.5c-17.2 0-31.3-14.1-31.3-31.2v-62.5c0-17.2 14.1-31.3 31.3-31.3h93.7v-125h-93.7c-17.2 0-31.3-14.1-31.3-31.2v-62.5c0-17.2 14.1-31.3 31.3-31.3h1187.5c17.1 0 31.2 14.1 31.2 31.3v62.5c0 17.1-14.1 31.2-31.2 31.2z m-656.3 125v-125h-312.5v125h312.5z m437.5 0v-125h-312.5v125h312.5z" />
  </svg>
