<svg height="1000" width="1250" xmlns="http://www.w3.org/2000/svg"><path d="M281.3 500h687.5c17.1 0 31.2 -14.1 31.2 -31.2V31.3C1000 14.1 985.9 0 968.8 0H750v250L625 187.5 500 250V0H281.3C264.1 0 250 14.1 250 31.3v437.5c0 17.1 14.1 31.2 31.3 31.2zm937.5 250c17.1 0 31.2 -14.1 31.2 -31.2v-62.5c0 -17.2 -14.1 -31.3 -31.2 -31.3H31.3C14.1 625 0 639.1 0 656.3v62.5C0 735.9 14.1 750 31.3 750H125v125H31.3C14.1 875 0 889.1 0 906.3v62.5c0 17.1 14.1 31.2 31.3 31.2h1187.5c17.1 0 31.2 -14.1 31.2 -31.2v-62.5c0 -17.2 -14.1 -31.3 -31.2 -31.3H1125V750h93.8zM562.5 875H250V750h312.5v125zm437.5 0H687.5V750H1000v125z"/></svg>