
  <svg height="1000" width="875.0" xmlns="http://www.w3.org/2000/svg">
    <path d="m84.5 910.4c-114.2-117.7-112-307.6 2.7-424.9l409.7-419.1c86.5-88.5 227.2-88.5 313.8 0 85.7 87.7 85.8 229.2 0 317l-357.2 364.9c-58.3 59.6-153.5 58.8-210.9-2-55.2-58.5-53.4-151.3 2.9-208.8l280.7-286.8c12.1-12.4 31.9-12.6 44.2-0.5l44.7 43.7c12.3 12.1 12.5 31.9 0.4 44.2l-280.7 286.8c-9.6 9.8-10.2 26.2-1.2 35.7 8.5 9 21.9 9.2 30.6 0.3l357.1-364.9c38.3-39.2 38.3-103 0-142.2-37.5-38.4-97.6-38.4-135.1 0l-409.7 419c-67.9 69.5-68.9 181.9-2.3 250.7 66.4 68.5 173.8 68.6 240.4 0.5l336-343.7c12.1-12.4 31.9-12.6 44.2-0.5l44.7 43.6c12.3 12.1 12.6 31.9 0.5 44.2l-336.1 343.8c-116.3 119-304.5 117.6-419.4-1z" />
  </svg>
