
  <svg height="1000" width="1000.0" xmlns="http://www.w3.org/2000/svg">
    <path d="m999.8 341.8c2.2 18-13.3 33.2-31.4 33.2h-17l-267.2 296.7c1.3 5.3 3.1 10.1 3.1 15.8v250c0 34.6-27.9 62.5-62.5 62.5h-250c-34.6 0-62.5-27.9-62.5-62.5v-250c0-5.7 1.8-10.7 3.1-15.8l-267-296.7h-17c-17.9 0-33.4-15.4-31.2-33.2 17.8-147.5 153.1-258.4 309.2-310-71.1 77-121.9 196.5-121.9 343.2h-54.9l227.8 252.9c4.8-1.1 9.3-2.9 14.6-2.9h93.8v-250h-218.8c0-225 134.6-375 250-375s250 150 250 375h-218.7v250h93.7c5.3 0 9.8 1.8 14.6 2.9l227.8-252.9h-54.9c0-146.7-50.8-266.2-121.9-343.2 156.1 51.4 291.4 162.3 309.2 310z" />
  </svg>
