<svg height="1000" width="1000" xmlns="http://www.w3.org/2000/svg"><path d="M999.8 341.8C982 194.1 846.7 83.2 690.6 31.8c71.1 77 121.9 196.5 121.9 343.2h54.9L639.6 627.9C634.8 626.8 630.3 625 625 625h-93.7V375H750C750 150 615.4 0 500 0S250 150 250 375h218.8v250H375c-5.3 0 -9.8 1.8 -14.6 2.9L132.6 375h54.9c0 -146.7 50.8 -266.2 121.9 -343.2C153.3 83.4 18 194.3 .2 341.8 -2 359.6 13.5 375 31.4 375h17l267 296.7c-1.3 5.1 -3.1 10.1 -3.1 15.8v250c0 34.6 27.9 62.5 62.5 62.5h250c34.6 0 62.5 -27.9 62.5 -62.5v-250c0 -5.7 -1.8 -10.5 -3.1 -15.8L951.4 375h17c18.1 0 33.6 -15.2 31.4 -33.2z"/></svg>