
  <svg height="1000" width="875.0" xmlns="http://www.w3.org/2000/svg">
    <path d="m253.2 343.8c10.3-61 49.9-111.7 104.1-137.6-15 37.3-24.9 84.8-27.8 137.6h-76.3z m0 62.5h76.3c2.9 52.7 12.8 100.2 27.8 137.5-54.2-25.9-93.8-76.6-104.1-137.5z m184.3 153.6c-15-14.5-40.6-67.2-45.8-153.7h91.6c-5.2 86.5-30.8 139.2-45.8 153.7z m-45.8-216.1c5.2-86.5 30.8-139.2 45.8-153.7 15 14.5 40.6 67.2 45.8 153.7h-91.6z m126 200c15-37.3 24.9-84.8 27.8-137.6h76.3c-10.3 61-49.9 111.7-104.1 137.6z m294.8-543.8c34.5 0 62.5 28 62.5 62.5v875c0 34.5-28 62.5-62.5 62.5h-687.5c-69 0-125-56-125-125v-750c0-69 56-125 125-125h687.5z m-156.2 812.5c17.1 0 31.2-14.1 31.2-31.2s-14.1-31.3-31.2-31.3h-437.5c-17.2 0-31.3 14.1-31.3 31.3s14.1 31.2 31.3 31.2h437.5z m-218.8-187.5c138.1 0 250-111.9 250-250s-111.9-250-250-250-250 111.9-250 250 111.9 250 250 250z m80.2-418.8c54.2 25.9 93.8 76.6 104.1 137.6h-76.3c-2.9-52.8-12.8-100.3-27.8-137.6z" />
  </svg>
