<svg height="1000" width="875" xmlns="http://www.w3.org/2000/svg"><path d="M253.2 343.8h76.3c2.9 -52.8 12.8 -100.3 27.8 -137.6 -54.2 25.9 -93.8 76.6 -104.1 137.6zm0 62.5c10.3 60.9 49.9 111.6 104.1 137.5C342.3 506.5 332.4 459 329.5 406.2h-76.3zm184.3 153.6c15 -14.5 40.6 -67.2 45.8 -153.6h-91.6c5.2 86.4 30.8 139.1 45.8 153.6zM391.7 343.8h91.6C478.1 257.3 452.5 204.6 437.5 190.1c-15 14.5 -40.6 67.2 -45.8 153.7zm126 200c54.2 -25.9 93.8 -76.6 104.1 -137.6h-76.3c-2.9 52.8 -12.8 100.3 -27.8 137.6zM812.5 0H125C56 0 0 56 0 125v750c0 69 56 125 125 125h687.5c34.5 0 62.5 -28 62.5 -62.5v-875C875 28 847 0 812.5 0zM656.3 812.5H218.8c-17.2 0 -31.3 -14.1 -31.3 -31.2S201.6 750 218.8 750h437.5c17.1 0 31.2 14.1 31.2 31.3s-14.1 31.2 -31.2 31.2zM437.5 625c-138.1 0 -250 -111.9 -250 -250s111.9 -250 250 -250 250 111.9 250 250 -111.9 250 -250 250zm80.2 -418.8c15 37.3 24.9 84.8 27.8 137.6h76.3C611.5 282.8 571.9 232.1 517.7 206.2z"/></svg>