<svg height="1000" width="875" xmlns="http://www.w3.org/2000/svg"><path d="M250 359.4C250 299.1 299.1 250 359.4 250H625V109.4C625 83.5 604 62.5 578.1 62.5H420.7C399 25.2 358.7 0 312.5 0S226 25.2 204.3 62.5H46.9C21 62.5 0 83.5 0 109.4v656.2c0 25.9 21 46.9 46.9 46.9H250V359.4zM312.5 78.1c25.9 0 46.9 21 46.9 46.9s-21 46.9 -46.9 46.9 -46.9 -21 -46.9 -46.9 21 -46.9 46.9 -46.9zm359.4 484.4H875v390.6c0 25.9 -21 46.9 -46.9 46.9H359.4c-25.9 0 -46.9 -21 -46.9 -46.9V359.4c0 -25.9 21 -46.9 46.9 -46.9H625v203.1c0 25.8 21.1 46.9 46.9 46.9zM875 488.2V500H687.5V312.5h11.8a46.9 -46.9 0 0 0 33.2 13.7L861.3 455a46.9 -46.9 0 0 0 13.7 33.2z"/></svg>