
  <svg height="1000" width="875.0" xmlns="http://www.w3.org/2000/svg">
    <path d="m250 359.4v453.1h-203.1c-25.9 0-46.9-21-46.9-46.9v-656.2c0-25.9 21-46.9 46.9-46.9h157.4c21.7-37.3 62-62.5 108.2-62.5s86.5 25.2 108.2 62.5h157.4c25.9 0 46.9 21 46.9 46.9v140.6h-265.6c-60.3 0-109.4 49.1-109.4 109.4z m62.5-281.3c-25.9 0-46.9 21-46.9 46.9s21 46.9 46.9 46.9 46.9-21 46.9-46.9-21-46.9-46.9-46.9z m359.4 484.4h203.1v390.6c0 25.9-21 46.9-46.9 46.9h-468.7c-25.9 0-46.9-21-46.9-46.9v-593.7c0-25.9 21-46.9 46.9-46.9h265.6v203.1c0 25.8 21.1 46.9 46.9 46.9z m203.1-74.3v11.8h-187.5v-187.5h11.8c13 0 24.7 5.2 33.2 13.7l128.8 128.8c8.5 8.5 13.7 20.2 13.7 33.2z" />
  </svg>
