
  <svg height="1000" width="1000.0" xmlns="http://www.w3.org/2000/svg">
    <path d="m500 15.6c267.6 0 484.4 216.8 484.4 484.4s-216.8 484.4-484.4 484.4-484.4-216.8-484.4-484.4 216.8-484.4 484.4-484.4z m-31.2 640.7v-312.5c0-17.2-14.1-31.3-31.3-31.3h-93.7c-17.2 0-31.3 14.1-31.3 31.3v312.5c0 17.1 14.1 31.2 31.3 31.2h93.7c17.2 0 31.3-14.1 31.3-31.2z m218.7 0v-312.5c0-17.2-14.1-31.3-31.2-31.3h-93.8c-17.2 0-31.2 14.1-31.2 31.3v312.5c0 17.1 14 31.2 31.2 31.2h93.8c17.1 0 31.2-14.1 31.2-31.2z" />
  </svg>
