
  <svg height="1000" width="1000.0" xmlns="http://www.w3.org/2000/svg">
    <path d="m500 437.5c155.1 0 375 239.8 375 391.1 0 68.2-52.4 108.9-140.1 108.9-94.6 0-157.7-49-234.9-49-76.5 0-139.5 49-234.9 49-87.7 0-140.1-40.7-140.1-108.9 0-151.3 219.9-391.1 375-391.1z m-287.7-24.6c20.4 67.6-9.3 133.5-66.1 147.1-56.9 13.6-119.5-30.2-139.8-97.9-20.3-67.7 9.3-133.5 66.2-147.1s119.4 30.2 139.7 97.9z m165.5-40.6c-60.4 15.9-128.2-40-151.3-124.8-23.1-84.8 7.1-166.4 67.6-182.3 60.4-15.9 128.1 39.9 151.2 124.7 23.2 84.8-7.1 166.5-67.5 182.4z m549.6-57.3c56.9 13.6 86.5 79.5 66.2 147.1-20.3 67.7-82.9 111.5-139.8 97.9s-86.5-79.4-66.2-147.1c20.4-67.7 82.9-111.5 139.8-97.9z m-305.2 57.3c-60.4-15.9-90.7-97.6-67.5-182.4 23.1-84.8 90.8-140.6 151.2-124.7 60.5 15.9 90.7 97.5 67.6 182.3-23.1 84.8-90.9 140.7-151.3 124.8z" />
  </svg>
