<svg height="1000" width="1000" xmlns="http://www.w3.org/2000/svg"><path d="M166.5 646.4C70.3 646.4 0 534.8 0 452.1 0 396.9 31.3 338.8 96.8 338.8c96.1 0 166.4 112.2 166.4 194.8 0 55.3 -30.6 112.8 -96.7 112.8zm679.7 207.4c0 72.3 -62.5 83.7 -123.8 83.7 -80.6 0 -145.5 -51.3 -222.4 -51.3 -80.5 0 -149 50.7 -236.2 50.7 -58.3 0 -110 -18.8 -110 -83.1 0 -135 199 -335.6 346.2 -335.6s346.2 201.1 346.2 335.6zM356.4 398C259 398 200.1 281.8 200.1 202.1 200.1 138.3 235 62.5 312.5 62.5c98 0 156.3 116.2 156.3 196 0 63.8 -34.9 139.5 -112.4 139.5zM531.3 258.5c0 -79.8 58.2 -196 156.2 -196 77.5 0 112.4 75.8 112.4 139.6C799.9 281.8 741 398 643.6 398 566.1 398 531.3 322.3 531.3 258.5zM1000 452.1c0 82.7 -70.3 194.3 -166.5 194.3 -66.1 0 -96.7 -57.5 -96.7 -112.8 0 -82.6 70.3 -194.8 166.4 -194.8 65.6 0 96.8 58.1 96.8 113.3z"/></svg>