
  <svg height="1000" width="968.8" xmlns="http://www.w3.org/2000/svg">
    <path d="m484.4 15.6c267.5 0 484.4 216.9 484.4 484.4s-216.9 484.4-484.4 484.4-484.4-216.9-484.4-484.4 216.9-484.4 484.4-484.4z m359.4 484.4c0-176.8-128.5-323.9-296.9-353.6v323.6l252.8 202.2c28-51.2 44.1-109.8 44.1-172.2z m-421.9 353.6v-223.6l-174.4 139.6c48.4 42.6 108.2 72.3 174.4 84z m125-223.6v223.6c66.1-11.7 125.9-41.5 174.4-84.1z m-125-483.6c-168.4 29.7-296.9 176.8-296.9 353.6 0 62.4 16 121 44.1 172.2l252.8-202.2v-323.6z" />
  </svg>
