<svg height="1000" width="1000" xmlns="http://www.w3.org/2000/svg"><path d="M213.8 476.6L476.6 213.8l-86.1 -86.1L270 248.1a15.5 -15.5 0 0 0 -21.9 0l-21.9 -21.9c-6 -6 -6 -15.8 0 -21.9L346.7 83.9 281 18.1c-24.2 -24.2 -63.4 -24.2 -87.6 0L18.1 193.4c-24.1 24.2 -24.2 63.4 0 87.6l195.7 195.6zM972.5 248.5c36.7 -36.6 36.6 -96 0 -132.7L884.1 27.5c-36.6 -36.7 -96 -36.7 -132.7 0l-89.9 89.8 221.1 221.1 89.9 -89.9zm-355.2 -87l-580 580L.6 951.4c-4.9 28.3 19.7 52.9 48.1 48l209.8 -36.8 579.9 -580L617.3 161.5zM981.9 719l-65.7 -65.7L795.7 773.8c-6.1 6 -15.9 6 -21.9 0l-21.9 -21.9c-6 -6.1 -6 -15.9 0 -21.9L872.4 609.5l-86.2 -86.2L523.3 786.1 719 981.8c24.2 24.2 63.4 24.2 87.6 0L981.9 806.6c24.2 -24.2 24.2 -63.4 0 -87.6z"/></svg>