
  <svg height="1000" width="1000.0" xmlns="http://www.w3.org/2000/svg">
    <path d="m972.5 277.5l-90.1 90.1c-9.2 9.2-24 9.2-33.2 0l-216.8-216.8c-9.2-9.2-9.2-24 0-33.2l90.1-90.1c36.5-36.5 95.9-36.5 132.6 0l117.4 117.4c36.7 36.5 36.7 95.9 0 132.6z m-417.4-82.6c9.2-9.2 24-9.2 33.4 0l216.8 216.8c9.2 9.2 9.2 24 0 33.2l-512.9 512.9-237.3 41.6c-32.1 5.5-60-22.3-54.3-54.3l41.4-237.3z m-312.7 469c10.7 10.7 27.9 10.7 38.7 0l300.7-300.8c10.8-10.8 10.8-27.9 0-38.7s-27.9-10.7-38.6 0l-300.8 300.8c-10.8 10.7-10.8 27.9 0 38.7z m-70.5 164.2v-93.7h-70.9l-22.1 126 60.7 60.7 126-22.1v-70.9h-93.7z" />
  </svg>
