
  <svg height="1000" width="1000.0" xmlns="http://www.w3.org/2000/svg">
    <path d="m213.8 476.6l-195.7-195.6c-24.2-24.2-24.1-63.4 0-87.6l175.3-175.3c24.2-24.2 63.4-24.2 87.6 0l65.7 65.8-120.5 120.4c-6 6.1-6 15.9 0 21.9l21.9 21.9c2.8 2.8 6.7 4.6 11 4.6 4.2 0 8.1-1.8 10.9-4.6l120.5-120.4 86.1 86.1z m758.7-228.1l-89.9 89.9-221.1-221.1 89.9-89.8c36.7-36.7 96.1-36.7 132.7 0l88.4 88.3c36.6 36.7 36.7 96.1 0 132.7z m-355.2-87l221.1 221.1-579.9 580-209.8 36.8c-28.4 4.9-53-19.7-48.1-48l36.7-209.9z m364.6 557.5c24.2 24.2 24.2 63.4 0 87.6l-175.3 175.2c-24.2 24.2-63.4 24.2-87.6 0l-195.7-195.7 262.9-262.8 86.2 86.2-120.5 120.5c-6 6-6 15.8 0 21.9l21.9 21.9c6 6 15.8 6 21.9 0l120.5-120.5z" />
  </svg>
