<svg height="1000" width="1000" xmlns="http://www.w3.org/2000/svg"><path d="M972.5 277.5l-90.1 90.1c-9.2 9.2 -24 9.2 -33.2 0L632.4 150.8c-9.2 -9.2 -9.2 -24 0 -33.2l90.1 -90.1C759 -9 818.4 -9 855.1 27.5l117.4 117.4c36.7 36.5 36.7 95.9 0 132.6zM555.1 194.9L42.2 707.8 .8 945.1c-5.7 32 22.2 59.8 54.3 54.3l237.3 -41.6L805.3 444.9c9.2 -9.2 9.2 -24 0 -33.2L588.5 194.9c-9.4 -9.2 -24.2 -9.2 -33.4 0zm-312.7 469c-10.8 -10.8 -10.8 -28 0 -38.7L543.2 324.4c10.7 -10.7 27.9 -10.7 38.6 0s10.8 27.9 0 38.7L281.1 663.9c-10.8 10.7 -28 10.7 -38.7 0zm-70.5 164.2h93.7V899l-126 22.1L78.9 860.4l22.1 -126h70.9v93.7z"/></svg>