<svg height="1000" width="1250" xmlns="http://www.w3.org/2000/svg"><path d="M250 187.5c51.8 0 93.8 -42 93.8 -93.7S301.8 0 250 0s-93.7 42 -93.7 93.8 41.9 93.7 93.7 93.7zm750 0c51.8 0 93.8 -42 93.8 -93.7S1051.8 0 1000 0s-93.7 42 -93.7 93.8 41.9 93.7 93.7 93.7zm245.5 726.8l-85.9 -214.9 -80.3 90.6 -3.9 35.6 54.1 135.1c9.8 24.5 33.2 39.3 58 39.3 7.8 0 15.6 -1.4 23.2 -4.5 32.1 -12.9 47.7 -49.2 34.8 -81.2zm-66.8 -409.8l-36.1 -156.6c-9 -39.1 -36.3 -71.9 -73.3 -87.7 -36.1 -15.7 -76.1 -13.1 -109.5 6.4 -44.4 26.2 -77.6 67.4 -94 116l-22 66.2 -31.3 20V281.3c0 -17.2 -14.1 -31.3 -31.2 -31.3H468.8c-17.2 0 -31.3 14.1 -31.3 31.3v187.5l-31.4 -20L384 382.6c-16.2 -48.8 -49.6 -89.8 -94 -116 -33.6 -19.5 -73.4 -22.1 -109.5 -6.4 -36.9 15.8 -64.3 48.6 -73.3 87.7L71.3 504.5c-9 39.1 1.4 80.5 28.1 110.7l131.3 148.3 19.7 180.8c3.5 31.9 30.5 55.7 62.1 55.7 2.3 0 4.5 -.2 6.8 -.4 34.4 -3.7 59 -34.6 55.3 -68.9L354.9 749.4C352 724 341.4 700.4 324.4 681.1l-84.6 -95.7L274.2 448l13.3 39.9c8 24.4 23.2 45.7 47.9 63.7l99.8 63.4c8.9 5.7 23.6 9 33.6 9.8h312.5c9.9 -.8 24.6 -4.1 33.5 -9.8l99.8 -63.4c24.7 -18 39.9 -39.1 47.9 -63.7L975.8 448l34.4 137.4 -84.6 95.7c-17 19.3 -27.6 42.9 -30.5 68.3l-19.7 181.3c-3.7 34.3 21.1 65.2 55.3 68.9 2.3 .2 4.5 .4 6.8 .4 31.4 0 58.6 -23.6 62.1 -55.7l19.7 -180.8 131.3 -148.3c26.5 -30.2 37.1 -71.6 28.1 -110.7zM90.4 699.4L4.5 914.3c-12.9 32 2.7 68.3 34.8 81.2 32.8 12.9 68.5 -3.3 81.2 -34.8l54.1 -135.1L170.7 790 90.4 699.4z"/></svg>