
  <svg height="1000" width="1125.0" xmlns="http://www.w3.org/2000/svg">
    <path d="m187.5 250c-69 0-125-56-125-125s56-125 125-125 125 56 125 125-56 125-125 125z m0 343.9c0 0.1 0 0.2 0 0.2 0 24.5 10.2 46.6 26.6 62.3l98.4 92.8v188.3c0 34.5-28 62.5-62.5 62.5h-125c-34.5 0-62.5-28-62.5-62.5v-250c-34.5 0-62.5-28-62.5-62.5v-187.5c0-69 56-125 125-125h125c52.7 0 97.7 32.7 116 79-3.6 2.4-7.8 3.9-11 6.9l-140.9 133c-16.4 15.7-26.6 37.8-26.6 62.3v0.2z m750-343.9c-69 0-125-56-125-125s56-125 125-125 125 56 125 125-56 125-125 125z m62.5 62.5c69 0 125 56 125 125v187.5c0 34.5-28 62.5-62.5 62.5v250c0 34.5-28 62.5-62.5 62.5h-125c-34.5 0-62.5-28-62.5-62.5v-188.2l98.4-92.9c16.4-15.8 26.6-38 26.6-62.5 0-24.6-10.2-46.7-26.6-62.5l-140.9-132.9c-3.2-3.1-7.4-4.6-11-7.1 18.3-46.2 63.3-78.9 116-78.9h125z m-132 264.3c4.3 4.4 7 10.5 7 17.1 0 6.7-2.7 12.7-7 17.1l-140.9 132.9c-4.2 4-9.9 6.5-16.2 6.5-12.9 0-23.4-10.5-23.4-23.5v-0.1-70.5h-250v70.5c0 0.1 0 0.1 0 0.1 0 13-10.5 23.5-23.4 23.5-6.3 0-12-2.5-16.2-6.5l-140.9-132.9c-4.3-4.4-7-10.5-7-17.1 0-6.7 2.7-12.7 7-17.1l140.9-132.9c4.2-4 9.9-6.5 16.2-6.5 12.9 0 23.4 10.5 23.4 23.5v0 70.4h250v-70.4c0 0 0 0 0 0 0-13 10.5-23.5 23.4-23.5 6.3 0 12 2.5 16.2 6.5z" />
  </svg>
