
  <svg height="1000" width="1000.0" xmlns="http://www.w3.org/2000/svg">
    <path d="m645.8 513.9h209.9l72.4 75.3c-94.8 170.8-403.4 410.8-818.7 410.8-60.4 0-109.4-49-109.4-109.4s49-109.3 109.4-109.3c276.5 0 319.2-354 433.4-489.9l103 47.3v175.2z m256.1-250.7c60.3 55 98.1 134.2 98.1 222.2v0.3c0 26.7-4.5 52.2-10.9 76.8l-106.8-111.1h-174v-152.8l-145.8-67c43.6-27.4 94.4-44.1 149.1-44.1 39.6 0 77.5 8.4 111.6 23.4 36.1-72.7 16.2-121.1 2.8-141.3-1.8-2.5-2.8-5.6-2.8-8.9 0-4.3 1.7-8.2 4.5-11.1l44.7-44.9c2.9-2.9 6.8-4.7 11.2-4.7 4.9 0 9.3 2.3 12.1 5.9 36.3 45.8 69 140.4 6.2 257.3z" />
  </svg>
