
  <svg height="1000" width="875.0" xmlns="http://www.w3.org/2000/svg">
    <path d="m218.8 437.5c-120.9 0-218.8-97.9-218.8-218.7s97.9-218.8 218.8-218.8 218.7 97.9 218.7 218.8-97.9 218.7-218.7 218.7z m0-312.5c-51.8 0-93.8 42-93.8 93.8s42 93.7 93.8 93.7 93.7-42 93.7-93.7-42-93.8-93.7-93.8z m437.5 437.5c120.8 0 218.7 97.9 218.7 218.8s-97.9 218.7-218.7 218.7-218.8-97.9-218.8-218.7 97.9-218.8 218.8-218.8z m0 312.5c51.7 0 93.7-42 93.7-93.7s-42-93.8-93.7-93.8-93.8 42-93.8 93.8 42 93.7 93.8 93.7z m109.9-874.6l61.7-0.2c37.9-0.2 60.4 42.6 38.5 73.8l-715.2 905.7c-8.5 12.1-22.5 19.9-38.3 19.9l-65.2 0.2c-38.1 0-60.4-42.8-38.5-73.8l718.7-905.7c8.8-12.5 23.1-19.9 38.3-19.9z" />
  </svg>
