<svg height="1000" width="875" xmlns="http://www.w3.org/2000/svg"><path d="M218.8 437.5c120.8 0 218.7 -97.9 218.7 -218.7S339.6 0 218.8 0 0 97.9 0 218.8s97.9 218.7 218.8 218.7zm0 -312.5c51.7 0 93.7 42 93.7 93.8s-42 93.7 -93.7 93.7S125 270.5 125 218.8 167 125 218.8 125zm437.5 437.5c-120.9 0 -218.8 97.9 -218.8 218.8S535.4 1000 656.3 1000 875 902.1 875 781.3 777.1 562.5 656.3 562.5zm0 312.5c-51.8 0 -93.8 -42 -93.8 -93.7s42 -93.8 93.8 -93.8 93.7 42 93.7 93.8S708 875 656.3 875zM766.2 .4l61.7 -.2C865.8 0 888.3 42.8 866.4 74L151.2 979.7a46.8 -46.8 0 0 0 -38.3 19.9l-65.2 .2C9.6 999.8 -12.7 957 9.2 926L727.9 20.3C736.7 7.8 751 .4 766.2 .4z"/></svg>