<svg height="1000" width="750" xmlns="http://www.w3.org/2000/svg"><path d="M213.4 338.4c48.8 -48.8 48.8 -128 0 -176.8 -48.8 -48.8 -128 -48.8 -176.8 0 -48.8 48.8 -48.8 128 0 176.8 48.8 48.8 128 48.8 176.8 0zm500 323.2c-48.8 -48.8 -128 -48.8 -176.8 0 -48.8 48.8 -48.8 128 0 176.8 48.8 48.8 128 48.8 176.8 0 48.8 -48.8 48.8 -128 0 -176.8zm-3.8 -452l-44.2 -44.2C641 141 601.4 141 577 165.4L40.4 702c-24.4 24.4 -24.4 64 0 88.4l44.2 44.2c24.4 24.4 64 24.4 88.4 0L709.6 298c24.4 -24.4 24.4 -64 0 -88.4z"/></svg>