
  <svg height="1000" width="1125.0" xmlns="http://www.w3.org/2000/svg">
    <path d="m375 968.8v-343.8h125v343.8c0 17.1-14.1 31.2-31.2 31.2h-62.5c-17.2 0-31.3-14.1-31.3-31.2z m62.5-531.3c34.6 0 62.5 27.9 62.5 62.5s-27.9 62.5-62.5 62.5h-112.3c-25 0-48.4-9.8-66.2-27.5l-40.8-40.9v157.5l80.4 119.7c8.6 17.2 13.1 36.5 13.1 55.8v110.4c0 34.6-27.9 62.5-62.5 62.5-34.6 0-62.5-27.9-62.5-62.5v-109.4l-56.8-84c-1.8-0.7-3.1-2.3-4.9-3.3l-0.2 196.7c0 34.6-28.1 62.5-62.5 62.5-34.4 0-62.3-27.9-62.3-62.5l0.4-312.5-0.4-187.3c0-33.4 13.1-64.8 36.5-88.5 23.7-23.6 55.1-36.7 88.5-36.7h36.5c33.2 0 64.7 12.9 88.3 36.5l88.3 88.5h99.4z m-312.5-187.5c-51.8 0-93.7-42-93.7-93.7s41.9-93.8 93.7-93.8 93.8 42 93.8 93.8-42 93.7-93.8 93.7z m437.5-187.5v-62.5h375v812.5c0 34.6-27.9 62.5-62.5 62.5s-62.5-27.9-62.5-62.5c0 34.6-27.9 62.5-62.5 62.5-33.4 0-60.2-26.4-61.9-59.4-8.4 41.6-33.4 59.4-63.1 59.4-35.9 0-69.7-32.6-61.3-74.8l60.3-302z m-187.5 0c0-34.6 27.9-62.5 62.5-62.5h62.5v375h-125v-312.5z m687.5-62.5c34.6 0 62.5 27.9 62.5 62.5v906.3c0 17.1-14.1 31.2-31.2 31.2h-62.5c-17.2 0-31.3-14.1-31.3-31.2v-968.8h62.5z" />
  </svg>
