
  <svg height="1000" width="875.0" xmlns="http://www.w3.org/2000/svg">
    <path d="m781.3 62.5c51.7 0 93.7 42 93.7 93.8v687.5c0 51.7-42 93.7-93.7 93.7h-687.5c-51.8 0-93.8-42-93.8-93.7v-687.5c0-51.8 42-93.8 93.8-93.8h687.5z m-597.7 750c312.6 0 566.4-253.3 566.4-566.4 0-13.9-9.7-25.6-22.7-28.5l-127-29.3c-2.1-0.5-4.3-0.8-6.5-0.8-12.1 0-22.5 7.3-27 17.8l-58.6 136.7c-1.5 3.5-2.4 7.4-2.4 11.5 0 9.1 4.2 17.3 10.8 22.7l74 60.5c-43.9 93.6-120.8 171.6-216.4 216.4l-60.5-74c-5.4-6.6-13.6-10.7-22.7-10.7-4.1 0-8 0.8-11.5 2.3l-136.7 58.6c-10.5 4.5-17.8 14.9-17.8 26.9 0 2.3 0.3 4.5 0.8 6.6l29.2 127c3.1 13.2 14.9 22.7 28.6 22.7z" />
  </svg>
