
  <svg height="1000" width="875.0" xmlns="http://www.w3.org/2000/svg">
    <path d="m781.3 62.5c51.7 0 93.7 42 93.7 93.8v687.5c0 51.7-42 93.7-93.7 93.7h-687.5c-51.8 0-93.8-42-93.8-93.7v-687.5c0-51.8 42-93.8 93.8-93.8h687.5z m-32.1 600.3c0.5-2.1 0.8-4.3 0.8-6.6-0.6-11.8-7.7-21.9-17.8-26.9l-136.7-58.6c-3.6-1.4-7.5-2.2-11.5-2.3-9 0.5-17 4.5-22.7 10.7l-60.5 74c-95.2-44.9-171.5-121.2-216.4-216.4l74-60.5c6.2-5.7 10.2-13.7 10.7-22.7-0.1-4-0.9-7.9-2.3-11.5l-58.6-136.7c-5-10.1-15.1-17.2-27-17.8-2.2 0-4.4 0.3-6.5 0.8l-127 29.3c-12.7 3.4-22.2 14.8-22.7 28.5 0 313.1 253.9 566.4 566.4 566.4 13.9 0 25.5-9.7 28.5-22.7z" />
  </svg>
