<svg height="1000" width="750" xmlns="http://www.w3.org/2000/svg"><path d="M190.1 990.2C-63.6 736.5 -63.2 325.6 190.1 72.3c11.1 -11.1 28.4 -12.9 41.5 -4.7l126.6 79.1a33.6 -33.6 0 0 0 13.4 41l-63.3 158.2a33.6 -33.6 0 0 0 -34.5 20.9l-109 -10.9c-41.1 113.8 -40.3 239.2 0 350.7l109 -10.9a33.6 -33.6 0 0 0 34.5 20.9l63.3 158.2a33.6 -33.6 0 0 0 -13.4 41l-126.6 79.1a33.6 -33.6 0 0 0 -41.5 -4.7zM482.7 186.5c23.1 39.1 23.1 87.9 0 127 -7.7 13.1 -25.6 15.6 -36.6 5.1l-11.7 -11.2c-7.6 -7.3 -9.3 -18.8 -4.4 -28.2a62.6 -62.6 0 0 1 0 -58.4c-4.9 -9.4 -3.2 -20.9 4.4 -28.2l11.7 -11.2c11 -10.5 28.9 -8 36.6 5.1zM661.9 8.4c117.5 139.8 117.4 343.5 0 483.2 -8.7 10.4 -24.4 11.3 -34.2 1.9l-11.4 -10.9c-8.9 -8.5 -9.7 -22.5 -1.8 -32 97.1 -116.3 97 -285 0 -401.2 -7.9 -9.5 -7.1 -23.5 1.8 -32L627.7 6.5c9.8 -9.4 25.5 -8.5 34.2 1.9zm-89.7 87.7c70.4 90.5 70.5 217.1 0 307.8 -8.6 11 -24.8 12.2 -34.9 2.5l-11.4 -10.9c-8.6 -8.2 -9.7 -21.7 -2.5 -31.1 51.8 -67.5 51.8 -161.3 0 -228.8 -7.2 -9.4 -6.1 -22.9 2.5 -31.1l11.4 -10.9c10.1 -9.7 26.3 -8.5 34.9 2.5z"/></svg>