<svg height="1000" width="875" xmlns="http://www.w3.org/2000/svg"><path d="M781.3 62.5H93.8C42 62.5 0 104.5 0 156.3v687.5c0 51.7 42 93.7 93.8 93.7h687.5c51.7 0 93.7 -42 93.7 -93.7V156.3c0 -51.8 -42 -93.8 -93.7 -93.8zm-597.7 750c-13.7 0 -25.5 -9.5 -28.6 -22.7l-29.2 -127a29.3 -29.3 0 0 0 17 -33.5l136.7 -58.6a29.3 -29.3 0 0 0 34.2 8.4l60.5 74C469.8 608.3 546.7 530.3 590.6 436.7l-74 -60.5A29.3 -29.3 0 0 0 508.2 342l58.6 -136.7a29.3 -29.3 0 0 0 33.5 -17l127 29.3a29.3 -29.3 0 0 0 22.7 28.5c0 313.1 -253.8 566.4 -566.4 566.4z"/></svg>