
  <svg height="1000" width="1000.0" xmlns="http://www.w3.org/2000/svg">
    <path d="m971.5 706.6c16.8 7.3 28.5 24 28.5 43.5 0 3.6-0.4 7.1-1.2 10.4l-46.8 203.2c-4.8 20.8-23.5 36.3-45.7 36.3h0c-500.2 0-906.3-405.3-906.3-906.3l0 0c0-22.2 15.5-40.8 36.3-45.6l203.2-46.9c3.3-0.8 6.8-1.2 10.4-1.2 19.3 0 36 11.7 43.3 28.3l93.7 218.8c2.4 5.6 3.8 11.9 3.8 18.4 0 14.6-6.7 27.7-17.3 36.3l-118.3 96.9c71.7 152.1 193.9 274.3 346.1 346l96.8-118.3c8.6-10.6 21.7-17.2 36.4-17.2 6.5 0 12.7 1.3 18.3 3.7z" />
  </svg>
