
  <svg height="1000" width="1250.0" xmlns="http://www.w3.org/2000/svg">
    <path d="m523.8 744.9c22.5-10.5 44.4-22.6 65.7-35.3l156.2 120.7c-148.4 106.4-330.1 169.7-526.8 169.7-22 0-40.8-15.2-45.7-36.3l-46.8-203.2c-5.1-22.2 6.2-44.7 27.1-53.7l218.8-93.7c19.1-8.2 41.4-2.7 54.7 13.5z m714.1 149.8c13.7 10.6 16.2 30.3 5.7 43.6l-38.3 49.4c-10.8 13.7-30.3 16-44 5.5l-1149.2-888.1c-13.7-10.6-16-30.1-5.5-43.8l38.3-49.2c10.8-13.7 30.3-16 44-5.5l691.2 534.2c35.3-43.9 66-91.2 89.8-142.2l-118.3-96.8c-16.2-13.1-21.7-35.6-13.5-54.7l93.7-218.8c9-20.7 31.7-32.2 53.7-27.1l203.2 46.8c21.3 4.9 36.3 23.9 36.3 45.8 0 212.6-74.4 407-197.1 561.5z" />
  </svg>
