<svg height="1000" width="1250" xmlns="http://www.w3.org/2000/svg"><path d="M523.8 744.9L427 626.6c-13.3 -16.2 -35.6 -21.7 -54.7 -13.5l-218.8 93.7c-20.9 9 -32.2 31.5 -27.1 53.7l46.8 203.2c4.9 21.1 23.7 36.3 45.7 36.3 196.7 0 378.4 -63.3 526.8 -169.7L589.5 709.6c-21.3 12.7 -43.2 24.8 -65.7 35.3zm714.1 149.8l-310 -239.4C1050.6 500.8 1125 306.4 1125 93.8c0 -21.9 -15 -40.9 -36.3 -45.8L885.5 1.2c-22 -5.1 -44.7 6.4 -53.7 27.1l-93.7 218.8c-8.2 19.1 -2.7 41.6 13.5 54.7l118.3 96.8c-23.8 51 -54.5 98.3 -89.8 142.2L88.9 6.6C75.2 -3.9 55.7 -1.6 44.9 12.1L6.6 61.3C-3.9 75 -1.6 94.5 12.1 105.1l1149.2 888.1c13.7 10.5 33.2 8.2 44 -5.5l38.3 -49.4c10.5 -13.3 8 -33 -5.7 -43.6z"/></svg>