
  <svg height="1000" width="750.0" xmlns="http://www.w3.org/2000/svg">
    <path d="m190.1 990.2c-253.7-253.7-253.3-664.6 0-917.9 11.1-11.1 28.4-12.9 41.5-4.7l126.6 79.1c9.5 6 15.8 16.5 15.8 28.5 0 4.4-0.9 8.6-2.4 12.5l-63.3 158.2c-4.9 12.4-17 21.1-31.2 21.1-1.1 0-2.2 0-3.3-0.2l-109-10.9c-41.1 113.8-40.3 239.2 0 350.7l109-10.9c1.1-0.2 2.2-0.2 3.4-0.2 14.1 0 26.2 8.7 31.1 21.1l63.3 158.2c1.5 3.9 2.4 8.1 2.4 12.5 0 12-6.3 22.5-15.8 28.5l-126.6 79.1c-5.1 3.2-11.2 5.1-17.7 5.1-9.3 0-17.7-3.8-23.8-9.8z m292.6-803.7c23.1 39.1 23.1 87.9 0 127-7.7 13.1-25.6 15.6-36.6 5.1l-11.7-11.2c-7.6-7.3-9.3-18.8-4.4-28.2 4.6-8.7 7.2-18.6 7.2-29.1 0-10.6-2.6-20.6-7.2-29.3-4.9-9.4-3.2-20.9 4.4-28.2l11.7-11.2c11-10.5 28.9-8 36.6 5.1z m179.2-178.1c117.5 139.8 117.4 343.5 0 483.2-8.7 10.4-24.4 11.3-34.2 1.9l-11.4-10.9c-8.9-8.5-9.7-22.5-1.8-32 97.1-116.3 97-285 0-401.2-7.9-9.5-7.1-23.5 1.8-32l11.4-10.9c9.8-9.4 25.5-8.5 34.2 1.9z m-89.7 87.7c70.4 90.5 70.5 217.1 0 307.8-8.6 11-24.8 12.2-34.9 2.5l-11.4-10.9c-8.6-8.2-9.8-21.7-2.5-31.1 51.8-67.5 51.8-161.3 0-228.8-7.3-9.4-6.1-22.9 2.5-31.1l11.4-10.9c10.1-9.7 26.3-8.5 34.9 2.5z" />
  </svg>
