
  <svg height="1000" width="1250.0" xmlns="http://www.w3.org/2000/svg">
    <path d="m1187.5 0c34.5 0 62.5 28 62.5 62.5v625c0 34.5-28 62.5-62.5 62.5h-250v-625h-375v125h-312.5v-187.5c0-34.5 28-62.5 62.5-62.5h875z m-734.4 201.2v-58.6c0-9.7-7.9-17.6-17.6-17.6h-58.5c-9.7 0-17.6 7.9-17.6 17.6v58.6c0 9.7 7.9 17.6 17.6 17.6h58.5c9.7 0 17.6-7.9 17.6-17.6z m687.5 406.2v-58.6c0-9.7-7.9-17.5-17.6-17.5h-58.5c-9.7 0-17.6 7.8-17.6 17.5v58.6c0 9.7 7.9 17.6 17.6 17.6h58.5c9.7 0 17.6-7.9 17.6-17.6z m0-203.1v-58.6c0-9.7-7.9-17.6-17.6-17.6h-58.5c-9.7 0-17.6 7.9-17.6 17.6v58.6c0 9.7 7.9 17.6 17.6 17.6h58.5c9.7 0 17.6-7.9 17.6-17.6z m0-203.1v-58.6c0-9.7-7.9-17.6-17.6-17.6h-58.5c-9.7 0-17.6 7.9-17.6 17.6v58.6c0 9.7 7.9 17.6 17.6 17.6h58.5c9.7 0 17.6-7.9 17.6-17.6z m-328.1 111.3c34.5 0 62.5 28 62.5 62.5v562.5c0 34.5-28 62.5-62.5 62.5h-750c-34.5 0-62.5-28-62.5-62.5v-562.5c0-34.5 28-62.5 62.5-62.5h750z m-625 125c-34.5 0-62.5 28-62.5 62.5s28 62.5 62.5 62.5 62.5-28 62.5-62.5-28-62.5-62.5-62.5z m562.5 437.5v-187.5l-187.5-187.5-250 250-62.5-62.5-125 125v62.5h625z" />
  </svg>
