
  <svg height="1000" width="1125.0" xmlns="http://www.w3.org/2000/svg">
    <path d="m1093.8 437.5c17.1 0 31.2 14.1 31.2 31.3v250c0 17.1-14.1 31.2-31.2 31.2h-95.2c-17.5 23.2-38.1 43.8-61.1 61.1v157.7c0 17.1-14.1 31.2-31.2 31.2h-125c-17.2 0-31.3-14.1-31.3-31.2v-93.8h-250v93.8c0 17.1-14.1 31.2-31.2 31.2h-125c-17.2 0-31.3-14.1-31.3-31.2v-157.7c-75.4-57-125-146.6-125-248.6h-78.1c-65.1 0-117-57-108.4-123.8 7-55.1 56.6-95 112.3-95 6.4 0 11.7 5.3 11.7 11.8v39c0 6.5-5.3 11.7-11.7 11.7h-2c-22.6 0-43.5 15.3-47.8 37.6-5.9 29.8 17 56.2 45.9 56.2h84.4c29.1-142.6 155-250 306.2-250h250c15.4 0 30.1 2.3 44.9 4.5 34.4-40.6 85.2-67 142.6-67h62.5l-36.9 147.5c30.8 28.9 55.8 63.4 73 102.5h57.7z m-250 125c17.1 0 31.2-14.1 31.2-31.2s-14.1-31.3-31.2-31.3-31.3 14.1-31.3 31.3 14.1 31.2 31.3 31.2z m-343.8-375c-32 0-62.9 4.5-92.6 12.1-0.2-4.1-1.2-8-1.2-12.1 0-103.5 84-187.5 187.5-187.5s187.5 84 187.5 187.5c0 0.6-0.1 1-0.1 1.6-10.2-0.8-20.6-1.6-31.1-1.6h-250z" />
  </svg>
