<svg height="1000" width="1125" xmlns="http://www.w3.org/2000/svg"><path d="M1093.8 437.5h-57.7c-17.2 -39.1 -42.2 -73.6 -73 -102.5L1000 187.5h-62.5c-57.4 0 -108.2 26.4 -142.6 67C780.1 252.3 765.4 250 750 250H500C348.8 250 222.9 357.4 193.8 500h-84.4C80.5 500 57.6 473.6 63.5 443.8c4.3 -22.3 25.2 -37.5 47.8 -37.5h2c6.4 0 11.7 -5.3 11.7 -11.8v-39c0 -6.5 -5.3 -11.7 -11.7 -11.7C57.6 343.8 8 383.6 1 438.7c-8.6 66.8 43.3 123.8 108.4 123.8h78.1c0 102 49.6 191.6 125 248.6v157.7c0 17.1 14.1 31.2 31.3 31.2h125c17.1 0 31.2 -14.1 31.2 -31.2V875h250v93.8c0 17.1 14.1 31.2 31.3 31.2h125c17.1 0 31.2 -14.1 31.2 -31.2V811.1c23 -17.3 43.6 -37.9 61.1 -61.1h95.2c17.1 0 31.2 -14.1 31.2 -31.2v-250c0 -17.2 -14.1 -31.3 -31.2 -31.3zm-250 125c-17.2 0 -31.3 -14.1 -31.3 -31.2S826.6 500 843.8 500s31.2 14.1 31.2 31.3 -14.1 31.2 -31.2 31.2zM500 187.5h250c10.5 0 20.9 .8 31.1 1.6 0 -.6 .2 -1 .2 -1.6C781.3 84 697.3 0 593.8 0S406.3 84 406.3 187.5c0 4.1 .9 8 1.1 12.1C437.1 192 468 187.5 500 187.5z"/></svg>