<svg height="1000" width="1125" xmlns="http://www.w3.org/2000/svg"><path d="M218.8 62.5C97.9 62.5 0 160.4 0 281.3v437.5c0 120.8 97.9 218.7 218.8 218.7S437.5 839.6 437.5 718.8V281.3C437.5 160.4 339.6 62.5 218.8 62.5zM312.5 500H125V281.3c0 -51.8 42 -93.8 93.8 -93.8s93.7 42 93.7 93.8V500zm272.9 -58c-6.9 -6.8 -18.4 -6.1 -24.1 1.6 -88.4 122 -78.9 293.1 31.1 403.1 109.9 109.9 281 119.5 403.1 31 7.8 -5.6 8.4 -17.2 1.6 -24L585.4 442zm448.8 -37.1C924.2 294.9 753.1 285.4 631.1 373.8c-7.9 5.7 -8.4 17.2 -1.6 24.1l411.7 411.7c6.8 6.8 18.4 6 24 -1.6 88.5 -122.3 79.1 -293.2 -31 -403.1z"/></svg>