
  <svg height="1000" width="1125.0" xmlns="http://www.w3.org/2000/svg">
    <path d="m218.8 62.5c120.8 0 218.7 97.9 218.7 218.8v437.5c0 120.8-97.9 218.7-218.7 218.7s-218.8-97.9-218.8-218.7v-437.5c0-120.9 97.9-218.8 218.8-218.8z m93.7 437.5v-218.7c0-51.8-42-93.8-93.7-93.8s-93.8 42-93.8 93.8v218.7h187.5z m272.9-58l411.7 411.7c6.8 6.8 6.2 18.4-1.6 24-122.1 88.5-293.2 78.9-403.1-31s-119.5-281.1-31.1-403.1c5.7-7.7 17.2-8.4 24.1-1.6z m448.8-37.1c110.1 109.9 119.5 280.8 31 403.1-5.6 7.6-17.2 8.4-24 1.6l-411.7-411.7c-6.8-6.9-6.3-18.4 1.6-24.1 122-88.4 293.1-78.9 403.1 31.1z" />
  </svg>
