
  <svg height="1000" width="1000.0" xmlns="http://www.w3.org/2000/svg">
    <path d="m310.3 0.3c355.3 33.5 648.5 322.1 689.2 675.2 3.7 31.7-15.4 61.6-46.1 70.1l-111.2 30.8c-15.5-364-263.4-608.4-629.8-619.1l28.9-109.9c8.1-30.7 37.4-50.1 69-47.1z m-114.2 218.7c343.9 3.9 575.9 233 584.3 574.5l-740.3 205.3c-2.7 0.8-5.5 1.2-8.4 1.2-17.5 0-31.7-14.2-31.7-31.7 0-2.8 0.4-5.5 1.1-8.1z m53.9 593.5c34.5 0 62.5-28 62.5-62.5s-28-62.5-62.5-62.5-62.5 28-62.5 62.5 28 62.5 62.5 62.5z m93.8-296.9c34.4 0 62.5-28 62.5-62.5s-28.1-62.5-62.5-62.5-62.5 28-62.5 62.5 28 62.5 62.5 62.5z m203.1 203.2c34.5 0 62.5-28.1 62.5-62.5s-28-62.5-62.5-62.5-62.5 28-62.5 62.5 28 62.5 62.5 62.5z" />
  </svg>
