
  <svg height="1000" width="1250.0" xmlns="http://www.w3.org/2000/svg">
    <path d="m1212.1 715.9c22.3 9.6 37.9 31.7 37.9 57.5v195.4c0 17.2-14 31.2-31.3 31.2h-218.7v-375z m-1212.1 57.5c0-25.8 15.6-47.9 37.9-57.5l212.1-90.9v375h-218.8c-17.2 0-31.2-14-31.2-31.2v-195.4z m907.1-291.6c18.9 11.3 30.4 31.6 30.4 53.6v464.6h-187.5v-187.5c0-69-56-125-125-125s-125 56-125 125v187.5h-187.5v-464.6c0-22.8 12.1-42.7 30.4-53.6l94.6-56.8v-224.6c0-16.5 6.6-32.4 18.3-44.1l147.1-147.1c12.2-12.2 32-12.2 44.2 0l147.1 147.1c11.7 11.7 18.3 27.6 18.3 44.1v224.6z" />
  </svg>
