
  <svg height="1000" width="1250.0" xmlns="http://www.w3.org/2000/svg">
    <path d="m63.4 288.8c-0.5-2.2-0.7-4.5-0.7-6.8 0-5.8 1.6-11.1 4.4-15.7l634.4 490.3-130 227.7c-5.4 9.4-15.5 15.7-27.2 15.7h-127.9c-17.2 0-31.2-14-31.2-31.2 0-3 0.4-5.9 1.2-8.7l95.7-335.1h-200.9l-84.3 112.5c-5.7 7.6-14.8 12.5-25 12.5h-78.2c-17.2 0-31.2-14-31.2-31.2 0-2.6 0.3-5.2 0.9-7.6l61.6-211.2z m1174.5 605.9c7.4 5.7 12.1 14.7 12.1 24.7 0 7.2-2.4 13.9-6.6 19.2l-38.3 49.3c-5.7 7.4-14.7 12.1-24.7 12.1-7.2 0-13.9-2.5-19.2-6.6l-1149.1-888.1c-7.4-5.7-12.1-14.7-12.1-24.7 0-7.2 2.5-13.9 6.6-19.2l38.3-49.3c5.7-7.4 14.7-12.1 24.7-12.1 7.2 0 13.9 2.5 19.2 6.6l369.7 285.7-72.1-252.5c-0.8-2.7-1.2-5.6-1.2-8.6 0-17.2 14-31.2 31.2-31.2h128c10 0 22.1 7.1 27.1 15.7l205.3 359.3h223.2c69 0 187.5 56 187.5 125s-118.5 125-187.5 125h-111.1z" />
  </svg>
