
  <svg height="1000" width="1250.0" xmlns="http://www.w3.org/2000/svg">
    <path d="m1218.8 875c17.2 0 31.2 14 31.2 31.3v62.5c0 17.2-14 31.2-31.2 31.2h-1187.5c-17.3 0-31.3-14-31.3-31.2v-62.5c0-17.3 14-31.3 31.3-31.3h1187.5z m-1131.3-473.3c-12.8-11.6-24.2-28-24.5-45.4l-0.5-198.8c0.4-21.3 20.3-36.5 40.5-31l77.6 21.1c9.8 2.7 17.7 9.9 21.5 19.4l53.9 132.6 199.6 54.4-93.6-320.8c-0.4-21.7 19.8-37.7 40.4-32.1l127.2 34.7c11.1 3 19.8 11.9 22.7 23.2l196.1 374.7 190.4 51.9c51.7 14.1 100.7 39.4 138.3 78.1 42.3 43.5 53.2 79.1 45.7 107.4-7.5 28.3-34.3 53.6-92.3 69.7-51.6 14.4-106.5 11.4-158.2-2.6l-561.7-153.1c-18.7-5.1-35.8-14.5-49.8-27.2z" />
  </svg>
