
  <svg height="1000" width="1250.0" xmlns="http://www.w3.org/2000/svg">
    <path d="m1218.8 875c17.2 0 31.2 14 31.2 31.3v62.5c0 17.2-14 31.2-31.2 31.2h-1187.5c-17.3 0-31.3-14-31.3-31.2v-62.5c0-17.3 14-31.3 31.3-31.3h1187.5z m-1061.5-208.5l-148.8-162c-14.9-17.5-9.5-44.5 10.9-54.9l78.3-39.7c4.8-2.4 10.2-3.8 15.8-3.8 5.6 0 10.9 1.4 15.6 3.7l141.3 71.3 201.6-102.3-305.1-191.7c-15.8-17.3-10.7-45.1 10.1-55.7l128.4-65.1c4.7-2.4 10.1-3.8 15.8-3.8 7.2 0 13.8 2.2 19.4 5.9l427.1 160.3 192.4-97.6c52.2-26.5 110.2-41.9 168.5-38.1 65.5 4.3 99.7 25.2 113.8 53.6 14.1 28.5 10.2 68.7-25.5 124.3-31.9 49.6-78.7 87.4-130.9 113.9l-568.3 288.4c-17.4 8.8-37.1 13.9-57.9 13.9l-255 0.4c-18 0-35.2-7.6-47.5-21z" />
  </svg>
