<svg height="1000" width="1250" xmlns="http://www.w3.org/2000/svg"><path d="M1218.8 875H31.3C14 875 0 889 0 906.3v62.5C0 986 14 1000 31.3 1000h1187.5c17.2 0 31.2 -14 31.2 -31.2v-62.5C1250 889 1236 875 1218.8 875zM87.5 401.7l173.3 156.2a122.3 -122.3 0 0 1 49.8 27.2l561.7 153.1c51.7 14 106.6 17 158.2 2.6 58 -16.1 84.9 -41.4 92.3 -69.7 7.5 -28.3 -3.4 -63.9 -45.7 -107.4 -37.6 -38.7 -86.6 -64 -138.3 -78.1L748.4 433.7 552.3 59C549.4 47.7 540.7 38.8 529.6 35.8L402.4 1.1C381.8 -4.5 361.6 11.5 362 33.2L455.6 354 256 299.6 202.1 167c-3.8 -9.5 -11.7 -16.7 -21.5 -19.4L103 126.5c-20.2 -5.5 -40.1 9.7 -40.5 31l.4 198.8c.4 17.4 11.8 33.8 24.6 45.4z"/></svg>