<svg height="1000" width="1250" xmlns="http://www.w3.org/2000/svg"><path d="M1218.8 875H31.3C14 875 0 889 0 906.3v62.5C0 986 14 1000 31.3 1000h1187.5c17.2 0 31.2 -14 31.2 -31.2v-62.5C1250 889 1236 875 1218.8 875zM157.3 666.5c12.3 13.4 29.5 21 47.5 21l255 -.4a128.2 -128.2 0 0 1 57.9 -13.9L1086 384.8c52.2 -26.5 99 -64.3 130.9 -113.9 35.7 -55.6 39.6 -95.8 25.5 -124.3C1228.3 118.2 1194.1 97.3 1128.6 93c-58.3 -3.8 -116.3 11.6 -168.5 38.1l-192.4 97.6L340.6 68.4a34.8 -34.8 0 0 1 -35.2 -2.2L177 131.4c-20.8 10.6 -25.9 38.4 -10.1 55.7L472 378.8 270.4 481.1 129.1 409.8a34.8 -34.8 0 0 1 -31.4 .1l-78.3 39.7C-1 460 -6.4 487 8.5 504.5l148.8 162z"/></svg>