
  <svg height="1000" width="1125.0" xmlns="http://www.w3.org/2000/svg">
    <path d="m937.5 375c69 0 187.5 56 187.5 125s-118.5 125-187.5 125h-223.2l-205.3 359.3c-5.6 9.7-15.9 15.7-27.1 15.7h-128c-20.7 0-35.7-19.9-30-39.8l95.7-335.2h-200.8l-84.4 112.5c-5.9 7.9-15.2 12.5-25 12.5h-78.1c-20.4 0-35.3-19.1-30.3-38.8l61.5-211.2-61.5-211.2c-5-19.7 9.9-38.8 30.3-38.8h78.1c9.8 0 19.1 4.6 25 12.5l84.4 112.5h200.8l-95.7-335.2c-5.7-19.9 9.3-39.8 30-39.8h128c11.6 0 21.7 6.3 27.1 15.7l205.3 359.3h223.2z" />
  </svg>
