<svg height="1000" width="1000" xmlns="http://www.w3.org/2000/svg"><path d="M500 15.6C232.4 15.6 15.6 232.4 15.6 500S232.4 984.4 500 984.4 984.4 767.6 984.4 500 767.6 15.6 500 15.6zm281.3 539.1c0 12.9 -10.6 23.4 -23.5 23.4H578.1v179.7c0 12.9 -10.5 23.5 -23.4 23.5H445.3c-12.9 0 -23.4 -10.6 -23.4 -23.5V578.1H242.2c-12.9 0 -23.4 -10.5 -23.4 -23.4V445.3c0 -12.9 10.5 -23.4 23.4 -23.4h179.7V242.2c0 -12.9 10.5 -23.4 23.4 -23.4h109.4c12.9 0 23.4 10.5 23.4 23.4v179.7h179.7c12.9 0 23.5 10.5 23.5 23.4v109.4z"/></svg>