
  <svg height="1000" width="1000.0" xmlns="http://www.w3.org/2000/svg">
    <path d="m500 15.6c267.6 0 484.4 216.8 484.4 484.4s-216.8 484.4-484.4 484.4-484.4-216.8-484.4-484.4 216.8-484.4 484.4-484.4z m281.3 539.1v-109.4c0-12.9-10.6-23.4-23.5-23.4h-179.7v-179.7c0-12.9-10.5-23.4-23.4-23.4h-109.4c-12.9 0-23.4 10.5-23.4 23.4v179.7h-179.7c-12.9 0-23.4 10.5-23.4 23.4v109.4c0 12.9 10.5 23.4 23.4 23.4h179.7v179.7c0 12.9 10.5 23.5 23.4 23.5h109.4c12.9 0 23.4-10.6 23.4-23.5v-179.7h179.7c12.9 0 23.5-10.5 23.5-23.4z" />
  </svg>
