<svg height="1000" width="875" xmlns="http://www.w3.org/2000/svg"><path d="M781.3 62.5H93.8C42 62.5 0 104.5 0 156.3v687.5c0 51.7 42 93.7 93.8 93.7h687.5c51.7 0 93.7 -42 93.7 -93.7V156.3c0 -51.8 -42 -93.8 -93.7 -93.8zm-62.5 492.2c0 12.9 -10.6 23.4 -23.5 23.4H515.6v179.7c0 12.9 -10.5 23.5 -23.4 23.5H382.8c-12.9 0 -23.4 -10.6 -23.4 -23.5V578.1H179.7c-12.9 0 -23.4 -10.5 -23.4 -23.4V445.3c0 -12.9 10.5 -23.4 23.4 -23.4h179.7V242.2c0 -12.9 10.5 -23.4 23.4 -23.4h109.4c12.9 0 23.4 10.5 23.4 23.4v179.7h179.7c12.9 0 23.5 10.5 23.5 23.4v109.4z"/></svg>