
  <svg height="1000" width="875.0" xmlns="http://www.w3.org/2000/svg">
    <path d="m522.3 954.2c-10 37.2-48 45.8-84.8 45.8-36.8 0-74.8-8.6-84.8-45.8-15-55.5-40.2-194.6-40.2-259.4 0-68.6 60.8-85.4 125-85.4s125 16.8 125 85.4c0 64.4-25.1 203.5-40.2 259.4z m-215.9-390.6c5.2 5.1 4.7 13.6-1.2 17.9-18.2 13.2-32.2 30-41.5 49.6-3.4 7.1-12.7 9.1-18.5 3.6-54.7-51.3-89-124.2-89-205 0-157.8 130.7-285.7 289.4-281.1 148.9 4.2 269.4 125.3 273.1 274.1 2 83.6-32.6 159.2-88.9 212.1-5.8 5.4-15.1 3.4-18.5-3.7-9.3-19.6-23.3-36.4-41.5-49.6-5.9-4.3-6.4-12.8-1.2-17.9 34.8-34.1 56.4-81.5 56.4-133.9 0-105.9-88.2-191.5-194.9-187.4-97.1 3.8-175.9 82.4-179.9 179.5-2.3 55.5 19.7 106 56.2 141.8z m131.1-563.6c241.8 0 437.5 195.7 437.5 437.5 0 176.1-103.1 323.7-245.6 393.4-8.4 4.1-18.1-3-16.7-12.4 5-32.5 9.1-64.8 11-92.2 94.7-61.3 157.6-167.8 157.6-288.8 0-189.8-154.8-344.2-344.7-343.7-188 0.4-341.7 153.6-342.8 341.6-0.8 119.7 60.1 225.6 152.7 287.7 3 2 4.9 5.3 5.2 8.9 2.1 26.1 5.9 56.3 10.6 86.5 1.4 9.4-8.3 16.5-16.7 12.4-142.9-69.9-245.6-217.6-245.6-393.4 0-241.8 195.7-437.5 437.5-437.5z m0 312.5c69 0 125 56 125 125s-56 125-125 125-125-56-125-125 56-125 125-125z" />
  </svg>
