<svg height="1000" width="875" xmlns="http://www.w3.org/2000/svg"><path d="M522.3 954.2c-10 37.2 -48 45.8 -84.8 45.8s-74.8 -8.6 -84.8 -45.8c-15 -55.5 -40.2 -194.6 -40.2 -259.4 0 -68.6 60.8 -85.4 125 -85.4s125 16.8 125 85.4c0 64.4 -25.1 203.5 -40.2 259.4zM306.4 563.6C269.9 527.8 247.9 477.3 250.2 421.8c4 -97.1 82.8 -175.7 179.9 -179.5C536.8 238.2 625 323.8 625 429.7c0 52.4 -21.6 99.8 -56.4 133.9 -5.2 5.1 -4.7 13.6 1.2 17.9 18.2 13.2 32.2 30 41.5 49.6 3.4 7.1 12.7 9.1 18.5 3.7 56.3 -52.9 90.9 -128.5 88.9 -212.1C715 273.9 594.5 152.8 445.6 148.6 286.9 144 156.3 271.9 156.3 429.7c0 80.8 34.2 153.7 88.9 205 5.8 5.5 15.1 3.5 18.5 -3.6 9.3 -19.6 23.3 -36.4 41.5 -49.6 5.9 -4.3 6.4 -12.8 1.2 -17.9zM437.5 0C195.7 0 0 195.7 0 437.5 0 613.3 102.7 761 245.6 830.9c8.4 4.1 18.1 -3 16.7 -12.3 -4.7 -30.3 -8.5 -60.5 -10.6 -86.6 -.3 -3.6 -2.2 -6.9 -5.2 -8.9C153.9 661 93 555.1 93.8 435.4 94.9 247.4 248.6 94.2 436.6 93.8c189.9 -.5 344.7 153.9 344.7 343.7 0 121 -62.9 227.5 -157.6 288.8 -1.9 27.4 -6 59.7 -11 92.2 -1.4 9.4 8.3 16.5 16.7 12.4C771.9 761.2 875 613.6 875 437.5 875 195.7 679.3 0 437.5 0zm0 312.5c-69 0 -125 56 -125 125s56 125 125 125 125 -56 125 -125 -56 -125 -125 -125z"/></svg>