
  <svg height="1000" width="875.0" xmlns="http://www.w3.org/2000/svg">
    <path d="m875 843.8c0 51.7-42 93.7-93.7 93.7h-687.5c-51.8 0-93.8-42-93.8-93.7v-687.5c0-51.8 42-93.8 93.8-93.8h687.5c51.7 0 93.7 42 93.7 93.8v687.5z m-656.2-468.8h250c17.2 0 31.2-14 31.2-31.2v-62.5c0-17.3-14-31.3-31.2-31.3h-250c-17.3 0-31.3 14-31.3 31.3v62.5c0 17.2 14 31.2 31.3 31.2z m0 187.5h437.5c17.2 0 31.2-14 31.2-31.2v-62.5c0-17.3-14-31.3-31.2-31.3h-437.5c-17.3 0-31.3 14-31.3 31.3v62.5c0 17.2 14 31.2 31.3 31.2z m0 187.5h125c17.2 0 31.2-14 31.2-31.2v-62.5c0-17.3-14-31.3-31.2-31.3h-125c-17.3 0-31.3 14-31.3 31.3v62.5c0 17.2 14 31.2 31.3 31.2z" />
  </svg>
