
  <svg height="1000" width="875.0" xmlns="http://www.w3.org/2000/svg">
    <path d="m601.6 656.3c17.9 0 29.3 19.5 20.3 35.1l-171.9 296.9c-4.3 7.4-12.1 11.7-20.3 11.7-15.1 0-26.4-14.1-22.9-28.9l45-189.8h-115.9c-14.2 0-25.2-12.6-23.2-26.6l31.2-234.4c1.6-11.5 11.6-20.3 23.3-20.3h132.8c15.4 0 26.6 14.6 22.7 29.5l-33.8 126.8h112.7z m129.7-217.4c80 6.4 143.7 73.2 143.5 154.8 0 86-70.3 156.3-156.2 156.3h-58.6l15.8-27.3c15.2-26.4 15.2-59.4 0-86s-43.8-43-74.4-43h-31.3l12.9-48.2c7-26 1.6-53.1-14.8-74.4-16.4-21.3-41.2-33.6-68.2-33.6h-132.8c-43 0-79.5 32-85.4 74.6l-31.2 234.4c0 1.2 0.2 2.3 0 3.5h-94.4c-85.9 0-156.2-70.3-156.2-156.3 0-81.6 63.7-148.4 143.7-154.8-11.5-18.8-18.7-40.3-18.7-63.9 0-68.9 56.1-125 125-125h31.2c86.4 0 156.3-69.9 156.3-156.3 0-33.9-11.1-65.2-29.5-90.8 9.6-1.5 19.3-2.9 29.5-2.9 103.5 0 187.5 84 187.5 187.5 0 22.1-4.5 42.8-11.5 62.5h11.5c68.9 0 125 56.1 125 125 0 23.6-7.2 45.1-18.8 63.9z" />
  </svg>
