<svg height="1000" width="1000" xmlns="http://www.w3.org/2000/svg"><path d="M881.6 720.9c33.8 -25.6 55.9 -65.8 55.9 -111.5 0 -77.8 -62.9 -140.6 -140.6 -140.6h-27.6c26.2 -22.9 43.2 -56.3 43.2 -93.8 0 -68.9 -56.1 -125 -125 -125H676c7 -19.7 11.5 -40.4 11.5 -62.5C687.5 84 603.5 0 500 0c-10.2 0 -19.9 1.4 -29.5 2.9C488.9 28.5 500 59.8 500 93.8 500 180.1 430.1 250 343.8 250h-31.3c-68.9 0 -125 56.1 -125 125 0 37.5 17 70.9 43.2 93.8h-27.6c-77.7 0 -140.6 62.8 -140.6 140.6 0 45.7 22.1 85.9 55.9 111.5C51.4 731.6 0 789.3 0 859.4 0 937.1 62.9 1000 140.6 1000h718.8c77.7 0 140.6 -62.9 140.6 -140.6 0 -70.1 -51.4 -127.8 -118.4 -138.5zM375 500c34.6 0 62.5 27.9 62.5 62.5S409.6 625 375 625s-62.5 -27.9 -62.5 -62.5S340.4 500 375 500zm311.5 271.5C666 826 572.3 875 500 875S334 826 313.5 771.5c-3.9 -10.4 3.9 -21.5 15.2 -21.5h342.6c11.3 0 19.1 11.1 15.2 21.5zM625 625c-34.6 0 -62.5 -27.9 -62.5 -62.5S590.4 500 625 500s62.5 27.9 62.5 62.5S659.6 625 625 625z"/></svg>