
  <svg height="1000" width="1000.0" xmlns="http://www.w3.org/2000/svg">
    <path d="m881.6 720.9c67 10.7 118.4 68.4 118.4 138.5 0 77.7-62.9 140.6-140.6 140.6h-718.8c-77.7 0-140.6-62.9-140.6-140.6 0-70.1 51.4-127.8 118.4-138.5-33.8-25.6-55.9-65.8-55.9-111.5 0-77.8 62.9-140.6 140.6-140.6h27.6c-26.2-22.9-43.2-56.3-43.2-93.8 0-68.9 56.1-125 125-125h31.2c86.4 0 156.3-69.9 156.3-156.2 0-34-11.1-65.3-29.5-90.9 9.6-1.5 19.3-2.9 29.5-2.9 103.5 0 187.5 84 187.5 187.5 0 22.1-4.5 42.8-11.5 62.5h11.5c68.9 0 125 56.1 125 125 0 37.5-17 70.9-43.2 93.8h27.6c77.7 0 140.6 62.8 140.6 140.6 0 45.7-22.1 85.9-55.9 111.5z m-506.6-220.9c-34.6 0-62.5 27.9-62.5 62.5s27.9 62.5 62.5 62.5 62.5-27.9 62.5-62.5-27.9-62.5-62.5-62.5z m311.5 271.5c3.9-10.4-3.9-21.5-15.2-21.5h-342.6c-11.3 0-19.1 11.1-15.2 21.5 20.5 54.5 114.2 103.5 186.5 103.5s166-49 186.5-103.5z m-61.5-146.5c34.6 0 62.5-27.9 62.5-62.5s-27.9-62.5-62.5-62.5-62.5 27.9-62.5 62.5 27.9 62.5 62.5 62.5z" />
  </svg>
