
  <svg height="1000" width="1000.0" xmlns="http://www.w3.org/2000/svg">
    <path d="m881.6 721c67 10.7 118.4 68.3 118.4 138.4 0 77.6-63 140.6-140.6 140.6h-718.8c-77.6 0-140.6-63-140.6-140.6 0-70.1 51.4-127.7 118.4-138.4-33.8-25.7-55.9-65.9-55.9-111.6 0-77.7 63-140.6 140.6-140.6h27.5c-26.2-23-43.1-56.3-43.1-93.8 0-69 56-125 125-125h31.2c86.3 0 156.3-70 156.3-156.2 0-34-11.1-65.2-29.5-90.8 9.7-1.6 19.4-3 29.5-3 103.6 0 187.5 83.9 187.5 187.5 0 22-4.5 42.9-11.5 62.5h11.5c69 0 125 56 125 125 0 37.5-16.9 70.8-43.1 93.7h27.5c77.6 0 140.6 63 140.6 140.7 0 45.7-22.1 85.9-55.9 111.6z" />
  </svg>
