<svg height="1000" width="1000" xmlns="http://www.w3.org/2000/svg"><path d="M881.6 721c33.8 -25.7 55.9 -65.9 55.9 -111.6 0 -77.7 -63 -140.6 -140.6 -140.6h-27.5c26.2 -23 43.1 -56.3 43.1 -93.8 0 -69 -56 -125 -125 -125H676c7 -19.6 11.5 -40.5 11.5 -62.5C687.5 83.9 603.6 0 500 0c-10.1 0 -19.8 1.4 -29.5 3C488.9 28.6 500 59.8 500 93.8 500 180 430 250 343.8 250h-31.3c-69 0 -125 56 -125 125 0 37.5 16.9 70.8 43.1 93.8h-27.5c-77.6 0 -140.6 62.9 -140.6 140.6 0 45.7 22.1 85.9 55.9 111.6C51.4 731.7 0 789.3 0 859.4 0 937 63 1000 140.6 1000h718.8C937 1000 1000 937 1000 859.4 1000 789.3 948.6 731.7 881.6 721z"/></svg>