
  <svg height="1000" width="625.0" xmlns="http://www.w3.org/2000/svg">
    <path d="m601.6 687.5c12.9 0 23.4 10.5 23.4 23.4v203.2c0 12.9-10.5 23.4-23.4 23.4h-578.2c-12.9 0-23.4-10.5-23.4-23.4v-78.2c0-12.9 10.5-23.4 23.4-23.4h70.4v-250h-54.7c-13 0-23.5-10.5-23.5-23.4v-78.2c0-12.9 10.5-23.4 23.5-23.4h54.7v-129c0-143 113.3-246 273.3-246 95 0 166.3 44.1 198.3 68.2 10.6 8 12.4 23.1 4.2 33.4l-55.7 69.3c-7.4 9.3-20.6 11.6-30.6 5.3-23-14.4-66.4-36.8-112.6-36.8-72.7 0-120.7 48.4-120.7 111.5v124.1h164.1c12.9 0 23.4 10.5 23.4 23.4v78.2c0 12.9-10.5 23.4-23.4 23.4h-164.1v247.7h239.3v-99.3c0-12.9 10.5-23.4 23.4-23.4h88.9z" />
  </svg>
