<svg height="1000" width="625" xmlns="http://www.w3.org/2000/svg"><path d="M601.6 687.5h-88.9c-12.9 0 -23.4 10.5 -23.4 23.4v99.4H250V562.5h164.1c12.9 0 23.4 -10.5 23.4 -23.4v-78.2c0 -12.9 -10.5 -23.4 -23.4 -23.4H250V313.4c0 -63.1 48 -111.5 120.7 -111.5 46.2 0 89.6 22.4 112.6 36.8 10 6.3 23.2 4 30.6 -5.3l55.7 -69.3c8.2 -10.3 6.4 -25.4 -4.2 -33.4C533.4 106.6 462.1 62.5 367.1 62.5c-160 0 -273.3 103 -273.3 246v129H39.1c-13 0 -23.5 10.5 -23.5 23.4v78.2c0 12.9 10.5 23.4 23.5 23.4h54.7v250H23.4C10.5 812.5 0 823 0 835.9v78.2c0 12.9 10.5 23.4 23.4 23.4h578.2c12.9 0 23.4 -10.5 23.4 -23.4V710.9c0 -12.9 -10.5 -23.4 -23.4 -23.4z"/></svg>