
  <svg height="1000" width="1000.0" xmlns="http://www.w3.org/2000/svg">
    <path d="m781.3 105.7c123 87.9 203.1 231.6 203.1 394.3 0 267.2-216.4 483.8-483.4 484.4-266.6 0.6-485-216.8-485.4-483.6-0.2-162.7 79.9-306.9 202.8-394.9 22.8-16.3 54.6-9.4 68.3 15l30.9 54.9c11.5 20.5 6 46.5-12.9 60.5-81.1 60.2-132.8 155.5-132.8 263.5-0.2 180.3 145.5 328.3 328.1 328.3 178.9 0 329.3-144.9 328.1-330.2-0.6-101.2-48.2-198.9-133-261.8-18.9-14-24.2-40-12.7-60.3l30.9-54.9c13.7-24.2 45.3-31.4 68-15.2z m-203.2 409.9c0 26-20.9 46.9-46.8 46.9h-62.5c-26 0-46.9-20.9-46.9-46.9v-468.7c0-26 20.9-46.9 46.9-46.9h62.5c25.9 0 46.8 20.9 46.8 46.9v468.7z" />
  </svg>
