
  <svg height="1000" width="1250.0" xmlns="http://www.w3.org/2000/svg">
    <path d="m531.3 374.8c34.3 0 62.5 28.1 62.5 62.5v250c0 101.4-68.1 191.6-165.6 219.5l-350 91c-5.1 1.4-10.4 2-15.7 2-45.9 0-62.5-41.3-62.5-62.5v-187.5c0 0 0 0 0 0 0-27.6 17.9-51 42.7-59.3l176.1-58.6v-156.7c0-37.1 10.8-73.1 31.4-104l229.1-343.5c0.3-0.6 1.1-0.5 1.5-1 18.7-26.4 54.4-34.9 82.6-18 29.6 17.8 39.2 56.2 21.4 85.8l-151.8 253.1c-17.5 29.1-26.7 62.5-26.7 96.5v149.5c0 17.2 13.9 31.2 31.2 31.2s31.3-14 31.3-31.2v-156.3c0-34.4 28.1-62.5 62.5-62.5z m676 315.9c25.5 8.5 42.7 32.4 42.7 59.3v187.5c0 21.1-16.6 62.5-62.5 62.5-5.2 0-10.5-0.7-15.7-2l-350-91.1c-97.5-27.8-165.5-118.1-165.5-219.4v-250c0-34.4 28.1-62.5 62.5-62.5s62.5 28.1 62.5 62.5v156.2c0 17.3 13.9 31.3 31.2 31.3s31.3-14 31.3-31.3v-149.5c0-33.9-9.3-67.3-26.8-96.4l-151.8-253.1c-17.8-29.6-8.2-68 21.4-85.8 28.2-16.9 63.9-8.4 82.6 18 0.4 0.5 1.2 0.4 1.5 0.9l229.1 343.6c20.6 30.9 31.5 66.9 31.5 103.9v156.7z" />
  </svg>
