
  <svg height="1000" width="750.0" xmlns="http://www.w3.org/2000/svg">
    <path d="m500 250c-69 0-125-56-125-125s56-125 125-125 125 56 125 125-56 125-125 125z m-59.8 331.5l-47.2-56.1-68 126.7 214.6 214.5c49.8 49.8 11.3 133.4-55.2 133.4h-406.3c-43.1 0-78.1-35-78.1-78.1s35-78.2 78.1-78.2h178.9l-87.6-68.1c-83.7-53.5-112.4-156.5-66.7-241.7l96.4-179.7c21.7-40.4 62.8-67.3 110.1-72.1 48.4-5.1 94.8 13.5 125 49.4l76 90.5 112.2-91.8c33.4-27.3 82.7-22.5 109.9 11 27.3 33.3 22.4 82.6-10.9 109.9l-171.9 140.6c-33.2 27.1-81.9 22.5-109.3-10.2z" />
  </svg>
