<svg height="1000" width="750" xmlns="http://www.w3.org/2000/svg"><path d="M588.4 687.5L740.9 535c12.2 -12.2 12.2 -32 0 -44.2l-44.2 -44.2c-12.2 -12.2 -32 -12.2 -44.2 0L500 599.1l-164 -164C428.3 423.4 500 345.5 500 250 500 146.4 416.1 62.5 312.5 62.5H31.3C14 62.5 0 76.5 0 93.8v500C0 611 14 625 31.3 625h62.5C111 625 125 611 125 593.8V437.5h36.6l250 250L259.2 840c-12.2 12.2 -12.2 32 0 44.2l44.2 44.2c12.2 12.2 32 12.2 44.2 0L500 775.9l152.5 152.4c12.2 12.2 32 12.2 44.2 0l44.2 -44.2c12.2 -12.2 12.2 -32 0 -44.2L588.4 687.5zM125 187.5h187.5c34.5 0 62.5 28 62.5 62.5s-28 62.5 -62.5 62.5H125v-125z"/></svg>