
  <svg height="1000" width="750.0" xmlns="http://www.w3.org/2000/svg">
    <path d="m703.1 0c25.8 0 46.9 21.1 46.9 46.9v93.7c0 25.8-21.1 46.9-46.9 46.9h-656.2c-25.8 0-46.9-21.1-46.9-46.9v-93.7c0-25.8 21.1-46.9 46.9-46.9h656.2z m-640.6 937.5v-687.5h625v687.5c0 34.4-28.1 62.5-62.5 62.5h-500c-34.4 0-62.5-28.1-62.5-62.5z m125-359.4v93.8c0 8.6 7 15.6 15.6 15.6h109.4v109.4c0 8.6 7 15.6 15.6 15.6h93.8c8.6 0 15.6-7 15.6-15.6v-109.4h109.4c8.6 0 15.6-7 15.6-15.6v-93.8c0-8.6-7-15.6-15.6-15.6h-109.4v-109.4c0-8.6-7-15.6-15.6-15.6h-93.8c-8.6 0-15.6 7-15.6 15.6v109.4h-109.4c-8.6 0-15.6 7-15.6 15.6z" />
  </svg>
