
  <svg height="1000" width="750.0" xmlns="http://www.w3.org/2000/svg">
    <path d="m62.5 375v-125h625v687.5c0 34.4-28.1 62.5-62.5 62.5h-500c-34.4 0-62.5-28.1-62.5-62.5v-125h234.4c8.6 0 15.6-7 15.6-15.6v-31.3c0-8.6-7-15.6-15.6-15.6h-234.4v-125h234.4c8.6 0 15.6-7 15.6-15.6v-31.3c0-8.6-7-15.6-15.6-15.6h-234.4v-125h234.4c8.6 0 15.6-7 15.6-15.6v-31.3c0-8.6-7-15.6-15.6-15.6h-234.4z m640.6-375c25.8 0 46.9 21.1 46.9 46.9v93.7c0 25.8-21.1 46.9-46.9 46.9h-656.2c-25.8 0-46.9-21.1-46.9-46.9v-93.7c0-25.8 21.1-46.9 46.9-46.9h656.2z" />
  </svg>
