<svg height="1000" width="750" xmlns="http://www.w3.org/2000/svg"><path d="M62.5 375h234.4c8.6 0 15.6 7 15.6 15.6v31.3c0 8.6 -7 15.6 -15.6 15.6H62.5v125h234.4c8.6 0 15.6 7 15.6 15.6v31.3c0 8.6 -7 15.6 -15.6 15.6H62.5v125h234.4c8.6 0 15.6 7 15.6 15.6v31.3c0 8.6 -7 15.6 -15.6 15.6H62.5v125c0 34.4 28.1 62.5 62.5 62.5h500c34.4 0 62.5 -28.1 62.5 -62.5V250h-625v125zM703.1 0H46.9C21.1 0 0 21.1 0 46.9v93.7c0 25.8 21.1 46.9 46.9 46.9h656.2c25.8 0 46.9 -21.1 46.9 -46.9V46.9C750 21.1 728.9 0 703.1 0z"/></svg>