<svg height="1000" width="750" xmlns="http://www.w3.org/2000/svg"><path d="M703.1 0H46.9C21.1 0 0 21.1 0 46.9v93.7c0 25.8 21.1 46.9 46.9 46.9h656.2c25.8 0 46.9 -21.1 46.9 -46.9V46.9C750 21.1 728.9 0 703.1 0zM62.5 937.5c0 34.4 28.1 62.5 62.5 62.5h500c34.4 0 62.5 -28.1 62.5 -62.5V250h-625v687.5zm125 -359.4c0 -8.6 7 -15.6 15.6 -15.6h109.4V453.1c0 -8.6 7 -15.6 15.6 -15.6h93.8c8.6 0 15.6 7 15.6 15.6v109.4h109.4c8.6 0 15.6 7 15.6 15.6v93.8c0 8.6 -7 15.6 -15.6 15.6H437.5v109.4c0 8.6 -7 15.6 -15.6 15.6h-93.8c-8.6 0 -15.6 -7 -15.6 -15.6V687.5H203.1c-8.6 0 -15.6 -7 -15.6 -15.6v-93.8z"/></svg>