
  <svg height="1000" width="750.0" xmlns="http://www.w3.org/2000/svg">
    <path d="m588.4 687.5l152.5 152.4c12.2 12.2 12.2 32 0 44.2l-44.2 44.2c-12.2 12.2-32 12.2-44.2 0l-152.5-152.4-152.4 152.5c-12.2 12.2-32 12.2-44.2 0l-44.2-44.2c-12.2-12.2-12.2-32 0-44.2l152.4-152.5-250-250h-36.6v156.2c0 17.3-14 31.3-31.2 31.3h-62.5c-17.3 0-31.3-14-31.3-31.3v-500c0-17.2 14-31.2 31.3-31.2h281.2c103.6 0 187.5 83.9 187.5 187.5 0 95.5-71.7 173.4-164 185.1l164 164 152.5-152.5c12.2-12.2 32-12.2 44.2 0l44.2 44.2c12.2 12.2 12.2 32 0 44.2z m-463.4-500v125h187.5c34.5 0 62.5-28 62.5-62.5s-28-62.5-62.5-62.5h-187.5z" />
  </svg>
