<svg height="1000" width="1000" xmlns="http://www.w3.org/2000/svg"><path d="M906.3 375H875V160a46.9 -46.9 0 0 1 -13.7 -33.1L748.1 13.7A46.9 -46.9 0 0 1 715 0H171.9C146 0 125 21 125 46.9V375H93.8C42 375 0 417 0 468.8v257.8C0 739.5 10.5 750 23.4 750H125v203.1c0 25.9 21 46.9 46.9 46.9h656.2c25.9 0 46.9 -21 46.9 -46.9V750h101.6c12.9 0 23.4 -10.5 23.4 -23.4V468.8C1000 417 958 375 906.3 375zM750 875H250V687.5h500V875zM250 437.5V125h375v78.1c0 25.8 21.1 46.9 46.9 46.9H750v187.5H250zm593.8 140.6c-25.9 0 -46.9 -21 -46.9 -46.8s21 -46.9 46.9 -46.9 46.8 21 46.8 46.9 -21 46.8 -46.8 46.8z"/></svg>