
  <svg height="1000" width="1000.0" xmlns="http://www.w3.org/2000/svg">
    <path d="m875 375c69 0 125 56 125 125v218.8c0 17.2-14 31.2-31.2 31.2h-93.8v187.5c0 34.5-28 62.5-62.5 62.5h-625c-34.5 0-62.5-28-62.5-62.5v-187.5h-93.7c-17.3 0-31.3-14-31.3-31.2v-218.8c0-69 56-125 125-125v-312.5c0-34.5 28-62.5 62.5-62.5h536.6c16.6 0 32.5 6.6 44.2 18.3l88.4 88.4c11.7 11.7 18.3 27.6 18.3 44.2v224.1z m-125 500v-187.5h-500v187.5h500z m0-437.5v-187.5h-93.7c-17.3 0-31.3-14-31.3-31.2v-93.8h-375v312.5h500z m93.8 140.6c25.8 0 46.8-21 46.8-46.8 0-25.9-21-46.9-46.8-46.9s-46.9 21-46.9 46.9c0 25.8 21 46.8 46.9 46.8z" />
  </svg>
