<svg height="1000" width="1250" xmlns="http://www.w3.org/2000/svg"><path d="M1031.3 437.5h-500c-17.2 0 -31.3 14.1 -31.3 31.3V750H125V281.3C125 264.1 110.9 250 93.8 250H31.3C14.1 250 0 264.1 0 281.3v687.5c0 17.1 14.1 31.2 31.3 31.2h62.5c17.1 0 31.2 -14.1 31.2 -31.2V875h1000v93.8c0 17.1 14.1 31.2 31.3 31.2h62.5c17.1 0 31.2 -14.1 31.2 -31.2V656.3c0 -120.9 -97.9 -218.8 -218.7 -218.8zm-765.7 -250h246.3l53.9 107.8c11.5 23.1 44.4 23.1 55.9 0l97.1 -194.1 43.1 86.3H1000c17.2 0 31.3 -14.1 31.3 -31.2S1017.2 125 1000 125H800.6L746.7 17.2c-11.5 -23.1 -44.4 -23.1 -55.9 0l-97 194.1 -38.9 -77.7c-2.8 -5.3 -8 -8.6 -14.1 -8.6H265.6c-8.6 0 -15.6 7 -15.6 15.6v31.3c0 8.6 7 15.6 15.6 15.6zm46.9 500c68.9 0 125 -56.1 125 -125s-56.1 -125 -125 -125 -125 56.1 -125 125 56.1 125 125 125z"/></svg>