
  <svg height="1000" width="1250.0" xmlns="http://www.w3.org/2000/svg">
    <path d="m1031.3 437.5c120.8 0 218.7 97.9 218.7 218.8v312.5c0 17.1-14.1 31.2-31.2 31.2h-62.5c-17.2 0-31.3-14.1-31.3-31.2v-93.8h-1000v93.8c0 17.1-14.1 31.2-31.2 31.2h-62.5c-17.2 0-31.3-14.1-31.3-31.2v-687.5c0-17.2 14.1-31.3 31.3-31.3h62.5c17.1 0 31.2 14.1 31.2 31.3v468.7h375v-281.2c0-17.2 14.1-31.3 31.3-31.3h500z m-765.7-250c-8.6 0-15.6-7-15.6-15.6v-31.3c0-8.6 7-15.6 15.6-15.6h275.2c6.1 0 11.3 3.3 14.1 8.6l38.8 77.7 97.1-194.1c11.5-23.1 44.4-23.1 55.9 0l53.9 107.8h199.4c17.2 0 31.3 14.1 31.3 31.2s-14.1 31.3-31.3 31.3h-238.1l-43.1-86.3-97.1 194.1c-11.5 23.1-44.4 23.1-55.9 0l-53.9-107.8h-246.3z m46.9 500c-68.9 0-125-56.1-125-125s56.1-125 125-125 125 56.1 125 125-56.1 125-125 125z" />
  </svg>
