
  <svg height="1000" width="1250.0" xmlns="http://www.w3.org/2000/svg">
    <path d="m750 625c34.5 0 62.5 28 62.5 62.5v250c0 34.5-28 62.5-62.5 62.5h-250c-34.5 0-62.5-28-62.5-62.5v-250c0-34.5 28-62.5 62.5-62.5h250z m-375-562.5v62.5h437.5v125h-437.5v92.8l125.5 219.7h-0.5c-46.1 0-86 25.4-107.7 62.6l-142.8-250.1h-187c-34.5 0-62.5-28-62.5-62.5v-250c0-34.5 28-62.5 62.5-62.5h250c34.5 0 62.5 28 62.5 62.5z m812.5-62.5c34.5 0 62.5 28 62.5 62.5v250c0 34.5-28 62.5-62.5 62.5h-250c-34.5 0-62.5-28-62.5-62.5v-250c0-34.5 28-62.5 62.5-62.5h250z" />
  </svg>
