<svg height="1000" width="1250" xmlns="http://www.w3.org/2000/svg"><path d="M750 625H500c-34.5 0 -62.5 28 -62.5 62.5v250c0 34.5 28 62.5 62.5 62.5h250c34.5 0 62.5 -28 62.5 -62.5v-250C812.5 653 784.5 625 750 625zM375 62.5C375 28 347 0 312.5 0h-250C28 0 0 28 0 62.5v250C0 347 28 375 62.5 375h187l142.8 250.1C414 587.9 453.9 562.5 500 562.5h.5L375 342.8V250h437.5V125H375V62.5zM1187.5 0h-250C903 0 875 28 875 62.5v250c0 34.5 28 62.5 62.5 62.5h250c34.5 0 62.5 -28 62.5 -62.5v-250C1250 28 1222 0 1187.5 0z"/></svg>