
  <svg height="1000" width="750.0" xmlns="http://www.w3.org/2000/svg">
    <path d="m460.2 312.5c0 0 0 0.1 0 0.1 65.2 0 118.7 50 124.5 113.6l39.8 437.5c0.3 3.8 0.5 7.4 0.5 11.3 0 69-56 125-125 125h-375c-69 0-125-55.9-125-124.9 0-3.8 0.2-7.6 0.5-11.4l39.8-437.5c5.8-63.6 59.3-113.7 124.5-113.7h295.4z m-147.7 500c64.7 0 117.2-51.4 117.2-114.7 0-48.8-69.7-147.4-101.6-190-3.5-4.8-9.2-7.8-15.6-7.8-6.4 0-12.1 3-15.6 7.8-31.9 42.6-101.6 141.1-101.6 190 0 63.3 52.5 114.7 117.2 114.7z m428.3-628.8c5.7 5.7 9.2 13.5 9.2 22.1s-3.5 16.5-9.2 22.1l-44.1 44.2c-5.7 5.6-13.5 9.2-22.1 9.2s-16.5-3.6-22.1-9.2l-84.6-84.6h-130.4v62.5h-250v-187.5c0-34.5 28-62.5 62.5-62.5h125c34.5 0 62.5 28 62.5 62.5h130.4c34.5 0 65.7 14 88.4 36.6z" />
  </svg>
