
  <svg height="1000" width="750.0" xmlns="http://www.w3.org/2000/svg">
    <path d="m460 312.1c65.1 0.1 118.6 50.1 124.5 113.7l39.7 437.5c0.4 3.8 0.6 7.4 0.6 11.3 0 69-56.1 125-125 125h-375c-69 0-125-55.9-125-124.9 0-3.8 0.1-7.6 0.5-11.4l39.8-437.5c5.8-63.6 59.3-113.6 124.4-113.7h295.5z m8.5 338.6v-52.1c0-14.4-11.7-26-26-26h-78.2v-78.2c0-14.3-11.6-26-26-26h-52.1c-14.4 0-26 11.7-26 26v78.2h-78.1c-14.4 0-26.1 11.6-26.1 26v0 52.1c0 14.4 11.7 26 26.1 26h78.1v78.2c0 14.3 11.6 26 26 26h52.1c14.4 0 26-11.7 26-26v-78.2h78.2c14.3 0 26-11.6 26-26z m272.1-467.3c5.7 5.6 9.2 13.4 9.2 22.1s-3.5 16.4-9.2 22.1l-44.2 44.1c-5.6 5.7-13.5 9.2-22.1 9.2s-16.4-3.5-22.1-9.2l-84.6-84.6h-130.3v62.5h-250v-187.5c0-34.4 28-62.5 62.5-62.5h125c34.5 0 62.5 28.1 62.5 62.5h130.3c34.5 0.1 65.8 14 88.4 36.6z" />
  </svg>
