<svg height="1000" width="1125" xmlns="http://www.w3.org/2000/svg"><path d="M1014.5 563.8c-81.1 0 -116.2 61.7 -160.2 61.7 -117.2 0 -10.5 -344.2 -10.5 -344.2S460.4 437.5 460.4 274.8c0 -70 70.9 -90.3 70.9 -167.9C531.3 37.5 476.3 0 411.2 0 343.5 0 281.6 36.9 281.6 110.1c0 80.7 61.9 115.7 61.9 159.6 0 136 -343.5 56 -343.5 56v650.9s348.9 80.1 348.9 -56c0 -43.9 -78.1 -78.4 -78.1 -159.2 0 -73.1 57.1 -110 124.1 -110 65.8 0 120.7 37.5 120.7 106.9 0 77.6 -70.8 97.9 -70.8 167.9 0 118.8 253.2 50.3 353.9 50.3 0 0 -67.8 -234.6 50.5 -234.6 70.2 0 90.6 70.6 168.5 70.6 69.6 0 107.3 -54.7 107.3 -120.2 0 -66.8 -37 -128.5 -110.5 -128.5z"/></svg>