<svg height="1000" width="1250" xmlns="http://www.w3.org/2000/svg"><path d="M501 423.4l169.3 213.3s-32.4 200 -149.6 293.2C403.7 1023 0 996.5 0 996.5S7.4 951.4 21.5 888.3L206.3 669.1c7.8 -9.1 -1.8 -22.6 -12.9 -18.5l-118 43.2C103.5 612.3 139.3 537.5 182 503.3 299 410 501 423.4 501 423.4zm464.8 263.7C879.9 687.1 810 757 810 843.2c0 86.1 69.7 156 155.8 156 86.2 0 155.9 -69.9 155.9 -156 0 -86.4 -69.9 -156.1 -155.9 -156.1zM1243.2 60.5l-38.7 -48.8c-10.7 -13.5 -30.3 -15.6 -43.8 -5.1L706.6 354.1l-66.6 -84c-9.9 -12.5 -29.5 -10.1 -36.3 4.3l-49.4 106.7 169.3 213.2 114.9 -24.2c15.6 -3.3 22.2 -21.9 12.3 -34.4L784.2 452l454.1 -347.5c13.5 -10.7 15.6 -30.5 4.9 -44z"/></svg>