
  <svg height="1000" width="1250.0" xmlns="http://www.w3.org/2000/svg">
    <path d="m501 423.4l169.3 213.3s-32.4 200-149.6 293.2c-117 93.1-520.7 66.6-520.7 66.6s7.4-45.1 21.5-108.2l184.7-219.2c7.9-9.1-1.7-22.6-12.8-18.5l-118 43.2c28.1-81.5 63.9-156.3 106.6-190.5 117-93.3 319-79.9 319-79.9z m464.8 263.7c86 0 155.9 69.7 155.9 156.1 0 86.1-69.7 156-155.9 156s-155.8-69.9-155.8-156c0-86.2 69.9-156.1 155.8-156.1z m277.4-626.6c10.7 13.5 8.6 33.3-4.9 44l-454.1 347.5 66.6 83.7c9.9 12.5 3.3 31.1-12.3 34.4l-114.9 24.2-169.3-213.2 49.4-106.7c6.8-14.4 26.4-16.8 36.3-4.3l66.6 84 454.1-347.5c13.5-10.5 33.1-8.4 43.8 5.1z" />
  </svg>
