<svg height="1000" width="1000" xmlns="http://www.w3.org/2000/svg"><path d="M906.3 62.5h-250c-51.8 0 -93.8 42 -93.8 93.8v250c0 51.7 42 93.7 93.8 93.7h156.2v125c0 68.9 -56.1 125 -125 125h-15.6c-26 0 -46.9 20.9 -46.9 46.9v93.7c0 26 20.9 46.9 46.9 46.9h15.6C860.2 937.5 1000 797.7 1000 625V156.3c0 -51.8 -42 -93.8 -93.7 -93.8zm-562.5 0h-250C42 62.5 0 104.5 0 156.3v250C0 458 42 500 93.8 500H250v125c0 68.9 -56.1 125 -125 125h-15.6c-26 0 -46.9 20.9 -46.9 46.9v93.7c0 26 20.9 46.9 46.9 46.9H125c172.7 0 312.5 -139.8 312.5 -312.5V156.3c0 -51.8 -42 -93.8 -93.7 -93.8z"/></svg>