
  <svg height="1000" width="1000.0" xmlns="http://www.w3.org/2000/svg">
    <path d="m906.3 62.5c51.7 0 93.7 42 93.7 93.8v468.7c0 172.7-139.8 312.5-312.5 312.5h-15.6c-26 0-46.9-20.9-46.9-46.9v-93.7c0-26 20.9-46.9 46.9-46.9h15.6c68.9 0 125-56.1 125-125v-125h-156.2c-51.8 0-93.8-42-93.8-93.7v-250c0-51.8 42-93.8 93.8-93.8h250z m-562.5 0c51.7 0 93.7 42 93.7 93.8v468.7c0 172.7-139.8 312.5-312.5 312.5h-15.6c-26 0-46.9-20.9-46.9-46.9v-93.7c0-26 20.9-46.9 46.9-46.9h15.6c68.9 0 125-56.1 125-125v-125h-156.2c-51.8 0-93.8-42-93.8-93.7v-250c0-51.8 42-93.8 93.8-93.8h250z" />
  </svg>
