<svg height="1000" width="1000" xmlns="http://www.w3.org/2000/svg"><path d="M906.3 500H750V375c0 -68.9 56.1 -125 125 -125h15.6c26 0 46.9 -20.9 46.9 -46.9v-93.7c0 -26 -20.9 -46.9 -46.9 -46.9H875C702.3 62.5 562.5 202.3 562.5 375v468.8c0 51.7 42 93.7 93.8 93.7h250c51.7 0 93.7 -42 93.7 -93.7v-250C1000 542 958 500 906.3 500zm-562.5 0H187.5V375c0 -68.9 56.1 -125 125 -125h15.6c26 0 46.9 -20.9 46.9 -46.9v-93.7c0 -26 -20.9 -46.9 -46.9 -46.9h-15.6C139.8 62.5 0 202.3 0 375v468.8c0 51.7 42 93.7 93.8 93.7h250c51.7 0 93.7 -42 93.7 -93.7v-250c0 -51.8 -42 -93.8 -93.7 -93.8z"/></svg>