
  <svg height="1000" width="875.0" xmlns="http://www.w3.org/2000/svg">
    <path d="m875 700c0 18.8-6.3 31.3-18.7 37.5-6.3 25-6.3 112.5 0 143.8 12.4 12.4 18.7 24.9 18.7 37.5v31.2c0 31.3-25 50-50 50h-637.5c-106.2 0-187.5-81.2-187.5-187.5v-625c0-106.3 81.3-187.5 187.5-187.5h637.5c31.3 0 50 18.7 50 50v650z m-287-415.2l-21.8 44.2-48.8 7.1c-5.3 0.8-7.3 7.2-3.6 10.9l35.4 34.4-8.4 48.6c-0.7 4.2 2.6 7.5 6.3 7.5 1 0 2-0.2 3-0.7l43.6-23 43.7 23c1 0.5 2 0.7 3 0.7 3.7 0 7-3.3 6.3-7.5l-8.4-48.6 35.4-34.4c3.7-3.7 1.6-10.1-3.6-10.9l-48.8-7.1-21.8-44.2c-1.2-2.4-3.5-3.6-5.8-3.6s-4.5 1.2-5.7 3.6z m-113-134.8c-124.1 0-225 100.9-225 225 0 124 100.9 225 225 225 26.5 0 52.9-4.9 78.5-14.4 5.2-1.8 9-6.7 9-12.5 0-7.1-5.6-13.3-13.3-13.3-1.3 0-6.1 0.5-8.1 0.5-102.1 0-185.2-83.2-185.2-185.3 0-102.2 83.1-185.3 185.2-185.3 2.1 0 6.8 0.4 8.1 0.4 1.4 0.6 3 0.9 4.6 0.9 7.3 0 13.3-6 13.3-13.3 0-7.3-6-13.2-13.3-13.2-25.6-9.6-52.1-14.5-78.8-14.5z m268.8 725v-125h-556.3c-31.2 0-62.5 25-62.5 62.5s25 62.5 62.5 62.5h556.3z" />
  </svg>
