
  <svg height="1000" width="968.8" xmlns="http://www.w3.org/2000/svg">
    <path d="m641 499.6c0-55.8-29.7-104.5-73.8-132.4l157-250.8c9.4-15 29.9-19.7 44.4-9.4 113.4 82.1 190.2 211.8 200.1 359.8 1.2 17.8-13.8 32.8-31.6 32.8h-296.1z m-73.8 132.2l157 251c9.4 14.9 4.7 35.4-10.9 43.8-68.2 36.7-146.1 57.8-228.9 57.8s-160.8-21.1-228.9-57.8c-15.7-8.4-20.3-28.7-11-43.8l157.1-251c24.2 15.1 52.3 24.3 82.8 24.3s58.8-9.2 82.8-24.3z m-82.8-38.4c-51.8 0-93.8-42-93.8-93.8s42-93.7 93.8-93.7 93.7 42 93.7 93.7-42 93.8-93.7 93.8z m-452.8-93.8c-17.7 0-32.8-15-31.6-32.6 10-148.1 86.7-277.7 200.2-359.8 14.4-10.5 35-5.6 44.3 9.4l157.1 250.8c-44.2 27.7-73.9 76.4-73.9 132.2h-296.1z" />
  </svg>
