
  <svg height="1000" width="968.8" xmlns="http://www.w3.org/2000/svg">
    <path d="m609.4 500c0-44.5-23.7-83.6-58.8-105.5l81.4-130.4c10.2-16.2 32.1-19.4 46.9-7.5 63.5 50.8 107.2 125.4 116.2 210.6 1.8 17.8-13.3 32.8-31.2 32.8h-154.5z m-191 105.7c19.1 12.1 42 19.3 66.2 19.3 24.2 0 46.8-7.2 66-19.3l81.6 130.6c9.4 15.3 4.7 36-11.3 44-41.4 20.3-87.5 32.2-136.5 32.2s-95.1-11.9-136.4-32.2c-16-8-20.9-28.7-11.3-44z m-213.5-105.7c-18 0-33.2-15-31.1-33 9-85.2 52.6-159.8 116.2-210.6 14.9-11.9 36.8-8.7 46.9 7.5l81.5 130.4c-35.4 22.1-59 61.2-59 105.7h-154.5z m279.5 484.4c-267.6 0-484.4-216.8-484.4-484.4s216.8-484.4 484.4-484.4 484.4 216.8 484.4 484.4-216.8 484.4-484.4 484.4z m0-843.8c-198.3 0-359.4 161.2-359.4 359.4s161.1 359.4 359.4 359.4 359.4-161.2 359.4-359.4-161.2-359.4-359.4-359.4z m0 421.9c-34.6 0-62.5-27.9-62.5-62.5s27.9-62.5 62.5-62.5 62.5 27.9 62.5 62.5-28 62.5-62.5 62.5z" />
  </svg>
