
  <svg height="1000" width="1125.0" xmlns="http://www.w3.org/2000/svg">
    <path d="m524 63.9c327.6-22.1 601 238.2 601 561.1v281.3c0 17.1-14.1 31.2-31.2 31.2h-62.5c-17.2 0-31.3-14.1-31.3-31.2v-266.1c0-222.2-159.4-420.7-379.9-449-266.8-34.4-495.1 173.6-495.1 433.8v281.3c0 17.1-14.1 31.2-31.2 31.2h-62.5c-17.2 0-31.3-14.1-31.3-31.2v-261.4c0-299.4 225.4-561.1 524-581z m-10.9 189.2c228.7-29.3 424.4 148.9 424.4 371.9v281.3c0 17.1-14.1 31.2-31.2 31.2h-62.5c-17.2 0-31.3-14.1-31.3-31.2v-270.2c0-130.6-95.1-247.2-225-259.9-149-14.5-275 102.7-275 248.8v281.2c0 17.2-14.1 31.3-31.2 31.3h-62.5c-17.2 0-31.3-14.1-31.3-31.3v-268.1c0-190.6 136.7-360.8 325.6-385z m12.1 188.1c119.7-23.2 224.8 68.2 224.8 183.8v281.2c0 17.2-14.1 31.3-31.2 31.3h-62.5c-17.2 0-31.3-14.1-31.3-31.3v-281.2c0-34.4-27.9-62.5-62.5-62.5s-62.5 28.1-62.5 62.5v281.2c0 17.2-14.1 31.3-31.2 31.3h-62.5c-17.2 0-31.3-14.1-31.3-31.3v-273.8c0-90.6 61.1-173.8 150.2-191.2z" />
  </svg>
