
  <svg height="1000" width="1000.0" xmlns="http://www.w3.org/2000/svg">
    <path d="m986.3 701.2c18.3 18.3 18.3 48 0 66.3l-156.3 156.2c-29.3 29.4-80 8.8-80-33.1v-78.1h-114.8c-6.8 0-12.9-2.9-17.1-7.4l-137.9-147.7 104.2-111.6 103.1 110.4h62.5v-78c0-41.9 50.7-62.5 80-33.2z m-962.9-357.4c-12.9 0-23.4-10.5-23.4-23.5v-109.4c0-12.9 10.5-23.4 23.4-23.4h216.4c6.8 0 12.9 2.9 17.1 7.4l137.9 147.7-104.2 111.6-103.1-110.4h-164.1z m726.6 0h-62.5l-430.6 461.3c-4.4 4.7-10.6 7.4-17.1 7.4h-216.4c-12.9 0-23.4-10.5-23.4-23.4v-109.4c0-13 10.5-23.5 23.4-23.5h164.1l430.6-461.3c4.2-4.5 10.3-7.4 17.1-7.4h114.8v-78.1c0-41.9 50.7-62.5 80-33.1l156.3 156.2c18.3 18.3 18.3 48 0 66.3l-156.3 156.2c-29.3 29.3-80 8.8-80-33.2v-78z" />
  </svg>
