
  <svg height="1000" width="750.0" xmlns="http://www.w3.org/2000/svg">
    <path d="m700 6.2c20.7-15.4 50-0.7 50 25v937.5c0 25.8-29.5 40.5-50 25l-75-87.5-106.3 87.5c-5.2 4-11.7 6.3-18.7 6.3-7.1 0-13.5-2.3-18.8-6.3l-106.2-87.5-106.3 87.5c-5.2 4-11.7 6.3-18.7 6.3-7.1 0-13.5-2.3-18.8-6.3l-106.2-87.5-75 87.5c-20.7 15.5-50 0.8-50-25v-937.5c0-25.7 29.3-40.4 50-25l75 87.5 106.2-87.5c5.3-3.9 11.8-6.2 18.8-6.2 7.1 0 13.5 2.3 18.7 6.2l106.3 87.5 106.2-87.5c5.3-3.9 11.8-6.2 18.8-6.2 7.1 0 13.5 2.3 18.7 6.2l106.3 87.5z m-75 696.9v-31.2c0-8.6-7-15.6-15.6-15.6h-468.8c-8.6 0-15.6 7-15.6 15.6v31.2c0 8.6 7 15.7 15.6 15.7h468.8c8.6 0 15.6-7.1 15.6-15.7z m0-187.5v-31.2c0-8.6-7-15.6-15.6-15.6h-468.8c-8.6 0-15.6 7-15.6 15.6v31.2c0 8.6 7 15.7 15.6 15.7h468.8c8.6 0 15.6-7.1 15.6-15.7z m0-187.5v-31.2c0-8.6-7-15.6-15.6-15.6h-468.8c-8.6 0-15.6 7-15.6 15.6v31.2c0 8.6 7 15.7 15.6 15.7h468.8c8.6 0 15.6-7.1 15.6-15.7z" />
  </svg>
