<svg height="1000" width="750" xmlns="http://www.w3.org/2000/svg"><path d="M700 6.2l-75 87.6L518.8 6.2a31.1 -31.1 0 0 1 -37.5 0L375 93.8 268.8 6.2a31.1 -31.1 0 0 1 -37.5 0L125 93.8 50 6.2C29.3 -9.2 0 5.5 0 31.3v937.5c0 25.7 29.3 40.4 50 25l75 -87.5 106.3 87.5a31.1 -31.1 0 0 1 37.5 0L375 906.3l106.3 87.5a31.1 -31.1 0 0 1 37.5 0L625 906.3l75 87.5c20.5 15.4 50 .7 50 -25V31.3C750 5.5 720.7 -9.2 700 6.2zm-75 696.9c0 8.6 -7 15.7 -15.6 15.7H140.6c-8.6 0 -15.6 -7.1 -15.6 -15.7v-31.2c0 -8.6 7 -15.6 15.6 -15.6h468.8c8.6 0 15.6 7 15.6 15.6v31.2zm0 -187.5c0 8.6 -7 15.7 -15.6 15.7H140.6c-8.6 0 -15.6 -7.1 -15.6 -15.7v-31.2c0 -8.6 7 -15.6 15.6 -15.6h468.8c8.6 0 15.6 7 15.6 15.6v31.2zm0 -187.5c0 8.6 -7 15.7 -15.6 15.7H140.6c-8.6 0 -15.6 -7.1 -15.6 -15.7v-31.2c0 -8.6 7 -15.6 15.6 -15.6h468.8c8.6 0 15.6 7 15.6 15.6v31.2z"/></svg>