<svg height="1000" width="1000" xmlns="http://www.w3.org/2000/svg"><path d="M360.5 511.5c6.3 27.4 -23.7 48.1 -47 33.6l-79.6 -49.8 -99.3 159c-26 41.5 4 95.7 52.9 95.7h101.6c12.9 0 23.4 10.5 23.4 23.4v78.2c0 12.9 -10.5 23.4 -23.4 23.4H187.7C40.6 875 -49.2 712.8 28.7 588.1L128 429.2 48.4 379.5C24.8 364.7 30.9 328.8 58 322.5l215.3 -49.7c16.8 -3.9 33.6 6.6 37.5 23.4l49.7 215.3zM553 154.3l80.6 129L554 333c-23.5 14.8 -17.5 50.7 9.6 57l215.3 49.7c16.9 3.9 33.6 -6.7 37.5 -23.4L866.1 201c6.2 -27.1 -23.5 -48.3 -47 -33.6l-79.5 49.7L659 88C585.7 -29.2 414.5 -29.5 341 88l-35.1 56.2c-6.8 11 -3.5 25.5 7.5 32.3l66.2 41.4c11 6.9 25.5 3.5 32.3 -7.4L447 154.3c24.8 -39.7 82 -38.4 106 0zm418.3 433.8l-53.8 -86c-6.8 -11 -21.3 -14.4 -32.3 -7.5l-66.1 41.3c-11 6.9 -14.3 21.3 -7.5 32.3l53.9 86.2c25.9 41.4 -4 95.6 -53 95.6H625v-93.7c0 -27.8 -33.7 -41.8 -53.3 -22.1L415.4 790.4c-12.2 12.2 -12.2 32 0 44.2l156.3 156.2c19.5 19.6 53.3 5.9 53.3 -22.1V875h187.3c147 0 236.9 -162.1 159 -286.9z"/></svg>