
  <svg height="1000" width="1000.0" xmlns="http://www.w3.org/2000/svg">
    <path d="m977.2 0c12.9 0 23.4 10.5 23.4 23.4v391.3c0 13-10.5 23.5-23.4 23.5h-391.3c-12.9 0-23.4-10.5-23.4-23.5v-92.6c0 0 0 0 0 0 0-12.9 10.5-23.4 23.4-23.4 0.4 0 0.8 0 1.2 0l198.3 9.5c-61.8-91.9-166.3-152.1-285.2-152.1-189.7 0-343.7 154.1-343.7 343.8s154 343.7 343.7 343.7c86.9 0 166.4-32.3 226.9-85.6 4.1-3.6 9.5-5.8 15.4-5.8 6.5 0 12.4 2.7 16.6 6.9l66.4 66.4c4.3 4.3 6.9 10.1 6.9 16.6 0 6.9-3 13.2-7.8 17.5-85.7 77.5-199.4 124.8-323.9 124.8h-0.7c-267.4 0-484.2-216.7-484.4-484-0.2-266.9 217.5-484.8 484.4-484.8 0.2 0 0.2-0.2 0.4-0.2 147.6 0 279.9 66.3 368.6 170.8l-7.8-161.6c0-0.4-0.1-0.8-0.1-1.2 0-12.9 10.5-23.4 23.5-23.4h0 92.6z" />
  </svg>
