
  <svg height="1000" width="1000.0" xmlns="http://www.w3.org/2000/svg">
    <path d="m500.9 15.6c129.4 0.3 246.9 51.3 333.7 134.2l69.8-69.8c29.5-29.5 80-8.6 80 33.2v261.8c0 25.9-21 46.9-46.9 46.9h-261.8c-41.8 0-62.7-50.5-33.2-80l81.6-81.6c-60.3-56.4-138.3-87.7-221.2-88.4-180.5-1.6-332.6 144.5-331 330.9 1.5 176.9 144.9 325.3 328.1 325.3 80.3 0 156.2-28.6 216.1-81.1 9.2-8.2 23.2-7.7 31.9 1l77.5 77.5c9.5 9.5 9.1 25-0.9 34.1-85.9 77.5-199.7 124.8-324.6 124.8-267.5 0-484.4-216.9-484.4-484.4 0-267.2 218.1-484.9 485.3-484.4z" />
  </svg>
