
  <svg height="1000" width="1250.0" xmlns="http://www.w3.org/2000/svg">
    <path d="m656.3 812.5c17.2 0 31.2 14 31.2 31.3v62.5c0 17.2-14 31.2-31.2 31.2h-250c-17.3 0-31.3-14-31.3-31.2v-62.5c0-17.3 14-31.3 31.3-31.3h63.4l51.8-155.5 131 101.3-18.1 54.2h21.8z m581.6 82.2c7.4 5.7 12.1 14.7 12.1 24.7 0 7.2-2.5 13.9-6.6 19.2l-38.3 49.3c-5.7 7.4-14.7 12.1-24.7 12.1-7.2 0-13.9-2.5-19.2-6.6l-1149.1-888.1c-7.4-5.7-12.1-14.7-12.1-24.7 0-7.2 2.5-13.9 6.6-19.2l38.3-49.3c5.7-7.4 14.7-12.1 24.7-12.1 7.2 0 13.9 2.5 19.2 6.6l223.7 172.9v-85.8c0-17.2 14-31.2 31.3-31.2h812.5c17.2 0 31.2 14 31.2 31.2v187.5c0 17.3-14 31.3-31.2 31.3h-62.5c-17.3 0-31.3-14-31.3-31.3v-62.5h-230.1l-96.1 288.3z m-632.6-488.9l62.3-187h-230.1v57.3z" />
  </svg>
