
  <svg height="1000" width="1125.0" xmlns="http://www.w3.org/2000/svg">
    <path d="m266.2 370.8l343.8-296.9c30.1-26 77.5-4.9 77.5 35.5v161.7c252.3 19.9 437.5 101.9 437.5 358.4 0 120-77.3 238.9-162.8 301.1-26.6 19.4-64.6-5-54.8-36.4 75.2-240.6-7.7-331-219.9-355.5v164.4c0 40.4-47.5 61.4-77.5 35.5l-343.8-296.9c-21.6-18.6-21.6-52.2 0-70.9z m-250 70.9c-21.6-18.6-21.6-52.2 0-70.9l343.8-296.9c30.1-26 77.5-4.9 77.5 35.5v30.9l-212.1 183.2c-23.2 20-37.9 49.6-37.9 82.7v0c0 0.1-0.1 0.1-0.1 0.1 0 33 14.8 62.7 38 82.7l212.1 183.2v30.9c0 40.4-47.5 61.4-77.5 35.5z" />
  </svg>
