<svg height="1000" width="1125" xmlns="http://www.w3.org/2000/svg"><path d="M266.2 370.8L610 73.9c30.1 -26 77.5 -4.9 77.5 35.5v161.7C939.8 291 1125 373 1125 629.5c0 120 -77.3 238.9 -162.8 301.1 -26.6 19.4 -64.6 -5 -54.8 -36.4 75.2 -240.6 -7.7 -331 -219.9 -355.5v164.4c0 40.4 -47.5 61.4 -77.5 35.5L266.2 441.7c-21.6 -18.6 -21.6 -52.2 0 -70.9zm-250 70.9L360 738.6c30 25.9 77.5 4.9 77.5 -35.5v-30.9L225.4 489a109.3 -109.3 0 0 0 -37.9 -82.8 109.3 -109.3 0 0 0 37.9 -82.7L437.5 140.3v-30.9C437.5 69 390.1 47.9 360 73.9L16.2 370.8c-21.6 18.7 -21.6 52.3 0 70.9z"/></svg>