
  <svg height="1000" width="1250.0" xmlns="http://www.w3.org/2000/svg">
    <path d="m250 250c-68.9 0-125-56.1-125-125s56.1-125 125-125 125 56.1 125 125-56.1 125-125 125z m750 0c-68.9 0-125-56.1-125-125s56.1-125 125-125 125 56.1 125 125-56.1 125-125 125z m248.6 442.4c7.3 29.5-16.2 57.6-47.8 57.6h-107v203.1c0 26-20.9 46.9-46.9 46.9h-93.8c-26 0-46.8-20.9-46.8-46.9v-203.1h-107.1c-31.6 0-55.1-28.1-48.2-57.6l89-362.9c6.5-26.4 30.3-44.9 58.2-47.3 29.3 19 64.1 30.3 101.6 30.3 37.5 0 72.3-11.3 101.6-30.3 27.9 2.4 51.7 20.9 58.2 47.3z m-592.3-692.4c17.1 0 31.2 14.1 31.2 31.3v937.5c0 17.1-14.1 31.2-31.2 31.2h-62.5c-17.2 0-31.3-14.1-31.3-31.2v-937.5c0-17.2 14.1-31.3 31.3-31.3h62.5z m-304.5 282c48 4.1 85.7 44 85.7 93v265.6c0 26-20.9 46.9-46.9 46.9h-15.6v265.6c0 26-20.9 46.9-46.9 46.9h-156.2c-26 0-46.9-20.9-46.9-46.9v-265.6h-15.6c-26 0-46.9-20.9-46.9-46.9v-265.6c0-49 37.7-88.9 85.7-93 29.3 19.2 64.3 30.5 101.8 30.5s72.5-11.3 101.8-30.5z" />
  </svg>
