<svg height="1000" width="875" xmlns="http://www.w3.org/2000/svg"><path d="M11.9 867.8c-18.7 21.1 -14.6 53.9 8.8 69.7L155.1 992c19.3 13.1 45.5 9.8 61.1 -7.4L395.5 785.5 240.8 613.9 11.9 867.8zm851.2 0S292.8 233.8 286.1 223c30.1 -16.4 78.5 -34.9 151.4 -34.9s121.3 18.5 151.4 34.9c-6.5 11 -109.4 126.2 -109.4 126.2L634 520.5l66.8 -74.2c56 -62.3 65 -153.5 22.2 -225.6L637.7 77.1C629.3 63.1 618.4 51.2 604.9 42 525.4 -11.9 356.1 -16 270.1 42c-13.5 9.2 -24.4 21.1 -32.8 35.1l-85.2 143c-2.9 4.9 -72.4 121.5 22.5 226.6l484.6 537.7c15.6 17.4 41.8 20.5 61.1 7.4l134.4 -54.5c23.2 -15.6 27.3 -48.4 8.4 -69.5z"/></svg>