
  <svg height="1000" width="875.0" xmlns="http://www.w3.org/2000/svg">
    <path d="m11.9 867.8l228.9-253.9 154.7 171.6-179.3 199.1c-15.6 17.2-41.8 20.5-61.1 7.4l-134.4-54.5c-23.4-15.8-27.5-48.6-8.8-69.7z m851.2 0c18.9 21.1 14.8 53.9-8.4 69.5l-134.4 54.5c-19.3 13.1-45.5 10-61.1-7.4l-484.6-537.7c-94.9-105.1-25.4-221.7-22.5-226.6l85.2-143c8.4-14 19.3-25.9 32.8-35.1 86-58 255.3-53.9 334.8 0 13.5 9.2 24.4 21.1 32.8 35.1l85.3 143.6c42.8 72.1 33.8 163.3-22.2 225.6l-66.8 74.2-154.5-171.3s102.9-115.2 109.4-126.2c-30.1-16.4-78.6-34.9-151.4-34.9s-121.3 18.5-151.4 34.9c6.7 10.8 577 644.8 577 644.8z" />
  </svg>
