
  <svg height="1000" width="1000.0" xmlns="http://www.w3.org/2000/svg">
    <path d="m500 125c285 0 500 120.9 500 281.3v191.6c0 153-223.9 277.1-500 277.1s-500-124.1-500-277.1v-191.6c0-160.4 215-281.3 500-281.3z m0 125c-207.1 0-375 70-375 156.3 0 18 7.8 35.3 21.3 51.5 87.8-51.1 212.6-82.8 353.7-82.8s265.9 31.7 353.7 82.8c13.5-16.2 21.3-33.5 21.3-51.5 0-86.3-167.9-156.3-375-156.3z m-264.8 266.9c67.8 28.2 161.4 45.6 264.8 45.6s197-17.4 264.8-45.6c-67.6-28.8-158.6-48.1-264.8-48.1s-197.2 19.3-264.8 48.1z" />
  </svg>
