<svg height="1000" width="1125" xmlns="http://www.w3.org/2000/svg"><path d="M1119.5 786.5l-273 -625C836.8 139.2 815.6 125 792.3 125H601.7l4.8 45.2c1 9.3 -6.2 17.3 -15.5 17.3h-57c-9.3 0 -16.5 -8 -15.5 -17.3l4.8 -45.2H332.7c-23.3 0 -44.5 14.2 -54.2 36.5l-273 625C-12.6 827.9 16.2 875 59.6 875h384.5l20.1 -190.8c1.7 -15.9 15.1 -27.9 31.1 -27.9h134.4c16 0 29.4 12 31.1 27.9L680.9 875h384.5c43.4 0 72.2 -47.1 54.1 -88.5zM508.6 264a15.6 -15.6 0 0 0 15.5 -14h76.8c8 0 14.7 6 15.5 14l9 85.1c1.5 13.8 -9.4 25.9 -23.3 25.9h-79.2c-13.9 0 -24.7 -12.1 -23.3 -25.9l9 -85.1zm107.9 329.8h-108c-18.6 0 -33 -16.1 -31.1 -34.6l9.9 -93.7c1.7 -15.9 15.1 -28 31.1 -28h88.2c16 0 29.4 12.1 31.1 28l9.9 93.7c1.9 18.5 -12.6 34.6 -31.1 34.6z"/></svg>