
  <svg height="1000" width="1125.0" xmlns="http://www.w3.org/2000/svg">
    <path d="m1119.5 786.5c18.1 41.4-10.7 88.5-54.1 88.5h-384.5l-20.1-190.8c-1.7-15.9-15.1-28-31.1-28h-134.4c-16 0-29.4 12.1-31.1 28l-20.1 190.8h-384.5c-43.4 0-72.2-47.1-54.1-88.5l273-625c9.7-22.3 30.9-36.5 54.2-36.5h190.6l-4.8 45.2c-1 9.3 6.2 17.3 15.5 17.3h57c9.3 0 16.5-8 15.5-17.3l-4.8-45.2h190.6c23.3 0 44.5 14.2 54.2 36.5z m-610.9-522.5l-9 85.1c-1.4 13.8 9.4 25.9 23.3 25.9h79.2c13.9 0 24.8-12.1 23.3-25.9l-9-85.1c-0.8-8-7.5-14-15.5-14h-76.8c0 0 0 0 0 0-8 0-14.7 6.1-15.5 14z m107.9 329.8c18.5 0 33-16.1 31.1-34.6l-9.9-93.7c-1.7-15.9-15.1-28-31.1-28h-88.2c-16 0-29.4 12.1-31.1 28l-9.9 93.7c-1.9 18.5 12.5 34.6 31.1 34.6h108z" />
  </svg>
