<svg height="1000" width="1250" xmlns="http://www.w3.org/2000/svg"><path d="M0 500v250c0 34.6 27.9 62.5 62.5 62.5H125v-375H62.5C27.9 437.5 0 465.4 0 500zM906.3 187.5H687.5v-125C687.5 27.9 659.6 0 625 0s-62.5 27.9 -62.5 62.5v125H343.8c-86.4 0 -156.3 69.9 -156.3 156.3V875c0 68.9 56.1 125 125 125h625c68.9 0 125 -56.1 125 -125V343.8c0 -86.4 -69.9 -156.3 -156.2 -156.3zM500 812.5H375V750h125v62.5zM437.5 578.1c-43.2 0 -78.1 -34.9 -78.1 -78.1s34.9 -78.1 78.1 -78.1 78.1 34.9 78.1 78.1 -34.9 78.1 -78.1 78.1zm250 234.4h-125V750h125v62.5zm187.5 0H750V750h125v62.5zM812.5 578.1c-43.2 0 -78.1 -34.9 -78.1 -78.1s34.9 -78.1 78.1 -78.1 78.1 34.9 78.1 78.1 -34.9 78.1 -78.1 78.1zm375 -140.6H1125v375h62.5c34.6 0 62.5 -27.9 62.5 -62.5V500c0 -34.6 -27.9 -62.5 -62.5 -62.5z"/></svg>