
  <svg height="1000" width="1250.0" xmlns="http://www.w3.org/2000/svg">
    <path d="m62.5 437.5h62.5v375h-62.5-0.1c-34.4 0-62.4-28-62.4-62.4 0-0.1 0-0.1 0-0.1v-250-0.1c0-34.4 28-62.4 62.4-62.4 0.1 0 0.1 0 0.1 0z m1000-93.7v531.2c-0.1 69-56 124.9-125 125h-625c-69-0.1-124.9-56-125-125v-531.2-0.1c0-86.2 70-156.2 156.2-156.2 0 0 0 0 0 0h218.8v-125c0-34.5 28-62.5 62.5-62.5s62.5 28 62.5 62.5v125h218.7 0.1c86.2 0 156.2 70 156.2 156.2 0 0 0 0 0 0z m-546.9 156.2c0-43.1-35-78.1-78.1-78.1s-78.1 35-78.1 78.1 35 78.1 78.1 78.1c43.1 0 78.1-35 78.1-78.1z m-15.6 250h-125v62.5h125v-62.5z m187.5 0h-125v62.5h125v-62.5z m203.1-250c0-43.1-35-78.1-78.1-78.1s-78.1 35-78.1 78.1 35 78.1 78.1 78.1c43.1 0 78.1-35 78.1-78.1z m-15.6 250h-125v62.5h125v-62.5z m375-250v250 0.1c0 34.4-28 62.4-62.4 62.4-0.1 0-0.1 0-0.1 0h-62.5v-375h62.5 0.1c34.4 0 62.4 28 62.4 62.4 0 0.1 0 0.1 0 0.1z" />
  </svg>
