
  <svg height="1000" width="1000.0" xmlns="http://www.w3.org/2000/svg">
    <path d="m986.6 37.3c13.5 62.9 13.5 112.1 13.4 161.3 0 200.6-108.3 321.9-250.1 412.3v204c0 32-23.2 69.5-51.8 83.7l-192.8 96.5c-6.4 2.9-13.5 4.6-20.9 4.9-25.9 0-46.9-21-46.9-46.9v-202.8l-43.9 43.9c-25.6 25.7-66.6 21.8-88.4 0l-99.5-99.4c-25.3-25.4-22.2-66.2 0-88.4l43.9-43.9h-202.7c-25.9 0-46.9-21-46.9-46.9 0.3-7.4 2-14.5 4.9-20.9l96.6-193c14.3-28.5 51.8-51.7 83.7-51.7h203.6c90.2-142.2 211.2-250 412.8-250 49 0 98.2 0 161.1 13.5 10.9 2.3 21.5 13 23.9 23.8z m-236.5 290.8c43.1 0 78.1-35 78.1-78.1 0-43.1-35-78.1-78.1-78.1-43.1 0-78.1 35-78.1 78.1 0 43.1 35 78.1 78.1 78.1z" />
  </svg>
