<svg height="1000" width="750" xmlns="http://www.w3.org/2000/svg"><path d="M467.5 625C633.8 625 750 508.9 750 341.9S633.8 62.5 467.5 62.5H148.4C135.5 62.5 125 73 125 85.9v403.6H23.4C10.5 489.5 0 500 0 513v88.6C0 614.5 10.5 625 23.4 625H125v62.5H23.4C10.5 687.5 0 698 0 710.9v78.2c0 12.9 10.5 23.4 23.4 23.4H125v101.6c0 12.9 10.5 23.4 23.4 23.4h114.4c13 0 23.5 -10.5 23.5 -23.4V812.5h315.3c12.9 0 23.4 -10.5 23.4 -23.4v-78.2c0 -12.9 -10.5 -23.4 -23.4 -23.4H286.3V625h181.2zM286.3 196.8H440c91.3 0 146.3 56.8 146.3 145.1 0 89.6 -55 147.6 -148.8 147.6H286.3V196.8z"/></svg>