<svg height="1000" width="1000" xmlns="http://www.w3.org/2000/svg"><path d="M812.5 625H625c-34.4 0 -62.5 -28.1 -62.5 -62.5S590.6 500 625 500h187.5S1000 291 1000 187.5 916 0 812.5 0 625 84 625 187.5c0 49.8 43.4 123.8 88.5 187.5H625c-103.3 0 -187.5 84.2 -187.5 187.5S521.7 750 625 750h187.5c34.4 0 62.5 28.1 62.5 62.5S846.9 875 812.5 875H362.3c-31.2 48.4 -66 93.2 -92.4 125h542.6c103.3 0 187.5 -84.2 187.5 -187.5S915.8 625 812.5 625zm0 -500c34.6 0 62.5 27.9 62.5 62.5S847.1 250 812.5 250 750 222.1 750 187.5 777.9 125 812.5 125zm-625 375C84 500 0 584 0 687.5S187.5 1000 187.5 1000 375 791 375 687.5 291 500 187.5 500zm0 250C152.9 750 125 722.1 125 687.5S152.9 625 187.5 625s62.5 27.9 62.5 62.5S222.1 750 187.5 750z"/></svg>