
  <svg height="1000" width="1000.0" xmlns="http://www.w3.org/2000/svg">
    <path d="m812.5 625c103.3 0 187.5 84.2 187.5 187.5s-84.2 187.5-187.5 187.5h-542.6c26.4-31.8 61.2-76.6 92.4-125h450.2c34.4 0 62.5-28.1 62.5-62.5s-28.1-62.5-62.5-62.5h-187.5c-103.3 0-187.5-84.2-187.5-187.5s84.2-187.5 187.5-187.5h88.5c-45.1-63.7-88.5-137.7-88.5-187.5 0-103.5 84-187.5 187.5-187.5s187.5 84 187.5 187.5-187.5 312.5-187.5 312.5h-187.5c-34.4 0-62.5 28.1-62.5 62.5s28.1 62.5 62.5 62.5h187.5z m0-500c-34.6 0-62.5 27.9-62.5 62.5s27.9 62.5 62.5 62.5 62.5-27.9 62.5-62.5-27.9-62.5-62.5-62.5z m-625 375c103.5 0 187.5 84 187.5 187.5s-187.5 312.5-187.5 312.5-187.5-209-187.5-312.5 84-187.5 187.5-187.5z m0 250c34.6 0 62.5-27.9 62.5-62.5s-27.9-62.5-62.5-62.5-62.5 27.9-62.5 62.5 27.9 62.5 62.5 62.5z" />
  </svg>
