
  <svg height="1000" width="875.0" xmlns="http://www.w3.org/2000/svg">
    <path d="m781.3 62.5c51.7 0 93.7 42 93.7 93.8v687.5c0 51.7-42 93.7-93.7 93.7h-687.5c-51.8 0-93.8-42-93.8-93.7v-687.5c0-51.8 42-93.8 93.8-93.8h687.5z m-562.5 750c51.7 0 93.7-42 93.7-93.7s-42-93.8-93.7-93.8-93.8 42-93.8 93.8 42 93.7 93.8 93.7z m307.6 0c12.8 0 23-10.7 22.3-23.4-11.6-215.7-184.4-388.7-400.3-400.3-12.7-0.7-23.4 9.5-23.4 22.3v67c0 11.8 9.1 21.6 20.8 22.4 156 10.1 281 134.9 291.2 291.2 0.8 11.7 10.6 20.8 22.4 20.8h67z m201.3 0c12.6 0 22.7-10.4 22.3-23-11.7-326.2-274.2-590.2-602-602-12.6-0.4-23 9.7-23 22.3v67.1c0 12 9.5 21.8 21.6 22.3 266.7 11 480.7 225.1 491.7 491.7 0.5 12.1 10.3 21.6 22.3 21.6h67.1z" />
  </svg>
