<svg height="1000" width="875" xmlns="http://www.w3.org/2000/svg"><path d="M781.3 62.5H93.8C42 62.5 0 104.5 0 156.3v687.5c0 51.7 42 93.7 93.8 93.7h687.5c51.7 0 93.7 -42 93.7 -93.7V156.3c0 -51.8 -42 -93.8 -93.7 -93.8zm-562.5 750c-51.8 0 -93.8 -42 -93.8 -93.7S167 625 218.8 625s93.7 42 93.7 93.8 -42 93.7 -93.7 93.7zm307.6 0h-67c-11.8 0 -21.6 -9.1 -22.4 -20.8C426.8 635.4 301.8 510.6 145.8 500.5 134.1 499.7 125 489.9 125 478.1v-67c0 -12.8 10.7 -23 23.4 -22.3 215.9 11.6 388.7 184.6 400.3 400.3 .7 12.7 -9.5 23.4 -22.3 23.4zm201.3 0h-67.1c-12 0 -21.8 -9.5 -22.3 -21.6C627.3 524.3 413.3 310.2 146.6 299.2 134.5 298.7 125 288.9 125 276.9v-67.1c0 -12.6 10.4 -22.7 23 -22.3 327.8 11.8 590.3 275.8 602 602 .4 12.6 -9.7 23 -22.3 23z"/></svg>