
  <svg height="1000" width="875.0" xmlns="http://www.w3.org/2000/svg">
    <path d="m250.2 812.4c0 69.1-56 125.1-125.1 125.1s-125.1-56-125.1-125.1 56-125.1 125.1-125.1 125.1 56 125.1 125.1z m343 92.3c1 17.8-13.3 32.8-31.2 32.8h-93.9c-16.4 0-30.2-12.7-31.3-29.1-14.2-218.9-189.3-393.5-407.7-407.7-16.4-1.1-29.1-14.9-29.1-31.3v-93.9c0-17.9 15-32.2 32.8-31.2 302.3 16.3 544.1 258.5 560.4 560.4z m281.8 0.6c0.6 17.6-13.6 32.2-31.3 32.2h-93.9c-16.8 0-30.5-13.3-31.2-30.2-15.3-373.3-315-673.1-688.4-688.4-16.9-0.7-30.2-14.4-30.2-31.2v-93.9c0-17.7 14.6-31.9 32.2-31.3 458.9 16.5 826.4 386.1 842.8 842.8z" />
  </svg>
