<svg height="1000" width="875" xmlns="http://www.w3.org/2000/svg"><path d="M250.2 812.4c0 69.1 -56 125.1 -125.1 125.1S0 881.5 0 812.4 56 687.3 125.1 687.3s125.1 56 125.1 125.1zm343 92.3C576.9 602.8 335.1 360.6 32.8 344.3 15 343.3 0 357.6 0 375.5v93.9c0 16.4 12.7 30.2 29.1 31.3 218.4 14.2 393.5 188.8 407.7 407.7 1.1 16.4 14.9 29.1 31.3 29.1H562c17.9 0 32.2 -15 31.2 -32.8zm281.8 .6C858.6 448.6 491.1 79 32.2 62.5 14.6 61.9 0 76.1 0 93.8v93.9c0 16.8 13.3 30.5 30.2 31.2C403.6 234.2 703.3 534 718.6 907.3c.7 16.9 14.4 30.2 31.2 30.2h93.9c17.7 0 31.9 -14.6 31.3 -32.2z"/></svg>