
  <svg height="1000" width="750.0" xmlns="http://www.w3.org/2000/svg">
    <path d="m467.5 625h-181.3v62.5h315.4c12.9 0 23.4 10.5 23.4 23.4v78.2c0 12.9-10.5 23.4-23.4 23.4h-315.4v101.6c0 12.9-10.4 23.4-23.4 23.4h-114.4c-12.9 0-23.4-10.5-23.4-23.4v-101.6h-101.6c-12.9 0-23.4-10.5-23.4-23.4v-78.2c0-12.9 10.5-23.4 23.4-23.4h101.6v-62.5h-101.6c-12.9 0-23.4-10.5-23.4-23.4v-88.6c0-13 10.5-23.5 23.4-23.5h101.6v-403.6c0-12.9 10.5-23.4 23.4-23.4h319.1c166.2 0 282.5 112.5 282.5 279.4 0 167-116.2 283.1-282.5 283.1z m-181.2-428.2v292.7h151.2c93.8 0 148.8-58 148.8-147.6 0-88.3-55-145.1-146.3-145.1h-153.8z" />
  </svg>
