<svg height="1000" width="1250" xmlns="http://www.w3.org/2000/svg"><path d="M1241.6 326.6L1086.1 61.9c-17.2 -29.3 -55.2 -39.2 -84.9 -22.4l-134.8 76.3L983 314.5c4.3 7.4 1.8 16.6 -5.7 20.9l-26.9 15.2c-7.4 4.3 -17 1.7 -21.3 -5.7L812.5 146.5l-107.8 61.1 54.5 92.6c4.3 7.4 1.7 16.6 -5.7 20.9l-26.9 15.2c-7.5 4.3 -17 1.8 -21.3 -5.6l-54.5 -92.4L543 299.4 659.8 498c4.3 7.3 1.7 16.6 -5.7 20.9l-27 15.3c-7.4 4.3 -16.9 1.7 -21.2 -5.7L489.3 329.9 381.4 391l54.5 92.6c4.3 7.4 1.8 16.6 -5.6 20.9l-27 15.2c-7.4 4.3 -17 1.8 -21.3 -5.6l-54.5 -92.8 -107.8 61.1 116.6 198.7c4.3 7.2 1.8 16.6 -5.6 20.9l-27 15.2c-7.4 4.3 -17 1.7 -21.3 -5.7l-116.6 -198L31.1 589.8C1.4 606.8 -9 644.1 8.2 673.4l155.5 264.9c17.2 29.3 55.2 39.2 84.9 22.4l970.3 -550.5c29.7 -16.8 39.9 -54.3 22.7 -83.6z"/></svg>