
  <svg height="1000" width="1125.0" xmlns="http://www.w3.org/2000/svg">
    <path d="m1062.5 250c34.5 0 62.5 28 62.5 62.5v375c0 34.5-28 62.5-62.5 62.5h-1000c-34.5 0-62.5-28-62.5-62.5v-375c0-34.5 28-62.5 62.5-62.5h93.8v171.9c0 8.6 6.9 15.6 15.6 15.6h31.2c8.7 0 15.7-7 15.7-15.6v-171.9h125v171.9c0 8.6 6.9 15.6 15.6 15.6h31.2c8.7 0 15.7-7 15.7-15.6v-171.9h125v171.9c0 8.6 6.9 15.6 15.6 15.6h31.2c8.7 0 15.7-7 15.7-15.6v-171.9h125v171.9c0 8.6 6.9 15.6 15.6 15.6h31.2c8.7 0 15.7-7 15.7-15.6v-171.9h125v171.9c0 8.6 6.9 15.6 15.6 15.6h31.2c8.7 0 15.7-7 15.7-15.6v-171.9h93.7z" />
  </svg>
