<svg height="1000" width="500" xmlns="http://www.w3.org/2000/svg"><path d="M328.1 812.5c-8.6 0 -15.6 -7 -15.6 -15.6v-31.3c0 -8.6 7 -15.6 15.6 -15.6H500V625H328.1c-8.6 0 -15.6 -7 -15.6 -15.6v-31.3c0 -8.6 7 -15.6 15.6 -15.6H500v-125H328.1c-8.6 0 -15.6 -7 -15.6 -15.6v-31.3c0 -8.6 7 -15.6 15.6 -15.6H500V250H328.1c-8.6 0 -15.6 -7 -15.6 -15.6v-31.3c0 -8.6 7 -15.6 15.6 -15.6H500v-125C500 28 472 0 437.5 0h-375C28 0 0 28 0 62.5v875C0 972 28 1000 62.5 1000h375c34.5 0 62.5 -28 62.5 -62.5v-125H328.1z"/></svg>