
  <svg height="1000" width="500.0" xmlns="http://www.w3.org/2000/svg">
    <path d="m328.1 812.5h171.9v125c0 34.5-28 62.5-62.5 62.5h-375c-34.5 0-62.5-28-62.5-62.5v-875c0-34.5 28-62.5 62.5-62.5h375c34.5 0 62.5 28 62.5 62.5v125h-171.9c-8.6 0-15.6 7-15.6 15.6v31.3c0 8.6 7 15.6 15.6 15.6h171.9v125h-171.9c-8.6 0-15.6 7-15.6 15.6v31.3c0 8.6 7 15.6 15.6 15.6h171.9v125h-171.9c-8.6 0-15.6 7-15.6 15.6v31.3c0 8.6 7 15.6 15.6 15.6h171.9v125h-171.9c-8.6 0-15.6 7-15.6 15.6v31.3c0 8.6 7 15.6 15.6 15.6z" />
  </svg>
