
  <svg height="1000" width="1000.0" xmlns="http://www.w3.org/2000/svg">
    <path d="m312.5 562.5v80.8l-309.4 309.4c-1.3-5-3.1-9.8-3.1-15.2v-875c0-34.5 28-62.5 62.5-62.5h187.5c34.5 0 62.5 28 62.5 62.5v62.5h-109.4c-8.6 0-15.6 7-15.6 15.6v31.3c0 8.6 7 15.6 15.6 15.6h109.4v125h-109.4c-8.6 0-15.6 7-15.6 15.6v31.3c0 8.6 7 15.6 15.6 15.6h109.4v125h-109.4c-8.6 0-15.6 7-15.6 15.6v31.3c0 8.6 7 15.6 15.6 15.6h109.4z m625 125c34.5 0 62.5 28 62.5 62.5v187.5c0 34.5-28 62.5-62.5 62.5h-875c-5.4 0-10.2-1.8-15.2-3.1l309.4-309.4h80.8v109.4c0 8.6 7 15.6 15.6 15.6h31.3c8.6 0 15.6-7 15.6-15.6v-109.4h125v109.4c0 8.6 7 15.6 15.6 15.6h31.3c8.6 0 15.6-7 15.6-15.6v-109.4h125v109.4c0 8.6 7 15.6 15.6 15.6h31.3c8.6 0 15.6-7 15.6-15.6v-109.4h62.5z" />
  </svg>
