
  <svg height="1000" width="1250.0" xmlns="http://www.w3.org/2000/svg">
    <path d="m1241.6 326.6c17.2 29.3 7 66.8-22.7 83.6l-970.3 550.5c-29.7 16.8-67.7 6.9-84.9-22.4l-155.5-264.9c-17.2-29.3-6.8-66.6 22.9-83.6l134.7-76.3 116.6 198c4.3 7.4 13.9 10 21.3 5.7l27-15.2c7.4-4.3 9.9-13.7 5.6-20.9l-116.6-198.7 107.8-61.1 54.5 92.8c4.3 7.4 13.9 9.9 21.3 5.6l27-15.2c7.4-4.3 9.9-13.5 5.6-20.9l-54.5-92.6 107.9-61.1 116.6 198.6c4.3 7.4 13.8 10 21.2 5.7l27-15.3c7.4-4.3 10-13.6 5.7-20.9l-116.8-198.6 107.8-61.1 54.5 92.4c4.3 7.4 13.8 9.9 21.3 5.6l26.9-15.2c7.4-4.3 10-13.5 5.7-20.9l-54.5-92.6 107.8-61.1 116.6 198.4c4.3 7.4 13.9 10 21.3 5.7l26.9-15.2c7.5-4.3 10-13.5 5.7-20.9l-116.6-198.7 134.8-76.3c29.7-16.8 67.7-6.9 84.9 22.4z" />
  </svg>
