<svg height="1000" width="1125" xmlns="http://www.w3.org/2000/svg"><path d="M1062.5 250h-93.7v171.9c0 8.6 -7 15.6 -15.7 15.6h-31.2c-8.7 0 -15.6 -7 -15.6 -15.6V250h-125v171.9c0 8.6 -7 15.6 -15.7 15.6h-31.2c-8.7 0 -15.6 -7 -15.6 -15.6V250h-125v171.9c0 8.6 -7 15.6 -15.7 15.6h-31.2c-8.7 0 -15.6 -7 -15.6 -15.6V250h-125v171.9c0 8.6 -7 15.6 -15.7 15.6h-31.2c-8.7 0 -15.6 -7 -15.6 -15.6V250h-125v171.9c0 8.6 -7 15.6 -15.7 15.6h-31.2c-8.7 0 -15.6 -7 -15.6 -15.6V250H62.5C28 250 0 278 0 312.5v375C0 722 28 750 62.5 750h1000c34.5 0 62.5 -28 62.5 -62.5v-375C1125 278 1097 250 1062.5 250z"/></svg>