<svg height="1000" width="1000" xmlns="http://www.w3.org/2000/svg"><path d="M312.5 562.5H203.1c-8.6 0 -15.6 -7 -15.6 -15.6v-31.3c0 -8.6 7 -15.6 15.6 -15.6h109.4V375H203.1c-8.6 0 -15.6 -7 -15.6 -15.6v-31.3c0 -8.6 7 -15.6 15.6 -15.6h109.4v-125H203.1c-8.6 0 -15.6 -7 -15.6 -15.6v-31.3c0 -8.6 7 -15.6 15.6 -15.6h109.4V62.5C312.5 28 284.5 0 250 0H62.5C28 0 0 28 0 62.5v875c0 5.4 1.8 10.2 3.1 15.2L312.5 643.3v-80.8zm625 125H875v109.4c0 8.6 -7 15.6 -15.6 15.6h-31.3c-8.6 0 -15.6 -7 -15.6 -15.6V687.5h-125v109.4c0 8.6 -7 15.6 -15.6 15.6h-31.3c-8.6 0 -15.6 -7 -15.6 -15.6V687.5H500v109.4c0 8.6 -7 15.6 -15.6 15.6h-31.3c-8.6 0 -15.6 -7 -15.6 -15.6V687.5h-80.8L47.3 996.9c5 1.3 9.8 3.1 15.2 3.1h875c34.5 0 62.5 -28 62.5 -62.5V750c0 -34.5 -28 -62.5 -62.5 -62.5z"/></svg>