
  <svg height="1000" width="812.5" xmlns="http://www.w3.org/2000/svg">
    <path d="m531.3 187.5c-51.8 0-93.8-42-93.8-93.7s42-93.8 93.8-93.8 93.7 42 93.7 93.8-42 93.7-93.7 93.7z m-309.2 432.6c15.4 33.6 40.3 63.2 74.1 83.2l20.9 12.3-17.2 40.1c-14.7 34.4-48.5 56.8-86.1 56.8h-151.3c-34.5 0-62.5-28-62.5-62.5s28-62.5 62.5-62.5h130.6z m527.9-182.6c34.5 0 62.5 27.9 62.5 62.5 0 34.5-28 62.5-62.5 62.5h-105.4c-35.6 0-68.6-20.6-84.2-52.6l-39.6-80.9-61.2 152.9 119.6 70.6c36.6 22.1 53.8 65.7 42.3 106.2l-61.8 197.4c-8.4 26.7-33 43.9-59.6 43.9-6.2 0-12.5-1-18.7-2.9-33-10.3-51.3-45.4-41-78.3l53.7-171.4-166-98c-53.9-31.8-76-99.2-51.4-156.8l73.2-170.7-28.7-8.5c-15.3-3.7-34.4 0.4-49.4 12l-77.5 59.3c-27.4 21-66.6 15.9-87.6-11.5-21.1-27.4-15.9-66.6 11.5-87.6l77.5-59.4c45.1-34.6 102.6-46.8 157.9-33.5l138.8 41.3c51.5 13.1 96.3 49.6 120.7 99.5l50.9 104h86z" />
  </svg>
