<svg height="1000" width="625" xmlns="http://www.w3.org/2000/svg"><path d="M601.6 187.5c12.9 0 23.4 -10.5 23.4 -23.4V85.9C625 73 614.5 62.5 601.6 62.5H23.4C10.5 62.5 0 73 0 85.9v87.4c0 13 10.5 23.5 23.4 23.5H190c53.3 0 94.3 19.4 119.1 53.2H23.4C10.5 250 0 260.5 0 273.4v78.2C0 364.5 10.5 375 23.4 375h310.1c-12.1 70.5 -64.4 114.5 -146 114.5H23.4C10.5 489.5 0 500 0 513v103.5c0 6.5 2.7 12.8 7.5 17.2l322.4 297.6a23.4 -23.4 0 0 1 15.9 6.2h161.3c21.3 0 31.5 -26.2 15.9 -40.7l-294.7 -272C377.7 620.2 484.4 520.5 498.4 375h103.2c12.9 0 23.4 -10.5 23.4 -23.4v-78.2C625 260.5 614.5 250 601.6 250H486.9c-6.8 -22.5 -16.1 -43.4 -27.8 -62.5h142.5z"/></svg>