
  <svg height="1000" width="625.0" xmlns="http://www.w3.org/2000/svg">
    <path d="m601.6 187.5h-142.5c11.7 19.1 21 40 27.8 62.5h114.7c12.9 0 23.4 10.5 23.4 23.4v78.2c0 12.9-10.5 23.4-23.4 23.4h-103.2c-14 145.5-120.7 245.2-270.1 249.8l294.7 272c15.6 14.5 5.4 40.7-15.9 40.7h-161.3c-6.1 0-11.7-2.4-15.9-6.2l-322.4-297.6c-4.8-4.4-7.5-10.7-7.5-17.2v-103.5c0-13 10.5-23.5 23.4-23.5h164.1c81.6 0 133.9-44 146-114.5h-310.1c-12.9 0-23.4-10.5-23.4-23.4v-78.2c0-12.9 10.5-23.4 23.4-23.4h285.7c-24.8-33.8-65.8-53.2-119.1-53.2h-166.6c-12.9 0-23.4-10.5-23.4-23.5v-87.4c0-12.9 10.5-23.4 23.4-23.4h578.2c12.9 0 23.4 10.5 23.4 23.4v78.2c0 12.9-10.5 23.4-23.4 23.4z" />
  </svg>
