<svg height="1000" width="968.8" xmlns="http://www.w3.org/2000/svg"><path d="M484.4 15.6C216.8 15.6 0 232.4 0 500c0 176 94.1 329.5 234.4 414.3V562.5c0 -17.2 14 -31.2 31.2 -31.2s31.3 14 31.3 31.2v384.2c57.6 24.2 121.1 37.7 187.5 37.7s129.9 -13.5 187.5 -37.7V562.5c0 -17.2 14 -31.2 31.2 -31.2s31.3 14 31.3 31.2v351.8C874.6 829.5 968.8 675.8 968.8 500 968.8 232.4 752 15.6 484.4 15.6zm-128 422.9c-28.9 -25.8 -90.2 -25.8 -119.1 0l-18.5 16.6c-7.5 6.4 -18.2 7.8 -26.8 3.1 -8.6 -4.7 -13.5 -14.4 -11.9 -24.2 7.8 -49.2 66.8 -82.2 117 -82.2s109.2 33 117 82.2c1.5 9.8 -3.4 19.5 -12 24.2 -11.3 6.1 -21.8 1.4 -26.7 -3.1l-19 -16.6zm128 374c-51.8 0 -93.8 -56.1 -93.8 -125s42 -125 93.8 -125 93.7 56.1 93.7 125 -42 125 -93.7 125zM777 458c-11.4 6.1 -21.9 1.4 -26.8 -3.1l-18.6 -16.6c-28.9 -25.8 -90.2 -25.8 -119.1 0l-18.7 16.8c-7.5 6.4 -18.2 7.8 -26.8 3.1 -8.6 -4.7 -13.5 -14.4 -11.9 -24.2 7.8 -49.2 66.8 -82.2 117 -82.2s109.2 33 117 82.2c1.1 9.6 -3.6 19.3 -12.1 24z"/></svg>