
  <svg height="1000" width="968.8" xmlns="http://www.w3.org/2000/svg">
    <path d="m484.4 15.6c267.6 0 484.4 216.8 484.4 484.4s-216.8 484.4-484.4 484.4-484.4-216.8-484.4-484.4 216.8-484.4 484.4-484.4z m156.2 328.2c-34.5 0-62.5 27.9-62.5 62.5s28 62.5 62.5 62.5 62.5-28 62.5-62.5-27.9-62.5-62.5-62.5z m-343.7 468.7c51.7 0 93.7-41 93.7-91.8 0-39.1-55.6-118-81.2-151.9-6.3-8.4-18.8-8.4-25 0-25.6 33.9-81.3 112.8-81.3 151.9 0 50.8 42 91.8 93.8 91.8z m31.2-343.7c34.6 0 62.5-28 62.5-62.5s-27.9-62.5-62.5-62.5-62.5 27.9-62.5 62.5 28 62.5 62.5 62.5z m332.4 301.1c26 31.5 74.9-7.8 47.9-39.8-55.5-66.8-137.3-105.1-224-105.1-41.4 0-41.4 62.5 0 62.5 68.1 0 132.4 30.1 176.1 82.4z" />
  </svg>
