
  <svg height="1000" width="968.8" xmlns="http://www.w3.org/2000/svg">
    <path d="m484.4 15.6c267.6 0 484.4 216.8 484.4 484.4 0 175.8-94.2 329.5-234.4 414.3v-351.8c0-17.2-14.1-31.2-31.3-31.2s-31.2 14-31.2 31.2v384.2c-57.6 24.2-121.1 37.7-187.5 37.7s-129.9-13.5-187.5-37.7v-384.2c0-17.2-14.1-31.2-31.3-31.2s-31.2 14-31.2 31.2v351.8c-140.3-84.8-234.4-238.3-234.4-414.3 0-267.6 216.8-484.4 484.4-484.4z m-128 422.9l19 16.6c4.9 4.5 15.4 9.2 26.7 3.1 8.6-4.7 13.5-14.4 12-24.2-7.8-49.2-66.8-82.2-117-82.2-50.2 0-109.2 33-117 82.2-1.6 9.8 3.3 19.5 11.9 24.2 8.6 4.7 19.3 3.3 26.8-3.1l18.5-16.6c28.9-25.8 90.2-25.8 119.1 0z m128 374c51.7 0 93.7-56.1 93.7-125s-42-125-93.7-125-93.8 56.1-93.8 125 42 125 93.8 125z m292.6-354.5c8.5-4.7 13.2-14.4 12.1-24-7.8-49.2-66.8-82.2-117-82.2-50.2 0-109.2 33-117 82.2-1.6 9.8 3.3 19.5 11.9 24.2 8.6 4.7 19.3 3.3 26.8-3.1l18.7-16.8c28.9-25.8 90.2-25.8 119.1 0l18.6 16.6c4.9 4.5 15.4 9.2 26.8 3.1z" />
  </svg>
