<svg height="1000" width="968.8" xmlns="http://www.w3.org/2000/svg"><path d="M484.4 15.6C216.8 15.6 0 232.4 0 500s216.8 484.4 484.4 484.4S968.8 767.6 968.8 500 752 15.6 484.4 15.6zm156.2 328.2c34.6 0 62.5 27.9 62.5 62.5s-27.9 62.5 -62.5 62.5 -62.5 -28 -62.5 -62.5 28 -62.5 62.5 -62.5zM296.9 812.5c-51.8 0 -93.8 -41 -93.8 -91.8 0 -39.1 55.7 -118 81.3 -151.9 6.2 -8.4 18.7 -8.4 25 0 25.6 33.9 81.2 112.8 81.2 151.9 0 50.8 -42 91.8 -93.7 91.8zm31.2 -343.7c-34.5 0 -62.5 -28 -62.5 -62.5s28 -62.5 62.5 -62.5 62.5 27.9 62.5 62.5 -27.9 62.5 -62.5 62.5zm332.4 301.1c-43.7 -52.3 -108 -82.4 -176.1 -82.4 -41.4 0 -41.4 -62.5 0 -62.5 86.7 0 168.5 38.3 224 105.1 27 32 -21.9 71.3 -47.9 39.8z"/></svg>