
  <svg height="1000" width="1000.0" xmlns="http://www.w3.org/2000/svg">
    <path d="m596.6 903.5c14.4 14.2 12.1 39.2-5.9 48.8-151.8 81.7-345.1 58.4-473.3-69.7-128.1-128.1-151.4-321.3-69.7-473.3 9.5-17.8 34.5-20.1 48.8-5.9l228.2 228.2 53.5-53.5c-1.4-5.1-3.1-9.8-3.1-15.3 0-34.5 28-62.5 62.5-62.5 34.5 0 62.5 28 62.5 62.5 0 34.5-28 62.5-62.5 62.5-5.5 0-10.2-1.7-15.3-3.1l-53.5 53.5z m403.4-311.6c0 0.6 0 1.2 0 1.8 0 17.3-14 31.4-31.3 31.4h-62.7c-16.6 0-30.1-13-31.1-29.3-14.6-252.9-217.8-458-470.5-471.7-16.3-0.9-29.3-14.4-29.3-30.9 0-0.1 0-0.1 0-0.2v-61.7c0-17.3 14.1-31.3 31.4-31.3 0.6 0 1.2 0 1.8 0 318.8 16.8 575 273.1 591.7 591.9z m-187.6-0.6c0.1 0.8 0.1 1.5 0.1 2.2 0 17.4-14.1 31.6-31.5 31.6h-62.9c-16.4-0.1-29.7-12.7-31.1-28.7-13.5-150.4-133-271.3-283-283.6-16.2-1.2-28.9-14.6-28.9-31.1v-62.7 0c0-17.4 14.1-31.5 31.5-31.5 0.7 0 1.5 0 2.2 0.1 215.1 16.6 387.2 188.7 403.6 403.7z" />
  </svg>
