
  <svg height="1000" width="1000.0" xmlns="http://www.w3.org/2000/svg">
    <path d="m981.7 605.6l-188.9 188.9c-11.3 11.2-26.8 18.1-44 18.1-17.1 0-32.7-6.9-43.9-18.1l-156.9-157.1-19.3 19.3c21.2 46.9 33.1 98.9 33.1 153.6 0 63.2-15.9 123.4-43.7 175.6-8.8 16.6-32 18.7-45.3 5.4l-210-209.9-34.8 34.7c1.4 5.1 3.2 9.8 3.2 15.2 0 34.5-28 62.6-62.5 62.6s-62.6-28.1-62.6-62.6 28.1-62.5 62.6-62.5c5.4 0 10.1 1.8 15.2 3.2l34.7-34.8-209.9-210c-13.3-13.3-11.2-36.3 5.4-45.3 52.2-27.8 111.7-43.6 174.9-43.6 54.8 0 107.4 11.8 154.3 33l19.1-19.1-156.8-157.1c-11.3-11.3-18.2-26.8-18.2-44s6.9-32.7 18.2-44l188.9-188.9c11.1-11.3 26.6-18.2 43.7-18.2 0.1 0 0.1 0 0.2 0h0.1c17.2 0 32.7 6.9 44 18.2l156.9 156.8 93.4-93.5c11.9-11.9 28.3-19.3 46.4-19.3 18.1 0 34.5 7.4 46.4 19.3l92.8 92.7c11.8 11.9 19.2 28.3 19.2 46.4s-7.4 34.5-19.2 46.4l-93.4 93.6 156.9 157c11.2 11.3 18.1 26.8 18.1 43.9 0 17.2-7 32.8-18.3 44z m-552.9-220l144.2-144.2-134.6-134.5-144.1 144.1z m464.4 176l-134.6-134.6-144.2 144.2 134.6 134.6z" />
  </svg>
