
  <svg height="1000" width="875.0" xmlns="http://www.w3.org/2000/svg">
    <path d="m847.5 253.8c17 17 27.5 40.4 27.5 66.3v523.6c0 51.8-42 93.8-93.8 93.8h-687.5c-51.7 0-93.7-42-93.7-93.8v-687.5c0-51.7 42-93.7 93.7-93.7h523.7c25.9 0 49.3 10.5 66.3 27.5z m-410 558.7c69 0 125-56 125-125s-56-125-125-125-125 56-125 125 56 125 125 125z m187.5-594.8c0-6.4-2.6-12.3-6.9-16.5l-6.8-6.8c-4.4-4.4-10.3-6.9-16.5-6.9h-446.4c-12.9 0-23.4 10.5-23.4 23.4v203.2c0 12.9 10.5 23.4 23.4 23.4h453.2c12.9 0 23.4-10.5 23.4-23.4v-196.4z" />
  </svg>
