
  <svg height="1000" width="1250.0" xmlns="http://www.w3.org/2000/svg">
    <path d="m0 437.5c0-34.5 28-62.5 62.5-62.5h125v625h-156.2c-17.3 0-31.3-14-31.3-31.2v-531.3z m703.1-93.7c8.7 0 15.7 6.9 15.7 15.6v31.2c0 8.7-7 15.7-15.7 15.7h-93.7c-8.7 0-15.6-7-15.6-15.7v-125c0-8.6 6.9-15.6 15.6-15.6h31.2c8.7 0 15.7 7 15.7 15.6v78.2h46.8z m269.1-125c17.4 11.6 27.8 31.1 27.8 52v729.2h-250v-281.3c0-17.2-14-31.2-31.2-31.2h-187.5c-17.3 0-31.3 14-31.3 31.2v281.3h-250v-729.2c0-21.7 11-40.8 27.8-52l312.5-208.3c9.9-6.6 22-10.5 34.8-10.5s24.7 3.9 34.6 10.5z m-347.2 281.2c86.3 0 156.3-70 156.3-156.2s-70-156.3-156.3-156.3-156.2 70-156.2 156.3 69.9 156.2 156.2 156.2z m562.5-125c34.5 0 62.5 28 62.5 62.5v531.3c0 17.2-14 31.2-31.2 31.2h-156.3v-625h125z" />
  </svg>
