<svg height="1000" width="1250" xmlns="http://www.w3.org/2000/svg"><path d="M0 437.5v531.3C0 986 14 1000 31.3 1000h156.2V375h-125C28 375 0 403 0 437.5zm703.1 -93.7h-46.8v-78.2c0 -8.6 -7 -15.6 -15.7 -15.6h-31.2c-8.7 0 -15.6 7 -15.6 15.6v125c0 8.7 6.9 15.7 15.6 15.7h93.7c8.7 0 15.7 -7 15.7 -15.7v-31.2c0 -8.7 -7 -15.6 -15.7 -15.6zm269.1 -125L659.7 10.5a62.5 -62.5 0 0 1 -69.4 0L277.8 218.8a62.5 -62.5 0 0 1 -27.8 52V1000h250V718.8c0 -17.3 14 -31.3 31.3 -31.3h187.5c17.2 0 31.2 14 31.2 31.3V1000h250V270.8c0 -20.9 -10.4 -40.4 -27.8 -52zM625 500C538.7 500 468.8 430 468.8 343.8S538.7 187.5 625 187.5s156.3 70 156.3 156.3S711.3 500 625 500zm562.5 -125h-125v625h156.3c17.2 0 31.2 -14 31.2 -31.2V437.5C1250 403 1222 375 1187.5 375z"/></svg>