
  <svg height="1000" width="1000.0" xmlns="http://www.w3.org/2000/svg">
    <path d="m986.4 864.6c18.2 18.3 18.2 48-0.2 66.4l-55.3 55.2c-18.1 18.4-47.8 18.4-66.2 0l-194.7-194.7c-8.8-8.8-13.7-20.7-13.7-33.2v-31.8c-68.9 53.9-155.7 85.9-250 85.9-224.4 0-406.3-181.8-406.3-406.2 0-224.4 181.9-406.2 406.3-406.2 224.4 0 406.3 181.8 406.3 406.2 0 94.3-32.1 181-86 250h31.9c12.5 0 24.4 4.9 33.2 13.7z m-580.1-177.2c155.6 0 281.2-125.9 281.2-281.2 0-155.5-125.9-281.2-281.2-281.2-155.6 0-281.3 125.9-281.3 281.2 0 155.6 125.9 281.2 281.3 281.2z m52.9-297.9c36.4 10.9 61.7 45.7 61.7 84.7 0 47.9-37.2 86.8-83.3 88.1v31.5c0 8.6-7 15.6-15.6 15.6h-31.3c-8.6 0-15.6-7-15.6-15.6v-31.9c-22.1-1.1-43.5-8.8-61.3-22.1-7.6-5.8-8-17.2-1.1-23.7l22.9-21.9c5.5-5.2 13.5-5.4 19.8-1.5 7.6 4.8 16.2 7.3 25.1 7.3h54.9c12.6 0 23-11.6 23-25.8 0-11.6-7.1-21.8-17.1-24.8l-87.9-26.4c-36.3-10.9-61.7-45.7-61.7-84.7 0-47.9 37.2-86.8 83.3-88.1v-31.4c0-8.7 7-15.7 15.7-15.7h31.2c8.6 0 15.6 7 15.6 15.7v31.8c22.1 1.1 43.5 8.8 61.3 22.1 7.6 5.8 8 17.2 1.1 23.7l-22.9 21.9c-5.4 5.2-13.5 5.4-19.8 1.5-7.6-4.8-16.1-7.3-25.1-7.3h-54.9c-12.6 0-23 11.6-23 25.8 0 11.6 7 21.8 17.1 24.8z" />
  </svg>
