
  <svg height="1000" width="1000.0" xmlns="http://www.w3.org/2000/svg">
    <path d="m593.8 375v62.5c0 12.9-10.6 23.4-23.5 23.4h-109.4v109.4c0 12.9-10.5 23.5-23.4 23.5h-62.5c-12.9 0-23.4-10.6-23.4-23.5v-109.4h-109.4c-12.9 0-23.4-10.5-23.4-23.4v-62.5c0-12.9 10.5-23.4 23.4-23.4h109.4v-109.4c0-12.9 10.5-23.4 23.4-23.4h62.5c12.9 0 23.4 10.5 23.4 23.4v109.4h109.4c12.9 0 23.5 10.5 23.5 23.4z m392.5 556.1l-55.2 55.2c-18.4 18.4-48.1 18.4-66.3 0l-194.9-194.7c-8.8-8.8-13.6-20.7-13.6-33.2v-31.8c-69 53.9-155.7 85.9-250 85.9-224.5 0-406.3-181.8-406.3-406.2s181.8-406.3 406.3-406.3 406.2 181.8 406.2 406.3c0 94.3-32 181-85.9 250h31.8c12.5 0 24.4 4.8 33.2 13.6l194.7 194.7c18.2 18.4 18.2 48.1 0 66.5z m-314.4-524.8c0-146.9-118.8-265.7-265.6-265.7s-265.7 118.8-265.7 265.7 118.8 265.6 265.7 265.6 265.6-118.8 265.6-265.6z" />
  </svg>
