<svg height="1000" width="1000" xmlns="http://www.w3.org/2000/svg"><path d="M986.3 864.6L791.6 669.9c-8.8 -8.8 -20.7 -13.6 -33.2 -13.6h-31.8c53.9 -69 85.9 -155.7 85.9 -250C812.5 181.8 630.7 0 406.3 0S0 181.8 0 406.3s181.8 406.2 406.3 406.2c94.3 0 181 -32 250 -85.9v31.8c0 12.5 4.8 24.4 13.6 33.2l194.7 194.7c18.4 18.4 48.1 18.4 66.3 0l55.2 -55.2c18.4 -18.4 18.4 -48.1 .2 -66.5zm-580 -208.3c-138.1 0 -250 -111.8 -250 -250 0 -138.1 111.7 -250 250 -250 138 0 250 111.7 250 250 0 138 -111.8 250 -250 250z"/></svg>