
  <svg height="1000" width="1000.0" xmlns="http://www.w3.org/2000/svg">
    <path d="m986.4 864.6c18.2 18.3 18.2 48-0.2 66.4l-55.3 55.2c-18.1 18.4-47.8 18.4-66.2 0l-194.7-194.7c-8.8-8.8-13.7-20.7-13.7-33.2v-31.8c-68.9 53.9-155.7 85.9-250 85.9-224.4 0-406.3-181.8-406.3-406.2 0-224.4 181.9-406.2 406.3-406.2 224.4 0 406.3 181.8 406.3 406.2 0 94.3-32.1 181-86 250h31.9c12.5 0 24.4 4.9 33.2 13.7z m-580.1-177.2c155.6 0 281.2-125.9 281.2-281.2 0-155.5-125.9-281.2-281.2-281.2-155.6 0-281.3 125.9-281.3 281.2 0 155.6 125.9 281.2 281.3 281.2z m0-468.6c79.7 0 144.2 64.5 144.2 144.1 0 64.4-94.2 181.8-130.3 224.4-3.3 3.9-8.3 6.5-13.9 6.5-5.5 0-10.5-2.6-13.8-6.5-36.1-42.6-130.4-160-130.4-224.4 0-79.6 64.6-144.2 144.2-144.2z m0 187.5c25.9 0 46.9-21 46.9-46.9 0-25.9-21-46.9-46.9-46.9s-46.8 21-46.8 46.9c0 25.9 20.9 46.9 46.8 46.9z" />
  </svg>
