
  <svg height="1000" width="1000.0" xmlns="http://www.w3.org/2000/svg">
    <path d="m986.3 864.6c18.2 18.4 18.2 48.1-0.2 66.5l-55.2 55.2c-18.2 18.4-47.9 18.4-66.3 0l-194.7-194.7c-8.8-8.8-13.7-20.7-13.7-33.2v-31.8c-68.9 53.9-155.6 85.9-250 85.9-224.4 0-406.2-181.8-406.2-406.2s181.8-406.3 406.2-406.3 406.3 181.8 406.3 406.3c0 94.3-32 181-85.9 250h31.8c12.5 0 24.4 4.8 33.2 13.6z m-580-208.3c138.2 0 250-112 250-250 0-138.3-112-250-250-250-138.3 0-250 111.9-250 250 0 138.2 111.9 250 250 250z" />
  </svg>
