
  <svg height="1000" width="1000.0" xmlns="http://www.w3.org/2000/svg">
    <path d="m937.5 312.5h-875c-34.5 0-62.5-28-62.5-62.5v-125c0-34.5 28-62.5 62.5-62.5h875c34.5 0 62.5 28 62.5 62.5v125c0 34.5-28 62.5-62.5 62.5z m-93.7-171.9c-25.9 0-46.9 21-46.9 46.9s21 46.9 46.9 46.9 46.8-21 46.8-46.9-21-46.9-46.8-46.9z m-125 0c-25.9 0-46.9 21-46.9 46.9s21 46.9 46.9 46.9 46.8-21 46.8-46.9-21-46.9-46.8-46.9z m218.7 484.4h-875c-34.5 0-62.5-28-62.5-62.5v-125c0-34.5 28-62.5 62.5-62.5h875c34.5 0 62.5 28 62.5 62.5v125c0 34.5-28 62.5-62.5 62.5z m-93.7-171.9c-25.9 0-46.9 21-46.9 46.9s21 46.9 46.9 46.9 46.8-21 46.8-46.9-21-46.9-46.8-46.9z m-125 0c-25.9 0-46.9 21-46.9 46.9s21 46.9 46.9 46.9 46.8-21 46.8-46.9-21-46.9-46.8-46.9z m218.7 484.4h-875c-34.5 0-62.5-28-62.5-62.5v-125c0-34.5 28-62.5 62.5-62.5h875c34.5 0 62.5 28 62.5 62.5v125c0 34.5-28 62.5-62.5 62.5z m-93.7-171.9c-25.9 0-46.9 21-46.9 46.9s21 46.9 46.9 46.9 46.8-21 46.8-46.9-21-46.9-46.8-46.9z m-125 0c-25.9 0-46.9 21-46.9 46.9s21 46.9 46.9 46.9 46.8-21 46.8-46.9-21-46.9-46.8-46.9z" />
  </svg>
