<svg height="1000" width="1125" xmlns="http://www.w3.org/2000/svg"><path d="M1110.3 346.6L829.1 612.2c-29.7 28 -79.1 7.2 -79.1 -34.1V437.5c-282.4 1.9 -401.5 68.6 -321.8 334.7 8.7 29.3 -25.1 51.9 -48.9 33.9C303.2 748.3 234.4 637.7 234.4 526.1c0 -281.2 229.7 -337 515.6 -338.5V46.9c0 -41.4 49.4 -62 79.1 -34.1l281.2 265.6c19.6 18.5 19.6 49.7 0 68.2zM750 740.5V875H125V250h99.4a23.4 -23.4 0 0 1 16.9 -7.2c29.2 -30.4 63 -54.5 99.7 -73.6C362.7 157.9 354.7 125 330.1 125H93.8C42 125 0 167 0 218.8v687.5C0 958 42 1000 93.8 1000h687.5c51.7 0 93.7 -42 93.7 -93.7V732.8c0 -16.2 -16 -27.5 -31.3 -22.1a140.3 -140.3 0 0 0 -66.7 6.6c-14.2 -2 -27 8.8 -27 23.2z"/></svg>