
  <svg height="1000" width="1125.0" xmlns="http://www.w3.org/2000/svg">
    <path d="m1110.3 346.6l-281.2 265.6c-29.7 28-79.1 7.2-79.1-34.1v-140.6c-282.4 1.9-401.5 68.6-321.8 334.7 8.7 29.3-25.1 51.9-48.9 33.9-76.1-57.8-144.9-168.4-144.9-280 0-281.2 229.7-337 515.6-338.5v-140.7c0-41.4 49.4-62 79.1-34.1l281.2 265.6c19.6 18.5 19.6 49.7 0 68.2z m-360.3 393.9c0-14.4 12.8-25.2 27-23.2 6.5 1 13.2 1.4 20 1.4 16.4 0 32.1-2.8 46.7-8 15.3-5.4 31.3 5.9 31.3 22.1v173.4c0 51.8-42 93.8-93.8 93.8h-687.5c-51.7 0-93.7-42-93.7-93.8v-687.5c0-51.7 42-93.7 93.7-93.7h236.4c24.6 0 32.6 32.9 10.9 44.2-36.7 19.1-70.5 43.2-99.7 73.6-4.2 4.4-10.2 7.2-16.9 7.2h-99.4v625h625v-134.5z" />
  </svg>
