
  <svg height="1000" width="875.0" xmlns="http://www.w3.org/2000/svg">
    <path d="m687.5 625c103.6 0 187.5 83.9 187.5 187.5s-83.9 187.5-187.5 187.5-187.5-83.9-187.5-187.5c0 0 0 0.1 0 0.1 0-14 1.5-27.7 4.4-40.8l-200.1-125.1c-32.1 25.5-72.6 40.8-116.8 40.8-103.6 0-187.5-83.9-187.5-187.5s83.9-187.5 187.5-187.5c44.2 0 84.7 15.3 116.8 40.8l200.1-125.1c-2.9-13.1-4.4-26.7-4.4-40.7 0-103.6 83.9-187.5 187.5-187.5s187.5 83.9 187.5 187.5-83.9 187.5-187.5 187.5c-44.2 0-84.7-15.3-116.8-40.8l-200.1 125.1c2.9 13.1 4.4 26.6 4.4 40.6s-1.5 27.7-4.4 40.8l200.1 125.1c32.1-25.5 72.6-40.8 116.8-40.8z" />
  </svg>
