<svg height="1000" width="875" xmlns="http://www.w3.org/2000/svg"><path d="M687.5 625c-44.2 0 -84.7 15.3 -116.8 40.8L370.6 540.7a188.6 -188.6 0 0 1 0 -81.4L570.7 334.2c32.1 25.5 72.6 40.8 116.8 40.8C791.1 375 875 291.1 875 187.5S791.1 0 687.5 0 500 83.9 500 187.5c0 14 1.5 27.6 4.4 40.7L304.3 353.3C272.2 327.8 231.7 312.5 187.5 312.5 83.9 312.5 0 396.4 0 500s83.9 187.5 187.5 187.5c44.2 0 84.7 -15.3 116.8 -40.8l200.1 125.1a188.1 -188.1 0 0 1 -4.4 40.7c0 103.6 83.9 187.5 187.5 187.5S875 916.1 875 812.5 791.1 625 687.5 625z"/></svg>