
  <svg height="1000" width="875.0" xmlns="http://www.w3.org/2000/svg">
    <path d="m484.4 328.1c0-60.4-49-109.3-109.4-109.3h-218.7v687.5c0 17.2-14 31.2-31.3 31.2h-93.7c-17.3 0-31.3-14-31.3-31.2v-796.9c0-25.9 21-46.9 46.9-46.9h328.1c146.7 0 265.6 118.9 265.6 265.6v328.2c0 17.2-14 31.2-31.2 31.2h-93.8c-17.2 0-31.2-14-31.2-31.2v-328.2z m359.4-265.6c17.2 0 31.2 14 31.2 31.3v578.1c0 146.7-118.9 265.6-265.6 265.6h-328.1c-25.9 0-46.9-21-46.9-46.9v-546.8c0-17.3 14-31.3 31.2-31.3h93.8c17.2 0 31.2 14 31.2 31.3v437.5h218.8c60.4 0 109.4-49 109.4-109.4v-578.1c0-17.3 13.9-31.3 31.2-31.3h93.8z" />
  </svg>
