<svg height="1000" width="875" xmlns="http://www.w3.org/2000/svg"><path d="M484.4 328.1v328.2c0 17.2 14 31.2 31.2 31.2h93.8c17.2 0 31.2 -14 31.2 -31.2V328.1C640.6 181.4 521.7 62.5 375 62.5H46.9C21 62.5 0 83.5 0 109.4v796.9c0 17.2 14 31.2 31.3 31.2H125c17.3 0 31.3 -14 31.3 -31.2V218.8H375c60.4 0 109.4 48.9 109.4 109.3zM843.8 62.5H750c-17.3 0 -31.2 14 -31.2 31.3v578.1c0 60.4 -49 109.4 -109.4 109.4H390.6V343.8c0 -17.3 -14 -31.3 -31.2 -31.3h-93.8c-17.2 0 -31.2 14 -31.2 31.3v546.8c0 25.9 21 46.9 46.9 46.9h328.1C756.1 937.5 875 818.6 875 671.9V93.8C875 76.5 861 62.5 843.8 62.5z"/></svg>