
  <svg height="1000" width="1000.0" xmlns="http://www.w3.org/2000/svg">
    <path d="m437.5 375c17.2 0 31.3 14 31.3 31.3s-14.1 31.2-31.3 31.2-31.2-14-31.2-31.2 14-31.3 31.2-31.3z m473.6-211.6c33.9 14.2 57.7 47.6 57.7 86.5v0.1c0 432.2-265.5 673.1-432.8 742.8-11.1 4.6-23.4 7.2-36.2 7.2-12.7 0-24.8-2.6-35.9-7.2-209-87.1-432.7-355.1-432.7-742.8 0 0 0 0 0-0.1 0-39 23.9-72.4 57.8-86.5l375-156.2c11.3-4.3 23.5-6.8 36.1-7.2 12.6 0.4 24.8 2.9 36 7.2z m-161.1 336.6c17.2 0 31.3-14 31.3-31.2s-14.1-31.3-31.3-31.3h-23.7c-55.7 0-83.5-67.3-44.2-106.7l16.8-16.7c5.6-5.7 9.1-13.5 9.1-22.1 0-17.3-14-31.3-31.2-31.3-8.6 0-16.5 3.5-22.1 9.2l-16.8 16.7c-39.3 39.4-106.7 11.5-106.7-44.2v-23.7c0-17.2-14-31.2-31.2-31.2s-31.3 14-31.3 31.2v23.7c0 55.7-67.3 83.6-106.6 44.2l-16.8-16.7c-5.6-5.7-13.5-9.2-22.1-9.2-17.2 0-31.2 14-31.2 31.3 0 8.6 3.5 16.4 9.1 22.1l16.8 16.7c39.3 39.4 11.5 106.7-44.2 106.7h-23.7c-17.2 0-31.3 14-31.3 31.2s14.1 31.3 31.3 31.3h23.7c55.7 0 83.5 67.3 44.2 106.7l-16.8 16.7c-5.6 5.7-9.1 13.5-9.1 22.1 0 17.3 14 31.3 31.2 31.3 8.6 0 16.5-3.5 22.1-9.2l16.8-16.7c39.3-39.4 106.6-11.5 106.6 44.2v23.7c0 17.2 14.1 31.2 31.3 31.2s31.2-14 31.2-31.2v-23.7c0-55.7 67.4-83.6 106.7-44.2l16.8 16.7c5.6 5.7 13.5 9.2 22.1 9.2 17.2 0 31.2-14 31.2-31.3 0-8.6-3.5-16.4-9.1-22.1l-16.8-16.7c-39.3-39.4-11.5-106.7 44.2-106.7h23.7z m-187.5 0c17.2 0 31.3 14 31.3 31.3s-14.1 31.2-31.3 31.2-31.2-14-31.2-31.2 14-31.3 31.2-31.3z" />
  </svg>
