
  <svg height="1000" width="1250.0" xmlns="http://www.w3.org/2000/svg">
    <path d="m970 727.8c34.8 86.7 114.3 147.2 233.1 147.2 25.9 0 46.9 21 46.9 46.9v31.2c0 25.9-21 46.9-46.9 46.9-119.2 0-209.9-40.3-279.8-116-28.1 68-95.2 116-173.3 116h-250c-78.1 0-145.2-48-173.3-116-69.9 75.7-160.6 116-279.8 116-25.9 0-46.9-21-46.9-46.9v-31.2c0-25.9 21-46.9 46.9-46.9 120.3 0 198.9-61.9 233.1-147.2l-136.7-136.7c-33-33.1-19.4-89.4 25.1-103.7l81.6-26.3v-273.6c0-34.5 28-62.5 62.5-62.5h125v-78.1c0-25.9 21-46.9 46.9-46.9h281.2c25.9 0 46.9 21 46.9 46.9v78.1h125c34.5 0 62.5 28 62.5 62.5v273.6l81.6 26.3c44.5 14.3 58.1 70.7 25.1 103.7z m-595-477.8v171l230.9-74.2c6-2 12.4-3 19.1-3 6.7 0 13.1 1 19.1 3l230.9 74.2v-171h-500z" />
  </svg>
