<svg height="1000" width="1250" xmlns="http://www.w3.org/2000/svg"><path d="M1218.8 687.5h-31.3V476.4c0 -24.8 -10 -48.7 -27.5 -66.2L964.8 215c-17.5 -17.5 -41.4 -27.5 -66.2 -27.5h-86.1V93.8C812.5 42 770.5 0 718.8 0h-500C167 0 125 42 125 93.8v93.7H15.6C7 187.5 0 194.5 0 203.1v31.3C0 243 7 250 15.6 250h531.3c8.6 0 15.6 7 15.6 15.6v31.3c0 8.6 -7 15.6 -15.6 15.6H78.1c-8.6 0 -15.6 7 -15.6 15.6v31.3c0 8.6 7 15.6 15.6 15.6h406.3c8.6 0 15.6 7 15.6 15.6v31.3c0 8.6 -7 15.6 -15.6 15.6H15.6C7 437.5 0 444.5 0 453.1v31.3C0 493 7 500 15.6 500h406.3c8.6 0 15.6 7 15.6 15.6v31.3c0 8.6 -7 15.6 -15.6 15.6H125v250C125 916 209 1000 312.5 1000S500 916 500 812.5h250C750 916 834 1000 937.5 1000S1125 916 1125 812.5h93.8c17.1 0 31.2 -14.1 31.2 -31.2v-62.5c0 -17.2 -14.1 -31.3 -31.2 -31.3zM312.5 906.3c-51.8 0 -93.7 -42 -93.7 -93.8s41.9 -93.7 93.7 -93.7 93.8 41.9 93.8 93.7 -42 93.8 -93.8 93.8zm625 0c-51.8 0 -93.7 -42 -93.7 -93.8s41.9 -93.7 93.7 -93.7 93.8 41.9 93.8 93.7 -42 93.8 -93.8 93.8zM1093.8 500H812.5V281.3h86.1l195.2 195.1V500z"/></svg>