<svg height="1000" width="1250" xmlns="http://www.w3.org/2000/svg"><path d="M970 727.8l136.7 -136.7c33 -33 19.4 -89.4 -25.1 -103.7L1000 461.1V187.5C1000 153 972 125 937.5 125h-125V46.9C812.5 21 791.5 0 765.6 0H484.4c-25.9 0 -46.9 21 -46.9 46.9V125h-125C278 125 250 153 250 187.5v273.6l-81.6 26.3c-44.5 14.3 -58.1 70.6 -25.1 103.7L280 727.8C245.8 813.1 167.2 875 46.9 875 21 875 0 896 0 921.9v31.2C0 979 21 1000 46.9 1000c119.2 0 209.9 -40.3 279.8 -116 28.1 68 95.2 116 173.3 116h250c78.1 0 145.2 -48 173.3 -116 69.9 75.7 160.6 116 279.8 116 25.9 0 46.9 -21 46.9 -46.9v-31.2C1250 896 1229 875 1203.1 875 1084.3 875 1004.8 814.5 970 727.8zM375 250h500v171L644.1 346.8a62.5 -62.5 0 0 1 -38.2 0L375 421V250z"/></svg>