<svg height="1000" width="1250" xmlns="http://www.w3.org/2000/svg"><path d="M375 312.5h62.5v-250H375c-69 0 -125 56 -125 125s56 125 125 125zM0 812.5c0 69 56 125 125 125h62.5v-250H125c-69 0 -125 56 -125 125zm659.1 -250c-68.2 0 -148.7 25.6 -204.5 62.5 -48.5 32 -87 62.5 -204.6 62.5v250l112.4 31.2c51.2 14.2 103.5 25.6 156.8 29.4 63.9 4.5 128.1 1.3 190.6 -12.1C923.6 940 1000 838.3 1000 750 1000 625 835.6 562.5 659.1 562.5zM959.8 14C897.3 .6 833.1 -2.6 769.2 1.9 715.9 5.7 663.6 17.1 612.4 31.3L500 62.5v250c117.6 0 156.1 30.5 204.6 62.5 55.8 36.9 136.3 62.5 204.5 62.5C1085.6 437.5 1250 375 1250 250 1250 161.7 1173.6 60 959.8 14z"/></svg>