
  <svg height="1000" width="1250.0" xmlns="http://www.w3.org/2000/svg">
    <path d="m375 312.5c-69 0-125-56-125-125s56-125 125-125h62.5v250h-62.5z m-375 500c0-69 56-125 125-125h62.5v250h-62.5c-69 0-125-56-125-125z m659.1-250c176.5 0 340.9 62.5 340.9 187.5 0 88.3-76.4 190-290.2 236-62.5 13.4-126.7 16.6-190.6 12.1-53.3-3.8-105.6-15.2-156.8-29.4l-112.4-31.2v-250c117.6 0 156.1-30.5 204.6-62.5 55.8-36.9 136.3-62.5 204.5-62.5z m300.7-548.5c213.8 46 290.2 147.7 290.2 236 0 125-164.4 187.5-340.9 187.5-68.2 0-148.7-25.6-204.5-62.5-48.5-32-87-62.5-204.6-62.5v-250l112.4-31.2c51.2-14.2 103.5-25.6 156.8-29.4 63.9-4.5 128.1-1.3 190.6 12.1z" />
  </svg>
