<svg height="1000" width="875" xmlns="http://www.w3.org/2000/svg"><path d="M687.5 312.5V250C687.5 112.1 575.3 0 437.5 0c-137.9 0 -250 112.1 -250 250v62.5H0v531.3C0 930 70 1000 156.3 1000h562.5C805 1000 875 930 875 843.8V312.5H687.5zM312.5 250c0 -68.9 56.1 -125 125 -125s125 56.1 125 125v62.5h-250V250zM625 484.4c-25.9 0 -46.9 -21 -46.9 -46.9s21 -46.9 46.9 -46.9 46.9 21 46.9 46.9 -21 46.9 -46.9 46.9zm-375 0c-25.9 0 -46.9 -21 -46.9 -46.9s21 -46.9 46.9 -46.9 46.9 21 46.9 46.9 -21 46.9 -46.9 46.9z"/></svg>