
  <svg height="1000" width="875.0" xmlns="http://www.w3.org/2000/svg">
    <path d="m687.5 312.5h187.5v531.3c0 86.2-70 156.2-156.2 156.2h-562.5c-86.3 0-156.3-70-156.3-156.2v-531.3h187.5v-62.5c0-137.9 112.1-250 250-250 137.8 0 250 112.1 250 250v62.5z m-375-62.5v62.5h250v-62.5c0-68.9-56.1-125-125-125s-125 56.1-125 125z m312.5 234.4c25.9 0 46.9-21 46.9-46.9s-21-46.9-46.9-46.9-46.9 21-46.9 46.9 21 46.9 46.9 46.9z m-375 0c25.9 0 46.9-21 46.9-46.9s-21-46.9-46.9-46.9-46.9 21-46.9 46.9 21 46.9 46.9 46.9z" />
  </svg>
