
  <svg height="1000" width="1125.0" xmlns="http://www.w3.org/2000/svg">
    <path d="m1031.5 588.5c-4.9 21.4-23.8 36.5-45.7 36.5h-572.6l12.8 62.5h524.3c30 0 52.3 27.9 45.7 57.3l-10.8 47.4c36.5 17.7 61.7 55.1 61.7 98.4 0 60.4-49 109.4-109.4 109.4s-109.4-49-109.4-109.4c0-30.6 12.6-58.2 32.9-78.1h-409.5c20.3 19.9 32.9 47.5 32.9 78.1 0 60.4-49 109.4-109.4 109.4s-109.4-49-109.4-109.4c0-40.6 22.1-76 55-94.8l-137.2-670.8h-136.5c-25.9 0-46.9-21-46.9-46.9v-31.2c0-25.9 21-46.9 46.9-46.9h200.2c22.3 0 41.5 15.7 46 37.5l17.9 87.5h767.1c30.1 0 52.4 27.9 45.7 57.3z" />
  </svg>
