<svg height="1000" width="1000" xmlns="http://www.w3.org/2000/svg"><path d="M761.1 264.8L452.3 573.6c-18.3 18.3 -47.9 18.3 -66.2 0l-22.2 -22.2c-18.3 -18.3 -18.3 -47.9 0 -66.2l.3 -.3C297.7 406.4 295.5 291.7 357.5 210.8c-23.3 -14.8 -51 -23.3 -80.6 -23.3C193.1 187.5 125 255.6 125 339.4v598.1H0V339.4C0 186.7 124.2 62.5 276.9 62.5c72.1 0 137.9 27.7 187.2 73.1 70.1 -22.5 149.4 -8.8 208.3 41.1l.3 -.3c18.3 -18.3 47.9 -18.3 66.2 0l22.2 22.2c18.3 18.3 18.3 47.9 0 66.2zM750 406.3c0 17.2 -14 31.2 -31.2 31.2s-31.3 -14 -31.3 -31.2 14 -31.3 31.3 -31.3 31.2 14 31.2 31.3zm62.5 0c0 -17.3 14 -31.3 31.3 -31.3s31.2 14 31.2 31.3 -14 31.2 -31.2 31.2 -31.3 -14 -31.3 -31.2zm187.5 0c0 17.2 -14 31.2 -31.2 31.2s-31.3 -14 -31.3 -31.2 14 -31.3 31.3 -31.3 31.2 14 31.2 31.3zm-312.5 62.5c0 17.2 -14 31.2 -31.2 31.2S625 486 625 468.8s14 -31.3 31.3 -31.3 31.2 14 31.2 31.3zm93.8 -31.3c17.2 0 31.2 14 31.2 31.3s-14 31.2 -31.2 31.2S750 486 750 468.8s14 -31.3 31.3 -31.3zm156.2 31.3c0 17.2 -14 31.2 -31.2 31.2S875 486 875 468.8s14 -31.3 31.3 -31.3 31.2 14 31.2 31.3zM625 531.3c0 17.2 -14 31.2 -31.2 31.2s-31.3 -14 -31.3 -31.2 14 -31.3 31.3 -31.3 31.2 14 31.2 31.3zm62.5 0c0 -17.3 14 -31.3 31.3 -31.3s31.2 14 31.2 31.3 -14 31.2 -31.2 31.2 -31.3 -14 -31.3 -31.2zm187.5 0c0 17.2 -14 31.2 -31.2 31.2s-31.3 -14 -31.3 -31.2 14 -31.3 31.3 -31.3 31.2 14 31.2 31.3zm-250 62.5c0 -17.3 14 -31.3 31.3 -31.3s31.2 14 31.2 31.3 -14 31.2 -31.2 31.2S625 611 625 593.8zm187.5 0c0 17.2 -14 31.2 -31.2 31.2S750 611 750 593.8s14 -31.3 31.3 -31.3 31.2 14 31.2 31.3zM625 656.3c0 17.2 -14 31.2 -31.2 31.2s-31.3 -14 -31.3 -31.2 14 -31.3 31.3 -31.3 31.2 14 31.2 31.3zm125 0c0 17.2 -14 31.2 -31.2 31.2s-31.3 -14 -31.3 -31.2 14 -31.3 31.3 -31.3 31.2 14 31.2 31.3zm-62.5 62.5c0 17.2 -14 31.2 -31.2 31.2S625 736 625 718.8s14 -31.3 31.3 -31.3 31.2 14 31.2 31.3zM625 781.3c0 17.2 -14 31.2 -31.2 31.2s-31.3 -14 -31.3 -31.2 14 -31.3 31.3 -31.3 31.2 14 31.2 31.3z"/></svg>