
  <svg height="1000" width="1000.0" xmlns="http://www.w3.org/2000/svg">
    <path d="m593.8 625c17.2 0 31.2 14 31.2 31.3s-14 31.2-31.2 31.2-31.3-14-31.3-31.2 14-31.3 31.3-31.3z m62.5-187.5c17.2 0 31.2 14 31.2 31.3s-14 31.2-31.2 31.2-31.3-14-31.3-31.2 14-31.3 31.3-31.3z m62.5 125c-17.3 0-31.3-14-31.3-31.2s14-31.3 31.3-31.3 31.2 14 31.2 31.3-14 31.2-31.2 31.2z m-62.5 62.5c-17.3 0-31.3-14-31.3-31.2s14-31.3 31.3-31.3 31.2 14 31.2 31.3-14 31.2-31.2 31.2z m-62.5-125c17.2 0 31.2 14 31.2 31.3s-14 31.2-31.2 31.2-31.3-14-31.3-31.2 14-31.3 31.3-31.3z m250-62.5c-17.3 0-31.3-14-31.3-31.2s14-31.3 31.3-31.3 31.2 14 31.2 31.3-14 31.2-31.2 31.2z m-93.8 31.3c0-17.3 14-31.3 31.3-31.3s31.2 14 31.2 31.3-14 31.2-31.2 31.2-31.3-14-31.3-31.2z m-31.2-93.8c17.2 0 31.2 14 31.2 31.3s-14 31.2-31.2 31.2-31.3-14-31.3-31.2 14-31.3 31.3-31.3z m187.5 62.5c17.2 0 31.2 14 31.2 31.3s-14 31.2-31.2 31.2-31.3-14-31.3-31.2 14-31.3 31.3-31.3z m62.5-62.5c17.2 0 31.2 14 31.2 31.3s-14 31.2-31.2 31.2-31.3-14-31.3-31.2 14-31.3 31.3-31.3z m-125 125c17.2 0 31.2 14 31.2 31.3s-14 31.2-31.2 31.2-31.3-14-31.3-31.2 14-31.3 31.3-31.3z m-62.5 62.5c17.2 0 31.2 14 31.2 31.3s-14 31.2-31.2 31.2-31.3-14-31.3-31.2 14-31.3 31.3-31.3z m-125 125c17.2 0 31.2 14 31.2 31.3s-14 31.2-31.2 31.2-31.3-14-31.3-31.2 14-31.3 31.3-31.3z m-62.5 62.5c17.2 0 31.2 14 31.2 31.3s-14 31.2-31.2 31.2-31.3-14-31.3-31.2 14-31.3 31.3-31.3z m125-125c17.2 0 31.2 14 31.2 31.3s-14 31.2-31.2 31.2-31.3-14-31.3-31.2 14-31.3 31.3-31.3z m42.2-426.5c5.7 5.7 9.2 13.5 9.2 22.1s-3.5 16.5-9.2 22.1l-330.8 330.8c-5.6 5.7-13.5 9.2-22.1 9.2s-16.4-3.5-22.1-9.2l-22.1-22.1c-5.6-5.6-9.1-13.4-9.1-22.1 0-8.6 3.5-16.4 9.1-22l11.1-11.1c-38.6-39.2-62.5-93.1-62.5-152.5 0-37.5 10.4-72.4 27.2-103.2l-19.5-19.5c-20.7-20.7-49.1-33.6-80.7-33.6-5 0-10 0.4-14.9 1-58.6 7.3-99.6 62.1-99.6 121v596.8c0 17.3-14 31.3-31.3 31.3h-62.5c-17.2 0-31.2-14-31.2-31.3v-592c0-132.7 108.4-252.7 241.1-251.7 65.3 0.3 124.5 27 167.3 70l19.5 19.5c30.9-16.6 65.8-27 103.3-27 59.4 0 113.3 23.8 152.5 62.5l11.1-11.1c5.6-5.6 13.4-9.1 22.1-9.1s16.4 3.5 22.1 9.1z" />
  </svg>
