<svg height="1000" width="1000" xmlns="http://www.w3.org/2000/svg"><path d="M986.3 701.2c18.3 18.3 18.3 48 0 66.3L830 923.7c-29.3 29.4 -80 8.8 -80 -33.1v-78.1H635.2a23.4 -23.4 0 0 0 -17.1 -7.4L480.2 657.4 584.4 545.8l103.1 110.5H750v-78.1c0 -41.9 50.7 -62.5 80 -33.2l156.3 156.2zM23.4 343.8h164.1l103.1 110.4L394.8 342.6 256.9 194.9a23.4 -23.4 0 0 1 -17.1 -7.4H23.4C10.5 187.5 0 198 0 210.9v109.4c0 13 10.5 23.5 23.4 23.5zm726.6 0v78c0 42 50.7 62.5 80 33.2L986.3 298.8c18.3 -18.3 18.3 -48 0 -66.3L830 76.3c-29.3 -29.4 -80 -8.8 -80 33.1v78.1H635.2a23.4 -23.4 0 0 1 -17.1 7.4L187.5 656.3H23.4C10.5 656.3 0 666.7 0 679.7v109.4c0 12.9 10.5 23.4 23.4 23.4h216.4c6.5 0 12.7 -2.7 17.1 -7.4L687.5 343.8H750z"/></svg>