
  <svg height="1000" width="1250.0" xmlns="http://www.w3.org/2000/svg">
    <path d="m1228.3 411.4c14 16.9 21.7 38.1 21.7 60v216.1c0 34.5-28 62.5-62.5 62.5h-62.5c0 103.6-83.9 187.5-187.5 187.5s-187.5-83.9-187.5-187.5h-250c0 103.6-83.9 187.5-187.5 187.5s-187.5-83.9-187.5-187.5h-62.5c-34.5 0-62.5-28-62.5-62.5v-562.5c0-34.5 28-62.5 62.5-62.5h831.1c28.9 0 54.8 13.1 72 33.7z m-1103.3-36.4h187.5v-187.5h-187.5v187.5z m187.5 468.8c51.8 0 93.8-42 93.8-93.8s-42-93.7-93.8-93.7-93.7 41.9-93.7 93.7 41.9 93.8 93.7 93.8z m312.5-468.8v-187.5h-187.5v187.5h187.5z m312.5 468.8c51.8 0 93.8-42 93.8-93.8s-42-93.7-93.8-93.7-93.7 41.9-93.7 93.7 41.9 93.8 93.7 93.8z m-187.5-468.8h285.2l-156.3-187.5h-128.9v187.5z" />
  </svg>
