<svg height="1000" width="1250" xmlns="http://www.w3.org/2000/svg"><path d="M1228.3 411.4L965.6 96.2a93.8 -93.8 0 0 1 -72 -33.7H62.5C28 62.5 0 90.5 0 125v562.5C0 722 28 750 62.5 750H125c0 103.6 83.9 187.5 187.5 187.5S500 853.6 500 750h250c0 103.6 83.9 187.5 187.5 187.5S1125 853.6 1125 750h62.5c34.5 0 62.5 -28 62.5 -62.5V471.4c0 -21.9 -7.7 -43.1 -21.7 -60zM125 375V187.5h187.5V375H125zm187.5 468.8c-51.8 0 -93.7 -42 -93.7 -93.8s41.9 -93.7 93.7 -93.7 93.8 41.9 93.8 93.7 -42 93.8 -93.8 93.8zM625 375H437.5V187.5H625V375zm312.5 468.8c-51.8 0 -93.7 -42 -93.7 -93.8s41.9 -93.7 93.7 -93.7 93.8 41.9 93.8 93.7 -42 93.8 -93.8 93.8zM750 375V187.5h128.9L1035.2 375H750z"/></svg>