
  <svg height="1000" width="1250.0" xmlns="http://www.w3.org/2000/svg">
    <path d="m421.9 562.5c17.2 0 31.2 14 31.2 31.3v375c0 17.2-14 31.2-31.2 31.2h-93.8c-17.2 0-31.2-14-31.2-31.2v-375c0-17.3 14-31.3 31.2-31.3h93.8z m-250 187.5c17.2 0 31.2 14 31.2 31.3v187.5c0 17.2-14 31.2-31.2 31.2h-93.8c-17.2 0-31.2-14-31.2-31.2v-187.5c0-17.3 14-31.3 31.2-31.3h93.8z m500-375c17.2 0 31.2 14 31.2 31.3v562.5c0 17.2-14 31.2-31.2 31.2h-93.8c-17.2 0-31.2-14-31.2-31.2v-562.5c0-17.3 14-31.3 31.2-31.3h93.8z m250-187.5c17.2 0 31.2 14 31.2 31.3v750c0 17.2-14 31.2-31.2 31.2h-93.8c-17.2 0-31.2-14-31.2-31.2v-750c0-17.3 14-31.3 31.2-31.3h93.8z m250-187.5c17.2 0 31.2 14 31.2 31.3v937.5c0 17.2-14 31.2-31.2 31.2h-93.8c-17.2 0-31.2-14-31.2-31.2v-937.5c0-17.3 14-31.3 31.2-31.3h93.8z" />
  </svg>
