<svg height="1000" width="1000" xmlns="http://www.w3.org/2000/svg"><path d="M812.5 875H648.4C635.5 875 625 864.5 625 851.6v-78.2c0 -12.9 10.5 -23.4 23.4 -23.4h164.1c34.6 0 62.5 -27.9 62.5 -62.5v-375C875 277.9 847.1 250 812.5 250H648.4C635.5 250 625 239.5 625 226.6v-78.2c0 -12.9 10.5 -23.4 23.4 -23.4h164.1C916 125 1000 209 1000 312.5v375C1000 791 916 875 812.5 875zM720.7 482.4L392.6 154.3c-29.3 -29.3 -80.1 -8.8 -80.1 33.2V375H46.9C20.9 375 0 395.9 0 421.9v187.5c0 26 20.9 46.9 46.9 46.9h265.6v187.5c0 41.9 50.8 62.5 80.1 33.2L720.7 548.8c18.2 -18.3 18.2 -48 0 -66.4z"/></svg>