<svg height="1000" width="1250" xmlns="http://www.w3.org/2000/svg"><path d="M70.3 750h109.4c12.9 0 23.4 10.5 23.4 23.4v203.2c0 12.9 -10.5 23.4 -23.4 23.4H70.3c-12.9 0 -23.4 -10.5 -23.4 -23.4V773.4C46.9 760.5 57.4 750 70.3 750zm226.6 -70.3v296.9c0 12.9 10.5 23.4 23.4 23.4h109.4c12.9 0 23.4 -10.5 23.4 -23.4V679.7c0 -12.9 -10.5 -23.4 -23.4 -23.4H320.3c-12.9 0 -23.4 10.5 -23.4 23.4zm250 -156.3v453.2c0 12.9 10.5 23.4 23.4 23.4h109.4c12.9 0 23.4 -10.5 23.4 -23.4V523.4c0 -12.9 -10.5 -23.4 -23.4 -23.4H570.3c-12.9 0 -23.4 10.5 -23.4 23.4zm250 -218.7v671.9c0 12.9 10.5 23.4 23.4 23.4h109.4c12.9 0 23.4 -10.5 23.4 -23.4V304.7c0 -12.9 -10.5 -23.4 -23.4 -23.4H820.3c-12.9 0 -23.4 10.5 -23.4 23.4zm250 -281.3v953.2c0 12.9 10.5 23.4 23.4 23.4h109.4c12.9 0 23.4 -10.5 23.4 -23.4V23.4C1203.1 10.5 1192.6 0 1179.7 0h-109.4c-12.9 0 -23.4 10.5 -23.4 23.4z"/></svg>