<svg height="1000" width="1000" xmlns="http://www.w3.org/2000/svg"><path d="M968.8 625H789.3c-18.1 0 -38.5 -22.1 -50.3 -55.7C709.2 484.6 645 432 571.4 432c-60.2 0 -114.2 35.2 -148.6 96.1L380.5 208c-11.7 -49.6 -49.8 -83 -94.8 -83s-83.1 33.4 -94.7 83l-81.3 347.1C99 600.5 73.7 625 55.3 625h-24C14 625 0 639 0 656.3v62.5C0 736 14 750 31.3 750h24c82 0 152.7 -66.9 176.1 -166.4l46.5 -198.8 57.2 433.8c3.8 29.4 27 53.6 56.5 56.2 1.9 .1 3.8 .2 5.7 .2 27.5 0 52.1 -18.1 60 -44.8l64.5 -219.4C533.3 578.1 552.7 557 571.4 557c18.7 0 38.2 21.1 50.4 55.7C651.5 697.4 715.7 750 789.3 750h179.5c17.2 0 31.2 -13.9 31.2 -31.2v-62.5C1000 639 986 625 968.8 625z"/></svg>