
  <svg height="1000" width="875.0" xmlns="http://www.w3.org/2000/svg">
    <path d="m178.6 945.3c-0.6-31.3 25.6-56.9 56.9-56.9h121.6v-11.2h-245.8c-31.3 0-57.5-25.6-56.9-56.9 0.6-30.3 25.4-54.7 55.8-54.7h246.9v-11.1h-300.2c-31.3 0-57.5-25.6-56.9-56.9 0.6-30.3 25.3-54.7 55.8-54.7h301.3v-11.2h-244.4c-31.3 0-57.5-25.6-56.9-56.9 0.6-30.3 25.4-54.7 55.8-54.7h329.2l-60.7-44.2c-24.9-18.1-30.4-53-12.3-77.9 18.1-24.9 53-30.4 78-12.3l240.9 175.2c16.8 12.2 27.6 31.9 27.6 54.2v275.6c0 31.1-21.4 58.1-51.6 65.2l-157.2 37c-19.8 4.6-40.2 7.1-61.4 7.1h-209.7c-30.5 0-55.2-24.4-55.8-54.7z m143-440.8l-71-91.3c-18.7-24-14.7-58.5 8.9-77.6 24.3-19.7 60.6-14.8 79.8 9.9l25.4 32.7c-33.4 30.5-30.1 84 6.2 110.4l21.9 15.9h-71.2z m553.4-4.1c0 0.7 0 1.4 0 2.1 0 21.5-10.1 40.6-25.8 52.9l-119.3 92.9v-33.2c0-26.4-12.7-51.3-34-66.8l-240.9-175.3c-24.7-17.9-57.1-17.8-81.5-1.7l-101.6-130.6c-19.3-24.7-15.1-61.1 9.9-79.8 24.3-18.2 58.7-13.7 77.4 10.4l151.8 194.8 8.8-6.9-184.5-236.8c-19.2-24.7-15.1-61.1 9.9-79.9 24.3-18.2 58.8-13.6 77.5 10.4l185.1 237.8 8.8-6.9-150.1-192.8c-19.3-24.7-15.2-61.1 9.9-79.9 24.3-18.2 58.7-13.6 77.4 10.4l202.3 259.8-2.5-75c-1-30.8 23.2-56.6 54-57.6 30.8-1.1 56.6 23.1 57.6 53.9z" />
  </svg>
