<svg height="1000" width="1000" xmlns="http://www.w3.org/2000/svg"><path d="M970.7 533.2L642.6 861.3c-29.3 29.3 -80.1 8.8 -80.1 -33.2V640.6H296.9c-26 0 -46.9 -20.9 -46.9 -46.8V406.3c0 -26 20.9 -46.9 46.9 -46.9h265.6V171.9c0 -41.8 50.6 -62.5 80.1 -33.2l328.1 328.1c18.2 18.4 18.2 48 0 66.4zM375 851.6v-78.2C375 760.5 364.5 750 351.6 750H187.5C152.9 750 125 722.1 125 687.5v-375c0 -34.6 27.9 -62.5 62.5 -62.5h164.1c12.9 0 23.4 -10.5 23.4 -23.4v-78.2C375 135.5 364.5 125 351.6 125H187.5C84 125 0 209 0 312.5v375C0 791 84 875 187.5 875h164.1c12.9 0 23.4 -10.5 23.4 -23.4z"/></svg>