
  <svg height="1000" width="1000.0" xmlns="http://www.w3.org/2000/svg">
    <path d="m812.5 875h-164.1c-12.9 0-23.4-10.5-23.4-23.4v-78.2c0-12.9 10.5-23.4 23.4-23.4h164.1c34.6 0 62.5-27.9 62.5-62.5v-375c0-34.6-27.9-62.5-62.5-62.5h-164.1c-12.9 0-23.4-10.5-23.4-23.4v-78.2c0-12.9 10.5-23.4 23.4-23.4h164.1c103.5 0 187.5 84 187.5 187.5v375c0 103.5-84 187.5-187.5 187.5z m-91.8-392.6c18.2 18.4 18.2 48.1 0 66.4l-328.1 328.2c-29.3 29.3-80.1 8.7-80.1-33.2v-187.5h-265.6c-26 0-46.9-20.9-46.9-46.9v-187.5c0-26 20.9-46.9 46.9-46.9h265.6v-187.5c0-42 50.8-62.5 80.1-33.2z" />
  </svg>
