<svg height="1000" width="875" xmlns="http://www.w3.org/2000/svg"><path d="M178.6 945.3c-.6 -31.3 25.6 -56.9 56.9 -56.9h121.6v-11.2H111.3C80 877.2 53.8 851.6 54.4 820.3 55 790 79.8 765.6 110.2 765.6h246.9v-11.1H56.9C25.6 754.5 -.6 728.9 0 697.6c.6 -30.3 25.3 -54.7 55.8 -54.7h301.3v-11.2H112.7c-31.3 0 -57.5 -25.6 -56.9 -56.9 .6 -30.3 25.4 -54.7 55.8 -54.7h329.2l-60.7 -44.2c-24.9 -18.1 -30.4 -53 -12.3 -77.9 18.1 -24.9 53 -30.4 78 -12.3l240.9 175.2a67 -67 0 0 0 27.6 54.2v275.6c0 31.1 -21.4 58.1 -51.6 65.2l-157.2 37a267.9 -267.9 0 0 0 -61.4 7.1H234.4c-30.5 0 -55.2 -24.4 -55.8 -54.7zm143 -440.8h71.2l-21.9 -15.9c-36.3 -26.4 -39.6 -79.9 -6.2 -110.4l-25.4 -32.7c-19.2 -24.7 -55.5 -29.6 -79.8 -9.9 -23.6 19.1 -27.6 53.6 -8.9 77.6l71 91.3zM875 500.4l-9.8 -297.8c-1 -30.8 -26.8 -55 -57.6 -53.9 -30.8 1 -55 26.8 -54 57.6l2.5 75L553.8 21.5C535.1 -2.5 500.7 -7.1 476.4 11.1 451.3 29.9 447.2 66.3 466.5 91l150.1 192.8 -8.8 6.9L422.7 52.9C404 28.9 369.5 24.3 345.2 42.5c-25 18.8 -29.1 55.2 -9.9 79.9l184.5 236.8 -8.8 6.9L359.2 171.3c-18.7 -24.1 -53.1 -28.6 -77.4 -10.4 -25.1 18.7 -29.2 55.1 -9.9 79.8l101.6 130.6c24.4 -16.1 56.8 -16.2 81.5 1.7l240.9 175.3c21.3 15.5 34 40.4 34 66.8v33.2l119.3 -92.9a67 -67 0 0 1 25.8 -55z"/></svg>