
  <svg height="1000" width="1000.0" xmlns="http://www.w3.org/2000/svg">
    <path d="m970.7 533.2l-328.1 328.1c-29.3 29.3-80.1 8.8-80.1-33.2v-187.5h-265.6c-26 0-46.9-20.9-46.9-46.8v-187.5c0-26 20.9-46.9 46.9-46.9h265.6v-187.5c0-41.8 50.6-62.5 80.1-33.2l328.1 328.1c18.2 18.4 18.2 48 0 66.4z m-595.7 318.4c0 12.9-10.5 23.4-23.4 23.4h-164.1c-103.5 0-187.5-84-187.5-187.5v-375c0-103.5 84-187.5 187.5-187.5h164.1c12.9 0 23.4 10.5 23.4 23.4v78.2c0 12.9-10.5 23.4-23.4 23.4h-164.1c-34.6 0-62.5 27.9-62.5 62.5v375c0 34.6 27.9 62.5 62.5 62.5h164.1c12.9 0 23.4 10.5 23.4 23.4v78.2z" />
  </svg>
