
  <svg height="1000" width="1250.0" xmlns="http://www.w3.org/2000/svg">
    <path d="m1217.2 375c17.8-1.2 32.8 13.9 32.4 31.6v62.7c0 16.6-13.1 29.5-29.7 30.9-76.9 6.2-205.8 99.6-270.3 128.5-67 30.1-130.3 58.6-199.8 58.6-55.1 0-98-16.6-127.9-49.4-44.4-48.6-44.6-108-40.3-163.7-110.3 88.1-330 300-412.5 382.4-11.9 12.2-27.9 18.4-44.1 18.4-52.7 0-71.3-52.7-58-85.7l191.8-479.7c15.6-38.9-27.9-75.8-63.9-53l-113.3 76c-14.6 9.4-33.9 5.1-43.1-9.6l-33.6-52.7c-9.2-14.6-4.9-34 9.6-43.2l107.2-72c149.4-95.1 312.7 52.5 253.3 200.8l-81.1 202.5c205.5-197.7 282.1-243.2 331.1-246.1 106.3-6.1 85.5 133 83.4 148.6-9.2 69.8-2.5 101.4 41.6 101.4 42.8 0 91.8-22.1 148.6-47.7 73.1-32.8 217.4-132.8 318.6-139.6z" />
  </svg>
