
  <svg height="1000" width="750.0" xmlns="http://www.w3.org/2000/svg">
    <path d="m0 125c0-68.9 56.1-125 125-125h375l250 250v625c0 68.9-56.1 125-125 125h-500c-68.9 0-125-56.1-125-125v-750z m437.5 375v-125h-125v125h125z m187.5 0v-62.5c0-34.6-27.9-62.5-62.5-62.5h-62.5v125h125z m-125 250v125h62.5c34.6 0 62.5-27.9 62.5-62.5v-62.5h-125z m-187.5 0v125h125v-125h-125z m-187.5 0v62.5c0 34.6 27.9 62.5 62.5 62.5h62.5v-125h-125z m0-187.5v125h500v-125h-500z m0-125v62.5h125v-125h-62.5c-34.6 0-62.5 27.9-62.5 62.5z" />
  </svg>
