
  <svg height="1000" width="1000.0" xmlns="http://www.w3.org/2000/svg">
    <path d="m62.5 812.5v-62.5h875v62.5c0 103.5-84 187.5-187.5 187.5h-500c-103.5 0-187.5-84-187.5-187.5z m906.3-250c17.2 0 31.2 14 31.2 31.3v62.5c0 17.2-14 31.2-31.2 31.2h-937.5c-17.3 0-31.3-14-31.3-31.2v-62.5c0-17.3 14-31.3 31.3-31.3h187.5v-62.5h-125c-17.3 0-31.3-14-31.3-31.2v-31.3c0-17.2 14-31.2 31.3-31.2h156.2c34.5 0 62.5 28 62.5 62.5v93.7h125v-367.6c0-90.7 61.1-174 150.1-191.3 12.1-2.4 24.4-3.7 37.1-3.7 103.6 0 187.7 84.1 187.8 187.6v31.2c0 17.3-14 31.3-31.2 31.3h-62.5c-17.3 0-31.3-14-31.3-31.3v-31.2c0-34.5-28-62.5-62.5-62.5s-62.5 28-62.5 62.5v375h125v-93.8c0-34.4 28-62.5 62.5-62.5h156.3c17.2 0 31.2 14.1 31.2 31.3v31.2c0 17.3-14 31.3-31.2 31.3h-125v62.5h187.5z" />
  </svg>
