
  <svg height="1000" width="875.0" xmlns="http://www.w3.org/2000/svg">
    <path d="m781.3 0c51.7 0 93.7 42 93.7 93.8s-42 93.7-93.7 93.7-93.8-42-93.8-93.7 42-93.8 93.8-93.8z m0 875c17.1 0 31.2 14.1 31.2 31.3 0 51.7-42 93.7-93.7 93.7h-187.5c-17.2 0-31.3-14.1-31.3-31.2s14.1-31.3 31.3-31.3h187.5c17.1 0 31.2-14.1 31.2-31.2s14.1-31.3 31.3-31.3z m-551.2 16.8c12.3-12.3 32.2-12.1 44.3 0 12.1 12.1 12.1 32 0 44.1-18.1 18.2-42.2 27.4-66.2 27.4-24 0-48-9-66.4-27.4l-132.6-132.6c-12.1-12.1-12.1-32 0-44.1s32-12.1 44.1 0l132.6 132.6c12.1 12.3 32.1 12.1 44.2 0z m109.5-351.2c7.5 11.9 16.1 23.1 25.8 32.8l59 59-179.5 179.5c-12.1 12.3-28.1 18.4-44.1 18.4s-32-6.3-44.2-18.4c-24.4-24.2-24.4-63.9 0-88.3z m-89.6-228.1c-34.6 0-62.5-27.9-62.5-62.5s27.9-62.5 62.5-62.5h399.6c31.8 0 60.2 18.9 72.3 48.2 12.1 29.3 5.4 62.7-17 85.2l-160.8 160.7c-0.9 1-2.3 1.4-3.3 2.2l119.2 119.1c17.5 17.4 27.5 41.6 27.5 66.2v174.6c0 34.6-27.9 62.5-62.5 62.5s-62.5-27.9-62.5-62.5v-161.7l-152.7-152.7c-24.6-24.4-37.9-58.4-36.6-93.2 1.4-34.5 17.2-67.5 43.6-90l39.3-33.6h-206.1z" />
  </svg>
