
  <svg height="1000" width="1000.0" xmlns="http://www.w3.org/2000/svg">
    <path d="m843.8 187.5c-51.8 0-93.8-42-93.8-93.7s42-93.8 93.8-93.8 93.7 42 93.7 93.8-42 93.7-93.7 93.7z m142.5 695.5c18.2 18.2 18.2 47.9 0 66-33.2 33.2-77.7 50.8-123 50.8-24.6 0-49.2-5.1-72.5-15.8l-765.4-395.5c-23.1-11.7-32-40.1-20.1-63.1 11.9-23.1 40.2-31.8 63.1-20.1l386.5 199.8 89.6-134.4-146.6-146.9c-28-28.1-40.3-67.4-34.6-106.2l209 103.7 78.9 79.1c31.6 31.4 36.5 81.2 11.7 118.4l-96.1 144.1 265.2 137.1c28.5 13.1 64.5 6.6 88.1-17 18.2-18.4 47.9-18.4 66.2 0z m-751.9-704.1l-51.2-44.9c-4.3-3.7-4.7-10.2-1-14.5 2.6-2.9 6.3-4.1 9.8-3.3l67.2 13.7h0.4l21.6-42.4c26.8 13.7 41.5 41.2 40.9 69.5l122 60.6 158.6-63.5c85.2-34 149.3 29.3 165.1 76.6l33.4 100 101.7 50.9c30.9 15.5 43.4 53 28 83.8-15.5 30.9-52.8 43.4-83.8 28l-113.5-56.7c-22.3-11.1-39.1-30.4-46.9-54.1l-12.5-37.3-63.3 25.4-223.6-110.9c0.2-0.2 0.2-0.4 0.4-0.6l-92.2-45.7c-22.6 18.9-55.5 23.6-83.6 9.4z" />
  </svg>
