
  <svg height="1000" width="1000.0" xmlns="http://www.w3.org/2000/svg">
    <path d="m500 0c276.2 0 500 195.9 500 437.5 0 136.9-72.1 259-184.6 339.3-18.9 13.4-29.7 35.5-26.3 58.4l18.3 129.3c2.8 18.7-11.7 35.5-30.6 35.5h-151.8v-109.4c0-8.6-7-15.6-15.6-15.6h-31.3c-8.6 0-15.6 7-15.6 15.6v109.4h-125v-109.4c0-8.6-7-15.6-15.6-15.6h-31.3c-8.6 0-15.6 7-15.6 15.6v109.4h-151.8c-18.9 0-33.4-16.8-30.6-35.5l18.3-129.3c3.4-23.1-7.6-45-26.3-58.4-112.5-80.3-184.6-202.4-184.6-339.3 0-241.6 223.8-437.5 500-437.5z m-187.5 625c68.9 0 125-56.1 125-125s-56.1-125-125-125-125 56.1-125 125 56.1 125 125 125z m375 0c68.9 0 125-56.1 125-125s-56.1-125-125-125-125 56.1-125 125 56.1 125 125 125z" />
  </svg>
