<svg height="1000" width="1000" xmlns="http://www.w3.org/2000/svg"><path d="M500 0C223.8 0 0 195.9 0 437.5c0 136.9 72.1 259 184.6 339.3 18.7 13.4 29.7 35.3 26.3 58.4l-18.3 129.3c-2.8 18.7 11.7 35.5 30.6 35.5H375V890.6c0 -8.6 7 -15.6 15.6 -15.6h31.3c8.6 0 15.6 7 15.6 15.6V1000h125V890.6c0 -8.6 7 -15.6 15.6 -15.6h31.3c8.6 0 15.6 7 15.6 15.6V1000h151.8c18.9 0 33.4 -16.8 30.6 -35.5L789.1 835.2c-3.4 -22.9 7.4 -45 26.3 -58.4C927.9 696.5 1000 574.4 1000 437.5 1000 195.9 776.2 0 500 0zM312.5 625c-68.9 0 -125 -56.1 -125 -125s56.1 -125 125 -125 125 56.1 125 125 -56.1 125 -125 125zm375 0c-68.9 0 -125 -56.1 -125 -125s56.1 -125 125 -125 125 56.1 125 125 -56.1 125 -125 125z"/></svg>