
  <svg height="1000" width="1000.0" xmlns="http://www.w3.org/2000/svg">
    <path d="m968.8 750c17.1 0 31.2 14.1 31.2 31.3v62.5c0 17.1-14.1 31.2-31.2 31.2h-656.3v31.3c0 17.1-14.1 31.2-31.2 31.2h-62.5c-17.2 0-31.3-14.1-31.3-31.2v-31.3h-156.2c-17.2 0-31.3-14.1-31.3-31.2v-62.5c0-17.2 14.1-31.3 31.3-31.3h156.2v-31.2c0-17.2 14.1-31.3 31.3-31.3h62.5c17.1 0 31.2 14.1 31.2 31.3v31.2h656.3z m0-312.5c17.1 0 31.2 14.1 31.2 31.3v62.5c0 17.1-14.1 31.2-31.2 31.2h-156.3v31.3c0 17.1-14.1 31.2-31.2 31.2h-62.5c-17.2 0-31.3-14.1-31.3-31.2v-31.3h-656.2c-17.2 0-31.3-14.1-31.3-31.2v-62.5c0-17.2 14.1-31.3 31.3-31.3h656.2v-31.2c0-17.2 14.1-31.3 31.3-31.3h62.5c17.1 0 31.2 14.1 31.2 31.3v31.2h156.3z m0-312.5c17.1 0 31.2 14.1 31.2 31.3v62.5c0 17.1-14.1 31.2-31.2 31.2h-406.3v31.3c0 17.1-14.1 31.2-31.2 31.2h-62.5c-17.2 0-31.3-14.1-31.3-31.2v-31.3h-406.2c-17.2 0-31.3-14.1-31.3-31.2v-62.5c0-17.2 14.1-31.3 31.3-31.3h406.2v-31.2c0-17.2 14.1-31.3 31.3-31.3h62.5c17.1 0 31.2 14.1 31.2 31.3v31.2h406.3z" />
  </svg>
