<svg height="1000" width="1000" xmlns="http://www.w3.org/2000/svg"><path d="M968.8 750H312.5v-31.2c0 -17.2 -14.1 -31.3 -31.2 -31.3h-62.5c-17.2 0 -31.3 14.1 -31.3 31.3V750H31.3C14.1 750 0 764.1 0 781.3v62.5C0 860.9 14.1 875 31.3 875h156.2v31.3c0 17.1 14.1 31.2 31.3 31.2h62.5c17.1 0 31.2 -14.1 31.2 -31.2V875h656.3c17.1 0 31.2 -14.1 31.2 -31.2v-62.5C1000 764.1 985.9 750 968.8 750zm0 -312.5H812.5v-31.2c0 -17.2 -14.1 -31.3 -31.2 -31.3h-62.5c-17.2 0 -31.3 14.1 -31.3 31.3v31.2H31.3C14.1 437.5 0 451.6 0 468.8v62.5c0 17.1 14.1 31.2 31.3 31.2h656.2v31.3c0 17.1 14.1 31.2 31.3 31.2h62.5c17.1 0 31.2 -14.1 31.2 -31.2v-31.3h156.3c17.1 0 31.2 -14.1 31.2 -31.2v-62.5c0 -17.2 -14.1 -31.3 -31.2 -31.3zm0 -312.5H562.5V93.8c0 -17.2 -14.1 -31.3 -31.2 -31.3h-62.5c-17.2 0 -31.3 14.1 -31.3 31.3V125H31.3C14.1 125 0 139.1 0 156.3v62.5C0 235.9 14.1 250 31.3 250h406.2v31.3c0 17.1 14.1 31.2 31.3 31.2h62.5c17.1 0 31.2 -14.1 31.2 -31.2V250h406.3c17.1 0 31.2 -14.1 31.2 -31.2v-62.5C1000 139.1 985.9 125 968.8 125z"/></svg>