<svg height="1000" width="968.8" xmlns="http://www.w3.org/2000/svg"><path d="M484.4 15.6C216.8 15.6 0 232.4 0 500s216.8 484.4 484.4 484.4S968.8 767.6 968.8 500 752 15.6 484.4 15.6zM218.8 436.3c6.4 -82.2 62.8 -139.4 109.3 -139.4s103 57.2 109.4 139.4c1.4 16.8 -21.1 23.3 -29.1 8.8l-18.6 -33.2c-15 -26.7 -37.5 -42.2 -61.5 -42.2s-46.5 15.5 -61.5 42.2l-18.6 33.2c-8.4 14.5 -30.8 7.8 -29.4 -8.8zm489.8 239.9C652.9 743 571.3 781.3 484.4 781.3S315.8 743 260.2 676.2c-26.4 -31.9 21.4 -71.7 48 -40.1 43.8 52.6 107.8 82.5 176.2 82.5s132.4 -30.1 176.1 -82.5c26.6 -31.6 74.5 8.4 48.1 40.1zm12.1 -231.1l-18.6 -33.2c-15 -26.7 -37.5 -42.2 -61.5 -42.2s-46.5 15.5 -61.5 42.2l-18.6 33.2c-8 14.3 -30.4 7.8 -29.1 -8.8 6.5 -82.2 62.9 -139.4 109.4 -139.4s103 57.2 109.4 139.4c1.2 16.8 -21.5 23.3 -29.5 8.8z"/></svg>