
  <svg height="1000" width="968.8" xmlns="http://www.w3.org/2000/svg">
    <path d="m0 500c0-267.6 216.8-484.4 484.4-484.4s484.4 216.8 484.4 484.4-216.8 484.4-484.4 484.4-484.4-216.8-484.4-484.4z m390.6-93.7c0-34.6-27.9-62.5-62.5-62.5s-62.5 27.9-62.5 62.5 28 62.5 62.5 62.5 62.5-28 62.5-62.5z m309.6 32.2l18.9 16.6c16.4 14.6 42 0.6 38.7-21.1-7.8-49.2-66.8-82.2-117-82.2-50.2 0-109.2 33-117 82.2-3.5 21.9 22.5 35.5 38.7 21.1l18.6-16.6c28.9-25.8 90.2-25.8 119.1 0z m-392 197.8c-26.2-31.8-74.4 8-48 39.9 55.6 66.8 137.3 105.1 224.2 105.1s168.5-38.3 224.2-104.9c26.4-31.9-21.5-71.7-48.1-40.1-43.7 52.4-107.8 82.5-176.1 82.5s-132.4-29.9-176.2-82.5z" />
  </svg>
