<svg height="1000" width="968.8" xmlns="http://www.w3.org/2000/svg"><path d="M0 500c0 267.6 216.8 484.4 484.4 484.4S968.8 767.6 968.8 500 752 15.6 484.4 15.6 0 232.4 0 500zm390.6 -93.7c0 34.5 -27.9 62.5 -62.5 62.5s-62.5 -28 -62.5 -62.5 28 -62.5 62.5 -62.5 62.5 27.9 62.5 62.5zm309.6 32.2c-28.9 -25.8 -90.2 -25.8 -119.1 0l-18.6 16.6c-16.2 14.4 -42.2 .8 -38.7 -21.1 7.8 -49.2 66.8 -82.2 117 -82.2s109.2 33 117 82.2c3.3 21.7 -22.3 35.7 -38.7 21.1l-18.9 -16.6zm-392 197.8c43.8 52.6 107.8 82.5 176.2 82.5s132.4 -30.1 176.1 -82.5c26.6 -31.6 74.5 8.2 48.1 40.1C652.9 743 571.3 781.3 484.4 781.3S315.8 743 260.2 676.2c-26.4 -31.9 21.8 -71.7 48 -39.9z"/></svg>