
  <svg height="1000" width="968.8" xmlns="http://www.w3.org/2000/svg">
    <path d="m484.4 15.6c267.6 0 484.4 216.8 484.4 484.4s-216.8 484.4-484.4 484.4-484.4-216.8-484.4-484.4 216.8-484.4 484.4-484.4z m156.2 328.2c-34.5 0-62.5 27.9-62.5 62.5s28 62.5 62.5 62.5 62.5-28 62.5-62.5-27.9-62.5-62.5-62.5z m-312.5 0c-34.5 0-62.5 27.9-62.5 62.5s28 62.5 62.5 62.5 62.5-28 62.5-62.5-27.9-62.5-62.5-62.5z m380.5 332.4c26.4-31.9-21.9-71.7-48.1-40.1-43.7 52.4-107.8 82.5-176.1 82.5s-132.4-29.9-176.2-82.5c-26.6-31.6-74.6 8.2-48 40.1 55.6 66.8 137.3 105 224.2 105s168.5-38.2 224.2-105z" />
  </svg>
