<svg height="1000" width="968.8" xmlns="http://www.w3.org/2000/svg"><path d="M484.4 15.6C216.8 15.6 0 232.4 0 500s216.8 484.4 484.4 484.4S968.8 767.6 968.8 500 752 15.6 484.4 15.6zm156.2 328.2c34.6 0 62.5 27.9 62.5 62.5s-27.9 62.5 -62.5 62.5 -62.5 -28 -62.5 -62.5 28 -62.5 62.5 -62.5zm-312.5 0c34.6 0 62.5 27.9 62.5 62.5s-27.9 62.5 -62.5 62.5 -62.5 -28 -62.5 -62.5 28 -62.5 62.5 -62.5zm380.5 332.4C652.9 743 571.3 781.3 484.4 781.3S315.8 743 260.2 676.2c-26.6 -31.9 21.4 -71.7 48 -40.1 43.8 52.6 107.8 82.5 176.2 82.5s132.4 -30.1 176.1 -82.5c26.2 -31.6 74.5 8.2 48.1 40.1z"/></svg>