
  <svg height="1000" width="968.8" xmlns="http://www.w3.org/2000/svg">
    <path d="m484.4 15.6c267.6 0 484.4 216.8 484.4 484.4s-216.8 484.4-484.4 484.4-484.4-216.8-484.4-484.4 216.8-484.4 484.4-484.4z m-265.6 420.7c-1.4 16.6 21 23.3 29.4 8.8l18.6-33.2c15-26.7 37.5-42.2 61.5-42.2 24 0 46.5 15.5 61.5 42.2l18.6 33.2c8 14.5 30.5 8 29.1-8.8-6.4-82.2-62.9-139.4-109.4-139.4s-102.9 57.2-109.3 139.4z m489.8 239.9c26.4-31.7-21.5-71.7-48.1-40.1-43.7 52.4-107.8 82.5-176.1 82.5s-132.4-29.9-176.2-82.5c-26.6-31.6-74.4 8.2-48 40.1 55.6 66.8 137.3 105 224.2 105s168.5-38.2 224.2-105z m12.1-231.1c8 14.5 30.7 8 29.5-8.8-6.5-82.2-62.9-139.4-109.4-139.4-46.5 0-102.9 57.2-109.4 139.4-1.3 16.6 21.1 23.1 29.1 8.8l18.6-33.2c15-26.7 37.5-42.2 61.5-42.2s46.5 15.5 61.5 42.2z" />
  </svg>
