
  <svg height="1000" width="1250.0" xmlns="http://www.w3.org/2000/svg">
    <path d="m1218.8 718.8c17.1 0 31.2 14 31.2 31.2v31.3c0 17.1-14.1 31.2-31.2 31.2h-1062.5c-17.2 0-31.3-14.1-31.3-31.2v-31.3c0-17.2 14.1-31.2 31.3-31.2h1062.5z m-937.5 187.5c17.1 0 31.2 14 31.2 31.2v31.3c0 17.1-14.1 31.2-31.2 31.2h-250c-17.2 0-31.3-14.1-31.3-31.2v-31.3c0-17.2 14.1-31.2 31.3-31.2h250z m812.5 0c17.1 0 31.2 14 31.2 31.2v31.3c0 17.1-14.1 31.2-31.2 31.2h-656.3c-17.2 0-31.2-14.1-31.2-31.2v-31.3c0-17.2 14-31.2 31.2-31.2h656.3z m-812.5-343.8c-155.3 0-281.3-126-281.3-281.2s126-281.3 281.3-281.3c80 0 151.9 33.8 203.1 87.5 51.1-53.7 123-87.5 203.1-87.5 107 0 199.2 60.5 246.7 148.6 29.3-14.6 61.9-23.6 97.1-23.6 120.8 0 218.7 97.9 218.7 218.8s-97.9 218.7-218.7 218.7h-117.4c-44.2 38.5-100.8 62.5-163.9 62.5s-119.9-24-163.9-62.5h-304.9z" />
  </svg>
