<svg height="1000" width="1250" xmlns="http://www.w3.org/2000/svg"><path d="M1234.4 687.5h-93.8c-8.6 0 -15.6 7 -15.6 15.6v281.3c0 8.6 7 15.6 15.6 15.6h93.8c8.6 0 15.6 -7 15.6 -15.6V703.1c0 -8.6 -7 -15.6 -15.6 -15.6zM1080.7 170.1c-11.2 -7.4 -18.2 -19.5 -18.2 -32.8V15.6C1062.5 7 1055.5 0 1046.9 0h-93.8c-8.6 0 -15.6 7 -15.6 15.6v121.7c0 43 19.9 84.8 55.9 108.2 82.4 53.3 131.6 144.1 131.6 242.2v59.2c0 8.6 7 15.6 15.6 15.6h93.8c8.6 0 15.6 -7 15.6 -15.6v-59.2c0 -127.9 -63.3 -246.5 -169.3 -317.6zM843.8 687.5h-750C42 687.5 0 729.5 0 781.3v125C0 958 42 1000 93.8 1000h750c17.1 0 31.2 -14.1 31.2 -31.2v-250c0 -17.2 -14.1 -31.3 -31.2 -31.3zm-62.5 218.8H437.5v-125h343.8v125zM952.5 276.6C905.9 244.1 875 193.9 875 137.3V15.6C875 7 868 0 859.4 0h-93.8C757 0 750 7 750 15.6v129.7c0 85.4 48 159.4 117.8 208.4 43.7 30.7 69.7 80.5 69.7 134v59.2c0 8.6 7 15.6 15.6 15.6h93.8c8.6 0 15.6 -7 15.6 -15.6v-59.2c0 -84.6 -41 -162.9 -110 -211.1zm94.4 410.9h-93.8c-8.6 0 -15.6 7 -15.6 15.6v281.3c0 8.6 7 15.6 15.6 15.6h93.8c8.6 0 15.6 -7 15.6 -15.6V703.1c0 -8.6 -7 -15.6 -15.6 -15.6z"/></svg>