
  <svg height="1000" width="1000.0" xmlns="http://www.w3.org/2000/svg">
    <path d="m187.5 593.8v-125c0-17.2 14.1-31.3 31.3-31.3h41.9l187.5 187.5h-229.4c-17.2 0-31.3-14.1-31.3-31.2z m312.5-593.8c276.2 0 500 223.8 500 500s-223.8 500-500 500-500-223.8-500-500 223.8-500 500-500z m0 875c80.9 0 155.7-26 217-69.7l-522.3-522.3c-43.7 61.3-69.7 136.1-69.7 217 0 206.8 168.2 375 375 375z m88.3-375l62.5 62.5h99.2v-62.5h-161.7z m217 217c43.7-61.3 69.7-136.1 69.7-217 0-206.8-168.2-375-375-375-80.9 0-155.7 26-217 69.7l242.8 242.8h255.5c17.1 0 31.2 14.1 31.2 31.2v125c0 17.2-14.1 31.3-31.2 31.3h-68z m-179.1-467c62.7 0 114.6 46.3 123.6 106.6 1.4 9.6-5.9 18.4-15.6 18.4h-31.7c-7.2 0-13.6-4.9-15-11.9-5.5-28.7-30.9-50.6-61.3-50.6-62.7 0-114.7-46.3-123.7-106.6-1.3-9.6 5.9-18.4 15.7-18.4h31.6c7.2 0 13.7 4.9 15 11.9 5.5 28.7 30.9 50.6 61.4 50.6z" />
  </svg>
