<svg height="1000" width="1000" xmlns="http://www.w3.org/2000/svg"><path d="M187.5 593.8c0 17.1 14.1 31.2 31.3 31.2h229.4L260.7 437.5h-41.9c-17.2 0 -31.3 14.1 -31.3 31.3v125zM500 0C223.8 0 0 223.8 0 500s223.8 500 500 500 500 -223.8 500 -500S776.2 0 500 0zm0 875C293.2 875 125 706.8 125 500c0 -80.9 26 -155.7 69.7 -217L717 805.3C655.7 849 580.9 875 500 875zm88.3 -375H750v62.5h-99.2L588.3 500zm217 217l-92 -92h68c17.1 0 31.2 -14.1 31.2 -31.2v-125c0 -17.2 -14.1 -31.3 -31.2 -31.3H525.8L283 194.7C344.3 151 419.1 125 500 125c206.8 0 375 168.2 375 375 0 80.9 -26 155.7 -69.7 217zM626.2 250c-30.5 0 -55.9 -21.9 -61.4 -50.6 -1.3 -7 -7.8 -11.9 -15 -11.9h-31.6c-9.8 0 -17 8.8 -15.7 18.4 9 60.3 61 106.6 123.7 106.6 30.4 0 55.8 21.9 61.3 50.6 1.4 7 7.8 11.9 15 11.9h31.7c9.7 0 17 -8.8 15.6 -18.4C740.8 296.3 688.9 250 626.2 250z"/></svg>