
  <svg height="1000" width="1250.0" xmlns="http://www.w3.org/2000/svg">
    <path d="m1234.4 687.5c8.6 0 15.6 7 15.6 15.6v281.3c0 8.6-7 15.6-15.6 15.6h-93.8c-8.6 0-15.6-7-15.6-15.6v-281.3c0-8.6 7-15.6 15.6-15.6h93.8z m-153.7-517.4c106 71.1 169.3 189.7 169.3 317.6v59.2c0 8.6-7 15.6-15.6 15.6h-93.8c-8.6 0-15.6-7-15.6-15.6v-59.2c0-98-49.2-188.9-131.6-242.2-36-23.4-55.9-65.2-55.9-108.2v-121.7c0-8.6 7-15.6 15.6-15.6h93.8c8.6 0 15.6 7 15.6 15.6v121.7c0 13.3 7 25.4 18.2 32.8z m-236.9 517.4c17.1 0 31.2 14.1 31.2 31.3v250c0 17.1-14.1 31.2-31.2 31.2h-750c-51.8 0-93.8-42-93.8-93.7v-125c0-51.8 42-93.8 93.8-93.8h750z m-62.5 218.8v-125h-343.8v125h343.8z m171.2-629.7c69 48.2 110 126.5 110 211.1v59.2c0 8.6-7 15.6-15.6 15.6h-93.8c-8.6 0-15.6-7-15.6-15.6v-59.2c0-53.5-26-103.3-69.7-134-69.8-49-117.8-123-117.8-208.4v-129.7c0-8.6 7-15.6 15.6-15.6h93.8c8.6 0 15.6 7 15.6 15.6v121.7c0 56.6 30.9 106.8 77.5 139.3z m94.4 410.9c8.6 0 15.6 7 15.6 15.6v281.3c0 8.6-7 15.6-15.6 15.6h-93.8c-8.6 0-15.6-7-15.6-15.6v-281.3c0-8.6 7-15.6 15.6-15.6h93.8z" />
  </svg>
