
  <svg height="1000" width="875.0" xmlns="http://www.w3.org/2000/svg">
    <path d="m860 674.2c14.4 8.2 19.3 26.8 10.9 41l-30.3 52.4c-8.4 14.4-26.7 19.5-41.2 11.1l-66-38.1 13.7 50.8c4.3 16-5.3 32.6-21.3 36.9l-29.1 7.8c-16 4.3-32.6-5.2-36.9-21.3l-37.1-138.2-122.7-70.7v151.3l104.3 104.9c12.1 12.1 12.1 32 0 44.1l-22.1 22.1c-12.1 12.1-32 12.1-44.1 0l-38.5-38.5v78.9c0 17.2-14.1 31.3-31.2 31.3h-62.5c-17.2 0-31.3-14.1-31.3-31.3v-78.7l-38.5 38.5c-12.1 12.1-32 12.1-44.1 0l-22.1-22.1c-12.3-12.1-12.3-32 0-44.1l104.9-104.9v-151.3l-122.7 70.7-37.1 138.2c-4.3 16.1-20.9 25.6-36.9 21.3l-29.1-7.8c-16-4.3-25.6-20.9-21.3-36.9l13.7-50.8-66 38.1c-14.5 8.2-32.8 3.3-41.2-11.1l-30.3-52.4c-8.2-14.4-3.3-32.8 11.1-41.2l66.1-38.3-50.8-13.6c-16-4.3-25.6-20.9-21.3-36.9l7.8-29.2c4.3-16 20.9-25.5 36.9-21.2l138.3 37.1 124.6-72.1-124.6-72.1-138.3 37.1c-16 4.3-32.6-5.2-36.9-21.3l-7.8-29.1c-4.3-16.2 5.3-32.8 21.5-37.1l50.7-13.6-66-38.1c-14.4-8.4-19.5-26.8-11.1-41.2l30.3-52.2c8.4-14.4 26.7-19.5 41.2-11.1l66 38.1-13.7-50.8c-4.3-16 5.3-32.6 21.3-36.9l29.1-7.8c16-4.3 32.6 5.2 36.9 21.3l37.1 138.2 122.7 70.7v-151.3l-104.9-104.9c-12.3-12.1-12.3-32 0-44.2l22.3-22c12.1-12.1 32-12.1 44.1 0l38.5 38.5v-79c0-17.1 14.1-31.2 31.3-31.2h62.5c17.1 0 31.2 14.1 31.2 31.2v79l38.7-38.5c12.1-12.1 32-12.1 44.1 0l22.1 22c12.1 12.2 12.1 32.1 0 44.2l-104.9 104.9v151.3l122.7-70.7 37.1-138.2c4.3-16.1 20.9-25.6 36.9-21.3l29.1 7.8c16 4.3 25.6 20.9 21.3 36.9l-13.7 50.8 66-38.1c14.5-8.2 32.8-3.3 41.2 11.1l30.3 52.4c8.2 14.4 3.3 32.8-11.1 41.2l-66 38.1 50.7 13.6c16 4.3 25.6 20.9 21.3 36.9l-7.8 29.1c-4.3 16.1-20.9 25.6-36.9 21.3l-138.3-37.1-124.6 72.1 124.8 72.3 138.3-37.1c16-4.3 32.6 5.2 36.9 21.2l7.8 29.1c4.3 16.1-5.3 32.7-21.3 37l-50.8 13.6z" />
  </svg>
