
  <svg height="1000" width="1000.0" xmlns="http://www.w3.org/2000/svg">
    <path d="m997.9 297.5c6.2 15.8-1.6 33.6-17.4 39.6l-264.1 107.8c0.8 8 2.3 15.6 2.3 23.9 0 19.5-3.3 38-8.2 56 41.3 41.8 70.6 95.3 81.3 154.3 22.5 123.4-32 235-122.9 298-21.2 14.9-46.6 22.9-72.6 22.9h-193.8c-21.4 0-42.9-4.5-61.1-16-82.8-52.6-138.3-144.2-138.3-249.6 0-81.7 33-155.5 86.5-209.2-4.8-18.2-8.2-36.7-8.2-56.4 0-8.3 1.6-16.1 2.4-23.9l-264.1-107.8c-16-6.2-23.8-24-17.4-39.6l11.6-28.4c6.4-15.6 24.6-23.2 40.6-17l54.9 22.5v-56.6c0-16.8 14-30.5 31.2-30.5h31.3c17.2 0 31.2 13.7 30.8 30.5v91.6c0 0.9-0.4 1.9-0.6 2.9l110.2 44.9c11.7-19.5 26-36.9 43-51.9-26.4-32.5-43-73.1-43-118.2 0-103.5 84-187.5 187.5-187.5s187.5 84 187.5 187.5c0 45.1-16.4 85.7-43 118.2 17 15 31.5 32.4 43 51.9l110.2-44.9c0-1-0.6-2-0.6-2.9v-91.6c0-16.8 14-30.5 31.2-30.5h31.3c17.2 0 31.2 13.7 31.2 30.5v56.6l55.1-22.5c16-6.2 34.2 1.4 40.6 17z m-560.4-110c17.2 0 31.3-14.1 31.3-31.2s-14.1-31.3-31.3-31.3-31.2 14.1-31.2 31.3 14 31.2 31.2 31.2z m62.5 531.3c17.2 0 31.3-14.1 31.3-31.3s-14.1-31.2-31.3-31.2-31.2 14-31.2 31.2 14 31.3 31.2 31.3z m0-125c17.2 0 31.3-14.1 31.3-31.3s-14.1-31.2-31.3-31.2-31.2 14-31.2 31.2 14 31.3 31.2 31.3z m0-125c17.2 0 31.3-14.1 31.3-31.3s-14.1-31.2-31.3-31.2-31.2 14-31.2 31.2 14 31.3 31.2 31.3z m0-171.9c0 0 31.3-45.3 31.3-62.5s-14.1-31.3-31.3-31.3-31.2 14.1-31.2 31.3 31.2 62.5 31.2 62.5z m62.5-109.4c17.2 0 31.3-14.1 31.3-31.2s-14.1-31.3-31.3-31.3-31.2 14.1-31.2 31.3 14 31.2 31.2 31.2z" />
  </svg>
