
  <svg height="1000" width="1000.0" xmlns="http://www.w3.org/2000/svg">
    <path d="m812.5 375c103.5 0 187.5 84 187.5 187.5v250c0 103.5-84 187.5-187.5 187.5h-625c-103.5 0-187.5-84-187.5-187.5v-250c0-103.5 84-187.5 187.5-187.5h250c0.1 48.1 18.5 92 48.7 125h-173.7c-103.5 0-187.5 84-187.5 187.5s84 187.5 187.5 187.5h375c0.1 0 0.3 0.1 0.5 0.1 103.2 0 187.1-83.9 187.1-187.1 0-80.8-51.3-149.7-123-175.9 37.1-34 60.3-82.8 60.4-137.1z m-187.5 125c-69 0-125-56-125-125s56-125 125-125 125 56 125 125-56 125-125 125z m-218.7-312.5c-51.8 0-93.8-42-93.8-93.7s42-93.8 93.8-93.8 93.7 42 93.7 93.8-42 93.7-93.7 93.7z m343.7-62.5c-34.5 0-62.5-28-62.5-62.5s28-62.5 62.5-62.5 62.5 28 62.5 62.5-28 62.5-62.5 62.5z m-437.5 437.5h375c69 0 125 56 125 125s-56 125-125 125h-375c-69 0-125-56-125-125s56-125 125-125z" />
  </svg>
