
  <svg height="1000" width="1000.0" xmlns="http://www.w3.org/2000/svg">
    <path d="m419.3 607.4c-103.1 77.3-134.9 214.9-76.6 323.1l-42.7 32c-33.7 25.3-73.2 37.5-112.3 37.5-64.1 0-128.3-32.7-164-94.4-48.1-83.3-19.9-190.4 57.1-248.2l169.2-126.2v-343.7h312.5v312.5z m143.2-544.9v62.5h-312.5v-62.5c0-34.5 28-62.5 62.5-62.5h250c5.6 0 10.5 1.8 15.7 3.2-9.7 17.7-15.7 37.7-15.7 59.3z m375-62.5c34.5 0 62.5 28 62.5 62.5v62.5h-375v-62.5c0-34.5 28-62.5 62.5-62.5h250z m-312.5 531.3v-343.8h375v406.3c0 81.8-39.2 154.3-100 200l-225 168.7c-33.7 25.3-73.2 37.5-112.3 37.5-64.1 0-127.3-32.7-163-94.4-48.1-83.3-19.9-190.4 57.1-248.2z" />
  </svg>
