<svg height="1000" width="1250" xmlns="http://www.w3.org/2000/svg"><path d="M843.7 875l-93.7 .1v-62.6H500v62.9l-93.7 .1c-17.2 0 -31.2 14 -31.2 31.2l-.1 62c0 17.3 14 31.3 31.3 31.3l437.4 -.5c17.2 0 31.2 -14 31.2 -31.2l.1 -62C875 889 861 875 843.7 875zM1143 52.2C1137.9 22.1 1111.3 0 1080.2 0H169.8C138.7 0 112.1 22.1 107 52.2 -6.5 721 .1 679.8 .1 687.5 0 721.3 28 750 63.7 750h1122.6c35.6 0 63.5 -28.4 63.6 -62.1 .1 -8 6.6 33.1 -106.9 -635.7zM507.5 125h235l19.1 187.5H488.4L507.5 125zM360.7 625H138.8L176 406.3h206.9L360.7 625zm31.8 -312.5H191.9L223.7 125h187.9l-19.1 187.5zM456.6 625l22.2 -218.7h292.3L793.4 625H456.6zM838.4 125h187.9l31.8 187.5H857.5L838.4 125zm50.9 500L867.1 406.3H1074l37.2 218.7H889.3z"/></svg>