
  <svg height="1000" width="1250.0" xmlns="http://www.w3.org/2000/svg">
    <path d="m843.7 875c17.3 0 31.3 14 31.3 31.3l-0.1 62c0 17.2-14 31.2-31.2 31.2l-437.4 0.5c-17.3 0-31.3-14-31.3-31.3l0.1-62c0-17.2 14-31.2 31.2-31.2l93.7-0.1v-62.9h250v62.6z m299.3-822.8c113.5 668.8 107 627.7 106.9 635.7-0.1 33.7-28 62.1-63.6 62.1h-1122.6c-35.7 0-63.7-28.7-63.6-62.5 0-7.7-6.6 33.5 106.9-635.3 5.1-30.1 31.7-52.2 62.8-52.2h910.4c31.1 0 57.7 22.1 62.8 52.2z m-635.5 72.8l-19.1 187.5h273.2l-19.1-187.5h-235z m-146.8 500l22.2-218.7h-206.9l-37.2 218.7h221.9z m31.8-312.5l19.1-187.5h-187.9l-31.8 187.5h200.6z m64.1 312.5h336.8l-22.3-218.7h-292.3z m381.8-500l19.1 187.5h200.6l-31.8-187.5h-187.9z m50.9 500h221.9l-37.2-218.7h-207z" />
  </svg>
