<svg height="1000" width="875" xmlns="http://www.w3.org/2000/svg"><path d="M365.8 772.1L209.6 928.4c-12.2 12.2 -32 12.1 -44.2 0L9.2 772.1C-10.5 752.4 3.5 718.8 31.3 718.8H125v-625c0 -17.3 14 -31.3 31.3 -31.3h62.5c17.2 0 31.2 14 31.2 31.3v625h93.7c27.8 0 41.7 33.7 22.1 53.3zM598.4 420.5a23.4 -23.4 0 0 0 -22.5 17h-69.8c-16.1 0 -27.4 -15.8 -22.2 -31L595.4 78.4a23.4 -23.4 0 0 0 22.2 -15.9h77.3c10 0 18.9 6.4 22.2 15.9l111.5 328.1c5.2 15.2 -6.1 31 -22.2 31h-69.8a23.4 -23.4 0 0 0 -22.5 -16.8l-16.2 -55.3h-83.7l-15.8 55.1zM643 266.8h26.1L656.2 222 643 266.8zM667.6 828L799.3 641.1a23.4 -23.4 0 0 1 4.3 -13.5v-41.7c0 -12.9 -10.5 -23.4 -23.4 -23.4h-244c-13 0 -23.5 10.5 -23.5 23.4v56.5c0 13 10.5 23.5 23.5 23.5h110.3c-1.5 1.9 -3 4 -4.5 6.1L510.8 857.9a23.4 -23.4 0 0 1 -4.3 13.6v42.6c0 12.9 10.5 23.4 23.4 23.4h252.7c12.9 0 23.4 -10.5 23.4 -23.4v-56.5c0 -13 -10.5 -23.5 -23.4 -23.5H663.1c1.5 -1.9 3 -4 4.5 -6.1z"/></svg>