<svg height="1000" width="1000" xmlns="http://www.w3.org/2000/svg"><path d="M365.8 772.1L209.6 928.4c-12.2 12.2 -32 12.1 -44.2 0L9.2 772.1C-10.5 752.4 3.5 718.8 31.3 718.8H125v-625c0 -17.3 14 -31.3 31.3 -31.3h62.5c17.2 0 31.2 14 31.2 31.3v625h93.7c27.8 0 41.7 33.7 22.1 53.3zm103 -584.6h500c17.2 0 31.2 -14 31.2 -31.2V93.8c0 -17.3 -14 -31.3 -31.2 -31.3h-500c-17.3 0 -31.3 14 -31.3 31.3v62.5c0 17.2 14 31.2 31.3 31.2zm-31.3 218.8v-62.5c0 -17.3 14 -31.3 31.3 -31.3h375c17.2 0 31.2 14 31.2 31.3v62.5c0 17.2 -14 31.2 -31.2 31.2h-375c-17.3 0 -31.3 -14 -31.3 -31.2zm0 500v-62.5c0 -17.3 14 -31.3 31.3 -31.3h125c17.2 0 31.2 14 31.2 31.3v62.5c0 17.2 -14 31.2 -31.2 31.2h-125c-17.3 0 -31.3 -14 -31.3 -31.2zm0 -250v-62.5c0 -17.3 14 -31.3 31.3 -31.3h250c17.2 0 31.2 14 31.2 31.3v62.5c0 17.2 -14 31.2 -31.2 31.2h-250c-17.3 0 -31.3 -14 -31.3 -31.2z"/></svg>