<svg height="1000" width="875" xmlns="http://www.w3.org/2000/svg"><path d="M603.1 222.2l-37.9 -40.6c-8.9 -9.4 -8.4 -24.2 1 -33.1l84.9 -79.6a23.4 -23.4 0 0 0 16 -6.3h61.7c13 0 23.5 10.5 23.5 23.4v248.2h50.1c12.9 0 23.4 10.5 23.4 23.5v56.5c0 12.9 -10.5 23.4 -23.4 23.4H589.2c-13 0 -23.5 -10.5 -23.5 -23.4v-56.5c0 -13 10.5 -23.5 23.5 -23.5h49.6V221.1c-14.2 12.8 -27.8 9.6 -35.7 1.1zm-59.7 466c0 -63.8 46.7 -131.6 133 -131.6 74.7 0 155.2 56.4 155.2 180.2 0 100.1 -63 206.6 -179.7 206.6 -34.8 0 -59.7 -7 -75.3 -13.3C565.3 925.6 559.5 913 563.1 901.4l18 -57.6c4 -12.7 17.7 -19.5 30.2 -15 25.5 8.9 54.5 10.3 74.5 -8.1C610.1 830.6 543.4 771.1 543.4 688.2zM723.7 726c0 -43.6 -29.9 -71.3 -50.5 -71.3 -16.9 0 -25.7 15.5 -25.7 30.9 0 11.1 3.5 47.2 49.1 47.2 19.5 0 26.2 -4.2 26.9 -5.3 0 -.1 .2 -.6 .2 -1.5zm-380 -7.2H250v-625C250 76.5 236 62.5 218.8 62.5h-62.5C139 62.5 125 76.5 125 93.8v625H31.3c-27.8 0 -41.8 33.6 -22.1 53.3l156.2 156.3c12.2 12.1 32 12.2 44.2 0L365.8 772.1c19.6 -19.6 5.7 -53.3 -22.1 -53.3z"/></svg>