
  <svg height="1000" width="875.0" xmlns="http://www.w3.org/2000/svg">
    <path d="m343.8 687.5c27.7 0 41.6 33.7 22.1 53.3l-156.3 187.5c-5.6 5.7-13.4 9.2-22.1 9.2-8.6 0-16.4-3.5-22.1-9.2l-156.2-187.5c-19.7-19.6-5.7-53.3 22.1-53.3h93.7v-593.7c0-17.3 14-31.3 31.3-31.3h62.5c17.2 0 31.2 14 31.2 31.3v593.7h93.8z m468.7-125c17.2 0 31.3 14 31.3 31.3v34.4c0 18.6-8.1 35.3-21 46.7l-119.7 137.6h109.4c17.2 0 31.3 14 31.3 31.3v62.5c0 17.2-14.1 31.2-31.3 31.2h-250c-17.2 0-31.2-14-31.2-31.2v-34.5c0-18.6 8-35.3 20.9-46.7l119.7-137.6h-109.4c-17.2 0-31.2-14-31.2-31.2v-62.5c0-17.3 14-31.3 31.2-31.3h250z m60.7-166.8c1.1 3.3 1.8 6.9 1.8 10.5 0 17.3-14 31.3-31.2 31.3h-48.6c0 0 0 0 0 0-13.9 0-25.7-9.1-29.8-21.6l-8.6-25.3h-138.7l-8.6 25.3c-4.1 12.5-15.8 21.6-29.7 21.6h-0.1-48.4c-17.3 0-31.3-14-31.3-31.3 0-3.6 0.7-7.2 1.8-10.5l115.8-312.5c4.3-12 15.9-20.7 29.4-20.7h81c13.5 0 25.1 8.7 29.4 20.7z m-217.7-114.4h64l-32-93.8z" />
  </svg>
