<svg height="1000" width="1000" xmlns="http://www.w3.org/2000/svg"><path d="M9.2 227.9L165.4 71.6c12.2 -12.2 32 -12.1 44.2 0l156.2 156.3c19.7 19.7 5.7 53.4 -22.1 53.4H250v625c0 17.2 -14 31.2 -31.2 31.2h-62.5c-17.3 0 -31.3 -14 -31.3 -31.2v-625H31.3c-27.8 0 -41.7 -33.8 -22.1 -53.4zm459.6 -40.4h500c17.2 0 31.2 -14 31.2 -31.2V93.8c0 -17.3 -14 -31.3 -31.2 -31.3h-500c-17.3 0 -31.3 14 -31.3 31.3v62.5c0 17.2 14 31.2 31.3 31.2zm-31.3 218.8v-62.5c0 -17.3 14 -31.3 31.3 -31.3h375c17.2 0 31.2 14 31.2 31.3v62.5c0 17.2 -14 31.2 -31.2 31.2h-375c-17.3 0 -31.3 -14 -31.3 -31.2zm0 500v-62.5c0 -17.3 14 -31.3 31.3 -31.3h125c17.2 0 31.2 14 31.2 31.3v62.5c0 17.2 -14 31.2 -31.2 31.2h-125c-17.3 0 -31.3 -14 -31.3 -31.2zm0 -250v-62.5c0 -17.3 14 -31.3 31.3 -31.3h250c17.2 0 31.2 14 31.2 31.3v62.5c0 17.2 -14 31.2 -31.2 31.2h-250c-17.3 0 -31.3 -14 -31.3 -31.2z"/></svg>