
  <svg height="1000" width="875.0" xmlns="http://www.w3.org/2000/svg">
    <path d="m209.6 71.7l156.2 187.5c19.7 19.6 5.7 53.3-22 53.3h-93.8v593.7c0 17.3-14 31.3-31.2 31.3h-62.5c-17.3 0-31.3-14-31.3-31.3v-593.7h-93.7c-27.8 0-41.7-33.7-22.1-53.3l156.2-187.5c5.7-5.7 13.5-9.2 22.1-9.2 8.6 0 16.4 3.5 22.1 9.2z m571.7 740.8c17.2 0 31.2 14 31.2 31.3v62.5c0 17.2-14 31.2-31.2 31.2h-187.5c-17.3 0-31.3-14-31.3-31.2v-62.5c0-17.3 14-31.3 31.3-31.3h31.2v-125h-31.2c-17.3 0-31.3-14-31.3-31.3 0-5 1.2-9.7 3.3-14l31.3-62.5c5.1-10.2 15.7-17.2 27.9-17.2h93.8c17.2 0 31.2 14 31.2 31.3v218.7h31.3z m-136.4-744.3c104.4-27.8 198.9 50.5 198.9 150.5v21.1c0 137.5-55.2 209.4-168.5 257.8-16.3 7-35.2-2.5-40.8-19.4l-19.3-39c-5.1-15.4 1.2-33.1 16-39.7 14.8-6.5 28.5-15 40.7-25.3-93.1-9.3-162.3-100.5-134.5-200.2 14.9-51.3 55.8-91.7 107.5-105.8z m42.6 189.6c21.6 0 39.1-17.5 39.1-39s-17.5-39.1-39.1-39.1-39.1 17.5-39.1 39.1 17.5 39 39.1 39z" />
  </svg>
