
  <svg height="1000" width="1000.0" xmlns="http://www.w3.org/2000/svg">
    <path d="m593.8 812.5c17.2 0 31.2 14 31.2 31.3v62.5c0 17.2-14 31.2-31.2 31.2h-125c-17.3 0-31.3-14-31.3-31.2v-62.5c0-17.3 14-31.3 31.3-31.3h125z m-562.5-500c-27.8 0-41.7-33.7-22.1-53.3l156.2-187.5c5.7-5.7 13.5-9.2 22.1-9.2 8.6 0 16.4 3.5 22.1 9.2l156.2 187.5c19.7 19.6 5.7 53.3-22.1 53.3h-93.7v593.8c0 17.2-14 31.2-31.3 31.2h-62.5c-17.2 0-31.2-14-31.2-31.2v-593.8h-93.8z m812.5 0c17.2 0 31.2 14 31.2 31.3v62.5c0 17.2-14 31.2-31.2 31.2h-375c-17.3 0-31.3-14-31.3-31.2v-62.5c0-17.3 14-31.3 31.3-31.3h375z m-125 250c17.2 0 31.2 14 31.2 31.3v62.5c0 17.2-14 31.2-31.2 31.2h-250c-17.3 0-31.3-14-31.3-31.2v-62.5c0-17.3 14-31.3 31.3-31.3h250z m250-500c17.2 0 31.2 14 31.2 31.3v62.5c0 17.2-14 31.2-31.2 31.2h-500c-17.3 0-31.3-14-31.3-31.2v-62.5c0-17.3 14-31.3 31.3-31.3h500z" />
  </svg>
