<svg height="1000" width="1125" xmlns="http://www.w3.org/2000/svg"><path d="M1109.9 375c-56.8 .3 -263.7 12 -417.7 162.1C627.5 595 588 660.7 562.5 722.4 537 660.7 497.5 595 432.8 537.1 278.8 387 71.9 375.3 15.1 375 6.5 375 -.1 381.6 0 390.3c.4 54.5 13.9 246.3 173.4 389.2 164.1 159.8 326.6 158 389.1 158s225 1.9 389.1 -158c159.5 -142.9 173 -334.7 173.4 -389.2 .1 -8.7 -6.5 -15.3 -15.1 -15.3zM562.5 591c25 -36.8 53.9 -69.9 86.1 -98.7 37.3 -36.3 77.3 -65 117.7 -88.2C734.2 266.4 665.3 144.2 577.3 67.7c-8 -7 -21.5 -7 -29.5 0C459.9 144.2 391 266.2 358.8 403.8c39.8 22.9 79.1 51.1 115.7 86.7a552.3 -552.3 0 0 0 88 100.5z"/></svg>