
  <svg height="1000" width="1125.0" xmlns="http://www.w3.org/2000/svg">
    <path d="m1109.9 375c8.6 0 15.2 6.6 15.1 15.3-0.5 54.5-13.9 246.3-173.4 389.2-164.1 159.9-326.6 158-389.1 158s-225 1.8-389.1-158c-159.5-142.9-172.9-334.7-173.4-389.2-0.1-8.7 6.5-15.3 15.1-15.3 56.8 0.3 263.7 12 417.7 162.1 64.7 57.9 104.2 123.6 129.7 185.3 25.5-61.7 65-127.4 129.7-185.3 154-150.1 360.9-161.8 417.7-162.1z m-547.4 216c-25.4-37.2-54.6-70.5-88-100.5-36.6-35.6-75.9-63.8-115.7-86.7 32.2-137.6 101.1-259.6 189-336.1 8-7 21.5-7 29.5 0 88 76.5 156.9 198.7 189 336.4-40.4 23.2-80.4 51.9-117.7 88.2-32.2 28.8-61.1 61.9-86.1 98.7z" />
  </svg>
