<svg height="1000" width="1250" xmlns="http://www.w3.org/2000/svg"><path d="M1157.4 406.7c-64.2 -30.1 -150 -47.3 -235.5 -47.3h-558C354.2 346.6 343.2 336 331.3 328.1h403.1C447.6 269 428.5 62.5 187.5 62.5v250h-31.2v-250c-51.8 0 -93.8 56 -93.8 125v125C17.2 312.5 0 332.1 0 359.4v78.1c0 27.3 17.2 46.9 62.5 46.9v31.2C17.2 515.6 0 535.2 0 562.5v78.1c0 27.3 17.2 46.9 62.5 46.9v125c0 69 42 125 93.8 125v-250h31.2v250c241 0 260.1 -206.5 546.9 -265.6H331.3c11.9 -7.9 22.9 -18.5 32.6 -31.3h558c85.5 0 171.3 -17.2 235.5 -47.3 58 -27.2 92.6 -62.1 92.6 -93.3s-34.6 -66.1 -92.6 -93.3zM953.1 578.1a15.6 -15.6 0 0 0 -15.6 -15.6v-125a15.6 -15.6 0 0 0 15.6 -15.6c62.3 0 62.4 156.2 0 156.2z"/></svg>