
  <svg height="1000" width="1250.0" xmlns="http://www.w3.org/2000/svg">
    <path d="m1157.4 406.7c58 27.2 92.6 62.1 92.6 93.3s-34.6 66.1-92.6 93.3c-64.2 30.1-150 47.3-235.5 47.3h-558c-9.7 12.8-20.7 23.4-32.6 31.3h403.1c-286.8 59.1-305.9 265.6-546.9 265.6h0v-250h-31.2v250c-51.8 0-93.8-56-93.8-125v-125c-45.3 0-62.5-19.6-62.5-46.9v-78.1c0-27.3 17.2-46.9 62.5-46.9v-31.2c-45.3 0-62.5-19.6-62.5-46.9v-78.1c0-27.3 17.2-46.9 62.5-46.9v-125c0-69 42-125 93.8-125v250h31.2v-250h0c241 0 260.1 206.5 546.9 265.6h-403.1c11.9 7.9 22.9 18.5 32.6 31.3h558c85.5 0 171.3 17.2 235.5 47.3z m-204.3 171.4c62.4 0 62.3-156.2 0-156.2-8.6 0-15.6 7-15.6 15.6v125c0 8.6 7 15.6 15.6 15.6z" />
  </svg>
