
  <svg height="1000" width="1125.0" xmlns="http://www.w3.org/2000/svg">
    <path d="m531.3 500c-17.3 0-31.3-14-31.3-31.2v-437.5c0-17.3 14-31.3 31.3-31.3h146.4c82.7 0 158 59.7 165.4 142 0.4 4.7 0.6 9.6 0.6 14.4 0 26.5-6.6 51.4-18.3 73.3 30.6 28.4 49.6 68.9 49.6 113.9 0 3.1-0.1 6.2-0.3 9.3-4.9 84.2-80.6 147.1-165 147.1h-178.5z m78.1-390.6v93.7h78.1c25.9 0 46.9-21 46.9-46.8s-21-46.9-46.9-46.9h-78.1z m0 187.5v93.7h109.4c25.8 0 46.8-21 46.8-46.8s-21-46.9-46.8-46.9h-109.4z m-306.4-253.4l133.4 416.9c0.7 2.7 1.1 5.5 1.1 8.3 0 17.3-14 31.3-31.3 31.3h-48.6c-14.4 0-26.5-9.7-30.2-22.9l-23.3-70.9h-170.7l-23.3 70.9c-3.7 13.2-15.8 22.9-30.2 22.9h-48.7c-17.2 0-31.2-14-31.2-31.2 0-2.9 0.4-5.7 1.2-8.4l133.3-416.9c8.1-25.2 31.7-43.5 59.6-43.5h49.3c27.9 0 51.5 18.3 59.6 43.5z m-128.4 237.8h88.3l-44.1-134.2z m941.4 258.7c5.6 5.7 9.1 13.5 9.1 22.1 0 8.6-3.5 16.4-9.1 22l-406.3 406.7c-5.6 5.7-13.4 9.2-22.1 9.2s-16.4-3.5-22-9.2l-218.8-219.2c-5.6-5.6-9.1-13.4-9.1-22 0-8.6 3.5-16.4 9.1-22.1l88.5-88.5c5.6-5.7 13.4-9.2 22.1-9.2 8.6 0 16.4 3.5 22 9.2l108.2 108.4 295.9-295.9c5.7-5.7 13.5-9.2 22.1-9.2 8.6 0 16.4 3.5 22.1 9.2z" />
  </svg>
