
  <svg height="1000" width="1125.0" xmlns="http://www.w3.org/2000/svg">
    <path d="m295.3 326.9l-53.1-106.1c-4.2-8.4-6.5-17.9-6.5-28 0-6.9 1.1-13.5 3.1-19.7l50.6-151.7c5.5-16.4 23.2-25.3 39.5-19.8l29.7 9.9c16.4 5.5 25.2 23.1 19.7 39.5l-46.4 139.4 39.6 79.3c-2.8 8.2-4.9 16-6.3 23l-10.2 51.1h-9.1z m824.4 355.5c9.6 14.3 5.8 33.7-8.6 43.3l-26 17.3c-14.4 9.6-33.8 5.7-43.4-8.6l-93.7-140.6h-91.9l118.8 190c6.2 10 9.5 21.5 9.5 33.2v151.8c0 17.2-14 31.2-31.3 31.2h-31.2c-17.3 0-31.3-14-31.3-31.2v-142.8l-144.7-231.5c2 27.4 4.1 54.9 4.1 82.4 0 103.6-79.6 198.1-187.5 198.1s-187.5-94.5-187.5-198.1c0-27.5 2.1-55 4.1-82.4l-144.7 231.5v142.8c0 17.2-14 31.2-31.3 31.2h-31.2c-17.3 0-31.3-14-31.3-31.2v-151.8c0 0 0.1-0.1 0.1-0.1 0-12.1 3.4-23.4 9.4-33l118.8-190.1h-91.9l-93.7 140.6c-9.6 14.4-29 18.2-43.4 8.7l-26-17.4c-14.3-9.5-18.2-29-8.6-43.3l103-154.6c11.2-16.8 30.3-27.8 52-27.8h152.2l-134.7-47.6c-13.4-4.4-24.6-13.1-32.3-24.6l-104.7-157c-9.5-14.4-5.7-33.8 8.7-43.4l26-17.3c14.4-9.6 33.8-5.7 43.3 8.7l98.8 148.1 118.1 39.4h70.6l20.2-101.3c4.3-21.4 33.9-117.5 136-117.5s131.7 96.1 136 117.5l20.3 101.3h70.5l118.1-39.4 98.8-148.1c9.5-14.4 29-18.3 43.3-8.7l26 17.3c14.4 9.6 18.3 29 8.7 43.4l-104.7 157c-7.7 11.5-18.9 20.2-32.3 24.6l-134.7 47.6h152.2c21.7 0 40.8 11 52 27.9z m-326.6-492l-46.4-139.4c-5.5-16.4 3.4-34 19.7-39.5l29.7-9.9c16.3-5.5 34 3.4 39.5 19.8l50.6 151.7c2 6.2 3.1 12.9 3.1 19.8 0 10-2.3 19.5-6.5 27.9l-53.1 106.1-50.6 16.9h-9.1l-10.2-51.1c-1.4-7-3.5-14.8-6.3-23z" />
  </svg>
