
  <svg height="1000" width="1000.0" xmlns="http://www.w3.org/2000/svg">
    <path d="m593.8 93.8c0 51.7-42 93.7-93.8 93.7s-93.7-42-93.7-93.7 41.9-93.8 93.7-93.8 93.8 42 93.8 93.8z m-93.8 718.7c51.8 0 93.8 42 93.8 93.8s-42 93.7-93.8 93.7-93.7-42-93.7-93.7 41.9-93.8 93.7-93.8z m406.3-406.2c51.7 0 93.7 41.9 93.7 93.7s-42 93.8-93.7 93.8-93.8-42-93.8-93.8 42-93.7 93.8-93.7z m-718.8 93.7c0 51.8-42 93.8-93.7 93.8s-93.8-42-93.8-93.8 42-93.7 93.8-93.7 93.7 41.9 93.7 93.7z m25.2 193.5c51.8 0 93.8 42 93.8 93.8 0 51.7-42 93.7-93.8 93.7s-93.7-42-93.7-93.7 42-93.8 93.7-93.8z m574.6 0c51.7 0 93.7 42 93.7 93.8 0 51.7-42 93.7-93.7 93.7s-93.8-42-93.8-93.7 42-93.8 93.8-93.8z m-574.6-574.5c51.8 0 93.8 42 93.8 93.7s-42 93.8-93.8 93.8-93.7-42-93.7-93.8 42-93.7 93.7-93.7z" />
  </svg>
