<svg height="1000" width="1000" xmlns="http://www.w3.org/2000/svg"><path d="M593.8 93.8c0 51.7 -42 93.7 -93.8 93.7s-93.7 -42 -93.7 -93.7S448.2 0 500 0s93.8 42 93.8 93.8zM500 812.5c-51.8 0 -93.7 42 -93.7 93.8s41.9 93.7 93.7 93.7 93.8 -42 93.8 -93.7 -42 -93.8 -93.8 -93.8zM906.3 406.3c-51.8 0 -93.8 41.9 -93.8 93.7s42 93.8 93.8 93.8 93.7 -42 93.7 -93.8 -42 -93.7 -93.7 -93.7zM187.5 500c0 -51.8 -42 -93.7 -93.7 -93.7S0 448.2 0 500s42 93.8 93.8 93.8 93.7 -42 93.7 -93.8zm25.2 193.5c-51.7 0 -93.7 42 -93.7 93.8s42 93.7 93.7 93.7 93.8 -42 93.8 -93.7c0 -51.8 -42 -93.8 -93.8 -93.8zm574.6 0c-51.8 0 -93.8 42 -93.8 93.8s42 93.7 93.8 93.7S881 839 881 787.3c0 -51.8 -42 -93.8 -93.7 -93.8zM212.7 119C161 119 119 161 119 212.7s42 93.8 93.7 93.8 93.8 -42 93.8 -93.8S264.5 119 212.7 119z"/></svg>