<svg height="1000" width="1000" xmlns="http://www.w3.org/2000/svg"><path d="M922.4 382.6L791.5 337.8C753.8 324.9 726 296.9 717 263L685.7 144.9C663.1 59.4 536.2 33.3 470.9 100.7l-90.1 93.1c-25.9 26.8 -65.5 40.9 -105.8 37.7L134.6 220.6C32.9 212.6 -35.2 308.2 19.3 382.3l75.3 102.4c21.6 29.5 25 66.2 9 98.2L48.1 694.1C7.9 774.7 92.7 859.9 191.6 838.3l136.7 -29.8c39.2 -8.6 80.9 0 111.4 22.9l106.1 79.7c76.8 57.7 197.4 14.8 204 -72.7L759 717.6c2.6 -34.7 25 -66.1 59.8 -84l121.1 -62c87.7 -44.8 77.3 -156.5 -17.5 -189z"/></svg>