
  <svg height="1000" width="1000.0" xmlns="http://www.w3.org/2000/svg">
    <path d="m922.4 382.6c94.8 32.5 105.2 144.2 17.5 189l-121.1 62c-34.8 17.9-57.2 49.3-59.8 84l-9.2 120.8c-6.6 87.5-127.2 130.4-204 72.7l-106.1-79.7c-30.5-22.9-72.2-31.5-111.4-22.9l-136.7 29.8c-98.9 21.6-183.7-63.6-143.5-144.2l55.5-111.2c16-32 12.6-68.7-9-98.2l-75.3-102.4c-54.5-74.1 13.6-169.7 115.3-161.7l140.4 10.9c40.3 3.2 79.9-10.9 105.8-37.7l90.1-93.1c65.3-67.4 192.2-41.3 214.8 44.2l31.3 118.1c9 33.9 36.8 61.9 74.5 74.8z" />
  </svg>
