<svg height="1000" width="1000" xmlns="http://www.w3.org/2000/svg"><path d="M437.5 62.5C437.5 28 409.5 0 375 0H250c-34.5 0 -62.5 28 -62.5 62.5V250h250V62.5zm500 187.5C903 250 875 278 875 312.5s28 62.5 62.5 62.5 62.5 -28 62.5 -62.5S972 250 937.5 250zm-500 62.5h-250C83.9 312.5 0 396.4 0 500v437.5C0 972 28 1000 62.5 1000h500c34.5 0 62.5 -28 62.5 -62.5V500C625 396.4 541.1 312.5 437.5 312.5zm-125 500c-86.3 0 -156.2 -70 -156.2 -156.2S226.2 500 312.5 500s156.3 70 156.3 156.3 -70 156.2 -156.3 156.2zm625 -625c34.5 0 62.5 -28 62.5 -62.5S972 62.5 937.5 62.5 875 90.5 875 125s28 62.5 62.5 62.5zM750 250c-34.5 0 -62.5 28 -62.5 62.5s28 62.5 62.5 62.5 62.5 -28 62.5 -62.5S784.5 250 750 250zM562.5 62.5C528 62.5 500 90.5 500 125s28 62.5 62.5 62.5S625 159.5 625 125 597 62.5 562.5 62.5zm187.5 0c-34.5 0 -62.5 28 -62.5 62.5s28 62.5 62.5 62.5 62.5 -28 62.5 -62.5S784.5 62.5 750 62.5zm187.5 375c-34.5 0 -62.5 28 -62.5 62.5s28 62.5 62.5 62.5 62.5 -28 62.5 -62.5 -28 -62.5 -62.5 -62.5z"/></svg>