
  <svg height="1000" width="1000.0" xmlns="http://www.w3.org/2000/svg">
    <path d="m437.5 62.5v187.5h-250v-187.5c0-34.5 28-62.5 62.5-62.5h125c34.5 0 62.5 28 62.5 62.5z m500 187.5c34.5 0 62.5 28 62.5 62.5s-28 62.5-62.5 62.5-62.5-28-62.5-62.5 28-62.5 62.5-62.5z m-500 62.5c103.6 0 187.5 83.9 187.5 187.5v437.5c0 34.5-28 62.5-62.5 62.5h-500c-34.5 0-62.5-28-62.5-62.5v-437.5c0-103.6 83.9-187.5 187.5-187.5h250z m-125 500c86.3 0 156.3-70 156.3-156.2s-70-156.3-156.3-156.3-156.2 70-156.2 156.3 69.9 156.2 156.2 156.2z m625-625c-34.5 0-62.5-28-62.5-62.5s28-62.5 62.5-62.5 62.5 28 62.5 62.5-28 62.5-62.5 62.5z m-187.5 62.5c34.5 0 62.5 28 62.5 62.5s-28 62.5-62.5 62.5-62.5-28-62.5-62.5 28-62.5 62.5-62.5z m-187.5-187.5c34.5 0 62.5 28 62.5 62.5s-28 62.5-62.5 62.5-62.5-28-62.5-62.5 28-62.5 62.5-62.5z m187.5 0c34.5 0 62.5 28 62.5 62.5s-28 62.5-62.5 62.5-62.5-28-62.5-62.5 28-62.5 62.5-62.5z m187.5 375c34.5 0 62.5 28 62.5 62.5s-28 62.5-62.5 62.5-62.5-28-62.5-62.5 28-62.5 62.5-62.5z" />
  </svg>
