
  <svg height="1000" width="1125.0" xmlns="http://www.w3.org/2000/svg">
    <path d="m1115.8 490.8c12.2 12.2 12.2 32 0 44.2l-89.9 90 89.9 90c12.2 12.2 12.2 32 0 44.2l-44.1 44.1c-12.2 12.2-32 12.2-44.2 0l-90-89.9-90 89.9c-12.2 12.2-32 12.2-44.2 0l-44.1-44.1c-12.2-12.2-12.2-32 0-44.2l89.9-90-89.9-90c-12.2-12.2-12.2-32 0-44.2l44.1-44.1c12.2-12.2 32-12.2 44.2 0l90 89.9 90-89.9c12.2-12.2 32-12.2 44.2 0z m-37.7-490.8c25.9 0 46.9 21 46.9 46.9v93.7c0 25.9-21 46.9-46.9 46.9h-380.8l-191 731.5c-19.2 63.4-72.3 81-106 81-36.4 0-70.2-16.6-94.6-55.2l-173.6-319.8h-85.2c-25.9 0-46.9-21-46.9-46.9v-93.7c0-25.9 21-46.9 46.9-46.9h159.1c23.6 0 44.1 13 54.7 32.4l114.1 207.2 165.6-630.5c7.2-27.5 32.1-46.6 60.5-46.6h477.2z" />
  </svg>
