
  <svg height="1000" width="1000.0" xmlns="http://www.w3.org/2000/svg">
    <path d="m62.5 1000v-125h875v125h-875z m750-500c103.6 0 187.5 83.9 187.5 187.5v62.5c0 34.5-28 62.5-62.5 62.5h-875c-34.5 0-62.5-28-62.5-62.5v-62.5c0-103.6 83.9-187.5 187.5-187.5h130c31.8 0 57.5-25.7 57.5-57.5v-0.1c0-62.1-19.5-121.2-45.5-177.6-10.9-23.5-17-49.6-17-77.3 0-114.6 102.8-205.2 221.2-184.6 75.8 13.2 137.7 75.6 150.9 151.3 7.5 43 0.1 83.6-17.7 118-24.6 47.5-41.9 98.4-41.9 151.8v18.5c0 31.8 25.7 57.5 57.5 57.5h130z" />
  </svg>
