<svg height="1000" width="1000" xmlns="http://www.w3.org/2000/svg"><path d="M62.5 1000h875V875h-875v125zm750 -500h-130C650.7 500 625 474.3 625 442.5V424c0 -53.4 17.3 -104.3 41.9 -151.8 17.8 -34.4 25.2 -75 17.7 -118C671.4 78.5 609.5 16.1 533.7 2.9 415.3 -17.7 312.5 72.9 312.5 187.5c0 27.7 6.1 53.8 17 77.3 26 56.4 45.5 115.5 45.5 177.6v.1c0 31.8 -25.7 57.5 -57.5 57.5h-130C83.9 500 0 583.9 0 687.5V750c0 34.5 28 62.5 62.5 62.5h875c34.5 0 62.5 -28 62.5 -62.5v-62.5C1000 583.9 916.1 500 812.5 500z"/></svg>