
  <svg height="1000" width="1046.9" xmlns="http://www.w3.org/2000/svg">
    <path d="m993.3 335c51.2 7.4 71.8 70.5 34.6 106.6l-206.9 201.2 48.9 284.1c7 40.6-25.5 73.1-61.8 73.1-9.6 0-19.5-2.3-29-7.3l-255.7-134.2-255.8 134.2c-9.5 5-19.4 7.3-29 7.3-36.3 0-68.7-32.6-61.8-73.1l49-284.2-206.8-201.2c-37.2-36.1-16.7-99.2 34.6-106.6l285.9-41.6 127.8-258.5c11.5-23.3 33.8-34.8 56-34.8 22.4 0 44.8 11.7 56.3 34.8l127.8 258.6z m-237.8 240.6l161.4-157-223.1-32.5-48.8-7.1-21.9-44.2-99.6-201.7-0.1 619.5 43.7 22.9 199.5 104.7-38.1-221.6-8.4-48.6z" />
  </svg>
