<svg height="1000" width="1046.9" xmlns="http://www.w3.org/2000/svg"><path d="M993.3 335L707.4 293.4 579.6 34.8C568.1 11.7 545.7 0 523.3 0c-22.2 0 -44.5 11.5 -56 34.8L339.5 293.3 53.6 334.9C2.3 342.3 -18.2 405.4 19 441.5l206.8 201.2 -49 284.2c-6.9 40.5 25.5 73.1 61.8 73.1 9.6 0 19.5 -2.3 29 -7.3L523.4 858.5l255.7 134.2c9.5 5 19.4 7.3 29 7.3 36.3 0 68.8 -32.5 61.8 -73.1L821 642.8l206.9 -201.2c37.2 -36.1 16.6 -99.2 -34.6 -106.6zM755.5 575.6L720.1 610l8.4 48.6 38.1 221.6L567.1 775.5l-43.7 -22.9 .1 -619.5 99.6 201.7L645 379l48.8 7.1 223.1 32.5 -161.4 157z"/></svg>