
  <svg height="1000" width="937.5" xmlns="http://www.w3.org/2000/svg">
    <path d="m921.9 653.2c14.9 8.6 20 27.7 11.4 42.7l-62.5 108.2c-8.7 15-27.8 20.1-42.8 11.5l-265.4-153.2v306.3c0 17.3-14 31.3-31.3 31.3h-125.1c-17.3 0-31.3-14-31.3-31.3v-306.3l-265.4 153.2c-15 8.6-34.1 3.5-42.8-11.5l-62.5-108.2c-8.6-15-3.5-34.1 11.4-42.7l265.5-153.2-265.5-153.2c-14.9-8.6-20-27.7-11.4-42.7l62.5-108.2c8.7-15 27.8-20.1 42.8-11.5l265.4 153.2v-306.4c0-17.2 14-31.2 31.3-31.2h125.1c17.3 0 31.3 14 31.3 31.2v306.4l265.4-153.2c15-8.6 34.1-3.5 42.8 11.5l62.5 108.2c8.6 15 3.5 34.1-11.4 42.7l-265.5 153.2z" />
  </svg>
