<svg height="1000" width="937.5" xmlns="http://www.w3.org/2000/svg"><path d="M921.9 653.2L656.4 500 921.9 346.8c14.9 -8.6 20 -27.7 11.4 -42.7L870.8 195.9C862.1 180.9 843 175.8 828 184.4L562.6 337.6V31.3C562.6 14 548.6 0 531.3 0H406.2c-17.3 0 -31.3 14 -31.3 31.3v306.3L109.5 184.4c-15 -8.6 -34.1 -3.5 -42.8 11.5L4.2 304.1c-8.6 15 -3.5 34.1 11.4 42.7L281.1 500 15.6 653.2c-14.9 8.6 -20 27.7 -11.4 42.7l62.5 108.2c8.7 15 27.8 20.1 42.8 11.5L374.9 662.4v306.4c0 17.2 14 31.2 31.3 31.2h125.1c17.3 0 31.3 -14 31.3 -31.2V662.4L828 815.6c15 8.6 34.1 3.5 42.8 -11.5l62.5 -108.2c8.6 -15 3.5 -34.1 -11.4 -42.7z"/></svg>