
  <svg height="1000" width="906.3" xmlns="http://www.w3.org/2000/svg">
    <path d="m792.3 500l104 174.6c28.1 47.3-6.7 106.7-62.5 106.7h-208.9l-109.3 183.5c-13.9 23.5-38.2 35.2-62.5 35.2s-48.5-11.7-62.5-35.2l-109.3-183.5h-208.8c-55.9 0-90.7-59.4-62.5-106.7l103.9-174.6-103.9-174.6c-28.2-47.3 6.6-106.7 62.5-106.7h208.8l109.3-183.5c14-23.5 38.2-35.2 62.5-35.2s48.6 11.7 62.5 35.2l109.3 183.5h208.9c55.8 0 90.6 59.4 62.5 106.7z m-24.9-171.9h-77.4l38.7 65z m-102.3 171.9l-102.4-171.9h-219.2l-102.3 171.9 102.3 171.9h219.2z m-212-356l-44.5 74.8h89z m-314.2 184.1l38.6 65 38.7-65h-77.3z m0 343.8h77.3l-38.7-65z m314.2 184.1l44.5-74.8h-89z m236.9-184.1h77.4l-38.7-65z" />
  </svg>
