
  <svg height="1000" width="1000.0" xmlns="http://www.w3.org/2000/svg">
    <path d="m665 910.9c17.1 0 29.5 13.6 29.5 29.4 0 12.9-8.4 23.9-20 27.8-56.8 21.2-115.5 31.9-174.5 31.9-275.7 0-500-224.3-500-500s224.3-500 500-500c59.4 0 118.3 10.8 175.3 32.2 13.5 5.1 21.3 19.2 18.5 33.4-2.8 13.7-14.9 23.5-28.8 23.5-2.9 0-13.4-0.9-17.9-0.9-227.1 0-411.8 184.7-411.8 411.8s184.7 411.8 411.8 411.8c4.4 0 15-0.9 17.9-0.9z m318.3-493.2c16 2.3 22.3 21.9 10.8 33.2l-107.9 105.2 25.4 148.6c2.2 12.5-7.8 22.7-19.1 22.7-3 0-6.1-0.7-9.1-2.2l-133.4-70.2-133.5 70.2c-2.9 1.5-6 2.2-9 2.2-11.3 0-21.3-10.2-19.2-22.7l25.5-148.6-107.9-105.2c-11.6-11.3-5.2-30.9 10.7-33.2l149.2-21.7 66.7-135.2c3.6-7.2 10.5-10.8 17.5-10.8s13.8 3.6 17.4 10.8l66.7 135.2z" />
  </svg>
