
  <svg height="1000" width="1000.0" xmlns="http://www.w3.org/2000/svg">
    <path d="m873.2 218.8c69.8-1 126.8 55.2 126.8 125 0 46.2-25.2 86.5-62.5 108.2v219.9c0 180.8-154.3 328.1-343.7 328.1-186.4 0-338.5-142.2-343.6-318.7-142.6-29-250.2-155.3-250.2-306.3v-303.5c0-22.5 15.8-41.6 37.7-46.1l122.7-24.2c25.3-5.1 50 11.3 55 36.7l6.1 30.7c5.1 25.3-11.3 50-36.7 55l-60 11.9v239.3c0 104.1 85 188.5 189.3 187.5 103.3-1 185.7-86.5 185.7-189.8v-237.1l-60-12c-25.3-5-41.8-29.6-36.7-55l6.3-30.7c5.1-25.4 29.7-41.8 55.1-36.7l122.8 24.6c21.9 4.3 37.7 23.6 37.7 45.9v303.5c0 150.8-107.4 277-249.6 306.3 5.3 107.6 101.4 193.7 218.5 193.7 120.7 0 218.8-91.2 218.8-203.1v-219.9c-38.1-21.9-63.5-63.5-62.5-111 1.4-66.8 56.2-121.3 123-122.2z m1.8 156.2c17.2 0 31.3-14.1 31.3-31.2s-14.1-31.3-31.3-31.3-31.2 14.1-31.2 31.3 14 31.2 31.2 31.2z" />
  </svg>
