<svg height="1000" width="1000" xmlns="http://www.w3.org/2000/svg"><path d="M873.2 218.8c-66.8 .9 -121.6 55.4 -123 122.2 -1 47.5 24.4 89.1 62.5 111v219.9C812.7 783.8 714.6 875 593.9 875 476.8 875 380.7 788.9 375.4 681.3 517.6 652 625 525.8 625 375V71.5C625 49.2 609.2 29.9 587.3 25.6L464.5 1c-25.4 -5.1 -50 11.3 -55.1 36.7l-6.3 30.7c-5.1 25.4 11.4 50 36.7 55l60 12v237.1c0 103.3 -82.4 188.8 -185.7 189.8 -104.3 1 -189.3 -83.4 -189.3 -187.5V135.5l60 -11.9c25.4 -5 41.8 -29.7 36.7 -55l-6.1 -30.7c-5 -25.4 -29.7 -41.8 -55 -36.7L37.7 25.4C15.8 29.9 0 49 0 71.5V375c0 151 107.6 277.3 250.2 306.3 5.1 176.5 157.2 318.7 343.6 318.7 189.4 0 343.7 -147.3 343.7 -328.1V452c37.3 -21.7 62.5 -62 62.5 -108.2 0 -69.8 -57 -126 -126.8 -125zM875 375c-17.2 0 -31.2 -14.1 -31.2 -31.2s14 -31.3 31.2 -31.3 31.3 14.1 31.3 31.3S892.2 375 875 375z"/></svg>