
  <svg height="1000" width="875.0" xmlns="http://www.w3.org/2000/svg">
    <path d="m843.8 593.8c0 224.4-181.9 406.2-406.3 406.2s-406.2-181.8-406.2-406.2c0-203.2 149-371.5 343.7-401.4v-67.4h-54.7c-12.9 0-23.4-10.5-23.4-23.4v-78.2c0-12.9 10.5-23.4 23.4-23.4h234.4c12.9 0 23.4 10.5 23.4 23.4v78.2c0 12.9-10.5 23.4-23.4 23.4h-54.7v67.4c73.2 11.3 140 42.2 194.7 87.1l53.7-53.7c9.2-9.2 24.1-9.2 33.2 0l55.3 55.3c9.2 9.1 9.2 24 0 33.2l-57.4 57.4-1.2 1.2c41.4 63.2 65.4 139.2 65.4 220.9z m-343.8 70.3v-295.9c0-12.9-10.5-23.5-23.4-23.5h-78.2c-12.9 0-23.4 10.6-23.4 23.5v295.9c0 12.9 10.5 23.4 23.4 23.4h78.2c12.9 0 23.4-10.5 23.4-23.4z" />
  </svg>
