
  <svg height="1000" width="875.0" xmlns="http://www.w3.org/2000/svg">
    <path d="m778.3 372.9c41.2 63.1 65.5 138.9 65.5 219.9 0 0.3 0 0.6 0 1 0 226.5-185.3 409.7-412.7 406.2-222.6-3.5-406.4-196.3-399.7-418.8 6.1-197.1 153.3-359.3 343.6-388.8v-67.4h-62.5c-17.2-0.1-31.2-14-31.2-31.2v-62.5c0-17.3 14-31.2 31.2-31.3h250c17.2 0 31.3 14 31.3 31.3v62.5c0 17.2-14.1 31.2-31.3 31.2h-62.5v67.4c73 11.2 140.1 42.2 194.7 87.1l48.2-48.2c5.7-5.7 13.5-9.2 22.1-9.2s16.5 3.5 22.1 9.2l44.3 44.3c5.7 5.6 9.2 13.4 9.2 22.1s-3.5 16.4-9.2 22.1l-51.9 51.9z m-379.1 364.5l-96-0.1c3.5-30.5 29-70.7 51.6-100 42.8-58.8 67.1-89.3 67.1-158.8 0-68.6-24.6-119.1-108.6-119.1-93.6 0-110.2 64.3-110.2 117.6v8c0.2 8.7 7.3 15.7 16 15.7 0.1 0 0.2 0 0.3 0h48.6c0.1 0 0.2 0 0.3 0 8.7 0 15.9-7 16-15.7v-10.2c0-29.9 6.4-44.3 24.8-44.3 20.3 0 23.8 14.3 23.8 47.4 0 48.8-13 64.7-52.9 121.7-46.4 66.4-69.7 109.7-75.1 178.5-0.1 0.7-0.1 1.5-0.1 2.3 0 17.7 14.4 32.1 32.2 32.1 0.1 0 0.2 0 0.3 0h161.9c0 0 0.1 0 0.2 0 8.7 0 15.9-7 16-15.8v-43.5c-0.1-8.8-7.2-15.8-16-15.8-0.1 0-0.2 0-0.2 0z m272.7-49.3v-209c0-75.5-37.1-119.7-109-119.7-71.5 0-109.8 43.9-109.8 123.5v205.7c0 66.2 21.9 123.9 107 123.9 87.8 0 111.8-55.7 111.8-124.4z m-109.7-255c19.6 0 25.5 15.7 25.4 37.7v226.5c0 25.9-6.5 41.5-25.4 41.5s-25.8-14.6-25.8-40.2v-226.5c0-24.4 7.5-39 25.8-39z" />
  </svg>
