
  <svg height="1000" width="1250.0" xmlns="http://www.w3.org/2000/svg">
    <path d="m34.9 241.4l172.8 133.6h-145c-50 0-79.7-55.7-51.9-97.3z m1090.1 566.1l112.9 87.2c7.4 5.7 12.1 14.7 12.1 24.7 0 7.2-2.4 13.9-6.6 19.2l-38.3 49.3c-5.7 7.4-14.7 12.1-24.7 12.1-7.3 0-13.9-2.5-19.2-6.6l-1149.1-888.1c-7.4-5.7-12.1-14.7-12.1-24.7 0-7.2 2.5-13.9 6.6-19.2l38.3-49.3c5.7-7.4 14.7-12.1 24.7-12.1 7.2 0 13.9 2.5 19.2 6.6l67.7 52.4 20.9-31.3c11.1-16.7 30.1-27.7 51.8-27.7h0.1 791.4c0 0 0-0.1 0-0.1 21.7 0 40.9 11.1 52.2 27.8l166.5 250c27.6 41.6-2.1 97.3-51.9 97.3h-622l80.8 62.5h103.7v80.1l250 193.3v-273.4h125v370z m-500-57.5v-52.5l125 96.6v143.4c0 34.5-28 62.5-62.5 62.5h-500c-34.5 0-62.5-28-62.5-62.5v-500h125v312.5h375z" />
  </svg>
