
  <svg height="1000" width="1250.0" xmlns="http://www.w3.org/2000/svg">
    <path d="m237.3 750h443.2l307.3 250h-809.6c-32.8 0-59.4-27.9-59.4-62.5v-384.4c9.8 3 20.1 5.4 30.4 7.1 11 1.5 22 2.3 33.4 2.3 18.9-0.3 37.2-2.9 54.7-7.4v194.9z m-54.7-250.2c-0.1 0-0.1 0-0.2 0-8.5 0-17-0.5-25.2-1.7-115.1-16.5-169.9-159.3-110.3-263.6l260.7 212.1c-32.6 32.3-75.9 53.2-125 53.2z m993.4 394.9c7.1 5.9 11.5 14.8 11.5 24.8 0 7.1-2.3 13.7-6.3 19.1l-36.4 49.3c-5.2 7.3-13.7 12.1-23.4 12.1-6.9 0-13.3-2.5-18.3-6.6l-1091.6-888.1c-7.1-6-11.5-14.9-11.5-24.8 0-7.1 2.3-13.7 6.3-19.1l36.4-49.3c5.2-7.3 13.7-12.1 23.4-12.1 6.9 0 13.3 2.5 18.3 6.6l65.8 53.5 18.3-30.8c10.1-17.4 28.8-29.1 50.3-29.3h749.6c21.5 0.2 40.2 11.9 50.3 29.3l120.4 202.3c62.4 104.7 7 250-109.5 266.4-8.4 1.2-16.7 1.8-25.4 1.8-54.7 0-103.4-25.4-136.9-64.6-33.5 39.2-82.1 64.6-137 64.6-17.2-0.2-33.9-3.1-49.6-8.1l269.2 219v-155.6c17.5 4.6 35.8 7.2 54.7 7.4 11.5 0 22.6-0.8 33.7-2.3 10.4-1.5 20.7-3.9 30.5-7.1v254.3z" />
  </svg>
