<svg height="1000" width="1203.1" xmlns="http://www.w3.org/2000/svg"><path d="M1175.8 231.6L1049 29.3C1037.7 11.1 1017.6 0 996.1 0H207c-21.5 0 -41.6 11.1 -52.9 29.3L27.3 231.6C-38.1 336.1 19.9 481.4 142.2 498c8.8 1.2 17.8 1.8 26.7 1.8 57.9 0 109 -25.4 144.2 -64.6 35.1 39.2 86.5 64.6 144.1 64.6 57.8 0 109 -25.4 144.2 -64.6 35.1 39.2 86.5 64.6 144.1 64.6 57.8 0 109 -25.4 144.1 -64.6 35.4 39.2 86.6 64.6 144.2 64.6 9.2 0 18 -.6 26.7 -1.8 122.7 -16.4 180.9 -161.7 115.3 -266.4zm-141.6 330.9c-19.6 0 -38.9 -2.9 -57.6 -7.4V750h-750V555.1c-18.8 4.3 -38.1 7.4 -57.7 7.4 -11.7 0 -23.6 -.8 -35.1 -2.3 -10.9 -1.6 -21.7 -4.1 -32 -7.1v384.4c0 34.6 27.9 62.5 62.5 62.5h875c34.5 0 62.5 -27.9 62.5 -62.5V553.1c-10.6 3.2 -21.1 5.7 -32.1 7.1 -11.9 1.5 -23.6 2.3 -35.5 2.3z"/></svg>