
  <svg height="1000" width="1203.1" xmlns="http://www.w3.org/2000/svg">
    <path d="m1175.8 231.6c65.6 104.7 7.4 250-115.3 266.4-8.7 1.2-17.5 1.8-26.7 1.8-57.6 0-108.8-25.4-144.2-64.6-35.1 39.2-86.3 64.6-144.1 64.6-57.6 0-109-25.4-144.1-64.6-35.2 39.2-86.4 64.6-144.2 64.6-57.6 0-109-25.4-144.1-64.6-35.2 39.2-86.3 64.6-144.2 64.6-8.9 0-17.9-0.6-26.7-1.8-122.3-16.6-180.3-161.9-114.9-266.4l126.8-202.3c11.3-18.2 31.4-29.3 52.9-29.3h789.1c21.5 0 41.6 11.1 52.9 29.3z m-141.6 330.9c11.9 0 23.6-0.8 35.5-2.3 11-1.4 21.5-4 32.1-7.1v384.4c0 34.6-28 62.5-62.5 62.5h-875c-34.6 0-62.5-27.9-62.5-62.5v-384.4c10.3 3 21.1 5.5 32 7.1 11.5 1.5 23.4 2.3 35.1 2.3 19.6 0 38.9-3.1 57.7-7.4v194.9h750v-194.9c18.7 4.5 38 7.4 57.6 7.4z" />
  </svg>
