
  <svg height="1000" width="1000.0" xmlns="http://www.w3.org/2000/svg">
    <path d="m718.6 644.1c166.4 30.4 281.4 94.3 281.4 168.4 0 103.6-223.9 187.5-500 187.5s-500-83.9-500-187.5c0-74.1 115-138 281.4-168.4 9.1 10.3 19.1 19.7 31.1 26.6v44.8c-129.9 18.3-218.7 54.8-218.7 97 0 60.4 181.8 109.4 406.2 109.4s406.3-49 406.3-109.4c0-42.2-88.9-78.7-218.8-97v-44.8c12-6.9 22-16.3 31.1-26.6z m-218.6-394.1c-69 0-125-56-125-125s56-125 125-125 125 56 125 125-56 125-125 125z m-125 375c-34.5 0-62.5-28-62.5-62.5v-187.5c0-51.8 42-93.7 93.8-93.7h23c21.6 9.8 45.4 15.6 70.7 15.6s49.1-5.8 70.7-15.6h23.1c51.7 0 93.7 41.9 93.7 93.7v187.5c0 34.5-28 62.5-62.5 62.5v187.5c0 34.5-28 62.5-62.5 62.5h-125c-34.5 0-62.5-28-62.5-62.5v-187.5z" />
  </svg>
