<svg height="1000" width="1000" xmlns="http://www.w3.org/2000/svg"><path d="M718.6 644.1c-9.1 10.3 -19.1 19.7 -31.1 26.6v44.8c129.9 18.3 218.8 54.8 218.8 97 0 60.4 -181.9 109.4 -406.3 109.4S93.8 872.9 93.8 812.5c0 -42.2 88.8 -78.7 218.7 -97v-44.8c-12 -6.9 -22 -16.3 -31.1 -26.6C115 674.5 0 738.4 0 812.5 0 916.1 223.9 1000 500 1000s500 -83.9 500 -187.5c0 -74.1 -115 -138 -281.4 -168.4zM500 250c69 0 125 -56 125 -125S569 0 500 0 375 56 375 125s56 125 125 125zM375 625v187.5c0 34.5 28 62.5 62.5 62.5h125C597 875 625 847 625 812.5V625c34.5 0 62.5 -28 62.5 -62.5V375c0 -51.8 -42 -93.7 -93.7 -93.7h-23.1c-21.6 9.8 -45.4 15.6 -70.7 15.6s-49.1 -5.8 -70.7 -15.6h-23c-51.8 0 -93.8 41.9 -93.8 93.7v187.5c0 34.5 28 62.5 62.5 62.5z"/></svg>