
  <svg height="1000" width="1000.0" xmlns="http://www.w3.org/2000/svg">
    <path d="m31.3 250c-17.3 0-31.3-14-31.3-31.2v-125c0-17.3 14-31.3 31.3-31.3h812.5c17.2 0 31.2 14 31.2 31.3v125c0 17.2-14 31.2-31.2 31.2h-812.5z m937.5 156.3c17.2 0 31.2 13.9 31.2 31.2v125c0 17.3-14 31.3-31.2 31.3h-812.5c-17.3 0-31.3-14-31.3-31.3v-125c0-17.3 14-31.2 31.3-31.2h812.5z m-125 343.7c17.2 0 31.2 14 31.2 31.3v125c0 17.2-14 31.2-31.2 31.2h-812.5c-17.3 0-31.3-14-31.3-31.2v-125c0-17.3 14-31.3 31.3-31.3h812.5z" />
  </svg>
