
  <svg height="1000" width="1000.0" xmlns="http://www.w3.org/2000/svg">
    <path d="m968.8 437.5c17.2 0 31.2 14 31.2 31.3v62.5c0 17.2-14 31.2-31.2 31.2h-937.5c-17.3 0-31.3-14-31.3-31.2v-62.5c0-17.3 14-31.3 31.3-31.3h199.7c-22.8-32.3-38.6-69.3-42.5-110.1-0.8-7.7-1.1-15.4-1.1-23.3 0-133.3 108.1-241.5 241.3-241.6h132.8c98 0 182.7 56.2 223.7 138.3l1 1.9c2.1 4.2 3.4 9 3.4 14 0 12.2-7.1 22.8-17.3 27.9l-83.9 42c-4.2 2.1-8.9 3.3-14 3.3-12.2 0-22.8-7-27.9-17.3-16-32-49-53.9-87.2-53.9h0-130.5c-46.9 0.1-85 38.1-85 85.1 0 38.2 25.2 70.6 60 81.3l170.2 52.4h394.8z m-352.1 187.5h184.4c5.1 15.1 8.7 31.2 10.4 47.6 0.8 7.7 1.1 15.4 1.1 23.3 0 133.3-108.1 241.5-241.3 241.6h-132.8c-98 0-182.7-56.2-223.7-138.3l-1-1.9c-2.1-4.2-3.4-9-3.4-14 0-12.2 7.1-22.8 17.3-27.9l83.9-42c4.2-2.1 8.9-3.3 14-3.3 12.2 0 22.8 7 27.9 17.3 16 32 49 53.9 87.2 53.9h0 130.5c46.9-0.1 85-38.2 85-85.1 0-30.1-15.7-56.4-39.5-71.2z" />
  </svg>
