<svg height="1000" width="1000" xmlns="http://www.w3.org/2000/svg"><path d="M968.8 562.5H31.3C14 562.5 0 548.5 0 531.3v-62.5c0 -17.3 14 -31.3 31.3 -31.3h937.5c17.2 0 31.2 14 31.2 31.3v62.5c0 17.2 -14 31.2 -31.2 31.2zm-419.3 31.3c53.2 25.2 90.8 56 90.8 109.8 0 64.7 -56.5 104.8 -147.6 104.8 -63.2 0 -150.2 -23.6 -150.2 -86.4v-3.2c0 -17.3 -14 -31.3 -31.2 -31.3h-89.1c-17.3 0 -31.3 14 -31.3 31.3v37.5c0 130.5 151.8 198.8 301.8 198.8 173 0 316.4 -88.7 316.4 -262.5 0 -38.7 -7.1 -71.1 -19.8 -98.8H549.5zM489 406.3C425.7 379.9 378 349.7 378 289.7c0 -66.3 60.4 -92.6 126.9 -92.6 83.3 0 126.9 32.4 126.9 64.4v4.1c0 17.3 14 31.3 31.2 31.3h89.1c17.3 0 31.3 -14 31.3 -31.3v-59.2C783.4 104 643.3 50.4 504.9 50.4c-166.4 0 -294.4 80 -294.4 245.4 0 44.4 9.1 80.4 25 110.5H489z"/></svg>