
  <svg height="1000" width="1000.0" xmlns="http://www.w3.org/2000/svg">
    <path d="m367.4 411.6l88.4 88.4-88.4 88.4-88.4-88.4z m221-44.2l-88.4 88.4-88.4-88.4 88.4-88.4z m-176.8 265.2l88.4-88.4 88.4 88.4-88.4 88.4z m88.4-632.6c276.1 0 500 223.9 500 500s-223.9 500-500 500-500-223.9-500-500 223.9-500 500-500z m364.6 577.3c2.8-2.8 4.6-6.7 4.6-11s-1.8-8.2-4.6-11.1l-55.2-55.2 55.2-55.3c6.1-6.1 6.1-16 0-22.1l-22.1-22.1c-6.1-6.1-16-6.1-22.1 0l-55.3 55.3-88.3-88.4 66.2-66.3 33.2 33.1c6.1 6.1 16 6.1 22.1 0l22.1-22.1c6.1-6 6.1-15.9 0-22l-33.2-33.2 33.2-33.1c6.1-6.1 6.1-16 0-22.1l-22.1-22.1c-6.1-6.1-16-6.1-22.1 0l-33.2 33.1-33.1-33.1c-6.1-6.1-16-6.1-22.1 0l-22.1 22.1c-6.1 6.1-6.1 16 0 22.1l33.2 33.1-66.3 66.3-88.4-88.4 55.2-55.2c6.1-6.1 6.1-16 0-22.1l-22.1-22.1c-6-6.1-16-6.1-22 0l-55.3 55.2-55.3-55.2c-6.1-6.1-16-6.1-22.1 0l-22.1 22.1c-6.1 6.1-6.1 16 0 22.1l55.3 55.3-88.4 88.3-66.3-66.2 33.1-33.2c6.1-6.1 6.1-16 0-22.1l-22.1-22.1c-6-6.1-15.9-6.1-22 0l-33.2 33.2-33.1-33.2c-6.1-6.1-16-6.1-22.1 0l-22.1 22.1c-6.1 6.1-6.1 16 0 22.1l33.1 33.2-33.1 33.1c-6.1 6.1-6.1 16 0 22.1l22.1 22.1c6.1 6.1 16 6.1 22.1 0l33.1-33.2 66.3 66.3-88.4 88.4-55.2-55.2c-6.1-6.1-16-6.1-22.1 0l-22.1 22.1c-6.1 6-6.1 16 0 22l55.2 55.3-55.2 55.3c-6.1 6-6.1 16 0 22l22.1 22.2c6.1 6.1 16 6.1 22.1 0l55.3-55.3 88.4 88.4-66.3 66.3-33.2-33.2c-6.1-6.1-16-6.1-22.1 0l-22.1 22.1c-6 6.1-6 16 0 22.1l33.2 33.2-33.2 33.1c-6 6.1-6 16 0 22.1l22.1 22.1c6.1 6.1 16 6.1 22.1 0l33.2-33.2 33.1 33.2c6.1 6.1 16 6.1 22.1 0l22.1-22.1c6.1-6.1 6.1-16 0-22.1l-33.1-33.1 66.2-66.3 88.4 88.4-55.2 55.2c-6.1 6.1-6.1 16 0 22.1l22.1 22.1c6 6.1 16 6.1 22 0l55.3-55.2 55.3 55.2c6.1 6.1 16 6.1 22.1 0l22.1-22.1c6.1-6.1 6.1-16 0-22.1l-55.3-55.3 88.4-88.4 66.3 66.3-33.1 33.2c-6.1 6.1-6.1 16 0 22.1l22.1 22.1c6 6 15.9 6 22 0l33.2-33.2 33.1 33.2c6.1 6 16 6 22.1 0l22.1-22.1c6.1-6.1 6.1-16 0-22.1l-33.1-33.2 33.1-33.1c6.1-6.1 6.1-16 0-22.1l-22.1-22.1c-6.1-6.1-16-6.1-22.1 0l-33.1 33.1-66.3-66.2 88.4-88.4 55.2 55.2c6.1 6.1 16 6.1 22.1 0z m-320.4-77.3l88.4-88.4 88.4 88.4-88.4 88.4z" />
  </svg>
