<svg height="1000" width="1000" xmlns="http://www.w3.org/2000/svg"><path d="M367.4 411.6L279 500l88.4 88.4L455.8 500l-88.4 -88.4zm221 -44.2L500 279l-88.4 88.4 88.4 88.4 88.4 -88.4zM411.6 632.6L500 721l88.4 -88.4L500 544.2l-88.4 88.4zM500 0C223.9 0 0 223.9 0 500s223.9 500 500 500 500 -223.9 500 -500S776.1 0 500 0zm364.6 577.3l-22.1 22.1c-6.1 6.1 -16 6.1 -22.1 0l-55.2 -55.2 -88.4 88.4 66.3 66.2 33.1 -33.1c6.1 -6.1 16 -6.1 22.1 0l22.1 22.1c6.1 6.1 6.1 16 0 22.1L787.3 743l33.1 33.2c6.1 6.1 6.1 16 0 22.1l-22.1 22.1c-6.1 6 -16 6 -22.1 0l-33.1 -33.2 -33.2 33.2c-6.1 6 -16 6 -22 0l-22.1 -22.1c-6.1 -6.1 -6.1 -16 0 -22.1L698.9 743l-66.3 -66.3 -88.4 88.4 55.3 55.3c6.1 6.1 6.1 16 0 22.1l-22.1 22.1c-6.1 6.1 -16 6.1 -22.1 0L500 809.4l-55.3 55.2c-6 6.1 -15.9 6.1 -22 0l-22.1 -22.1c-6.1 -6.1 -6.1 -16 0 -22.1l55.2 -55.2 -88.4 -88.4 -66.2 66.3 33.1 33.1c6.1 6.1 6.1 16 0 22.1l-22.1 22.1c-6.1 6.1 -16 6.1 -22.1 0L257 787.2l-33.2 33.2c-6.1 6.1 -16 6.1 -22.1 0l-22.1 -22.1c-6 -6.1 -6 -16 0 -22.1l33.2 -33.1 -33.2 -33.2c-6 -6.1 -6 -16 0 -22.1l22.1 -22.1c6.1 -6.1 16 -6.1 22.1 0l33.2 33.2 66.3 -66.3 -88.4 -88.4 -55.3 55.3c-6.1 6.1 -16 6.1 -22.1 0l-22.1 -22.2c-6.1 -6 -6.1 -16 0 -22L190.6 500l-55.2 -55.3c-6.1 -6 -6.1 -15.9 0 -22l22.1 -22.1c6.1 -6.1 16 -6.1 22.1 0l55.2 55.2 88.4 -88.4 -66.3 -66.3 -33.1 33.2c-6.1 6.1 -16 6.1 -22.1 0l-22.1 -22.1c-6.1 -6.1 -6.1 -16 0 -22.1L212.7 257l-33.1 -33.2c-6.1 -6.1 -6.1 -16 0 -22.1l22.1 -22.1c6.1 -6.1 16 -6.1 22.1 0l33.1 33.2 33.2 -33.2c6.1 -6.1 16 -6.1 22 0l22.1 22.1c6.1 6.1 6.1 16 0 22.1L301.1 257l66.3 66.2 88.4 -88.3 -55.3 -55.3c-6.1 -6.1 -6.1 -16 0 -22.1l22.1 -22.1c6.1 -6.1 16 -6.1 22.1 0l55.3 55.2 55.3 -55.2c6 -6.1 16 -6.1 22 0l22.1 22.1c6.1 6.1 6.1 16 0 22.1l-55.2 55.2 88.4 88.4 66.3 -66.3 -33.2 -33.1c-6.1 -6.1 -6.1 -16 0 -22.1l22.1 -22.1c6.1 -6.1 16 -6.1 22.1 0l33.1 33.1 33.2 -33.1c6.1 -6.1 16 -6.1 22.1 0l22.1 22.1c6.1 6.1 6.1 16 0 22.1l-33.2 33.1 33.2 33.2c6.1 6.1 6.1 16 0 22l-22.1 22.1c-6.1 6.1 -16 6.1 -22.1 0L743 301.1l-66.2 66.3 88.3 88.4 55.3 -55.3c6.1 -6.1 16 -6.1 22.1 0l22.1 22.1c6.1 6.1 6.1 16 0 22.1L809.4 500l55.2 55.2a15.7 -15.7 0 0 0 0 22.1zM544.2 500l88.4 88.4L721 500l-88.4 -88.4L544.2 500z"/></svg>