<svg height="1000" width="750" xmlns="http://www.w3.org/2000/svg"><path d="M656.3 312.5H93.8C42 312.5 0 354.5 0 406.3v437.5c0 51.7 42 93.7 93.8 93.7H125v31.3c0 17.2 14 31.2 31.3 31.2h62.5c17.2 0 31.2 -14 31.2 -31.2v-31.3h250v31.3c0 17.2 14 31.2 31.3 31.2h62.5c17.2 0 31.2 -14 31.2 -31.2v-31.3h31.3c51.7 0 93.7 -42 93.7 -93.7V406.3c0 -51.8 -42 -93.8 -93.7 -93.8zM625 734.4c0 8.6 -7 15.6 -15.6 15.6H140.6C132 750 125 743 125 734.4v-31.3c0 -8.6 7 -15.6 15.6 -15.6h468.8c8.6 0 15.6 7 15.6 15.6v31.3zm0 -187.5c0 8.6 -7 15.6 -15.6 15.6H140.6c-8.6 0 -15.6 -7 -15.6 -15.6v-31.3c0 -8.6 7 -15.6 15.6 -15.6h468.8c8.6 0 15.6 7 15.6 15.6v31.3zM281.3 93.8h187.5V250h93.7V93.8C562.5 42 520.5 0 468.8 0H281.3c-51.8 0 -93.8 42 -93.8 93.8V250h93.8V93.8z"/></svg>