
  <svg height="1000" width="750.0" xmlns="http://www.w3.org/2000/svg">
    <path d="m656.3 312.5c51.7 0 93.7 42 93.7 93.8v437.5c0 51.7-42 93.7-93.7 93.7h-31.3v31.3c0 17.2-14 31.2-31.2 31.2h-62.5c-17.3 0-31.3-14-31.3-31.2v-31.3h-250v31.3c0 17.2-14 31.2-31.2 31.2h-62.5c-17.3 0-31.3-14-31.3-31.2v-31.3h-31.2c-51.8 0-93.8-42-93.8-93.7v-437.5c0-51.8 42-93.8 93.8-93.8h562.5z m-31.3 421.9v-31.3c0-8.6-7-15.6-15.6-15.6h-468.8c-8.6 0-15.6 7-15.6 15.6v31.3c0 8.6 7 15.6 15.6 15.6h468.8c8.6 0 15.6-7 15.6-15.6z m0-187.5v-31.3c0-8.6-7-15.6-15.6-15.6h-468.8c-8.6 0-15.6 7-15.6 15.6v31.3c0 8.6 7 15.6 15.6 15.6h468.8c8.6 0 15.6-7 15.6-15.6z m-343.7-453.1v156.2h-93.8v-156.2c0-51.8 42-93.8 93.8-93.8h187.5c51.7 0 93.7 42 93.7 93.8v156.2h-93.7v-156.2h-187.5z" />
  </svg>
