<svg height="1000" width="1000" xmlns="http://www.w3.org/2000/svg"><path d="M536.8 24.7l49.8 121.9c8.3 20.1 32.6 28 51.1 16.5L749.6 93.9c30.3 -18.8 68 8.6 59.5 43.2L777.8 265c-5.1 21.1 9.9 41.8 31.6 43.4l131.3 9.7c35.5 2.7 49.9 47 22.7 70l-100.5 85.1c-16.6 14 -16.6 39.6 0 53.6l100.5 85.1c27.2 23 12.8 67.3 -22.7 70l-131.3 9.7c-21.7 1.6 -36.7 22.3 -31.6 43.4l31.3 127.9c8.5 34.6 -29.2 62 -59.5 43.2L637.7 836.9c-18.5 -11.5 -42.8 -3.6 -51.1 16.5l-49.8 121.9c-13.5 32.9 -60.1 32.9 -73.6 0L413.4 853.4c-8.2 -20.1 -32.6 -28 -51.1 -16.5l-111.9 69.2c-30.3 18.8 -68 -8.6 -59.5 -43.2L222.2 735c5.1 -21.1 -9.9 -41.8 -31.6 -43.4L59.3 681.9c-35.5 -2.7 -49.9 -47 -22.7 -70l100.5 -85.1c16.6 -14 16.6 -39.6 0 -53.6L36.6 388.1c-27.2 -23 -12.8 -67.3 22.7 -70l131.3 -9.7c21.7 -1.6 36.7 -22.3 31.6 -43.4L190.9 137.1c-8.5 -34.6 29.2 -62 59.5 -43.2l111.9 69.2c18.5 11.5 42.8 3.6 51.1 -16.5L463.2 24.7c13.5 -32.9 60.1 -32.9 73.6 0zM765.6 500C765.6 353.5 646.5 234.4 500 234.4 353.5 234.4 234.4 353.5 234.4 500S353.5 765.6 500 765.6c146.5 0 265.6 -119.1 265.6 -265.6zm-62.5 0C703.1 612 612 703.1 500 703.1S296.9 612 296.9 500 388 296.9 500 296.9 703.1 388 703.1 500z"/></svg>