
  <svg height="1000" width="1000.0" xmlns="http://www.w3.org/2000/svg">
    <path d="m968.8 312.5c17.2 0 31.2 14 31.2 31.3v62.5c0 17.2-14 31.2-31.2 31.2h-187.5c-17.3 0-31.3-14-31.3-31.2v-62.5c0-17.3 14-31.3 31.3-31.3h31.2v-187.5h-31.2c-17.3 0-31.3-14-31.3-31.3 0-5 1.2-9.7 3.3-14l31.3-62.5c5.1-10.2 15.7-17.2 27.9-17.2h93.8c17.2 0 31.2 14 31.2 31.3v281.2h31.3z m-312.5-187.5c17.2 0 31.2 14 31.2 31.3v93.7c0 17.2-14 31.3-31.2 31.3h-65.4l-152 218.7 152 218.8h65.4c17.2 0 31.2 14 31.2 31.2v93.8c0 17.2-14 31.2-31.2 31.2h-130.9c-10.6-0.1-19.9-5.3-25.5-13.4l-156.1-224.6-156 224.6c-5.7 8.1-15.1 13.4-25.7 13.4h-130.9c-17.2 0-31.2-14-31.2-31.2v-93.8c0-17.2 14-31.2 31.2-31.2h65.4l152-218.8-152-218.7h-65.4c-17.2 0-31.2-14.1-31.2-31.3v-93.7c0-17.3 14-31.3 31.2-31.3h130.9c10.6 0.1 19.9 5.3 25.5 13.4l156.1 224.6 156-224.6c5.7-8.1 15.1-13.4 25.7-13.4h130.9z" />
  </svg>
