<svg height="1000" width="1000" xmlns="http://www.w3.org/2000/svg"><path d="M771.9 500c6.7 -20.6 36.7 -41.6 70.8 -63.3C875.2 416 912 392.5 941 360.8c34.1 -37.2 50.7 -78.5 50.7 -126.1 0 -118.3 -99 -172.2 -191 -172.2 -83 0 -149.2 43 -184.5 98.5 -9.1 14.3 -5 33.3 9.1 42.7l59.2 39.7c13.7 9.2 32.1 6 42.2 -7.1 15.7 -20.3 36.8 -35.6 61.9 -35.6 37.8 0 51.3 25.2 51.3 46.8 0 70.6 -233.3 111.4 -233.3 312.5 0 13 1.1 25.5 2.8 37.8 2.1 15.6 15.3 27.2 31 27.2h328.4c17.2 0 31.2 -14 31.2 -31.2v-62.5C1000 514 986 500 968.8 500H771.9zM531.3 812.5c17.2 0 31.2 14 31.2 31.3v62.5c0 17.2 -14 31.2 -31.2 31.2H409.4a31.3 -31.3 0 0 0 -26.5 -14.6L293.7 781.1c-4.5 -6.6 -8.7 -13.6 -12.1 -20 -3.3 6.4 -7.2 13.6 -11.5 20.7l-87.3 140.9a31.2 -31.2 0 0 0 -26.6 14.8H31.3C14 937.5 0 923.5 0 906.2v-62.5c0 -17.2 14 -31.2 31.3 -31.2h51.4L193.1 651 90.1 500H31.3C14 500 0 486 0 468.8v-62.5C0 389 14 375 31.3 375h134.3a31.3 -31.3 0 0 0 26.7 14.9l77.9 127.2c4 6.9 7.9 14 11.2 20.3 3.4 -6.4 7.6 -13.6 12.1 -20.6l78.8 -127A31.3 -31.3 0 0 0 398.9 375h132.4c17.2 0 31.2 14 31.2 31.3v62.5c0 17.2 -14 31.2 -31.2 31.2h-54.7L373.7 647.8l114.5 164.7h43.1z"/></svg>