
  <svg height="1000" width="968.8" xmlns="http://www.w3.org/2000/svg">
    <path d="m484.4 15.6c267.6 0 484.4 216.8 484.4 484.4s-216.8 484.4-484.4 484.4-484.4-216.8-484.4-484.4 216.8-484.4 484.4-484.4z m-218.8 390.7c0 34.5 28 62.5 62.5 62.5s62.5-28 62.5-62.5-27.9-62.5-62.5-62.5-62.5 27.9-62.5 62.5z m218.8 406.2c68.9 0 125-56.1 125-125s-56.1-125-125-125-125 56.1-125 125 56 125 125 125z m156.2-343.7c34.6 0 62.5-28 62.5-62.5s-27.9-62.5-62.5-62.5-62.5 27.9-62.5 62.5 28 62.5 62.5 62.5z" />
  </svg>
