<svg height="1000" width="998" xmlns="http://www.w3.org/2000/svg"><path d="M935.7 625H727.1L363.6 989.3c-4 4 -8.8 7 -13.1 10.7h585.2c34.4 0 62.3 -28 62.3 -62.5v-250C998 653 970.1 625 935.7 625zM848.8 326.4L672.3 149.6c-24.3 -24.4 -63.8 -24.4 -88.2 0L436.6 297.3v515.2c0 5.8 -1.3 11.2 -1.7 16.9L848.8 414.8c24.3 -24.4 24.3 -64 0 -88.4zM374.3 62.5C374.3 28 346.3 0 311.9 0H62.4C27.9 0 0 28 0 62.5v750C0 916.1 83.8 1000 187.1 1000S374.3 916.1 374.3 812.5v-750zM187.1 859.4c-25.8 0 -46.7 -21 -46.7 -46.9s20.9 -46.9 46.7 -46.9 46.8 21 46.8 46.9 -20.9 46.9 -46.8 46.9zM249.5 500H124.8V375h124.7v125zm0 -250H124.8V125h124.7v125z"/></svg>