
  <svg height="1000" width="1000.0" xmlns="http://www.w3.org/2000/svg">
    <path d="m848.9 327.6c11.3 11.3 18.3 26.9 18.3 44.1 0 17.2-7 32.8-18.3 44.1l-411.4 412.3v-529.5l147.3-147.5 0.2-0.1v0c11.2-11.2 26.7-18.2 43.8-18.2 17.2 0 32.8 7 44.1 18.3l176 176.5v0z m88.6 297.4c34.5 0 62.5 28 62.5 62.5v250c0 34.5-28 62.5-62.5 62.5h-585.9c4.2-3.7 9-6.7 13-10.7l364.1-364.3h208.8z m-562.5-562.5v750c0 103.5-84 187.5-187.5 187.5s-187.5-84-187.5-187.5v-750c0-34.5 28-62.5 62.5-62.5h250c34.5 0 62.5 28 62.5 62.5z m-187.5 796.9c25.9 0 46.9-21 46.9-46.9s-21-46.9-46.9-46.9-46.9 21-46.9 46.9 21 46.9 46.9 46.9z m62.5-359.4v-125h-125v125h125z m0-250v-125h-125v125h125z" />
  </svg>
