<svg height="1000" width="1250" xmlns="http://www.w3.org/2000/svg"><path d="M370.3 606.6c6.9 6.4 29.9 18.4 67.2 18.4s60.3 -12 67.2 -18.4c31.3 -28.8 67.4 -44.1 104.4 -44.1h31.8c37 0 73.2 15.3 104.4 44.1 6.9 6.4 29.9 18.4 67.2 18.4s60.3 -12 67.2 -18.4c29 -26.8 62.2 -41.2 96.4 -43.3L755.7 405.9l35.2 -25.1c7.1 -5.1 16.2 -6.9 24.6 -5.1l196 42c50.6 10.8 100.5 -21.4 111.4 -72 10.8 -50.6 -21.4 -100.5 -72.1 -111.3l-196 -42.1c-60 -12.8 -123 .3 -172.9 35.9L525.6 339.9c-20.3 14.4 -37.8 32.1 -52.2 52.6L339.4 584c10.6 6.3 21.1 13.5 30.9 22.6zm848.5 80.9h-31.3c-50.9 0 -89.5 -16.4 -109.6 -35 -17.3 -16 -38.3 -27.5 -62 -27.5h-31.8c-23.7 0 -44.7 11.5 -62.1 27.5 -20 18.6 -58.6 35 -109.5 35S723 671.1 702.9 652.5c-17.3 -16 -38.3 -27.5 -62 -27.5h-31.8c-23.7 0 -44.7 11.5 -62.1 27.5 -20 18.6 -58.6 35 -109.5 35S348 671.1 327.9 652.5c-17.3 -16 -38.3 -27.5 -62 -27.5h-31.8c-23.7 0 -44.7 11.5 -62.1 27.5 -20 18.6 -58.6 35 -109.5 35H31.3C14 687.5 0 701.5 0 718.8v62.5c0 17.2 14 31.2 31.3 31.2h31.2c75.4 0 142 -23.8 187.5 -62.2 45.5 38.4 112.1 62.2 187.5 62.2s142 -23.8 187.5 -62.2c45.5 38.4 112.1 62.2 187.5 62.2s142 -23.8 187.5 -62.2c45.5 38.4 112.1 62.2 187.5 62.2h31.3c17.2 0 31.2 -14 31.2 -31.2v-62.5c0 -17.3 -14 -31.3 -31.2 -31.3zM218.8 500C305 500 375 430 375 343.8S305 187.5 218.8 187.5 62.5 257.5 62.5 343.8 132.5 500 218.8 500z"/></svg>