<svg height="1000" width="1250" xmlns="http://www.w3.org/2000/svg"><path d="M1218.8 812.5h-31.3c-50.9 0 -89.5 -16.4 -109.6 -35 -17.3 -16 -38.3 -27.5 -62 -27.5h-31.8c-23.7 0 -44.7 11.5 -62.1 27.5 -20 18.6 -58.6 35 -109.5 35S723 796.1 702.9 777.5c-17.3 -16 -38.3 -27.5 -62 -27.5h-31.8c-23.7 0 -44.7 11.5 -62.1 27.5 -20 18.6 -58.6 35 -109.5 35S348 796.1 327.9 777.5c-17.3 -16 -38.3 -27.5 -62 -27.5h-31.8c-23.7 0 -44.7 11.5 -62.1 27.5 -20 18.6 -58.6 35 -109.5 35H31.3C14 812.5 0 826.5 0 843.8v62.5c0 17.2 14 31.2 31.3 31.2h31.2c75.4 0 142 -23.8 187.5 -62.2 45.5 38.4 112.1 62.2 187.5 62.2s142 -23.8 187.5 -62.2c45.5 38.4 112.1 62.2 187.5 62.2s142 -23.8 187.5 -62.2c45.5 38.4 112.1 62.2 187.5 62.2h31.3c17.2 0 31.2 -14 31.2 -31.2v-62.5c0 -17.3 -14 -31.3 -31.2 -31.3zM437.5 750V562.5h375V750c37.3 0 60.3 -12 67.2 -18.4 17.9 -16.5 37.5 -28 57.8 -35.3V250c0 -34.5 28 -62.5 62.5 -62.5s62.5 28 62.5 62.5v31.3c0 17.2 14 31.2 31.3 31.2h62.5c17.2 0 31.2 -14 31.2 -31.2V250C1187.5 146.6 1103.4 62.5 1000 62.5S812.5 146.6 812.5 250v187.5h-375V250c0 -34.5 28 -62.5 62.5 -62.5s62.5 28 62.5 62.5v31.3c0 17.2 14 31.2 31.3 31.2h62.5c17.2 0 31.2 -14 31.2 -31.2V250C687.5 146.6 603.4 62.5 500 62.5S312.5 146.6 312.5 250v446.3c20.3 7.3 39.9 18.8 57.8 35.3 6.9 6.4 29.9 18.4 67.2 18.4z"/></svg>