
  <svg height="1000" width="1250.0" xmlns="http://www.w3.org/2000/svg">
    <path d="m370.3 606.6c-9.8-9.1-20.3-16.3-30.9-22.6l134-191.5c14.4-20.5 31.9-38.2 52.2-52.6l156.3-111.7c49.9-35.6 112.9-48.7 172.9-35.9l196 42.1c50.7 10.8 82.9 60.7 72.1 111.3-10.9 50.6-60.8 82.8-111.4 72l-196-42c-8.4-1.8-17.5 0-24.6 5.1l-35.2 25.1 220.4 157.4c-34.2 2.1-67.4 16.5-96.4 43.3-6.9 6.4-29.9 18.4-67.2 18.4s-60.3-12-67.2-18.4c-31.2-28.8-67.4-44.1-104.4-44.1h-31.8c-37.1 0-73.1 15.3-104.4 44.1-6.9 6.4-29.9 18.4-67.2 18.4s-60.3-12-67.2-18.4z m848.5 80.9c17.2 0 31.2 14 31.2 31.3v62.5c0 17.2-14 31.2-31.2 31.2h-31.3c-75.4 0-142-23.8-187.5-62.2-45.5 38.4-112.1 62.2-187.5 62.2s-142-23.8-187.5-62.2c-45.5 38.4-112.1 62.2-187.5 62.2s-142-23.8-187.5-62.2c-45.5 38.4-112.1 62.2-187.5 62.2h-31.2c-17.3 0-31.3-14-31.3-31.2v-62.5c0-17.3 14-31.3 31.3-31.3h31.2c50.9 0 89.5-16.4 109.5-35 17.4-16 38.4-27.5 62.1-27.5h31.8c23.7 0 44.7 11.5 62 27.5 20.1 18.6 58.7 35 109.6 35s89.5-16.4 109.5-35c17.4-16 38.4-27.5 62.1-27.5h31.8c23.7 0 44.7 11.5 62 27.5 20.1 18.6 58.7 35 109.6 35s89.5-16.4 109.5-35c17.4-16 38.4-27.5 62.1-27.5h31.8c23.7 0 44.7 11.5 62 27.5 20.1 18.6 58.7 35 109.6 35h31.2z m-1000-187.5c-86.3 0-156.3-70-156.3-156.2s70-156.3 156.3-156.3 156.2 70 156.2 156.3-70 156.2-156.2 156.2z" />
  </svg>
