
  <svg height="1000" width="1250.0" xmlns="http://www.w3.org/2000/svg">
    <path d="m1218.8 812.5c17.2 0 31.2 14 31.2 31.3v62.5c0 17.2-14 31.2-31.2 31.2h-31.3c-75.4 0-142-23.8-187.5-62.2-45.5 38.4-112.1 62.2-187.5 62.2s-142-23.8-187.5-62.2c-45.5 38.4-112.1 62.2-187.5 62.2s-142-23.8-187.5-62.2c-45.5 38.4-112.1 62.2-187.5 62.2h-31.2c-17.3 0-31.3-14-31.3-31.2v-62.5c0-17.3 14-31.3 31.3-31.3h31.2c50.9 0 89.5-16.4 109.5-35 17.4-16 38.4-27.5 62.1-27.5h31.8c23.7 0 44.7 11.5 62 27.5 20.1 18.6 58.7 35 109.6 35s89.5-16.4 109.5-35c17.4-16 38.4-27.5 62.1-27.5h31.8c23.7 0 44.7 11.5 62 27.5 20.1 18.6 58.7 35 109.6 35s89.5-16.4 109.5-35c17.4-16 38.4-27.5 62.1-27.5h31.8c23.7 0 44.7 11.5 62 27.5 20.1 18.6 58.7 35 109.6 35h31.2z m-781.3-62.5c-37.3 0-60.3-12-67.2-18.4-17.9-16.5-37.5-28-57.8-35.3v-446.3c0-103.4 84.1-187.5 187.5-187.5s187.5 84.1 187.5 187.5v31.3c0 17.2-14 31.2-31.2 31.2h-62.5c-17.3 0-31.3-14-31.3-31.2v-31.3c0-34.5-28-62.5-62.5-62.5s-62.5 28-62.5 62.5v187.5h375v-187.5c0-103.4 84.1-187.5 187.5-187.5s187.5 84.1 187.5 187.5v31.3c0 17.2-14 31.2-31.2 31.2h-62.5c-17.3 0-31.3-14-31.3-31.2v-31.3c0-34.5-28-62.5-62.5-62.5s-62.5 28-62.5 62.5v446.3c-20.3 7.3-39.9 18.8-57.8 35.3-6.9 6.4-29.9 18.4-67.2 18.4v-187.5h-375v187.5z" />
  </svg>
