
  <svg height="1000" width="1250.0" xmlns="http://www.w3.org/2000/svg">
    <path d="m136.7 383.8c10.4-11.7 28.7-11.7 39.1 0l74.2 84.1v532.1h-250v-441.5l0-0.1c0-13.2 4.9-25.2 13-34.4z m1100.3 140.2c8.4 9.5 13 21.8 13 34.5v441.5h-250v-532.1l74.2-84.1c10.4-11.7 28.7-11.7 39.1 0z m-573-510.3l250 200c14.9 11.8 23.5 29.8 23.5 48.8v737.5h-187.5v-187.5c0-75.9-67.7-136-146-123.3-61.5 10-104 67.7-104 130v180.8h-187.5v-737.5c0-19.8 9.1-37.3 23.5-48.8l250-200c22.8-18.3 55.2-18.3 78 0z m101.7 421l-37.4-59.7 37.5-59.7c3.8-6.2-0.6-14.1-7.8-14.1h-76.1l-49.1-78.1c-3.6-5.8-12-5.8-15.6 0l-49.1 78.1h-76c-7.3 0-11.7 8-7.8 14.1l37.5 59.7-37.5 59.7c-3.9 6.2 0.5 14.1 7.8 14.1h76l49.1 78.1c3.6 5.8 12 5.8 15.6 0l49.1-78.1h76c7.3 0 11.7-8 7.8-14.1z" />
  </svg>
