
  <svg height="1000" width="1000.0" xmlns="http://www.w3.org/2000/svg">
    <path d="m724.1 260.3c-61.1-57.2-140.3-88.5-224.4-88.4-151.3 0.1-281.9 103.8-317.9 247.7-2.7 10.5-12 17.9-22.8 17.9h-111.9c-14.7 0-25.8-13.3-23.1-27.7 42.3-224.4 239.3-394.2 476-394.2 129.8 0 247.6 51.1 334.6 134.2l69.8-69.8c29.5-29.5 80-8.6 80 33.2v261.8c0 25.9-21 46.9-46.9 46.9h-261.8c-41.8 0-62.7-50.5-33.2-80z m-661.6 317.8h261.8c41.8 0 62.7 50.5 33.2 80l-81.6 81.6c61.1 57.2 140.3 88.5 224.4 88.4 151.2-0.1 281.9-103.8 317.9-247.7 2.7-10.5 12-17.9 22.8-17.9h111.9c14.7 0 25.8 13.3 23.1 27.7-42.3 224.4-239.3 394.2-476 394.2-129.8 0-247.6-51.1-334.6-134.2l-69.8 69.8c-29.5 29.5-80 8.6-80-33.2v-261.8c0-25.9 21-46.9 46.9-46.9z" />
  </svg>
