
  <svg height="1000" width="1000.0" xmlns="http://www.w3.org/2000/svg">
    <path d="m860.6 24.6c0-0.4 0-0.8 0-1.2 0-12.9 10.5-23.4 23.4-23.4h92.6c12.9 0 23.4 10.5 23.4 23.4v391.3c0 13-10.5 23.5-23.4 23.5h-391.1c-12.9 0-23.4-10.5-23.4-23.5v-92.6c0 0 0 0 0 0 0-12.9 10.5-23.4 23.4-23.4 0.4 0 0.7 0 1.1 0l198.2 9.5c-61.7-91.8-166.3-151.7-285.1-151.7-161.9 0-297.7 112.2-334.1 262.9-2.4 10.4-11.7 18.1-22.8 18.1h-95.8c-12.9 0-23.4-10.5-23.4-23.4 0-1.5 0.1-2.9 0.4-4.3 42.2-224.4 239.1-394.2 475.7-394.2 0.2 0 0.2-0.3 0.4-0.3 147.6 0 279.8 66.4 368.4 170.9z m-360.9 819.2c0 0 0-0.2 0-0.2 161.9 0 297.7-112.2 334-263 2.4-10.4 11.7-18.1 22.8-18.1h95.8c12.9 0 23.4 10.5 23.4 23.4 0 1.5-0.1 2.9-0.3 4.3-42.3 224.4-239.2 394.2-475.7 394.2-0.2 0-0.2 0.2-0.4 0.2-147.4 0-279.5-66.2-368.1-170.5l8.2 161.3c0 0.4 0 0.8 0 1.2 0 12.9-10.5 23.4-23.5 23.4h0-92.5c-12.9 0-23.4-10.5-23.4-23.4v-391.3c0-12.9 10.5-23.4 23.4-23.4h391.1c12.9 0 23.4 10.5 23.4 23.4v92.6c0 0 0 0 0 0 0 12.9-10.5 23.4-23.4 23.4-0.4 0-0.8 0-1.2 0l-198.8-9.5c61.6 91.8 166.1 152 284.9 152h0.3z" />
  </svg>
