
  <svg height="1000" width="1000.0" xmlns="http://www.w3.org/2000/svg">
    <path d="m393.6 341.4l126.7-126.9 265.1 265-355.3 355.3c-34.2 34.3-81.1 50-127.8 44.9l-124.2-13.9-129.5 129.5c-6 6.1-16 6.1-22 0l-22.1-22.1c-6.1-6-6.1-16 0-22l129.7-129.7-13.9-124.2c-5.1-47.5 11.1-94 44.9-127.8l51.6-51.5 109 109.1c6 6.1 16 6.1 22.1 0l22-22c6.1-6.1 6.1-16 0-22.1l-109-109 88.5-88.5 108.8 109c6.1 6.1 16 6.1 22.1 0l22-22c6.1-6.1 6.1-16.1 0-22.1z m601.9-182.2c6.1 6.2 6.1 16 0 22.2l-22.1 22.1c-6 6.1-16 6.1-22 0l-55.3-55.3-88.5 88.5 143.6 143.6c6 6 6 16 0 22l-66.2 66.4c-6.1 6.1-16.1 6.1-22.1 0l-33.2-33.2-265.1-265.4-33.2-33.2c-6-6-6-16 0-22.1l66.3-66.2c6-6 16-6 22 0l33.2 33.2 110.6 110.6 88.5-88.5-55.3-55.3c-6.1-6-6.1-16 0-22l22.1-22.1c6-6.1 16-6.1 22 0z" />
  </svg>
