<svg height="1000" width="1000" xmlns="http://www.w3.org/2000/svg"><path d="M393.6 341.4l108.7 109c6.1 6 6.1 16 0 22.1l-22 22c-6.1 6.1 -16 6.1 -22.1 0l-108.8 -109L260.9 474l109 109c6.1 6.1 6.1 16 0 22.1l-22 22c-6.1 6.1 -16.1 6.1 -22.1 0L216.8 518l-51.6 51.5c-33.8 33.8 -50 80.3 -44.9 127.8l13.9 124.2L4.5 951.2c-6.1 6 -6.1 16 0 22l22.1 22.1c6 6.1 16 6.1 22 0L178.1 865.8l124.2 13.9c46.7 5.1 93.6 -10.6 127.8 -44.9L785.4 479.5l-265.1 -265L393.6 341.4zM995.5 159.2L840.8 4.5c-6 -6.1 -16 -6.1 -22 0l-22.1 22.1c-6.1 6 -6.1 16 0 22l55.3 55.3 -88.5 88.5L652.9 81.8 619.7 48.6c-6 -6 -16 -6 -22 0l-66.3 66.2c-6 6.1 -6 16.1 0 22.1l33.2 33.2 265.1 265.4 33.2 33.3c6 6 16 6 22.1 0l66.2 -66.5c6 -6 6 -16 0 -22L807.6 236.7l88.5 -88.5 55.3 55.3c6 6.1 16 6.1 22 0l22.1 -22.1c6.1 -6.2 6.1 -16 0 -22.2z"/></svg>