
  <svg height="1000" width="1250.0" xmlns="http://www.w3.org/2000/svg">
    <path d="m312.5 375c158.4 0 288.1 114.3 312.5 263.1 1.6 9.4-6.4 18.1-16.2 18.1h-592.4c-9.8 0-17.8-8.7-16.2-18.1 24.2-148.8 153.9-263.1 312.3-263.1z m296.1 343.8c9.8 0 17.8 8.7 16.2 18.1-24.2 148.8-153.9 263.1-312.3 263.1s-288.1-114.3-312.3-263.1c-1.6-9.4 6.4-18.1 16.2-18.1h592.2z m550.4-627.8c110.3 110.4 119.9 281.7 31 404.1-5.4 7.8-17.1 8.4-24 1.6l-412.7-412.9c-6.8-6.7-6.2-18.4 1.6-24 122.4-88.7 293.7-79.1 404.1 31.2z m-450 37.3l412.7 412.7c6.8 6.7 6.2 18.4-1.6 24-122.4 88.9-293.7 79.3-404.1-31-110.1-110.4-119.7-281.7-31-404.1 5.4-7.8 17.1-8.4 24-1.6z" />
  </svg>
