<svg height="1000" width="1250" xmlns="http://www.w3.org/2000/svg"><path d="M312.5 375C154.1 375 24.4 489.3 .2 638.1c-1.6 9.4 6.4 18.2 16.2 18.2h592.4c9.8 0 17.8 -8.8 16.2 -18.2C600.6 489.3 470.9 375 312.5 375zm296.1 343.8H16.4c-9.8 0 -17.8 8.7 -16.2 18.1C24.4 885.7 154.1 1000 312.5 1000S600.6 885.7 624.8 736.9c1.6 -9.4 -6.4 -18.1 -16.2 -18.1zM1159 91C1048.6 -19.3 877.3 -28.9 754.9 59.8c-7.8 5.6 -8.4 17.3 -1.6 24L1166 496.7c6.9 6.8 18.6 6.2 24 -1.6C1278.9 372.7 1269.3 201.4 1159 91zm-450 37.3c-6.9 -6.8 -18.6 -6.2 -24 1.6C596.3 252.3 605.9 423.6 716 534c110.4 110.3 281.7 119.9 404.1 31 7.8 -5.6 8.4 -17.3 1.6 -24L709 128.3z"/></svg>