<svg height="1000" width="1000" xmlns="http://www.w3.org/2000/svg"><path d="M969.1 579.1C1030.7 427.1 1000 246.5 877 123.2 713.1 -41 447.3 -41 283.4 123.2L174 232.8l413.1 413.1c90 -121.3 256.8 -151.2 382 -66.8zM543.6 734.8L113.1 304.5C59.8 393 70.7 509.6 146.9 585.9l67.4 67.6L13.1 828.1c-16.8 14.7 -17.8 40.5 -2 56.3l104.3 104.5c15.7 15.8 41.4 14.8 56.1 -2L345.9 785.2l69.7 69.7c38.5 38.5 87.1 59.6 137.3 65C539.1 886.7 531.4 850.4 531.4 812.3c-.1 -26.9 4.9 -52.7 12.2 -77.5zM812.5 625C709 625 625 709 625 812.5S709 1000 812.5 1000 1000 916 1000 812.5 916 625 812.5 625z"/></svg>