
  <svg height="1000" width="1000.0" xmlns="http://www.w3.org/2000/svg">
    <path d="m969.1 579.1c-125.2-84.4-292-54.5-382 66.8l-413.1-413.1 109.4-109.6c163.9-164.2 429.7-164.2 593.6 0 123 123.3 153.7 303.9 92.1 455.9z m-425.5 155.7c-7.3 24.8-12.3 50.6-12.2 77.5 0 38.1 7.7 74.4 21.5 107.6-50.2-5.4-98.8-26.5-137.3-65l-69.7-69.7-174.4 201.7c-14.7 16.8-40.4 17.8-56.1 2l-104.3-104.5c-15.8-15.8-14.8-41.6 2-56.3l201.2-174.6-67.4-67.6c-76.2-76.3-87.1-192.9-33.8-281.4z m268.9-109.8c103.5 0 187.5 84 187.5 187.5s-84 187.5-187.5 187.5-187.5-84-187.5-187.5 84-187.5 187.5-187.5z" />
  </svg>
