<svg height="1000" width="1125" xmlns="http://www.w3.org/2000/svg"><path d="M562.5 62.5C251.8 62.5 0 314.3 0 625c0 103.1 27.8 199.7 76.3 282.8 10.9 18.8 31.8 29.7 53.6 29.7h865.2c21.8 0 42.7 -10.9 53.6 -29.7C1097.2 824.7 1125 728.1 1125 625 1125 314.3 873.2 62.5 562.5 62.5zm0 125c28.7 0 51.9 19.8 59.2 46.2 -2.1 4.4 -5.1 8.3 -6.7 13l-18 54.1c-10 6.8 -21.5 11.7 -34.5 11.7C528 312.5 500 284.5 500 250s28 -62.5 62.5 -62.5zM187.5 750C153 750 125 722 125 687.5S153 625 187.5 625s62.5 28 62.5 62.5S222 750 187.5 750zm93.8 -312.5c-34.6 0 -62.5 -28 -62.5 -62.5s27.9 -62.5 62.5 -62.5 62.5 28 62.5 62.5 -28 62.5 -62.5 62.5zM763.2 296.1L643.4 655.4c26.8 23 44.1 56.6 44.1 94.6 0 22.9 -6.6 44 -17.3 62.5H454.8C444.1 794 437.5 772.9 437.5 750c0 -66.3 51.8 -120 117 -124.2L674.3 266.4c8.1 -24.5 34.6 -38 59.3 -29.6 24.5 8.2 37.8 34.7 29.6 59.3zm28.7 111.7l30.3 -90.9c6.7 -2.5 13.9 -4.4 21.6 -4.4 34.5 0 62.5 28 62.5 62.5s-28 62.5 -62.5 62.5c-22.3 0 -40.9 -12.2 -51.9 -29.7zM937.5 750C903 750 875 722 875 687.5S903 625 937.5 625s62.5 28 62.5 62.5S972 750 937.5 750z"/></svg>