
  <svg height="1000" width="1125.0" xmlns="http://www.w3.org/2000/svg">
    <path d="m562.5 62.5c310.7 0 562.5 251.8 562.5 562.5 0 103.1-27.8 199.7-76.3 282.8-10.9 18.8-31.8 29.7-53.6 29.7h-865.2c-21.8 0-42.7-10.9-53.6-29.7-48.5-83.1-76.3-179.7-76.3-282.8 0-310.7 251.8-562.5 562.5-562.5z m0 125c-34.5 0-62.5 28-62.5 62.5s28 62.5 62.5 62.5c13 0 24.5-4.9 34.5-11.7l18-54.1c1.6-4.7 4.6-8.6 6.7-13-7.3-26.4-30.5-46.2-59.2-46.2z m-375 562.5c34.5 0 62.5-28 62.5-62.5s-28-62.5-62.5-62.5-62.5 28-62.5 62.5 28 62.5 62.5 62.5z m93.8-312.5c34.5 0 62.5-28 62.5-62.5s-28-62.5-62.5-62.5-62.5 28-62.5 62.5 27.9 62.5 62.5 62.5z m481.9-141.4c8.2-24.6-5.1-51.1-29.6-59.3-24.7-8.4-51.2 5.1-59.3 29.6l-119.8 359.4c-65.2 4.2-117 57.9-117 124.2 0 22.9 6.6 44 17.3 62.5h215.4c10.7-18.5 17.3-39.6 17.3-62.5 0-38-17.3-71.6-44.1-94.6z m28.7 111.7c11.1 17.5 29.6 29.7 51.9 29.7 34.5 0 62.5-28 62.5-62.5s-28-62.5-62.5-62.5c-7.7 0-14.9 1.9-21.6 4.4z m145.6 342.2c34.5 0 62.5-28 62.5-62.5s-28-62.5-62.5-62.5-62.5 28-62.5 62.5 28 62.5 62.5 62.5z" />
  </svg>
