<svg height="1000" width="1250" xmlns="http://www.w3.org/2000/svg"><path d="M972.5 441.3L558.7 27.5A93.8 -93.8 0 0 1 492.4 0H93.8C42 0 0 42 0 93.8v398.6a93.8 -93.8 0 0 1 27.5 66.3l413.8 413.8c36.6 36.7 96 36.7 132.6 0L972.5 573.9c36.7 -36.6 36.7 -96 0 -132.6zM218.8 312.5c-51.8 0 -93.8 -42 -93.8 -93.7S167 125 218.8 125s93.7 42 93.7 93.8 -42 93.7 -93.7 93.7zm1003.7 261.4L823.9 972.5c-36.6 36.7 -96 36.7 -132.6 0l-.7 -.7 339.9 -339.9c33.2 -33.2 51.5 -77.4 51.5 -124.3s-18.3 -91.1 -51.5 -124.3L647.3 0h95.1a93.8 -93.8 0 0 0 66.3 27.5l413.8 413.8c36.7 36.6 36.7 96 0 132.6z"/></svg>