
  <svg height="1000" width="1250.0" xmlns="http://www.w3.org/2000/svg">
    <path d="m972.5 441.3c36.7 36.6 36.7 96 0 132.6l-398.6 398.6c-36.6 36.7-96 36.7-132.6 0l-413.8-413.8c-17-17-27.5-40.4-27.5-66.3v-398.7c0-51.7 42-93.7 93.7-93.7h398.7c25.9 0 49.3 10.5 66.3 27.5z m-753.7-128.8c51.7 0 93.7-42 93.7-93.7s-42-93.8-93.7-93.8-93.8 42-93.8 93.8 42 93.7 93.8 93.7z m1003.7 261.4l-398.6 398.6c-36.6 36.7-96 36.7-132.6 0l-0.7-0.7 339.9-339.9c33.2-33.2 51.5-77.4 51.5-124.3s-18.3-91.1-51.5-124.3l-383.2-383.3h95.1c25.9 0 49.3 10.5 66.3 27.5l413.8 413.8c36.7 36.6 36.7 96 0 132.6z" />
  </svg>
