<svg height="1000" width="1000" xmlns="http://www.w3.org/2000/svg"><path d="M976.6 437.5h-59.3C890.1 254.5 745.5 109.9 562.5 82.7V23.4C562.5 10.5 552 0 539.1 0h-78.2C448 0 437.5 10.5 437.5 23.4v59.3C254.5 109.9 109.9 254.5 82.7 437.5H23.4C10.5 437.5 0 448 0 460.9v78.2c0 12.9 10.5 23.4 23.4 23.4h59.3c27.2 183 171.8 327.6 354.8 354.8v59.3c0 12.9 10.5 23.4 23.4 23.4h78.2c12.9 0 23.4 -10.5 23.4 -23.4v-59.3c183 -27.2 327.6 -171.8 354.8 -354.8h59.3c12.9 0 23.4 -10.5 23.4 -23.4v-78.2c0 -12.9 -10.5 -23.4 -23.4 -23.4zM562.5 790.3v-79.4c0 -12.9 -10.5 -23.4 -23.4 -23.4h-78.2c-12.9 0 -23.4 10.5 -23.4 23.4v79.4C323.9 766.1 234 676.3 209.7 562.5h79.4c12.9 0 23.4 -10.5 23.4 -23.4v-78.2c0 -12.9 -10.5 -23.4 -23.4 -23.4h-79.4C233.9 323.9 323.7 234 437.5 209.7v79.4c0 12.9 10.5 23.4 23.4 23.4h78.2c12.9 0 23.4 -10.5 23.4 -23.4v-79.4c113.6 24.2 203.5 114 227.8 227.8h-79.4c-12.9 0 -23.4 10.5 -23.4 23.4v78.2c0 12.9 10.5 23.4 23.4 23.4h79.4C766.1 676.1 676.3 766 562.5 790.3zm0 -290.3c0 34.5 -28 62.5 -62.5 62.5s-62.5 -28 -62.5 -62.5 28 -62.5 62.5 -62.5 62.5 28 62.5 62.5z"/></svg>