
  <svg height="1000" width="1000.0" xmlns="http://www.w3.org/2000/svg">
    <path d="m272.7 69.3l33.2 32.3c4.1 4.2 6.7 10.1 6.7 16.5 0 6.5-2.6 12.4-6.9 16.7l-141 141-30.5 30.5c-4.4 4.2-10.5 6.8-17.2 6.8-6.6 0-12.7-2.6-17.2-6.8l-92.9-92.6c-4.3-4.3-6.9-10.1-6.9-16.6 0-6.5 2.6-12.4 6.9-16.6l30.7-30.7c4.2-4.3 10.1-6.9 16.6-6.9s12.3 2.6 16.6 6.9l44.3 43.2 124.4-123.7c4.2-4.2 10.1-6.9 16.6-6.9 6.5 0 12.3 2.7 16.6 6.9z m0 311l33.1 33.2c4.2 4.2 6.8 10 6.8 16.4 0 6.5-2.7 12.3-6.9 16.6l-141.1 141-30.6 30.7c-4.5 4.2-10.6 6.8-17.2 6.8-6.7 0-12.7-2.6-17.2-6.8l-92.7-92.8c-4.3-4.3-6.9-10.1-6.9-16.6 0-6.5 2.6-12.4 6.9-16.6l30.7-30.7c4.2-4.2 10.1-6.9 16.6-6.9s12.3 2.7 16.6 6.9l44.3 43.2 124.4-124.4c4.2-4.3 10.1-6.9 16.6-6.9 6.5 0 12.3 2.6 16.6 6.9z m-147.7 338.5c51.7 0 93.8 42 93.8 93.7s-42.1 93.8-93.8 93.8c-51.7 0-94.9-42-94.9-93.8s43.2-93.7 94.9-93.7z m843.8 31.2c17.2 0 31.2 14 31.2 31.3v62.5c0 17.2-14 31.2-31.2 31.2h-562.5c-17.3 0-31.3-14-31.3-31.2v-62.5c0-17.3 14-31.3 31.3-31.3h562.5z m0-625c17.2 0 31.2 14 31.2 31.3v62.5c0 17.2-14 31.2-31.2 31.2h-562.5c-17.3 0-31.3-14-31.3-31.2v-62.5c0-17.3 14-31.3 31.3-31.3h562.5z m0 312.5c17.2 0 31.2 14 31.2 31.3v62.5c0 17.2-14 31.2-31.2 31.2h-562.5c-17.3 0-31.3-14-31.3-31.2v-62.5c0-17.3 14-31.3 31.3-31.3h562.5z" />
  </svg>
