<svg height="1000" width="1000" xmlns="http://www.w3.org/2000/svg"><path d="M406.3 257.8h562.5c17.1 0 31.2 -14 31.2 -31.2v-78.2c0 -17.2 -14.1 -31.2 -31.2 -31.2H406.3c-17.2 0 -31.3 14 -31.3 31.2v78.2c0 17.2 14.1 31.2 31.3 31.2zm0 312.5h562.5c17.1 0 31.2 -14 31.2 -31.2v-78.2c0 -17.1 -14.1 -31.2 -31.2 -31.2H406.3c-17.2 0 -31.3 14.1 -31.3 31.2v78.2c0 17.2 14.1 31.2 31.3 31.2zm0 312.5h562.5c17.1 0 31.2 -14 31.2 -31.2v-78.2c0 -17.1 -14.1 -31.2 -31.2 -31.2H406.3c-17.2 0 -31.3 14.1 -31.3 31.2v78.2c0 17.2 14.1 31.2 31.3 31.2zM125 718.8c-51.8 0 -94.9 41.9 -94.9 93.7s43.1 93.8 94.9 93.8 93.8 -42 93.8 -93.8 -42 -93.7 -93.8 -93.7zm180.7 -584l-141.1 141 -30.4 30.4c-9.2 9.2 -25.2 9.2 -34.4 0l-93 -92.5c-9.1 -9.2 -9.1 -24.1 0 -33.2l30.7 -30.7c9.2 -9.2 24 -9.2 33.2 0L115 193 239.5 69.3c9.1 -9.1 24 -9.1 33.2 0l33.2 32.3c8.9 9.1 8.9 24 -.2 33.2zm0 311.7l-141.1 141L134 618.2c-9.2 9.1 -25.2 9.1 -34.4 0L6.8 525.4c-9.1 -9.2 -9.1 -24 0 -33.2l30.7 -30.7c9.2 -9.2 24 -9.2 33.2 0l44.3 43.2L239.5 380.3c9.1 -9.2 24 -9.2 33.2 0l33.2 33.2c8.9 9 8.9 23.8 -.2 33z"/></svg>