<svg height="1000" width="1000" xmlns="http://www.w3.org/2000/svg"><path d="M902.3 472L859.4 306.2C840.6 237.5 778.1 187.5 709.4 187.5h-21.9V125c0 -34.5 -28 -62.5 -62.5 -62.5H375c-34.5 0 -62.5 28 -62.5 62.5v62.5h-21.9c-68.7 0 -131.2 50 -150 118.8L97.7 472C41.8 484.5 0 534.1 0 593.8v93.7c0 46.2 25.3 86 62.5 107.7V875c0 34.5 28 62.5 62.5 62.5h62.5c34.5 0 62.5 -28 62.5 -62.5v-62.5h500V875c0 34.5 28 62.5 62.5 62.5H875c34.5 0 62.5 -28 62.5 -62.5v-79.8c37.2 -21.7 62.5 -61.6 62.5 -107.7v-93.7C1000 534.1 958.2 484.5 902.3 472zM187.5 687.5C153 687.5 125 659.5 125 625s28 -62.5 62.5 -62.5 62.5 28 62.5 62.5 -28 62.5 -62.5 62.5zm40.1 -218.7l33.6 -129.7c4.4 -15.9 18.8 -26.6 29.4 -26.6h418.8c10.7 0 25.1 10.7 29 25.1l34 131.2H227.6zm584.9 218.7C778 687.5 750 659.5 750 625s28 -62.5 62.5 -62.5 62.5 28 62.5 62.5 -28 62.5 -62.5 62.5z"/></svg>