
  <svg height="1000" width="1000.0" xmlns="http://www.w3.org/2000/svg">
    <path d="m902.3 472c55.9 12.5 97.7 62.1 97.7 121.8v93.7c0 46.1-25.3 86-62.5 107.7v79.8c0 34.5-28 62.5-62.5 62.5h-62.5c-34.5 0-62.5-28-62.5-62.5v-62.5h-500v62.5c0 34.5-28 62.5-62.5 62.5h-62.5c-34.5 0-62.5-28-62.5-62.5v-79.8c-37.2-21.7-62.5-61.5-62.5-107.7v-93.7c0-59.7 41.8-109.3 97.7-121.8l42.9-165.7c18.8-68.8 81.3-118.8 150-118.8h21.9v-62.5c0-34.5 28-62.5 62.5-62.5h250c34.5 0 62.5 28 62.5 62.5v62.5h21.9c68.7 0 131.2 50 150 118.8z m-714.8 215.5c34.5 0 62.5-28 62.5-62.5s-28-62.5-62.5-62.5-62.5 28-62.5 62.5 28 62.5 62.5 62.5z m40.1-218.7h544.8l-34-131.2c-3.9-14.4-18.3-25.1-29-25.1h-418.8c-10.6 0-25 10.7-29.4 26.6z m584.9 218.7c34.5 0 62.5-28 62.5-62.5s-28-62.5-62.5-62.5-62.5 28-62.5 62.5 28 62.5 62.5 62.5z" />
  </svg>
