<svg height="1000" width="1250" xmlns="http://www.w3.org/2000/svg"><path d="M1062.5 0h-875C83.9 0 0 83.9 0 187.5v625C0 916.1 83.9 1000 187.5 1000h875c103.6 0 187.5 -83.9 187.5 -187.5v-625C1250 83.9 1166.1 0 1062.5 0zm-750 718.8c0 51.7 -42 93.7 -93.7 93.7S125 770.5 125 718.8v-125c0 -17.3 14 -31.3 31.3 -31.3h125c17.2 0 31.2 14 31.2 31.3v125zm0 -250c0 17.2 -14 31.2 -31.2 31.2h-125C139 500 125 486 125 468.8v-125C125 292 167 250 218.8 250s93.7 42 93.7 93.8v125zm281.3 234.3c0 60.4 -49 109.4 -109.4 109.4S375 763.5 375 703.1V593.8c0 -17.3 14 -31.3 31.3 -31.3h156.2c17.3 0 31.3 14 31.3 31.3v109.3zm0 -234.3c0 17.2 -14 31.2 -31.3 31.2H406.3C389 500 375 486 375 468.8V296.9c0 -60.4 49 -109.4 109.4 -109.4s109.4 49 109.4 109.4v171.9zM875 703.1c0 60.4 -49 109.4 -109.4 109.4S656.3 763.5 656.3 703.1V593.8c0 -17.3 13.9 -31.3 31.2 -31.3h156.3c17.2 0 31.2 14 31.2 31.3v109.3zm0 -234.3C875 486 861 500 843.8 500H687.5c-17.3 0 -31.2 -14 -31.2 -31.2V296.9c0 -60.4 48.9 -109.4 109.3 -109.4S875 236.5 875 296.9v171.9zm250 250c0 51.7 -42 93.7 -93.7 93.7s-93.8 -42 -93.8 -93.7v-125c0 -17.3 14 -31.3 31.3 -31.3h125c17.2 0 31.2 14 31.2 31.3v125zm0 -250c0 17.2 -14 31.2 -31.2 31.2h-125c-17.3 0 -31.3 -14 -31.3 -31.2v-125c0 -51.8 42 -93.8 93.8 -93.8s93.7 42 93.7 93.8v125z"/></svg>