<svg height="1000" width="1250" xmlns="http://www.w3.org/2000/svg"><path d="M1062.5 0h-875C83.9 0 0 83.9 0 187.5v125c0 69 56 125 125 125h1000c69 0 125 -56 125 -125v-125C1250 83.9 1166.1 0 1062.5 0zm-750 343.8c0 17.2 -14 31.2 -31.2 31.2h-125C139 375 125 361 125 343.8v-62.5c0 -51.8 42 -93.8 93.8 -93.8s93.7 42 93.7 93.8v62.5zm281.3 0c0 17.2 -14 31.2 -31.3 31.2H406.3C389 375 375 361 375 343.8V234.4C375 174 424 125 484.4 125s109.4 49 109.4 109.4v109.4zm281.2 0C875 361 861 375 843.8 375H687.5c-17.3 0 -31.2 -14 -31.2 -31.2V234.4C656.3 174 705.2 125 765.6 125S875 174 875 234.4v109.4zm250 0c0 17.2 -14 31.2 -31.2 31.2h-125c-17.3 0 -31.3 -14 -31.3 -31.2v-62.5c0 -51.8 42 -93.8 93.8 -93.8s93.7 42 93.7 93.8v62.5zm0 281.2H125C56 625 0 681 0 750v62.5C0 916.1 83.9 1000 187.5 1000h875c103.6 0 187.5 -83.9 187.5 -187.5V750c0 -69 -56 -125 -125 -125zM312.5 781.3c0 51.7 -42 93.7 -93.7 93.7S125 833 125 781.3v-62.5c0 -17.3 14 -31.3 31.3 -31.3h125c17.2 0 31.2 14 31.2 31.3v62.5zm281.3 -15.7c0 60.4 -49 109.4 -109.4 109.4S375 826 375 765.6v-46.8c0 -17.3 14 -31.3 31.3 -31.3h156.2c17.3 0 31.3 14 31.3 31.3v46.8zm281.2 0C875 826 826 875 765.6 875S656.3 826 656.3 765.6v-46.8c0 -17.3 13.9 -31.3 31.2 -31.3h156.3c17.2 0 31.2 14 31.2 31.3v46.8zm250 15.7c0 51.7 -42 93.7 -93.7 93.7s-93.8 -42 -93.8 -93.7v-62.5c0 -17.3 14 -31.3 31.3 -31.3h125c17.2 0 31.2 14 31.2 31.3v62.5z"/></svg>