
  <svg height="1000" width="1250.0" xmlns="http://www.w3.org/2000/svg">
    <path d="m1062.5 0c103.6 0 187.5 83.9 187.5 187.5v125c0 69-56 125-125 125h-1000c-69 0-125-56-125-125v-125c0-103.6 83.9-187.5 187.5-187.5h875z m-750 343.8v-62.5c0-51.8-42-93.8-93.7-93.8s-93.8 42-93.8 93.8v62.5c0 17.2 14 31.2 31.3 31.2h125c17.2 0 31.2-14 31.2-31.2z m281.3 0v-109.4c0-60.4-49-109.4-109.4-109.4s-109.4 49-109.4 109.4v109.4c0 17.2 14 31.2 31.3 31.2h156.2c17.3 0 31.3-14 31.3-31.2z m281.2 0v-109.4c0-60.4-49-109.4-109.4-109.4s-109.3 49-109.3 109.4v109.4c0 17.2 13.9 31.2 31.2 31.2h156.3c17.2 0 31.2-14 31.2-31.2z m250 0v-62.5c0-51.8-42-93.8-93.7-93.8s-93.8 42-93.8 93.8v62.5c0 17.2 14 31.2 31.3 31.2h125c17.2 0 31.2-14 31.2-31.2z m0 281.2c69 0 125 56 125 125v62.5c0 103.6-83.9 187.5-187.5 187.5h-875c-103.6 0-187.5-83.9-187.5-187.5v-62.5c0-69 56-125 125-125h1000z m-812.5 156.3v-62.5c0-17.3-14-31.3-31.2-31.3h-125c-17.3 0-31.3 14-31.3 31.3v62.5c0 51.7 42 93.7 93.8 93.7s93.7-42 93.7-93.7z m281.3-15.7v-46.8c0-17.3-14-31.3-31.3-31.3h-156.2c-17.3 0-31.3 14-31.3 31.3v46.8c0 60.4 49 109.4 109.4 109.4s109.4-49 109.4-109.4z m281.2 0v-46.8c0-17.3-14-31.3-31.2-31.3h-156.3c-17.3 0-31.2 14-31.2 31.3v46.8c0 60.4 48.9 109.4 109.3 109.4s109.4-49 109.4-109.4z m250 15.7v-62.5c0-17.3-14-31.3-31.2-31.3h-125c-17.3 0-31.3 14-31.3 31.3v62.5c0 51.7 42 93.7 93.8 93.7s93.7-42 93.7-93.7z" />
  </svg>
