
  <svg height="1000" width="1250.0" xmlns="http://www.w3.org/2000/svg">
    <path d="m1062.5 0c103.6 0 187.5 83.9 187.5 187.5v625c0 103.6-83.9 187.5-187.5 187.5h-875c-103.6 0-187.5-83.9-187.5-187.5v-625c0-103.6 83.9-187.5 187.5-187.5h875z m-750 718.8v-125c0-17.3-14-31.3-31.2-31.3h-125c-17.3 0-31.3 14-31.3 31.3v125c0 51.7 42 93.7 93.8 93.7s93.7-42 93.7-93.7z m0-250v-125c0-51.8-42-93.8-93.7-93.8s-93.8 42-93.8 93.8v125c0 17.2 14 31.2 31.3 31.2h125c17.2 0 31.2-14 31.2-31.2z m281.3 234.3v-109.3c0-17.3-14-31.3-31.3-31.3h-156.2c-17.3 0-31.3 14-31.3 31.3v109.3c0 60.4 49 109.4 109.4 109.4s109.4-49 109.4-109.4z m0-234.3v-171.9c0-60.4-49-109.4-109.4-109.4s-109.4 49-109.4 109.4v171.9c0 17.2 14 31.2 31.3 31.2h156.2c17.3 0 31.3-14 31.3-31.2z m281.2 234.3v-109.3c0-17.3-14-31.3-31.2-31.3h-156.3c-17.3 0-31.2 14-31.2 31.3v109.3c0 60.4 48.9 109.4 109.3 109.4s109.4-49 109.4-109.4z m0-234.3v-171.9c0-60.4-49-109.4-109.4-109.4s-109.3 49-109.3 109.4v171.9c0 17.2 13.9 31.2 31.2 31.2h156.3c17.2 0 31.2-14 31.2-31.2z m250 250v-125c0-17.3-14-31.3-31.2-31.3h-125c-17.3 0-31.3 14-31.3 31.3v125c0 51.7 42 93.7 93.8 93.7s93.7-42 93.7-93.7z m0-250v-125c0-51.8-42-93.8-93.7-93.8s-93.8 42-93.8 93.8v125c0 17.2 14 31.2 31.3 31.2h125c17.2 0 31.2-14 31.2-31.2z" />
  </svg>
