
  <svg height="1000" width="1000.0" xmlns="http://www.w3.org/2000/svg">
    <path d="m812.5 0c103.3 0 187.5 84.2 187.5 187.5s-84.2 187.5-187.5 187.5-187.5-84.2-187.5-187.5 84.2-187.5 187.5-187.5z m0 250c34.6 0 62.5-27.9 62.5-62.5s-27.9-62.5-62.5-62.5-62.5 27.9-62.5 62.5 27.9 62.5 62.5 62.5z m-312.5-31.2v325.1c38.5 48.1 62.5 108.4 62.5 174.9 0 155.2-126 281.2-281.2 281.2s-281.3-126-281.3-281.2c0-66.5 24-126.6 62.5-174.9v-325.1c0-120.9 97.9-218.8 218.8-218.8s218.7 97.9 218.7 218.8z m-218.7 656.2c86.1 0 156.2-70.1 156.2-156.2 0-49.9-23.8-95.8-62.5-124.7v-375.3c0-51.8-42-93.8-93.7-93.8s-93.8 42-93.8 93.8v375.3c-38.7 29.1-62.5 74.8-62.5 124.7 0 86.1 70.1 156.2 156.3 156.2z m31.2-244.3c36.3 12.9 62.5 47.2 62.5 88 0 51.8-42 93.8-93.7 93.8s-93.8-42-93.8-93.8c0-40.8 26.2-75.1 62.5-88v-37c0-17.1 14.1-31.2 31.3-31.2s31.2 14.1 31.2 31.2v37z" />
  </svg>
