<svg height="1000" width="1125" xmlns="http://www.w3.org/2000/svg"><path d="M31.3 62.5h562.5c17.2 0 31.2 14 31.2 31.3v187.5c0 17.2 -14 31.2 -31.2 31.2h-69.4c-17.2 0 -31.2 -14 -31.2 -31.2v-93.8h-107v625h66.9c17.3 0 31.3 14 31.3 31.3v62.5c0 17.2 -14 31.2 -31.3 31.2H171.9c-17.3 0 -31.3 -14 -31.3 -31.2v-62.5c0 -17.3 14 -31.3 31.3 -31.3h66.9v-625h-107v93.8c0 17.2 -14 31.2 -31.2 31.2H31.3C14 312.5 0 298.5 0 281.3V93.8C0 76.5 14 62.5 31.3 62.5zm928.3 9.2l156.2 156.2c19.6 19.5 5.9 53.4 -22.1 53.4H1000v437.5h93.8c30.5 0 40.3 35.1 22 53.3L959.6 928.3c-12.2 12.3 -32 12.2 -44.2 0L759.2 772.1c-19.6 -19.5 -5.9 -53.3 22.1 -53.3H875V281.3h-93.7c-30.6 0 -40.4 -35.2 -22.1 -53.4L915.4 71.7c12.2 -12.3 32 -12.2 44.2 0z"/></svg>