
  <svg height="1000" width="1125.0" xmlns="http://www.w3.org/2000/svg">
    <path d="m593.8 62.5c17.2 0 31.2 14 31.2 31.3v187.5c0 17.2-14 31.2-31.2 31.2h-62.5c-17.3 0-31.3-14-31.3-31.2v-62.5h-109.4v593.7h78.2c17.2 0 31.2 14 31.2 31.3v62.5c0 17.2-14 31.2-31.2 31.2h-312.5c-17.3 0-31.3-14-31.3-31.2v-62.5c0-17.3 14-31.3 31.3-31.3h78.1v-593.7h-109.4v62.5c0 17.2-14 31.2-31.2 31.2h-62.5c-17.3 0-31.3-14-31.3-31.2v-187.5c0-17.3 14-31.3 31.3-31.3h562.5z m500 656.3c30.5 0 40.3 35.1 22 53.3l-156.2 156.2c-5.7 5.7-13.5 9.2-22.1 9.2-8.6 0-16.4-3.5-22.1-9.2l-156.2-156.2c-19.6-19.5-5.9-53.3 22.1-53.3h93.7v-437.5h-93.7c-30.6 0-40.4-35.2-22.1-53.4l156.2-156.2c5.7-5.7 13.5-9.2 22.1-9.2 8.6 0 16.4 3.5 22.1 9.2l156.2 156.2c19.6 19.5 5.9 53.4-22 53.4h-93.8v437.5h93.8z" />
  </svg>
