
  <svg height="1000" width="875.0" xmlns="http://www.w3.org/2000/svg">
    <path d="m843.8 62.5c17.2 0 31.2 14 31.2 31.3v156.2c0 17.2-14 31.3-31.2 31.3h-62.5c-17.3 0-31.3-14.1-31.3-31.3v-31.2h-234.4v218.7h46.9c17.2 0 31.3 14 31.3 31.3v62.5c0 17.2-14.1 31.2-31.3 31.2h-250c-17.2 0-31.2-14-31.2-31.2v-62.5c0-17.3 14-31.3 31.2-31.3h46.9v-218.7h-234.4v31.2c0 17.2-14 31.3-31.2 31.3h-62.5c-17.3 0-31.3-14.1-31.3-31.3v-156.2c0-17.3 14-31.3 31.3-31.3h812.5z m-134.2 509.2l156.2 156.2c5.7 5.7 9.2 13.5 9.2 22.1 0 8.6-3.5 16.4-9.2 22.1l-156.2 156.2c-19.5 19.6-53.3 5.9-53.3-22.1v-93.7h-437.5v93.7c0 30.6-35.2 40.4-53.4 22.1l-156.2-156.2c-5.7-5.7-9.2-13.5-9.2-22.1 0-8.6 3.5-16.4 9.2-22.1l156.2-156.2c19.5-19.6 53.4-5.9 53.4 22v93.8h437.5v-93.8c0-30.5 35.1-40.3 53.3-22z" />
  </svg>
