<svg height="1000" width="875" xmlns="http://www.w3.org/2000/svg"><path d="M31.3 62.5h812.5c17.2 0 31.2 14 31.2 31.3v187.5c0 17.2 -14 31.2 -31.2 31.2h-69.4c-17.2 0 -31.2 -14 -31.2 -31.2v-93.8h-232v250h66.9c17.3 0 31.3 14 31.3 31.3v62.5c0 17.2 -14 31.2 -31.3 31.2H296.9c-17.3 0 -31.3 -14 -31.3 -31.2v-62.5c0 -17.3 14 -31.3 31.3 -31.3h66.9v-250h-232v93.8c0 17.2 -14 31.2 -31.2 31.2H31.3C14 312.5 0 298.5 0 281.3V93.8C0 76.5 14 62.5 31.3 62.5zm834.5 665.4L709.6 571.7c-18.2 -18.3 -53.3 -8.5 -53.3 22.1v93.7H218.8v-93.7c0 -28 -33.9 -41.7 -53.4 -22.1L9.2 727.9c-12.2 12.2 -12.3 32 0 44.2l156.2 156.2c18.2 18.3 53.4 8.5 53.4 -22v-93.8h437.5v93.7c0 28 33.8 41.7 53.3 22.1L865.8 772.1c12.2 -12.2 12.3 -32 0 -44.2z"/></svg>