<svg height="1000" width="1000" xmlns="http://www.w3.org/2000/svg"><path d="M291.7 421.9v156.2c0 25.9 -21 46.9 -46.9 46.9H46.9C21 625 0 604 0 578.1V421.9C0 396 21 375 46.9 375h197.9c25.9 0 46.9 21 46.9 46.9zM0 734.4v156.2c0 25.9 21 46.9 46.9 46.9h197.9c25.9 0 46.9 -21 46.9 -46.9V734.4c0 -25.9 -21 -46.9 -46.9 -46.9H46.9C21 687.5 0 708.5 0 734.4zM244.8 62.5H46.9C21 62.5 0 83.5 0 109.4v156.2c0 25.9 21 46.9 46.9 46.9h197.9c25.9 0 46.9 -21 46.9 -46.9V109.4c0 -25.9 -21 -46.9 -46.9 -46.9zm156.2 875h552.1c25.9 0 46.9 -21 46.9 -46.9V734.4c0 -25.9 -21 -46.9 -46.9 -46.9H401c-25.8 0 -46.8 21 -46.8 46.9v156.2c0 25.9 21 46.9 46.8 46.9zM354.2 109.4v156.2c0 25.9 21 46.9 46.8 46.9h552.1c25.9 0 46.9 -21 46.9 -46.9V109.4c0 -25.9 -21 -46.9 -46.9 -46.9H401c-25.8 0 -46.8 21 -46.8 46.9zM401 625h552.1c25.9 0 46.9 -21 46.9 -46.9V421.9C1000 396 979 375 953.1 375H401c-25.8 0 -46.8 21 -46.8 46.9v156.2c0 25.9 21 46.9 46.8 46.9z"/></svg>