
  <svg height="1000" width="1000.0" xmlns="http://www.w3.org/2000/svg">
    <path d="m291.7 421.9v156.2c0 25.9-21 46.9-46.9 46.9h-197.9c-25.9 0-46.9-21-46.9-46.9v-156.2c0-25.9 21-46.9 46.9-46.9h197.9c25.9 0 46.9 21 46.9 46.9z m-291.7 312.5c0-25.9 21-46.9 46.9-46.9h197.9c25.9 0 46.9 21 46.9 46.9v156.2c0 25.9-21 46.9-46.9 46.9h-197.9c-25.9 0-46.9-21-46.9-46.9v-156.2z m244.8-671.9c25.9 0 46.9 21 46.9 46.9v156.2c0 25.9-21 46.9-46.9 46.9h-197.9c-25.9 0-46.9-21-46.9-46.9v-156.2c0-25.9 21-46.9 46.9-46.9h197.9z m156.2 875c-25.8 0-46.8-21-46.8-46.9v-156.2c0-25.9 21-46.9 46.8-46.9h552.1c25.9 0 46.9 21 46.9 46.9v156.2c0 25.9-21 46.9-46.9 46.9h-552.1z m-46.8-828.1c0-25.9 21-46.9 46.8-46.9h552.1c25.9 0 46.9 21 46.9 46.9v156.2c0 25.9-21 46.9-46.9 46.9h-552.1c-25.8 0-46.8-21-46.8-46.9v-156.2z m46.8 515.6c-25.8 0-46.8-21-46.8-46.9v-156.2c0-25.9 21-46.9 46.8-46.9h552.1c25.9 0 46.9 21 46.9 46.9v156.2c0 25.9-21 46.9-46.9 46.9h-552.1z" />
  </svg>
