
  <svg height="1000" width="1000.0" xmlns="http://www.w3.org/2000/svg">
    <path d="m578.1 62.5h375c25.9 0 46.9 21 46.9 46.9v312.5c0 25.9-21 46.9-46.9 46.9h-375c-25.9 0-46.8-21-46.8-46.9v-312.5c0-25.9 20.9-46.9 46.8-46.9z m-156.2 0c25.9 0 46.9 21 46.9 46.9v312.5c0 25.9-21 46.9-46.9 46.9h-375c-25.9 0-46.9-21-46.9-46.9v-312.5c0-25.9 21-46.9 46.9-46.9h375z m-421.9 515.6c0-25.9 21-46.8 46.9-46.8h375c25.9 0 46.9 20.9 46.9 46.8v312.5c0 25.9-21 46.9-46.9 46.9h-375c-25.9 0-46.9-21-46.9-46.9v-312.5z m578.1 359.4c-25.9 0-46.8-21-46.8-46.9v-312.5c0-25.9 20.9-46.8 46.8-46.8h375c25.9 0 46.9 20.9 46.9 46.8v312.5c0 25.9-21 46.9-46.9 46.9h-375z" />
  </svg>
