<svg height="1000" width="1000" xmlns="http://www.w3.org/2000/svg"><path d="M291.7 109.4v156.2c0 25.9 -21 46.9 -46.9 46.9H46.9C21 312.5 0 291.5 0 265.6V109.4C0 83.5 21 62.5 46.9 62.5h197.9c25.9 0 46.9 21 46.9 46.9zm354.1 468.7V421.9C645.8 396 624.8 375 599 375H401c-25.8 0 -46.8 21 -46.8 46.9v156.2c0 25.9 21 46.9 46.8 46.9h198c25.8 0 46.8 -21 46.8 -46.9zm62.5 -468.7v156.2c0 25.9 21 46.9 46.9 46.9h197.9c25.9 0 46.9 -21 46.9 -46.9V109.4c0 -25.9 -21 -46.9 -46.9 -46.9H755.2c-25.9 0 -46.9 21 -46.9 46.9zm-62.5 156.2V109.4c0 -25.9 -21 -46.9 -46.8 -46.9H401c-25.8 0 -46.8 21 -46.8 46.9v156.2c0 25.9 21 46.9 46.8 46.9h198c25.8 0 46.8 -21 46.8 -46.9zM244.8 375H46.9C21 375 0 396 0 421.9v156.2C0 604 21 625 46.9 625h197.9c25.9 0 46.9 -21 46.9 -46.9V421.9c0 -25.9 -21 -46.9 -46.9 -46.9zM0 734.4v156.2c0 25.9 21 46.9 46.9 46.9h197.9c25.9 0 46.9 -21 46.9 -46.9V734.4c0 -25.9 -21 -46.9 -46.9 -46.9H46.9C21 687.5 0 708.5 0 734.4zM755.2 625h197.9c25.9 0 46.9 -21 46.9 -46.9V421.9C1000 396 979 375 953.1 375H755.2c-25.9 0 -46.9 21 -46.9 46.9v156.2c0 25.9 21 46.9 46.9 46.9zm0 312.5h197.9c25.9 0 46.9 -21 46.9 -46.9V734.4c0 -25.9 -21 -46.9 -46.9 -46.9H755.2c-25.9 0 -46.9 21 -46.9 46.9v156.2c0 25.9 21 46.9 46.9 46.9zm-401 -203.1v156.2c0 25.9 21 46.9 46.8 46.9h198c25.8 0 46.8 -21 46.8 -46.9V734.4c0 -25.9 -21 -46.9 -46.8 -46.9H401c-25.8 0 -46.8 21 -46.8 46.9z"/></svg>