
  <svg height="1000" width="1000.0" xmlns="http://www.w3.org/2000/svg">
    <path d="m291.7 109.4v156.2c0 25.9-21 46.9-46.9 46.9h-197.9c-25.9 0-46.9-21-46.9-46.9v-156.2c0-25.9 21-46.9 46.9-46.9h197.9c25.9 0 46.9 21 46.9 46.9z m354.1 468.7c0 25.9-21 46.9-46.8 46.9h-198c-25.8 0-46.8-21-46.8-46.9v-156.2c0-25.9 21-46.9 46.8-46.9h198c25.8 0 46.8 21 46.8 46.9v156.2z m62.5-468.7c0-25.9 21-46.9 46.9-46.9h197.9c25.9 0 46.9 21 46.9 46.9v156.2c0 25.9-21 46.9-46.9 46.9h-197.9c-25.9 0-46.9-21-46.9-46.9v-156.2z m-62.5 156.2c0 25.9-21 46.9-46.8 46.9h-198c-25.8 0-46.8-21-46.8-46.9v-156.2c0-25.9 21-46.9 46.8-46.9h198c25.8 0 46.8 21 46.8 46.9v156.2z m-401 109.4c25.9 0 46.9 21 46.9 46.9v156.2c0 25.9-21 46.9-46.9 46.9h-197.9c-25.9 0-46.9-21-46.9-46.9v-156.2c0-25.9 21-46.9 46.9-46.9h197.9z m-244.8 359.4c0-25.9 21-46.9 46.9-46.9h197.9c25.9 0 46.9 21 46.9 46.9v156.2c0 25.9-21 46.9-46.9 46.9h-197.9c-25.9 0-46.9-21-46.9-46.9v-156.2z m755.2-109.4c-25.9 0-46.9-21-46.9-46.9v-156.2c0-25.9 21-46.9 46.9-46.9h197.9c25.9 0 46.9 21 46.9 46.9v156.2c0 25.9-21 46.9-46.9 46.9h-197.9z m0 312.5c-25.9 0-46.9-21-46.9-46.9v-156.2c0-25.9 21-46.9 46.9-46.9h197.9c25.9 0 46.9 21 46.9 46.9v156.2c0 25.9-21 46.9-46.9 46.9h-197.9z m-401-203.1c0-25.9 21-46.9 46.8-46.9h198c25.8 0 46.8 21 46.8 46.9v156.2c0 25.9-21 46.9-46.8 46.9h-198c-25.8 0-46.8-21-46.8-46.9v-156.2z" />
  </svg>
