
  <svg height="1000" width="1250.0" xmlns="http://www.w3.org/2000/svg">
    <path d="m404 478.8l-14.9 84.3c-41.2 14.1-75.2 35.6-97.4 60.4-4.8-64.2 42.2-124.3 112.3-144.7z m-216.9 97.4c11.5 64.8 125.7 140.2 218.6 165.6 20.7 52.9 50.8 98.6 77.2 132-6.4 0.6-12.5 1.5-19.6 1.5-133 0-371.5-120.2-399.3-277.5l-61.9-350.6c-9.8-54.9 15.5-109.5 62.7-135.8 132.5-73.5 280.2-111.4 430-111.4 46.7 0 93.6 3.7 140.3 11.1 33.8 5.4 62.1 25.5 81.6 52.8-37.4 1.5-74.8 4.5-111.7 10.4-38.8 6.1-73.5 24.4-100.7 50.7-3.2 0-6.4-0.3-9.5-0.3-128.7 0-256.4 33.1-369.2 95.7 0.1 0-1 2-0.4 5.2z m190.6-268.5c7.5 42.4-20.9 82.8-63.4 90.3-42.5 7.4-83-20.9-90.5-63.3-1.4-8-1.2-15.9-0.2-23.6 21.1 10.9 48.5 15.2 77.1 10.1 28.6-5 52.9-18.4 69-35.8 3.6 6.9 6.5 14.2 8 22.3z m807.5-71.6c47.2 26.2 72.5 80.9 62.8 135.8l-62 350.6c-30.1 170-306.3 296.8-429.4 275.1-123.1-21.6-339.3-235-309.2-405l61.9-350.6c9.7-54.9 52.2-97.6 105.6-106.2 196.4-31.3 396.5 3.9 570.3 100.3z m-533.7 189.1c-1.4 8-1.2 15.9-0.2 23.6 21.1-10.8 48.5-15.1 77.1-10.1 28.7 5.1 52.9 18.4 69 35.8 3.6-6.9 6.5-14.2 8-22.2 7.5-42.4-20.9-82.8-63.4-90.3-42.5-7.5-83 20.8-90.5 63.2z m137.6 388.2c108.8 19.1 211.3-46.4 239-147.9-54.9 33.2-134 47.3-218.6 32.4-84.5-14.8-154.1-55.1-194.3-105-8.7 104.7 65.2 201.4 173.9 220.5z m254.5-295.6c3.6-6.9 6.5-14.2 8-22.3 7.4-42.3-20.9-82.7-63.4-90.2-42.5-7.5-83 20.8-90.5 63.2-1.5 8-1.2 15.9-0.2 23.6 21.1-10.8 48.5-15.1 77.1-10.1 28.6 5.1 52.9 18.4 69 35.8z" />
  </svg>
