<svg height="1000" width="1250" xmlns="http://www.w3.org/2000/svg"><path d="M404 478.8c-70.1 20.4 -117.1 80.5 -112.3 144.7 22.2 -24.8 56.2 -46.3 97.4 -60.4L404 478.8zm-216.9 97.4L125.2 225.6c-.6 -3.2 .5 -5.2 .4 -5.2 112.8 -62.6 240.5 -95.7 369.2 -95.7 3.1 0 6.3 .3 9.5 .3C531.5 98.7 566.2 80.4 605 74.3c36.9 -5.9 74.3 -8.9 111.7 -10.4C697.2 36.6 668.9 16.5 635.1 11.1 588.4 3.7 541.5 0 494.8 0 345 0 197.3 37.9 64.8 111.4 17.6 137.7 -7.7 192.3 2.1 247.2L64 597.8c27.8 157.3 266.3 277.5 399.3 277.5 7.1 0 13.2 -.9 19.6 -1.5 -26.4 -33.4 -56.5 -79.1 -77.2 -132C312.8 716.4 198.6 641 187.1 576.2zM377.7 307.7c-1.5 -8.1 -4.4 -15.4 -8 -22.3 -16.1 17.4 -40.4 30.8 -69 35.8 -28.6 5 -56 .8 -77.1 -10.1 -1 7.7 -1.2 15.6 .2 23.6 7.5 42.4 48 70.7 90.5 63.3 42.5 -7.5 70.9 -47.9 63.4 -90.3zm807.5 -71.6C1011.4 139.7 811.3 104.5 614.9 135.8 561.5 144.4 519 187.1 509.3 242l-61.9 350.6c-30.1 170 186.1 383.4 309.2 405 123.1 21.7 399.3 -105.1 429.4 -275.1l61.9 -350.6c9.8 -54.9 -15.5 -109.6 -62.7 -135.8zM651.5 425.2c7.5 -42.4 48 -70.7 90.5 -63.2s70.9 47.9 63.4 90.3c-1.5 8 -4.4 15.3 -8 22.2 -16.1 -17.4 -40.3 -30.7 -69 -35.7 -28.6 -5.1 -56 -.8 -77.1 10 -1 -7.7 -1.2 -15.6 .2 -23.6zm137.6 388.2C680.4 794.3 606.5 697.6 615.2 592.9c40.2 49.9 109.8 90.2 194.3 105 84.6 14.9 163.7 .8 218.6 -32.4 -27.7 101.5 -130.2 167 -239 147.9zm254.5 -295.6c-16.1 -17.4 -40.4 -30.7 -69 -35.8 -28.6 -5 -56 -.7 -77.1 10.1 -1 -7.7 -1.3 -15.6 .2 -23.6 7.5 -42.4 48 -70.7 90.5 -63.2s70.8 47.9 63.4 90.2c-1.5 8.1 -4.4 15.4 -8 22.3z"/></svg>