<svg height="1000" width="500" xmlns="http://www.w3.org/2000/svg"><path d="M437.5 187.5C437.5 83.9 353.6 0 250 0S62.5 83.9 62.5 187.5v397.2C23.9 628.4 .3 685.8 0 748.7 -.7 886 110.9 999 248.2 1000c.6 0 1.2 0 1.8 0 138.1 0 250 -111.9 250 -250 0 -63.4 -23.6 -121.3 -62.5 -165.3V187.5zM250 906.3l-1.1 -.1C163.2 905.7 93.3 834.9 93.8 749.2c.3 -66.4 37.6 -100.9 62.5 -129.1V187.5c0 -51.7 42 -93.7 93.7 -93.7s93.8 42 93.8 93.7v432.6c24.6 28 62.5 62.8 62.5 129.9 0 86.2 -70.1 156.3 -156.3 156.3zM375 750c0 69 -56 125 -125 125S125 819 125 750c0 -46.3 25.1 -86.6 62.5 -108.2V187.5c0 -34.5 28 -62.5 62.5 -62.5s62.5 28 62.5 62.5v454.3C349.9 663.4 375 703.7 375 750z"/></svg>