
  <svg height="1000" width="1000.0" xmlns="http://www.w3.org/2000/svg">
    <path d="m931.3 39.8c96.4 79.5 82.2 209.6 14 277.8l-496.5 494.7h-195.1l-173.8 173.8c-18.2 18.4-47.9 18.4-66.2 0-18.4-18.1-18.4-47.8 0-66.2l173.8-173.8v-197.1l88.5-89.2 97.8 98c6.1 6.1 16 6.1 22.1 0l22.1-22.1c6-6 6-16 0-22l-97.9-98.1 88.1-88.6 98.2 98c6.1 6.1 16.1 6.1 22.1 0l22.1-22.1c6-6 6-16 0-22l-98.3-98.5 88.1-88.6 98.5 98.6c6 6 16 6 22 0l22.1-22.1c6.1-6 6.1-16 0-22.1l-98.6-98.6 89.2-89.8c71.1-71.3 184.4-79.9 257.6-20z" />
  </svg>
