<svg height="1000" width="1000" xmlns="http://www.w3.org/2000/svg"><path d="M931.3 39.8C858 -20.1 744.7 -11.5 673.6 59.8l-89.2 89.8 98.6 98.6c6.1 6.1 6.1 16.1 0 22.1l-22.1 22.1c-6 6 -16 6 -22 0l-98.5 -98.7 -88.1 88.7 98.3 98.5c6 6 6 16 0 22L528.5 425c-6 6.1 -16 6.1 -22.1 0l-98.2 -98 -88.1 88.6 97.9 98.1c6 6 6 16 0 22l-22.1 22.1c-6.1 6.1 -16 6.1 -22.1 0l-97.8 -98L187.5 549v197.1L13.7 919.9c-18.4 18.4 -18.4 48.1 0 66.2 18.3 18.4 48 18.4 66.2 0L253.7 812.3h195.1L945.3 317.6c68.2 -68.2 82.4 -198.3 -14 -277.8z"/></svg>