
  <svg height="1000" width="1000.0" xmlns="http://www.w3.org/2000/svg">
    <path d="m203.1 437.5c25.9 0 46.9 21 46.9 46.9v468.7c0 25.9-21 46.9-46.9 46.9h-156.2c-25.9 0-46.9-21-46.9-46.9v-468.7c0-25.9 21-46.9 46.9-46.9h156.2z m-78.1 484.4c25.9 0 46.9-21 46.9-46.9s-21-46.9-46.9-46.9-46.9 21-46.9 46.9 21 46.9 46.9 46.9z m625-762.8c0 82.8-50.7 129.3-65 184.6h198.7c65.2 0 116 54.2 116.3 113.5 0.2 35.1-14.7 72.8-38 96.1l-0.2 0.2c19.2 45.6 16.1 109.5-18.2 155.2 17 50.6-0.1 112.7-32 146 8.4 34.4 4.4 63.7-12 87.2-39.8 57.3-138.6 58.1-222.2 58.1l-5.5 0c-94.3 0-171.5-34.4-233.6-62-31.1-13.8-71.9-31-102.8-31.6-12.8-0.2-23-10.6-23-23.4v-417.5c0-6.3 2.5-12.3 6.9-16.7 77.4-76.4 110.7-157.4 174.1-220.9 28.9-28.9 39.4-72.7 49.6-115 8.7-36.2 26.9-112.9 66.3-112.9 46.9 0 140.6 15.6 140.6 159.1z" />
  </svg>
