<svg height="1000" width="1000" xmlns="http://www.w3.org/2000/svg"><path d="M500 15.6C232.4 15.6 15.6 232.4 15.6 500S232.4 984.4 500 984.4 984.4 767.6 984.4 500 767.6 15.6 500 15.6zm237.5 611.5c9.2 9.2 9.2 24.1 0 33.3l-77.3 77.1c-9.2 9.2 -24.1 9.2 -33.2 0L500 609.4 372.9 737.5c-9.2 9.2 -24.1 9.2 -33.3 0l-77.1 -77.3c-9.2 -9.2 -9.2 -24.1 0 -33.2L390.6 500 262.5 372.9c-9.2 -9.2 -9.2 -24.1 0 -33.3l77.3 -77.3c9.2 -9.2 24.1 -9.2 33.2 0l127 128.3L627.1 262.5c9.2 -9.2 24.1 -9.2 33.3 0l77.3 77.3c9.2 9.2 9.2 24.1 0 33.2L609.4 500l128.1 127.1z"/></svg>