
  <svg height="1000" width="1000.0" xmlns="http://www.w3.org/2000/svg">
    <path d="m500 15.6c267.6 0 484.4 216.8 484.4 484.4s-216.8 484.4-484.4 484.4-484.4-216.8-484.4-484.4 216.8-484.4 484.4-484.4z m237.5 611.5l-128.1-127.1 128.3-127c9.2-9.1 9.2-24 0-33.2l-77.3-77.3c-9.2-9.2-24.1-9.2-33.3 0l-127.1 128.1-127-128.3c-9.1-9.2-24-9.2-33.2 0l-77.3 77.3c-9.2 9.2-9.2 24.1 0 33.3l128.1 127.1-128.1 127c-9.2 9.1-9.2 24 0 33.2l77.2 77.3c9.1 9.2 24 9.2 33.2 0l127.1-128.1 127 128.1c9.1 9.2 24 9.2 33.2 0l77.3-77.1c9.2-9.2 9.2-24.1 0-33.3z" />
  </svg>
