<svg height="1000" width="1250" xmlns="http://www.w3.org/2000/svg"><path d="M1237.9 894.7L966.7 685.1c1.1 -10.9 2.1 -21.8 2.1 -32.9 0 -218.3 -195 -299.5 -286.7 -609.1 -15.5 -56.2 -96.6 -58.8 -114.2 0 -30.3 102.3 -72 179.7 -114.2 245.5L88.8 6.6C75.2 -4 55.5 -1.6 44.9 12.1L6.6 61.4C-4 75 -1.6 94.7 12.1 105.3l1149.1 888.1c13.6 10.6 33.3 8.2 43.9 -5.5l38.3 -49.3c10.6 -13.6 8.2 -33.3 -5.5 -43.9zM281.3 652.2C281.3 844.4 435 1000 625 1000c87.3 0 166.7 -33.1 227.3 -87.3L317.8 499.6c-22.3 45.9 -36.5 94.4 -36.5 152.6z"/></svg>