
  <svg height="1000" width="1250.0" xmlns="http://www.w3.org/2000/svg">
    <path d="m1237.9 894.7c13.7 10.6 16.1 30.3 5.5 43.9l-38.3 49.3c-10.6 13.7-30.3 16.1-43.9 5.5l-1149.1-888.1c-13.7-10.6-16.1-30.3-5.5-43.9l38.3-49.3c10.6-13.7 30.3-16.1 43.9-5.5l364.9 282c42.2-65.8 83.9-143.2 114.2-245.5 17.6-58.8 98.7-56.2 114.2 0 91.7 309.6 286.6 390.8 286.6 609.1 0 11.1-0.9 22-2 32.9z m-956.6-242.5c0-58.2 14.2-106.7 36.5-152.6l534.5 413.1c-60.6 54.2-140 87.3-227.3 87.3-190 0-343.7-155.6-343.7-347.8z" />
  </svg>
