<svg height="1000" width="968.8" xmlns="http://www.w3.org/2000/svg"><path d="M484.4 15.6C216.8 15.6 0 232.4 0 500s216.8 484.4 484.4 484.4S968.8 767.6 968.8 500 752 15.6 484.4 15.6zm66 370.5l156.2 -93.7c22.7 -13.5 46.9 15 30.1 35.1l-65.6 78.8 65.6 78.7c17 20.3 -7.6 48.4 -30.1 35.1L550.4 426.4c-15 -9.2 -15 -31.1 0 -40.3zM232 327.5c-16.8 -20.1 7.5 -48.6 30.1 -35.1l156.3 93.7c15.2 9.2 15.2 31.1 0 40.3l-156.3 93.7C239.6 533.4 215.2 505.3 232 485l65.7 -78.8L232 327.5zm252.4 235c101.3 0 225.2 85.5 240.6 208.4 3.3 26.6 -15.6 48 -34.6 39.8 -50.6 -21.6 -125.8 -33.9 -206 -33.9s-155.5 12.3 -206.1 33.9c-19.1 8.2 -37.9 -13.6 -34.5 -39.8C259.2 648 383 562.5 484.4 562.5z"/></svg>