
  <svg height="1000" width="968.8" xmlns="http://www.w3.org/2000/svg">
    <path d="m484.4 15.6c267.6 0 484.4 216.8 484.4 484.4s-216.8 484.4-484.4 484.4-484.4-216.8-484.4-484.4 216.8-484.4 484.4-484.4z m66 370.5c-15 9.2-15 31.1 0 40.3l156.2 93.7c22.5 13.3 47.1-14.8 30.1-35.1l-65.6-78.8 65.6-78.7c16.8-20.1-7.4-48.6-30.1-35.1z m-318.4-58.6l65.7 78.7-65.7 78.8c-16.8 20.3 7.6 48.4 30.1 35.1l156.3-93.7c15.2-9.2 15.2-31.1 0-40.3l-156.3-93.7c-22.6-13.5-46.9 15-30.1 35.1z m252.4 235c-101.4 0-225.2 85.5-240.6 208.4-3.4 26.2 15.4 48 34.5 39.8 50.6-21.6 125.8-33.9 206.1-33.9s155.4 12.3 206 33.9c19 8.2 37.9-13.2 34.6-39.8-15.4-122.9-139.3-208.4-240.6-208.4z" />
  </svg>
