
  <svg height="1000" width="750.0" xmlns="http://www.w3.org/2000/svg">
    <path d="m718.8 93.8h-31.3v306c39.5 19.7 62.5 43.4 62.5 68.9 0 131.3-67.6 246.5-169.5 313.5l41.8 137.1c12.3 40.1-17.8 80.7-59.8 80.7h-375c-42 0-72.1-40.6-59.8-80.7l41.8-137.1c-101.9-67-169.5-182.2-169.5-313.5 0-25.5 23-49.2 62.5-68.9v-306h-31.2c-17.2 0-31.3-14.1-31.3-31.3v-31.2c0-17.2 14.1-31.3 31.3-31.3h687.5c17.1 0 31.2 14.1 31.2 31.3v31.2c0 17.2-14.1 31.3-31.2 31.3z m-562.5 46.8v31.3c0 8.6 7 15.6 15.6 15.6h93.7c8.6 0 15.7-7 15.7-15.6v-31.3c0-8.6-7.1-15.6-15.7-15.6h-93.7c-8.6 0-15.6 7-15.6 15.6z m218.7 390.7c150.6 0 272.7-28 272.7-62.5s-122.1-62.5-272.7-62.5-272.7 27.9-272.7 62.5 122.1 62.5 272.7 62.5z" />
  </svg>
