
  <svg height="1000" width="1250.0" xmlns="http://www.w3.org/2000/svg">
    <path d="m125 375c0-21.1 1-41.7 2.8-61.9l617.2 477.1c-8.2 62.9-25.2 112.7-43.4 167.1-8.2 24.8-31.5 42.7-59.1 42.7h-0.2-548.5c-17.2-0.1-31.1-14.1-31.1-31.3 0-3.4 0.5-6.6 1.5-9.7 41.8-125.3 60.8-167.5 60.8-247.8v-336.2z m1112.9 519.7c7.4 5.7 12.1 14.7 12.1 24.7 0 7.2-2.4 13.9-6.6 19.2l-38.3 49.3c-5.7 7.4-14.7 12.1-24.7 12.1-7.2 0-13.9-2.5-19.2-6.6l-1149.1-888.1c-7.4-5.7-12.1-14.7-12.1-24.7 0-7.2 2.5-13.9 6.6-19.2l38.3-49.3c5.7-7.4 14.7-12.1 24.7-12.1 7.2 0 13.9 2.5 19.2 6.6l104.1 80.4c32.4-54.1 74-87 119.6-87h555.7c-72 75.2-118.2 211.7-118.2 375v142.6l98.5 76.1c-22.3-61.7-36-136.7-36-218.7 0-207 84-375 187.5-375s187.5 168 187.5 375c0 180.3-63.9 329.9-148.8 365.8z m-237.9-394.7c34.4 0 62.5-55.9 62.5-125s-28.1-125-62.5-125-62.5 55.9-62.5 125 28.1 125 62.5 125z" />
  </svg>
