
  <svg height="1000" width="1125.0" xmlns="http://www.w3.org/2000/svg">
    <path d="m250 0h555.5c-71.8 75.2-118 211.7-118 375v336.1c0 104.8-23.2 171-48.3 246.2-8.5 25.5-32.4 42.7-59.3 42.7h-548.6c-21.4 0-36.4-20.9-29.7-41.1 41.8-125.2 60.9-167.5 60.9-247.8v-336.1c0-207.1 83.9-375 187.5-375z m-62.5 437.5c17.3 0 31.3-14 31.3-31.2s-14-31.3-31.3-31.3-31.2 14-31.2 31.3 13.9 31.2 31.2 31.2z m125 0c17.3 0 31.3-14 31.3-31.2s-14-31.3-31.3-31.3-31.2 14-31.2 31.3 13.9 31.2 31.2 31.2z m125 0c17.3 0 31.3-14 31.3-31.2s-14-31.3-31.3-31.3-31.2 14-31.2 31.3 13.9 31.2 31.2 31.2z m125 0c17.3 0 31.3-14 31.3-31.2s-14-31.3-31.3-31.3-31.2 14-31.2 31.3 13.9 31.2 31.2 31.2z m375-437.5c103.6 0 187.5 167.9 187.5 375s-83.9 375-187.5 375-187.5-167.9-187.5-375 83.9-375 187.5-375z m0 500c34.5 0 62.5-56 62.5-125s-28-125-62.5-125-62.5 56-62.5 125 28 125 62.5 125z" />
  </svg>
