
  <svg height="1000" width="1000.0" xmlns="http://www.w3.org/2000/svg">
    <path d="m981.7 419.2c11.7 11.7 18.3 27.6 18.3 44.2v161.6h-250v-31.2c0-17.3-14-31.3-31.2-31.3h-62.5c-17.3 0-31.3 14-31.3 31.3v31.2h-250v-31.2c0-17.3-14-31.3-31.2-31.3h-62.5c-17.3 0-31.3 14-31.3 31.3v31.2h-250v-161.6c0-16.6 6.6-32.5 18.3-44.2l88.4-88.4c11.7-11.7 27.6-18.3 44.2-18.3h99.1v-156.2c0-51.8 42-93.8 93.8-93.8h312.5c51.7 0 93.7 42 93.7 93.8v156.2h99.1c16.6 0 32.5 6.6 44.2 18.3z m-356.7-106.7v-125h-250v125h250z m125 406.3v-31.3h250v187.5c0 34.5-28 62.5-62.5 62.5h-875c-34.5 0-62.5-28-62.5-62.5v-187.5h250v31.3c0 17.2 14 31.2 31.3 31.2h62.5c17.2 0 31.2-14 31.2-31.2v-31.3h250v31.3c0 17.2 14 31.2 31.3 31.2h62.5c17.2 0 31.2-14 31.2-31.2z" />
  </svg>
