<svg height="1000" width="1000" xmlns="http://www.w3.org/2000/svg"><path d="M981.7 419.2l-88.4 -88.4a62.518 62.518 0 0 0 -44.2 -18.3H750V156.3c0 -51.8 -42 -93.8 -93.7 -93.8H343.8c-51.8 0 -93.8 42 -93.8 93.8v156.2h-99.1c-16.6 0 -32.5 6.6 -44.2 18.3l-88.4 88.4A62.518 62.518 0 0 0 0 463.4V625h250v-31.2c0 -17.3 14 -31.3 31.3 -31.3h62.5c17.2 0 31.2 14 31.2 31.3V625h250v-31.2c0 -17.3 14 -31.3 31.3 -31.3h62.5c17.2 0 31.2 14 31.2 31.3V625h250V463.4c0 -16.6 -6.6 -32.5 -18.3 -44.2zM625 312.5H375v-125h250v125zm125 406.3C750 736 736 750 718.8 750h-62.5C639 750 625 736 625 718.8v-31.3H375v31.3C375 736 361 750 343.8 750h-62.5C264 750 250 736 250 718.8v-31.3H0V875c0 34.5 28 62.5 62.5 62.5h875c34.5 0 62.5 -28 62.5 -62.5V687.5H750v31.3z"/></svg>