
  <svg height="1000" width="1000.0" xmlns="http://www.w3.org/2000/svg">
    <path d="m978.7 772.9c28.3 28.3 28.3 74.4 0 102.9l-102.9 102.9c-28.3 28.5-74.4 28.5-102.9 0l-228.8-228.7c-45.1-45.1-53.7-112.5-27.1-166.8l-208.2-208.2h-121.3l-187.5-250 125-125 250 187.5v121.3l208.2 208.2c54.3-26.8 121.7-18 166.8 27.1z m-330.8-333.4c-16.1 0-32.5 1.9-48.3 5.6l-160.3-160.3c-1.4-73.3 24.8-146.7 80.4-202.4 72.3-72.2 174.2-96.9 266.8-74 17.8 4.5 24 26.6 11.2 39.5l-145.4 145.3 22.1 132.6 132.6 22 145.3-145.3c12.9-12.9 35-6.8 39.3 10.8 23 92.6-1.6 194.5-74 267-25.4 25.4-54.7 44.1-85.6 57.6l-37.9-37.9c-39-39.1-91-60.5-146.2-60.5z m-203 160.1c-9.5 41.2-5.1 83.6 9.8 122.5l-241.4 241.4c-48.8 48.8-127.9 48.8-176.8 0s-48.8-128 0-176.8l297.7-297.8z m-319.9 322.3c26 0 46.9-21.1 46.9-46.9 0-26-20.9-46.9-46.9-46.9s-46.9 20.9-46.9 46.9c0 25.8 21.1 46.9 46.9 46.9z" />
  </svg>
