<svg height="1000" width="875" xmlns="http://www.w3.org/2000/svg"><path d="M867.1 188C845.6 99.7 775.1 27.7 687.4 4.9c-62.8 -16.3 -123 10 -174.1 47.6 -6.3 4.6 -13.6 7.2 -20.5 10.7l55.3 35.5c14.5 9.3 18.8 28.7 9.4 43.2 -8.7 13.6 -27.9 19.3 -43.2 9.4L318 25.1C277.6 3.9 233.3 -7 187.5 4.9 99.8 27.7 29.3 99.7 7.8 188 -12 269.3 7 345.8 49.8 403.7c45.6 61.6 63.9 134.1 70.9 209.6 8.6 92.1 20.2 183.9 40.9 274.1l15.2 66.3c6.3 27.1 30.3 46.3 58 46.3 27.3 0 51.1 -18.7 57.7 -45.2l67.3 -270.4c8.9 -35.8 40.9 -60.8 77.7 -60.8s68.7 25.1 77.6 60.8l67.3 270.4c6.7 26.5 30.5 45.2 57.7 45.2 27.7 0 51.8 -19.2 58 -46.3l15.2 -66.3c20.7 -90.1 32.3 -182 40.9 -274.1 7.1 -75.5 25.3 -148 70.9 -209.6C868 345.8 886.9 269.3 867.1 188z"/></svg>