
  <svg height="1000" width="875.0" xmlns="http://www.w3.org/2000/svg">
    <path d="m867.1 188c19.8 81.3 0.9 157.8-42 215.7-45.6 61.6-63.8 134.1-70.9 209.6-8.6 92.2-20.2 184-40.9 274.1l-15.2 66.3c-6.2 27.1-30.3 46.3-58 46.3-27.2 0-51-18.7-57.7-45.2l-67.3-270.4c-8.9-35.7-40.9-60.8-77.6-60.8-36.8 0-68.8 25-77.7 60.8l-67.3 270.4c-6.6 26.5-30.4 45.2-57.7 45.2-27.7 0-51.7-19.2-58-46.3l-15.2-66.3c-20.7-90.2-32.3-181.9-40.9-274.1-7-75.5-25.3-148-70.9-209.6-42.8-57.9-61.8-134.4-42-215.7 21.5-88.3 92-160.3 179.7-183.1 45.8-11.9 90.1-1 130.5 20.2l196.3 126.2c15.3 9.9 34.5 4.2 43.2-9.4 9.4-14.5 5.1-33.9-9.4-43.2l-55.3-35.5c6.9-3.5 14.2-6.1 20.5-10.7 51.1-37.6 111.3-63.9 174.1-47.6 87.7 22.8 158.2 94.8 179.7 183.1z" />
  </svg>
