
  <svg height="1000" width="1250.0" xmlns="http://www.w3.org/2000/svg">
    <path d="m625.1 715.8l-34.7-57.9h69.3z m193.8-324.2l-36 60.2-36-60.2h72z m-725.1-391.6c51.7 0 93.7 28 93.7 62.5v875c0 34.5-42 62.5-93.7 62.5s-93.8-28-93.8-62.5v-875c0-34.5 42-62.5 93.8-62.5z m337.3 608.4l36-60.2 36 60.2h-72z m315.9 0l35.9-60.2 36.1 60.2h-72z m-497 297.9v-812.5h750v812.5h-750z m130.4-543.3c-3.4 6-5.4 13-5.4 20.3 0 7.7 2.1 14.9 5.9 21l57.3 95.7-57 95.4c-3.8 6.2-6 13.5-6 21.3 0 22.7 18.5 41.2 41.3 41.2h0 116.2l57.1 95.5c7.1 11.9 20.1 19.9 35 19.9h0.2c15.1 0 28.3-8.1 35.5-20.3l56.9-95.1h116.1c0 0 0 0 0 0 15.5 0 29-8.4 36.1-20.9 3.4-6 5.4-13 5.4-20.3 0-7.7-2.1-14.9-5.9-21l-57.3-95.7 57.1-95.4c3.7-6.2 5.9-13.5 5.9-21.3 0-22.7-18.5-41.2-41.3-41.2h-116.2l-57.1-95.4c-7.1-12-20.1-20-35-20h-0.1c0 0 0 0 0 0-15.2 0-28.4 8.1-35.6 20.3l-56.9 95.1h-116.1c0 0 0 0-0.1 0-15.4 0-28.9 8.4-36 20.9z m775.9-363c51.7 0 93.7 28 93.7 62.5v875c0 34.5-42 62.5-93.7 62.5s-93.8-28-93.8-62.5v-875c0-34.5 42-62.5 93.8-62.5z m-531.3 284.2l34.5 57.9h-69.2z m-122 107.5l-35.9 60.1-36-60.1h71.9z m57.8 216.8l-64.9-108.5 64.8-108.4h128.5l64.9 108.4-64.8 108.5h-128.5z" />
  </svg>
