
  <svg height="1000" width="1000.0" xmlns="http://www.w3.org/2000/svg">
    <path d="m735.3 62.5c94.9 0 185.2-22.7 264.7-62.5v187.5c0 34.5-28 62.5-62.5 62.5h-62.5v125h93.8c17.2 0 31.2 14 31.2 31.3v62.5c0 17.2-14 31.2-31.2 31.2h-93.8v468.8c0 17.2-14 31.2-31.2 31.2h-62.5c-17.3 0-31.3-14-31.3-31.2v-468.8h-500v468.8c0 17.2-14 31.2-31.2 31.2h-62.5c-17.3 0-31.3-14-31.3-31.2v-468.8h-93.7c-17.3 0-31.3-14-31.3-31.2v-62.5c0-17.3 14-31.3 31.3-31.3h93.7v-125h-62.5c-34.5 0-62.5-28-62.5-62.5v-187.5c79.5 39.8 169.8 62.5 264.7 62.5h470.6z m-485.3 187.5v125h187.5v-125h-187.5z m500 125v-125h-187.5v125h187.5z" />
  </svg>
