
  <svg height="1000" width="1250.0" xmlns="http://www.w3.org/2000/svg">
    <path d="m1031.3 656.3c94.9 0 171.8 76.9 171.8 171.8s-76.9 171.9-171.8 171.9-171.9-77-171.9-171.9 76.9-171.8 171.9-171.8z m0 218.7c25.8 0 46.8-21 46.8-46.9s-21-46.8-46.8-46.8-46.9 21-46.9 46.8 21 46.9 46.9 46.9z m156.2-562.5c34.5 0 62.5 28 62.5 62.5v99.1c0 16.6-6.6 32.5-18.3 44.2l-99.3 99.3c-30.7-14.8-64.7-23.8-101.2-23.8-76.4 0-143.6 37.1-186.4 93.7h-157.3v11.7c0 23.8-19.2 43-43 43h-14c-5.7 19.3-13.5 38-23.2 56.1l9.9 9.9c16.7 16.8 16.7 44 0 60.7l-60.8 60.8c-16.8 16.8-44 16.8-60.8 0l-9.8-9.9c-18.1 9.8-36.8 17.5-56.1 23.3v13.9c0 23.8-19.3 43-43 43h-85.9c-23.8 0-43-19.2-43-43v-13.9c-19.3-5.8-38-13.5-56.1-23.3l-9.9 9.9c-16.8 16.8-44 16.8-60.7 0l-60.8-60.8c-16.8-16.8-16.8-44 0-60.7l9.9-9.9c-9.8-18.1-17.5-36.8-23.3-56.1h-13.9c-23.8 0-43-19.3-43-43v-85.9c0-23.8 19.2-43 43-43h13.9c5.8-19.3 13.5-38 23.3-56.1l-9.9-9.9c-16.8-16.8-16.8-44 0-60.7l60.8-60.8c15.5-15.5 39.5-16 56.4-2.9v-286.2c0-51.6 42.1-93.7 93.7-93.7h260.7c0 0 0-0.1 0-0.1 38.7 0 71.9 23.5 86.2 57l109.5 255.6h199.9v-78.5c0-58.6 20.7-115.1 57.6-159.6 12.5-15.1 35.3-16.1 48.3-1.6l42.2 47.3c9.5 10.6 11.2 26.7 2.6 38-16.5 21.7-25.7 48.3-25.7 75.9v78.5h125z m-843.7 500c86.2 0 156.2-70 156.2-156.2s-70-156.3-156.2-156.3-156.3 70-156.3 156.3 70 156.2 156.3 156.2z m42.9-500h214.9l-80.3-187.5h-208.8v187.5h74.2z" />
  </svg>
