
  <svg height="1000" width="1250.0" xmlns="http://www.w3.org/2000/svg">
    <path d="m509 187.5c12.9 0 23.4 10.5 23.2 23.4v84.2c0 12.9-10.5 23.5-23.4 23.5h-166.2v470.5c0 12.9-10.6 23.4-23.5 23.4h-106c-12.9 0-23.5-10.5-23.5-23.4v-470.5h-166.2c-12.9 0-23.4-10.6-23.4-23.5v-84.2c0-12.9 10.5-23.4 23.4-23.4h485.6z m741 599.6c1 13.7-9.8 25.4-23.4 25.4h-105.3c-12.3 0-22.7-9.6-23.4-21.9l-17.8-259.5c-3.5-47.3 0-104.9 0-104.9h-1.8s-20.9 65.6-34.9 104.9l-60 165.4c-3.3 9.2-12.1 15.4-22.1 15.4h-98.2c-10 0-18.8-6.2-22.1-15.4l-59.9-165.4c-14.1-39.3-35-104.9-35-104.9h-1.8s3.6 57.6 0 104.9l-17.7 259.5c-1 12.3-11.2 21.9-23.5 21.9h-106.4c-13.9 0-24.6-11.7-23.5-25.4l47.7-578.1c1.2-12.1 11.3-21.5 23.4-21.5h127.8c9.9 0 18.7 6.4 22 15.8l85.6 248.3c14 40.2 31.4 103.1 31.4 103.1h1.8s17.4-62.9 31.4-103.1l85.6-248.3c3.1-9.4 12.1-15.8 22.1-15.8h127.7c12.3 0 22.4 9.4 23.4 21.5z" />
  </svg>
