<svg height="1000" width="1250" xmlns="http://www.w3.org/2000/svg"><path d="M189.7 318.6H23.4C10.5 318.6 0 308.1 0 295.2v-84.3C0 198 10.5 187.5 23.4 187.5h485.5c12.9 0 23.4 10.5 23.4 23.4v84.3c0 12.9 -10.5 23.4 -23.4 23.4H342.7v470.5c0 12.9 -10.5 23.4 -23.5 23.4H213.1c-12.9 0 -23.4 -10.5 -23.4 -23.4V318.6zM644.2 187.5H772a23.4 -23.4 0 0 0 22.1 15.8l85.5 248.2c14 40.2 31.5 103.1 31.5 103.1h1.7s17.5 -62.9 31.5 -103.1l85.4 -248.2a23.4 -23.4 0 0 0 22.2 -15.8h127.8A23.4 -23.4 0 0 0 1203 209l46.9 578.2c1.1 13.6 -9.6 25.3 -23.3 25.3h-105.7a23.4 -23.4 0 0 0 -23.4 -21.8L1079.8 531c-3.5 -47.2 0 -104.9 0 -104.9h-1.8s-21 65.6 -34.9 104.9l-60 165.5a23.4 -23.4 0 0 0 -22 15.5h-98.3a23.4 -23.4 0 0 0 -22 -15.5L780.8 531c-14 -39.3 -34.9 -104.9 -34.9 -104.9h-1.8s3.5 57.7 0 104.9l-17.7 259.7c-.9 12.3 -11.1 21.8 -23.4 21.8H596.5c-13.7 0 -24.5 -11.7 -23.4 -25.4L620.8 209a23.4 -23.4 0 0 0 23.4 -21.5z"/></svg>