<svg height="1000" width="750" xmlns="http://www.w3.org/2000/svg"><path d="M750 375H625v-74c72.7 -25.8 125 -94.5 125 -176H625V62.5C625 28 597 0 562.5 0h-375C153 0 125 28 125 62.5V125H0c0 81.5 52.3 150.2 125 176v74H0c0 81.5 52.3 150.2 125 176v74H0c0 83.7 55.2 153.7 130.8 177.8C155.1 915.5 255.1 1000 375 1000S594.9 915.5 619.2 802.8C694.8 778.7 750 708.7 750 625H625v-74c72.7 -25.8 125 -94.5 125 -176zM375 812.5c-51.8 0 -93.7 -42 -93.7 -93.7S323.2 625 375 625s93.8 42 93.8 93.8 -42 93.7 -93.8 93.7zm0 -250c-51.8 0 -93.7 -42 -93.7 -93.7S323.2 375 375 375s93.8 42 93.8 93.8 -42 93.7 -93.8 93.7zm0 -250c-51.8 0 -93.7 -42 -93.7 -93.7S323.2 125 375 125s93.8 42 93.8 93.8 -42 93.7 -93.8 93.7z"/></svg>