
  <svg height="1000" width="750.0" xmlns="http://www.w3.org/2000/svg">
    <path d="m750 375c0 81.5-52.3 150.2-125 176v74h125c0 83.7-55.2 153.7-130.8 177.8-24.3 112.7-124.3 197.2-244.2 197.2s-219.9-84.5-244.2-197.2c-75.6-24.1-130.8-94.1-130.8-177.8h125v-74c-72.7-25.8-125-94.5-125-176h125v-74c-72.7-25.8-125-94.5-125-176h125v-62.5c0-34.5 28-62.5 62.5-62.5h375c34.5 0 62.5 28 62.5 62.5v62.5h125c0 81.5-52.3 150.2-125 176v74h125z m-375 437.5c51.8 0 93.8-42 93.8-93.7s-42-93.8-93.8-93.8-93.7 42-93.7 93.8 41.9 93.7 93.7 93.7z m0-250c51.8 0 93.8-42 93.8-93.7s-42-93.8-93.8-93.8-93.7 42-93.7 93.8 41.9 93.7 93.7 93.7z m0-250c51.8 0 93.8-42 93.8-93.7s-42-93.8-93.8-93.8-93.7 42-93.7 93.8 41.9 93.7 93.7 93.7z" />
  </svg>
