
  <svg height="1000" width="1250.0" xmlns="http://www.w3.org/2000/svg">
    <path d="m1218.8 625c17.2 0 31.2 14 31.2 31.3v62.5c0 17.2-14 31.2-31.2 31.2h-659.4c-15.3-105.9-105.5-187.5-215.6-187.5s-200.4 81.6-215.7 187.5h-96.9c-17.2 0-31.2-14-31.2-31.2v-562.5c0-17.3 14-31.3 31.2-31.3h1000c17.3 0 31.3 14 31.3 31.3v468.7h156.2z m-1031.3-149.1v-210.3c0-8.6-7-15.6-15.6-15.6h-31.3c-8.6 0-15.6 7-15.6 15.6v250.8c19.3-15.7 40.1-29.2 62.5-40.5z m187.5-36.2v-174.1c0-8.6-7-15.6-15.6-15.6h-31.3c-8.6 0-15.6 7-15.6 15.6v174.1c10.4-0.9 20.6-2.2 31.3-2.2s20.8 1.3 31.2 2.2z m187.5 76.7v-250.8c0-8.6-7-15.6-15.6-15.6h-31.3c-8.6 0-15.6 7-15.6 15.6v210.3c22.4 11.3 43.2 24.8 62.5 40.5z m187.5 108.6v-359.4c0-8.6-7-15.6-15.6-15.6h-31.3c-8.6 0-15.6 7-15.6 15.6v359.4h62.5z m187.5 0v-359.4c0-8.6-7-15.6-15.6-15.6h-31.3c-8.6 0-15.6 7-15.6 15.6v359.4h62.5z m-593.7 0c86.2 0 156.2 70 156.2 156.3s-70 156.2-156.2 156.2-156.3-70-156.3-156.2 70-156.3 156.3-156.3z m0 218.8c34.4 0 62.5-28.1 62.5-62.5s-28.1-62.5-62.5-62.5-62.5 28-62.5 62.5 28 62.5 62.5 62.5z" />
  </svg>
