
  <svg height="1000" width="875.0" xmlns="http://www.w3.org/2000/svg">
    <path d="m875 187.5v500c0 101.2-120.4 187.5-253.9 187.5l123 97.1c11.6 9.2 5 27.9-9.7 27.9h-593.8c-14.8 0-21.2-18.7-9.7-27.9l123.1-97.1c-133.3 0-254-86-254-187.5v-500c0-103.6 125-187.5 250-187.5h375c127 0 250 83.9 250 187.5z m-93.7 265.6v-218.7c0-25.9-21-46.9-46.9-46.9h-593.8c-25.9 0-46.8 21-46.8 46.9v218.7c0 25.9 20.9 46.9 46.8 46.9h593.8c25.9 0 46.9-21 46.9-46.9z m-343.8 125c-60.4 0-109.4 49-109.4 109.4s49 109.4 109.4 109.4 109.4-49 109.4-109.4-49-109.4-109.4-109.4z" />
  </svg>
