
  <svg height="1000" width="1000.0" xmlns="http://www.w3.org/2000/svg">
    <path d="m562.5 125c-34.6 0-62.5-27.9-62.5-62.5s27.9-62.5 62.5-62.5 62.5 27.9 62.5 62.5-27.9 62.5-62.5 62.5z m436.5-23.6c4.3 16.6-5.4 33.8-22.2 38.2l-445.6 118.8v179.1h343.8c34.6 0 62.5 27.9 62.5 62.5v437.5c0 34.6-27.9 62.5-62.5 62.5h-750c-34.6 0-62.5-27.9-62.5-62.5v-437.5c0-34.6 27.9-62.5 62.5-62.5h343.7v-162.5l-429.4 114.6c-2.6 0.6-5.3 1-8.1 1-13.8 0-26.3-9.2-30-23-4.5-16.8 5.4-33.8 22-38.3l937.5-250c16.8-4.5 33.8 5.3 38.3 22.1z m-655.2 648.6v-187.5h-187.5v187.5h187.5z m312.5-187.5v187.5h187.5v-187.5h-187.5z m-62.5 0h-187.5v187.5h187.5v-187.5z m-218.8-375c-34.6 0-62.5-27.9-62.5-62.5s27.9-62.5 62.5-62.5 62.5 27.9 62.5 62.5-27.9 62.5-62.5 62.5z" />
  </svg>
