
  <svg height="1000" width="937.5" xmlns="http://www.w3.org/2000/svg">
    <path d="m914.1 0c12.9 0 23.4 10.5 23.4 23.4v154.3c0 20.9-25.2 31.5-40 16.6l-33-33-157.7 157.6c27.4 43.4 43.2 94.8 43.2 149.9 0 133.7-93.6 245.7-218.8 274.2v53.9h70.4c12.9 0 23.4 10.5 23.4 23.4v78.1c0 12.9-10.5 23.5-23.4 23.5h-70.4v54.7c0 12.9-10.5 23.4-23.4 23.4h-78.1c-12.9 0-23.5-10.5-23.5-23.4v-54.7h-70.3c-12.9 0-23.4-10.6-23.4-23.5v-78.1c0-12.9 10.5-23.4 23.4-23.4h70.3v-53.9c-125.1-28.4-218.7-140.5-218.7-274.2 0-55.1 15.8-106.5 43.4-149.7l-32.3-32.2-38.6 38.7c-9.2 9.2-24.1 9.2-33.2 0l-55.3-55.3c-9.2-9.2-9.2-24 0-33.2l38.7-38.7-37.2-37.1-33 33c-14.8 14.7-40 4.3-40-16.6v-154.3c0-12.9 10.5-23.4 23.4-23.4h154.3c20.9 0 31.5 25.2 16.4 39.8l-33 33.1 37.1 37.1 38.7-38.7c9.2-9.2 24-9.2 33.2 0l55.3 55.3c9.2 9.1 9.2 24 0 33.2l-38.7 38.6 32.2 32.3c43.4-27.4 94.8-43.2 149.8-43.2s106.5 15.8 149.9 43.2l157.6-157.7-33-33c-14.7-14.8-4.3-40 16.6-40h154.3z m-445.3 625c86.1 0 156.2-70.1 156.2-156.2s-70.1-156.3-156.2-156.3-156.3 70.1-156.3 156.3 70.1 156.2 156.3 156.2z" />
  </svg>
