
  <svg height="1000" width="750.0" xmlns="http://www.w3.org/2000/svg">
    <path d="m726.6 0c12.9 0 23.4 10.5 23.4 23.4v154.3c0 20.9-25.2 31.5-40 16.6l-33-33-157.7 157.6c27.4 43.4 43.2 94.8 43.2 149.9 0 133.7-93.6 245.7-218.8 274.2v53.9h70.4c12.9 0 23.4 10.5 23.4 23.4v78.1c0 12.9-10.5 23.5-23.4 23.5h-70.4v54.7c0 12.9-10.5 23.4-23.4 23.4h-78.1c-12.9 0-23.5-10.5-23.5-23.4v-54.7h-70.3c-12.9 0-23.4-10.6-23.4-23.5v-78.1c0-12.9 10.5-23.4 23.4-23.4h70.3v-53.9c-125.1-28.4-218.7-140.5-218.7-274.2 0-155.3 126-281.3 281.2-281.3 55.1 0 106.5 15.8 149.9 43.2l157.6-157.7-33-33c-14.7-14.8-4.3-40 16.6-40h154.3z m-445.3 625c86.1 0 156.2-70.1 156.2-156.2s-70.1-156.3-156.2-156.3-156.3 70.1-156.3 156.3 70.1 156.2 156.3 156.2z" />
  </svg>
