<svg height="1000" width="750" xmlns="http://www.w3.org/2000/svg"><path d="M726.6 0H572.3C551.4 0 541 25.2 555.7 40l33 33L431.1 230.7C387.7 203.3 336.3 187.5 281.3 187.5 126 187.5 0 313.5 0 468.8 0 602.5 93.6 714.6 218.8 743v53.9h-70.4c-12.9 0 -23.4 10.5 -23.4 23.4v78.1c0 12.9 10.5 23.5 23.4 23.5h70.4v54.7c0 12.9 10.5 23.4 23.4 23.4h78.1c12.9 0 23.5 -10.5 23.5 -23.4v-54.7h70.3c12.9 0 23.4 -10.6 23.4 -23.5v-78.1c0 -12.9 -10.5 -23.4 -23.4 -23.4h-70.3V743C468.9 714.5 562.5 602.5 562.5 468.8c0 -55.1 -15.8 -106.5 -43.2 -149.9L677 161.3l33 33c14.8 14.9 40 4.3 40 -16.6V23.4C750 10.5 739.5 0 726.6 0zM281.3 625C195.1 625 125 554.9 125 468.8S195.1 312.5 281.3 312.5s156.2 70.1 156.2 156.3S367.4 625 281.3 625z"/></svg>