<svg height="1000" width="937.5" xmlns="http://www.w3.org/2000/svg"><path d="M914.1 0H759.8c-20.9 0 -31.3 25.2 -16.6 40l33 33L618.6 230.7C575.2 203.3 523.8 187.5 468.8 187.5c-55.1 0 -106.5 15.8 -149.9 43.2l-32.2 -32.3 38.7 -38.6c9.2 -9.2 9.2 -24.1 0 -33.2L270.1 71.3c-9.2 -9.2 -24 -9.2 -33.2 0L198.2 110 161.1 72.9l33 -33.1C209.2 25.2 198.6 0 177.7 0H23.4C10.5 0 0 10.5 0 23.4v154.3c0 20.9 25.2 31.3 40 16.6l33 -33 37.2 37.1 -38.7 38.7c-9.2 9.2 -9.2 24 0 33.2l55.3 55.3c9.1 9.2 24 9.2 33.2 0l38.6 -38.7 32.3 32.2c-27.6 43.2 -43.4 94.6 -43.4 149.7 0 133.7 93.6 245.8 218.8 274.2v53.9h-70.4c-12.9 0 -23.4 10.5 -23.4 23.4v78.1c0 12.9 10.5 23.5 23.4 23.5h70.4v54.7c0 12.9 10.5 23.4 23.4 23.4h78.1c12.9 0 23.5 -10.5 23.5 -23.4v-54.7h70.3c12.9 0 23.4 -10.6 23.4 -23.5v-78.1c0 -12.9 -10.5 -23.4 -23.4 -23.4h-70.3V743C656.4 714.5 750 602.5 750 468.8c0 -55.1 -15.8 -106.5 -43.2 -149.9L864.5 161.3l33 33c14.8 14.9 40 4.3 40 -16.6V23.4C937.5 10.5 927 0 914.1 0zM468.8 625C382.6 625 312.5 554.9 312.5 468.8S382.6 312.5 468.8 312.5 625 382.6 625 468.8 554.9 625 468.8 625z"/></svg>