<svg height="1000" width="875" xmlns="http://www.w3.org/2000/svg"><path d="M0 164.1v-54.7C0 83.4 20.9 62.5 46.9 62.5h218.7L284 26C291.8 10 308 0 325.8 0H549c17.8 0 34 10 42 26l18.4 36.5h218.7c26 0 46.9 20.9 46.9 46.9v54.7c0 12.9 -10.5 23.4 -23.4 23.4H23.4C10.5 187.5 0 177 0 164.1zm812.5 109.3v632.9c0 51.7 -42 93.7 -93.7 93.7H156.3c-51.8 0 -93.8 -42 -93.8 -93.7V273.4C62.5 260.5 73 250 85.9 250h703.2c12.9 0 23.4 10.5 23.4 23.4zM281.3 406.3C281.3 389.1 267.2 375 250 375s-31.2 14.1 -31.2 31.3v437.5c0 17.1 14 31.2 31.2 31.2s31.3 -14.1 31.3 -31.2V406.3zm187.5 0c0 -17.2 -14.1 -31.3 -31.3 -31.3s-31.2 14.1 -31.2 31.3v437.5c0 17.1 14 31.2 31.2 31.2s31.3 -14.1 31.3 -31.2V406.3zm187.5 0C656.3 389.1 642.2 375 625 375s-31.2 14.1 -31.2 31.3v437.5c0 17.1 14 31.2 31.2 31.2s31.3 -14.1 31.3 -31.2V406.3z"/></svg>