
  <svg height="1000" width="875.0" xmlns="http://www.w3.org/2000/svg">
    <path d="m62.5 906.3v-656.3h750v656.3c0 51.7-42 93.7-93.7 93.7h-562.5c-51.8 0-93.8-42-93.8-93.7z m178.3-337.5c-19.6 20.7-5.7 56.2 22.1 56.2h112.1v218.7c0 17.3 14 31.3 31.3 31.3h62.5c17.2 0 31.2-14 31.2-31.3v-218.7h112.1c27.8 0 41.7-35.5 22.1-56.2l-174.6-184.2c-5.5-5.9-13.4-9.6-22.1-9.6s-16.6 3.7-22.1 9.6z m603-506.3c17.2 0 31.2 14 31.2 31.3v62.5c0 17.2-14 31.2-31.2 31.2h-812.5c-17.3 0-31.3-14-31.3-31.2v-62.5c0-17.3 14-31.3 31.3-31.3h234.3l18.4-36.5c7.5-15.4 23.3-26 41.6-26h0.2 223.2c0 0 0 0 0 0 18.4 0 34.3 10.6 42 26l18.4 36.5h234.4z" />
  </svg>
