
  <svg height="1000" width="750.0" xmlns="http://www.w3.org/2000/svg">
    <path d="m738.9 739.2c11.7 13.3 14.4 31.5 6.9 47.4-7.3 15.7-23.4 25.9-41 25.9h-267.3v47.8l59.2 94.5c10.4 20.8-4.8 45.2-28 45.2h-187.4c-23.2 0-38.4-24.4-28-45.2l59.2-94.5v-47.8h-267.3c-17.6 0-33.7-10.2-41-25.9-7.5-15.9-4.8-34.1 6.9-47.4l156.1-176.7h-59.9c-17.6 0-33.1-9.8-40.6-25.5-7.4-15.7-4.9-33.7 6.4-46.9l152.6-177.6h-56.4c-17.8 0-33.8-10.4-40.7-26.6-6.9-15.9-3.7-34.3 8.2-47l215.4-229.5c11.8-12.6 33.8-12.6 45.6 0l215.3 229.5c12 12.7 15.2 31.1 8.3 47-6.9 16.2-22.9 26.6-40.7 26.6h-56.4l152.6 177.5c11.3 13.3 13.8 31.3 6.4 47-7.5 15.7-23 25.5-40.6 25.5h-59.8z" />
  </svg>
