<svg height="1000" width="750" xmlns="http://www.w3.org/2000/svg"><path d="M737 733.3L574 562.5h66.6c41.1 0 62.3 -49.2 34.1 -79.1L513.3 312.5h64.8c40.8 0 62.2 -48.8 34.4 -78.8L409.3 15C390.8 -5 359.2 -5 340.7 15L137.5 233.7c-27.7 29.9 -6.6 78.8 34.4 78.8h64.8L75.3 483.4c-28.2 29.9 -7 79.1 34.1 79.1H176L13 733.3c-28.4 29.7 -7.3 79.2 33.9 79.2h234.4c0 64 -21.9 96.2 -66.4 131.8 -23.1 18.5 -10 55.7 19.5 55.7h281.2c29.5 0 42.6 -37.2 19.5 -55.7C496.5 913.5 468.8 882.5 468.8 812.5h234.3c41.1 0 62.3 -49.4 33.9 -79.2z"/></svg>