<svg height="1000" width="1250" xmlns="http://www.w3.org/2000/svg"><path d="M98 733.6c4.5 16.6 21.7 26.6 38.3 22.1L559 642.4c16.6 -4.5 26.5 -21.7 22.1 -38.3L484 241.8c-4.5 -16.6 -21.7 -26.6 -38.3 -22.1l-150.8 40.7 48.5 181 -120.7 32.2 -48.5 -181L23.2 333c-16.6 4.5 -26.5 21.7 -22 38.3L98 733.6zM750 0c-34.6 0 -62.5 27.9 -62.5 62.5v632l-676 184.4C3.1 881.3 -1.8 889.8 .6 898l24.6 90.5c2.3 8.4 10.9 13.3 19.1 10.9l769 -209.8c4.7 116.8 100 210.4 218 210.4 120.8 0 218.7 -97.9 218.7 -218.7V0H750zm281.3 875c-51.8 0 -93.8 -42 -93.8 -93.7s42 -93.8 93.8 -93.8 93.7 42 93.7 93.8 -42 93.7 -93.7 93.7z"/></svg>