
  <svg height="1000" width="1250.0" xmlns="http://www.w3.org/2000/svg">
    <path d="m98 733.6l-96.8-362.3c-4.5-16.6 5.4-33.8 22-38.3l151-40.4 48.5 181 120.7-32.2-48.5-181 150.8-40.7c16.6-4.5 33.8 5.5 38.3 22.1l97.1 362.3c4.4 16.6-5.5 33.8-22.1 38.3l-422.7 113.3c-16.6 4.5-33.8-5.5-38.3-22.1z m652-733.6h500v781.3c0 120.8-97.9 218.7-218.7 218.7-118 0-213.3-93.6-218-210.4l-769 209.8c-8.2 2.4-16.8-2.5-19.1-10.9l-24.6-90.5c-2.4-8.2 2.5-16.7 10.9-19.1l676-184.4v-632c0-34.6 27.9-62.5 62.5-62.5z m281.3 875c51.7 0 93.7-42 93.7-93.7s-42-93.8-93.7-93.8-93.8 42-93.8 93.8 42 93.7 93.8 93.7z" />
  </svg>
