
  <svg height="1000" width="1250.0" xmlns="http://www.w3.org/2000/svg">
    <path d="m1218.8 687.5c17.1 0 31.2 14.1 31.2 31.3v62.5c0 17.1-14.1 31.2-31.2 31.2h-93.8c0 103.5-84 187.5-187.5 187.5s-187.5-84-187.5-187.5h-250c0 103.5-84 187.5-187.5 187.5s-187.5-84-187.5-187.5h-31.2c-51.8 0-93.8-42-93.8-93.7v-625c0-51.8 42-93.8 93.8-93.8h625c51.7 0 93.7 42 93.7 93.8v93.7h86.1c24.8 0 48.7 10 66.2 27.5l195.2 195.2c17.5 17.5 27.5 41.4 27.5 66.2v211.1h31.3z m-906.3 218.8c51.8 0 93.8-42 93.8-93.8s-42-93.7-93.8-93.7-93.7 41.9-93.7 93.7 41.9 93.8 93.7 93.8z m625 0c51.8 0 93.8-42 93.8-93.8s-42-93.7-93.8-93.7-93.7 41.9-93.7 93.7 41.9 93.8 93.7 93.8z m156.3-406.3v-23.6l-195.2-195.1h-86.1v218.7h281.3z" />
  </svg>
