<svg height="1000" width="1250" xmlns="http://www.w3.org/2000/svg"><path d="M1213.5 463.5L1099.2 349.2c-23.4 -23.4 -55.3 -36.5 -88.5 -36.5h-73.2V125C937.5 90.4 909.6 62.5 875 62.5H62.5C27.9 62.5 0 90.4 0 125v656.3c0 86.3 69.9 156.2 156.3 156.2 51.3 0 96.4 -25.2 125 -63.3 28.5 38.3 73.6 63.3 125 63.3 86.3 0 156.2 -69.9 156.2 -156.2 0 -10.8 -1.2 -21.1 -3.1 -31.3h318.7c-2.1 10.2 -3.1 20.5 -3.1 31.3 0 86.3 69.9 156.2 156.3 156.2s156.2 -69.9 156.2 -156.2c0 -10.8 -1.2 -21.1 -3.1 -31.3h34.4c17.1 0 31.2 -14.1 31.2 -31.2v-167c0 -33.2 -13.1 -64.9 -36.5 -88.3zM156.3 843.8c-34.4 0 -62.5 -28.2 -62.5 -62.5s28.1 -62.5 62.5 -62.5 62.5 28.1 62.5 62.5 -28.2 62.5 -62.5 62.5zm250 0c-34.4 0 -62.5 -28.2 -62.5 -62.5s28.1 -62.5 62.5 -62.5 62.5 28.1 62.5 62.5 -28.2 62.5 -62.5 62.5zM937.5 406.3h73.2c8.4 0 16.3 3.3 22.1 9.1l84.6 84.6H937.5v-93.7zm93.8 437.5c-34.4 0 -62.5 -28.2 -62.5 -62.5s28.1 -62.5 62.5 -62.5 62.5 28.1 62.5 62.5 -28.2 62.5 -62.5 62.5z"/></svg>