
  <svg height="1000" width="1250.0" xmlns="http://www.w3.org/2000/svg">
    <path d="m1218.8 562.5c17.2 0 31.2 14 31.2 31.3v62.5c0 17.2-14 31.2-31.2 31.2h-96.9c1.5 10.3 3.1 20.5 3.1 31.3 0 120.8-97.9 218.7-218.7 218.7-120.9 0-218.8-97.9-218.8-218.7 0-10.8 1.7-21 3.2-31.3h-131.3c1.4 10.3 3.1 20.5 3.1 31.3 0 120.8-97.9 218.7-218.8 218.7s-218.7-97.9-218.7-218.7c0-10.8 1.7-21 3.1-31.3h-96.9c-17.2 0-31.2-14-31.2-31.2v-62.5c0-17.3 14-31.3 31.2-31.3h31.3v-125c0-34.5 28-62.5 62.5-62.5h312.5v-250c0-34.5 28-62.5 62.5-62.5h221.2c39.5 0 74.7 18.3 97.6 46.9l212.4 265.6h93.8c34.5 0 62.5 28 62.5 62.5v125h31.2z m-656.3-375v187.5h308.7l-150-187.5h-158.7z m-218.7 625c51.6 0 93.7-42.1 93.7-93.7s-42.1-93.8-93.7-93.8-93.8 42.1-93.8 93.8 42.1 93.7 93.8 93.7z m562.5 0c51.6 0 93.7-42.1 93.7-93.7s-42.1-93.8-93.7-93.8-93.8 42.1-93.8 93.8 42.1 93.7 93.8 93.7z" />
  </svg>
