<svg height="1000" width="1250" xmlns="http://www.w3.org/2000/svg"><path d="M1218.8 437.5h-31.3v-125c0 -34.5 -28 -62.5 -62.5 -62.5H981.3L818.8 46.9A125 -125 0 0 1 721.2 0H500c-34.5 0 -62.5 28 -62.5 62.5V250H93.8c-17.3 0 -31.3 14 -31.3 31.3v156.2H31.3C14 437.5 0 451.5 0 468.8v62.5c0 17.2 14 31.2 31.3 31.2h32.6C121 487 210.6 437.5 312.5 437.5S504 487 561.1 562.5h127.8C746 487 835.6 437.5 937.5 437.5s191.6 49.5 248.6 125h32.7c17.2 0 31.2 -14 31.2 -31.2v-62.5c0 -17.3 -14 -31.3 -31.2 -31.3zM562.5 250V125h158.7l100 125H562.5zm593.8 437.5h-10.2c-4.3 -14.3 -9.9 -27.9 -16.9 -40.8l7.2 -7.2c12.2 -12.2 12.2 -32 0 -44.2l-44.2 -44.2c-12.2 -12.2 -32 -12.2 -44.2 0l-7.2 7.2A216.5 -216.5 0 0 1 1000 541.4v-10.1C1000 514 986 500 968.8 500h-62.5C889 500 875 514 875 531.3v10.1c-14.3 4.3 -27.9 9.9 -40.8 16.9l-7.2 -7.2c-12.2 -12.2 -32 -12.2 -44.2 0l-44.2 44.2c-12.2 12.2 -12.2 32 0 44.2l7.2 7.2a216.5 -216.5 0 0 1 -16.9 40.8h-10.1c-17.3 0 -31.3 14 -31.3 31.3v62.5c0 17.2 14 31.2 31.3 31.2h10.1c4.3 14.3 9.9 27.9 16.9 40.8l-7.2 7.2c-12.2 12.2 -12.2 32 0 44.2l44.2 44.2c12.2 12.2 32 12.2 44.2 0l7.2 -7.2c12.9 7 26.5 12.6 40.8 16.9v10.1c0 17.3 14 31.3 31.3 31.3h62.5c17.2 0 31.2 -14 31.2 -31.3v-10.1c14.3 -4.3 27.9 -9.9 40.8 -16.9l7.2 7.2c12.2 12.2 32 12.2 44.2 0l44.2 -44.2c12.2 -12.2 12.2 -32 0 -44.2l-7.2 -7.2a216.5 -216.5 0 0 1 16.9 -40.8h10.2c17.3 0 31.2 -14 31.2 -31.2v-62.5c0 -17.3 -14 -31.3 -31.2 -31.3zM937.5 843.8c-51.8 0 -93.7 -42 -93.7 -93.8s41.9 -93.7 93.7 -93.7 93.8 41.9 93.8 93.7 -42 93.8 -93.8 93.8zM531.3 687.5h-10.2c-4.3 -14.3 -9.9 -27.9 -16.9 -40.8l7.2 -7.2c12.2 -12.2 12.2 -32 0 -44.2l-44.2 -44.2c-12.2 -12.2 -32 -12.2 -44.2 0l-7.2 7.2A216.5 -216.5 0 0 1 375 541.4v-10.1C375 514 361 500 343.8 500h-62.5C264 500 250 514 250 531.3v10.1c-14.3 4.3 -27.9 9.9 -40.8 16.9l-7.2 -7.2c-12.2 -12.2 -32 -12.2 -44.2 0l-44.2 44.2c-12.2 12.2 -12.2 32 0 44.2l7.2 7.2a216.5 -216.5 0 0 1 -16.9 40.8H93.8c-17.3 0 -31.3 14 -31.3 31.2v62.5c0 17.3 14 31.3 31.3 31.3h10.1c4.3 14.3 9.9 27.9 16.9 40.8l-7.2 7.1c-12.2 12.3 -12.2 32 0 44.2l44.2 44.2c12.2 12.3 32 12.3 44.2 0l7.2 -7.1c12.9 7 26.5 12.6 40.8 16.9v10.1c0 17.3 14 31.3 31.3 31.3h62.5c17.2 0 31.2 -14 31.2 -31.3v-10.1c14.3 -4.3 27.9 -9.9 40.8 -16.9l7.2 7.1c12.2 12.3 32 12.3 44.2 0l44.2 -44.2c12.2 -12.2 12.2 -31.9 0 -44.2l-7.2 -7.1a216.5 -216.5 0 0 1 16.9 -40.8h10.2c17.3 0 31.2 -14 31.2 -31.3v-62.5c0 -17.2 -14 -31.2 -31.2 -31.2zM312.5 843.8c-51.8 0 -93.7 -42 -93.7 -93.8s41.9 -93.7 93.7 -93.7 93.8 41.9 93.8 93.7 -42 93.8 -93.8 93.8z"/></svg>