<svg height="1000" width="1250" xmlns="http://www.w3.org/2000/svg"><path d="M1218.8 562.5h-31.3v-125c0 -34.5 -28 -62.5 -62.5 -62.5h-93.7L818.8 109.4A125 -125 0 0 1 721.2 62.5H500c-34.5 0 -62.5 28 -62.5 62.5v250H125c-34.5 0 -62.5 28 -62.5 62.5v125H31.3C14 562.5 0 576.5 0 593.8v62.5c0 17.2 14 31.2 31.3 31.2h96.8c-1.4 10.3 -3.1 20.5 -3.1 31.3 0 120.8 97.9 218.7 218.8 218.7S562.5 839.6 562.5 718.8c0 -10.8 -1.7 -21 -3.1 -31.3h131.3c-1.5 10.3 -3.2 20.5 -3.2 31.3 0 120.8 97.9 218.7 218.8 218.7S1125 839.6 1125 718.8c0 -10.8 -1.6 -21 -3.1 -31.3h96.9c17.2 0 31.2 -14 31.2 -31.2v-62.5c0 -17.3 -14 -31.3 -31.2 -31.3zm-656.3 -375h158.7l150 187.5H562.5V187.5zm-218.7 625c-51.7 0 -93.8 -42.1 -93.8 -93.7S292.1 625 343.8 625s93.7 42.1 93.7 93.8 -42.1 93.7 -93.7 93.7zm562.5 0c-51.7 0 -93.8 -42.1 -93.8 -93.7S854.6 625 906.3 625s93.7 42.1 93.7 93.8 -42.1 93.7 -93.7 93.7z"/></svg>