
  <svg height="1000" width="1250.0" xmlns="http://www.w3.org/2000/svg">
    <path d="m1218.8 437.5c17.2 0 31.2 14 31.2 31.3v62.5c0 17.2-14 31.2-31.2 31.2h-32.7c-57-75.5-146.7-125-248.6-125-101.9 0-191.5 49.5-248.6 125h-127.8c-57.1-75.5-146.7-125-248.6-125s-191.5 49.5-248.6 125h-32.6c-17.3 0-31.3-14-31.3-31.2v-62.5c0-17.3 14-31.3 31.3-31.3h31.2v-156.2c0-17.3 14-31.3 31.3-31.3h343.7v-187.5c0-34.5 28-62.5 62.5-62.5h221.2c39.5 0 74.7 18.3 97.6 46.9l162.5 203.1h143.7c34.5 0 62.5 28 62.5 62.5v125h31.3z m-656.3-187.5h258.7l-100-125h-158.7v125z m593.8 437.5c17.2 0 31.2 14 31.2 31.3v62.5c0 17.2-13.9 31.2-31.2 31.2h-10.2c-4.2 14.2-10 28-16.9 40.8l7.2 7.2c12.2 12.2 12.2 32 0 44.2l-44.2 44.2c-12.2 12.2-32 12.2-44.2 0l-7.2-7.2c-12.9 7-26.5 12.6-40.8 16.9v10.2c0 17.2-14 31.2-31.2 31.2h-62.5c-17.3 0-31.3-14-31.3-31.2v-10.2c-14.3-4.3-27.9-9.9-40.8-16.9l-7.2 7.2c-12.2 12.2-32 12.2-44.2 0l-44.2-44.2c-12.2-12.2-12.2-32 0-44.2l7.2-7.2c-7-12.9-12.6-26.5-16.9-40.8h-10.2c-17.2 0-31.2-14-31.2-31.2v-62.5c0-17.3 14-31.3 31.2-31.3h10.2c4.2-14.2 10-28 16.9-40.8l-7.2-7.2c-12.2-12.2-12.2-32 0-44.2l44.2-44.2c12.2-12.2 32-12.2 44.2 0l7.2 7.2c12.9-7 26.5-12.6 40.8-16.9v-10.2c0-17.2 14-31.2 31.2-31.2h62.5c17.3 0 31.3 14 31.3 31.2v10.2c14.2 4.2 28 10 40.8 16.9l7.2-7.2c12.2-12.2 32-12.2 44.2 0l44.2 44.2c12.2 12.2 12.2 32 0 44.2l-7.2 7.2c7 12.9 12.6 26.5 16.9 40.8h10.1z m-218.8 156.3c51.8 0 93.8-42 93.8-93.8s-42-93.7-93.8-93.7-93.7 41.9-93.7 93.7 41.9 93.8 93.7 93.8z m-406.2-156.3c17.2 0 31.2 14 31.2 31.2v62.5c0 17.3-13.9 31.3-31.2 31.3h-10.2c-4.2 14.2-10 28-16.9 40.8l7.2 7.1c12.2 12.3 12.2 32 0 44.2l-44.2 44.2c-12.2 12.3-32 12.3-44.2 0l-7.2-7.1c-12.9 7-26.5 12.6-40.8 16.9v10.1c0 17.3-14 31.3-31.2 31.3h-62.5c-17.3 0-31.3-14-31.3-31.3v-10.1c-14.3-4.3-27.9-9.9-40.8-16.9l-7.2 7.1c-12.2 12.3-32 12.3-44.2 0l-44.2-44.2c-12.2-12.2-12.2-31.9 0-44.2l7.2-7.1c-7-12.9-12.6-26.5-16.9-40.8h-10.2c-17.2 0-31.2-14-31.2-31.3v-62.5c0-17.2 14-31.2 31.2-31.2h10.2c4.2-14.2 10-28 16.9-40.8l-7.2-7.2c-12.2-12.2-12.2-32 0-44.2l44.2-44.2c12.2-12.2 32-12.2 44.2 0l7.2 7.2c12.9-7 26.5-12.6 40.8-16.9v-10.2c0-17.2 14-31.2 31.2-31.2h62.5c17.3 0 31.3 14 31.3 31.2v10.2c14.2 4.2 28 10 40.8 16.9l7.2-7.2c12.2-12.2 32-12.2 44.2 0l44.2 44.2c12.2 12.2 12.2 32 0 44.2l-7.2 7.2c7 12.9 12.6 26.5 16.9 40.8h10.1z m-218.8 156.3c51.8 0 93.8-42 93.8-93.8s-42-93.7-93.8-93.7-93.7 41.9-93.7 93.7 41.9 93.8 93.7 93.8z" />
  </svg>
