
  <svg height="1000" width="1250.0" xmlns="http://www.w3.org/2000/svg">
    <path d="m1213.5 463.5c23.4 23.4 36.5 55.1 36.5 88.3v167c0 17.1-14.1 31.2-31.2 31.2h-34.4c1.9 10.2 3.1 20.5 3.1 31.3 0 86.3-69.9 156.2-156.2 156.2s-156.3-69.9-156.3-156.2c0-10.8 1-21.1 3.1-31.3h-318.7c1.9 10.2 3.1 20.5 3.1 31.3 0 86.3-69.9 156.2-156.2 156.2-51.4 0-96.5-25-125-63.3-28.6 38.1-73.7 63.3-125 63.3-86.4 0-156.3-69.9-156.3-156.2v-656.3c0-34.6 27.9-62.5 62.5-62.5h812.5c34.6 0 62.5 27.9 62.5 62.5v187.7h73.2c33.2 0 65.1 13.1 88.5 36.5z m-1057.2 380.3c34.3 0 62.5-28.2 62.5-62.5s-28.2-62.5-62.5-62.5-62.5 28.1-62.5 62.5 28.1 62.5 62.5 62.5z m250 0c34.3 0 62.5-28.2 62.5-62.5s-28.2-62.5-62.5-62.5-62.5 28.1-62.5 62.5 28.1 62.5 62.5 62.5z m531.2-437.5v93.7h179.9l-84.6-84.6c-5.8-5.8-13.7-9.1-22.1-9.1h-73.2z m93.8 437.5c34.3 0 62.5-28.2 62.5-62.5s-28.2-62.5-62.5-62.5-62.5 28.1-62.5 62.5 28.1 62.5 62.5 62.5z" />
  </svg>
