<svg height="1000" width="1000" xmlns="http://www.w3.org/2000/svg"><path d="M10.5 202.8c270.6 -270.6 708.8 -270.2 979 0 11.9 11.8 13.8 30.2 5.1 44.3l-84.4 135a35.8 -35.8 0 0 0 -43.7 14.3L697.7 328.9a35.8 -35.8 0 0 0 -22.3 -36.8L687 175.8c-121.4 -43.9 -255.2 -43 -374 0l11.6 116.3a35.8 -35.8 0 0 0 -22.3 36.8l-168.8 67.5A35.8 -35.8 0 0 0 89.8 382.1L5.4 247.1a35.8 -35.8 0 0 0 5.1 -44.3zm177 398.8v-78.2C187.5 510.5 177 500 164.1 500H85.9C73 500 62.5 510.5 62.5 523.4v78.2c0 12.9 10.5 23.4 23.4 23.4h78.2c12.9 0 23.4 -10.5 23.4 -23.4zm187.5 0v-78.2C375 510.5 364.5 500 351.6 500h-78.2c-12.9 0 -23.4 10.5 -23.4 23.4v78.2c0 12.9 10.5 23.4 23.4 23.4h78.2c12.9 0 23.4 -10.5 23.4 -23.4zm187.5 0v-78.2C562.5 510.5 552 500 539.1 500h-78.2c-12.9 0 -23.4 10.5 -23.4 23.4v78.2c0 12.9 10.5 23.4 23.4 23.4h78.2c12.9 0 23.4 -10.5 23.4 -23.4zm187.5 0v-78.2C750 510.5 739.5 500 726.6 500h-78.2c-12.9 0 -23.4 10.5 -23.4 23.4v78.2c0 12.9 10.5 23.4 23.4 23.4h78.2c12.9 0 23.4 -10.5 23.4 -23.4zm187.5 0v-78.2C937.5 510.5 927 500 914.1 500h-78.2c-12.9 0 -23.4 10.5 -23.4 23.4v78.2c0 12.9 10.5 23.4 23.4 23.4h78.2c12.9 0 23.4 -10.5 23.4 -23.4zM281.3 789.1v-78.2c0 -12.9 -10.5 -23.4 -23.5 -23.4h-78.1c-13 0 -23.4 10.5 -23.4 23.4v78.2c0 12.9 10.4 23.4 23.4 23.4h78.1c13 0 23.5 -10.5 23.5 -23.4zm187.5 0v-78.2c0 -12.9 -10.5 -23.4 -23.5 -23.4h-78.1c-13 0 -23.4 10.5 -23.4 23.4v78.2c0 12.9 10.4 23.4 23.4 23.4h78.1c13 0 23.5 -10.5 23.5 -23.4zm187.5 0v-78.2c0 -12.9 -10.5 -23.4 -23.5 -23.4h-78.1c-13 0 -23.4 10.5 -23.4 23.4v78.2c0 12.9 10.4 23.4 23.4 23.4h78.1c13 0 23.5 -10.5 23.5 -23.4zm187.5 0v-78.2c0 -12.9 -10.5 -23.4 -23.5 -23.4h-78.1c-13 0 -23.4 10.5 -23.4 23.4v78.2c0 12.9 10.4 23.4 23.4 23.4h78.1c13 0 23.5 -10.5 23.5 -23.4zM187.5 976.6v-78.2C187.5 885.5 177 875 164.1 875H85.9C73 875 62.5 885.5 62.5 898.4v78.2c0 12.9 10.5 23.4 23.4 23.4h78.2c12.9 0 23.4 -10.5 23.4 -23.4zm562.5 0v-78.2C750 885.5 739.5 875 726.6 875H273.4c-12.9 0 -23.4 10.5 -23.4 23.4v78.2c0 12.9 10.5 23.4 23.4 23.4h453.2c12.9 0 23.4 -10.5 23.4 -23.4zm187.5 0v-78.2C937.5 885.5 927 875 914.1 875h-78.2c-12.9 0 -23.4 10.5 -23.4 23.4v78.2c0 12.9 10.5 23.4 23.4 23.4h78.2c12.9 0 23.4 -10.5 23.4 -23.4z"/></svg>