
  <svg height="1000" width="1000.0" xmlns="http://www.w3.org/2000/svg">
    <path d="m10.5 202.8c270.6-270.6 708.8-270.2 979 0 11.9 11.8 13.8 30.2 5.1 44.3l-84.4 135c-6.4 10.1-17.6 16.9-30.4 16.9-4.7 0-9.2-1-13.3-2.6l-168.8-67.5c-13.2-5.3-22.5-18.2-22.5-33.3 0-1.2 0.1-2.4 0.2-3.5l11.6-116.3c-121.4-43.9-255.2-43-374 0l11.6 116.3c0.2 1.1 0.2 2.3 0.2 3.6 0 15-9.3 27.9-22.5 33.2l-168.8 67.5c-4.1 1.6-8.6 2.5-13.3 2.5-12.8 0-24-6.7-30.4-16.8l-84.4-135c-3.4-5.5-5.4-12-5.4-19 0-9.8 4-18.8 10.5-25.3z m177 398.8c0 12.9-10.5 23.4-23.4 23.4h-78.2c-12.9 0-23.4-10.5-23.4-23.4v-78.2c0-12.9 10.5-23.4 23.4-23.4h78.2c12.9 0 23.4 10.5 23.4 23.4v78.2z m187.5 0c0 12.9-10.5 23.4-23.4 23.4h-78.2c-12.9 0-23.4-10.5-23.4-23.4v-78.2c0-12.9 10.5-23.4 23.4-23.4h78.2c12.9 0 23.4 10.5 23.4 23.4v78.2z m187.5 0c0 12.9-10.5 23.4-23.4 23.4h-78.2c-12.9 0-23.4-10.5-23.4-23.4v-78.2c0-12.9 10.5-23.4 23.4-23.4h78.2c12.9 0 23.4 10.5 23.4 23.4v78.2z m187.5 0c0 12.9-10.5 23.4-23.4 23.4h-78.2c-12.9 0-23.4-10.5-23.4-23.4v-78.2c0-12.9 10.5-23.4 23.4-23.4h78.2c12.9 0 23.4 10.5 23.4 23.4v78.2z m187.5 0c0 12.9-10.5 23.4-23.4 23.4h-78.2c-12.9 0-23.4-10.5-23.4-23.4v-78.2c0-12.9 10.5-23.4 23.4-23.4h78.2c12.9 0 23.4 10.5 23.4 23.4v78.2z m-656.2 187.5c0 12.9-10.5 23.4-23.5 23.4h-78.1c-13 0-23.4-10.5-23.4-23.4v-78.2c0-12.9 10.4-23.4 23.4-23.4h78.1c13 0 23.5 10.5 23.5 23.4v78.2z m187.5 0c0 12.9-10.5 23.4-23.5 23.4h-78.1c-13 0-23.4-10.5-23.4-23.4v-78.2c0-12.9 10.4-23.4 23.4-23.4h78.1c13 0 23.5 10.5 23.5 23.4v78.2z m187.5 0c0 12.9-10.5 23.4-23.5 23.4h-78.1c-13 0-23.4-10.5-23.4-23.4v-78.2c0-12.9 10.4-23.4 23.4-23.4h78.1c13 0 23.5 10.5 23.5 23.4v78.2z m187.5 0c0 12.9-10.5 23.4-23.5 23.4h-78.1c-13 0-23.4-10.5-23.4-23.4v-78.2c0-12.9 10.4-23.4 23.4-23.4h78.1c13 0 23.5 10.5 23.5 23.4v78.2z m-656.3 187.5c0 12.9-10.5 23.4-23.4 23.4h-78.2c-12.9 0-23.4-10.5-23.4-23.4v-78.2c0-12.9 10.5-23.4 23.4-23.4h78.2c12.9 0 23.4 10.5 23.4 23.4v78.2z m562.5 0c0 12.9-10.5 23.4-23.4 23.4h-453.2c-12.9 0-23.4-10.5-23.4-23.4v-78.2c0-12.9 10.5-23.4 23.4-23.4h453.2c12.9 0 23.4 10.5 23.4 23.4v78.2z m187.5 0c0 12.9-10.5 23.4-23.4 23.4h-78.2c-12.9 0-23.4-10.5-23.4-23.4v-78.2c0-12.9 10.5-23.4 23.4-23.4h78.2c12.9 0 23.4 10.5 23.4 23.4v78.2z" />
  </svg>
