
  <svg height="1000" width="1250.0" xmlns="http://www.w3.org/2000/svg">
    <path d="m225.4 267.4c-19.7-7.2-27.6-31.9-14.5-48.3 116.7-146.2 298.1-227.9 485.4-218.4-103.1 57.5-202.8 180-271.5 339.3z m258.3 94c86.8-199.1 224.1-334.2 337.4-334.2 15.5 0 30.6 2.5 45.1 7.8 119.8 43.6 153.1 259 83.2 496z m534.8-243.2c149.5 113.1 235.9 292.3 231.3 479.2-0.5 21-22.4 34.8-42.1 27.7l-200.4-73c34.2-114.8 48.2-228.7 37-326.1-4.6-40.3-13.6-76-25.8-107.8z m75.3 756.8c17.2 0 31.2 13.9 31.2 31.2v62.5c0 17.3-14 31.3-31.2 31.3h-1062.5c-17.3 0-31.3-14-31.3-31.3v-62.5c0-17.3 14-31.3 31.3-31.3h462.8l142.3-391.3 117.5 42.8-126.8 348.6h466.6z" />
  </svg>
