
  <svg height="1000" width="1125.0" xmlns="http://www.w3.org/2000/svg">
    <path d="m1124.4 548.4c4.3 19.8-16.4 41.8-36.5 22.3-100.6-106.2-210.2-102.5-309.8 72.3-10.3 18.5-29.1 16.8-38.5 0-4.8-8.6-62.8-143-177.1-143-89.5 0-137.7 73.8-177.1 143-9.4 16.8-28.2 18.5-38.5 0-99.4-174.6-208.2-179.7-309.8-72.3-19.9 19.3-40.8-2.5-36.5-22.3 57-266.2 269.5-426.1 499.4-450.9v-35c0-34.6 27.9-62.5 62.5-62.5s62.5 27.9 62.5 62.5v35c229.1 24.8 443.6 184.7 499.4 450.9z m-624.4 40.9c18.7-17.4 38.5-26.6 62.5-26.8 23.8 0 44.7 11.1 62.5 26.6v254.5c0 86.1-70.1 156.2-156.2 156.2-66.1 0-125.4-41.8-147.3-104.1-11.5-32.4 5.5-68.2 38.1-79.7 32.6-11.5 68.1 5.5 79.7 38.1 3.7 10.5 14.2 20.9 29.4 20.9 17.2 0 31.3-14.1 31.3-31.2v-254.5z" />
  </svg>
