<svg height="1000" width="1125" xmlns="http://www.w3.org/2000/svg"><path d="M1087.9 522.7c-100.4 -88.3 -210.1 -85.3 -309.7 60 -10.3 15.4 -29.1 14 -38.5 0C734.8 575.7 676.7 464 562.5 464c-89.4 0 -137.8 61.3 -177.2 118.7 -9.4 14 -28.2 15.4 -38.5 0C247.4 437.7 138.6 433.5 37.1 522.7 17.1 538.9 -3.8 520.6 .6 504.2c62.2 -241.4 309 -378 561.9 -378 251.6 0 501.1 136.6 561.9 378 4.3 16.3 -16.4 34.8 -36.5 18.5zM500 509.8v302.7C500 847 472 875 437.5 875S375 847 375 812.5 347 750 312.5 750 250 778 250 812.5c0 103.4 84.1 187.5 187.5 187.5S625 915.9 625 812.5V510.3c-42.6 -21.1 -88.7 -19 -125 -.5zM625 97.6V62.5C625 28 597 0 562.5 0S500 28 500 62.5v35.1a726.8 -726.8 0 0 0 125 0z"/></svg>