<svg height="1000" width="1250" xmlns="http://www.w3.org/2000/svg"><path d="M225.4 267.4L424.8 340C493.5 180.7 593.2 58.2 696.3 .7 509 -8.8 327.6 72.9 210.9 219.1c-13.1 16.4 -5.2 41.1 14.5 48.3zm258.3 94L949.4 531C1019.3 294 986 78.6 866.2 35c-14.5 -5.3 -29.6 -7.8 -45.1 -7.8 -113.3 0 -250.6 135.1 -337.4 334.2zm534.8 -243.2c12.2 31.8 21.2 67.5 25.8 107.8 11.2 97.4 -2.8 211.3 -37 326.1l200.4 73c19.7 7.1 41.6 -6.7 42.1 -27.7C1254.4 410.5 1168 231.3 1018.5 118.2zm75.3 756.8H627.1L753.9 526.4 636.4 483.6 494.1 874.9H31.3C14 874.9 0 888.9 0 906.2v62.5C0 986 14 1000 31.3 1000h1062.5c17.2 0 31.2 -14 31.2 -31.3v-62.5c0 -17.3 -14 -31.2 -31.2 -31.2z"/></svg>