<svg height="1000" width="875" xmlns="http://www.w3.org/2000/svg"><path d="M438 758.3c-179 0 -305.8 -100 -305.8 -295.7V125H76.9C59.6 125 45.6 111 45.6 93.8V31.3C45.6 14 59.6 0 76.9 0h268.3c17.3 0 31.3 14 31.3 31.3v62.5c0 17.2 -14 31.2 -31.3 31.2H289v337.6c0 104.9 55.3 155.2 149 155.2 91.7 0 148.1 -49.7 148.1 -156.2V125h-55.3c-17.3 0 -31.3 -14 -31.3 -31.2V31.3C499.5 14 513.5 0 530.8 0h267.3c17.3 0 31.3 14 31.3 31.3v62.5c0 17.2 -14 31.2 -31.3 31.2h-55.2v337.6c0 194.1 -126.8 295.7 -304.9 295.7zM31.3 875h812.5c17.2 0 31.2 14 31.2 31.3v62.5c0 17.2 -14 31.2 -31.2 31.2H31.3C14 1000 0 986 0 968.8v-62.5C0 889 14 875 31.3 875z"/></svg>