
  <svg height="1000" width="875.0" xmlns="http://www.w3.org/2000/svg">
    <path d="m62.5 125c-17.2 0-31.2-14-31.2-31.2v-62.5c0-17.3 14-31.3 31.2-31.3h281.3c17.2 0 31.2 14 31.2 31.3v62.5c0 17.2-14 31.2-31.2 31.2h-62.5v312.5c0 86.2 70 156.3 156.2 156.3s156.3-70.1 156.3-156.3v-312.5h-62.5c-17.3 0-31.3-14-31.3-31.2v-62.5c0-17.3 14-31.3 31.3-31.3h281.2c17.2 0 31.3 14 31.3 31.3v62.5c0 17.2-14.1 31.2-31.3 31.2h-62.5v312.5c0 172.3-140.2 312.5-312.5 312.5s-312.5-140.2-312.5-312.5v-312.5h-62.5z m781.3 750c17.2 0 31.2 14 31.2 31.3v62.5c0 17.2-14 31.2-31.2 31.2h-812.5c-17.3 0-31.3-14-31.3-31.2v-62.5c0-17.3 14-31.3 31.3-31.3h812.5z" />
  </svg>
