
  <svg height="1000" width="1000.0" xmlns="http://www.w3.org/2000/svg">
    <path d="m499.1 15.6c267.2-0.5 485.3 217.2 485.3 484.4 0 267.5-216.9 484.4-484.4 484.4-124.9 0-238.7-47.3-324.6-124.8-10-9.1-10.4-24.6-0.9-34.1l77.5-77.5c8.7-8.7 22.7-9.2 31.9-1 59.9 52.5 135.8 81.1 216.1 81.1 183.2 0 326.6-148.4 328.1-325.3 1.6-186.4-150.5-332.5-331-330.9-82.9 0.7-160.9 32-221.2 88.4l81.6 81.6c29.5 29.5 8.6 80-33.2 80h-261.8c-25.9 0-46.9-21-46.9-46.9v-261.8c0-41.8 50.5-62.7 80-33.2l69.8 69.8c86.8-82.9 204.3-133.9 333.7-134.2z" />
  </svg>
