
  <svg height="1000" width="1000.0" xmlns="http://www.w3.org/2000/svg">
    <path d="m414.7 438.2h-391.3c-12.9 0-23.4-10.5-23.4-23.5v-391.3c0-12.9 10.5-23.4 23.4-23.4h93.8c12.9 0 23.4 10.5 23.4 23.4v152.6c89.4-99.3 219.3-161.4 363.6-160.4 267.4 2 481.4 218.1 480.8 485.5-0.5 267-217.2 483.3-484.3 483.3-125.2 0-239.3-47.5-325.3-125.4-9.9-9.1-10.4-24.6-0.9-34.1l66.4-66.3c8.7-8.7 22.7-9.2 32-1 60.6 53.6 140.3 86.1 227.7 86.1 190 0 343.8-153.7 343.8-343.7 0-190-153.7-343.8-343.8-343.8-114.2 0-215.3 55.7-277.8 141.3h191.9c13 0 23.5 10.5 23.5 23.5v93.7c0 13-10.5 23.5-23.5 23.5z" />
  </svg>
