<svg height="1000" width="1000" xmlns="http://www.w3.org/2000/svg"><path d="M499.1 15.6C369.7 15.9 252.2 66.9 165.4 149.8L95.6 80c-29.5 -29.5 -80 -8.6 -80 33.2V375c0 25.9 21 46.9 46.9 46.9h261.8c41.8 0 62.7 -50.5 33.2 -80l-81.6 -81.6c60.3 -56.4 138.3 -87.7 221.2 -88.4 180.5 -1.6 332.6 144.5 331 330.9C826.6 679.7 683.2 828.1 500 828.1c-80.3 0 -156.2 -28.6 -216.1 -81.1 -9.2 -8.2 -23.2 -7.7 -31.9 1l-77.5 77.5c-9.5 9.5 -9.1 25 .9 34.1 85.9 77.5 199.7 124.8 324.6 124.8 267.5 0 484.4 -216.9 484.4 -484.4C984.4 232.8 766.3 15.1 499.1 15.6z"/></svg>