
  <svg height="1000" width="1000.0" xmlns="http://www.w3.org/2000/svg">
    <path d="m968.8 250v31.3c0 8.6-7.1 15.6-15.7 15.6h-46.8v23.4c0 13-10.5 23.5-23.5 23.5h-765.6c-13 0-23.4-10.5-23.4-23.5v-23.4h-46.9c-8.6 0-15.6-7-15.6-15.6v-31.3c0-6.5 3.9-12.1 9.6-14.4l453.1-171.9c1.9-0.8 3.9-1.2 6-1.2 2.1 0 4.1 0.4 6 1.2l453.1 171.9c5.7 2.3 9.7 7.9 9.7 14.4z m-46.9 593.8c25.9 0 46.9 20.9 46.9 46.8v31.3c0 8.6-7.1 15.6-15.7 15.6h-906.2c-8.6 0-15.6-7-15.6-15.6v-31.3c0-25.9 20.9-46.8 46.8-46.8h843.8z m-734.4-468.8h125v375h125v-375h125v375h125v-375h125v375h70.3c13 0 23.5 10.5 23.5 23.4v39.1h-812.5v-39.1c0-12.9 10.4-23.4 23.4-23.4h70.3v-375z" />
  </svg>
