<svg height="1000" width="1000" xmlns="http://www.w3.org/2000/svg"><path d="M500 93.8c224.5 0 406.3 181.6 406.3 406.2 0 224.5 -181.7 406.3 -406.3 406.3C275.5 906.3 93.8 724.6 93.8 500 93.8 275.5 275.4 93.8 500 93.8m0 -78.2C232.5 15.6 15.6 232.5 15.6 500S232.5 984.4 500 984.4 984.4 767.5 984.4 500 767.5 15.6 500 15.6zm0 109.4C292.9 125 125 292.9 125 500s167.9 375 375 375S875 707.1 875 500 707.1 125 500 125zm0 85.9c38.8 0 70.3 31.5 70.3 70.4s-31.5 70.3 -70.3 70.3 -70.3 -31.5 -70.3 -70.3 31.5 -70.4 70.3 -70.4zm230 191.5c-56.1 13.2 -108.5 24.9 -160.5 30.9 1.7 197.3 24.1 240.3 48.9 303.9 7.1 18.1 -1.8 38.5 -19.9 45.5 -18.1 7.1 -38.5 -1.8 -45.6 -19.9 -17 -43.6 -33.3 -79.4 -43.4 -153.4h-19c-10 73.9 -26.4 109.8 -43.4 153.4 -7.1 18.1 -27.5 27 -45.6 19.9 -18.1 -7 -27 -27.4 -19.9 -45.5 24.8 -63.5 47.2 -106.5 48.9 -303.9 -52 -6 -104.4 -17.7 -160.5 -30.9 -16.8 -4 -27.2 -20.8 -23.2 -37.6s20.8 -27.2 37.6 -23.2c188.8 44.5 242.7 44.5 431.2 0 16.8 -4 33.6 6.4 37.6 23.2 4 16.8 -6.4 33.6 -23.2 37.6z"/></svg>