<svg height="1000" width="1000" xmlns="http://www.w3.org/2000/svg"><path d="M593.9 792.8c9.2 9.1 9.2 24 0 33.1l-87.2 87.3c-115.8 115.7 -304.1 115.7 -419.9 0C-28.9 797.4 -28.9 609.1 86.8 493.3l87.3 -87.2c9.1 -9.2 24 -9.2 33.1 0l77.4 77.3c9.1 9.2 9.1 24 0 33.2l-87.3 87.2c-54.8 54.9 -54.8 144.1 0 198.9 54.8 54.8 144 54.8 198.9 0l87.2 -87.3c9.2 -9.1 24 -9.1 33.2 0l77.3 77.4zM483.4 284.6c9.2 9.1 24 9.1 33.2 0l87.2 -87.3c54.9 -54.8 144.1 -54.8 198.9 0 54.8 54.8 54.8 144 0 198.9l-87.3 87.2c-9.1 9.2 -9.1 24 0 33.2l77.4 77.3c9.1 9.2 24 9.2 33.1 0l87.3 -87.2c115.7 -115.8 115.7 -304.1 0 -419.9C797.4 -28.9 609.1 -28.9 493.3 86.8l-87.2 87.3c-9.2 9.1 -9.2 24 0 33.1l77.3 77.4zm458.7 701.7l44.2 -44.2c18.3 -18.3 18.3 -48 0 -66.3L124.2 13.7c-18.3 -18.3 -48 -18.3 -66.3 0L13.7 57.9c-18.3 18.3 -18.3 48 0 66.3l862.1 862.1c18.3 18.3 48 18.3 66.3 0z"/></svg>