<svg height="1000" width="875" xmlns="http://www.w3.org/2000/svg"><path d="M781.3 500H296.9V298.6c0 -77.3 61.9 -141.6 139.2 -142.3 78.2 -.8 142 62.6 142 140.6v31.2c0 26 20.9 46.9 46.9 46.9h62.5c26 0 46.9 -20.9 46.9 -46.9v-31.2C734.4 132.8 600.6 -.6 436.5 0 272.5 .6 140.6 135.7 140.6 299.8V500H93.8C42 500 0 542 0 593.8v312.5C0 958 42 1000 93.8 1000h687.5c51.7 0 93.7 -42 93.7 -93.7V593.8C875 542 833 500 781.3 500zM515.6 796.9c0 43.1 -34.9 78.1 -78.1 78.1s-78.1 -35 -78.1 -78.1v-93.8c0 -43.1 34.9 -78.1 78.1 -78.1s78.1 35 78.1 78.1v93.8z"/></svg>