
  <svg height="1000" width="875.0" xmlns="http://www.w3.org/2000/svg">
    <path d="m781.3 500c51.7 0 93.7 42 93.7 93.8v312.5c0 51.7-42 93.7-93.7 93.7h-687.5c-51.8 0-93.8-42-93.8-93.7v-312.5c0-51.8 42-93.8 93.8-93.8h46.8v-200.2c0-164.1 131.9-299.2 295.9-299.8s297.9 132.8 297.9 296.9v31.2c0 26-20.9 46.9-46.9 46.9h-62.5c-26 0-46.9-20.9-46.9-46.9v-31.2c0-78-63.8-141.4-142-140.6-77.3 0.7-139.2 65-139.2 142.3v201.4h484.4z m-265.7 296.9v-93.8c0-43.1-34.9-78.1-78.1-78.1s-78.1 35-78.1 78.1v93.8c0 43.1 34.9 78.1 78.1 78.1s78.1-35 78.1-78.1z" />
  </svg>
