
  <svg height="1000" width="1000.0" xmlns="http://www.w3.org/2000/svg">
    <path d="m578.1 750h-156.2c-26 0-46.9-20.9-46.9-46.9v-328.1h-171.3c-34.8 0-52.1-42-27.5-66.6l297-297.3c14.7-14.6 38.7-14.6 53.4 0l297.2 297.3c24.6 24.6 7.3 66.6-27.5 66.6h-171.3v328.1c0 26-20.9 46.9-46.9 46.9z m421.9-15.6v218.7c0 26-20.9 46.9-46.9 46.9h-906.2c-26 0-46.9-20.9-46.9-46.9v-218.7c0-26 20.9-46.9 46.9-46.9h265.6v15.6c0 60.4 49 109.4 109.4 109.4h156.2c60.4 0 109.4-49 109.4-109.4v-15.6h265.6c26 0 46.9 20.9 46.9 46.9z m-242.2 171.9c0-21.5-17.6-39.1-39-39.1s-39.1 17.6-39.1 39.1 17.6 39 39.1 39 39-17.6 39-39z m125 0c0-21.5-17.6-39.1-39-39.1s-39.1 17.6-39.1 39.1 17.6 39 39.1 39 39-17.6 39-39z" />
  </svg>
