
  <svg height="1000" width="1250.0" xmlns="http://www.w3.org/2000/svg">
    <path d="m1192.4 666.6l50.4 29.1c5.6 3.3 8.4 10.2 6.4 16.6-13.1 42.2-35.5 80.5-64.8 112.1-4.5 4.9-11.9 6.1-17.6 2.7l-50.4-29.1c-21.3 18.2-45.7 32.3-72.1 41.6v58.3c0 6.6-4.7 12.5-11.1 13.8-41.4 9.4-85.7 9.8-129.3 0-6.4-1.3-11.1-7.2-11.1-13.8v-58.3c-26.4-9.3-50.8-23.4-72.1-41.6l-50.4 29.1c-5.8 3.4-13.1 2.2-17.6-2.7-29.3-31.8-51.7-69.9-64.8-112.1-2-6.4 0.6-13.3 6.4-16.6l50.4-29.1c-5.1-27.5-5.1-55.7 0-83.2l-50.4-29.1c-5.6-3.3-8.4-10.2-6.4-16.6 13.1-42.2 35.5-80.5 64.8-112.1 4.5-4.9 11.9-6.1 17.6-2.7l50.4 29.1c21.3-18.2 45.7-32.3 72.1-41.6v-58.3c0-6.6 4.7-12.5 11.1-13.8 41.4-9.4 85.7-9.8 129.3 0 6.4 1.3 11.1 7.2 11.1 13.8v58.3c26.4 9.3 50.8 23.4 72.1 41.6l50.4-29.1c5.9-3.4 13.1-2.2 17.6 2.7 29.3 31.6 51.7 69.9 64.8 112.1 2 6.4-0.6 13.3-6.4 16.6l-50.4 29.1c5.1 27.5 5.1 55.7 0 83.2z m-223.6 53.1c52.3 0 94.7-42.6 94.7-94.7s-42.6-94.7-94.7-94.7-94.8 42.6-94.8 94.7 42.4 94.7 94.8 94.7z m-781.3-282.2c-68.9 0-125-56.1-125-125s56.1-125 125-125 125 56.1 125 125-56.1 125-125 125z m437.5 62.5c-120.9 0-218.7-97.9-218.7-218.7s97.6-218.6 218.5-218.6c120.9 0 218.8 97.8 218.8 218.7 0 33.6-8.2 65.3-21.9 93.8-1.6 1-3.1 1.8-4.7 2.7l-15.4-9c-11.6-6.8-24.8-10.3-38.3-10.3-21.5 0-42 9-56.5 24.6-30.8 33.4-54.7 73.2-70.9 115.6-3.7 0.2-7.2 1.2-10.9 1.2z m205.5 379.9v18c0 14.6 4.9 27.9 12.1 39.6h-498.8c-51.8 0-93.8-42-93.8-93.7v-56.3c0-124.2 100.8-225 225.2-225h16.2c40.8 19.5 85.7 31.3 133.8 31.3 6.4 0 12.7-0.8 19.1-1.2 5.5 6 11.8 11.5 19.2 15.8l15.4 9c-0.2 5.1-0.2 10.1 0 15.2-1.8 1.2-71.3 30.9-50.4 98.3 15.4 50.2 42.8 97.2 78.5 135.9 14.7 15.6 35.2 24.6 56.5 24.6 23.8 0 37.7-9.8 53.7-19.1 4.3 2.5 8.8 5.2 13.3 7.6z m-492.4-343.6c-78.7 43.2-134.6 121.1-146.9 213.7h-128.7c-34.6 0-62.5-27.9-62.5-62.5v-62.5c0-68.9 56.1-125 125-125h125c34.4 0 65.4 13.9 88.1 36.3z" />
  </svg>
