
  <svg height="1000" width="1250.0" xmlns="http://www.w3.org/2000/svg">
    <path d="m968.8 437.5c155.4 0 281.2 125.8 281.2 281.3s-125.8 281.2-281.2 281.2-281.3-125.8-281.3-281.2 125.8-281.3 281.3-281.3z m125 293.6v-24.7c0-10.3-8.6-18.9-19-18.9h-74.8v-106.1c0-10.3-8.6-18.9-18.9-18.9h-24.7c-10.3 0-18.9 8.6-18.9 18.9v149.7c0 10.3 8.6 18.9 18.9 18.9h118.4c10.4 0 19-8.6 19-18.9z m-468.8-12.3c0 116.2 58.2 218.9 146.7 281.2h-678c-51.7 0-93.7-42-93.7-93.7v-81.3c0-144.9 117.6-262.5 262.5-262.5h32.6c43.6 19.9 91.6 31.3 142.4 31.3s99-11.4 142.4-31.3h32.6c16.4 0 32.4 2 48 4.9-22.4 45.7-35.5 97.1-35.5 151.4z m-187.5-218.8c-138.1 0-250-111.9-250-250s111.9-250 250-250 250 111.9 250 250-111.9 250-250 250z" />
  </svg>
