
  <svg height="1000" width="1250.0" xmlns="http://www.w3.org/2000/svg">
    <path d="m187.5 437.5c-68.9 0-125-56.1-125-125s56.1-125 125-125 125 56.1 125 125-56.1 125-125 125z m875 0c-68.9 0-125-56.1-125-125s56.1-125 125-125 125 56.1 125 125-56.1 125-125 125z m62.5 62.5c68.9 0 125 56.1 125 125v62.5c0 34.6-27.9 62.5-62.5 62.5h-128.9c-12.1-92.6-68-170.5-146.7-213.7 22.7-22.4 53.7-36.3 88.1-36.3h125z m-500 0c-120.9 0-218.7-97.9-218.7-218.7s97.8-218.8 218.7-218.8 218.8 97.9 218.8 218.8-97.9 218.7-218.8 218.7z m150 62.5c124.2 0 225 100.8 225 225v56.2c0 51.8-42 93.8-93.7 93.8h-562.5c-51.8 0-93.8-42-93.8-93.8v-56.2c0-124.2 100.8-225 225-225h16.2c40.8 19.5 85.8 31.3 133.8 31.3s93.2-11.8 133.8-31.3h16.2z m-436.9-26.2c-78.7 43.2-134.6 121.1-146.9 213.7h-128.7c-34.6 0-62.5-27.9-62.5-62.5v-62.5c0-68.9 56.1-125 125-125h125c34.4 0 65.4 13.9 88.1 36.3z" />
  </svg>
