<svg height="1000" width="875" xmlns="http://www.w3.org/2000/svg"><path d="M749.8 602.1l46.7 -122.2c7.8 -20.5 -7.2 -42.4 -29.3 -42.4H652.9c21.5 -36.9 34.8 -79.3 34.8 -125v-.6c76.6 -15.2 125 -37.3 125 -61.9 0 -26 -53.3 -49 -136.9 -64.5C657.8 121.5 623 57 596.5 23.8 577.9 .6 545.9 -6.6 519.3 6.6l-53.9 27c-17.5 8.8 -38.3 8.8 -55.8 0l-53.9 -27C329.1 -6.6 297.1 .6 278.5 23.8 252.1 57 217.2 121.5 199.2 185.5 115.8 201 62.5 224 62.5 250c0 24.6 48.4 46.7 125 61.9v.6c0 45.7 13.3 88.1 34.8 125H110c-22.5 0 -37.5 22.9 -28.7 43.6l50.3 117.5C53.3 644.1 0 727.9 0 825v87.5c0 48.2 39.3 87.5 87.5 87.5h700c48.2 0 87.5 -39.3 87.5 -87.5V825C875 730.5 824.6 648.4 749.8 602.1zm-406 335.4l-81.3 -375 96.9 62.5 46.9 78.1 -62.5 234.4zm187.5 0L468.8 703.1 515.6 625l96.9 -62.5 -81.2 375zm81.4 -583c-7.6 23.2 -13.7 48 -32.2 65.2 -19.8 18.2 -93.8 43.8 -125 -48.8 -5.5 -16.4 -30.1 -16.4 -35.8 0 -33.2 98 -109.3 63.3 -125 48.8 -18.5 -17.2 -24.8 -42 -32.2 -65.2 -1.6 -4.9 -12.3 -11.1 -12.3 -11.3v-21.1c55.3 7 119.1 11.3 187.5 11.3s132.2 -4.1 187.5 -11.3v21.1c-.2 .2 -10.9 6.2 -12.5 11.3z"/></svg>