<svg height="1000" width="1250" xmlns="http://www.w3.org/2000/svg"><path d="M968.8 437.5c-155.5 0 -281.3 125.8 -281.3 281.3S813.3 1000 968.8 1000 1250 874.2 1250 718.8 1124.2 437.5 968.8 437.5zm125 293.6c0 10.3 -8.6 18.9 -19 18.9H956.4c-10.3 0 -18.9 -8.6 -18.9 -18.9V581.4c0 -10.3 8.6 -18.9 18.9 -18.9h24.7c10.3 0 18.9 8.6 18.9 18.9v106.1h74.8c10.4 0 19 8.6 19 18.9v24.7zM625 718.8c0 -54.3 13.1 -105.7 35.5 -151.4 -15.6 -2.9 -31.6 -4.9 -48 -4.9h-32.6c-43.4 19.9 -91.6 31.3 -142.4 31.3S338.7 582.4 295.1 562.5h-32.6C117.6 562.5 0 680.1 0 825v81.3C0 958 42 1000 93.8 1000h677.9C683.2 937.7 625 835 625 718.8zM437.5 500c138.1 0 250 -111.9 250 -250S575.6 0 437.5 0s-250 111.9 -250 250 111.9 250 250 250z"/></svg>