
  <svg height="1000" width="1250.0" xmlns="http://www.w3.org/2000/svg">
    <path d="m1151.6 468.8l89 89c12.3 12.3 12.3 32.2 0 44.5l-44.5 44.6c-12.3 12.3-32.2 12.3-44.5 0l-89.1-89.1-89.1 89.1c-12.3 12.3-32.2 12.3-44.5 0l-44.5-44.6c-12.3-12.3-12.3-32.2 0-44.5l89-89.1-89-89c-12.3-12.3-12.3-32.2 0-44.5l44.5-44.6c12.3-12.3 32.2-12.3 44.5 0l89.1 89.1 89.1-89.1c12.3-12.3 32.2-12.3 44.5 0l44.5 44.6c12.3 12.3 12.3 32.2 0 44.5z m-714.1 31.2c-138.1 0-250-111.9-250-250s111.9-250 250-250 250 111.9 250 250-111.9 250-250 250z m175 62.5c144.9 0 262.5 117.6 262.5 262.5v81.2c0 51.8-42 93.8-93.7 93.8h-687.5c-51.8 0-93.8-42-93.8-93.8v-81.2c0-144.9 117.6-262.5 262.5-262.5h32.6c43.6 19.9 91.6 31.3 142.4 31.3s99-11.4 142.4-31.3h32.6z" />
  </svg>
