
  <svg height="1000" width="1250.0" xmlns="http://www.w3.org/2000/svg">
    <path d="m1218.8 406.3c17.1 0 31.2 14 31.2 31.2v62.5c0 17.2-14.1 31.3-31.2 31.3h-125v125c0 17.1-14.1 31.2-31.3 31.2h-62.5c-17.2 0-31.2-14.1-31.2-31.2v-125h-125c-17.2 0-31.3-14.1-31.3-31.3v-62.5c0-17.2 14.1-31.2 31.3-31.2h125v-125c0-17.2 14-31.3 31.2-31.3h62.5c17.2 0 31.3 14.1 31.3 31.3v125h125z m-781.3 93.7c-138.1 0-250-111.9-250-250s111.9-250 250-250 250 111.9 250 250-111.9 250-250 250z m175 62.5c144.9 0 262.5 117.6 262.5 262.5v81.2c0 51.8-42 93.8-93.7 93.8h-687.5c-51.8 0-93.8-42-93.8-93.8v-81.2c0-144.9 117.6-262.5 262.5-262.5h32.6c43.6 19.9 91.6 31.3 142.4 31.3s99-11.4 142.4-31.3h32.6z" />
  </svg>
