<svg height="1000" width="1250" xmlns="http://www.w3.org/2000/svg"><path d="M625 625c0 -21.7 6.1 -41.8 15.8 -59.6 -9.4 -.9 -18.5 -2.9 -28.3 -2.9h-32.6c-43.4 19.9 -91.6 31.3 -142.4 31.3S338.7 582.4 295.1 562.5h-32.6C117.6 562.5 0 680.1 0 825v81.3C0 958 42 1000 93.8 1000h548.6C631.6 981.4 625 960.4 625 937.5V625zM437.5 500c138.1 0 250 -111.9 250 -250S575.6 0 437.5 0s-250 111.9 -250 250 111.9 250 250 250zm750 62.5H1125v-93.7c0 -86.4 -69.9 -156.3 -156.2 -156.3S812.5 382.4 812.5 468.8v93.7H750c-34.6 0 -62.5 27.9 -62.5 62.5v312.5c0 34.6 27.9 62.5 62.5 62.5h437.5c34.6 0 62.5 -27.9 62.5 -62.5V625c0 -34.6 -27.9 -62.5 -62.5 -62.5zm-156.2 0h-125v-93.7c0 -34.4 28.1 -62.5 62.5 -62.5s62.5 28.1 62.5 62.5v93.7z"/></svg>