
  <svg height="1000" width="1250.0" xmlns="http://www.w3.org/2000/svg">
    <path d="m437.5 500c-138 0-250-112-250-250s112-250 250-250 250 112 250 250-112 250-250 250z m187.5 125v312.5c0.2 22.8 6.5 44.2 17.4 62.5h-548.6c-51.8 0-93.8-42-93.8-93.7v-81.3c0-144.9 117.6-262.5 262.5-262.5h32.6c43.3 19.9 92 31.1 142.7 31.1 50.7 0 98.8-11.2 142.1-31.1h32.6c9.8 0 18.9 2 28.3 2.9-9.9 17.6-15.7 38-15.8 59.6z m562.5-62.5c34.5 0 62.5 28 62.5 62.5v312.5c0 34.5-28 62.5-62.5 62.5h-437.5c-34.5 0-62.5-28-62.5-62.5v-312.5c0-34.5 28-62.5 62.5-62.5h62.5v-156.2c0-86.3 70-156.3 156.3-156.3s156.2 70 156.2 156.3v156.2h62.5z m-218.7 281.3c34.4 0 62.5-28.1 62.5-62.5s-28.1-62.5-62.5-62.5-62.5 28-62.5 62.5 28 62.5 62.5 62.5z m62.5-281.3v-156.2c0-34.5-28.1-62.5-62.5-62.5s-62.5 28-62.5 62.5v156.2h125z" />
  </svg>
