
  <svg height="1000" width="968.8" xmlns="http://www.w3.org/2000/svg">
    <path d="m484.4 15.6c267.6 0 484.4 216.8 484.4 484.4s-216.8 484.4-484.4 484.4-484.4-216.8-484.4-484.4 216.8-484.4 484.4-484.4z m0 187.5c-94.9 0-171.9 77-171.9 171.9s77 171.9 171.9 171.9 171.9-77 171.9-171.9-77-171.9-171.9-171.9z m0 671.9c114.6 0 217.4-52 286.1-133.2-36.7-69.1-108.6-116.8-192.4-116.8-4.7 0-9.3 0.8-13.8 2.1-25.2 8.3-52 13.5-79.9 13.5s-54.5-5.2-79.9-13.5c-4.5-1.3-9.2-2.1-13.9-2.1-83.8 0-155.6 47.7-192.4 116.8 68.8 81.2 171.5 133.2 286.2 133.2z" />
  </svg>
