
  <svg height="1000" width="1250.0" xmlns="http://www.w3.org/2000/svg">
    <path d="m1215.4 529.5c20.9 8.2 34.6 27.3 34.6 48.6 0 243.2-159.4 378.7-259.6 417.8-8.2 3.1-24.6 7.2-43.3 0-125.4-49-259.6-199.8-259.6-417.8 0-21.3 13.7-40.4 34.6-48.6l225-87.9c18.7-7.2 35.3-3.1 43.3 0z m-246.6 373.6c67.5-32 175.5-126.3 186.5-296.5l-186.5-72.8v369.3z m-531.3-403.1c-138.1 0-250-111.9-250-250s111.9-250 250-250 250 111.9 250 250-111.9 250-250 250z m187.5 78.1c0 186.2 88.3 330.3 193.8 414.1-11.6 4.9-24.3 7.8-37.5 7.8h-687.5c-51.8 0-93.8-42-93.8-93.7v-81.3c0-144.9 117.6-262.5 262.5-262.5h32.6c43.6 19.9 91.6 31.3 142.4 31.3s99-11.4 142.4-31.3h32.6c5.1 0 9.8 1.4 14.6 1.6-0.5 4.7-2.1 9.1-2.1 14z" />
  </svg>
