
  <svg height="1000" width="1250.0" xmlns="http://www.w3.org/2000/svg">
    <path d="m259.1 414.7c-20.3 14.3-45.2 22.8-71.9 22.8-68.8 0-124.7-55.9-124.7-124.7v-0.3c0.1-15.3 3.1-29.9 8.2-43.4z m79 121.6c-78.5 42.8-134.6 121.4-146.9 213.7h-128.7c-34.5 0-62.5-28-62.5-62.5v-62.5c0.1-69 56-124.9 125-125h125c0 0 0.1 0 0.2 0 34.2 0 65.3 13.9 87.9 36.3z m724.4-98.8c-69-0.1-124.9-56-125-125 0-69 56-125 125-125s125 56 125 125-56 125-125 125z m-84.8 256.1l260.3 201.1c7.3 5.7 12 14.7 12 24.7 0 7.2-2.4 13.9-6.6 19.2l-38.3 49.3c-5.7 7.4-14.7 12.1-24.7 12.1-7.3 0-13.9-2.5-19.2-6.6l-1149.1-888.1c-7.4-5.7-12.1-14.7-12.1-24.7 0-7.2 2.5-13.9 6.6-19.2l38.3-49.3c5.7-7.4 14.7-12.1 24.7-12.1 7.2 0 13.9 2.5 19.2 6.6l320.2 247.5c13.5-107.9 104.4-191.6 216-191.6 0 0 0.1 0 0.1 0 120.7 0 218.7 98 218.7 218.6v0.1c0 92.5-57.7 169.8-138.7 201.7l107.6 83.2c73.6 12.7 134.9 61.4 165 127.5z m-727.7 93.9c0-116.8 89.3-211.7 203.1-222.8l477.7 369.1c-7.8 2.3-16 3.6-24.6 3.7h-562.5c-51.7 0-93.7-42-93.7-93.7v-56.3z m875-287.5c69 0.1 124.9 56 125 125v62.5c0 34.5-28 62.5-62.5 62.5h-128.9c-12.2-92.3-68.2-170.9-146.7-213.7 22.6-22.4 53.7-36.3 88-36.3h0.1 125z" />
  </svg>
