<svg height="1000" width="875" xmlns="http://www.w3.org/2000/svg"><path d="M437.5 500c138.1 0 250 -111.9 250 -250S575.6 0 437.5 0s-250 111.9 -250 250 111.9 250 250 250zM203.1 828.1c0 26 20.9 46.9 46.9 46.9s46.9 -20.9 46.9 -46.9S276 781.3 250 781.3s-46.9 20.8 -46.9 46.8zM625 563.7v95.7c71.3 14.4 125 77.7 125 153.1v81.4c0 14.9 -10.5 27.8 -25.2 30.7l-62.9 12.5c-8.4 1.8 -16.6 -3.7 -18.3 -12.3l-6.1 -30.7c-1.8 -8.4 3.7 -16.8 12.3 -18.3l37.7 -7.6v-55.7C687.5 689.8 500 685.4 500 816.2v52.2l37.7 7.6c8.4 1.7 13.9 9.9 12.3 18.3l-6.1 30.7c-1.7 8.4 -9.9 13.9 -18.3 12.3l-61 -8.2C449.2 927 437.7 913.9 437.7 898v-85.5c0 -75.4 53.7 -138.5 125 -153.1v-88.3c-4.3 1.4 -8.6 2.1 -12.9 3.7 -35.2 12.3 -72.8 19.1 -112.1 19.1s-77 -6.8 -112.1 -19.1c-14.5 -5.1 -29.1 -8.2 -44.2 -10.2V724c45.2 13.5 78.2 54.9 78.2 104.3 0 60.4 -49.1 109.4 -109.4 109.4S140.8 888.7 140.8 828.3c0 -49.4 33 -90.8 78.1 -104.3V567C94.7 587.9 0 694.9 0 825v87.5c0 48.2 39.3 87.5 87.5 87.5h700c48.2 0 87.5 -39.3 87.5 -87.5V825C875 684.4 764.1 570.5 625 563.7z"/></svg>