<svg height="1000" width="1250" xmlns="http://www.w3.org/2000/svg"><path d="M1192.4 666.6c5.1 -27.5 5.1 -55.7 0 -83.2l50.4 -29.1c5.8 -3.3 8.4 -10.2 6.4 -16.6 -13.1 -42.2 -35.5 -80.5 -64.8 -112.1 -4.5 -4.9 -11.7 -6.1 -17.6 -2.7l-50.4 29.1c-21.3 -18.2 -45.7 -32.3 -72.1 -41.6v-58.3c0 -6.6 -4.7 -12.5 -11.1 -13.8 -43.6 -9.8 -87.9 -9.4 -129.3 0 -6.4 1.3 -11.1 7.2 -11.1 13.8v58.3c-26.4 9.3 -50.8 23.4 -72.1 41.6l-50.4 -29.1c-5.7 -3.4 -13.1 -2.2 -17.6 2.7 -29.3 31.6 -51.7 69.9 -64.8 112.1 -2 6.4 .8 13.3 6.4 16.6l50.4 29.1c-5.1 27.5 -5.1 55.7 0 83.2l-50.4 29.1c-5.8 3.3 -8.4 10.2 -6.4 16.6 13.1 42.2 35.5 80.3 64.8 112.1 4.5 4.9 11.8 6.1 17.6 2.7L820.7 798c21.3 18.2 45.7 32.3 72.1 41.6v58.3c0 6.6 4.7 12.5 11.1 13.8 43.6 9.8 87.9 9.4 129.3 0 6.4 -1.3 11.1 -7.2 11.1 -13.8v-58.3c26.4 -9.3 50.8 -23.4 72.1 -41.6l50.4 29.1c5.7 3.4 13.1 2.2 17.6 -2.7 29.3 -31.6 51.7 -69.9 64.8 -112.1 2 -6.4 -.8 -13.3 -6.4 -16.6l-50.4 -29.1zm-223.6 53.1C916.4 719.7 874 677.1 874 625s42.6 -94.7 94.8 -94.7 94.7 42.6 94.7 94.7 -42.4 94.7 -94.7 94.7zM187.5 437.5c68.9 0 125 -56.1 125 -125s-56.1 -125 -125 -125 -125 56.1 -125 125 56.1 125 125 125zM625 500c3.7 0 7.2 -1 10.9 -1.2 16.2 -42.4 40.1 -82.2 70.9 -115.6 14.5 -15.6 35 -24.6 56.5 -24.6 13.5 0 26.7 3.5 38.3 10.3l15.4 9c1.6 -.9 3.1 -1.7 4.7 -2.7 13.7 -28.5 21.9 -60.2 21.9 -93.8C843.6 160.5 745.7 62.7 624.8 62.7S406.3 160.4 406.3 281.3C406.3 402.1 504.1 500 625 500zm205.5 379.9c-4.5 -2.4 -9 -5.1 -13.3 -7.6 -16 9.3 -29.9 19.1 -53.7 19.1 -21.3 0 -41.8 -9 -56.5 -24.6C671.3 828.1 643.9 781.1 628.5 730.9c-20.9 -67.4 48.6 -97.1 50.4 -98.3 -.2 -5.1 -.2 -10.1 0 -15.2l-15.4 -9c-7.4 -4.3 -13.7 -9.8 -19.2 -15.8 -6.4 .4 -12.7 1.2 -19.1 1.2 -48.1 0 -93 -11.8 -133.8 -31.3h-16.2C350.8 562.5 250 663.3 250 787.5v56.3c0 51.7 42 93.7 93.8 93.7h498.8c-7.2 -11.7 -12.1 -25 -12.1 -39.6v-18zM338.1 536.3C315.4 513.9 284.4 500 250 500H125C56.1 500 0 556.1 0 625v62.5C0 722.1 27.9 750 62.5 750h128.7c12.3 -92.6 68.2 -170.5 146.9 -213.7z"/></svg>