
  <svg height="1000" width="1250.0" xmlns="http://www.w3.org/2000/svg">
    <path d="m1231.6 712.7c24.5 24.4 24.5 63.9-0.2 88.3l-180.6 180.6c-24.4 24.5-64.1 24.5-88.5 0l-176.4-176.1c-23.4-23.5-36.5-55.1-36.5-88.3v-154.7c0-34.6 27.9-62.5 62.5-62.5h154.9c33.2 0 65 13.1 88.5 36.5z m-357-41c26 0 46.9-21.1 46.9-46.9 0-26-20.9-46.9-46.9-46.9s-46.9 20.9-46.9 46.9c0 26 20.9 46.9 46.9 46.9z m-437.1-171.9c-138.1 0-250-111.9-250-249.8 0-138.1 111.9-250 250-250s250 111.9 250 249.8c0 138.1-111.9 250-250 250z m249.6 217.2c0 50.2 19.5 97.3 54.9 132.6l113.3 113.3c-17.2 22.3-43.8 36.9-74 36.9h-687.5c-51.8 0-93.8-42-93.8-93.7v-81.3c0-144.9 117.6-262.5 262.5-262.7h32.6c43.6 19.9 91.6 31.3 142.4 31.3s99-11.4 142.4-31.3h32.6c26 0 50.8 5.1 74.6 12.1v142.8z" />
  </svg>
