
  <svg height="1000" width="875.0" xmlns="http://www.w3.org/2000/svg">
    <path d="m541.7 23.4l-177.1 132.8h-158.6c37.2-91.5 126.6-156.2 231.5-156.2 37.3 0 72.4 8.7 104.2 23.4z m127.3 132.9h-200.3l129-96.8c30.9 26 55.8 58.7 71.3 96.8z m-231.5 343.7c-138.1 0-250-111.9-250-250 0-10.7 1.8-20.9 3.1-31.2h493.8c1.2 10.3 3.1 20.5 3.1 31.2 0 138.1-111.9 250-250 250z m-281.2 85.4c18.2-8.2 38-14.3 58.2-18.1l192.3 432.7h-250.6v-414.6z m-156.3 320.9v-81.3c0-80.4 36.9-151.4 93.8-199.5v374.5c-51.8 0-93.8-42-93.8-93.7z m500-93.8c51.7 0 93.8 42.1 93.8 93.8s-42.1 93.7-93.8 93.7h-24.8l-83.4-187.5h108.2z m112.5-250c145 0 262.5 117.5 262.5 262.5v81.2c0 51.8-42 93.8-93.7 93.8h-157.1c19.8-26.2 32.1-58.4 32.1-93.8 0-86.1-70.1-156.2-156.3-156.2h-135.9l-83.4-187.5h14.4c43.5 19.9 91.6 31.2 142.4 31.2s98.9-11.3 142.4-31.2h32.6z" />
  </svg>
