
  <svg height="1000" width="1250.0" xmlns="http://www.w3.org/2000/svg">
    <path d="m375 500c-120.9 0-218.7-97.9-218.7-218.7s97.8-218.8 218.7-218.8 218.8 97.9 218.8 218.8-97.9 218.7-218.8 218.7z m150 62.5c124.2 0 225 100.8 225 225v56.2c0 51.8-42 93.8-93.7 93.8h-562.5c-51.8 0-93.8-42-93.8-93.8v-56.2c0-124.2 100.8-225 225-225h16.2c40.8 19.5 85.8 31.3 133.8 31.3s93.2-11.8 133.8-31.3h16.2z m412.5-62.5c-103.5 0-187.5-84-187.5-187.5s84-187.5 187.5-187.5 187.5 84 187.5 187.5-84 187.5-187.5 187.5z m93.8 62.5c120.8 0 218.7 97.9 218.7 218.8 0 51.7-42 93.7-93.7 93.7h-345c0.2-4.1 1.2-8.2 1.2-12.5v-75c0-75.4-29.9-143.6-77.5-194.9 32.2-18.6 68.9-30.1 108.7-30.1h7.5c27.1 9.4 55.8 15.6 86.3 15.6s59.2-6.2 86.3-15.6h7.4z" />
  </svg>
