<svg height="1000" width="875" xmlns="http://www.w3.org/2000/svg"><path d="M623.8 626.2L437.5 812.5 251.2 626.2C111.5 632.2 0 746.5 0 887.5v18.8C0 958 42 1000 93.8 1000h687.5c51.7 0 93.7 -42 93.7 -93.7v-18.8C875 746.5 763.5 632.2 623.8 626.2zM26.6 155.9l12.5 2.9v114.1c-13.7 8.2 -23.5 22.4 -23.5 39.6 0 16.4 9 30.1 21.7 38.5L6.8 472.7C3.5 486.1 10.9 500 21.7 500h81.6c10.8 0 18.2 -13.9 14.9 -27.3L87.7 351c12.7 -8.4 21.7 -22.1 21.7 -38.5 0 -17.2 -9.8 -31.4 -23.5 -39.6V170.1l128.9 31.1c-16.8 33.6 -27.3 71.1 -27.3 111.3 0 138.1 111.9 250 250 250s250 -111.9 250 -250c0 -40.2 -10.4 -77.7 -27.3 -111.3l188 -45.3c35.6 -8.6 35.6 -53 0 -61.6L476.4 4.5c-25.4 -6.1 -52.2 -6.1 -77.6 0L26.6 94.1c-35.4 8.6 -35.4 53.2 0 61.8z"/></svg>