<svg height="1000" width="1250" xmlns="http://www.w3.org/2000/svg"><path d="M375 500c120.9 0 218.8 -97.9 218.8 -218.7S495.9 62.5 375 62.5 156.3 160.4 156.3 281.3 254.1 500 375 500zm150 62.5h-16.2C468.2 582 423 593.8 375 593.8S282 582 241.2 562.5H225C100.8 562.5 0 663.3 0 787.5v56.3c0 51.7 42 93.7 93.8 93.7h562.5c51.7 0 93.7 -42 93.7 -93.7v-56.3c0 -124.2 -100.8 -225 -225 -225zM937.5 500C1041 500 1125 416 1125 312.5S1041 125 937.5 125 750 209 750 312.5 834 500 937.5 500zm93.8 62.5h-7.5c-27.1 9.4 -55.8 15.6 -86.3 15.6s-59.2 -6.2 -86.3 -15.6h-7.4c-39.9 0 -76.6 11.5 -108.8 30.1 47.6 51.3 77.5 119.5 77.5 194.9v75c0 4.3 -1 8.4 -1.2 12.5h345c51.7 0 93.7 -42 93.7 -93.8 0 -120.8 -97.9 -218.7 -218.7 -218.7z"/></svg>