<svg height="1000" width="1250" xmlns="http://www.w3.org/2000/svg"><path d="M1192.4 729.1c5.1 -27.5 5.1 -55.7 0 -83.2l50.4 -29.1c5.8 -3.3 8.4 -10.2 6.4 -16.6 -13.1 -42.2 -35.5 -80.5 -64.8 -112.1 -4.5 -4.9 -11.7 -6.1 -17.6 -2.7l-50.4 29.1c-21.3 -18.2 -45.7 -32.3 -72.1 -41.6v-58.3c0 -6.6 -4.7 -12.5 -11.1 -13.8 -43.6 -9.8 -87.9 -9.4 -129.3 0 -6.4 1.3 -11.1 7.2 -11.1 13.8v58.3c-26.4 9.3 -50.8 23.4 -72.1 41.6l-50.4 -29.1c-5.7 -3.4 -13.1 -2.2 -17.6 2.7C723.4 519.7 701 558 687.9 600.2c-2 6.4 .8 13.3 6.4 16.6l50.4 29.1c-5.1 27.5 -5.1 55.7 0 83.2l-50.4 29.1c-5.8 3.3 -8.4 10.2 -6.4 16.6 13.1 42.2 35.5 80.3 64.8 112.1 4.5 4.9 11.8 6.1 17.6 2.7l50.4 -29.1c21.3 18.2 45.7 32.3 72.1 41.6v58.3c0 6.6 4.7 12.5 11.1 13.8 43.6 9.8 87.9 9.4 129.3 0 6.4 -1.3 11.1 -7.2 11.1 -13.8v-58.3c26.4 -9.3 50.8 -23.4 72.1 -41.6l50.4 29.1c5.7 3.4 13.1 2.2 17.6 -2.7 29.3 -31.6 51.7 -69.9 64.8 -112.1 2 -6.4 -.8 -13.3 -6.4 -16.6l-50.4 -29.1zm-223.6 53.1c-52.4 0 -94.8 -42.6 -94.8 -94.7s42.6 -94.7 94.8 -94.7 94.7 42.6 94.7 94.7 -42.4 94.7 -94.7 94.7zM437.5 500c138.1 0 250 -111.9 250 -250S575.6 0 437.5 0s-250 111.9 -250 250 111.9 250 250 250zm393 442.4c-4.5 -2.4 -9 -5.1 -13.3 -7.6l-15.4 9c-11.8 6.6 -25 10.3 -38.3 10.3 -21.3 0 -41.8 -9 -56.5 -24.6C671.3 890.8 643.9 843.8 628.5 793.6c-10.7 -34.6 3.7 -71.1 35 -89.3l15.4 -9c-.2 -5.1 -.2 -10.1 0 -15.2l-15.4 -9c-31.3 -18 -45.7 -54.7 -35 -89.3 1.8 -5.6 4.3 -11.3 6.3 -17 -7.5 -.5 -14.7 -2.3 -22.3 -2.3h-32.6c-43.4 19.9 -91.6 31.3 -142.4 31.3S338.7 582.4 295.1 562.5h-32.6C117.6 562.5 0 680.1 0 825v81.3C0 958 42 1000 93.8 1000h687.5c19.7 0 38 -6.2 53.1 -16.6 -2.4 -7.4 -3.9 -15 -3.9 -23v-18z"/></svg>