
  <svg height="1000" width="875.0" xmlns="http://www.w3.org/2000/svg">
    <path d="m623.8 625c139.7 6.1 251.2 120.3 251.2 261.3 0 62.8-50.9 113.7-113.7 113.7h-647.6c-62.8 0-113.7-50.9-113.7-113.7 0-141 111.5-255.2 251.2-261.3l186.3 186.3z m-186.3-31.2c-138 0-250-112.1-250-250v-215.2c0-26.8 16.9-49.7 40.5-58.6l165.6-62.1c13.7-5.1 28.5-7.9 44-7.9s30.1 2.8 43.8 7.9l165.6 62.1c23.6 8.8 40.5 31.7 40.5 58.5v0.1 215.2c0 137.9-112 250-250 250z m-78.1-453.8v32.5c0 5.4 4.4 9.8 9.7 9.8h42.4v42.3c0 5.4 4.3 9.8 9.7 9.8h32.6c5.4 0 9.7-4.4 9.7-9.8v-42.3h42.4c5.3 0 9.7-4.4 9.7-9.8v-32.5c0-5.4-4.4-9.8-9.7-9.8h-42.4v-42.3c0-5.4-4.3-9.8-9.7-9.8h-32.6c-5.4 0-9.7 4.4-9.7 9.8v42.3h-42.4c-5.3 0-9.7 4.4-9.7 9.8z m-78.1 172.5v31.3c0 86.2 70 156.2 156.2 156.2s156.3-70 156.3-156.2v-31.3h-312.5z" />
  </svg>
