
  <svg height="1000" width="875.0" xmlns="http://www.w3.org/2000/svg">
    <path d="m635.5 564.8c134 12 239.5 123.1 239.5 260.2v81.2c0 51.8-42 93.8-93.7 93.8h-687.5c-51.8 0-93.8-42-93.8-93.8v-81.2c0-137.1 105.5-248.2 239.5-260.2l198 198.1z m-573-189.8c0-65.2 33.4-122.7 84.2-156.2-50.8-33.6-84.2-91.1-84.2-156.3 62.5 0 117.4 30.9 151.4 77.7 40.8-82.8 125.2-140.2 223.6-140.2 138.1 0 250 111.9 250 250s-111.9 250-250 250c-114.8 0-210.4-77.7-239.8-183-34 35.5-81.9 58-135.2 58z m281.3-187.5c-34.6 0-62.5 27.9-62.5 62.5h312.5c0-34.6-28-62.5-62.5-62.5h-187.5z" />
  </svg>
