<svg height="1000" width="1250" xmlns="http://www.w3.org/2000/svg"><path d="M437.5 500c138.1 0 250 -111.9 250 -250S575.6 0 437.5 0s-250 111.9 -250 250 111.9 250 250 250zm175 62.5h-32.6c-43.4 19.9 -91.6 31.3 -142.4 31.3S338.7 582.4 295.1 562.5h-32.6C117.6 562.5 0 680.1 0 825v81.3C0 958 42 1000 93.8 1000h687.5c51.7 0 93.7 -42 93.7 -93.7V825C875 680.1 757.4 562.5 612.5 562.5zm630.9 -250.8l-54.3 -54.9c-9 -9.1 -23.7 -9.1 -32.8 -.2L951.6 459.8l-88.9 -89.5c-9 -9.2 -23.6 -9.2 -32.8 -.2L775 424.6c-9.2 9 -9.2 23.6 -.2 32.8l159.6 160.8c9 9.1 23.6 9.1 32.8 .2l276 -273.9c8.9 -9.1 9.1 -23.8 .2 -32.8z"/></svg>