<svg height="1000" width="1250" xmlns="http://www.w3.org/2000/svg"><path d="M1151.6 468.8l89 -89.1c12.3 -12.3 12.3 -32.2 0 -44.5l-44.5 -44.6c-12.3 -12.3 -32.2 -12.3 -44.5 0l-89.1 89.1 -89.1 -89.1c-12.3 -12.3 -32.2 -12.3 -44.5 0l-44.5 44.6c-12.3 12.3 -12.3 32.2 0 44.5l89 89.1 -89 89c-12.3 12.3 -12.3 32.2 0 44.5l44.5 44.6c12.3 12.3 32.2 12.3 44.5 0l89.1 -89.1 89.1 89.1c12.3 12.3 32.2 12.3 44.5 0l44.5 -44.6c12.3 -12.3 12.3 -32.2 0 -44.5l-89 -89zM437.5 500c138.1 0 250 -111.9 250 -250S575.6 0 437.5 0s-250 111.9 -250 250 111.9 250 250 250zm175 62.5h-32.6c-43.4 19.9 -91.6 31.3 -142.4 31.3S338.7 582.4 295.1 562.5h-32.6C117.6 562.5 0 680.1 0 825v81.3C0 958 42 1000 93.8 1000h687.5c51.7 0 93.7 -42 93.7 -93.7V825C875 680.1 757.4 562.5 612.5 562.5z"/></svg>