<svg height="1000" width="875" xmlns="http://www.w3.org/2000/svg"><path d="M635.5 564.8l-198 198.1 -198 -198.1C105.5 576.8 0 687.9 0 825v81.3C0 958 42 1000 93.8 1000h687.5c51.7 0 93.7 -42 93.7 -93.7V825C875 687.9 769.5 576.8 635.5 564.8zM62.5 375c53.3 0 101.2 -22.5 135.2 -58 29.4 105.3 125 183 239.8 183 138.1 0 250 -111.9 250 -250S575.6 0 437.5 0C339.1 0 254.7 57.4 213.9 140.2 179.9 93.4 125 62.5 62.5 62.5c0 65.2 33.4 122.7 84.2 156.3C95.9 252.3 62.5 309.8 62.5 375zM343.8 187.5h187.5c34.5 0 62.5 27.9 62.5 62.5H281.3c0 -34.6 27.9 -62.5 62.5 -62.5z"/></svg>