
  <svg height="1000" width="1250.0" xmlns="http://www.w3.org/2000/svg">
    <path d="m437.5 500c-138.1 0-250-111.9-250-250s111.9-250 250-250 250 111.9 250 250-111.9 250-250 250z m175 62.5c144.9 0 262.5 117.6 262.5 262.5v81.2c0 51.8-42 93.8-93.7 93.8h-687.5c-51.8 0-93.8-42-93.8-93.8v-81.2c0-144.9 117.6-262.5 262.5-262.5h32.6c43.6 19.9 91.6 31.3 142.4 31.3s99-11.4 142.4-31.3h32.6z m630.9-250.8c8.9 9 8.7 23.7-0.2 32.8l-276 273.9c-9.2 8.9-23.8 8.9-32.8-0.2l-159.6-160.8c-9-9.2-9-23.8 0.2-32.8l54.9-54.5c9.2-9 23.8-9 32.8 0.2l88.9 89.5 204.7-203.2c9.1-8.9 23.8-8.9 32.8 0.2z" />
  </svg>
