<svg height="1000" width="968.8" xmlns="http://www.w3.org/2000/svg"><path d="M484.4 15.6C216.8 15.6 0 232.4 0 500s216.8 484.4 484.4 484.4S968.8 767.6 968.8 500 752 15.6 484.4 15.6zm0 187.5c94.9 0 171.9 77 171.9 171.9s-77 171.9 -171.9 171.9S312.5 469.9 312.5 375s77 -171.9 171.9 -171.9zm0 671.9C369.7 875 267 823 198.2 741.8 235 672.7 306.8 625 390.6 625c4.7 0 9.4 .8 13.9 2.1 25.4 8.3 51.9 13.5 79.9 13.5 27.9 0 54.7 -5.2 79.9 -13.5 4.5 -1.3 9.1 -2.1 13.8 -2.1 83.8 0 155.7 47.7 192.4 116.8C701.8 823 599 875 484.4 875z"/></svg>