
  <svg height="1000" width="1250.0" xmlns="http://www.w3.org/2000/svg">
    <path d="m437.5 500c-138.1 0-250-111.9-250-250s111.9-250 250-250 250 111.9 250 250-111.9 250-250 250z m175 62.5c77.9 0 147.3 34.8 195.1 88.9l-151 150.9-15.4 15.5-2.3 21.7-13.3 118.9c-1.6 14.3 0.4 28.3 5.1 41.6h-536.9c-51.8 0-93.8-42-93.8-93.8v-81.2c0-144.9 117.6-262.5 262.5-262.5h32.6c43.6 19.9 91.6 31.3 142.4 31.3s99-11.4 142.4-31.3h32.6z m88.5 283.8l269.3-269.2 140 140.1-269.3 269.3-118.9 13.3c-19.8 2.3-36.6-14.4-34.4-34.4z m535.3-321.1c18.2 18.4 18.2 47.8 0 66.2l-81.6 81.6-140.2-140 8-8 73.8-73.8c18.2-18.2 47.8-18.2 66 0z" />
  </svg>
