<svg height="1000" width="1250" xmlns="http://www.w3.org/2000/svg"><path d="M1231.6 712.7L1055.3 536.5C1031.8 513.1 1000 500 966.8 500H811.9c-34.6 0 -62.5 27.9 -62.5 62.5v154.7c0 33.2 13.1 64.8 36.5 88.3l176.4 176.1c24.4 24.5 64.1 24.5 88.5 0L1231.4 801c24.7 -24.4 24.7 -63.9 .2 -88.3zm-357 -41c-26 0 -46.9 -20.9 -46.9 -46.9s20.9 -46.9 46.9 -46.9 46.9 20.9 46.9 46.9c0 25.8 -20.9 46.9 -46.9 46.9zM437.5 499.8c138.1 0 250 -111.9 250 -250C687.5 111.9 575.6 0 437.5 0s-250 111.9 -250 250c0 137.9 111.9 249.8 250 249.8zM687.1 717V574.2c-23.8 -7 -48.6 -12.1 -74.6 -12.1h-32.6c-43.4 19.9 -91.6 31.3 -142.4 31.3S338.7 582 295.1 562.1h-32.6C117.6 562.3 0 679.9 0 824.8v81.3c0 51.7 42 93.7 93.8 93.7h687.5c30.2 0 56.8 -14.6 74 -36.9L742 849.6C706.6 814.3 687.1 767.2 687.1 717z"/></svg>