
  <svg height="1000" width="875.0" xmlns="http://www.w3.org/2000/svg">
    <path d="m125 437.5c-17.2 0-31.2-14.1-31.2-31.2v-187.5c0-17.2 14-31.3 31.2-31.3h26.4c48.2-110.4 158-187.5 286.1-187.5s237.9 77.1 286.1 187.5h26.4c17.2 0 31.3 14.1 31.3 31.3v187.5c0 17.1-14.1 31.2-31.3 31.2h-26.4c-48.2 110.4-158 187.5-286.1 187.5s-237.9-77.1-286.1-187.5h-26.4z m78.1-171.9v46.9c0 103.5 84 187.5 187.5 187.5h93.8c103.5 0 187.5-84 187.5-187.5v-46.9c0-43.1-42-78.1-93.8-78.1h-281.2c-51.8 0-93.8 35-93.8 78.1z m140.7 140.7l-23.5-70.4-70.3-23.4 70.3-23.4 23.5-70.3 23.4 70.3 70.3 23.4-70.3 23.4z m296 221.4c131.9 13.9 235.2 124.3 235.2 259.8v18.7c0 51.8-42 93.8-93.7 93.8h-156.3v-125c0-34.6-27.9-62.5-62.5-62.5h-250c-34.6 0-62.5 27.9-62.5 62.5v125h-156.2c-51.8 0-93.8-42-93.8-93.8v-18.7c0-135.5 103.3-245.9 235.2-259.8 58.4 37.7 127.7 59.8 202.3 59.8s143.9-22.1 202.3-59.8z m-108.5 247.3c17.1 0 31.2 14.1 31.2 31.3s-14.1 31.2-31.2 31.2-31.3-14.1-31.3-31.2 14.1-31.3 31.3-31.3z m-187.5 0c17.1 0 31.2 14.1 31.2 31.3v93.7h-62.5v-93.7c0-17.2 14.1-31.3 31.3-31.3z" />
  </svg>
