<svg height="1000" width="1250" xmlns="http://www.w3.org/2000/svg"><path d="M1215.4 529.5l-225 -87.9c-8 -3.1 -24.6 -7.2 -43.3 0l-225 87.9c-20.9 8.2 -34.6 27.3 -34.6 48.6 0 218 134.2 368.8 259.6 417.8 18.7 7.2 35.1 3.1 43.3 0C1090.6 956.8 1250 821.3 1250 578.1c0 -21.3 -13.7 -40.4 -34.6 -48.6zM968.8 903.1V533.8l186.5 72.8c-11 170.2 -119 264.5 -186.5 296.5zM437.5 500c138.1 0 250 -111.9 250 -250S575.6 0 437.5 0s-250 111.9 -250 250 111.9 250 250 250zM625 578.1c0 -4.9 1.6 -9.3 2.1 -14 -4.8 -.2 -9.5 -1.6 -14.6 -1.6h-32.6c-43.4 19.9 -91.6 31.3 -142.4 31.3S338.7 582.4 295.1 562.5h-32.6C117.6 562.5 0 680.1 0 825v81.3C0 958 42 1000 93.8 1000h687.5c13.2 0 25.9 -2.9 37.5 -7.8C713.3 908.4 625 764.3 625 578.1z"/></svg>