<svg height="1000" width="1250" xmlns="http://www.w3.org/2000/svg"><path d="M437.5 500c138.1 0 250 -111.9 250 -250S575.6 0 437.5 0s-250 111.9 -250 250 111.9 250 250 250zm175 62.5h-32.6c-43.4 19.9 -91.6 31.3 -142.4 31.3S338.7 582.4 295.1 562.5h-32.6C117.6 562.5 0 680.1 0 825v81.3C0 958 42 1000 93.8 1000h536.9C626 986.7 624 972.7 625.6 958.4l13.3 -118.9 2.3 -21.7 15.4 -15.5 151 -150.9C759.8 597.3 690.4 562.5 612.5 562.5zM701 846.3l-13.3 119.1c-2.2 20 14.6 36.7 34.4 34.4L841 986.5l269.4 -269.3L970.3 577.1 701 846.3zm535.3 -321.1l-74 -74c-18.2 -18.2 -47.8 -18.2 -66 0l-73.8 73.8 -8 8 140.2 140 81.6 -81.6c18.2 -18.4 18.2 -47.8 0 -66.2z"/></svg>