<svg height="1000" width="1250" xmlns="http://www.w3.org/2000/svg"><path d="M187.5 437.5c68.9 0 125 -56.1 125 -125s-56.1 -125 -125 -125 -125 56.1 -125 125 56.1 125 125 125zm875 0c68.9 0 125 -56.1 125 -125s-56.1 -125 -125 -125 -125 56.1 -125 125 56.1 125 125 125zM1125 500h-125c-34.4 0 -65.4 13.9 -88.1 36.3 78.7 43.2 134.6 121.1 146.7 213.7h128.9c34.6 0 62.5 -27.9 62.5 -62.5V625c0 -68.9 -56.1 -125 -125 -125zm-500 0c120.9 0 218.8 -97.9 218.8 -218.7S745.9 62.5 625 62.5 406.3 160.4 406.3 281.3 504.1 500 625 500zm150 62.5h-16.2C718.2 582 673 593.8 625 593.8S532 582 491.2 562.5H475c-124.2 0 -225 100.8 -225 225v56.3c0 51.7 42 93.7 93.8 93.7h562.5c51.7 0 93.7 -42 93.7 -93.7v-56.3c0 -124.2 -100.8 -225 -225 -225zM338.1 536.3C315.4 513.9 284.4 500 250 500H125C56.1 500 0 556.1 0 625v62.5C0 722.1 27.9 750 62.5 750h128.7c12.3 -92.6 68.2 -170.5 146.9 -213.7z"/></svg>