
  <svg height="1000" width="875.0" xmlns="http://www.w3.org/2000/svg">
    <path d="m623.8 626.2c139.7 6 251.2 120.3 251.2 261.3v18.8c0 51.7-42 93.7-93.7 93.7h-687.5c-51.8 0-93.8-42-93.8-93.7v-18.8c0-141 111.5-255.3 251.2-261.3l186.3 186.3z m-597.2-470.3c-35.4-8.6-35.4-53.2 0-61.8l372.2-89.6c25.4-6.1 52.2-6.1 77.6 0l371.8 89.8c35.6 8.6 35.6 53 0 61.6l-188 45.3c16.9 33.6 27.3 71.1 27.3 111.3 0 138.1-111.9 250-250 250s-250-111.9-250-250c0-40.2 10.5-77.7 27.3-111.3l-128.9-31.1v102.8c13.7 8.2 23.5 22.4 23.5 39.6 0 16.4-9 30.1-21.7 38.5l30.5 121.7c3.3 13.4-4.1 27.3-14.9 27.3h-81.6c-10.8 0-18.2-13.9-14.9-27.3l30.5-121.7c-12.7-8.4-21.7-22.1-21.7-38.5 0-17.2 9.8-31.4 23.5-39.6v-114.1z" />
  </svg>
