<svg height="1000" width="875" xmlns="http://www.w3.org/2000/svg"><path d="M125 437.5h26.4C199.6 547.9 309.4 625 437.5 625S675.4 547.9 723.6 437.5H750c17.2 0 31.3 -14.1 31.3 -31.2V218.8c0 -17.2 -14.1 -31.3 -31.3 -31.3h-26.4C675.4 77.1 565.6 0 437.5 0S199.6 77.1 151.4 187.5H125c-17.2 0 -31.2 14.1 -31.2 31.3v187.5c0 17.1 14 31.2 31.2 31.2zm78.1 -171.9c0 -43.1 42 -78.1 93.8 -78.1h281.2c51.8 0 93.8 35 93.8 78.1v46.9C671.9 416 587.9 500 484.4 500h-93.8C287.1 500 203.1 416 203.1 312.5v-46.9zm140.7 140.7l23.4 -70.4 70.3 -23.4 -70.3 -23.4 -23.4 -70.3 -23.5 70.3L250 312.5l70.3 23.4 23.5 70.4zm296 221.4c-58.4 37.7 -127.7 59.8 -202.3 59.8S293.6 665.4 235.2 627.7C103.3 641.6 0 752 0 887.5v18.8C0 958 42 1000 93.8 1000H250V875c0 -34.6 27.9 -62.5 62.5 -62.5h250c34.6 0 62.5 27.9 62.5 62.5v125h156.3c51.7 0 93.7 -42 93.7 -93.7v-18.8C875 752 771.7 641.6 639.8 627.7zM531.3 875c-17.2 0 -31.3 14.1 -31.3 31.3s14.1 31.2 31.3 31.2 31.2 -14.1 31.2 -31.2S548.4 875 531.3 875zm-187.5 0c-17.2 0 -31.3 14.1 -31.3 31.3v93.7H375v-93.7C375 889.1 360.9 875 343.8 875z"/></svg>