
  <svg height="1000" width="812.5" xmlns="http://www.w3.org/2000/svg">
    <path d="m406.1 29.7c1.5 9.2 31.4 184.6 31.4 251.6 0 102.1-54.3 174.9-134.6 204.2l25.2 465.1c1.4 26.7-19.9 49.4-46.9 49.4h-125c-26.7 0-48.2-22.5-46.8-49.4l25.2-465.1c-80.5-29.2-134.6-102.3-134.6-204.2 0-67.2 29.9-242.4 31.4-251.6 6.3-39.7 88.5-40.2 93.6 2.1v275.8c2.5 6.7 29.5 6.3 31.2 0 2.8-49.4 15.5-271.9 15.7-276.9 6.4-40.7 87.3-40.7 93.5 0 0.4 5.2 12.9 227.5 15.7 276.9 1.7 6.3 28.9 6.7 31.2 0v-275.8c5.1-42.2 87.5-41.8 93.8-2.1z m232.8 558c-305.7-239.1-34.4-587.7 126.7-587.7 26 0 46.9 21.1 46.9 46.9v906.2c0 26-20.9 46.9-46.9 46.9h-109.3c-27.4 0-49.1-23.4-46.7-50.8z" />
  </svg>
