<svg height="1000" width="1000" xmlns="http://www.w3.org/2000/svg"><path d="M1000 250V62.5C1000 28 972 0 937.5 0H750c-34.5 0 -62.5 28 -62.5 62.5h-375C312.5 28 284.5 0 250 0H62.5C28 0 0 28 0 62.5V250c0 34.5 28 62.5 62.5 62.5v375C28 687.5 0 715.5 0 750v187.5C0 972 28 1000 62.5 1000H250c34.5 0 62.5 -28 62.5 -62.5h375c0 34.5 28 62.5 62.5 62.5h187.5c34.5 0 62.5 -28 62.5 -62.5V750c0 -34.5 -28 -62.5 -62.5 -62.5v-375c34.5 0 62.5 -28 62.5 -62.5zM812.5 125H875v62.5h-62.5V125zM125 125h62.5v62.5H125V125zm62.5 750H125v-62.5h62.5V875zm687.5 0h-62.5v-62.5H875V875zM812.5 687.5H750c-34.5 0 -62.5 28 -62.5 62.5v62.5h-375V750c0 -34.5 -28 -62.5 -62.5 -62.5h-62.5v-375H250c34.5 0 62.5 -28 62.5 -62.5v-62.5h375V250c0 34.5 28 62.5 62.5 62.5h62.5v375z"/></svg>