
  <svg height="1000" width="1000.0" xmlns="http://www.w3.org/2000/svg">
    <path d="m1000 250c0 34.5-28 62.5-62.5 62.5v375c34.5 0 62.5 28 62.5 62.5v187.5c0 34.5-28 62.5-62.5 62.5h-187.5c-34.5 0-62.5-28-62.5-62.5h-375c0 34.5-28 62.5-62.5 62.5h-187.5c-34.5 0-62.5-28-62.5-62.5v-187.5c0-34.5 28-62.5 62.5-62.5v-375c-34.5 0-62.5-28-62.5-62.5v-187.5c0-34.5 28-62.5 62.5-62.5h187.5c34.5 0 62.5 28 62.5 62.5h375c0-34.5 28-62.5 62.5-62.5h187.5c34.5 0 62.5 28 62.5 62.5v187.5z m-187.5-125v62.5h62.5v-62.5h-62.5z m-687.5 0v62.5h62.5v-62.5h-62.5z m62.5 750v-62.5h-62.5v62.5h62.5z m687.5 0v-62.5h-62.5v62.5h62.5z m-62.5-187.5v-375h-62.5c-34.5 0-62.5-28-62.5-62.5v-62.5h-375v62.5c0 34.5-28 62.5-62.5 62.5h-62.5v375h62.5c34.5 0 62.5 28 62.5 62.5v62.5h375v-62.5c0-34.5 28-62.5 62.5-62.5h62.5z" />
  </svg>
