<svg height="1000" width="1125" xmlns="http://www.w3.org/2000/svg"><path d="M1101.6 0H947.3C926.4 0 916 25.2 930.7 40l33 33 -95.1 95.2C825.2 140.8 773.8 125 718.8 125c-65.9 0 -126.2 22.7 -174.3 60.4 27.4 32.6 48.9 70.3 62.7 111.5C635.5 268 675 250 718.8 250c86.1 0 156.2 70.1 156.2 156.3S804.9 562.5 718.8 562.5c-43.6 0 -83.3 -18 -111.6 -46.9 -13.8 41.2 -35.1 78.9 -62.7 111.5 47.9 37.9 108.4 60.4 174.3 60.4 155.2 0 281.2 -126 281.2 -281.2 0 -55.1 -15.8 -106.5 -43.2 -149.9l95.2 -95.1 33 33c4.6 4.7 10.5 6.9 16.4 6.9 12.1 0 23.6 -9.4 23.6 -23.5V23.4C1125 10.5 1114.5 0 1101.6 0zM281.3 125C126 125 0 251 0 406.3 0 540 93.6 652.1 218.8 680.5v100.8h-70.4c-12.9 0 -23.4 10.5 -23.4 23.4v78.1c0 12.9 10.5 23.5 23.4 23.5h70.4v70.3c0 12.9 10.5 23.4 23.4 23.4h78.1c12.9 0 23.5 -10.5 23.5 -23.4v-70.3h70.3c12.9 0 23.4 -10.6 23.4 -23.5v-78.1c0 -12.9 -10.5 -23.4 -23.4 -23.4h-70.3V680.5C468.9 652 562.5 540 562.5 406.2 562.5 251 436.5 125 281.3 125zm0 437.5C195.1 562.5 125 492.4 125 406.3S195.1 250 281.3 250s156.2 70.1 156.2 156.3S367.4 562.5 281.3 562.5z"/></svg>