
  <svg height="1000" width="1000.0" xmlns="http://www.w3.org/2000/svg">
    <path d="m562.5 343.8c0 133.7-93.6 245.8-218.7 274.2v100.7h70.3c12.9 0 23.4 10.6 23.4 23.5v78.1c0 12.9-10.5 23.4-23.4 23.4h-70.3v70.4c0 12.9-10.6 23.4-23.5 23.4h-78.1c-12.9 0-23.4-10.5-23.4-23.4v-70.4h-70.4c-12.9 0-23.4-10.5-23.4-23.4v-78.1c0-12.9 10.5-23.5 23.4-23.5h70.4v-100.7c-125.2-28.4-218.8-140.5-218.8-274.2 0-155.3 126-281.3 281.3-281.3s281.2 126 281.2 281.3z m-437.5 0c0 86.1 70.1 156.2 156.3 156.2s156.2-70.1 156.2-156.2-70.1-156.3-156.2-156.3-156.3 70.1-156.3 156.3z m656.3 274.2v100.7h70.3c12.9 0 23.4 10.6 23.4 23.5v78.1c0 12.9-10.5 23.4-23.4 23.4h-70.3v70.4c0 12.9-10.6 23.4-23.5 23.4h-78.1c-12.9 0-23.4-10.5-23.4-23.4v-70.4h-70.4c-12.9 0-23.4-10.5-23.4-23.4v-78.1c0-12.9 10.5-23.5 23.4-23.5h70.4v-100.7c-41.5-9.4-79.3-28-111.8-53.4 27.4-32.6 48.9-70.3 62.7-111.5 28.3 28.9 67.8 46.9 111.6 46.9 86.1 0 156.2-70.1 156.2-156.3s-70.1-156.2-156.2-156.2c-43.6 0-83.3 18-111.6 46.9-13.8-41.2-35.1-78.9-62.7-111.5 48.1-37.7 108.4-60.4 174.3-60.4 155.2 0 281.2 126 281.2 281.2 0 133.8-93.6 245.9-218.7 274.3z" />
  </svg>
