
  <svg height="1000" width="1125.0" xmlns="http://www.w3.org/2000/svg">
    <path d="m1101.6 0c12.9 0 23.4 10.5 23.4 23.4v154.3c0 14.1-11.5 23.5-23.6 23.5-5.9 0-11.8-2.2-16.4-6.9l-33-33-95.2 95.1c27.4 43.4 43.2 94.8 43.2 149.9 0 155.2-126 281.2-281.2 281.2-65.9 0-126.4-22.5-174.3-60.4 27.6-32.6 48.9-70.3 62.7-111.5 28.3 28.9 68 46.9 111.6 46.9 86.1 0 156.2-70.1 156.2-156.2s-70.1-156.3-156.2-156.3c-43.8 0-83.3 18-111.6 46.9-13.8-41.2-35.3-78.9-62.7-111.5 48.1-37.7 108.4-60.4 174.3-60.4 55 0 106.4 15.8 149.8 43.2l95.1-95.2-33-33c-14.7-14.8-4.3-40 16.6-40h154.3z m-820.3 125c155.2 0 281.2 126 281.2 281.3 0 133.7-93.6 245.7-218.7 274.2v100.7h70.3c12.9 0 23.4 10.6 23.4 23.5v78.1c0 12.9-10.5 23.4-23.4 23.4h-70.3v70.4c0 12.9-10.6 23.4-23.5 23.4h-78.1c-12.9 0-23.4-10.5-23.4-23.4v-70.4h-70.4c-12.9 0-23.4-10.5-23.4-23.4v-78.1c0-12.9 10.5-23.5 23.4-23.5h70.4v-100.7c-125.2-28.4-218.8-140.5-218.8-274.2 0-155.3 126-281.3 281.3-281.3z m0 437.5c86.1 0 156.2-70.1 156.2-156.2s-70.1-156.3-156.2-156.3-156.3 70.1-156.3 156.3 70.1 156.2 156.3 156.2z" />
  </svg>
