<svg height="1000" width="1000" xmlns="http://www.w3.org/2000/svg"><path d="M562.5 343.8C562.5 188.5 436.5 62.5 281.3 62.5S0 188.5 0 343.8C0 477.5 93.6 589.6 218.8 618v100.8h-70.4c-12.9 0 -23.4 10.5 -23.4 23.4v78.1c0 12.9 10.5 23.5 23.4 23.5h70.4v70.3c0 12.9 10.5 23.4 23.4 23.4h78.1c12.9 0 23.5 -10.5 23.5 -23.4v-70.3h70.3c12.9 0 23.4 -10.6 23.4 -23.5v-78.1c0 -12.9 -10.5 -23.4 -23.4 -23.4h-70.3V618C468.9 589.6 562.5 477.5 562.5 343.8zm-437.5 0c0 -86.2 70.1 -156.3 156.3 -156.3s156.2 70.1 156.2 156.3S367.4 500 281.3 500 125 429.9 125 343.8zM781.3 618v100.8h70.3c12.9 0 23.4 10.5 23.4 23.4v78.1c0 12.9 -10.5 23.5 -23.4 23.5h-70.3v70.3c0 12.9 -10.6 23.4 -23.5 23.4h-78.1c-12.9 0 -23.4 -10.5 -23.4 -23.4v-70.3h-70.4c-12.9 0 -23.4 -10.6 -23.4 -23.5v-78.1c0 -12.9 10.5 -23.4 23.4 -23.4h70.4V618C614.8 608.6 577 590 544.5 564.6c27.4 -32.6 48.9 -70.3 62.7 -111.5C635.5 482 675 500 718.8 500 804.9 500 875 429.9 875 343.8S804.9 187.5 718.8 187.5c-43.6 0 -83.3 18 -111.6 46.9C593.4 193.2 572.1 155.5 544.5 122.9 592.6 85.2 652.9 62.5 718.8 62.5c155.2 0 281.2 126 281.2 281.3 0 133.7 -93.6 245.8 -218.7 274.2z"/></svg>