<svg height="1000" width="562.5" xmlns="http://www.w3.org/2000/svg"><path d="M562.5 343.8C562.5 188.5 436.5 62.5 281.3 62.5S0 188.5 0 343.8C0 477.5 93.6 589.6 218.8 618v100.8h-70.4c-12.9 0 -23.4 10.5 -23.4 23.4v78.1c0 12.9 10.5 23.5 23.4 23.5h70.4v70.3c0 12.9 10.5 23.4 23.4 23.4h78.1c12.9 0 23.5 -10.5 23.5 -23.4v-70.3h70.3c12.9 0 23.4 -10.6 23.4 -23.5v-78.1c0 -12.9 -10.5 -23.4 -23.4 -23.4h-70.3V618C468.9 589.6 562.5 477.5 562.5 343.8zm-437.5 0c0 -86.2 70.1 -156.3 156.3 -156.3s156.2 70.1 156.2 156.3S367.4 500 281.3 500 125 429.9 125 343.8z"/></svg>