
  <svg height="1000" width="1250.0" xmlns="http://www.w3.org/2000/svg">
    <path d="m140.6 125c-8.6 0-15.6-7-15.6-15.6v-93.8c0-8.6 7-15.6 15.6-15.6h406.3c8.6 0 15.6 7 15.6 15.6v93.8c0 8.6-7 15.6-15.6 15.6h-46.9v468.8c0 86.1-70.1 156.2-156.2 156.2s-156.3-70.1-156.3-156.2v-468.8h-46.9z m140.7 0v187.5h125v-187.5h-125z m937.5 750c17.1 0 31.2 14.1 31.2 31.3v62.5c0 17.1-14.1 31.2-31.2 31.2h-1187.5c-17.2 0-31.3-14.1-31.3-31.2v-62.5c0-17.2 14.1-31.3 31.3-31.3h1187.5z m-515.7-750c-8.6 0-15.6-7-15.6-15.6v-93.8c0-8.6 7-15.6 15.6-15.6h406.3c8.6 0 15.6 7 15.6 15.6v93.8c0 8.6-7 15.6-15.6 15.6h-46.9v468.8c0 86.1-70.1 156.2-156.2 156.2s-156.3-70.1-156.3-156.2v-468.8h-46.9z m140.7 0v187.5h125v-187.5h-125z" />
  </svg>
