<svg height="1000" width="1250" xmlns="http://www.w3.org/2000/svg"><path d="M140.6 125h46.9v468.8c0 86.1 70.1 156.2 156.3 156.2S500 679.9 500 593.8V125h46.9c8.6 0 15.6 -7 15.6 -15.6V15.6C562.5 7 555.5 0 546.9 0H140.6C132 0 125 7 125 15.6v93.8c0 8.6 7 15.6 15.6 15.6zm140.7 0h125v187.5h-125V125zm937.5 750H31.3C14.1 875 0 889.1 0 906.3v62.5c0 17.1 14.1 31.2 31.3 31.2h1187.5c17.1 0 31.2 -14.1 31.2 -31.2v-62.5c0 -17.2 -14.1 -31.3 -31.2 -31.3zM703.1 125H750v468.8c0 86.1 70.1 156.2 156.3 156.2s156.2 -70.1 156.2 -156.2V125h46.9c8.6 0 15.6 -7 15.6 -15.6V15.6C1125 7 1118 0 1109.4 0H703.1c-8.6 0 -15.6 7 -15.6 15.6v93.8c0 8.6 7 15.6 15.6 15.6zm140.7 0h125v187.5h-125V125z"/></svg>