
  <svg height="1000" width="1250.0" xmlns="http://www.w3.org/2000/svg">
    <path d="m1237.9 894.7c13.7 10.6 16.2 30.3 5.5 43.8l-38.3 49.4c-10.8 13.7-30.3 16-44 5.5l-348.6-269.6-729.1-563.6-71.3-55.1c-13.7-10.6-16-30.1-5.5-43.8l38.3-49.2c10.8-13.7 30.3-16 44-5.5l153.1 118.4h477.1c51.6 0 93.4 41.8 93.4 93.4v347.6l62.5 48.3v-268l214.1-147.7c41.6-28.5 98.4 0.6 98.4 50.4v502c0 34-27 58-57 60.7z m-1175.4-113.1v-479.5l714.5 552.4c-16.1 12.7-36 20.5-57.9 20.5h-563.2c-51.6 0-93.4-41.8-93.4-93.4z" />
  </svg>
