<svg height="1000" width="1000" xmlns="http://www.w3.org/2000/svg"><path d="M953.1 125h-15.6v39.1c0 12.9 -10.5 23.4 -23.4 23.4h-78.2c-12.9 0 -23.4 -10.5 -23.4 -23.4V125h-625v39.1c0 12.9 -10.5 23.4 -23.4 23.4H85.9C73 187.5 62.5 177 62.5 164.1V125H46.9C20.9 125 0 145.9 0 171.9v656.2c0 26 20.9 46.9 46.9 46.9h15.6v-39.1C62.5 823 73 812.5 85.9 812.5h78.2c12.9 0 23.4 10.5 23.4 23.4V875h625v-39.1c0 -12.9 10.5 -23.4 23.4 -23.4h78.2c12.9 0 23.4 10.5 23.4 23.4V875h15.6c26 0 46.9 -20.9 46.9 -46.9V171.9c0 -26 -20.9 -46.9 -46.9 -46.9zM187.5 726.6c0 12.9 -10.5 23.4 -23.4 23.4H85.9C73 750 62.5 739.5 62.5 726.6v-78.2C62.5 635.5 73 625 85.9 625h78.2c12.9 0 23.4 10.5 23.4 23.4v78.2zm0 -187.5c0 12.9 -10.5 23.4 -23.4 23.4H85.9C73 562.5 62.5 552 62.5 539.1v-78.2C62.5 448 73 437.5 85.9 437.5h78.2c12.9 0 23.4 10.5 23.4 23.4v78.2zm0 -187.5c0 12.9 -10.5 23.4 -23.4 23.4H85.9C73 375 62.5 364.5 62.5 351.6v-78.2C62.5 260.5 73 250 85.9 250h78.2c12.9 0 23.4 10.5 23.4 23.4v78.2zm531.3 406.2c0 12.9 -10.6 23.5 -23.5 23.5H304.7c-12.9 0 -23.4 -10.6 -23.4 -23.5V570.3c0 -12.9 10.5 -23.4 23.4 -23.4h390.6c12.9 0 23.5 10.5 23.5 23.4v187.5zm0 -328.1c0 12.9 -10.6 23.4 -23.5 23.4H304.7c-12.9 0 -23.4 -10.5 -23.4 -23.4V242.2c0 -12.9 10.5 -23.4 23.4 -23.4h390.6c12.9 0 23.5 10.5 23.5 23.4v187.5zm218.7 296.9c0 12.9 -10.5 23.4 -23.4 23.4h-78.2c-12.9 0 -23.4 -10.5 -23.4 -23.4v-78.2c0 -12.9 10.5 -23.4 23.4 -23.4h78.2c12.9 0 23.4 10.5 23.4 23.4v78.2zm0 -187.5c0 12.9 -10.5 23.4 -23.4 23.4h-78.2c-12.9 0 -23.4 -10.5 -23.4 -23.4v-78.2c0 -12.9 10.5 -23.4 23.4 -23.4h78.2c12.9 0 23.4 10.5 23.4 23.4v78.2zm0 -187.5c0 12.9 -10.5 23.4 -23.4 23.4h-78.2c-12.9 0 -23.4 -10.5 -23.4 -23.4v-78.2c0 -12.9 10.5 -23.4 23.4 -23.4h78.2c12.9 0 23.4 10.5 23.4 23.4v78.2z"/></svg>