<svg height="1000" width="1250" xmlns="http://www.w3.org/2000/svg"><path d="M1237.9 894.7l-107.4 -83c30 -2.7 57 -26.7 57 -60.7V249c0 -49.8 -56.8 -78.9 -98.4 -50.4L875 346.3v268L812.5 566V218.4c0 -51.6 -41.8 -93.4 -93.4 -93.4H242L88.9 6.6C75.2 -3.9 55.7 -1.6 44.9 12.1L6.6 61.3C-3.9 75 -1.6 94.5 12.1 105.1l71.3 55.1 729.1 563.6 348.6 269.6c13.7 10.5 33.2 8.2 44 -5.5l38.3 -49.4c10.7 -13.5 8.2 -33.2 -5.5 -43.8zM62.5 781.6c0 51.6 41.8 93.4 93.4 93.4h563.2c21.9 0 41.8 -7.8 57.9 -20.5L62.5 302.1v479.5z"/></svg>