
  <svg height="1000" width="1250.0" xmlns="http://www.w3.org/2000/svg">
    <path d="m1236.1 782.6c10.6 7.1 15 18.8 13.6 29.9-1.2 9.8-6.9 19-17 24.1l-107.7 38.4v93.8c0 17.2-14 31.2-31.2 31.2h-62.5c-17.3 0-31.3-14-31.3-31.2v-93.8h-312.5v93.8c0 17.2-14 31.2-31.2 31.2h-62.5c-17.3 0-31.3-14-31.3-31.2v-93.8h-312.5v93.8c0 17.2-14 31.2-31.2 31.2h-62.5c-17.3 0-31.3-14-31.3-31.2v-93.8l-107.7-38.4c-10.1-5.1-15.9-14.3-17.1-24.1-1.3-11.1 3.1-22.8 13.7-29.9l173.6-95.1v-125l-107.7-34.6c-23.1-11.5-23.1-44.3 0-55.8l232.7-97.1v-125l-53.3-31.9c-15.1-15-11-40.5 8.1-50l357.7-168.1 357.7 168.1c19.1 9.6 23.2 35 8.1 50.1l-53.3 31.8v125l232.7 97.1c23.1 11.5 23.1 44.3 0 55.8l-107.7 34.6v125z m-798.6-532.6v125h375v-125h-375z m-125 437.5h625v-125h-625v125z" />
  </svg>
