
  <svg height="1000" width="1250.0" xmlns="http://www.w3.org/2000/svg">
    <path d="m222.7 444.5c19.3-0.2 38.4-5.6 54.8-15.6l477.6 369.1c-41.4 14.7-74.6 52.4-74.6 104.3v42c0 30.7-24.8 55.5-55.5 55.5s-55.7-24.8-55.7-55.5v-42c0-99-119.7-148.4-189.6-78.5l-29.7 29.7c-1 1.2-2.1 2.2-3.1 3.1-22.5 20.7-57.8 19.4-78.5-3.1-20.7-22.4-19.4-57.6 3.1-78.5l29.7-29.9c70.1-69.9 20.5-189.6-78.5-189.6h-42.2c-30.7 0-55.5-24.8-55.5-55.5s24.8-55.5 55.5-55.5h42.2z m982.4 543.4c-10.6 13.7-30.3 16.2-43.8 5.7l-1149.2-888.1c-13.7-10.8-16-30.3-5.5-44l38.3-49.4c10.8-13.7 30.3-16 44-5.5l182 140.9c21.7-21.7 57.4-22.7 79.1-1l29.9 29.7c69.9 70.1 189.6 20.5 189.6-78.5v-42.2c0-30.7 24.8-55.5 55.5-55.5s55.5 24.8 55.7 55.7v42.2c0 99 119.7 148.4 189.6 78.5l29.7-29.7c21.3-19.7 54.1-19.7 75.4 0 22.6 20.9 24 56 3.1 78.5l-29.7 29.9c-70.1 69.9-20.5 189.6 78.5 189.6h42c30.7 0 55.5 24.8 55.5 55.5 0 30.7-24.8 55.5-55.5 55.5h-42c-59.5 0-100 43.1-108.2 92.7l318.8 246.1c13.7 10.8 16 30.3 5.5 44z m-550-543.6c0.2-2.3 1.1-4.5 1-6.8 0-51.8-42-93.7-93.8-93.7-10.2 0.1-20.5 2.1-30.1 5.6z" />
  </svg>
