
  <svg height="1000" width="1000.0" xmlns="http://www.w3.org/2000/svg">
    <path d="m944.4 444.4c0.4 0 0.7 0 1 0 30.7 0 55.6 24.9 55.6 55.6s-24.9 55.6-55.6 55.6c-0.3 0-0.7 0-1-0.1h-42.1c-99 0-148.6 119.7-78.6 189.7l29.8 29.8c9.1 9.9 14.7 23.1 14.7 37.6 0 30.7-24.9 55.6-55.6 55.6-14.5 0-27.7-5.6-37.6-14.7l-29.8-29.7c-70-70-189.6-20.4-189.6 78.5v42.1c0 30.6-24.9 55.5-55.6 55.5s-55.6-24.9-55.6-55.5v-42.1c0-99-119.6-148.6-189.6-78.6l-29.8 29.8c-9.9 9.1-23.1 14.7-37.6 14.7-30.7 0-55.6-24.9-55.6-55.6 0-14.5 5.6-27.7 14.7-37.6l29.7-29.8c70-70 20.4-189.7-78.5-189.7h-42.1c-0.4 0.1-0.7 0.1-1.1 0.1-30.7 0-55.6-24.9-55.6-55.6s24.9-55.6 55.6-55.6c0.4 0 0.7 0 1.1 0h42.1c99 0 148.6-119.6 78.6-189.6l-29.8-29.8c-9.3-9.9-14.9-23.3-14.9-37.9 0-30.6 24.9-55.5 55.6-55.5 14.6 0 27.9 5.6 37.8 14.9l29.8 29.7c70 70 189.6 20.4 189.6-78.5v-42.2c0-30.6 24.9-55.5 55.6-55.5s55.6 24.9 55.6 55.5v42.1c0 99 119.6 148.6 189.6 78.6l29.8-29.7c9.9-9.3 23.2-14.9 37.9-14.9 30.6 0 55.5 24.9 55.5 55.5 0 14.7-5.6 28-14.9 37.9l-29.7 29.8c-70 70-20.4 189.6 78.5 189.6h42.1z m-506.9 86.9c51.7 0 93.8-42.1 93.8-93.8s-42.1-93.7-93.8-93.7-93.7 42-93.7 93.7 42 93.8 93.7 93.8z m156.3 109.3c25.8 0 46.8-21 46.8-46.8s-21-46.9-46.8-46.9-46.9 21-46.9 46.9 21 46.8 46.9 46.8z" />
  </svg>
