
  <svg height="1000" width="1250.0" xmlns="http://www.w3.org/2000/svg">
    <path d="m1218.8 687.5c17.2 0 31.2 14 31.2 31.3s-14 31.2-31.2 31.2h-23.7c-55.7 0-83.6 67.3-44.2 106.7l16.7 16.7c5.7 5.7 9.2 13.5 9.2 22.1 0 17.3-14 31.3-31.3 31.3-8.6 0-16.4-3.5-22.1-9.2l-16.7-16.7c-39.4-39.4-106.7-11.5-106.7 44.2v23.7c0 17.2-14 31.2-31.3 31.2s-31.2-14-31.2-31.2v-23.7c0-55.7-67.3-83.6-106.7-44.2l-16.7 16.7c-5.7 5.7-13.5 9.2-22.1 9.2-17.3 0-31.3-14-31.3-31.3 0-8.6 3.5-16.4 9.2-22.1l16.7-16.7c39.4-39.4 11.5-106.7-44.2-106.7h-23.7c-17.2 0-31.2-14-31.2-31.2s14-31.3 31.2-31.3h23.7c55.7 0 83.6-67.3 44.2-106.7l-16.7-16.7c-5.7-5.7-9.2-13.5-9.2-22.1 0-17.3 14-31.3 31.3-31.3 8.6 0 16.4 3.5 22.1 9.2l16.7 16.7c39.4 39.4 106.7 11.5 106.7-44.2v-23.7c0-17.2 14-31.2 31.2-31.2s31.3 14 31.3 31.2v23.7c0 55.7 67.3 83.6 106.7 44.2l16.7-16.7c5.7-5.7 13.5-9.2 22.1-9.2 17.3 0 31.3 14 31.3 31.3 0 8.6-3.5 16.4-9.2 22.1l-16.7 16.7c-39.4 39.4-11.5 106.7 44.2 106.7h23.7z m-281.3 62.5c34.5 0 62.5-28 62.5-62.5s-28-62.5-62.5-62.5-62.5 28-62.5 62.5 28 62.5 62.5 62.5z m-260.7-333.3c-74.3 0-111.4 89.7-58.9 142.2l22.3 22.3c7.5 7.6 12.2 18 12.2 29.5 0 23-18.7 41.7-41.7 41.7-11.5 0-21.9-4.7-29.5-12.2l-22.3-22.3c-52.4-52.5-142.2-15.3-142.2 58.9v31.5c0 23-18.7 41.7-41.7 41.7s-41.7-18.7-41.7-41.7v-31.5c0-74.3-89.7-111.4-142.2-58.9l-22.3 22.3c-7.6 7.5-18 12.2-29.5 12.2-23 0-41.7-18.7-41.7-41.7 0-11.5 4.7-21.9 12.2-29.5l22.3-22.3c52.5-52.4 15.3-142.2-58.9-142.2h-31.5c-23 0-41.7-18.7-41.7-41.7s18.7-41.7 41.7-41.7h31.5c74.3 0 111.4-89.7 58.9-142.2l-22.3-22.4c-7.5-7.5-12.1-17.9-12.1-29.3 0-23 18.7-41.7 41.7-41.7 11.4 0 21.8 4.6 29.4 12.1l22.3 22.3c52.4 52.5 142.2 15.3 142.2-58.9v-31.5c0-23 18.7-41.7 41.7-41.7s41.7 18.7 41.7 41.7v31.5c0 74.3 89.7 111.4 142.2 58.9l22.3-22.3c7.6-7.5 18-12.1 29.4-12.1 23 0 41.7 18.7 41.7 41.7 0 11.4-4.6 21.8-12.1 29.3l-22.3 22.4c-52.5 52.4-15.3 142.2 58.9 142.2h31.5c23 0 41.7 18.7 41.7 41.7s-18.7 41.7-41.7 41.7h-31.5z m-364.3-41.7c34.5 0 62.5-28 62.5-62.5s-28-62.5-62.5-62.5-62.5 28-62.5 62.5 28 62.5 62.5 62.5z m156.3 62.5c17.2 0 31.2-14 31.2-31.2s-14-31.3-31.2-31.3-31.3 14-31.3 31.3 14 31.2 31.3 31.2z" />
  </svg>
