
  <svg height="1000" width="1250.0" xmlns="http://www.w3.org/2000/svg">
    <path d="m968.8 250c155.2 0 281.2 126 281.2 281.3s-126 281.2-281.2 281.2h-687.5c-155.3 0-281.5-125.7-281.5-281 0-155.2 126.1-281.2 281.3-281.2 155.2 0 281.2 126 281.2 281.2 0 57.7-17.4 111.4-47.2 156h219.8c-29.8-44.6-47.4-98.6-47.4-156.2 0-155.3 126-281.3 281.3-281.3z m-843.8 281.3c0 86.2 70 156.2 156.3 156.2s156.2-70 156.2-156.2-70-156.3-156.2-156.3-156.3 70-156.3 156.3z m843.8 156.2c86.2 0 156.2-70 156.2-156.2s-70-156.3-156.2-156.3-156.3 70-156.3 156.3 70 156.2 156.3 156.2z" />
  </svg>
