
  <svg height="1000" width="1000.0" xmlns="http://www.w3.org/2000/svg">
    <path d="m451.9 475.5c-137 84.3-239.9 217.4-285.3 375.4-47.1-44.6-84.9-98.1-111.2-158.4 44.6-184.3 174.9-340.6 352.2-423.4 27 63.5 42.8 133.5 44.3 206.4z m-72-262.5c-164.1 77.2-291.1 211.8-356.3 374.1-38.7-213.5 66.4-414.9 244.2-512.1 44.6 39.7 82.1 85.9 112.1 138z m366.4 322.5c-71.7-8.7-140.4-31.5-201-64.8-4.6-168.6-73.3-321.7-182.6-435 92.4-27.3 164.4-19.9 193.1-16.6 137.2 130.7 207.3 321.5 190.5 516.4z m-243.6 18.6c97.1 52.3 203.1 79.7 309.8 79.8 54.5-0.3 107.3-7.4 158-20.3-15.5 64.3-44.1 124.2-82.4 175.6-181.7 53.3-381.9 18.6-542-93.3 42.8-57 95.5-104.7 156.6-141.8z m-192 194.7c104.7 72.8 281.3 152.7 501.8 121.3-84.1 71.3-193.8 114.1-312.6 114.1-92.3 0-178.5-25.9-251.9-71 12.5-58.2 33-113.6 62.7-164.4z m352.2-704.3c187.3 67 321.5 245.3 321.5 455.8 0 4-0.6 7.9-0.6 11.8-54.8 17.9-113.3 27.7-174 27.7-0.4 0-0.8 0-1.2 0 15.4-180.5-37.7-357.8-145.7-495.3z" />
  </svg>
