<svg height="1000" width="968.6" xmlns="http://www.w3.org/2000/svg"><path d="M436.1 475.4C434.4 403.1 419.3 333.2 391.8 268.9 214.5 351.8 84.2 508 39.6 692.4c26.2 60.1 64.3 113.9 111.2 158.4C195.1 696.1 295.7 562.1 436.1 475.4zm-72 -262.5C334.8 161.3 296.7 115 252 74.8 74.2 172.1 -30.9 373.4 7.8 586.9 73 424.6 200 290 364.1 212.9zm366.4 322.5C747.3 340.4 677.1 149.6 540 18.9 511.3 15.6 439.3 8.2 346.9 35.5c111.9 115.9 177.7 270 182.6 435 63.5 34.6 131.4 56.6 201 64.9zm-243.6 18.5c-61.7 37.7 -114.6 85.7 -156.6 141.8 160.1 111.9 360.3 146.7 542 93.4 38.4 -51.6 66.8 -111 82.4 -175.6 -52 12.9 -104.9 20.3 -158 20.3C690 633.6 584 606.3 486.9 553.9zm-192 194.7c-29.7 50.8 -50.2 106.3 -62.7 164.5 73.5 44.9 159.6 71.3 252.2 71.3 119.1 0 227.9 -43.2 312.3 -114.5C576.2 901.4 399.6 821.5 294.9 748.6zM647.1 44.3c108 137.5 161.1 314.9 145.7 495.3C852 540 910.9 530.3 968 511.9c0 -3.9 .6 -7.8 .6 -11.7C968.6 289.6 834.4 111.3 647.1 44.3z"/></svg>