<svg height="1000" width="1125" xmlns="http://www.w3.org/2000/svg"><path d="M500 171.9v656.2c0 41.9 -50.7 62.5 -80 33.1L246.2 687.5H46.9C21 687.5 0 666.5 0 640.6V359.4c0 -25.9 21 -46.9 46.9 -46.9h199.3L420 138.8c29.3 -29.4 80 -8.8 80 33.1zM855.6 19.8c-29.5 -18 -67.9 -8.7 -85.9 20.7 -18.1 29.5 -8.8 67.9 20.7 85.9C916 203.2 1000 341.8 1000 500c0 143.4 -70.5 277.9 -188.5 359.8 -28.4 19.6 -35.4 58.6 -15.7 87 19.7 28.3 58.6 35.4 86.9 15.7C1034.4 857.3 1125 684.4 1125 500 1125 298.4 1018.4 119.4 855.6 19.8zM937.5 500c0 -133.9 -70.6 -253.5 -179.6 -320.1 -29.4 -18 -67.9 -8.8 -85.9 20.7 -18 29.4 -8.8 67.9 20.7 85.9 75 45.9 119.8 125.7 119.8 213.5 0 82 -40.3 158.8 -107.7 205.6 -28.4 19.7 -35.4 58.6 -15.8 87 12.2 17.5 31.6 26.9 51.4 26.9A62.2 -62.2 0 0 1 776 808.3C877.1 738.2 937.5 622.9 937.5 500zM750 500c0 -65.9 -33.6 -125.7 -89.8 -160 -29.4 -18 -67.9 -8.8 -85.9 20.7s-8.7 67.9 20.7 85.9c18.8 11.5 30 31.4 30 53.4a62.6 -62.6 0 0 0 -27 51.4c-28.3 19.7 -35.4 58.6 -15.7 87s58.6 35.4 87 15.8C719.8 619.1 750 561.5 750 500z"/></svg>