
  <svg height="1000" width="1125.0" xmlns="http://www.w3.org/2000/svg">
    <path d="m420 138.8c29.3-29.3 80-8.8 80 33.1v656.2c0 41.9-50.7 62.5-80 33.1l-173.8-173.7h-199.3c-25.9 0-46.9-21-46.9-46.9v-281.2c0-25.9 21-46.9 46.9-46.9h199.3z m455.7-99.8c156.1 102.5 249.3 274.8 249.3 461s-93.2 358.6-249.3 461c-22.6 14.9-51.7 7.4-65.5-13.6-14.3-21.8-8.2-51.1 13.6-65.4 129.4-84.9 206.7-227.7 206.7-382 0-154.2-77.3-297-206.7-382-21.8-14.3-27.9-43.6-13.6-65.4 14.4-21.9 43.7-27.9 65.5-13.6z m61.8 461c0 124.1-62.6 238.2-167.5 305.2-23.5 15-52 5.6-64.7-14.6-13.9-22.1-7.4-51.2 14.5-65.2 77.6-49.6 124-133.8 124-225.4s-46.4-175.8-124-225.4c-21.9-14-28.4-43.2-14.5-65.2 13.8-22 42.8-28.5 64.7-14.6 104.9 67 167.5 181.1 167.5 305.2z m-276.9-150.1c55.2 30.3 89.4 87.8 89.4 150.1s-34.2 119.8-89.4 150.1c-22.6 12.4-51.1 4.4-63.7-18.4-12.4-22.7-4.2-51.2 18.5-63.7 25.2-13.9 40.8-39.9 40.8-68 0-28.1-15.6-54.1-40.8-68-22.7-12.5-31-41-18.5-63.7 12.6-22.7 41.1-30.8 63.7-18.4z" />
  </svg>
