
  <svg height="1000" width="1000.0" xmlns="http://www.w3.org/2000/svg">
    <path d="m420 138.8c29.3-29.3 80-8.8 80 33.1v656.2c0 41.9-50.7 62.5-80 33.1l-173.8-173.7h-199.3c-25.9 0-46.9-21-46.9-46.9v-281.2c0-25.9 21-46.9 46.9-46.9h199.3z m481.6 361.2l89.2 89.1c12.3 12.3 12.3 32.3 0 44.6l-44.6 44.6c-12.3 12.3-32.3 12.3-44.6 0l-89.1-89.2-89.1 89.2c-12.3 12.3-32.3 12.3-44.6 0l-44.6-44.6c-12.3-12.3-12.3-32.3 0-44.6l89.2-89.1-89.2-89.1c-12.3-12.3-12.3-32.3 0-44.6l44.6-44.6c12.3-12.3 32.3-12.3 44.6 0l89.1 89.2 89.1-89.2c12.3-12.3 32.3-12.3 44.6 0l44.6 44.6c12.3 12.3 12.3 32.3 0 44.6z" />
  </svg>
