
  <svg height="1000" width="1250.0" xmlns="http://www.w3.org/2000/svg">
    <path d="m1187.5 625c34.6 0 62.5 27.9 62.5 62.5v187.5c0 34.6-27.9 62.5-62.5 62.5h-1125c-34.6 0-62.5-27.9-62.5-62.5v-187.5c0-34.6 27.9-62.5 62.5-62.5h125v125h-43.8c-10.3 0-18.7 7-18.7 15.6v31.3c0 8.6 8.4 15.6 18.7 15.6h962.6c10.3 0 18.7-7 18.7-15.6v-31.3c0-8.6-8.4-15.6-18.7-15.6h-43.8v-125h125z m-187.5 125h-750v-624.4c0-34.8 28.3-63.1 63.3-63.1h623.6c34.8 0 63.1 28.1 63.1 63.1v624.4z m-587.5-355.5c-8.2 8.2-8.4 21.5 0 29.7l144.7 145.9c8.2 8.4 21.5 8.4 29.7 0.2l250.6-248.4c8.4-8.2 8.4-21.5 0.2-29.7l-49.4-49.8c-8.2-8.4-21.5-8.4-29.7-0.2l-185.9 184.4-80.7-81.3c-8.2-8.4-21.5-8.4-29.7-0.2z" />
  </svg>
