
  <svg height="1000" width="1250.0" xmlns="http://www.w3.org/2000/svg">
    <path d="m1187.5 125c34.5 0 62.5 28 62.5 62.5v625c0 34.5-28 62.5-62.5 62.5h-312.9c-49.2 0-93.8-28.8-114-73.7l-54.2-120.4c-15.4-34.3-46.9-55.9-81.4-55.9s-66 21.6-81.4 55.9l-54.2 120.4c-20.2 44.9-64.8 73.7-114 73.7h-312.9c-34.5 0-62.5-28-62.5-62.5v-625c0-34.5 28-62.5 62.5-62.5h1125z m-875 468.8c69 0 125-56 125-125s-56-125-125-125-125 55.9-125 125 56 125 125 125z m625 0c69 0 125-56 125-125s-56-125-125-125-125 55.9-125 125 56 125 125 125z" />
  </svg>
