<svg height="1000" width="625" xmlns="http://www.w3.org/2000/svg"><path d="M406.3 187.5c51.7 0 93.7 -42 93.7 -93.7S458 0 406.3 0s-93.8 42 -93.8 93.8 42 93.7 93.8 93.7zm184.5 291.2l-45.5 -23 -18.9 -57.5C497.7 311.1 417.6 250.2 326.8 250c-70.4 -.2 -109.2 19.7 -182.3 49.2 -42.2 17 -76.7 49.2 -97 90.3L34.4 416c-15.3 30.9 -3 68.4 27.7 83.8 30.5 15.4 67.6 2.9 83 -27.9l13.1 -26.6c6.8 -13.7 18.2 -24.4 32.2 -30.1l52.4 -21.1 -29.7 118.6c-10.2 40.6 .8 83.8 29.1 114.8l117 127.8c14 15.4 24 34 29.1 54.1L424 952.5c8.4 33.4 42.4 53.9 75.8 45.5 33.4 -8.4 53.9 -42.3 45.5 -75.7L502 748.4c-5.1 -20.1 -15.1 -38.8 -29.1 -54.1l-88.9 -97 33.6 -134.2 10.7 32.2c10.4 31.5 32.6 57.4 61.9 72.3l45.5 23c30.5 15.5 67.6 3 83.1 -27.9 15 -30.7 2.7 -68.6 -28 -84zm-447 274.8c-6.3 15.8 -15.7 30.1 -27.8 42l-97.6 97.9c-24.5 24.4 -24.5 64 0 88.4s63.8 24.5 88.2 0l116.1 -116c11.9 -11.9 21.2 -26.2 27.7 -42l26.4 -66C168.8 640 201.2 676.2 184.2 652.9l-40.4 100.6z"/></svg>