<svg height="1000" width="1250" xmlns="http://www.w3.org/2000/svg"><path d="M984.4 687.5h-718c-8.6 0 -15.6 7 -15.6 15.6l-.2 93.8c0 8.6 7 15.6 15.6 15.6h718.2c8.6 0 15.6 -7 15.6 -15.6v-93.8c0 -8.6 -7 -15.6 -15.6 -15.6zm0 187.5H265.8c-8.6 0 -15.6 7 -15.6 15.6l-.2 93.8c0 8.6 7 15.6 15.6 15.6h718.8c8.6 0 15.6 -7 15.6 -15.6v-93.8C1000 882 993 875 984.4 875zm0 -375H266.8c-8.6 0 -15.6 7 -15.6 15.6l-.2 93.8c0 8.6 7 15.6 15.6 15.6h717.8c8.6 0 15.6 -7 15.6 -15.6v-93.8C1000 507 993 500 984.4 500zm208 -271.5L660.9 7.2a94 -94 0 0 1 -72 0L57.6 228.5C22.9 243.2 0 277.1 0 315v669.4c0 8.6 7 15.6 15.6 15.6h156.3c8.6 0 15.6 -7 15.6 -15.6V500c0 -34.4 28.5 -62.5 63.7 -62.5h747.6c35.2 0 63.7 28.1 63.7 62.5v484.4c0 8.6 7 15.6 15.6 15.6h156.3c8.6 0 15.6 -7 15.6 -15.6V315c0 -37.9 -22.9 -71.8 -57.6 -86.5z"/></svg>