
  <svg height="1000" width="1250.0" xmlns="http://www.w3.org/2000/svg">
    <path d="m984.4 687.5c8.6 0 15.6 7 15.6 15.6v93.8c0 8.6-7 15.6-15.6 15.6h-718.2c-8.6 0-15.6-7-15.6-15.6l0.2-93.8c0-8.6 7-15.6 15.6-15.6h718z m0 187.5c8.6 0 15.6 7 15.6 15.6v93.8c0 8.6-7 15.6-15.6 15.6h-718.8c-8.6 0-15.6-7-15.6-15.6l0.2-93.8c0-8.6 7-15.6 15.6-15.6h718.6z m0-375c8.6 0 15.6 7 15.6 15.6v93.8c0 8.6-7 15.6-15.6 15.6h-717.8c-8.6 0-15.6-7-15.6-15.6l0.2-93.8c0-8.6 7-15.6 15.6-15.6h717.6z m208-271.5c34.7 14.7 57.6 48.6 57.6 86.5v669.4c0 8.6-7 15.6-15.6 15.6h-156.3c-8.6 0-15.6-7-15.6-15.6v-484.4c0-34.4-28.5-62.5-63.7-62.5h-747.6c-35.2 0-63.7 28.1-63.7 62.5v484.4c0 8.6-7 15.6-15.6 15.6h-156.3c-8.6 0-15.6-7-15.6-15.6v-669.4c0-37.9 22.9-71.8 57.6-86.5l531.3-221.3c11.1-4.6 23.3-7.1 36.1-7.1s24.9 2.5 35.9 7.1z" />
  </svg>
