
  <svg height="1000" width="1000.0" xmlns="http://www.w3.org/2000/svg">
    <path d="m875 125c68.9 0 125 56.1 125 125v625c0 68.9-56.1 125-125 125h-750c-68.9 0-125-56.1-125-125v-625c0-68.9 56.1-125 125-125h50.7c-32 55.2-50.7 119.2-50.7 187.5 0 206.8 168.2 375 375 375s375-168.2 375-375c0-68.3-18.7-132.3-50.7-187.5h50.7z m-375 500c-172.6 0-312.5-139.9-312.5-312.5s139.9-312.5 312.5-312.5 312.5 139.9 312.5 312.5-139.9 312.5-312.5 312.5z m-0.6-296.8c-42.8 0.4-77.5 35.1-77.5 78.1 0 43.1 35 78.1 78.1 78.1s78.1-35 78.1-78.1c0-20.7-8.3-39.1-21.4-53.1l65.8-153.4c6.8-15.9-0.6-34.2-16.4-41-15.8-6.9-34.3 0.4-41.1 16.4z" />
  </svg>
