<svg height="1000" width="1000" xmlns="http://www.w3.org/2000/svg"><path d="M875 125h-50.7c32 55.2 50.7 119.2 50.7 187.5 0 206.8 -168.2 375 -375 375S125 519.3 125 312.5c0 -68.3 18.7 -132.3 50.7 -187.5H125C56.1 125 0 181.1 0 250v625c0 68.9 56.1 125 125 125h750c68.9 0 125 -56.1 125 -125V250c0 -68.9 -56.1 -125 -125 -125zM500 625c172.6 0 312.5 -139.9 312.5 -312.5S672.6 0 500 0 187.5 139.9 187.5 312.5 327.4 625 500 625zm-.6 -296.8l65.6 -153c6.8 -16 25.3 -23.3 41.1 -16.4 15.8 6.8 23.2 25.1 16.4 41l-65.8 153.4c13.1 14 21.4 32.4 21.4 53.1 0 43.1 -35 78.1 -78.1 78.1s-78.1 -35 -78.1 -78.1c0 -43 34.7 -77.7 77.5 -78.1z"/></svg>