<svg height="1000" width="1000" xmlns="http://www.w3.org/2000/svg"><path d="M968.9 753.3l27.8 55.9c7.7 15.5 1.4 34.3 -14.1 41.9l-127.8 64.3c-31.4 15.5 -69.5 2.3 -84.4 -29.4L647.8 625H375c-31.1 0 -57.5 -22.9 -61.9 -53.7C246.9 108 250.7 136.8 250 125 250 54 309.2 -3.2 381 .1c64.9 3.1 117.2 56.5 119 121.5 1.7 64.3 -45.3 118 -106.7 127.1l9.1 63.8h253.9c17.2 0 31.2 14 31.2 31.3v62.5c0 17.2 -14 31.2 -31.2 31.2h-236l8.9 62.5h258.3a62.5 -62.5 0 0 0 56.6 35.9L856.4 775l70.7 -35.8c15.4 -7.7 34.2 -1.4 41.8 14.1zM608.1 687.5h-47.8C545 793.4 453.8 875 343.8 875 223.1 875 125 776.9 125 656.3c0 -81.1 44.3 -152 110 -189.8C227.8 415.8 221.6 373 216.5 336.9 89.8 387.6 0 511.6 0 656.3 0 845.8 154.2 1000 343.8 1000c140.3 0 261.3 -84.6 314.6 -205.5l-50.3 -107z"/></svg>