
  <svg height="1000" width="1000.0" xmlns="http://www.w3.org/2000/svg">
    <path d="m968.9 753.3l27.8 55.9c7.7 15.5 1.4 34.3-14.1 41.9l-127.8 64.3c-31.4 15.5-69.5 2.3-84.4-29.4l-122.6-261h-272.8c-31.1 0-57.5-22.9-61.9-53.7-66.2-463.3-62.4-434.5-63.1-446.3 0-71 59.2-128.2 131-124.9 64.9 3.1 117.2 56.5 119 121.5 1.7 64.3-45.3 118-106.7 127.1l9.1 63.8h253.9c17.2 0 31.2 14 31.2 31.3v62.5c0 17.2-14 31.2-31.2 31.2h-236l8.9 62.5h258.3c25 0 46.6 14.7 56.6 35.9l112.3 239.1 70.7-35.8c15.4-7.7 34.2-1.4 41.8 14.1z m-360.8-65.8l50.3 107c-53.3 120.9-174.3 205.5-314.6 205.5-189.6 0-343.8-154.2-343.8-343.8 0-144.6 89.8-268.6 216.5-319.3 5.1 36.1 11.3 78.9 18.5 129.6-65.7 37.8-110 108.7-110 189.7 0 120.7 98.1 218.8 218.8 218.8 110 0 201.2-81.6 216.5-187.5h47.8z" />
  </svg>
