
  <svg height="1000" width="1250.0" xmlns="http://www.w3.org/2000/svg">
    <path d="m1240.1 302.5c13 12 13.2 32.4 0.7 44.9l-66.9 66.3c-12 11.9-31.3 12.2-43.8 0.8-285-261.2-725.2-261.1-1010.2 0-12.5 11.4-31.8 11.1-43.8-0.8l-66.8-66.3c-12.6-12.5-12.4-32.9 0.6-44.9 345.9-319.9 884.1-320.1 1230.2 0z m-615.1 385c69 0 125 56 125 125s-56 125-125 125-125-56-125-125 56-125 125-125z m395.8-163.3c13.5 11.9 13.9 32.6 1.1 45.3l-67.2 66.3c-11.8 11.6-30.6 12.4-43.1 1.6-163.6-141.4-409.3-141.7-573.2 0-12.5 10.8-31.4 10-43.1-1.6l-67.3-66.3c-12.7-12.7-12.3-33.3 1.2-45.3 224.8-198.8 566.5-199 791.6 0z" />
  </svg>
