<svg height="1000" width="1250" xmlns="http://www.w3.org/2000/svg"><path d="M750 812.5c0 69 -56 125 -125 125s-125 -56 -125 -125 56 -125 125 -125 125 56 125 125zm266.9 -243.1c12.6 -12.6 12.2 -33.3 -1.1 -45.2C793.6 325 456.2 325.2 234.2 524.2c-13.3 11.9 -13.7 32.6 -1.1 45.2l66.4 66.5c11.6 11.5 30.2 12.3 42.5 1.5 161.9 -141.8 404.5 -141.5 566 0 12.3 10.8 30.9 10 42.5 -1.5l66.4 -66.5zm219 -222.1c12.4 -12.4 12.2 -32.8 -.7 -44.8C891.9 -17.6 358 -17.4 14.8 302.5c-12.9 12 -13.1 32.4 -.7 44.8l66.4 66.4c11.9 11.9 31 12.2 43.4 .7 282.7 -261 719.4 -261.1 1002.2 0 12.4 11.5 31.5 11.2 43.4 -.7l66.4 -66.4z"/></svg>