<svg height="1000" width="1000" xmlns="http://www.w3.org/2000/svg"><path d="M906.3 62.5H93.8C42 62.5 0 104.5 0 156.3v687.5c0 51.7 42 93.7 93.8 93.7h812.5c51.7 0 93.7 -42 93.7 -93.7V156.3c0 -51.8 -42 -93.8 -93.7 -93.8zM743 629.9c9.3 9.4 9.3 24.6 0 34L663.9 743c-9.4 9.3 -24.6 9.3 -34 0L500 611.9 370.1 743c-9.4 9.3 -24.6 9.3 -34 0L257 663.9c-9.3 -9.4 -9.3 -24.6 0 -34L388.1 500 257 370.1c-9.3 -9.4 -9.3 -24.6 0 -34L336.1 257c9.4 -9.3 24.6 -9.3 34 0L500 388.1 629.9 257c9.4 -9.3 24.6 -9.3 34 0l79.1 79.1c9.3 9.4 9.3 24.6 0 34L611.9 500 743 629.9z"/></svg>