
  <svg height="1000" width="1000.0" xmlns="http://www.w3.org/2000/svg">
    <path d="m306.1 500c95.1 0 180.2 68.4 192.1 162.9 14.7 114.2-74.4 212.1-185.9 212.1-91 0-167.2-65.4-184-151.6-3.5-18.7 11.9-35.9 31.1-35.9h64c12.9 0 25.6 7.4 29.7 19.7 8.4 24.8 31.9 42.8 59.4 42.8 38.1 0 68.2-34 61.7-73-5.1-30.7-34.2-52-65.2-52h-277.7c-17.2 0-31.3-14.1-31.3-31.2v-62.5c0-17.2 14.1-31.3 31.3-31.3h274.8z m-274.8-62.5c-17.2 0-31.3-14.1-31.3-31.2v-62.5c0-17.2 14.1-31.3 31.3-31.3h652.7c31.2 0 60.1-21.3 65.2-52 6.5-39-23.8-73-61.7-73-27.5 0-51 18-59.4 42.8-4.1 12.3-16.6 19.7-29.7 19.7h-64c-19 0-34.6-17-30.9-35.7 19.2-98.9 116.2-170.2 224.4-147.5 70.7 14.8 128 72.1 142.8 142.8 25.4 120.9-66.6 227.9-183.2 227.9h-656.3z m750 62.5c137.6 0 246 127.9 212.6 270.9-18.7 80.3-84.9 144.5-165.4 161.5-115 24.4-218-42.4-252.7-141.2-7.2-20.1 8.6-41.2 29.9-41.2h66c11.3 0 22.6 5.1 28.3 14.8 16.2 28.4 46.3 47.7 81.3 47.7 51.7 0 93.7-42 93.7-93.8s-42-93.7-93.7-93.7h-227.6c-12.9-49.2-40-92.6-77.7-125h305.3z" />
  </svg>
