
  <svg height="1000" width="1000.0" xmlns="http://www.w3.org/2000/svg">
    <path d="m906.3 62.5c51.7 0 93.7 42 93.7 93.8v687.5c0 51.7-42 93.7-93.7 93.7h-812.5c-51.8 0-93.8-42-93.8-93.7v-687.5c0-51.8 42-93.8 93.8-93.8h812.5z m-163.3 567.4l-131.1-129.9 131.1-129.9c9.3-9.4 9.3-24.6 0-34l-79.1-79.1c-9.4-9.3-24.6-9.3-34 0l-129.9 131.1-129.9-131.1c-9.4-9.3-24.6-9.3-34 0l-79.1 79.1c-9.3 9.4-9.3 24.6 0 34l131.1 129.9-131.1 129.9c-9.3 9.4-9.3 24.6 0 34l79.1 79.1c9.4 9.3 24.6 9.3 34 0l129.9-131.1 129.9 131.1c9.4 9.3 24.6 9.3 34 0l79.1-79.1c9.3-9.4 9.3-24.6 0-34z" />
  </svg>
