
  <svg height="1000" width="1125.0" xmlns="http://www.w3.org/2000/svg">
    <path d="m1101.6 375h-122.5l-14.5 62.5h137c12.9 0 23.4 10.5 23.4 23.4v78.2c0 12.9-10.5 23.4-23.4 23.4h-165.9l-82.2 356.8c-2.5 10.6-11.9 18.2-22.8 18.2h-111c-10.9 0-20.3-7.6-22.8-18.2l-82.8-356.8h-107.7l-82.6 356.8c-2.5 10.6-11.9 18.2-22.8 18.2h-111c-10.9 0-20.5-7.6-22.8-18.4l-79.9-356.6h-163.9c-12.9 0-23.4-10.5-23.4-23.4v-78.2c0-12.9 10.5-23.4 23.4-23.4h135.8l-14.1-62.5h-121.7c-12.9 0-23.4-10.5-23.4-23.4v-78.2c0-12.9 10.5-23.4 23.4-23.4h93.8l-35.4-157.6c-3.3-14.7 7.8-28.5 22.9-28.5h82.2c11.1 0 20.9 7.8 23.1 18.7l34.1 167.4h212.3l39.1-168c2.5-10.7 11.9-18.1 22.9-18.1h85.9c10.9 0 20.3 7.4 22.8 18.1l38.5 168h214.7l28.1-167.6c2.1-10.7 11.7-18.5 22.8-18.5h90.1c15 0 26.2 14 22.8 28.7l-36.3 157.4h93.8c12.9 0 23.4 10.5 23.4 23.4v78.2c0 12.9-10.5 23.4-23.4 23.4z m-742.6 293l24.6-105.5h-75.8l21.5 105.5c10 49.2 13.3 92.2 13.3 92.2h2.1c1 0 2.2-41.8 14.3-92.2z m53.7-230.5l14.6-62.5h-157.8l12.7 62.5h130.5z m122.8 0h49.7l-4-16.8c-3.7-15.6-6.8-31.2-9.3-45.7h-23.1c-2.5 14.5-5.6 30.1-9.3 45.7z m255.7 230.5l22.5-105.5h-76.4l24.2 105.5c12.1 50.4 13.1 92.2 14.3 92.2h2.1s3.4-43 13.3-92.2z m49.2-230.5l13.5-62.5h-159.4l14.3 62.5h131.6z" />
  </svg>
