<svg height="1000" width="1125" xmlns="http://www.w3.org/2000/svg"><path d="M1101.6 375c12.9 0 23.4 -10.5 23.4 -23.4v-78.2c0 -12.9 -10.5 -23.4 -23.4 -23.4h-93.8L1044 92.6c3.4 -14.7 -7.7 -28.7 -22.8 -28.7h-90.1a23.4 -23.4 0 0 1 -22.9 18.5L880.3 250H665.7L627.2 82.1A23.4 -23.4 0 0 1 604.3 63.9h-85.9A23.4 -23.4 0 0 1 495.6 82l-39.2 168H244.1L210 82.6A23.4 -23.4 0 0 1 187 63.9h-82.3c-15 0 -26.1 13.9 -22.8 28.5L117.2 250H23.4C10.5 250 0 260.5 0 273.4v78.2C0 364.5 10.5 375 23.4 375h121.8l14 62.5H23.4C10.5 437.5 0 448 0 460.9v78.2c0 12.9 10.5 23.4 23.4 23.4h163.8l80 356.7a23.4 -23.4 0 0 1 22.8 18.3h110.9c10.9 0 20.4 -7.5 22.8 -18.1l82.8 -356.9h107.6l82.8 356.9a23.4 -23.4 0 0 1 22.8 18.1h111a23.4 -23.4 0 0 1 22.8 -18.2l82.3 -356.8h165.8c12.9 0 23.4 -10.5 23.4 -23.4v-78.2c0 -12.9 -10.5 -23.4 -23.4 -23.4h-137L979 375h122.6zm-832 0h157.7l-14.6 62.5H282.3L269.6 375zM359 668c-12.1 50.5 -13.2 92.3 -14.3 92.3h-2.2S339.2 717.2 329.3 668L307.8 562.5h75.8L359 668zM535.5 437.5l3.9 -16.8c3.6 -15.6 6.8 -31.2 9.4 -45.7h23c2.7 14.5 5.8 30.1 9.4 45.7l3.9 16.8h-49.6zM791.3 668c-9.9 49.2 -13.2 92.3 -13.2 92.3h-2.2c-1.1 0 -2.2 -41.8 -14.3 -92.3L737.4 562.5h76.4L791.3 668zm49.1 -230.5H708.7L694.4 375h159.3l-13.3 62.5z"/></svg>