<svg height="1000" width="1000" xmlns="http://www.w3.org/2000/svg"><path d="M991.7 213.1c-4.4 -17.7 -26.5 -23.6 -39.3 -10.8L807.1 347.6 674.6 325.5 652.5 192.9 797.7 47.7c12.9 -13 6.7 -35 -11.1 -39.4C694.1 -14.6 592.2 10.1 519.9 82.4 442.5 159.8 421.2 272 453.4 369.9L36.6 786.6c-48.8 48.8 -48.8 128 0 176.8 48.8 48.8 128 48.8 176.8 0L629.8 547c97.9 32.6 209.9 11.1 287.8 -66.9 72.4 -72.4 97.1 -174.4 74.1 -267zM125 921.9c-25.9 0 -46.9 -21 -46.9 -46.9s21 -46.9 46.9 -46.9 46.9 21 46.9 46.9 -21 46.9 -46.9 46.9z"/></svg>