
  <svg height="1000" width="1000.0" xmlns="http://www.w3.org/2000/svg">
    <path d="m991.7 213.1c23 92.6-1.7 194.6-74.1 267-77.9 78-189.9 99.5-287.8 66.9l-416.4 416.4c-48.9 48.8-128 48.8-176.8 0s-48.8-128 0-176.8l416.8-416.7c-32.2-97.9-10.9-210.1 66.5-287.5 72.3-72.3 174.2-97 266.7-74.1 17.8 4.4 24 26.4 11.1 39.4l-145.2 145.2 22.1 132.6 132.5 22.1 145.3-145.3c12.8-12.8 34.9-6.9 39.3 10.8z m-866.7 708.8c25.9 0 46.9-21 46.9-46.9 0-25.9-21-46.9-46.9-46.9s-46.9 21-46.9 46.9c0 25.9 21 46.9 46.9 46.9z" />
  </svg>
