
  <svg height="1000" width="1250.0" xmlns="http://www.w3.org/2000/svg">
    <path d="m468.8 750c17.1 0 31.2 14.1 31.2 31.3s-14.1 31.2-31.2 31.2-31.3-14.1-31.3-31.2 14.1-31.3 31.3-31.3z m312.5 62.5c-17.2 0-31.3-14.1-31.3-31.2s14.1-31.3 31.3-31.3 31.2 14.1 31.2 31.3-14.1 31.2-31.2 31.2z m437.5-812.5c17.1 0 31.2 14.1 31.2 31.3v62.5c0 17.1-14.1 31.2-31.2 31.2h-1187.5c-17.2 0-31.3-14.1-31.3-31.2v-62.5c0-17.2 14.1-31.3 31.3-31.3h1187.5z m0 875c17.1 0 31.2 14.1 31.2 31.3v62.5c0 17.1-14.1 31.2-31.2 31.2h-1187.5c-17.2 0-31.3-14.1-31.3-31.2v-62.5c0-17.2 14.1-31.3 31.3-31.3h93.7v-687.5h1000v687.5h93.8z m-281.3-390.6v-31.3c0-8.6-7-15.6-15.6-15.6h-265.6v-62.5h203.1c8.6 0 15.6-7 15.6-15.6v-31.3c0-8.6-7-15.6-15.6-15.6h-203.1v-46.9c0-8.6-7.1-15.6-15.7-15.6h-31.2c-8.6 0-15.6 7-15.6 15.6v46.9h-203.2c-8.6 0-15.6 7-15.6 15.6v31.3c0 8.6 7 15.6 15.6 15.6h203.2v62.5h-265.7c-8.6 0-15.6 7-15.6 15.6v31.3c0 8.6 7 15.6 15.6 15.6h265.7v62.5h-203.2c-8.6 0-15.6 7-15.6 15.6v31.3c0 8.6 7 15.6 15.6 15.6h203.2v62.5h-125c-51.8 0-93.8 42-93.8 93.8s42 93.7 93.8 93.7 93.7-42 93.7-93.7v-31.3h125v31.3c0 51.7 42 93.7 93.8 93.7s93.7-42 93.7-93.7-42-93.8-93.7-93.8h-125v-62.5h203.1c8.6 0 15.6-7 15.6-15.6v-31.3c0-8.6-7-15.6-15.6-15.6h-203.1v-62.5h265.6c8.6 0 15.6-7 15.6-15.6z" />
  </svg>
