<svg height="1000" width="1250" xmlns="http://www.w3.org/2000/svg"><path d="M468.8 750c-17.2 0 -31.3 14.1 -31.3 31.3s14.1 31.2 31.3 31.2S500 798.4 500 781.3 485.9 750 468.8 750zm312.5 62.5c17.1 0 31.2 -14.1 31.2 -31.2S798.4 750 781.3 750 750 764.1 750 781.3s14.1 31.2 31.3 31.2zM1218.8 0H31.3C14.1 0 0 14.1 0 31.3v62.5C0 110.9 14.1 125 31.3 125h1187.5c17.1 0 31.2 -14.1 31.2 -31.2V31.3C1250 14.1 1235.9 0 1218.8 0zm0 875H1125V187.5H125V875H31.3C14.1 875 0 889.1 0 906.3v62.5c0 17.1 14.1 31.2 31.3 31.2h1187.5c17.1 0 31.2 -14.1 31.2 -31.2v-62.5c0 -17.2 -14.1 -31.3 -31.2 -31.3zM937.5 484.4c0 8.6 -7 15.6 -15.6 15.6H656.3v62.5h203.1c8.6 0 15.6 7 15.6 15.6v31.3c0 8.6 -7 15.6 -15.6 15.6H656.3v62.5h125c51.7 0 93.7 42 93.7 93.8S833 875 781.3 875s-93.8 -42 -93.8 -93.7V750h-125v31.3c0 51.7 -42 93.7 -93.7 93.7S375 833 375 781.3s42 -93.8 93.8 -93.8h125V625H390.6C382 625 375 618 375 609.4v-31.3c0 -8.6 7 -15.6 15.6 -15.6h203.2V500H328.1c-8.6 0 -15.6 -7 -15.6 -15.6v-31.3c0 -8.6 7 -15.6 15.6 -15.6h265.7V375H390.6C382 375 375 368 375 359.4v-31.3c0 -8.6 7 -15.6 15.6 -15.6h203.2v-46.9c0 -8.6 7 -15.6 15.6 -15.6h31.2c8.6 0 15.7 7 15.7 15.6v46.9h203.1c8.6 0 15.6 7 15.6 15.6v31.3c0 8.6 -7 15.6 -15.6 15.6H656.3v62.5h265.6c8.6 0 15.6 7 15.6 15.6v31.3z"/></svg>