<svg height="1000" width="750" xmlns="http://www.w3.org/2000/svg"><path d="M686 62.5H558.5a23.4 -23.4 0 0 1 -21.1 13.1L429.2 296.7c-28.3 67.7 -53 140.4 -53 140.4h-2.4s-24.7 -72.7 -53 -140.4L212.6 75.6A23.4 -23.4 0 0 1 191.5 62.5H64C46.4 62.5 35 81.3 43.4 97l156.4 293.6H85.9c-12.9 0 -23.4 10.5 -23.4 23.5v62.5c0 12.9 10.5 23.4 23.4 23.4h172.2l38.8 72.7V625h-211C73 625 62.5 635.5 62.5 648.4v62.5c0 13 10.5 23.5 23.4 23.5h211v179.7c0 12.9 10.5 23.4 23.4 23.4h109.4c12.9 0 23.4 -10.5 23.4 -23.4V734.4h211c12.9 0 23.4 -10.5 23.4 -23.5v-62.5C687.5 635.5 677 625 664.1 625h-211v-52.3L491.9 500h172.2c12.9 0 23.4 -10.5 23.4 -23.4v-62.5c0 -13 -10.5 -23.5 -23.4 -23.5H550.2L706.6 97C715 81.3 703.6 62.5 686 62.5z"/></svg>