
  <svg height="1000" width="968.8" xmlns="http://www.w3.org/2000/svg">
    <path d="m484.4 15.6c267.5 0 484.4 216.9 484.4 484.4s-216.9 484.4-484.4 484.4-484.4-216.9-484.4-484.4 216.9-484.4 484.4-484.4z m0 734.4c34.5 0 62.5-28 62.5-62.5s-28-62.5-62.5-62.5-62.5 28-62.5 62.5 28 62.5 62.5 62.5z m0-250c103.5 0 187.5-83.9 187.5-187.5s-84-187.5-187.5-187.5c-207.1 0-375 167.9-375 375s167.9 375 375 375c-103.6 0-187.5-83.9-187.5-187.5s83.9-187.5 187.5-187.5z m0-250c34.5 0 62.5 28 62.5 62.5s-28 62.5-62.5 62.5-62.5-28-62.5-62.5 28-62.5 62.5-62.5z" />
  </svg>
